<?xml version="1.0" encoding="UTF-8"?>
<svg width="190px" height="126px" viewBox="0 0 190 126" version="1.1" xmlns="http://www.w3.org/2000/svg" xmlns:xlink="http://www.w3.org/1999/xlink">
    <!-- Generator: Sketch 46.2 (44496) - http://www.bohemiancoding.com/sketch -->
    <title>company</title>
    <desc>Created with Sketch.</desc>
    <defs>
        <polygon id="path-1" points="102.563537 0.00793829787 102.563537 1.29078014 0.00010931849 1.29078014 0.00010931849 0.00793829787 102.563537 0.00793829787"></polygon>
    </defs>
    <g id="Components" stroke="none" stroke-width="1" fill="none" fill-rule="evenodd">
        <g id="company">
            <g id="Group-23"></g>
            <g id="Page-1" transform="translate(44.000000, 18.000000)">
                <path d="M35.61431,10.1592787 L34.1459162,10.1592787 C33.3573225,10.1592787 32.5803162,10.1760589 31.8181162,10.2831936 C23.3354225,11.4758745 16.7408475,19.049527 16.7408475,28.1869596 L16.7408475,46.8632574 C16.7408475,49.2737894 18.637335,50.8188532 20.954835,50.8188532 L53.4345975,50.8188532 L53.4345975,28.1869596 C53.4345975,18.2292362 45.5467287,10.1592787 35.61431,10.1592787" id="Fill-1" fill="#44D8FF" fill-rule="nonzero"></path>
                <path d="M60.1611412,10.1592787 L59.9229537,10.1592787 L38.9083787,10.1592787 L36.816835,10.1592787 L36.5271475,10.1592787 L35.61431,10.1592787 C45.5467287,10.1592787 53.4345975,18.2292362 53.4345975,28.1869596 L53.4345975,50.8188532 L56.1203225,50.8188532 L79.1582037,50.8188532 C80.9014787,50.8188532 82.4033475,49.6287539 82.4033475,47.8803922 L82.4033475,33.1409738 C82.4033475,20.4584135 72.3531225,10.1592787 60.1611412,10.1592787" id="Fill-3" fill="#03CAFF" fill-rule="nonzero"></path>
                <path d="M25.9806556,50.8188532 L53.4346619,50.8188532 L53.4346619,25.1452362 C52.7909119,39.5632504 40.6098744,50.8188532 25.9806556,50.8188532" id="Fill-5" fill="#03CAFF" fill-rule="nonzero"></path>
                <path d="M35.6320775,9.73403121 C35.6320775,9.73403121 35.8322838,9.74564823 36.20759,9.7669461 C36.586115,9.80437872 37.1275088,9.78179007 37.8414275,9.8966695 C38.1974212,9.95281844 38.59204,10.0160667 39.0214213,10.0838326 C39.454665,10.1393362 39.8937025,10.2981021 40.3784462,10.413627 C40.6179213,10.4801021 40.8689837,10.5375418 41.12069,10.6169248 C41.3685337,10.709861 41.622815,10.8053787 41.8841775,10.9028326 C42.14554,11.0009319 42.41334,11.1016128 42.6875775,11.2048752 C42.9553775,11.3223362 43.22189,11.4604496 43.4980587,11.5921092 C43.7735838,11.7263504 44.0542588,11.863173 44.3407275,12.0025773 C44.61239,12.1684426 44.8898462,12.3375348 45.171165,12.5092085 C45.4479775,12.688627 45.7492525,12.8415844 46.0189838,13.0506908 C46.29129,13.2552794 46.5674588,13.463095 46.84749,13.6741376 L47.2704338,13.9929603 L47.6676275,14.3543787 C47.9328525,14.5970454 48.20194,14.842939 48.4736025,15.0914142 C48.740115,15.3456979 48.9763713,15.6348326 49.2325838,15.9097688 C49.4797838,16.193095 49.7553088,16.4570596 49.970965,16.7745915 C50.4306025,17.3870667 50.9095525,18.001478 51.2925838,18.6926908 C51.7290463,19.3509887 52.0522088,20.082861 52.401765,20.8063433 C53.0178338,22.2875135 53.534765,23.855166 53.735615,25.4796128 C54.00084,27.0988965 53.946765,28.739478 53.9635025,30.3103574 C53.9692963,31.8934993 53.9757338,33.4521163 53.9815275,34.9597475 C53.993115,37.9763007 54.0040588,40.7908468 54.0130713,43.2039603 C54.0510525,48.0295418 54.075515,51.246166 54.075515,51.246166 L53.2708275,51.246166 C53.2708275,51.246166 53.2959338,48.0295418 53.333915,43.2039603 C53.3429275,40.7908468 53.3538713,37.9763007 53.3654588,34.9597475 C53.3712525,33.4521163 53.37769,31.8934993 53.3834837,30.3103574 C53.3860588,28.7207617 53.4356275,27.1227759 53.1723338,25.5641589 C52.9753463,23.9906979 52.468715,22.4746766 51.8700275,21.0419106 C51.5294838,20.3423078 51.2159775,19.6343149 50.7911025,18.9986057 C50.419015,18.3299816 49.95294,17.7368681 49.507465,17.1444 C49.2982463,16.8371943 49.0298025,16.5829106 48.7903275,16.3092652 C48.5411963,16.0440099 48.312665,15.7639106 48.0545213,15.5186624 C47.7905837,15.2792227 47.529865,15.0417191 47.2717212,14.8074426 L46.8874025,14.4582865 L46.4773337,14.1517262 C46.2056713,13.947783 45.9378713,13.7470667 45.6739338,13.5495773 C45.4125713,13.3482156 45.1209525,13.2010667 44.8525087,13.0287475 C44.5802025,12.8628823 44.3124025,12.6995986 44.0491088,12.5395418 C43.7716525,12.4059461 43.49999,12.2749319 43.2334775,12.1458539 C42.9656775,12.0200028 42.7088212,11.8851163 42.4487463,11.7741092 C42.1828775,11.6773007 41.9228025,11.5830738 41.669165,11.4914284 C41.4161713,11.399783 41.1689712,11.3100738 40.9294962,11.2229461 C40.685515,11.1493716 40.4428213,11.097095 40.2104275,11.0351376 C39.7437088,10.9305844 39.31304,10.7789177 38.9042587,10.733095 C38.4974087,10.6724284 38.1240338,10.6169248 37.7867088,10.5665844 C37.1133462,10.4620312 36.54234,10.489783 36.1728275,10.4562227 C35.7968775,10.4394426 35.5966712,10.4297617 35.5966712,10.4297617 L35.6320775,9.73403121 Z" id="Fill-7" fill="#42457B" fill-rule="nonzero"></path>
                <polygon id="Fill-9" fill="#E5D5B9" fill-rule="nonzero" points="55.37589 50.6368532 54.6748463 90.1876475 47.8652588 90.1876475 48.6660838 51.1525199"></polygon>
                <polygon id="Fill-11" fill="#E5D5B9" fill-rule="nonzero" points="55.37589 50.6368532 54.6748463 90.1876475 47.8652588 90.1876475 48.6660838 51.1525199"></polygon>
                <polyline id="Fill-13" fill="#DDC297" fill-rule="nonzero" points="48.6661481 51.3138674 55.3759544 50.7446333 54.6749106 90.4025624"></polyline>
                <path d="M29.8601506,10.2444057 L23.3537694,0.970795745 C23.0570006,0.548065248 22.4505881,0.500951773 22.0920194,0.871405674 L16.9136944,6.23007943 C16.4894631,6.66894468 16.9085444,7.38984539 17.4988631,7.23624255 L22.6321256,5.89899433 L26.8119944,11.7468738" id="Fill-15" fill="#FA9F8E" fill-rule="nonzero"></path>
                <path d="M29.6191306,10.4144014 C28.1977306,8.65248652 26.8522931,6.83571348 25.5029931,5.02281277 C24.8405744,4.10764965 24.1697869,3.19829504 23.5202431,2.27409645 L23.0303494,1.58288369 L22.9073931,1.40991915 C22.8964494,1.3937844 22.8462369,1.32408227 22.8674806,1.35183404 C22.8494556,1.33053617 22.8140494,1.2827773 22.8101869,1.2827773 C22.8249931,1.3027844 22.7683431,1.25373475 22.7438806,1.25308936 C22.6756431,1.23630922 22.5996806,1.24018156 22.5462494,1.28858582 L21.9803931,1.85201135 C21.1782806,2.64713191 20.3349681,3.4022383 19.5122556,4.17735177 L18.2698181,5.33195461 C17.8745556,5.71918865 17.4303681,6.12707518 17.0820994,6.50398298 C17.0228744,6.5743305 17.0183681,6.7756922 17.1348869,6.87637305 C17.1876744,6.92994043 17.2526931,6.95704681 17.3222181,6.95962837 C17.3601994,6.96027376 17.3878806,6.95575603 17.4406681,6.94413901 L17.6453806,6.89057163 C18.1912806,6.74923121 18.7320306,6.58788369 19.2747119,6.43428085 C20.3581431,6.11739433 21.4319181,5.76565674 22.4947494,5.36874184 C22.7052556,5.29000426 22.9363619,5.37067801 23.0560994,5.54945106 L23.0760556,5.5797844 L27.0750306,11.5580326 C27.1748119,11.7064723 27.1348994,11.907834 26.9868369,12.0078695 C26.8439244,12.1033872 26.6527306,12.069827 26.5497306,11.9355858 L22.1876806,6.21807518 L22.7696306,6.42911773 C21.6488619,6.60079149 20.5396806,6.81764255 19.4395119,7.06999007 C18.8910369,7.20035887 18.3399869,7.32362837 17.7947306,7.46625957 L17.5900181,7.51918156 C17.5056869,7.53918865 17.3930306,7.55790496 17.2900306,7.55080567 C17.0775931,7.54112482 16.8677306,7.4449617 16.7228869,7.29652199 C16.4319119,7.00545106 16.3263369,6.51430922 16.6121619,6.11868511 L17.7664056,4.84274894 L18.8781619,3.56164965 C19.6242681,2.71231631 20.3504181,1.84297589 21.1184119,1.01429504 L21.4055244,0.703217021 L21.5510119,0.549614184 C21.6070181,0.493465248 21.6269744,0.463777305 21.7344806,0.365032624 C22.0994869,0.0294297872 22.6505369,-0.0873858156 23.1191869,0.0681531915 C23.3631681,0.153990071 23.5524306,0.261124823 23.7584306,0.488302128 L23.8350369,0.583174468 L23.9167931,0.698699291 L24.0371744,0.87230922 L24.5206306,1.56868511 C25.1688869,2.49352908 25.7958994,3.43386241 26.4312806,4.36838723 C27.6769369,6.25486241 28.9277431,8.13746525 30.1012994,10.0742809 C30.1856306,10.2143305 30.1418556,10.3963305 30.0021619,10.481522 C29.8740556,10.5589688 29.7105431,10.5279901 29.6191306,10.4144014" id="Fill-17" fill="#42457B" fill-rule="nonzero"></path>
                <path d="M82.6369644,33.1412965 C82.6369644,33.1412965 82.6157206,36.1578496 82.5790269,41.4371404 C82.5700144,42.7569631 82.5597144,44.2181262 82.5481269,45.8090128 C82.5455519,46.206573 82.5429769,46.6125234 82.5397581,47.0262184 C82.5275269,47.4437858 82.5603581,47.8484454 82.5075706,48.3182894 C82.3955581,49.2315163 81.8766956,50.1247362 81.0668581,50.6894525 C80.6600081,50.9714879 80.1913581,51.161878 79.6776456,51.2464241 C79.1735894,51.3225801 78.6920644,51.2896652 78.2079644,51.3045092 C77.2339706,51.3148355 76.2322956,51.3245163 75.2035831,51.3348426 C73.1468019,51.3561404 70.9838019,51.3780837 68.7268144,51.4013177 C59.7001519,51.4897362 49.1684019,51.593644 37.8841081,51.7046511 C32.2306956,51.5981617 26.3886644,51.4884454 20.4526456,51.3761475 C18.8703081,51.203183 17.3471956,50.2318709 16.6519456,48.7319844 C16.4871456,48.3544312 16.3519581,47.9794596 16.2933769,47.551566 C16.2502456,47.3301972 16.2489581,47.1533603 16.2360831,46.9649064 C16.2251394,46.7370837 16.2335081,46.5789631 16.2309331,46.3827645 L16.2296456,44.131644 C16.2277144,41.1267078 16.2264269,38.1095092 16.2251394,35.092956 L16.2225644,30.569417 L16.2212769,28.3105518 C16.2283581,27.5477007 16.2528206,26.7745234 16.3487394,26.0136085 C16.6892831,22.9615589 17.7991081,20.0140624 19.5217831,17.5176936 C21.2380206,15.0193887 23.5465081,12.9522043 26.1948956,11.5930128 C28.8316956,10.2209135 31.8186956,9.57487801 34.6756581,9.65748794 C40.3181269,9.65103404 45.7719769,9.64458014 50.9438644,9.63812624 C53.5291644,9.63489929 56.0449394,9.63167234 58.4776706,9.62909078 C59.6847019,9.63360851 60.9013894,9.59940284 62.1026269,9.71170071 C63.2961394,9.81948085 64.4651894,9.99567234 65.5820956,10.2886794 C70.0825519,11.4116582 73.7313269,13.889956 76.3153394,16.596722 C78.8890519,19.3544738 80.4012206,22.3400482 81.2850894,24.866105 C82.1670269,27.4095872 82.4534956,29.5161404 82.5622894,30.9456794 C82.6137894,31.6698071 82.6350331,32.2177433 82.6305269,32.5798071 C82.6343894,32.9450979 82.6369644,33.1335518 82.6369644,33.1335518 L82.6369644,33.1412965 Z M81.9932144,33.1490411 C81.9932144,33.1490411 81.9861331,32.9605872 81.9726144,32.5959418 C81.9674644,32.2267787 81.9320581,31.6917504 81.8651081,31.0063461 C81.7247706,29.6265021 81.3925956,27.5890057 80.4791144,25.1616936 C79.5804394,22.7363177 77.9961706,19.9527504 75.5222394,17.3518284 C73.0792081,14.750261 69.6261331,12.354573 65.3413331,11.2264312 C64.2778581,10.9334241 63.1622394,10.7520695 62.0208706,10.6346085 C60.8833644,10.5074667 59.7027269,10.5436085 58.4776706,10.5352184 C56.0449394,10.5319915 53.5291644,10.5294099 50.9438644,10.526183 C45.7719769,10.5197291 40.3181269,10.5132752 34.6756581,10.5061759 C31.8920831,10.4229206 29.1007831,11.0289418 26.5727769,12.3300482 C24.0460581,13.6195376 21.8309144,15.5879773 20.1867769,17.9772113 C18.5355581,20.3638638 17.4714394,23.183573 17.1424831,26.1052539 C16.9590144,27.5554454 17.0330456,29.0553319 17.0163081,30.569417 L17.0137331,35.092956 C17.0124456,38.1095092 17.0111581,41.1267078 17.0092269,44.131644 L17.0079394,46.3827645 L17.0111581,46.9242468 C17.0201706,47.1094738 17.0214581,47.3088993 17.0542894,47.4554028 C17.0896956,47.771644 17.2029956,48.1104738 17.3317456,48.4176794 C17.8821519,49.6632823 19.1638581,50.5448851 20.5253894,50.6636369 C26.3745019,50.6358851 32.2590206,50.4693745 37.8841081,50.3867645 C49.1684019,50.4977716 59.7001519,50.601034 68.7268144,50.6900979 C70.9838019,50.7133319 73.1468019,50.7352752 75.2035831,50.7559277 C76.2322956,50.7668993 77.2339706,50.7765801 78.2079644,50.7869064 C78.6972144,50.783034 79.1813144,50.8217574 79.6145581,50.7617362 C80.0342831,50.7010695 80.4540081,50.539722 80.8035644,50.3028638 C81.5116894,49.8259206 81.9668206,49.0527433 82.0640269,48.2608496 C82.1084456,47.8774879 82.0884894,47.4353957 82.0904206,47.0262184 C82.0872019,46.6125234 82.0846269,46.206573 82.0820519,45.8090128 C82.0704644,44.2181262 82.0601644,42.7569631 82.0511519,41.4371404 C82.0144581,36.1578496 81.9932144,33.1412965 81.9932144,33.1412965 L81.9932144,33.1490411 Z" id="Fill-19" fill="#42457B" fill-rule="nonzero"></path>
                <path d="M44.6714863,80.696283 C44.5865113,79.2525454 40.92808,74.0377936 44.17773,75.8545667 C45.6544925,76.6793752 48.284855,79.3680702 48.284855,79.3680702 L48.284855,83.4036943 L44.6714863,80.696283 Z" id="Fill-21" fill="#9FD997" fill-rule="nonzero"></path>
                <path d="M45.1832031,90.1876475 C45.1832031,90.1876475 45.3724656,85.2768745 39.8568156,79.6684348 C38.9877531,78.7848957 39.5323656,78.219534 40.7587094,78.6603355 C44.3637094,79.9556333 48.2564656,83.5465837 48.2564656,83.5465837 C48.2564656,84.0344986 48.2622594,90.1876475 48.2622594,90.1876475 L45.1832031,90.1876475 Z" id="Fill-23" fill="#9FD997" fill-rule="nonzero"></path>
                <path d="M47.9703831,89.9573723 L48.1171581,51.2087979 C48.1178019,50.9596773 48.2755206,50.7583156 48.5240081,50.7596064 C48.7731394,50.7602518 48.9282831,50.9629043 48.9282831,51.2126702 L48.9282831,51.2178333 L48.3617831,89.9618901 C48.3598519,90.082578 48.2832456,90.1787411 48.1628644,90.176805 C48.0431269,90.1748688 47.9697394,90.0767695 47.9703831,89.9573723" id="Fill-25" fill="#42457B" fill-rule="nonzero"></path>
                <path d="M54.7366462,81.0819681 C54.7366462,81.0819681 59.6104775,74.8978404 62.50349,73.7219397 C65.3971463,72.546039 57.2253837,88.2516064 57.0689525,90.1877766 L54.358765,90.1877766 L54.7366462,81.0819681 Z" id="Fill-27" fill="#9FD997" fill-rule="nonzero"></path>
                <path d="M54.3960381,81.1636745 C54.3960381,81.1636745 54.6516069,80.790639 55.1415006,80.1736461 C55.6281756,79.5534262 56.3317944,78.6731142 57.2510694,77.6785681 C58.1645506,76.6782135 59.2582819,75.5313553 60.6359069,74.4774333 C60.9848194,74.2186319 61.3511131,73.9643482 61.7560319,73.7378163 C61.9678256,73.6235823 62.1551569,73.5229014 62.4223131,73.4235113 C62.4499944,73.4093128 62.5851819,73.3751071 62.6862506,73.3609085 C62.8008381,73.3538092 62.9160694,73.3499369 63.0660631,73.4009227 C63.2089756,73.4480362 63.3506006,73.5571071 63.4323569,73.6745681 C63.5121819,73.786866 63.5566006,73.9036816 63.5772006,73.9940362 C63.6602444,74.3722348 63.6029506,74.605866 63.5707631,74.860795 C63.5289194,75.107334 63.4703381,75.3370929 63.4072506,75.5629794 C63.2797881,76.0147525 63.1285069,76.4471638 62.9695006,76.8757028 C62.3225319,78.580178 61.5893006,80.2201142 60.8760256,81.7471071 C60.1614631,83.2670007 59.4945381,84.6862135 58.9228881,85.9027738 C58.3493069,87.1141709 57.8967506,88.1332418 57.6315256,88.8554333 C57.4963381,89.2149156 57.4049256,89.4988872 57.3592194,89.6892773 C57.3128694,89.8796674 57.3051444,89.9732489 57.3051444,89.9732489 C57.2942006,90.1042631 57.0901319,90.2010716 56.9600944,90.1901 C56.8358506,90.1797738 56.6530256,90.0752206 56.6530256,89.9532418 L56.6530256,89.9454972 C56.6530256,89.9454972 56.7437944,89.8138376 56.7792006,89.5918234 C56.8139631,89.3691638 56.9291944,89.056795 57.0431381,88.6727879 C57.2748881,87.9047738 57.6926819,86.846334 58.1980256,85.5936319 C58.7297631,84.3564191 59.3606381,82.9126816 60.0249881,81.366327 C60.6861194,79.8244901 61.4399506,78.1948801 62.0470069,76.5362277 C62.1976444,76.123178 62.3418444,75.7075468 62.4545006,75.2977241 C62.5105069,75.0937809 62.5613631,74.8898376 62.5922631,74.6975113 C62.6238069,74.5168021 62.6360381,74.2986603 62.6135069,74.2444475 C62.5974131,74.2037879 62.6334631,74.3083411 62.7358194,74.3431922 C62.7821694,74.3554546 62.7866756,74.3554546 62.7918256,74.3515823 C62.7860319,74.359327 62.8117819,74.3367383 62.7377506,74.3651355 C62.5948381,74.4141851 62.3927006,74.5103482 62.2240381,74.5994121 C61.8712631,74.7885113 61.5300756,75.0150433 61.2004756,75.2506106 C59.8833631,76.2064333 58.7394194,77.2758447 57.7660694,78.1851993 C55.8464069,80.0432773 54.6013944,81.3353482 54.6013944,81.3353482 C54.5498944,81.3889156 54.4649194,81.3902064 54.4114881,81.3385752 C54.3638506,81.2927525 54.3593444,81.2165965 54.3960381,81.1636745" id="Fill-29" fill="#42457B" fill-rule="nonzero"></path>
                <path d="M54.1045481,89.9554362 C54.1045481,89.9554362 54.2339419,80.2752305 54.3633356,70.5956702 C54.5094669,60.9167553 54.6549544,51.237195 54.6549544,51.237195 C54.6588169,50.9925922 54.7727606,50.797039 55.0173856,50.8009113 C55.2613669,50.8041383 55.3656544,51.0061454 55.3656544,51.2507482 L55.3656544,51.255266 C55.3656544,51.255266 55.2079356,60.9322447 54.9626669,70.6098688 C54.8397106,75.4490035 54.7553794,80.2849113 54.6916481,83.9145851 C54.6182606,87.5442589 54.5912231,89.9638262 54.5912231,89.9638262 C54.5886481,90.1045213 54.4837169,90.2161738 54.3433794,90.2135922 C54.2030419,90.2110106 54.1026169,90.0954858 54.1045481,89.9554362" id="Fill-31" fill="#42457B" fill-rule="nonzero"></path>
                <path d="M48.1102056,83.5640738 C48.1102056,83.5640738 47.8282431,83.3433504 47.3351306,82.9580525 C46.8381556,82.5746908 46.1107181,82.050634 45.2268494,81.4465489 C44.3358994,80.8540809 43.2666306,80.2086908 42.0834181,79.6284851 C41.7821431,79.4987617 41.4815119,79.3483858 41.1654306,79.2367333 C41.0102869,79.179939 40.8487056,79.1095915 40.6954931,79.062478 C40.5667431,79.0224638 40.4128869,78.9901943 40.2815619,78.9798681 C40.1495931,78.9688965 40.0208431,78.9824496 39.9564681,79.0108468 C39.8830806,79.0560241 39.9480994,79.009556 39.9384431,78.9856766 C39.9320056,78.9837404 39.9609744,79.0928113 40.0401556,79.1934922 C40.0762056,79.2457688 40.1238431,79.2993362 40.1734119,79.3522582 L40.3633181,79.5581376 L41.0971931,80.3539035 C41.3334494,80.6378752 41.5690619,80.920556 41.8027431,81.2013007 C42.0428619,81.4788184 42.2437119,81.7763433 42.4574369,82.0616057 C42.6737369,82.3442865 42.8720119,82.6347121 43.0548369,82.9296553 C43.4327181,83.5092156 43.7552369,84.0991021 44.0378431,84.6683362 C44.3223806,85.2369248 44.5573494,85.7919603 44.7466119,86.3147262 C45.1225619,87.3628397 45.3008806,88.279939 45.3800619,88.9272652 C45.4212619,89.2506057 45.4270556,89.5100525 45.4309181,89.6875348 C45.4328494,89.8630809 45.4257681,89.9695702 45.4257681,89.9695702 C45.4167556,90.103166 45.3015244,90.2044922 45.1676244,90.1954567 C45.0453119,90.1870667 44.9500369,90.0896128 44.9423119,89.9702156 L44.9403806,89.9495631 C44.9403806,89.9495631 44.9345869,89.8669532 44.9242869,89.7120596 C44.9081931,89.5507121 44.8779369,89.3132085 44.8193556,89.011166 C44.7099181,88.4077262 44.4775244,87.5532298 44.0706744,86.5754638 C43.8723994,86.0856128 43.6284181,85.564783 43.3367994,85.0323362 C43.0464681,84.4998894 42.7181556,83.9480809 42.3351244,83.4065986 C42.1529431,83.1290809 41.9630369,82.8515631 41.7512431,82.5824355 C41.5433119,82.3113716 41.3463244,82.0248184 41.1165056,81.7673078 C40.8924806,81.5033433 40.6665244,81.2367972 40.4392806,80.9696057 L39.6970369,80.1815844 L39.5174306,79.9911943 C39.4427556,79.9131021 39.3687244,79.8330738 39.2998431,79.737556 C39.1685181,79.5503929 39.0172369,79.3219248 39.0159494,78.9546979 C39.0178806,78.7733433 39.0951306,78.5642369 39.2213056,78.4196695 C39.3474806,78.273166 39.4968306,78.1931376 39.6313744,78.1427972 C39.9049681,78.0459887 40.1418681,78.0485702 40.3620306,78.0666411 C40.5847681,78.0898752 40.7778931,78.1350525 40.9845369,78.2028184 C41.1660744,78.2634851 41.3257244,78.3370596 41.4956744,78.4035348 C41.8349306,78.531322 42.1484369,78.6946057 42.4651619,78.8398184 C43.0812306,79.1605773 43.6715494,79.4768184 44.1955619,79.8298468 C44.7266556,80.1731943 45.2081806,80.5229957 45.6491494,80.8495631 C46.5291556,81.504634 47.2089556,82.115173 47.6808244,82.5443574 C48.1507619,82.9741872 48.4031119,83.2439603 48.4031119,83.2439603 C48.4855119,83.3317333 48.4810056,83.4692014 48.3934556,83.5518113 C48.3142744,83.6260312 48.1932494,83.6292582 48.1102056,83.5640738" id="Fill-33" fill="#42457B" fill-rule="nonzero"></path>
                <path d="M48.3614612,79.4723652 C48.3614612,79.4723652 47.7608425,78.9934858 46.8602362,78.2745213 C46.4121862,77.9169752 45.8933237,77.4955355 45.32618,77.072805 C45.0442175,76.8636986 44.751955,76.6429752 44.4487487,76.4558121 C44.29618,76.3622305 44.149405,76.2705851 43.994905,76.1912021 C43.814655,76.0969752 43.67818,76.0324362 43.531405,75.9827411 C43.402655,75.9182021 43.2082425,75.9369184 43.3344175,75.916266 C43.3994363,75.8723794 43.4277612,75.8149397 43.4123112,75.8233298 C43.4097363,75.8497908 43.407805,75.9046489 43.4142425,75.9717695 C43.454155,76.2609043 43.5783988,76.6074787 43.69363,76.9327553 C43.9388987,77.5878262 44.2028363,78.211273 44.4023987,78.7585638 C44.61033,79.303273 44.741655,79.7821525 44.8169737,80.1255 C44.8555987,80.2971738 44.8665425,80.439805 44.8710487,80.5372589 C44.870405,80.6366489 44.8697612,80.6895709 44.8697612,80.6895709 C44.8691175,80.7495922 44.8201925,80.7979965 44.7603237,80.7973511 C44.7094675,80.7967057 44.66698,80.7605638 44.6560362,80.712805 L44.6534612,80.7024787 C44.6534612,80.7024787 44.61548,80.5333865 44.47643,80.2358617 C44.3444613,79.9370461 44.1024112,79.5278688 43.8268863,79.0238191 C43.5487862,78.5191241 43.2185425,77.9324645 42.913405,77.2522234 C42.758905,76.9095213 42.6134175,76.5539113 42.5310175,76.0931028 C42.5149237,75.9711241 42.5052675,75.8362376 42.5258675,75.6723085 C42.558055,75.5025709 42.6546175,75.2411879 42.90568,75.1166277 C43.0176925,75.052734 43.1155425,75.044344 43.2204737,75.0249823 C43.3002988,75.0249823 43.3839862,75.0269184 43.4612362,75.0346631 C43.5912737,75.0598333 43.7225987,75.0895213 43.8243112,75.1314716 C44.041255,75.2063369 44.2504737,75.3134716 44.4081925,75.3993085 C44.5929487,75.496117 44.7706237,75.6077695 44.9328487,75.7226489 C45.2637363,75.9498262 45.555355,76.1937837 45.84118,76.4280603 C46.3967362,76.9121028 46.884055,77.3858191 47.2870425,77.8066135 C48.0878675,78.6527199 48.5687487,79.2645496 48.5687487,79.2645496 C48.619605,79.3277979 48.609305,79.4213794 48.5455737,79.4723652 C48.490855,79.5162518 48.4142487,79.5136702 48.3614612,79.4723652" id="Fill-35" fill="#42457B" fill-rule="nonzero"></path>
                <g id="Group-39" transform="translate(0.000000, 89.538191)">
                    <mask id="mask-2" fill="white">
                        <use xlink:href="#path-1"></use>
                    </mask>
                    <g id="Clip-38" fill-rule="nonzero"></g>
                    <path d="M0.31814125,0.326760993 C0.31814125,0.326760993 6.68869125,0.252541135 16.2445162,0.141534043 C21.021785,0.11636383 26.5960162,0.0460163121 32.5687287,0.0440801418 C38.5407975,0.0324631206 44.9113475,0.0202007092 51.2818975,0.00793829787 C57.6524475,0.0221368794 64.0223538,0.036335461 69.9950663,0.0498886525 C75.967135,0.0860304965 81.5413662,0.12023617 86.3192787,0.149278723 C95.87446,0.255768085 102.24501,0.326760993 102.24501,0.326760993 C102.422685,0.328697163 102.565598,0.474555319 102.563666,0.653328369 C102.561735,0.828874468 102.419466,0.970214894 102.24501,0.972151064 C102.24501,0.972151064 95.87446,1.04314397 86.3192787,1.14963333 C81.5413662,1.17867589 75.967135,1.21288156 69.9950663,1.2490234 C64.0223538,1.2625766 57.6524475,1.27677518 51.2818975,1.29097376 C44.9113475,1.27871135 38.5407975,1.26644894 32.5687287,1.25483191 C26.5960162,1.25289574 21.021785,1.18254823 16.2445162,1.15737801 C6.68869125,1.04637092 0.31814125,0.972151064 0.31814125,0.972151064 C0.14046625,0.970214894 -0.0018025,0.823711348 0.00012875,0.645583688 C0.00206,0.470037589 0.143685,0.328697163 0.31814125,0.326760993" id="Fill-37" fill="#42457B" fill-rule="nonzero" mask="url(#mask-2)"></path>
                </g>
                <path d="M37.2579969,30.2817667 L37.2579969,30.2817667 C36.6805531,30.2817667 36.2080406,29.8080504 36.2080406,29.2291355 L36.2080406,29.2291355 C36.2080406,28.6502206 36.6805531,28.1765043 37.2579969,28.1765043 L37.2579969,28.1765043 C37.8354406,28.1765043 38.3079531,28.6502206 38.3079531,29.2291355 L38.3079531,29.2291355 C38.3079531,29.8080504 37.8354406,30.2817667 37.2579969,30.2817667" id="Fill-40" fill="#42457B" fill-rule="nonzero"></path>
                <path d="M29.0855906,30.2817667 L29.0855906,30.2817667 C28.5081469,30.2817667 28.0356344,29.8080504 28.0356344,29.2291355 L28.0356344,29.2291355 C28.0356344,28.6502206 28.5081469,28.1765043 29.0855906,28.1765043 L29.0855906,28.1765043 C29.6630344,28.1765043 30.1355469,28.6502206 30.1355469,29.2291355 L30.1355469,29.2291355 C30.1355469,29.8080504 29.6630344,30.2817667 29.0855906,30.2817667" id="Fill-42" fill="#42457B" fill-rule="nonzero"></path>
                <path d="M29.30762,38.1886986 C29.31792,38.1912801 29.413195,38.2190319 29.6340012,38.2661454 C29.8515887,38.3113227 30.1696012,38.3661809 30.5577825,38.4152305 C31.3335012,38.5088121 32.3892513,38.5572163 33.4475762,38.5023582 C34.5059012,38.4494362 35.562295,38.3003511 36.3463825,38.1409397 C36.7410013,38.0731738 37.06352,37.9879823 37.2920513,37.9369965 C37.5199388,37.8840745 37.6499762,37.8537411 37.6499762,37.8537411 L37.66092,37.8511596 C37.8038325,37.8175993 37.9461013,37.9066631 37.9789325,38.0499397 C38.01112,38.1867624 37.9300075,38.3235851 37.7980388,38.3642447 C37.7980388,38.3642447 37.6673575,38.4042589 37.4388262,38.4746064 C37.2090075,38.5423723 36.8845575,38.6514433 36.4847887,38.7495426 C35.6923325,38.967039 34.614695,39.1955071 33.517745,39.3258759 C32.4214388,39.4581809 31.3090387,39.4839965 30.4695887,39.4401099 C30.0498637,39.4155851 29.6983762,39.3800887 29.4498887,39.345883 C29.20462,39.3116773 29.037245,39.2761809 29.047545,39.278117 C28.7475575,39.2064787 28.5621575,38.9037908 28.6342575,38.603039 C28.7057137,38.3022872 29.0076325,38.1164149 29.30762,38.1886986" id="Fill-44" fill="#03CAFF" fill-rule="nonzero"></path>
                <path d="M29.2203919,37.760934 C29.2203919,37.760934 29.7366794,37.8203099 30.5323544,37.8764589 C31.3248106,37.934544 32.3850669,37.987466 33.4472544,37.9997284 C34.5087981,38.0145723 35.5709856,37.987466 36.3660169,37.9416433 C37.1616919,37.9009837 37.6902106,37.8454801 37.6902106,37.8454801 C37.8356981,37.8299908 37.9663794,37.9358348 37.9818294,38.0816929 C37.9966356,38.2217426 37.9000731,38.3475936 37.7642419,38.371473 L37.7584481,38.3727638 C37.7584481,38.3727638 37.2260669,38.4663454 36.4220231,38.5631539 C35.6186231,38.6644801 34.5429169,38.7670972 33.4646356,38.8258277 C32.3863544,38.8871397 31.3061419,38.9077922 30.4943731,38.9045652 C29.6851794,38.9032745 29.1347731,38.8781043 29.1347731,38.8781043 C28.8257731,38.8658418 28.5856544,38.6051043 28.5978856,38.2959624 C28.6101169,37.9861752 28.8701919,37.7454447 29.1785481,37.7577071 C29.1914231,37.7583525 29.2081606,37.7596433 29.2203919,37.760934" id="Fill-46" fill="#42457B" fill-rule="nonzero"></path>
                <path d="M25.3413475,24.4478277 C25.3413475,24.4478277 25.646485,24.228395 26.1215725,23.9444234 C26.5985913,23.6585156 27.2642288,23.3254943 27.9723538,23.0583028 C28.3257725,22.9227709 28.6939975,22.8156362 29.0474162,22.7291539 C29.4040537,22.6517071 29.7497475,22.5987851 30.0542412,22.5897496 C30.3619537,22.5923312 30.6194537,22.6078206 30.801635,22.6568702 C30.9812413,22.7001113 31.0842412,22.7246362 31.0842412,22.7246362 C31.3700663,22.7936929 31.54581,23.0821823 31.4769287,23.3693809 C31.4131975,23.6352816 31.1602038,23.8069553 30.8949787,23.7740404 L30.8100037,23.7637142 C30.8100037,23.7637142 30.7353287,23.7546787 30.6040037,23.738544 C30.4778287,23.7069199 30.2821287,23.7049837 30.0484475,23.6785227 C29.9280663,23.6804589 29.797385,23.6785227 29.6576912,23.6727142 C29.5154225,23.6811043 29.364785,23.6901397 29.2096413,23.6991752 C28.896135,23.7366078 28.5581662,23.7895298 28.2208412,23.8721397 C27.54426,24.0309057 26.8786225,24.2780901 26.3848663,24.4762248 C25.8878912,24.6762957 25.5737412,24.8344163 25.5737412,24.8344163 C25.4623725,24.8905652 25.3265412,24.8453879 25.270535,24.7337355 C25.2203225,24.6324092 25.25251,24.5117213 25.3413475,24.4478277" id="Fill-48" fill="#00B7F6" fill-rule="nonzero"></path>
                <path d="M41.7981725,24.8539716 C41.7981725,24.8539716 41.4872413,24.6932695 40.9928413,24.4880355 C40.50166,24.2847376 39.8385975,24.0323901 39.1639475,23.8678156 C38.82791,23.7819787 38.4899413,23.7258298 38.176435,23.6858156 C38.0206475,23.674844 37.87001,23.6645177 37.7277413,23.6548369 C37.5874038,23.6593546 37.4560788,23.6587092 37.3350538,23.6561277 C37.100085,23.6812979 36.9024537,23.683234 36.775635,23.7155035 C36.6436663,23.7322837 36.5677038,23.7426099 36.5677038,23.7426099 L36.4878788,23.7529362 C36.2084913,23.7897234 35.951635,23.592234 35.9149413,23.3114894 C35.8808225,23.0488156 36.0539913,22.8061489 36.3050538,22.7461277 C36.3050538,22.7461277 36.40741,22.7222482 36.5863725,22.6802979 C36.7672663,22.6318936 37.0234788,22.6157589 37.3299037,22.6118865 C37.6324663,22.6196312 37.9775163,22.6680355 38.3341538,22.7422553 C38.6875725,22.826156 39.0557975,22.9307092 39.40986,23.0623688 C40.1199163,23.3231064 40.7881287,23.6516099 41.2683663,23.9323546 C41.7460288,24.2118085 42.054385,24.4280142 42.054385,24.4280142 C42.1663975,24.5067518 42.1940788,24.6622908 42.1155412,24.775234 C42.044085,24.8784965 41.9069663,24.9101206 41.7981725,24.8539716" id="Fill-50" fill="#00B7F6" fill-rule="nonzero"></path>
                <path d="M25.3413475,24.4478277 C25.3413475,24.4478277 25.646485,24.228395 26.1215725,23.9444234 C26.5985913,23.6585156 27.2642288,23.3254943 27.9723538,23.0583028 C28.3257725,22.9227709 28.6939975,22.8156362 29.0474162,22.7291539 C29.4040537,22.6517071 29.7497475,22.5987851 30.0542412,22.5897496 C30.3619537,22.5923312 30.6194537,22.6078206 30.801635,22.6568702 C30.9812413,22.7001113 31.0842412,22.7246362 31.0842412,22.7246362 C31.3700663,22.7936929 31.54581,23.0821823 31.4769287,23.3693809 C31.4131975,23.6352816 31.1602038,23.8069553 30.8949787,23.7740404 L30.8100037,23.7637142 C30.8100037,23.7637142 30.7353287,23.7546787 30.6040037,23.738544 C30.4778287,23.7069199 30.2821287,23.7049837 30.0484475,23.6785227 C29.9280663,23.6804589 29.797385,23.6785227 29.6576912,23.6727142 C29.5154225,23.6811043 29.364785,23.6901397 29.2096413,23.6991752 C28.896135,23.7366078 28.5581662,23.7895298 28.2208412,23.8721397 C27.54426,24.0309057 26.8786225,24.2780901 26.3848663,24.4762248 C25.8878912,24.6762957 25.5737412,24.8344163 25.5737412,24.8344163 C25.4623725,24.8905652 25.3265412,24.8453879 25.270535,24.7337355 C25.2203225,24.6324092 25.25251,24.5117213 25.3413475,24.4478277" id="Fill-52" fill="#42457B" fill-rule="nonzero"></path>
                <path d="M41.7981725,24.8539716 C41.7981725,24.8539716 41.4872413,24.6932695 40.9928413,24.4880355 C40.50166,24.2847376 39.8385975,24.0323901 39.1639475,23.8678156 C38.82791,23.7819787 38.4899413,23.7258298 38.176435,23.6858156 C38.0206475,23.674844 37.87001,23.6645177 37.7277413,23.6548369 C37.5874038,23.6593546 37.4560788,23.6587092 37.3350538,23.6561277 C37.100085,23.6812979 36.9024537,23.683234 36.775635,23.7155035 C36.6436663,23.7322837 36.5677038,23.7426099 36.5677038,23.7426099 L36.4878788,23.7529362 C36.2084913,23.7897234 35.951635,23.592234 35.9149413,23.3114894 C35.8808225,23.0488156 36.0539913,22.8061489 36.3050538,22.7461277 C36.3050538,22.7461277 36.40741,22.7222482 36.5863725,22.6802979 C36.7672663,22.6318936 37.0234788,22.6157589 37.3299037,22.6118865 C37.6324663,22.6196312 37.9775163,22.6680355 38.3341538,22.7422553 C38.6875725,22.826156 39.0557975,22.9307092 39.40986,23.0623688 C40.1199163,23.3231064 40.7881287,23.6516099 41.2683663,23.9323546 C41.7460288,24.2118085 42.054385,24.4280142 42.054385,24.4280142 C42.1663975,24.5067518 42.1940788,24.6622908 42.1155412,24.775234 C42.044085,24.8784965 41.9069663,24.9101206 41.7981725,24.8539716" id="Fill-54" fill="#42457B" fill-rule="nonzero"></path>
                <polygon id="Fill-56" fill="#FFFFFF" fill-rule="nonzero" points="53.6734287 28.0805993 58.6341662 25.422883 58.1590787 35.8865922 53.9013163 37.5736418"></polygon>
                <path d="M54.0001319,28.2778305 L54.2228694,37.5662844 L53.7825444,37.2739227 L57.9810819,35.4364972 L57.6765881,35.8643908 L58.1516756,25.401327 L58.8610881,25.849873 L54.0001319,28.2778305 Z M53.5218256,27.7957241 L58.4059569,24.996022 C58.6338444,24.8656532 58.9241756,24.9450362 59.0548569,25.1735043 C59.1005631,25.254178 59.1205194,25.3432418 59.1166569,25.4297241 L59.1160131,25.4452135 L58.6409256,35.9082773 L58.6402819,35.9250574 C58.6319131,36.1167383 58.5063819,36.2761496 58.3364319,36.3368163 L54.0194444,37.8741355 L54.0085006,37.8780078 C53.8411256,37.9373837 53.6570131,37.8496106 53.5977881,37.6818092 C53.5862006,37.6488943 53.5804069,37.6146887 53.5791194,37.5817738 L53.3518756,28.0880858 C53.3486569,27.9661071 53.4143194,27.8576816 53.5128131,27.8008872 L53.5218256,27.7957241 Z" id="Fill-58" fill="#42457B" fill-rule="nonzero"></path>
                <polygon id="Fill-60" fill="#FFFFFF" fill-rule="nonzero" points="54.0056038 34.029095 60.398685 32.0180596 60.398685 45.5957759 53.6734287 45.2879248"></polygon>
                <path d="M54.3203331,34.2740206 L53.9952394,45.297283 L53.6881706,44.9655525 L60.4205081,45.1127014 L59.9158081,45.5960986 L59.9158081,32.0177369 L60.5428206,32.4798362 L54.3203331,34.2740206 Z M53.9089769,33.7209213 L60.2537769,31.556283 C60.5022644,31.4717369 60.7713519,31.6046872 60.8563269,31.8531624 C60.8730644,31.9035028 60.8814331,31.9544887 60.8814331,32.0041837 L60.8814331,32.0177369 L60.8814331,45.5960986 L60.8814331,45.6070702 C60.8814331,45.8684532 60.6702831,46.0807865 60.4095644,46.0807865 L60.3767331,46.0794957 L53.6585581,45.6102972 L53.6508331,45.6096518 C53.4783081,45.5973894 53.3469831,45.4502404 53.3514894,45.2785667 L53.6836644,34.0197369 C53.6881706,33.8816234 53.7776519,33.7660986 53.9012519,33.7241482 L53.9089769,33.7209213 Z" id="Fill-62" fill="#42457B" fill-rule="nonzero"></path>
                <polygon id="Fill-64" fill="#FFFFFF" fill-rule="nonzero" points="51.6204456 19.5522858 54.9673019 16.066534 59.2482394 23.1574348 53.6740081 29.291222"></polygon>
                <path d="M51.9720619,19.6594851 L53.9889306,29.224166 L53.4359494,29.0737901 L58.8910869,22.8315773 L58.8350806,23.4079106 L54.5547869,16.3170099 L55.3156994,16.4022014 L51.9720619,19.6594851 Z M51.3888244,19.3284 L54.6198056,15.7309957 C54.7936181,15.5367333 55.0916744,15.521244 55.2847994,15.6954993 C55.3195619,15.7271234 55.3485306,15.7619745 55.3717056,15.8000525 L55.3807181,15.8155418 L59.6616556,22.9070879 L59.6661619,22.9148326 C59.7781744,23.100705 59.7472744,23.3330454 59.6050056,23.4834213 L53.9116806,29.508783 L53.9078181,29.5133007 C53.7855056,29.6423787 53.5814369,29.6481872 53.4526869,29.5255631 C53.4031181,29.4784496 53.3722181,29.4197191 53.3593431,29.3577617 L51.3057806,19.6188255 C51.2838931,19.5149177 51.3141494,19.4123007 51.3798119,19.3380809 L51.3888244,19.3284 Z" id="Fill-66" fill="#42457B" fill-rule="nonzero"></path>
            </g>
        </g>
    </g>
</svg>