<?xml version="1.0" encoding="UTF-8"?>
<svg width="190px" height="126px" viewBox="0 0 190 126" version="1.1" xmlns="http://www.w3.org/2000/svg" xmlns:xlink="http://www.w3.org/1999/xlink">
    <!-- Generator: Sketch 46.2 (44496) - http://www.bohemiancoding.com/sketch -->
    <title>company-hover</title>
    <desc>Created with Sketch.</desc>
    <defs>
        <polygon id="path-1" points="101.567775 0.00785106383 101.567775 1.27659574 0.000108257146 1.27659574 0.000108257146 0.00785106383 101.567775 0.00785106383"></polygon>
    </defs>
    <g id="Components" stroke="none" stroke-width="1" fill="none" fill-rule="evenodd">
        <g id="company-hover">
            <g id="Group-23" transform="translate(40.000000, 8.000000)">
                <g id="Group-2">
                    <g id="Elements/Pattern/Cross" opacity="0.96" transform="translate(2.258882, 51.258882) rotate(-8.000000) translate(-2.258882, -51.258882) translate(0.258882, 49.258882)" stroke="#03CAFF" stroke-width="2" stroke-linecap="round">
                        <path d="M0.213541667,0.184027778 L3.6055156,3.57600171" id="Path-2"></path>
                        <path d="M0.213541667,0.184027778 L3.6055156,3.57600171" id="Path-2" transform="translate(1.909529, 1.880015) scale(-1, 1) translate(-1.909529, -1.880015) "></path>
                    </g>
                    <g id="Elements/Pattern/Cross" opacity="0.92" transform="translate(65.430513, 3.430513) rotate(-301.000000) translate(-65.430513, -3.430513) translate(62.930513, 0.930513)" stroke="#03CAFF" stroke-width="2" stroke-linecap="round">
                        <path d="M0.266927083,0.230034722 L4.50689449,4.47000213" id="Path-2"></path>
                        <path d="M0.266927083,0.230034722 L4.50689449,4.47000213" id="Path-2" transform="translate(2.386911, 2.350018) scale(-1, 1) translate(-2.386911, -2.350018) "></path>
                    </g>
                    <g id="Elements/Pattern/Cross" opacity="0.91" transform="translate(110.500000, 32.500000) rotate(-142.000000) translate(-110.500000, -32.500000) translate(109.000000, 31.000000)" stroke="#03CAFF" stroke-width="2" stroke-linecap="round">
                        <path d="M0.16015625,0.138020833 L2.7041367,2.68200128" id="Path-2"></path>
                        <path d="M0.16015625,0.138020833 L2.7041367,2.68200128" id="Path-2" transform="translate(1.432146, 1.410011) scale(-1, 1) translate(-1.432146, -1.410011) "></path>
                    </g>
                    <g id="Elements/Pattern/Circle" transform="translate(98.000000, 70.000000) rotate(-276.000000) translate(-98.000000, -70.000000) translate(97.000000, 69.000000)" fill="#03CAFF">
                        <circle id="Oval-2" cx="1" cy="1" r="1"></circle>
                    </g>
                </g>
            </g>
            <g id="Page-1" transform="translate(44.000000, 18.000000)">
                <path d="M35.6894175,10.0476383 L34.23528,10.0476383 C33.4543425,10.0476383 32.68488,10.064234 31.93008,10.1701915 C23.5297425,11.349766 16.9991925,18.8401915 16.9991925,27.8772128 L16.9991925,46.3482766 C16.9991925,48.7323191 18.8772675,50.2604043 21.1722675,50.2604043 L53.3366925,50.2604043 L53.3366925,27.8772128 C53.3366925,18.0289149 45.525405,10.0476383 35.6894175,10.0476383" id="Fill-1" fill="#44D8FF" fill-rule="nonzero"></path>
                <path d="M59.99793,10.0476383 L59.762055,10.0476383 L38.951505,10.0476383 L36.8802675,10.0476383 L36.5933925,10.0476383 L35.6894175,10.0476383 C45.525405,10.0476383 53.3366925,18.0289149 53.3366925,27.8772128 L53.3366925,50.2604043 L55.9963425,50.2604043 L78.810555,50.2604043 C80.536905,50.2604043 82.0241925,49.083383 82.0241925,47.354234 L82.0241925,32.7767872 C82.0241925,20.2335957 72.0715425,10.0476383 59.99793,10.0476383" id="Fill-3" fill="#03CAFF" fill-rule="nonzero"></path>
                <path d="M26.1492938,50.2604043 L53.3367563,50.2604043 L53.3367563,24.8689149 C52.6992563,39.1284894 40.6364813,50.2604043 26.1492938,50.2604043" id="Fill-5" fill="#03CAFF" fill-rule="nonzero"></path>
                <path d="M35.7070125,9.62706383 C35.7070125,9.62706383 35.905275,9.63855319 36.2769375,9.65961702 C36.6517875,9.6966383 37.187925,9.67429787 37.8949125,9.78791489 C38.24745,9.84344681 38.6382375,9.906 39.06345,9.97302128 C39.4924875,10.0279149 39.9272625,10.1849362 40.4073,10.2991915 C40.64445,10.3649362 40.893075,10.4217447 41.1423375,10.5002553 C41.387775,10.5921702 41.6395875,10.6866383 41.8984125,10.7830213 C42.1572375,10.8800426 42.4224375,10.979617 42.6940125,11.0817447 C42.9592125,11.1979149 43.2231375,11.3345106 43.496625,11.4647234 C43.769475,11.5974894 44.047425,11.7328085 44.3311125,11.8706809 C44.6001375,12.0347234 44.8749,12.2019574 45.1534875,12.3717447 C45.4276125,12.5491915 45.7259625,12.7004681 45.993075,12.9072766 C46.2627375,13.109617 46.536225,13.3151489 46.8135375,13.5238723 L47.232375,13.8391915 L47.6257125,14.1966383 C47.8883625,14.4366383 48.1548375,14.6798298 48.4238625,14.9255745 C48.6877875,15.1770638 48.92175,15.4630213 49.175475,15.7349362 C49.420275,16.0151489 49.693125,16.2762128 49.9066875,16.5902553 C50.3618625,17.196 50.8361625,17.8036596 51.215475,18.4872766 C51.6477,19.1383404 51.967725,19.8621702 52.3138875,20.5777021 C52.923975,22.0425957 53.4358875,23.5930213 53.6347875,25.199617 C53.8974375,26.8011064 53.8438875,28.4236596 53.8604625,29.9772766 C53.8662,31.5430213 53.872575,33.0845106 53.8783125,34.5755745 C53.8897875,37.5589787 53.900625,40.3425957 53.90955,42.7291915 C53.9471625,47.5017447 53.9713875,50.6830213 53.9713875,50.6830213 L53.1745125,50.6830213 C53.1745125,50.6830213 53.199375,47.5017447 53.2369875,42.7291915 C53.2459125,40.3425957 53.25675,37.5589787 53.268225,34.5755745 C53.2739625,33.0845106 53.2803375,31.5430213 53.286075,29.9772766 C53.288625,28.4051489 53.3377125,26.8247234 53.076975,25.283234 C52.8819,23.7270638 52.3801875,22.2277021 51.7873125,20.8106809 C51.450075,20.118766 51.1396125,19.4185532 50.7188625,18.7898298 C50.3503875,18.1285532 49.8888375,17.5419574 49.4476875,16.956 C49.2405,16.6521702 48.9746625,16.4006809 48.7375125,16.1300426 C48.4908,15.8677021 48.2644875,15.5906809 48.00885,15.3481277 C47.747475,15.1113191 47.4892875,14.8764255 47.23365,14.6447234 L46.8530625,14.2994043 L46.446975,13.9962128 C46.17795,13.7945106 45.91275,13.596 45.651375,13.4006809 C45.39255,13.2015319 45.1037625,13.056 44.837925,12.8855745 C44.5682625,12.7215319 44.3030625,12.5600426 44.042325,12.4017447 C43.7675625,12.269617 43.4985375,12.1400426 43.2346125,12.012383 C42.9694125,11.8879149 42.71505,11.7545106 42.4575,11.6447234 C42.1942125,11.5489787 41.9366625,11.4557872 41.6854875,11.3651489 C41.43495,11.2745106 41.19015,11.1857872 40.953,11.099617 C40.7113875,11.0268511 40.47105,10.9751489 40.2409125,10.9138723 C39.778725,10.8104681 39.3522375,10.6604681 38.947425,10.6151489 C38.544525,10.5551489 38.174775,10.5002553 37.840725,10.4504681 C37.1739,10.3470638 36.6084375,10.3745106 36.2425125,10.3413191 C35.8702125,10.3247234 35.67195,10.3151489 35.67195,10.3151489 L35.7070125,9.62706383 Z" id="Fill-7" fill="#42457B" fill-rule="nonzero"></path>
                <polygon id="Fill-9" fill="#E5D5B9" fill-rule="nonzero" points="55.2591375 50.0804043 54.5649 89.1965745 47.821425 89.1965745 48.614475 50.5904043"></polygon>
                <polygon id="Fill-11" fill="#E5D5B9" fill-rule="nonzero" points="55.2591375 50.0804043 54.5649 89.1965745 47.821425 89.1965745 48.614475 50.5904043"></polygon>
                <polyline id="Fill-13" fill="#DDC297" fill-rule="nonzero" points="48.6145388 50.7499787 55.2592013 50.187 54.5649638 89.4091277"></polyline>
                <path d="M29.9911238,10.1318298 L23.5479113,0.96012766 C23.2540238,0.542042553 22.6534988,0.495446809 22.2984113,0.861829787 L17.1703613,6.16161702 C16.7502488,6.59565957 17.1652613,7.3086383 17.7498488,7.1567234 L22.8332738,5.83417021 L26.9731988,11.6177872" id="Fill-15" fill="#FA9F8E" fill-rule="nonzero"></path>
                <path d="M29.7524438,10.2999574 C28.3448438,8.55740426 27.0124688,6.76059574 25.6762688,4.96761702 C25.0202813,4.06251064 24.3560063,3.16314894 23.7127688,2.24910638 L23.2276313,1.56548936 L23.1058688,1.39442553 C23.0950313,1.37846809 23.0453063,1.30953191 23.0663438,1.33697872 C23.0484938,1.31591489 23.0134313,1.26868085 23.0096063,1.26868085 C23.0242688,1.28846809 22.9681688,1.23995745 22.9439438,1.23931915 C22.8763688,1.2227234 22.8011438,1.22655319 22.7482313,1.27442553 L22.1878688,1.83165957 C21.3935438,2.61804255 20.5584188,3.36485106 19.7436938,4.13144681 L18.5133188,5.2733617 C18.1218938,5.65634043 17.6820188,6.05974468 17.3371313,6.43251064 C17.2784813,6.50208511 17.2740188,6.70123404 17.3894063,6.80080851 C17.4416813,6.85378723 17.5060688,6.88059574 17.5749188,6.88314894 C17.6125313,6.88378723 17.6399438,6.87931915 17.6922188,6.86782979 L17.8949438,6.81485106 C18.4355438,6.67506383 18.9710438,6.51548936 19.5084563,6.36357447 C20.5813688,6.05017021 21.6447188,5.70229787 22.6972313,5.30974468 C22.9056938,5.23187234 23.1345563,5.31165957 23.2531313,5.48846809 L23.2728938,5.51846809 L27.2330438,11.4310213 C27.3318563,11.5778298 27.2923313,11.7769787 27.1457063,11.8759149 C27.0041813,11.970383 26.8148438,11.9371915 26.7128438,11.8044255 L22.3931438,6.14974468 L22.9694438,6.35846809 C21.8595563,6.52825532 20.7611438,6.7427234 19.6716563,6.99229787 C19.1285063,7.12123404 18.5828063,7.24314894 18.0428438,7.38421277 L17.8401188,7.43655319 C17.7566063,7.45634043 17.6450438,7.47485106 17.5430438,7.46782979 C17.3326688,7.45825532 17.1248438,7.36314894 16.9814063,7.21634043 C16.6932563,6.92846809 16.5887063,6.4427234 16.8717563,6.05144681 L18.0147938,4.78953191 L19.1157563,3.52251064 C19.8546188,2.68251064 20.5737188,1.8227234 21.3342563,1.00314894 L21.6185813,0.695489362 L21.7626563,0.543574468 C21.8181188,0.488042553 21.8378813,0.458680851 21.9443438,0.361021277 C22.3058063,0.029106383 22.8515063,-0.0864255319 23.3156063,0.0674042553 C23.5572188,0.152297872 23.7446438,0.258255319 23.9486438,0.48293617 L24.0245063,0.576765957 L24.1054688,0.691021277 L24.2246813,0.862723404 L24.7034438,1.55144681 C25.3454063,2.46612766 25.9663313,3.39612766 26.5955438,4.32038298 C27.8291063,6.18612766 29.0677688,8.04804255 30.2299313,9.96357447 C30.3134438,10.1020851 30.2700938,10.2820851 30.1317563,10.3663404 C30.0048938,10.4429362 29.8429688,10.4122979 29.7524438,10.2999574" id="Fill-17" fill="#42457B" fill-rule="nonzero"></path>
                <path d="M82.255605,32.7771064 C82.255605,32.7771064 82.2345675,35.7605106 82.19823,40.9817872 C82.189305,42.2871064 82.179105,43.7322128 82.16763,45.305617 C82.16508,45.6988085 82.16253,46.1002979 82.1593425,46.5094468 C82.14723,46.9224255 82.1797425,47.3226383 82.1274675,47.7873191 C82.0165425,48.6905106 81.5027175,49.5739149 80.7007425,50.1324255 C80.2978425,50.4113617 79.8337425,50.5996596 79.3250175,50.6832766 C78.825855,50.7585957 78.349005,50.7260426 77.869605,50.7407234 C76.9050675,50.7509362 75.9131175,50.7605106 74.8943925,50.7707234 C72.85758,50.7917872 70.71558,50.8134894 68.480505,50.8364681 C59.54148,50.9239149 49.11198,51.0266809 37.9372425,51.1364681 C32.3387175,51.0311489 26.553405,50.9226383 20.6750175,50.8115745 C19.1080425,50.6405106 17.5997175,49.6798723 16.9112175,48.1964681 C16.7480175,47.8230638 16.6141425,47.4522128 16.55613,47.0290213 C16.5134175,46.8100851 16.5121425,46.6351915 16.4993925,46.4488085 C16.488555,46.2234894 16.4968425,46.0671064 16.4942925,45.8730638 L16.4930175,43.6466809 C16.491105,40.674766 16.48983,37.6907234 16.488555,34.7073191 L16.486005,30.2334894 L16.48473,27.9994468 C16.4917425,27.2449787 16.5159675,26.4802979 16.610955,25.7277447 C16.9481925,22.709234 18.0472425,19.7941277 19.7531925,17.3251915 C21.4527675,14.8543404 23.7388425,12.8098723 26.3615175,11.465617 C28.9727175,10.1085957 31.9307175,9.46965957 34.7599425,9.5513617 C40.34763,9.54497872 45.74853,9.53859574 50.870205,9.53221277 C53.430405,9.52902128 55.921755,9.52582979 58.3308675,9.5232766 C59.52618,9.52774468 60.731055,9.49391489 61.92063,9.60497872 C63.102555,9.71157447 64.260255,9.88582979 65.3663175,10.175617 C69.82308,11.2862553 73.43643,13.7373191 75.995355,16.4143404 C78.54408,19.1417872 80.0415675,22.0945532 80.916855,24.5928511 C81.79023,27.108383 82.0739175,29.1917872 82.181655,30.605617 C82.232655,31.3217872 82.2536925,31.8637021 82.24923,32.2217872 C82.253055,32.5830638 82.255605,32.7694468 82.255605,32.7694468 L82.255605,32.7771064 Z M81.618105,32.784766 C81.618105,32.784766 81.6110925,32.598383 81.597705,32.2377447 C81.592605,31.8726383 81.5575425,31.3434894 81.4912425,30.665617 C81.3522675,29.3009362 81.0233175,27.2858298 80.118705,24.8851915 C79.228755,22.4864681 77.6598675,19.7334894 75.209955,17.1611489 C72.7906425,14.5881702 69.3710925,12.2188085 65.1278925,11.1030638 C64.0747425,10.8132766 62.969955,10.6339149 61.8396675,10.5177447 C60.713205,10.392 59.54403,10.4277447 58.3308675,10.4194468 C55.921755,10.4162553 53.430405,10.4137021 50.870205,10.4105106 C45.74853,10.4041277 40.34763,10.3977447 34.7599425,10.3907234 C32.0033925,10.308383 29.2391925,10.9077447 26.73573,12.1945532 C24.2335425,13.4698723 22.039905,15.4166809 20.41173,17.7796596 C18.7765425,20.1400851 17.722755,22.9288085 17.3969925,25.818383 C17.215305,27.2526383 17.2886175,28.7360426 17.2720425,30.2334894 L17.2694925,34.7073191 C17.2682175,37.6907234 17.2669425,40.674766 17.26503,43.6466809 L17.263755,45.8730638 L17.2669425,46.4085957 C17.2758675,46.5917872 17.2771425,46.7890213 17.309655,46.9339149 C17.3447175,47.2466809 17.4569175,47.5817872 17.5844175,47.885617 C18.12948,49.1175319 19.3987425,49.9894468 20.747055,50.1068936 C26.53938,50.0794468 32.3667675,49.914766 37.9372425,49.8330638 C49.11198,49.9428511 59.54148,50.0449787 68.480505,50.1330638 C70.71558,50.1560426 72.85758,50.1777447 74.8943925,50.1981702 C75.9131175,50.2090213 76.9050675,50.2185957 77.869605,50.2288085 C78.354105,50.2249787 78.833505,50.2632766 79.2625425,50.2039149 C79.6781925,50.1439149 80.0938425,49.9843404 80.440005,49.7500851 C81.141255,49.278383 81.5919675,48.5137021 81.68823,47.7305106 C81.7322175,47.3513617 81.712455,46.9141277 81.7143675,46.5094468 C81.71118,46.1002979 81.70863,45.6988085 81.70608,45.305617 C81.694605,43.7322128 81.684405,42.2871064 81.67548,40.9817872 C81.6391425,35.7605106 81.618105,32.7771064 81.618105,32.7771064 L81.618105,32.784766 Z" id="Fill-19" fill="#42457B" fill-rule="nonzero"></path>
                <path d="M44.65866,79.8095106 C44.57451,78.3816383 40.9515975,73.2241915 44.1696975,75.021 C45.6321225,75.8367447 48.2369475,78.4958936 48.2369475,78.4958936 L48.2369475,82.4871702 L44.65866,79.8095106 Z" id="Fill-21" fill="#9FD997" fill-rule="nonzero"></path>
                <path d="M45.1654088,89.1965745 C45.1654088,89.1965745 45.3528338,84.339766 39.8907338,78.7929574 C39.0301088,77.9191277 39.5694338,77.3599787 40.7838713,77.7959362 C44.3538713,79.077 48.2088338,82.6284894 48.2088338,82.6284894 C48.2088338,83.1110426 48.2145713,89.1965745 48.2145713,89.1965745 L45.1654088,89.1965745 Z" id="Fill-23" fill="#9FD997" fill-rule="nonzero"></path>
                <path d="M47.9255288,88.9688298 L48.0708788,50.6460638 C48.0715163,50.3996809 48.2277038,50.2005319 48.4737788,50.2018085 C48.7204913,50.2024468 48.8741288,50.4028723 48.8741288,50.6498936 L48.8741288,50.655 L48.3131288,88.9732979 C48.3112163,89.0926596 48.2353538,89.187766 48.1161413,89.1858511 C47.9975663,89.1839362 47.9248913,89.0869149 47.9255288,88.9688298" id="Fill-25" fill="#42457B" fill-rule="nonzero"></path>
                <path d="M54.6261,80.1909574 C54.6261,80.1909574 59.4526125,74.0747872 62.3175375,72.9118085 C65.1831,71.7488298 57.090675,87.2818085 56.9357625,89.1967021 L54.2518875,89.1967021 L54.6261,80.1909574 Z" id="Fill-27" fill="#9FD997" fill-rule="nonzero"></path>
                <path d="M54.2887988,80.271766 C54.2887988,80.271766 54.5418863,79.9028298 55.0270238,79.292617 C55.5089738,78.6792128 56.2057613,77.8085745 57.1161113,76.8249574 C58.0207238,75.8355957 59.1038363,74.7013404 60.4680863,73.659 C60.8136113,73.4030426 61.1763488,73.1515532 61.5773363,72.9275106 C61.7870738,72.8145319 61.9725863,72.7149574 62.2371488,72.6166596 C62.2645612,72.602617 62.3984363,72.5687872 62.4985238,72.5547447 C62.6119988,72.5477234 62.7261113,72.5438936 62.8746488,72.5943191 C63.0161738,72.6409149 63.1564238,72.7487872 63.2373863,72.8649574 C63.3164363,72.9760213 63.3604238,73.0915532 63.3808238,73.1809149 C63.4630613,73.5549574 63.4063238,73.7860213 63.3744487,74.0381489 C63.3330113,74.2819787 63.2749988,74.5092128 63.2125238,74.732617 C63.0862988,75.1794255 62.9364863,75.6070851 62.7790238,76.0309149 C62.1383363,77.7166596 61.4122238,79.3385745 60.7058738,80.8487872 C59.9982488,82.3519787 59.3377988,83.7555957 58.7716988,84.9587872 C58.2036863,86.1568723 57.7555238,87.1647447 57.4928738,87.879 C57.3589988,88.2345319 57.2684738,88.515383 57.2232113,88.7036809 C57.1773113,88.8919787 57.1696613,88.9845319 57.1696613,88.9845319 C57.1588238,89.1141064 56.9567363,89.2098511 56.8279613,89.199 C56.7049238,89.1887872 56.5238738,89.085383 56.5238738,88.9647447 L56.5238738,88.9570851 C56.5238738,88.9570851 56.6137613,88.8268723 56.6488238,88.6072979 C56.6832488,88.3870851 56.7973613,88.0781489 56.9101988,87.6983617 C57.1396988,86.9387872 57.5534363,85.8919787 58.0538738,84.6530426 C58.5804488,83.4294255 59.2051988,82.0015532 59.8630988,80.4721915 C60.5178113,78.9472979 61.2643238,77.3355957 61.8654863,75.6951702 C62.0146613,75.2866596 62.1574613,74.8755957 62.2690238,74.4702766 C62.3244863,74.2685745 62.3748488,74.0668723 62.4054488,73.8766596 C62.4366863,73.6979362 62.4487988,73.4821915 62.4264863,73.4285745 C62.4105488,73.3883617 62.4462488,73.491766 62.5476113,73.526234 C62.5928738,73.5383617 62.5979738,73.5383617 62.6030738,73.5345319 C62.5973363,73.5421915 62.6228363,73.5198511 62.5495238,73.5479362 C62.4079988,73.5964468 62.2078238,73.6915532 62.0407988,73.7796383 C61.6914488,73.9666596 61.3535738,74.1907021 61.0271738,74.4236809 C59.7228488,75.369 58.5900113,76.4266596 57.6261113,77.3260213 C55.7250863,79.1636809 54.4921613,80.4415532 54.4921613,80.4415532 C54.4411613,80.4945319 54.3570113,80.4958085 54.3040988,80.4447447 C54.2569238,80.3994255 54.2524613,80.3241064 54.2887988,80.271766" id="Fill-29" fill="#42457B" fill-rule="nonzero"></path>
                <path d="M54.0001388,88.9669149 C54.0001388,88.9669149 54.1282763,79.3930851 54.2564138,69.8198936 C54.4011263,60.2473404 54.5452013,50.6741489 54.5452013,50.6741489 C54.5490263,50.432234 54.6618638,50.2388298 54.9041138,50.2426596 C55.1457263,50.2458511 55.2490013,50.4456383 55.2490013,50.6875532 L55.2490013,50.6920213 C55.2490013,50.6920213 55.0928138,60.2626596 54.8499263,69.8339362 C54.7281638,74.6198936 54.6446513,79.4026596 54.5815388,82.9924468 C54.5088638,86.582234 54.4820888,88.9752128 54.4820888,88.9752128 C54.4795388,89.1143617 54.3756263,89.2247872 54.2366513,89.222234 C54.0976763,89.2196809 53.9982263,89.1054255 54.0001388,88.9669149" id="Fill-31" fill="#42457B" fill-rule="nonzero"></path>
                <path d="M48.0639938,82.6457872 C48.0639938,82.6457872 47.7847687,82.4274894 47.2964438,82.0464255 C46.8042938,81.6672766 46.0839188,81.1489787 45.2086313,80.5515319 C44.3263313,79.9655745 43.2674438,79.3272766 42.0957188,78.7534468 C41.7973688,78.6251489 41.4996563,78.4764255 41.1866438,78.366 C41.0330063,78.3098298 40.8729938,78.2402553 40.7212688,78.1936596 C40.5937688,78.1540851 40.4414063,78.1221702 40.3113563,78.1119574 C40.1806688,78.1011064 40.0531688,78.1145106 39.9894188,78.1425957 C39.9167438,78.1872766 39.9811313,78.1413191 39.9715688,78.1177021 C39.9651938,78.1157872 39.9938813,78.2236596 40.0722938,78.323234 C40.1079938,78.3749362 40.1551688,78.4279149 40.2042563,78.4802553 L40.3923188,78.6838723 L41.1190688,79.4708936 C41.3530313,79.7517447 41.5863563,80.0313191 41.8177688,80.3089787 C42.0555563,80.5834468 42.2544563,80.8777021 42.4661063,81.1598298 C42.6803063,81.4394043 42.8766563,81.7266383 43.0577063,82.0183404 C43.4319188,82.5915319 43.7513063,83.1749362 44.0311687,83.7379149 C44.3129438,84.3002553 44.5456312,84.8491915 44.7330563,85.3662128 C45.1053562,86.4028085 45.2819438,87.3098298 45.3603563,87.9500426 C45.4011562,88.2698298 45.4068938,88.5264255 45.4107188,88.7019574 C45.4126313,88.8755745 45.4056188,88.9808936 45.4056188,88.9808936 C45.3966938,89.1130213 45.2825813,89.213234 45.1499813,89.2042979 C45.0288563,89.196 44.9345062,89.099617 44.9268563,88.9815319 L44.9249437,88.9611064 C44.9249437,88.9611064 44.9192063,88.8794043 44.9090063,88.7262128 C44.8930688,88.5666383 44.8631063,88.3317447 44.8050938,88.0330213 C44.6967188,87.4362128 44.4665813,86.5911064 44.0636813,85.6240851 C43.8673313,85.139617 43.6257188,84.6245106 43.3369312,84.0979149 C43.0494188,83.5713191 42.7242938,83.0255745 42.3449813,82.4900426 C42.1645688,82.2155745 41.9765063,81.9411064 41.7667688,81.6749362 C41.5608563,81.4068511 41.3657813,81.1234468 41.1381938,80.868766 C40.9163438,80.6077021 40.6925813,80.3440851 40.4675438,80.0798298 L39.7325063,79.3004681 L39.5546438,79.1121702 C39.4806938,79.0349362 39.4073813,78.9557872 39.3391688,78.8613191 C39.2091188,78.6762128 39.0593063,78.4502553 39.0580313,78.0870638 C39.0599438,77.9077021 39.1364438,77.7008936 39.2613938,77.5579149 C39.3863438,77.4130213 39.5342438,77.3338723 39.6674813,77.2840851 C39.9384188,77.1883404 40.1730188,77.1908936 40.3910438,77.208766 C40.6116188,77.2317447 40.8028688,77.2764255 41.0075063,77.3434468 C41.1872813,77.4034468 41.3453813,77.4762128 41.5136813,77.5419574 C41.8496438,77.6683404 42.1601063,77.8298298 42.4737563,77.9734468 C43.0838438,78.2906809 43.6684313,78.6034468 44.1873563,78.9525957 C44.7132938,79.2921702 45.1901438,79.6381277 45.6268313,79.9611064 C46.4982938,80.6089787 47.1714937,81.2128085 47.6387813,81.6372766 C48.1041563,82.062383 48.3540562,82.3291915 48.3540562,82.3291915 C48.4356563,82.416 48.4311937,82.5519574 48.3444937,82.6336596 C48.2660812,82.7070638 48.1462313,82.7102553 48.0639938,82.6457872" id="Fill-33" fill="#42457B" fill-rule="nonzero"></path>
                <path d="M48.31281,78.5990426 C48.31281,78.5990426 47.7180225,78.1254255 46.82616,77.4143617 C46.38246,77.0607447 45.868635,76.6439362 45.3069975,76.2258511 C45.0277725,76.0190426 44.7383475,75.8007447 44.438085,75.6156383 C44.2869975,75.5230851 44.1416475,75.4324468 43.9886475,75.3539362 C43.8101475,75.2607447 43.6749975,75.1969149 43.5296475,75.147766 C43.4021475,75.0839362 43.2096225,75.1024468 43.3345725,75.0820213 C43.39896,75.038617 43.42701,74.9818085 43.41171,74.9901064 C43.40916,75.0162766 43.4072475,75.0705319 43.4136225,75.1369149 C43.4531475,75.4228723 43.576185,75.7656383 43.6902975,76.0873404 C43.933185,76.7352128 44.19456,77.3518085 44.392185,77.8930851 C44.5980975,78.4318085 44.7281475,78.9054255 44.802735,79.245 C44.840985,79.4147872 44.8518225,79.5558511 44.856285,79.652234 C44.8556475,79.7505319 44.85501,79.8028723 44.85501,79.8028723 C44.8543725,79.862234 44.8059225,79.9101064 44.746635,79.9094681 C44.6962725,79.9088298 44.6541975,79.8730851 44.64336,79.8258511 L44.64081,79.8156383 C44.64081,79.8156383 44.6031975,79.6484043 44.4654975,79.3541489 C44.33481,79.058617 44.09511,78.6539362 43.82226,78.1554255 C43.54686,77.6562766 43.2198225,77.0760638 42.9176475,76.4032979 C42.7646475,76.0643617 42.6205725,75.7126596 42.5389725,75.2569149 C42.523035,75.1362766 42.5134725,75.0028723 42.5338725,74.8407447 C42.5657475,74.6728723 42.6613725,74.4143617 42.9099975,74.2911702 C43.0209225,74.2279787 43.1178225,74.2196809 43.221735,74.2005319 C43.300785,74.2005319 43.38366,74.2024468 43.46016,74.2101064 C43.588935,74.235 43.718985,74.2643617 43.81971,74.3058511 C44.0345475,74.3798936 44.241735,74.4858511 44.3979225,74.5707447 C44.580885,74.6664894 44.756835,74.7769149 44.917485,74.8905319 C45.24516,75.1152128 45.5339475,75.3564894 45.8169975,75.5881915 C46.36716,76.0669149 46.8497475,76.5354255 47.2488225,76.9515957 C48.0418725,77.7884043 48.518085,78.3935106 48.518085,78.3935106 C48.5684475,78.4560638 48.5582475,78.548617 48.495135,78.5990426 C48.4409475,78.6424468 48.365085,78.6398936 48.31281,78.5990426" id="Fill-35" fill="#42457B" fill-rule="nonzero"></path>
                <path d="M37.2908175,30.7175745 L36.855405,30.7175745 C36.45123,30.7175745 36.1203675,30.3862979 36.1203675,29.981617 L36.1203675,29.5456596 C36.1203675,29.1409787 36.45123,28.8097021 36.855405,28.8097021 L37.2908175,28.8097021 C37.6949925,28.8097021 38.025855,29.1409787 38.025855,29.5456596 L38.025855,29.981617 C38.025855,30.3862979 37.6949925,30.7175745 37.2908175,30.7175745" id="Fill-37" fill="#42457B" fill-rule="nonzero"></path>
                <path d="M29.8764375,30.7175745 L29.441025,30.7175745 C29.03685,30.7175745 28.7059875,30.3862979 28.7059875,29.981617 L28.7059875,29.5456596 C28.7059875,29.1409787 29.03685,28.8097021 29.441025,28.8097021 L29.8764375,28.8097021 C30.2806125,28.8097021 30.611475,29.1409787 30.611475,29.5456596 L30.611475,29.981617 C30.611475,30.3862979 30.2806125,30.7175745 29.8764375,30.7175745" id="Fill-39" fill="#42457B" fill-rule="nonzero"></path>
                <path d="M28.7212238,38.0510426 C28.7212238,38.0510426 29.3689238,38.2546596 30.4150613,38.4416809 C30.9339863,38.5265745 31.5427988,38.6235957 32.1994238,38.6650851 C32.8566863,38.7231702 33.5579363,38.720617 34.2585488,38.6938085 C34.6053488,38.6567872 34.9572488,38.6421064 35.2963988,38.5878511 C35.6323613,38.5214681 35.9746988,38.4959362 36.2870738,38.4001915 C36.6000863,38.3127447 36.9156488,38.2578511 37.1910488,38.1410426 C37.4677238,38.030617 37.7463113,37.9591277 37.9751738,37.8340213 C38.2084988,37.7178511 38.4226988,37.6118936 38.6126738,37.5174255 C38.7969113,37.413383 38.9441738,37.3016809 39.0729488,37.220617 C39.3273113,37.0521064 39.4726613,36.9557234 39.4726613,36.9557234 L39.5013488,36.9365745 C39.6218363,36.8567872 39.7843988,36.8899787 39.8640863,37.010617 C39.9412238,37.1274255 39.9125363,37.2838085 39.8016113,37.3661489 C39.8016113,37.3661489 39.6517988,37.4772128 39.3891488,37.6712553 C39.2559113,37.7650851 39.1016363,37.893383 38.9097488,38.0146596 C38.7114863,38.1263617 38.4877238,38.2521064 38.2435613,38.3899787 C38.0025863,38.5361489 37.7125238,38.6274255 37.4199113,38.7608298 C37.1285738,38.900617 36.7996238,38.9765745 36.4674863,39.087 C36.1359863,39.2057234 35.7783488,39.2523191 35.4219863,39.339766 C35.0637113,39.4157234 34.6945988,39.4508298 34.3267613,39.5082766 C33.5885363,39.5746596 32.8464863,39.6135957 32.1535238,39.5880638 C31.4592863,39.5784894 30.8154113,39.5095532 30.2633363,39.4476383 C29.7125363,39.3748723 29.2554488,39.2989149 28.9347863,39.2318936 C28.7715863,39.1967872 28.6434488,39.1693404 28.5561113,39.1501915 C28.4719613,39.129766 28.4266988,39.1189149 28.4266988,39.1189149 C28.1289863,39.0480638 27.9460238,38.7487021 28.0167863,38.4512553 C28.0875488,38.1531702 28.3865363,37.9693404 28.6842488,38.0408298 C28.6963613,38.043383 28.7097488,38.0472128 28.7212238,38.0510426" id="Fill-41" fill="#03CAFF" fill-rule="nonzero"></path>
                <path d="M28.7414963,37.2626809 C28.7414963,37.2626809 28.7835713,37.2767234 28.8619838,37.3028936 C28.9391213,37.3265106 29.0519588,37.361617 29.1947588,37.4056596 C29.4880088,37.4956596 29.9170463,37.6035319 30.4353338,37.7197021 C30.9561713,37.8218298 31.5668963,37.9386383 32.2279838,37.9992766 C32.5582088,38.0401277 32.8999088,38.0560851 33.2473463,38.070766 C33.5960588,38.0969362 33.9466838,38.0682128 34.3004963,38.0701277 C34.6511213,38.045234 35.0030213,38.0171489 35.3459963,37.974383 C35.6825963,37.9048085 36.0262088,37.8735319 36.3398588,37.7784255 C36.6503213,37.6782128 36.9709838,37.6277872 37.2412838,37.4969362 C37.5141338,37.3750213 37.7914463,37.2926809 38.0152088,37.158 C38.2427963,37.0277872 38.4506212,36.9090638 38.6354963,36.8031064 C38.8146337,36.6888511 38.9516962,36.5624681 39.0753713,36.4718298 C39.3169837,36.2835319 39.4553213,36.1762979 39.4553213,36.1762979 L39.4865588,36.1520426 C39.6006713,36.0633191 39.7651463,36.0837447 39.8537588,36.198 C39.9391838,36.3084255 39.9226088,36.4667234 39.8180588,36.5567234 C39.8180588,36.5567234 39.6752588,36.6805532 39.4247213,36.8975745 C39.2965837,37.0022553 39.1525087,37.1465106 38.9644463,37.2805532 C38.7700088,37.4050213 38.5500713,37.5460851 38.3103713,37.6992766 C38.0725838,37.8575745 37.7812463,37.9628936 37.4892713,38.1097021 C37.1992088,38.2654468 36.8626088,38.3382128 36.5298338,38.4626809 C36.1938713,38.5814043 35.8317713,38.6350213 35.4703088,38.7269362 C35.1056588,38.7914043 34.7320838,38.8405532 34.3585088,38.885234 C33.9842962,38.9024681 33.6081713,38.9503404 33.2396963,38.9420426 C32.8705838,38.945234 32.5065713,38.9458723 32.1565838,38.9203404 C31.4540588,38.8909787 30.8057213,38.8003404 30.2498213,38.7192766 C29.6958338,38.6248085 29.2368338,38.5328936 28.9155338,38.4518298 C28.7516963,38.4103404 28.6235588,38.3777872 28.5355838,38.3554468 C28.4514338,38.3311915 28.4061713,38.3190638 28.4061713,38.3190638 C28.1116463,38.2360851 27.9401588,37.9303404 28.0223963,37.6354468 C28.1052713,37.3405532 28.4106338,37.1688511 28.7051588,37.2511915 C28.7134463,37.2537447 28.7217338,37.2562979 28.7293838,37.2588511 L28.7414963,37.2626809 Z" id="Fill-43" fill="#42457B" fill-rule="nonzero"></path>
                <path d="M26.2520588,25.4154894 C26.2520588,25.4154894 26.5287338,25.2144255 26.9584088,24.9533617 C27.3906338,24.690383 27.9949838,24.3852766 28.6382213,24.1382553 C28.9595213,24.0137872 29.2948463,23.9142128 29.6174213,23.8337872 C29.9425463,23.7622979 30.2587463,23.711234 30.5373338,23.7029362 C30.8197463,23.7042128 31.0562588,23.7188936 31.2239213,23.7635745 C31.3890338,23.8044255 31.4833838,23.8274043 31.4833838,23.8274043 C31.7657963,23.8963404 31.9391963,24.1822979 31.8697088,24.4657021 C31.8059588,24.726766 31.5586088,24.8946383 31.2985088,24.8646383 L31.2118088,24.8550638 C31.2118088,24.8550638 31.1448713,24.8474043 31.0275713,24.834 C30.9160088,24.8059149 30.7413338,24.8046383 30.5322338,24.7797447 C30.4238588,24.7816596 30.3065588,24.7784681 30.1816088,24.7720851 C30.0528338,24.7791064 29.9176838,24.7861277 29.7780713,24.7937872 C29.4956588,24.8250638 29.1896588,24.8710213 28.8842963,24.9437872 C28.2722963,25.0829362 27.6685838,25.3031489 27.2191463,25.4793191 C26.7671588,25.6574043 26.4821963,25.7978298 26.4821963,25.7978298 C26.3712713,25.8527234 26.2373962,25.806766 26.1825713,25.6957021 C26.1341212,25.596766 26.1653588,25.4786809 26.2520588,25.4154894" id="Fill-45" fill="#00B7F6" fill-rule="nonzero"></path>
                <path d="M41.1815438,25.8171702 C41.1815438,25.8171702 40.8991313,25.6741915 40.4503313,25.491 C40.0040813,25.3103617 39.4029188,25.0850426 38.7921938,24.9395106 C38.4874688,24.8635532 38.1827438,24.8150426 37.8996938,24.7799362 C37.6160063,24.7512128 37.3590937,24.7563191 37.1429813,24.7575957 C36.9326063,24.7812128 36.7560188,24.7818511 36.6431813,24.8105745 C36.5252438,24.8252553 36.4576688,24.8335532 36.4576688,24.8335532 L36.3773438,24.843766 C36.1000313,24.878234 35.8475812,24.681 35.8125188,24.4039787 C35.7806438,24.1454681 35.9508563,23.9080213 36.1975688,23.8486596 C36.1975688,23.8486596 36.2919188,23.8263191 36.4557563,23.7867447 C36.6221437,23.7427021 36.8573813,23.727383 37.1378812,23.7248298 C37.4151938,23.7318511 37.7307563,23.7778085 38.0558813,23.847383 C38.3784563,23.9252553 38.7137813,24.0216383 39.0357188,24.1429149 C39.6808688,24.3835532 40.2877688,24.6835532 40.7225438,24.9414255 C41.1554063,25.197383 41.4352688,25.3958936 41.4352688,25.3958936 C41.5461938,25.4744043 41.5723313,25.628234 41.4939188,25.7399362 C41.4225188,25.8407872 41.2886438,25.8714255 41.1815438,25.8171702" id="Fill-47" fill="#00B7F6" fill-rule="nonzero"></path>
                <path d="M26.2520588,25.4154894 C26.2520588,25.4154894 26.5287338,25.2144255 26.9584088,24.9533617 C27.3906338,24.690383 27.9949838,24.3852766 28.6382213,24.1382553 C28.9595213,24.0137872 29.2948463,23.9142128 29.6174213,23.8337872 C29.9425463,23.7622979 30.2587463,23.711234 30.5373338,23.7029362 C30.8197463,23.7042128 31.0562588,23.7188936 31.2239213,23.7635745 C31.3890338,23.8044255 31.4833838,23.8274043 31.4833838,23.8274043 C31.7657963,23.8963404 31.9391963,24.1822979 31.8697088,24.4657021 C31.8059588,24.726766 31.5586088,24.8946383 31.2985088,24.8646383 L31.2118088,24.8550638 C31.2118088,24.8550638 31.1448713,24.8474043 31.0275713,24.834 C30.9160088,24.8059149 30.7413338,24.8046383 30.5322338,24.7797447 C30.4238588,24.7816596 30.3065588,24.7784681 30.1816088,24.7720851 C30.0528338,24.7791064 29.9176838,24.7861277 29.7780713,24.7937872 C29.4956588,24.8250638 29.1896588,24.8710213 28.8842963,24.9437872 C28.2722963,25.0829362 27.6685838,25.3031489 27.2191463,25.4793191 C26.7671588,25.6574043 26.4821963,25.7978298 26.4821963,25.7978298 C26.3712713,25.8527234 26.2373962,25.806766 26.1825713,25.6957021 C26.1341212,25.596766 26.1653588,25.4786809 26.2520588,25.4154894" id="Fill-49" fill="#42457B" fill-rule="nonzero"></path>
                <path d="M41.1815438,25.8171702 C41.1815438,25.8171702 40.8991313,25.6741915 40.4503313,25.491 C40.0040813,25.3103617 39.4029188,25.0850426 38.7921938,24.9395106 C38.4874688,24.8635532 38.1827438,24.8150426 37.8996938,24.7799362 C37.6160063,24.7512128 37.3590937,24.7563191 37.1429813,24.7575957 C36.9326063,24.7812128 36.7560188,24.7818511 36.6431813,24.8105745 C36.5252438,24.8252553 36.4576688,24.8335532 36.4576688,24.8335532 L36.3773438,24.843766 C36.1000313,24.878234 35.8475812,24.681 35.8125188,24.4039787 C35.7806438,24.1454681 35.9508563,23.9080213 36.1975688,23.8486596 C36.1975688,23.8486596 36.2919188,23.8263191 36.4557563,23.7867447 C36.6221437,23.7427021 36.8573813,23.727383 37.1378812,23.7248298 C37.4151938,23.7318511 37.7307563,23.7778085 38.0558813,23.847383 C38.3784563,23.9252553 38.7137813,24.0216383 39.0357188,24.1429149 C39.6808688,24.3835532 40.2877688,24.6835532 40.7225438,24.9414255 C41.1554063,25.197383 41.4352688,25.3958936 41.4352688,25.3958936 C41.5461938,25.4744043 41.5723313,25.628234 41.4939188,25.7399362 C41.4225188,25.8407872 41.2886438,25.8714255 41.1815438,25.8171702" id="Fill-51" fill="#42457B" fill-rule="nonzero"></path>
                <g id="Group-55" transform="translate(0.000000, 88.554255)">
                    <mask id="mask-2" fill="white">
                        <use xlink:href="#path-1"></use>
                    </mask>
                    <g id="Clip-54" fill-rule="nonzero"></g>
                    <path d="M0.3150525,0.323170213 C0.3150525,0.323170213 6.6237525,0.249765957 16.0868025,0.139978723 C20.81769,0.115085106 26.3378025,0.0455106383 32.2525275,0.0435957447 C38.166615,0.032106383 44.475315,0.0199787234 50.784015,0.00785106383 C57.092715,0.021893617 63.4007775,0.0359361702 69.3155025,0.0493404255 C75.22959,0.0850851064 80.7497025,0.118914894 85.4812275,0.147638298 C94.94364,0.252957447 101.25234,0.323170213 101.25234,0.323170213 C101.42829,0.325085106 101.569815,0.469340426 101.567903,0.646148936 C101.56599,0.819765957 101.425103,0.959553191 101.25234,0.961468085 C101.25234,0.961468085 94.94364,1.03168085 85.4812275,1.137 C80.7497025,1.1657234 75.22959,1.19955319 69.3155025,1.23529787 C63.4007775,1.24870213 57.092715,1.26274468 50.784015,1.27678723 C44.475315,1.26465957 38.166615,1.25253191 32.2525275,1.24104255 C26.3378025,1.23912766 20.81769,1.16955319 16.0868025,1.14465957 C6.6237525,1.03487234 0.3150525,0.961468085 0.3150525,0.961468085 C0.1391025,0.959553191 -0.001785,0.814659574 0.0001275,0.638489362 C0.00204,0.46487234 0.14229,0.325085106 0.3150525,0.323170213" id="Fill-53" fill="#42457B" fill-rule="nonzero" mask="url(#mask-2)"></path>
                </g>
                <path d="M72.8812313,33.0208723 C72.1130438,32.5338511 71.1727313,32.8000213 70.7150063,33.6081064 C70.6742063,33.7038511 70.6308563,33.7970426 70.5843188,33.8889574 C69.8582063,35.3334255 68.5067063,36.3055532 66.9263438,36.326617 C66.5036813,36.3323617 66.0918563,36.2698085 65.7004313,36.1472553 C65.6538938,36.1325745 65.6079938,36.1172553 65.5627313,36.1006596 C65.5608188,36.1000213 65.5589063,36.099383 65.5563563,36.0987447 C64.7875313,35.8587447 64.0155188,35.8644894 63.3034313,36.0744894 C62.9776688,36.1708723 62.6825063,35.8600213 62.7488063,35.4891702 C62.8979813,34.6574681 62.8635563,33.7664043 62.6123813,32.8925745 C62.6117438,32.8900213 62.6111063,32.8874681 62.6104688,32.8855532 C62.5938938,32.8338511 62.5779563,32.7821489 62.5632938,32.7304468 C62.4357938,32.2881064 62.3599313,31.8195957 62.3427188,31.3338511 C62.2432688,28.5444894 64.1347313,26.2561915 66.5667938,26.2242766 C68.1465188,26.2032128 69.5655938,27.1389574 70.3943438,28.5623617 C70.4472563,28.653 70.4982563,28.7461915 70.5454313,28.8406596 C71.0605313,29.6353404 72.0186938,29.876617 72.7518188,29.3691702 C73.4766563,28.8681064 73.7240063,27.813 73.3497938,26.9391702 C73.2898688,26.8249149 73.2286688,26.7119362 73.1655563,26.6008723 C71.7235313,24.0732128 69.2207063,22.4059787 66.4316438,22.443 C62.7743063,22.4915106 59.8169438,25.4564043 59.1705188,29.3876809 C59.0646938,30.0278936 59.0213438,30.6936383 59.0455688,31.3778936 C59.1284438,33.705766 59.9890688,35.8127872 61.3290938,37.3740638 C61.4565938,37.5227872 61.5885563,37.6664043 61.7243438,37.8049149 C63.1523438,39.2589574 65.0310563,40.1353404 67.0608563,40.1085319 C67.6569188,40.100234 68.2338563,40.0153404 68.7859313,39.8615106 C70.8163688,39.2927872 72.5006438,37.7915106 73.4919563,35.7751277 C73.5467813,35.6640638 73.5996938,35.5504468 73.6506938,35.4361915 L73.6513313,35.4355532 C73.9643438,34.5521489 73.6417688,33.5027872 72.8812313,33.0208723" id="Fill-56" fill="#6AE0FF" fill-rule="nonzero"></path>
                <path d="M68.4499687,29.0781064 L66.0765562,31.269383 L64.8799688,30.6649149 C64.8072937,30.615766 64.3610438,30.5174681 64.1009437,30.8340638 C63.8414813,31.149383 63.8593313,31.6561915 64.1411063,31.9651277 L65.6723813,33.6412979 C65.9535188,33.9495957 66.3927563,33.9438511 66.6522188,33.6278936 L69.4712437,30.195766 C69.7313437,29.8791702 69.7134937,29.373 69.4310813,29.0640638 C69.1486687,28.7551277 68.7100688,28.7615106 68.4499687,29.0781064" id="Fill-58" fill="#6AE0FF" fill-rule="nonzero"></path>
            </g>
        </g>
    </g>
</svg>