<?xml version="1.0" encoding="UTF-8"?>
<svg width="190px" height="126px" viewBox="0 0 190 126" version="1.1" xmlns="http://www.w3.org/2000/svg" xmlns:xlink="http://www.w3.org/1999/xlink">
    <!-- Generator: Sketch 46.2 (44496) - http://www.bohemiancoding.com/sketch -->
    <title>enterprise</title>
    <desc>Created with Sketch.</desc>
    <defs>
        <polygon id="path-1" points="132.334688 1.25 0.617513167 1.25 0.617513167 0.0053125 132.334688 0.0053125"></polygon>
    </defs>
    <g id="Components" stroke="none" stroke-width="1" fill="none" fill-rule="evenodd">
        <g id="enterprise">
            <g id="Group-23"></g>
            <g id="Page-1" transform="translate(26.000000, 44.000000)">
                <polygon id="Fill-1" fill="#E5D5B9" points="0.31190852 63.6950625 14.8576664 63.6950625 14.8576664 41.6119375 0.31190852 40.3619375"></polygon>
                <g id="Group-105" transform="translate(0.000000, 0.350000)">
                    <path d="M0.623318386,63.0260625 L14.857417,62.7204375 L14.2340987,63.3448125 L14.3899283,41.2616875 L14.8175247,41.7291875 L0.284856502,40.3229375 L0.623318386,40.0116875 L0.623318386,63.0260625 Z M0,63.3454375 L0,40.0116875 C0,39.8391875 0.139623318,39.6991875 0.311659193,39.6991875 L0.334098655,39.7004375 L0.338461883,39.7004375 L14.8973094,40.7948125 C15.1385336,40.8129375 15.3224126,41.0135625 15.3249058,41.2516875 L15.3249058,41.2616875 L15.4807354,63.3448125 L15.4807354,63.3541875 C15.4832287,63.6923125 15.2120852,63.9679375 14.87487,63.9704375 L14.857417,63.9704375 L0.311659193,63.6579375 L0.304802691,63.6573125 C0.13526009,63.6541875 0,63.5148125 0,63.3454375 L0,63.3454375 Z" id="Fill-2" fill="#42457B"></path>
                    <polygon id="Fill-4" fill="#E5D5B9" points="9.40861704 63.34525 9.40861704 52.928375 26.9556529 52.303375 26.9556529 63.34525"></polygon>
                    <path d="M9.72033857,63.02725 L26.9550919,62.720375 L26.3323969,63.345375 L26.3323969,52.3035 L26.9775314,52.9285 L9.4198991,53.241 L9.72033857,52.9285 L9.72033857,63.02725 Z M9.09702018,63.345375 L9.09702018,52.9285 C9.09702018,52.76225 9.22729372,52.626 9.39122646,52.616625 L9.39745964,52.616 L26.9332758,51.679125 C27.2711143,51.661 27.5597108,51.921 27.577787,52.25975 L27.5790336,52.290375 L27.5790336,52.3035 L27.5790336,63.345375 L27.5790336,63.356 C27.5790336,63.695375 27.3047735,63.970375 26.9663117,63.970375 L26.9550919,63.970375 L9.40867937,63.657875 L9.40306951,63.657875 C9.23290359,63.65475 9.09702018,63.515375 9.09702018,63.345375 L9.09702018,63.345375 Z" id="Fill-6" fill="#42457B"></path>
                    <polygon id="Fill-8" fill="#E5D5B9" points="22.3739511 63.34525 22.3739511 44.803375 41.839561 46.053375 41.839561 63.34525"></polygon>
                    <path d="M22.6909085,63.0276875 L41.8392493,62.7201875 L41.2159309,63.3451875 L41.5275901,46.0539375 L41.8193031,46.3651875 L22.3343704,45.4270625 L22.9969578,44.8039375 L22.6909085,63.0276875 Z M22.0619803,63.3451875 L21.7503211,44.8039375 C21.7447112,44.4639375 22.0152314,44.1839375 22.3536933,44.1776875 L22.4135318,44.1801875 L41.8591955,45.7414375 C42.0225049,45.7545625 42.1471686,45.8926875 42.1509085,46.0539375 L42.4625677,63.3451875 C42.4688009,63.6845625 42.1995274,63.9639375 41.8610655,63.9701875 C41.8554556,63.9701875 41.8454825,63.9701875 41.8392493,63.9701875 L22.3736395,63.6576875 C22.2028502,63.6551875 22.0650969,63.5158125 22.0619803,63.3451875 L22.0619803,63.3451875 Z" id="Fill-10" fill="#42457B"></path>
                    <path d="M76.4523686,52.8274375 C76.4523686,58.5149375 73.7347004,63.1274375 70.3874807,63.1274375 L66.6475704,63.1274375 C63.2941175,63.1274375 60.5826825,58.5149375 60.5826825,52.8274375 C60.5826825,47.1336875 63.2941175,42.5211875 66.6475704,42.5211875 L70.3874807,42.5211875 C73.7347004,42.5211875 76.4523686,47.1336875 76.4523686,52.8274375" id="Fill-12" fill="#998675"></path>
                    <path d="M76.0784399,52.8274375 C76.0784399,52.8274375 76.0703368,52.5986875 76.0553771,52.1705625 C76.0522605,51.9555625 76.0385475,51.6918125 76.0030184,51.3830625 C75.9762157,51.0736875 75.9444265,50.7180625 75.8739915,50.3249375 C75.7605475,49.5355625 75.5455027,48.5855625 75.1640318,47.5499375 C74.7732112,46.5286875 74.2334175,45.3730625 73.3171395,44.4230625 C72.8764534,43.9349375 72.3204534,43.5330625 71.7039915,43.2711875 C71.1162022,43.0049375 70.4261888,42.9761875 69.5971753,43.0074375 C68.7962112,43.0174375 67.9734309,43.0280625 67.1319511,43.0386875 C66.6875251,43.0411875 66.3341036,43.0536875 65.9775655,43.1374375 C65.6197807,43.2211875 65.2682291,43.3655625 64.9403637,43.5693125 C63.6095789,44.3861875 62.6689915,45.9280625 62.0737224,47.5593125 C61.7626865,48.3793125 61.5632247,49.2524375 61.4154982,50.1336875 C61.2590453,51.0249375 61.2247628,51.8805625 61.2060632,52.8399375 C61.2141664,54.6030625 61.4634937,56.4436875 62.0712291,58.0843125 C62.6658749,59.7161875 63.6064623,61.2574375 64.9360004,62.0761875 C65.2607493,62.2818125 65.6272605,62.4261875 65.9407897,62.5036875 C66.078543,62.5693125 66.3403368,62.5618125 66.5373054,62.5911875 L66.6164668,62.5986875 L66.6563592,62.6024375 L66.6756821,62.6043125 C66.6625924,62.6043125 66.7336507,62.6080625 66.6513726,62.6043125 L66.8103188,62.6061875 L67.1263413,62.6099375 C67.9678211,62.6205625 68.7906013,62.6305625 69.5915655,62.6405625 C70.4349152,62.6674375 71.0675834,62.6543125 71.6996283,62.3793125 C72.3167135,62.1193125 72.8720901,61.7168125 73.3133996,61.2293125 C74.2309242,60.2811875 74.7713413,59.1255625 75.1627852,58.1043125 C75.5448794,57.0693125 75.7599242,56.1186875 75.8733682,55.3293125 C75.9444265,54.9349375 75.9755924,54.5836875 76.0023951,54.2780625 C76.0379242,53.9761875 76.0522605,53.7093125 76.0553771,53.4874375 C76.0703368,53.0499375 76.0784399,52.8161875 76.0784399,52.8161875 L76.0784399,52.8274375 Z M76.826422,52.8386875 C76.826422,52.8386875 76.8201888,53.0724375 76.8095924,53.5105625 C76.8083457,53.7268125 76.797126,53.9993125 76.7634668,54.3299375 C76.7379108,54.6574375 76.7073682,55.0343125 76.6375565,55.4455625 C76.5259825,56.2743125 76.3109377,57.2755625 75.9151305,58.3811875 C75.5081036,59.4761875 74.9421305,60.7093125 73.9410812,61.8168125 C73.4555161,62.3768125 72.8191081,62.8774375 72.0580363,63.2211875 L71.7706865,63.3493125 L71.4621439,63.4361875 C71.2545789,63.4949375 71.0463906,63.5543125 70.8251126,63.5630625 C70.3651036,63.6211875 69.9973457,63.6043125 69.5915655,63.6136875 C68.7906013,63.6236875 67.9678211,63.6343125 67.1263413,63.6449375 L66.8103188,63.6486875 L66.6513726,63.6505625 L66.4481709,63.6374375 C66.2250229,63.6105625 66.0498704,63.6343125 65.7774803,63.5574375 C65.2532695,63.4518125 64.8044803,63.2699375 64.3824937,63.0243125 C62.6777179,62.0236875 61.6218166,60.2836875 60.9536193,58.5005625 C60.2704623,56.6886875 59.9862291,54.7724375 59.9600498,52.8030625 C59.9843592,51.8955625 60.0354713,50.8768125 60.2124937,49.9336875 C60.3807897,48.9830625 60.6064309,48.0411875 60.9561126,47.1430625 C61.6255565,45.3599375 62.6814578,43.6193125 64.3881036,42.6205625 C64.8082202,42.3749375 65.2725924,42.1943125 65.7519242,42.0949375 C66.2318794,41.9936875 66.7386372,41.9961875 67.1319511,42.0036875 C67.9734309,42.0143125 68.7962112,42.0243125 69.5971753,42.0343125 C70.3626103,42.0268125 71.2714085,42.0518125 72.0642695,42.4305625 C72.8240946,42.7755625 73.4605027,43.2755625 73.9448211,43.8368125 C74.9440004,44.9455625 75.5105969,46.1780625 75.9163771,47.2736875 C76.311561,48.3793125 76.5266058,49.3805625 76.6381798,50.2093125 C76.7073682,50.6224375 76.7372874,50.9949375 76.7628435,51.3186875 C76.7965027,51.6418125 76.8077224,51.9174375 76.8095924,52.1418125 C76.8201888,52.5886875 76.826422,52.8274375 76.826422,52.8274375 L76.826422,52.8386875 Z" id="Fill-14" fill="#42457B"></path>
                    <path d="M70.1812247,43.882 C70.1812247,43.882 70.2391933,43.947625 70.3476507,44.07075 C70.4561081,44.1845 70.6156776,44.388875 70.8170094,44.651375 C71.002135,44.912 71.2190498,45.2345 71.4347179,45.622 C71.6485161,46.010125 71.8741574,46.456375 72.0748659,46.96075 C72.4831395,47.96575 72.8265879,49.1895 73.0117135,50.527 C73.1045879,51.195125 73.169413,51.89075 73.1806327,52.598875 C73.1974623,53.30325 73.1731529,54.023875 73.1045879,54.746375 C72.9687045,56.182625 72.6420857,57.607625 72.1384444,58.883875 C71.8866238,59.522 71.5899242,60.122 71.2545789,60.66575 C71.1741709,60.80325 71.0831664,60.93325 70.9959018,61.062 C70.9485296,61.128875 70.9154937,61.185125 70.8581484,61.2595 L70.7297448,61.43075 C70.5433726,61.672 70.3439108,61.906375 70.1463188,62.106375 C69.3559511,62.937625 68.4378031,63.412625 67.7527762,63.59325 C67.4118211,63.692 67.1294578,63.72075 66.9393457,63.7395 C66.747987,63.74825 66.6457628,63.752625 66.6457628,63.752625 C66.3023143,63.768875 66.0106013,63.502 65.9943951,63.157 C65.9788121,62.812625 66.2449691,62.520125 66.5890408,62.5045 C66.5921574,62.503875 66.5958973,62.503875 66.5996372,62.503875 L66.6457628,62.502625 C66.6457628,62.502625 66.7180677,62.50075 66.8539511,62.497625 C66.9892112,62.486375 67.1892964,62.472625 67.4380004,62.406375 C67.9322919,62.285125 68.6385117,61.958875 69.3179287,61.278875 C69.4930812,61.1095 69.6526507,60.9295 69.81783,60.727625 L69.9493502,60.5595 C69.9823861,60.52075 70.0260184,60.453875 70.0640408,60.402 C70.1432022,60.29075 70.2254803,60.1795 70.2990318,60.05825 C70.6063278,59.5845 70.8868211,59.0495 71.1305386,58.47075 C71.6173502,57.313875 71.9551888,55.988875 72.1128883,54.638875 C72.1926731,53.967 72.2306955,53.285125 72.2300722,52.61075 C72.2344354,51.938875 72.1870632,51.278875 72.114135,50.6445 C71.9664085,49.375125 71.667839,48.21325 71.3063143,47.2645 C71.1292919,46.787625 70.9279601,46.368875 70.7390946,46.0045 C70.5464892,45.642 70.3545072,45.342 70.1905744,45.0995 C70.0229018,44.872625 69.8932516,44.692 69.778561,44.56575 C69.6725969,44.440125 69.6164982,44.37325 69.6164982,44.37325 C69.4824848,44.21575 69.5018076,43.978875 69.6595072,43.8445 C69.8147135,43.712625 70.0465879,43.730125 70.1812247,43.882" id="Fill-16" fill="#42457B"></path>
                    <path d="M68.8764323,51.6785625 C68.8764323,54.0591875 67.6516117,55.9885625 66.1400646,55.9885625 C64.6285175,55.9885625 63.4036969,54.0591875 63.4036969,51.6785625 C63.4036969,49.2979375 64.6285175,47.3685625 66.1400646,47.3685625 C67.6516117,47.3685625 68.8764323,49.2979375 68.8764323,51.6785625" id="Fill-18" fill="#D2D4DF"></path>
                    <path d="M68.5024413,51.6785625 C68.5024413,51.6785625 68.4987013,51.5960625 68.4912215,51.4410625 C68.4881049,51.2854375 68.4650422,51.0591875 68.4232798,50.7741875 C68.3777776,50.4898125 68.3023561,50.1479375 68.1727058,49.7735625 C68.0368224,49.4041875 67.8498269,48.9948125 67.554374,48.6354375 C67.2720108,48.2879375 66.8487776,47.9585625 66.4523471,47.8979375 C65.9748852,47.7985625 65.5491587,47.9729375 65.1608314,48.3360625 C64.7824771,48.7054375 64.4982439,49.2416875 64.2981587,49.8179375 C64.2108942,50.1129375 64.1279928,50.4148125 64.0905937,50.7291875 C64.0619211,50.8879375 64.0563112,51.0348125 64.0419749,51.1854375 C64.0288852,51.3273125 64.0320018,51.5491875 64.0270152,51.6785625 C64.0214054,52.3154375 64.1111632,52.9529375 64.2981587,53.5391875 C64.4982439,54.1154375 64.7824771,54.6516875 65.1608314,55.0204375 C65.3484502,55.1998125 65.5647417,55.3379375 65.7691901,55.4129375 C65.8128224,55.4248125 65.8552081,55.4398125 65.898217,55.4579375 L66.1275982,55.4841875 C66.1874368,55.4835625 66.3351632,55.4929375 66.4311543,55.4635625 C66.8693471,55.3941875 67.262661,55.0710625 67.554374,54.7216875 C67.8498269,54.3623125 68.0368224,53.9529375 68.1727058,53.5835625 C68.3023561,53.2091875 68.3777776,52.8673125 68.4232798,52.5829375 C68.4644188,52.3004375 68.4874816,52.0916875 68.4912215,51.9179375 C68.4987013,51.7541875 68.5024413,51.6666875 68.5024413,51.6666875 L68.5024413,51.6785625 Z M69.2504233,51.6904375 C69.2504233,51.6904375 69.2485534,51.7785625 69.2454368,51.9423125 C69.2466834,52.0973125 69.2286072,52.3698125 69.1880915,52.6941875 C69.0983336,53.3335625 68.9075982,54.2710625 68.2381543,55.2423125 C67.8959525,55.7066875 67.399791,56.2204375 66.6486924,56.4116875 C66.456087,56.4673125 66.2934009,56.4816875 66.0484368,56.4848125 L65.8140691,56.4729375 C65.7056117,56.4548125 65.5952843,56.4329375 65.4855803,56.4079375 C65.0860332,56.2966875 64.7400915,56.0954375 64.4346655,55.8435625 C63.8294233,55.3329375 63.4317462,54.6485625 63.1711991,53.9298125 C62.9187552,53.2079375 62.7928448,52.4429375 62.7803785,51.6785625 C62.7915982,51.4579375 62.7903516,51.3285625 62.8102978,51.1216875 C62.8314906,50.9241875 62.8483202,50.7216875 62.8857193,50.5373125 C62.9430646,50.1591875 63.0508987,49.7891875 63.1711991,49.4273125 C63.4317462,48.7085625 63.8294233,48.0241875 64.4346655,47.5135625 C64.7375982,47.2623125 65.091643,47.0585625 65.4799704,46.9510625 C65.872661,46.8366875 66.2809345,46.8548125 66.6274996,46.9410625 C67.0401363,47.0410625 67.3299794,47.2166875 67.5961363,47.4304375 C67.8622933,47.6360625 68.0617552,47.8791875 68.2381543,48.1148125 C68.9075982,49.0860625 69.0983336,50.0235625 69.1880915,50.6629375 C69.2273605,50.9848125 69.2454368,51.2398125 69.2454368,51.4129375 C69.2485534,51.5860625 69.2504233,51.6785625 69.2504233,51.6785625 L69.2504233,51.6904375 Z" id="Fill-20" fill="#42457B"></path>
                    <path d="M123.169521,33.9695625 C123.169521,33.9695625 122.943256,19.3720625 114.510382,13.9276875 C113.59722,13.3383125 112.407929,12.8464375 111.014812,12.4376875 L111.014812,4.3095625 C111.014812,4.3095625 82.1096686,-0.1523125 70.8257359,0.9133125 C57.0784489,2.2120625 19.7136283,2.9601875 21.8634534,4.8264375 C25.1757673,7.7026875 25.3428166,52.2183125 25.3428166,52.2183125 L70.3794399,52.2383125 L74.8243233,52.4395625 L81.1379152,52.7251875 L111.014812,54.0770625 L111.014812,53.6170625 L123.169521,53.9795625 L123.169521,33.9695625 Z" id="Fill-22" fill="#C9B697"></path>
                    <path d="M25.7040296,51.8423125 L68.1993839,51.7373125 C69.1025722,51.7454375 69.9633749,51.7104375 70.9002224,51.7535625 L73.5761283,51.8666875 L78.9285632,52.0935625 L89.6334332,52.5466875 L111.043173,53.4529375 L110.391805,54.0766875 L110.391805,54.0760625 L110.641133,4.3098125 L110.957778,4.6804375 L110.957155,4.6804375 C103.589532,3.6004375 96.1901193,2.6754375 88.7782404,1.9860625 C85.0719892,1.6516875 81.3588816,1.3691875 77.6482673,1.2635625 C75.7970117,1.2135625 73.9307964,1.2054375 72.1069668,1.3066875 C70.2706709,1.4316875 68.3926126,1.6410625 66.5388637,1.7779375 C59.1001821,2.3779375 51.6596305,2.8710625 44.2184556,3.3610625 L33.0566933,4.0791875 L27.4761238,4.4348125 L24.6873973,4.6154375 L23.294904,4.7091875 L21.946043,4.8110625 L22.4228816,3.9254375 L22.4235049,3.9260625 C22.8716709,5.0098125 23.0088009,5.9898125 23.1957964,7.0054375 C23.3597291,8.0123125 23.4900027,9.0166875 23.6059399,10.0210625 C23.8365677,12.0291875 24.0117202,14.0373125 24.1669265,16.0454375 C24.4735991,20.0616875 24.6979937,24.0785625 24.8924691,28.0960625 C25.2670834,36.0098125 25.5226439,43.9235625 25.7040296,51.8423125 M24.9691372,52.2279375 C24.7048502,44.1985625 24.3595318,36.1679375 23.8964063,28.1491875 C23.6607919,24.1404375 23.3958816,20.1329375 23.0486933,16.1379375 C22.8735408,14.1404375 22.6784422,12.1454375 22.4303614,10.1635625 C22.3050744,9.1729375 22.1666978,8.1854375 21.9971552,7.2104375 C21.8213794,6.2554375 21.6306439,5.2310625 21.295922,4.4591875 L21.2952987,4.4585625 L21.2709892,4.3973125 C21.1463256,4.0898125 21.2946753,3.7391875 21.601348,3.6148125 C21.6568233,3.5923125 21.7160386,3.5785625 21.7727605,3.5729375 C22.2820117,3.5273125 22.7501238,3.4985625 23.2120027,3.4698125 L24.6101058,3.3835625 L27.4019489,3.2179375 L32.9850117,2.8935625 L44.1486439,2.2385625 C51.5891955,1.7898125 59.031617,1.3385625 66.4597022,0.7810625 C68.3246709,0.6541875 70.1541103,0.4591875 72.0384018,0.3398125 C73.9376529,0.2454375 75.8019982,0.2660625 77.6769399,0.3266875 C81.4193435,0.4541875 85.1430475,0.7585625 88.8598951,1.1148125 C96.2917202,1.8485625 103.689886,2.8148125 111.070599,3.9391875 L111.071846,3.9391875 C111.255725,3.9666875 111.387868,4.1248125 111.389115,4.3060625 L111.389115,4.3098125 L111.638442,54.0760625 L111.638442,54.0766875 C111.639065,54.4210625 111.361689,54.7010625 111.01824,54.7023125 C111.008891,54.7023125 110.995801,54.7016875 110.986451,54.7016875 L89.5829444,53.6704375 L78.881191,53.1548125 L73.5300027,52.8973125 L70.8547202,52.7685625 C70.0082538,52.7216875 69.0820027,52.7504375 68.1993839,52.7373125 L25.3425049,52.5929375 C25.1399265,52.5923125 24.9759937,52.4291875 24.9691372,52.2279375" id="Fill-24" fill="#42457B"></path>
                    <path d="M74.1665354,11.35 L74.8241363,52.439375 L123.169334,53.979375 L123.169334,33.969375 C123.169334,33.969375 122.943069,19.371875 114.510195,13.928125 C106.07732,8.48375 74.1665354,11.35 74.1665354,11.35" id="Fill-26" fill="#FFFFFF"></path>
                    <path d="M74.1108731,10.7275 C77.5908596,10.43625 81.0602498,10.240625 84.541483,10.11125 C88.0208462,9.986875 91.5045726,9.934375 94.9914157,10.0025 C98.4770121,10.0775 101.968218,10.24875 105.448205,10.703125 C107.187263,10.93375 108.925075,11.2275 110.64294,11.686875 C112.350833,12.146875 114.101111,12.8 115.575259,13.91125 C117.03133,15.008125 118.262384,16.375 119.243487,17.88 C120.240797,19.378125 121.002492,21.0075 121.622694,22.6725 C122.843774,26.0175 123.502622,29.51625 123.750703,33.046875 L123.784985,33.715 C123.796205,33.9475 123.791842,34.1825 123.793088,34.39125 L123.793088,35.696875 L123.793088,38.308125 L123.793088,43.530625 L123.793088,53.975 L123.793088,53.979375 L123.793088,53.9875 C123.790595,54.330625 123.511348,54.606875 123.169147,54.604375 L123.149824,54.604375 L74.8164695,52.751875 L74.8145996,52.751875 C74.6487969,52.748125 74.5166534,52.614375 74.5129135,52.45 L74.5122901,52.444375 L73.54303,11.36 C73.5355502,11.030625 73.7879942,10.755 74.1108731,10.7275 M74.7946534,11.93875 L75.1356085,52.434375 L74.8339224,52.1275 L74.8357924,52.1275 L123.189093,53.355 L122.546452,53.979375 L122.546452,53.975 L122.546452,43.530625 L122.546452,38.308125 L122.546452,35.696875 L122.546452,34.39125 C122.545205,34.165 122.549568,33.964375 122.539595,33.7625 L122.506559,33.12625 C122.268452,29.7175 121.622694,26.30375 120.453972,23.106875 C119.860573,21.514375 119.136277,19.96875 118.203792,18.57 C117.286268,17.1625 116.151828,15.910625 114.83164,14.914375 L114.324259,14.559375 L114.197102,14.470625 C114.213308,14.475625 114.120434,14.425625 114.087398,14.40625 L113.803788,14.245625 C113.421694,14.009375 113.056429,13.855625 112.693035,13.6975 C111.950039,13.376875 111.129752,13.12 110.319438,12.894375 C108.681357,12.455625 106.987801,12.168125 105.286142,11.9425 C101.877837,11.496875 98.4215368,11.32625 94.966483,11.251875 C91.5095592,11.185 88.0470256,11.236875 84.5869852,11.360625 C81.3195502,11.481875 78.047752,11.67625 74.7946534,11.93875" id="Fill-28" fill="#42457B"></path>
                    <path d="M70.3008395,1.1231875 L70.8487363,44.1181875 C70.8506063,44.2475625 70.7471354,44.3538125 70.6181085,44.3556875 C70.4903283,44.3569375 70.3856108,44.2556875 70.3818709,44.1281875 L69.0542027,1.1506875 C69.0436063,0.8056875 69.3141265,0.5169375 69.6581982,0.5063125 C70.00227,0.4956875 70.290243,0.7669375 70.3008395,1.1119375 C70.3008395,1.1144375 70.3008395,1.1206875 70.3008395,1.1231875" id="Fill-30" fill="#42457B"></path>
                    <path d="M119.687228,52.8274375 C119.687228,58.5149375 116.96956,63.1274375 113.62234,63.1274375 L109.88243,63.1274375 C106.528977,63.1274375 103.817542,58.5149375 103.817542,52.8274375 C103.817542,47.1336875 106.528977,42.5211875 109.88243,42.5211875 L113.62234,42.5211875 C116.96956,42.5211875 119.687228,47.1336875 119.687228,52.8274375" id="Fill-32" fill="#998675"></path>
                    <path d="M119.687228,52.8274375 C119.687228,58.5149375 116.96956,63.1274375 113.62234,63.1274375 L109.88243,63.1274375 C106.528977,63.1274375 103.817542,58.5149375 103.817542,52.8274375 C103.817542,47.1336875 106.528977,42.5211875 109.88243,42.5211875 L113.62234,42.5211875 C116.96956,42.5211875 119.687228,47.1336875 119.687228,52.8274375 Z" id="Stroke-34" stroke="#42457B" stroke-width="1.25" stroke-linecap="round" stroke-linejoin="round"></path>
                    <path d="M109.880747,42.52125 C113.229836,42.52125 115.944388,47.134375 115.944388,52.824375 C115.944388,58.515 113.229836,63.1275 109.880747,63.1275" id="Stroke-36" stroke="#42457B" stroke-width="1.25" stroke-linecap="round" stroke-linejoin="round"></path>
                    <path d="M119.687228,52.8274375 C119.687228,58.5149375 116.96956,63.1274375 113.62234,63.1274375 L109.88243,63.1274375 C106.528977,63.1274375 103.817542,58.5149375 103.817542,52.8274375 C103.817542,47.1336875 106.528977,42.5211875 109.88243,42.5211875 L113.62234,42.5211875 C116.96956,42.5211875 119.687228,47.1336875 119.687228,52.8274375" id="Fill-38" fill="#998675"></path>
                    <path d="M119.313174,52.8274375 C119.313174,52.8274375 119.305071,52.5986875 119.290112,52.1705625 C119.286995,51.9555625 119.273282,51.6918125 119.238376,51.3830625 C119.21095,51.0736875 119.179161,50.7180625 119.108726,50.3249375 C118.995282,49.5355625 118.780237,48.5855625 118.398766,47.5499375 C118.008569,46.5286875 117.468152,45.3730625 116.551874,44.4230625 C116.111811,43.9349375 115.555188,43.5330625 114.939349,43.2711875 C114.350937,43.0049375 113.660923,42.9761875 112.832533,43.0074375 C112.030946,43.0174375 111.208165,43.0280625 110.367309,43.0386875 C109.92226,43.0411875 109.569461,43.0536875 109.212923,43.1374375 C108.854515,43.2211875 108.502964,43.3655625 108.175098,43.5693125 C106.844937,44.3861875 105.903726,45.9280625 105.308457,47.5593125 C104.997421,48.3793125 104.797959,49.2524375 104.650233,50.1336875 C104.49378,51.0249375 104.459497,51.8805625 104.440798,52.8399375 C104.449524,54.6030625 104.698228,56.4436875 105.306587,58.0843125 C105.900609,59.7161875 106.841197,61.2574375 108.170735,62.0761875 C108.495484,62.2818125 108.861995,62.4261875 109.175524,62.5036875 C109.313278,62.5693125 109.575071,62.5618125 109.77204,62.5911875 L109.851201,62.5986875 L109.891094,62.6024375 L109.91104,62.6043125 C109.897327,62.6043125 109.968385,62.6080625 109.886107,62.6043125 L110.045053,62.6061875 L110.361076,62.6099375 C111.202556,62.6205625 112.025336,62.6305625 112.8263,62.6405625 C113.670273,62.6674375 114.302318,62.6543125 114.934363,62.3793125 C115.551448,62.1193125 116.106825,61.7168125 116.548134,61.2293125 C117.465659,60.2811875 118.006076,59.1255625 118.39752,58.1043125 C118.779614,57.0693125 118.994659,56.1186875 119.108103,55.3293125 C119.179161,54.9349375 119.210327,54.5836875 119.237753,54.2780625 C119.272659,53.9761875 119.286995,53.7093125 119.290112,53.4874375 C119.305071,53.0499375 119.313174,52.8161875 119.313174,52.8161875 L119.313174,52.8274375 Z M120.061157,52.8386875 C120.061157,52.8386875 120.054923,53.0724375 120.044327,53.5105625 C120.04308,53.7268125 120.031861,53.9993125 119.998201,54.3299375 C119.972645,54.6574375 119.942103,55.0343125 119.872291,55.4455625 C119.760717,56.2743125 119.545672,57.2755625 119.149865,58.3811875 C118.742838,59.4761875 118.176865,60.7093125 117.175816,61.8168125 C116.690251,62.3768125 116.053843,62.8774375 115.293394,63.2211875 L115.005421,63.3493125 L114.696878,63.4361875 C114.489937,63.4949375 114.281125,63.5543125 114.059847,63.5630625 C113.599838,63.6211875 113.23208,63.6043125 112.8263,63.6136875 C112.025336,63.6236875 111.202556,63.6343125 110.361076,63.6449375 L110.045053,63.6486875 L109.886107,63.6505625 L109.682905,63.6374375 C109.459757,63.6105625 109.284605,63.6343125 109.012838,63.5574375 C108.488627,63.4518125 108.039215,63.2699375 107.617228,63.0243125 C105.912452,62.0236875 104.856551,60.2836875 104.188354,58.5005625 C103.50582,56.6886875 103.220964,54.7724375 103.194784,52.8030625 C103.219094,51.8955625 103.270206,50.8768125 103.447228,49.9336875 C103.615524,48.9830625 103.841165,48.0411875 104.190847,47.1430625 C104.860291,45.3599375 105.916192,43.6193125 107.622838,42.6205625 C108.042955,42.3749375 108.507327,42.1943125 108.986659,42.0949375 C109.466614,41.9936875 109.973372,41.9961875 110.367309,42.0036875 C111.208165,42.0143125 112.030946,42.0243125 112.832533,42.0343125 C113.597345,42.0268125 114.506143,42.0518125 115.299004,42.4305625 C116.058829,42.7755625 116.695237,43.2755625 117.180179,43.8368125 C118.179358,44.9455625 118.745331,46.1780625 119.151112,47.2736875 C119.546296,48.3793125 119.76134,49.3805625 119.872914,50.2093125 C119.942726,50.6224375 119.972645,50.9949375 119.997578,51.3186875 C120.031237,51.6418125 120.04308,51.9174375 120.044327,52.1418125 C120.055547,52.5886875 120.061157,52.8274375 120.061157,52.8274375 L120.061157,52.8386875 Z" id="Fill-40" fill="#42457B"></path>
                    <path d="M113.416022,43.882 C113.416022,43.882 113.47399,43.947625 113.582448,44.07075 C113.691528,44.1845 113.850474,44.388875 114.051806,44.651375 C114.236932,44.912 114.453847,45.2345 114.670138,45.622 C114.883313,46.010125 115.108954,46.456375 115.309663,46.96075 C115.717936,47.96575 116.061385,49.1895 116.247134,50.527 C116.339385,51.195125 116.40421,51.89075 116.41543,52.598875 C116.432259,53.30325 116.40795,54.023875 116.339385,54.746375 C116.203501,56.182625 115.876883,57.607625 115.373241,58.883875 C115.121421,59.522 114.824721,60.122 114.489376,60.66575 C114.408968,60.80325 114.318587,60.93325 114.230699,61.062 C114.18395,61.128875 114.150291,61.185125 114.092945,61.2595 L113.965165,61.43075 C113.77817,61.672 113.578708,61.906375 113.381116,62.106375 C112.590748,62.937625 111.6726,63.412625 110.988196,63.59325 C110.646618,63.692 110.364255,63.72075 110.174766,63.7395 C109.982784,63.74825 109.88056,63.752625 109.88056,63.752625 C109.537111,63.768875 109.245398,63.502 109.229815,63.157 C109.213609,62.812625 109.479766,62.520125 109.823838,62.5045 C109.826954,62.503875 109.830694,62.503875 109.834434,62.503875 L109.88056,62.502625 C109.88056,62.502625 109.953488,62.50075 110.088748,62.497625 C110.224008,62.486375 110.424093,62.472625 110.672797,62.406375 C111.167089,62.285125 111.873309,61.958875 112.553349,61.278875 C112.727878,61.1095 112.887448,60.9295 113.052627,60.727625 L113.18477,60.5595 C113.217183,60.52075 113.260815,60.453875 113.298838,60.402 C113.377999,60.29075 113.460277,60.1795 113.533829,60.05825 C113.841125,59.5845 114.122241,59.0495 114.365335,58.47075 C114.852147,57.313875 115.189986,55.988875 115.347685,54.638875 C115.42747,53.967 115.465492,53.285125 115.464869,52.61075 C115.469232,51.938875 115.422483,51.278875 115.348932,50.6445 C115.201829,49.375125 114.902636,48.21325 114.541111,47.2645 C114.364089,46.787625 114.162757,46.368875 113.973891,46.0045 C113.781909,45.642 113.589304,45.342 113.425995,45.0995 C113.258322,44.872625 113.128048,44.692 113.013358,44.56575 C112.907394,44.440125 112.851295,44.37325 112.851295,44.37325 C112.717282,44.21575 112.736604,43.978875 112.894304,43.8445 C113.04951,43.712625 113.281385,43.730125 113.416022,43.882" id="Fill-42" fill="#42457B"></path>
                    <path d="M112.111291,51.6785625 C112.111291,54.0591875 110.886471,55.9885625 109.374924,55.9885625 C107.863377,55.9885625 106.638556,54.0591875 106.638556,51.6785625 C106.638556,49.2979375 107.863377,47.3685625 109.374924,47.3685625 C110.886471,47.3685625 112.111291,49.2979375 112.111291,51.6785625" id="Fill-44" fill="#D2D4DF"></path>
                    <path d="M111.737363,51.6785625 C111.737363,51.6785625 111.733623,51.5960625 111.726143,51.4410625 C111.723026,51.2854375 111.699964,51.0591875 111.658201,50.7741875 C111.612699,50.4898125 111.537278,50.1479375 111.407627,49.7735625 C111.271744,49.4041875 111.084748,48.9948125 110.789296,48.6354375 C110.506932,48.2879375 110.083699,47.9585625 109.687269,47.8979375 C109.209807,47.7985625 108.78408,47.9729375 108.395753,48.3360625 C108.017399,48.7054375 107.733165,49.2416875 107.53308,49.8179375 C107.445816,50.1129375 107.362914,50.4148125 107.324892,50.7291875 C107.296219,50.8879375 107.291233,51.0348125 107.276896,51.1854375 C107.263807,51.3273125 107.266923,51.5491875 107.261937,51.6785625 C107.256327,52.3154375 107.346085,52.9529375 107.53308,53.5391875 C107.733165,54.1154375 108.017399,54.6516875 108.395753,55.0204375 C108.583372,55.1998125 108.799663,55.3379375 109.004112,55.4129375 C109.047744,55.4248125 109.089506,55.4398125 109.133139,55.4579375 L109.361896,55.4841875 C109.422358,55.4835625 109.570085,55.4929375 109.666076,55.4635625 C110.104269,55.3941875 110.497583,55.0710625 110.789296,54.7216875 C111.084748,54.3623125 111.271744,53.9529375 111.407627,53.5835625 C111.537278,53.2091875 111.612699,52.8673125 111.658201,52.5829375 C111.69934,52.3004375 111.722403,52.0916875 111.726143,51.9179375 C111.733623,51.7541875 111.737363,51.6666875 111.737363,51.6666875 L111.737363,51.6785625 Z M112.485345,51.6904375 C112.485345,51.6904375 112.483475,51.7785625 112.480358,51.9423125 C112.480982,52.0973125 112.463529,52.3698125 112.423013,52.6941875 C112.333255,53.3335625 112.14252,54.2710625 111.473076,55.2423125 C111.130874,55.7066875 110.634713,56.2204375 109.883614,56.4116875 C109.691009,56.4673125 109.528322,56.4816875 109.283358,56.4848125 L109.048991,56.4729375 C108.940533,56.4548125 108.830206,56.4329375 108.720502,56.4079375 C108.320955,56.2966875 107.975013,56.0954375 107.669587,55.8435625 C107.064345,55.3329375 106.666668,54.6485625 106.406121,53.9298125 C106.153677,53.2079375 106.027766,52.4429375 106.0153,51.6785625 C106.02652,51.4579375 106.025273,51.3285625 106.045219,51.1216875 C106.066412,50.9241875 106.083242,50.7216875 106.120641,50.5373125 C106.177986,50.1591875 106.28582,49.7891875 106.406121,49.4273125 C106.666668,48.7085625 107.064345,48.0241875 107.669587,47.5135625 C107.97252,47.2623125 108.326565,47.0585625 108.714892,46.9510625 C109.107583,46.8366875 109.515856,46.8548125 109.862421,46.9410625 C110.275058,47.0410625 110.564901,47.2166875 110.831058,47.4304375 C111.097215,47.6360625 111.296677,47.8791875 111.473076,48.1148125 C112.14252,49.0860625 112.333255,50.0235625 112.423013,50.6629375 C112.462282,50.9848125 112.480358,51.2398125 112.480358,51.4129375 C112.483475,51.5860625 112.485345,51.6785625 112.485345,51.6785625 L112.485345,51.6904375 Z" id="Fill-46" fill="#42457B"></path>
                    <path d="M112.111291,51.6785625 C112.111291,54.0591875 110.886471,55.9885625 109.374924,55.9885625 C107.863377,55.9885625 106.638556,54.0591875 106.638556,51.6785625 C106.638556,49.2979375 107.863377,47.3685625 109.374924,47.3685625 C110.886471,47.3685625 112.111291,49.2979375 112.111291,51.6785625" id="Fill-48" fill="#D2D4DF"></path>
                    <path d="M112.111291,51.6785625 C112.111291,54.0591875 110.886471,55.9885625 109.374924,55.9885625 C107.863377,55.9885625 106.638556,54.0591875 106.638556,51.6785625 C106.638556,49.2979375 107.863377,47.3685625 109.374924,47.3685625 C110.886471,47.3685625 112.111291,49.2979375 112.111291,51.6785625 Z" id="Stroke-50" stroke="#42457B" stroke-width="1.25" stroke-linecap="round" stroke-linejoin="round"></path>
                    <path d="M74.1665354,11.35 L74.8241363,52.439375 L123.169334,53.979375 L123.169334,33.969375 C123.169334,33.969375 122.943069,19.371875 114.510195,13.928125 C106.07732,8.48375 74.1665354,11.35 74.1665354,11.35" id="Fill-52" fill="#009BE8"></path>
                    <path d="M74.7708426,52.439625 L94.8884435,53.10275 L94.8884435,33.80025 C94.8884435,33.80025 98.5728785,19.372125 90.8237843,13.92775 C88.0076318,11.949 80.2398381,11.669625 74.1668471,11.35025" id="Fill-54" fill="#00B7F6"></path>
                    <path d="M122.773339,41.025875 L94.9446668,40.08775 C94.9446668,40.08775 95.4551646,27.097125 94.8979179,21.252125 C94.7726309,19.93525 95.8933574,18.84525 97.2048193,18.99275 C105.08668,19.879 119.68729,20.974 119.68729,20.974 C119.68729,20.974 124.835277,28.78525 122.773339,41.025875" id="Fill-56" fill="#FFFFFF"></path>
                    <path d="M122.760748,41.4006875 L94.9320758,40.4625625 C94.7257574,40.4556875 94.5636946,40.2819375 94.5711744,40.0750625 L94.5711744,40.0731875 C94.6846184,36.3169375 94.7469502,32.5531875 94.7201475,28.7969375 C94.7039413,26.9194375 94.6677888,25.0413125 94.5618247,23.1756875 C94.5381386,22.7088125 94.505726,22.2438125 94.462717,21.7813125 L94.4334211,21.4344375 L94.4190848,21.2325625 L94.4109816,21.0563125 C94.4134749,20.7488125 94.4614704,20.4494375 94.5599547,20.1806875 C94.7575466,19.6313125 95.1446274,19.1600625 95.6401655,18.8581875 C96.1300937,18.5531875 96.7496722,18.4325625 97.3000623,18.5000625 C101.03,18.8900625 104.76617,19.2044375 108.507327,19.5069375 C112.247861,19.8069375 115.991511,20.0869375 119.733914,20.3506875 C120.077363,20.3744375 120.336663,20.6725625 120.312977,21.0169375 C120.289914,21.3613125 119.992591,21.6213125 119.649143,21.5981875 C119.647896,21.5981875 119.641663,21.5975625 119.640417,21.5975625 C115.894896,21.2913125 112.153739,20.9694375 108.411336,20.6275625 C104.671426,20.2831875 100.927775,19.9269375 97.1928516,19.4944375 C96.4554659,19.3813125 95.7143404,19.8244375 95.4675063,20.5131875 C95.4020578,20.6863125 95.3783717,20.8575625 95.369022,21.0200625 L95.3746318,21.1963125 C95.3721386,21.2000625 95.3814883,21.3000625 95.3839816,21.3469375 L95.410161,21.7031875 C95.44943,22.1788125 95.4768561,22.6531875 95.4955556,23.1263125 C95.5815735,25.0206875 95.5971565,26.9081875 95.5927933,28.7950625 C95.5778336,32.5688125 95.4737395,36.3344375 95.3185332,40.1025625 L94.9576318,39.7131875 L122.785681,40.6513125 C122.992623,40.6581875 123.154062,40.8313125 123.147206,41.0388125 C123.140349,41.2456875 122.967067,41.4075625 122.760748,41.4006875" id="Fill-58" fill="#42457B"></path>
                    <path d="M74.1108731,10.7275 C77.5921063,10.449375 81.0621197,10.266875 84.5427296,10.15 C88.0220928,10.03875 91.505196,9.999375 94.9895457,10.080625 C98.4732722,10.168125 101.961362,10.3525 105.432622,10.819375 C107.167317,11.05625 108.900142,11.355625 110.607411,11.819375 C112.305954,12.283125 114.031922,12.935625 115.482384,14.03625 C116.917263,15.12625 118.130241,16.4825 119.097008,17.976875 C120.079981,19.465 120.830456,21.084375 121.440061,22.740625 C122.640573,26.066875 123.284461,29.553125 123.516958,33.061875 C123.58116,33.9475 123.543761,34.835625 123.549371,35.696875 L123.539398,38.308125 L123.520075,43.530625 L123.481429,53.975 L123.481429,53.979375 C123.481429,54.151875 123.341806,54.291875 123.16977,54.291875 L123.159797,54.291875 L74.8164695,52.751875 L74.8145996,52.751875 C74.6487969,52.748125 74.5166534,52.614375 74.5129135,52.45 L74.5122901,52.444375 L73.54303,11.36 C73.5349269,11.030625 73.7873709,10.755 74.1108731,10.7275 M74.7946534,11.93625 L75.1356085,52.434375 L74.8339224,52.1275 L74.8357924,52.1275 L123.17912,53.6675 L122.858111,53.979375 L122.858111,53.975 L122.818842,43.530625 L122.799519,38.308125 L122.789546,35.696875 C122.777703,34.818125 122.808245,33.963125 122.73968,33.11125 C122.487236,29.680625 121.825896,26.255 120.636604,23.039375 C120.033232,21.4375 119.297093,19.881875 118.349649,18.473125 C117.418411,17.055 116.265896,15.7925 114.924514,14.789375 C113.585626,13.79125 111.999281,13.198125 110.354967,12.761875 C108.70629,12.3275 107.007124,12.045625 105.301102,11.826875 C101.884694,11.393125 98.4252767,11.235 94.9683529,11.17375 C91.5089359,11.12 88.0457789,11.185 84.5851152,11.32125 C81.3183036,11.455 78.0465054,11.661875 74.7946534,11.93625" id="Fill-60" fill="#42457B"></path>
                    <path d="M100.808535,27.5251875 C100.808535,27.5251875 101.13079,27.2520625 101.638795,26.8901875 C102.148046,26.5264375 102.863615,26.0908125 103.63092,25.7264375 C104.013638,25.5433125 104.415055,25.3895625 104.801512,25.2595625 C104.999727,25.2051875 105.191086,25.1526875 105.373095,25.1026875 C105.561337,25.0664375 105.740853,25.0358125 105.907279,25.0108125 C106.247611,24.9845625 106.533714,24.9751875 106.739409,25.0108125 C106.941987,25.0395625 107.057301,25.0558125 107.057301,25.0558125 C107.339665,25.0958125 107.53601,25.3570625 107.496741,25.6401875 C107.459342,25.9051875 107.227467,26.0951875 106.966297,26.0851875 L106.884019,26.0814375 C106.884019,26.0814375 106.796131,26.0783125 106.642795,26.0714375 C106.566126,26.0708125 106.476992,26.0476875 106.365418,26.0589375 C106.255714,26.0658125 106.13292,26.0583125 105.996413,26.0614375 C105.85866,26.0770625 105.709064,26.0895625 105.548871,26.0995625 C105.388055,26.1251875 105.218512,26.1533125 105.042736,26.1814375 C104.691185,26.2595625 104.314077,26.3583125 103.941956,26.4901875 C103.195221,26.7464375 102.472171,27.0995625 101.938611,27.3801875 C101.402557,27.6626875 101.066588,27.8776875 101.066588,27.8776875 C100.964364,27.9426875 100.829727,27.9126875 100.764902,27.8108125 C100.705064,27.7170625 100.726257,27.5945625 100.808535,27.5251875" id="Fill-62" fill="#42457B"></path>
                    <path d="M116.672673,28.5624375 C116.672673,28.5624375 116.365377,28.3111875 115.866099,27.9680625 C115.368691,27.6274375 114.691144,27.1943125 113.979314,26.8530625 C113.62527,26.6793125 113.261875,26.5374375 112.92092,26.4186875 C112.749507,26.3699375 112.583704,26.3230625 112.426005,26.2780625 C112.267682,26.2499375 112.120579,26.2186875 111.984696,26.1880625 C111.849435,26.1718125 111.726018,26.1568125 111.616314,26.1436875 C111.505987,26.1205625 111.414359,26.1343125 111.337068,26.1268125 C111.183108,26.1174375 111.094597,26.1124375 111.094597,26.1124375 L111.019175,26.1080625 C110.746162,26.0918125 110.537974,25.8574375 110.553557,25.5836875 C110.569139,25.3249375 110.781068,25.1236875 111.034758,25.1161875 C111.034758,25.1161875 111.150696,25.1130625 111.354521,25.1074375 C111.560839,25.0949375 111.843202,25.1349375 112.177924,25.1955625 C112.339364,25.2405625 112.513893,25.2886875 112.698395,25.3399375 C112.873548,25.4080625 113.058673,25.4793125 113.250032,25.5536875 C113.620283,25.7211875 114.003624,25.9143125 114.365772,26.1349375 C115.092561,26.5743125 115.760758,27.0805625 116.23261,27.4924375 C116.701969,27.9030625 116.996799,28.2068125 116.996799,28.2068125 C117.089673,28.3024375 117.087803,28.4549375 116.993059,28.5480625 C116.904548,28.6343125 116.766171,28.6386875 116.672673,28.5624375" id="Fill-64" fill="#42457B"></path>
                    <path d="M93.2077901,52.8274375 C93.2077901,58.5149375 90.490122,63.1274375 87.1429022,63.1274375 L83.4029919,63.1274375 C80.049539,63.1274375 77.338104,58.5149375 77.338104,52.8274375 C77.338104,47.1336875 80.049539,42.5211875 83.4029919,42.5211875 L87.1429022,42.5211875 C90.490122,42.5211875 93.2077901,47.1336875 93.2077901,52.8274375" id="Fill-66" fill="#998675"></path>
                    <path d="M92.8338614,52.8274375 C92.8338614,52.8274375 92.8257583,52.5986875 92.8107987,52.1705625 C92.8076821,51.9555625 92.7939691,51.6918125 92.7584399,51.3830625 C92.7316372,51.0736875 92.699848,50.7180625 92.629413,50.3249375 C92.5159691,49.5355625 92.3009242,48.5855625 91.9194534,47.5499375 C91.5286327,46.5286875 90.988839,45.3730625 90.072561,44.4230625 C89.6318749,43.9349375 89.0758749,43.5330625 88.459413,43.2711875 C87.8716238,43.0049375 87.1816103,42.9761875 86.3525969,43.0074375 C85.5516327,43.0174375 84.7288525,43.0280625 83.8873726,43.0386875 C83.4429466,43.0411875 83.0895251,43.0536875 82.732987,43.1374375 C82.3752022,43.2211875 82.0236507,43.3655625 81.6957852,43.5693125 C80.3650004,44.3861875 79.424413,45.9280625 78.8291439,47.5593125 C78.5181081,48.3793125 78.3186462,49.2524375 78.1709197,50.1336875 C78.0144668,51.0249375 77.9801843,51.8805625 77.9614848,52.8399375 C77.9695879,54.6030625 78.2189152,56.4436875 78.8266507,58.0843125 C79.4212964,59.7161875 80.3618839,61.2574375 81.691422,62.0761875 C82.0161709,62.2818125 82.3826821,62.4261875 82.6962112,62.5036875 C82.8339646,62.5693125 83.0957583,62.5618125 83.2927269,62.5911875 L83.3718883,62.5986875 L83.4117807,62.6024375 L83.4311036,62.6043125 C83.4180139,62.6043125 83.4890722,62.6080625 83.4067942,62.6043125 L83.5657404,62.6061875 L83.8817628,62.6099375 C84.7232426,62.6205625 85.5460229,62.6305625 86.346987,62.6405625 C87.1903368,62.6674375 87.8230049,62.6543125 88.4550498,62.3793125 C89.072135,62.1193125 89.6275117,61.7168125 90.0688211,61.2293125 C90.9863457,60.2811875 91.5267628,59.1255625 91.9182067,58.1043125 C92.3003009,57.0693125 92.5153457,56.1186875 92.6287897,55.3293125 C92.699848,54.9349375 92.7310139,54.5836875 92.7578166,54.2780625 C92.7933457,53.9761875 92.8076821,53.7093125 92.8107987,53.4874375 C92.8257583,53.0499375 92.8338614,52.8161875 92.8338614,52.8161875 L92.8338614,52.8274375 Z M93.5818435,52.8386875 C93.5818435,52.8386875 93.5756103,53.0724375 93.5650139,53.5105625 C93.5637673,53.7268125 93.5525475,53.9993125 93.5188883,54.3299375 C93.4933323,54.6574375 93.4627897,55.0343125 93.392978,55.4455625 C93.281404,56.2743125 93.0663592,57.2755625 92.670552,58.3811875 C92.2635251,59.4761875 91.697552,60.7093125 90.6965027,61.8168125 C90.2109377,62.3768125 89.5745296,62.8774375 88.8134578,63.2211875 L88.5261081,63.3493125 L88.2175655,63.4361875 C88.0100004,63.4949375 87.8018121,63.5543125 87.5805341,63.5630625 C87.1205251,63.6211875 86.7527673,63.6043125 86.346987,63.6136875 C85.5460229,63.6236875 84.7232426,63.6343125 83.8817628,63.6449375 L83.5657404,63.6486875 L83.4067942,63.6505625 L83.2035924,63.6374375 C82.9804444,63.6105625 82.8052919,63.6343125 82.5329018,63.5574375 C82.008691,63.4518125 81.5599018,63.2699375 81.1379152,63.0243125 C79.4331395,62.0236875 78.3772381,60.2836875 77.7090408,58.5005625 C77.0258839,56.6886875 76.7416507,54.7724375 76.7154713,52.8030625 C76.7397807,51.8955625 76.7908928,50.8768125 76.9679152,49.9336875 C77.1362112,48.9830625 77.3618525,48.0411875 77.7115341,47.1430625 C78.380978,45.3599375 79.4368794,43.6193125 81.1435251,42.6205625 C81.5636417,42.3749375 82.0280139,42.1943125 82.5073457,42.0949375 C82.9873009,41.9936875 83.4940587,41.9961875 83.8873726,42.0036875 C84.7288525,42.0143125 85.5516327,42.0243125 86.3525969,42.0343125 C87.1180318,42.0268125 88.02683,42.0518125 88.819691,42.4305625 C89.5795161,42.7755625 90.2159242,43.2755625 90.7002426,43.8368125 C91.699422,44.9455625 92.2660184,46.1780625 92.6717987,47.2736875 C93.0669825,48.3793125 93.2820274,49.3805625 93.3936013,50.2093125 C93.4627897,50.6224375 93.492709,50.9949375 93.518265,51.3186875 C93.5519242,51.6418125 93.5631439,51.9174375 93.5650139,52.1418125 C93.5756103,52.5886875 93.5818435,52.8274375 93.5818435,52.8274375 L93.5818435,52.8386875 Z" id="Fill-68" fill="#42457B"></path>
                    <path d="M86.9367085,43.882 C86.9367085,43.882 86.9946771,43.947625 87.1031345,44.07075 C87.2115919,44.1845 87.3711614,44.388875 87.5724933,44.651375 C87.7576188,44.912 87.9745336,45.2345 88.1902018,45.622 C88.404,46.010125 88.6296413,46.456375 88.8303498,46.96075 C89.2386233,47.96575 89.5820717,49.1895 89.7671973,50.527 C89.8600717,51.195125 89.9248969,51.89075 89.9361166,52.598875 C89.9529462,53.30325 89.9286368,54.023875 89.8600717,54.746375 C89.7241883,56.182625 89.3975695,57.607625 88.8939283,58.883875 C88.6421076,59.522 88.3454081,60.122 88.0100628,60.66575 C87.9296547,60.80325 87.8386502,60.93325 87.7513857,61.062 C87.7040135,61.128875 87.6709776,61.185125 87.6136323,61.2595 L87.4852287,61.43075 C87.2988565,61.672 87.0993946,61.906375 86.9018027,62.106375 C86.111435,62.937625 85.193287,63.412625 84.5082601,63.59325 C84.1673049,63.692 83.8849417,63.72075 83.6948296,63.7395 C83.5034709,63.74825 83.4012466,63.752625 83.4012466,63.752625 C83.0577982,63.768875 82.7660852,63.502 82.7498789,63.157 C82.734296,62.812625 83.0004529,62.520125 83.3445247,62.5045 C83.3476413,62.503875 83.3513812,62.503875 83.3551211,62.503875 L83.4012466,62.502625 C83.4012466,62.502625 83.4735516,62.50075 83.609435,62.497625 C83.7446951,62.486375 83.9447803,62.472625 84.1934843,62.406375 C84.6877758,62.285125 85.3939955,61.958875 86.0734126,61.278875 C86.248565,61.1095 86.4081345,60.9295 86.5733139,60.727625 L86.7048341,60.5595 C86.73787,60.52075 86.7815022,60.453875 86.8195247,60.402 C86.8986861,60.29075 86.9809641,60.1795 87.0545157,60.05825 C87.3618117,59.5845 87.6423049,59.0495 87.8860224,58.47075 C88.3728341,57.313875 88.7106726,55.988875 88.8683722,54.638875 C88.948157,53.967 88.9861794,53.285125 88.9855561,52.61075 C88.9899193,51.938875 88.9425471,51.278875 88.8696188,50.6445 C88.7218924,49.375125 88.4233229,48.21325 88.0617982,47.2645 C87.8847758,46.787625 87.6834439,46.368875 87.4945785,46.0045 C87.3019731,45.642 87.109991,45.342 86.9460583,45.0995 C86.7783857,44.872625 86.6487354,44.692 86.5340448,44.56575 C86.4280807,44.440125 86.3719821,44.37325 86.3719821,44.37325 C86.2379686,44.21575 86.2572915,43.978875 86.414991,43.8445 C86.5701973,43.712625 86.8020717,43.730125 86.9367085,43.882" id="Fill-70" fill="#42457B"></path>
                    <path d="M85.6319161,51.6785625 C85.6319161,54.0591875 84.4070955,55.9885625 82.8955484,55.9885625 C81.3840013,55.9885625 80.1591807,54.0591875 80.1591807,51.6785625 C80.1591807,49.2979375 81.3840013,47.3685625 82.8955484,47.3685625 C84.4070955,47.3685625 85.6319161,49.2979375 85.6319161,51.6785625" id="Fill-72" fill="#D2D4DF"></path>
                    <path d="M85.2578628,51.6785625 C85.2578628,51.6785625 85.2541229,51.5960625 85.246643,51.4410625 C85.2435265,51.2854375 85.2204637,51.0591875 85.1787013,50.7741875 C85.1331991,50.4898125 85.0577776,50.1479375 84.9281274,49.7735625 C84.7922439,49.4041875 84.6052484,48.9948125 84.3097955,48.6354375 C84.0274323,48.2879375 83.6041991,47.9585625 83.2077686,47.8979375 C82.7303067,47.7985625 82.3045803,47.9729375 81.9162529,48.3360625 C81.5378987,48.7054375 81.2536655,49.2416875 81.0535803,49.8179375 C80.9663157,50.1129375 80.8834143,50.4148125 80.8460152,50.7291875 C80.8173426,50.8879375 80.8117327,51.0348125 80.7973964,51.1854375 C80.7843067,51.3273125 80.7874233,51.5491875 80.7824368,51.6785625 C80.7768269,52.3154375 80.8665848,52.9529375 81.0535803,53.5391875 C81.2536655,54.1154375 81.5378987,54.6516875 81.9162529,55.0204375 C82.1038717,55.1998125 82.3201632,55.3379375 82.5246117,55.4129375 C82.5682439,55.4248125 82.6106296,55.4398125 82.6536386,55.4579375 L82.8830197,55.4841875 C82.9428583,55.4835625 83.0905848,55.4929375 83.1865758,55.4635625 C83.6247686,55.3941875 84.0180825,55.0710625 84.3097955,54.7216875 C84.6052484,54.3623125 84.7922439,53.9529375 84.9281274,53.5835625 C85.0577776,53.2091875 85.1331991,52.8673125 85.1787013,52.5829375 C85.2198404,52.3004375 85.2429031,52.0916875 85.246643,51.9179375 C85.2541229,51.7541875 85.2578628,51.6666875 85.2578628,51.6666875 L85.2578628,51.6785625 Z M86.0058448,51.6904375 C86.0058448,51.6904375 86.0039749,51.7785625 86.0008583,51.9423125 C86.0021049,52.0973125 85.9840287,52.3698125 85.943513,52.6941875 C85.8537552,53.3335625 85.6630197,54.2710625 84.9935758,55.2423125 C84.651374,55.7066875 84.1552126,56.2204375 83.4041139,56.4116875 C83.2115085,56.4673125 83.0488224,56.4816875 82.8038583,56.4848125 L82.5694906,56.4729375 C82.4610332,56.4548125 82.3507058,56.4329375 82.2410018,56.4079375 C81.8414547,56.2966875 81.495513,56.0954375 81.190087,55.8435625 C80.5848448,55.3329375 80.1871677,54.6485625 79.9266206,53.9298125 C79.6741767,53.2079375 79.5482664,52.4429375 79.5358,51.6785625 C79.5470197,51.4579375 79.5457731,51.3285625 79.5657193,51.1216875 C79.5869121,50.9241875 79.6037417,50.7216875 79.6411408,50.5373125 C79.6984861,50.1591875 79.8063202,49.7891875 79.9266206,49.4273125 C80.1871677,48.7085625 80.5848448,48.0241875 81.190087,47.5135625 C81.4930197,47.2623125 81.8470646,47.0585625 82.2353919,46.9510625 C82.6280825,46.8366875 83.0363561,46.8548125 83.3829211,46.9410625 C83.7955578,47.0410625 84.0854009,47.2166875 84.3515578,47.4304375 C84.6177148,47.6360625 84.8171767,47.8791875 84.9935758,48.1148125 C85.6630197,49.0860625 85.8537552,50.0235625 85.943513,50.6629375 C85.9827821,50.9848125 86.0008583,51.2398125 86.0008583,51.4129375 C86.0039749,51.5860625 86.0058448,51.6785625 86.0058448,51.6785625 L86.0058448,51.6904375 Z" id="Fill-74" fill="#42457B"></path>
                    <path d="M107.027694,47.1505 C107.027694,48.819875 105.678209,50.172375 104.013949,50.172375 C102.349066,50.172375 100.999582,48.819875 100.999582,47.1505 C100.999582,45.481125 102.349066,44.128625 104.013949,44.128625 C105.678209,44.128625 107.027694,45.481125 107.027694,47.1505" id="Fill-76" fill="#FA8E71"></path>
                    <path d="M106.653703,47.1505625 C106.653703,47.1505625 106.649963,47.0855625 106.64186,46.9636875 C106.63438,46.8430625 106.613187,46.6636875 106.549609,46.4468125 C106.438035,46.0161875 106.107052,45.4005625 105.449452,44.9955625 C105.132183,44.7999375 104.705209,44.6618125 104.322492,44.6343125 C103.851887,44.6030625 103.4299,44.6886875 103.015393,44.8911875 C102.609613,45.0961875 102.256191,45.4205625 102.004994,45.8143125 C101.883447,46.0143125 101.790573,46.2305625 101.718891,46.4530625 C101.692088,46.5674375 101.659676,46.6849375 101.650949,46.7811875 C101.629757,46.8455625 101.629133,47.0743125 101.6229,47.1505625 C101.619783,47.6255625 101.7619,48.0874375 102.004994,48.4868125 C102.256191,48.8805625 102.609613,49.2049375 103.015393,49.4099375 C103.212985,49.5061875 103.445483,49.5911875 103.634972,49.6236875 C103.716626,49.6499375 103.868716,49.6568125 103.994626,49.6693125 C104.067555,49.6736875 104.202191,49.6724375 104.300676,49.6686875 C104.726402,49.6368125 105.122209,49.5018125 105.449452,49.3055625 C106.107052,48.9005625 106.438035,48.2849375 106.549609,47.8543125 C106.61381,47.6224375 106.63064,47.4968125 106.64186,47.3443125 C106.649963,47.2055625 106.654326,47.1318125 106.654326,47.1318125 L106.653703,47.1505625 Z M107.401061,47.1693125 C107.401061,47.1693125 107.397945,47.2436875 107.392335,47.3824375 C107.387348,47.5068125 107.359299,47.7899375 107.283254,48.0574375 C107.139268,48.6161875 106.757174,49.4186875 105.926913,50.0205625 C105.5149,50.3161875 104.994429,50.5461875 104.409133,50.6355625 C104.255174,50.6536875 104.131757,50.6686875 103.944138,50.6718125 C103.809501,50.6680625 103.69668,50.6761875 103.515295,50.6511875 C103.173716,50.6186875 102.882626,50.5336875 102.570344,50.4143125 C101.960115,50.1699375 101.399129,49.7343125 101.001452,49.1561875 C100.597541,48.5811875 100.386236,47.8643125 100.376263,47.1505625 C100.3906,46.9311875 100.38312,46.8611875 100.419896,46.6343125 C100.444205,46.4349375 100.492824,46.2674375 100.539573,46.0955625 C100.64803,45.7561875 100.801366,45.4330625 101.001452,45.1449375 C101.399129,44.5668125 101.960115,44.1311875 102.570344,43.8868125 C103.1706,43.6393125 103.849393,43.5818125 104.38794,43.6636875 C105.016245,43.7568125 105.50555,43.9843125 105.926913,44.2805625 C106.757174,44.8824375 107.139268,45.6849375 107.283254,46.2436875 C107.359922,46.5255625 107.383609,46.7561875 107.391712,46.9111875 C107.398568,47.0674375 107.401685,47.1505625 107.401685,47.1505625 L107.401061,47.1693125 Z" id="Fill-78" fill="#42457B"></path>
                    <path d="M121.186122,48.12025 C121.186122,49.652125 119.947588,50.893375 118.420458,50.893375 C116.892704,50.893375 115.654794,49.652125 115.654794,48.12025 C115.654794,46.588375 116.892704,45.347125 118.420458,45.347125 C119.947588,45.347125 121.186122,46.588375 121.186122,48.12025" id="Fill-80" fill="#FA8E71"></path>
                    <path d="M120.81213,48.12025 C120.81213,48.12025 120.808391,48.0615 120.801534,47.950875 C120.794054,47.8415 120.774731,47.679625 120.716763,47.48275 C120.616409,47.09275 120.314099,46.53525 119.718207,46.172125 C119.430857,45.997125 119.041906,45.874 118.700951,45.8515 C118.272108,45.824625 117.895624,45.904 117.522256,46.088375 C117.158238,46.274625 116.842839,46.56775 116.617821,46.9215 C116.509987,47.1015 116.427709,47.29525 116.363507,47.49525 C116.339198,47.59775 116.309902,47.703375 116.303045,47.787125 C116.283722,47.839625 116.283722,48.0565 116.278113,48.12025 C116.273749,48.5465 116.402153,48.959625 116.617821,49.319 C116.842839,49.67275 117.158238,49.965875 117.522256,50.152125 C117.698655,50.239625 117.90996,50.31775 118.078256,50.347125 C118.148691,50.3715 118.290184,50.378375 118.404875,50.39025 C118.466583,50.394625 118.591247,50.394 118.679135,50.390875 C119.063722,50.364625 119.421507,50.244625 119.718207,50.068375 C120.314099,49.70525 120.616409,49.14775 120.716763,48.75775 C120.775978,48.5465 120.790314,48.437125 120.800911,48.2965 C120.808391,48.169 120.812754,48.1015 120.812754,48.1015 L120.81213,48.12025 Z M121.559489,48.139 C121.559489,48.139 121.556996,48.207125 121.551386,48.334625 C121.547023,48.447125 121.520843,48.714 121.450409,48.960875 C121.317018,49.478375 120.964843,50.223375 120.195669,50.783375 C119.814198,51.058375 119.331126,51.273375 118.787592,51.35775 C118.644229,51.37525 118.531409,51.389625 118.354386,51.39275 C118.230346,51.389625 118.128745,51.398375 117.957956,51.374625 C117.638817,51.34525 117.36892,51.267125 117.07783,51.1565 C116.509364,50.930875 115.985776,50.5265 115.614902,49.988375 C115.237794,49.453375 115.040202,48.78525 115.031476,48.12025 C115.044565,47.91275 115.037709,47.85525 115.071991,47.640875 C115.095054,47.453375 115.140557,47.297125 115.183565,47.137125 C115.285166,46.820875 115.427906,46.52025 115.614902,46.252125 C115.985776,45.714 116.509364,45.309625 117.07783,45.084 C117.636323,44.854625 118.268991,44.803375 118.7664,44.88025 C119.352942,44.969 119.804225,45.180875 120.195669,45.457125 C120.964843,46.017125 121.317018,46.762125 121.450409,47.279625 C121.521467,47.540875 121.543283,47.754625 121.551386,47.898375 C121.556996,48.043375 121.560113,48.12025 121.560113,48.12025 L121.559489,48.139 Z" id="Fill-82" fill="#42457B"></path>
                    <g id="Group-86" transform="translate(6.233184, 63.125000)">
                        <mask id="mask-2" fill="white">
                            <use xlink:href="#path-1"></use>
                        </mask>
                        <g id="Clip-85"></g>
                        <path d="M0.926687444,0.3153125 C0.926687444,0.3153125 9.12020762,0.2459375 21.4107996,0.1421875 C27.5560955,0.1140625 34.7255036,0.0815625 42.4072794,0.0459375 C50.0890552,0.0334375 58.2825753,0.0196875 66.4760955,0.0053125 C74.6696157,0.0184375 82.8637592,0.0309375 90.5449117,0.0428125 C98.2266874,0.0771875 105.396096,0.1096875 111.541391,0.1371875 C123.831983,0.2440625 132.025504,0.3153125 132.025504,0.3153125 C132.198163,0.3165625 132.336539,0.4578125 132.33467,0.6303125 C132.333423,0.8009375 132.195046,0.9384375 132.025504,0.9403125 C132.025504,0.9403125 123.831983,1.0115625 111.541391,1.1184375 C105.396096,1.1459375 98.2266874,1.1784375 90.5449117,1.2128125 C82.8637592,1.2246875 74.6696157,1.2371875 66.4760955,1.2503125 C58.2825753,1.2359375 50.0890552,1.2221875 42.4072794,1.2096875 C34.7255036,1.1740625 27.5560955,1.1415625 21.4107996,1.1134375 C9.12020762,1.0096875 0.926687444,0.9403125 0.926687444,0.9403125 C0.75465157,0.9390625 0.616274888,0.7978125 0.617521525,0.6253125 C0.61939148,0.4546875 0.757144843,0.3165625 0.926687444,0.3153125" id="Fill-84" fill="#42457B" mask="url(#mask-2)"></path>
                    </g>
                    <path d="M52.3723951,52.8274375 C52.3723951,58.5149375 49.6547269,63.1274375 46.3075072,63.1274375 L42.5675969,63.1274375 C39.2141439,63.1274375 36.502709,58.5149375 36.502709,52.8274375 C36.502709,47.1336875 39.2141439,42.5211875 42.5675969,42.5211875 L46.3075072,42.5211875 C49.6547269,42.5211875 52.3723951,47.1336875 52.3723951,52.8274375" id="Fill-87" fill="#998675"></path>
                    <path d="M51.9984664,52.8274375 C51.9984664,52.8274375 51.9903632,52.5986875 51.9754036,52.1705625 C51.972287,51.9555625 51.958574,51.6918125 51.9230448,51.3830625 C51.8962422,51.0736875 51.8644529,50.7180625 51.7940179,50.3249375 C51.680574,49.5355625 51.4655291,48.5855625 51.0840583,47.5499375 C50.6932377,46.5286875 50.1534439,45.3730625 49.2371659,44.4230625 C48.7964798,43.9349375 48.2404798,43.5330625 47.6240179,43.2711875 C47.0362287,43.0049375 46.3462152,42.9761875 45.5172018,43.0074375 C44.7162377,43.0174375 43.8934574,43.0280625 43.0519776,43.0386875 C42.6075516,43.0411875 42.25413,43.0536875 41.8975919,43.1374375 C41.5398072,43.2211875 41.1882556,43.3655625 40.8603901,43.5693125 C39.5296054,44.3861875 38.5890179,45.9280625 37.9937489,47.5593125 C37.682713,48.3793125 37.4832511,49.2524375 37.3355247,50.1336875 C37.1790717,51.0249375 37.1447892,51.8805625 37.1260897,52.8399375 C37.1341928,54.6030625 37.3835202,56.4436875 37.9912556,58.0843125 C38.5859013,59.7161875 39.5264888,61.2574375 40.8560269,62.0761875 C41.1807758,62.2818125 41.547287,62.4261875 41.8608161,62.5036875 C41.9985695,62.5693125 42.2603632,62.5618125 42.4573318,62.5911875 L42.5364933,62.5986875 L42.5763857,62.6024375 L42.5957085,62.6043125 C42.5826188,62.6043125 42.6536771,62.6080625 42.5713991,62.6043125 L42.7303453,62.6061875 L43.0463677,62.6099375 C43.8878475,62.6205625 44.7106278,62.6305625 45.5115919,62.6405625 C46.3549417,62.6674375 46.9876099,62.6543125 47.6196547,62.3793125 C48.2367399,62.1193125 48.7921166,61.7168125 49.233426,61.2293125 C50.1509507,60.2811875 50.6913677,59.1255625 51.0828117,58.1043125 C51.4649058,57.0693125 51.6799507,56.1186875 51.7933946,55.3293125 C51.8644529,54.9349375 51.8956188,54.5836875 51.9224215,54.2780625 C51.9579507,53.9761875 51.972287,53.7093125 51.9754036,53.4874375 C51.9903632,53.0499375 51.9984664,52.8161875 51.9984664,52.8161875 L51.9984664,52.8274375 Z M52.7464484,52.8386875 C52.7464484,52.8386875 52.7402152,53.0724375 52.7296188,53.5105625 C52.7283722,53.7268125 52.7171525,53.9993125 52.6834933,54.3299375 C52.6579372,54.6574375 52.6273946,55.0343125 52.557583,55.4455625 C52.446009,56.2743125 52.2309641,57.2755625 51.835157,58.3811875 C51.42813,59.4761875 50.862157,60.7093125 49.8611076,61.8168125 C49.3755426,62.3768125 48.7391345,62.8774375 47.9780628,63.2211875 L47.690713,63.3493125 L47.3821704,63.4361875 C47.1746054,63.4949375 46.966417,63.5543125 46.745139,63.5630625 C46.28513,63.6211875 45.9173722,63.6043125 45.5115919,63.6136875 C44.7106278,63.6236875 43.8878475,63.6343125 43.0463677,63.6449375 L42.7303453,63.6486875 L42.5713991,63.6505625 L42.3681973,63.6374375 C42.1450493,63.6105625 41.9698969,63.6343125 41.6975067,63.5574375 C41.173296,63.4518125 40.7245067,63.2699375 40.3025202,63.0243125 C38.5977444,62.0236875 37.541843,60.2836875 36.8736457,58.5005625 C36.1904888,56.6886875 35.9062556,54.7724375 35.8800762,52.8030625 C35.9043857,51.8955625 35.9554978,50.8768125 36.1325202,49.9336875 C36.3008161,48.9830625 36.5264574,48.0411875 36.876139,47.1430625 C37.545583,45.3599375 38.6014843,43.6193125 40.30813,42.6205625 C40.7282466,42.3749375 41.1926188,42.1943125 41.6719507,42.0949375 C42.1519058,41.9936875 42.6586637,41.9961875 43.0519776,42.0036875 C43.8934574,42.0143125 44.7162377,42.0243125 45.5172018,42.0343125 C46.2826368,42.0268125 47.191435,42.0518125 47.984296,42.4305625 C48.7441211,42.7755625 49.3805291,43.2755625 49.8648475,43.8368125 C50.8640269,44.9455625 51.4306233,46.1780625 51.8364036,47.2736875 C52.2315874,48.3793125 52.4466323,49.3805625 52.5582063,50.2093125 C52.6273946,50.6224375 52.6573139,50.9949375 52.68287,51.3186875 C52.7165291,51.6418125 52.7277489,51.9174375 52.7296188,52.1418125 C52.7402152,52.5886875 52.7464484,52.8274375 52.7464484,52.8274375 L52.7464484,52.8386875 Z" id="Fill-89" fill="#42457B"></path>
                    <path d="M46.1012511,43.882 C46.1012511,43.882 46.1592197,43.947625 46.2676771,44.07075 C46.3761345,44.1845 46.535704,44.388875 46.7370359,44.651375 C46.9221614,44.912 47.1390762,45.2345 47.3547444,45.622 C47.5685426,46.010125 47.7941839,46.456375 47.9948924,46.96075 C48.4031659,47.96575 48.7466143,49.1895 48.9317399,50.527 C49.0246143,51.195125 49.0894395,51.89075 49.1006592,52.598875 C49.1174888,53.30325 49.0931794,54.023875 49.0246143,54.746375 C48.8887309,56.182625 48.5621121,57.607625 48.0584709,58.883875 C47.8066502,59.522 47.5099507,60.122 47.1746054,60.66575 C47.0941973,60.80325 47.0031928,60.93325 46.9159283,61.062 C46.8685561,61.128875 46.8355202,61.185125 46.7781749,61.2595 L46.6497713,61.43075 C46.4633991,61.672 46.2639372,61.906375 46.0663453,62.106375 C45.2759776,62.937625 44.3578296,63.412625 43.6728027,63.59325 C43.3318475,63.692 43.0494843,63.72075 42.8593722,63.7395 C42.6680135,63.74825 42.5657892,63.752625 42.5657892,63.752625 C42.2223408,63.768875 41.9306278,63.502 41.9144215,63.157 C41.8988386,62.812625 42.1649955,62.520125 42.5090673,62.5045 C42.5121839,62.503875 42.5159238,62.503875 42.5196637,62.503875 L42.5657892,62.502625 C42.5657892,62.502625 42.6380942,62.50075 42.7739776,62.497625 C42.9092377,62.486375 43.1093229,62.472625 43.3580269,62.406375 C43.8523184,62.285125 44.5585381,61.958875 45.2379552,61.278875 C45.4131076,61.1095 45.5726771,60.9295 45.7378565,60.727625 L45.8693767,60.5595 C45.9024126,60.52075 45.9460448,60.453875 45.9840673,60.402 C46.0632287,60.29075 46.1455067,60.1795 46.2190583,60.05825 C46.5263543,59.5845 46.8068475,59.0495 47.050565,58.47075 C47.5373767,57.313875 47.8752152,55.988875 48.0329148,54.638875 C48.1126996,53.967 48.150722,53.285125 48.1500987,52.61075 C48.1544619,51.938875 48.1070897,51.278875 48.0341614,50.6445 C47.886435,49.375125 47.5878655,48.21325 47.2263408,47.2645 C47.0493184,46.787625 46.8479865,46.368875 46.6591211,46.0045 C46.4665157,45.642 46.2745336,45.342 46.1106009,45.0995 C45.9429283,44.872625 45.813278,44.692 45.6985874,44.56575 C45.5926233,44.440125 45.5365247,44.37325 45.5365247,44.37325 C45.4025112,44.21575 45.4218341,43.978875 45.5795336,43.8445 C45.7347399,43.712625 45.9666143,43.730125 46.1012511,43.882" id="Fill-91" fill="#42457B"></path>
                    <path d="M44.7964587,51.6785625 C44.7964587,54.0591875 43.5716381,55.9885625 42.060091,55.9885625 C40.5485439,55.9885625 39.3237233,54.0591875 39.3237233,51.6785625 C39.3237233,49.2979375 40.5485439,47.3685625 42.060091,47.3685625 C43.5716381,47.3685625 44.7964587,49.2979375 44.7964587,51.6785625" id="Fill-93" fill="#D2D4DF"></path>
                    <path d="M44.4224677,51.6785625 C44.4224677,51.6785625 44.4187278,51.5960625 44.411248,51.4410625 C44.4081314,51.2854375 44.3850686,51.0591875 44.3433063,50.7741875 C44.297804,50.4898125 44.2223825,50.1479375 44.0927323,49.7735625 C43.9568489,49.4041875 43.7698534,48.9948125 43.4744004,48.6354375 C43.1920372,48.2879375 42.768804,47.9585625 42.3723735,47.8979375 C41.8949117,47.7985625 41.4691852,47.9729375 41.0808578,48.3360625 C40.7025036,48.7054375 40.4182704,49.2416875 40.2181852,49.8179375 C40.1309206,50.1129375 40.0480193,50.4148125 40.0106202,50.7291875 C39.9819475,50.8879375 39.9763377,51.0348125 39.9620013,51.1854375 C39.9489117,51.3273125 39.9520283,51.5491875 39.9470417,51.6785625 C39.9414318,52.3154375 40.0311897,52.9529375 40.2181852,53.5391875 C40.4182704,54.1154375 40.7025036,54.6516875 41.0808578,55.0204375 C41.2684767,55.1998125 41.4847682,55.3379375 41.6892166,55.4129375 C41.7328489,55.4248125 41.7752345,55.4398125 41.8182435,55.4579375 L42.0476247,55.4841875 C42.1074632,55.4835625 42.2551897,55.4929375 42.3511807,55.4635625 C42.7893735,55.3941875 43.1826874,55.0710625 43.4744004,54.7216875 C43.7698534,54.3623125 43.9568489,53.9529375 44.0927323,53.5835625 C44.2223825,53.2091875 44.297804,52.8673125 44.3433063,52.5829375 C44.3844453,52.3004375 44.4075081,52.0916875 44.411248,51.9179375 C44.4187278,51.7541875 44.4224677,51.6666875 44.4224677,51.6666875 L44.4224677,51.6785625 Z M45.1704498,51.6904375 C45.1704498,51.6904375 45.1685798,51.7785625 45.1654632,51.9423125 C45.1667099,52.0973125 45.1486336,52.3698125 45.1081179,52.6941875 C45.0183601,53.3335625 44.8276247,54.2710625 44.1581807,55.2423125 C43.8159789,55.7066875 43.3198175,56.2204375 42.5687188,56.4116875 C42.3761135,56.4673125 42.2134274,56.4816875 41.9684632,56.4848125 L41.7340955,56.4729375 C41.6256381,56.4548125 41.5153108,56.4329375 41.4056067,56.4079375 C41.0060596,56.2966875 40.6601179,56.0954375 40.3546919,55.8435625 C39.7494498,55.3329375 39.3517726,54.6485625 39.0912256,53.9298125 C38.8387816,53.2079375 38.7128713,52.4429375 38.7004049,51.6785625 C38.7116247,51.4579375 38.710378,51.3285625 38.7303242,51.1216875 C38.751517,50.9241875 38.7683466,50.7216875 38.8057457,50.5373125 C38.863091,50.1591875 38.9709251,49.7891875 39.0912256,49.4273125 C39.3517726,48.7085625 39.7494498,48.0241875 40.3546919,47.5135625 C40.6576247,47.2623125 41.0116695,47.0585625 41.3999969,46.9510625 C41.7926874,46.8366875 42.200961,46.8548125 42.547526,46.9410625 C42.9601628,47.0410625 43.2500058,47.2166875 43.5161628,47.4304375 C43.7823197,47.6360625 43.9817816,47.8791875 44.1581807,48.1148125 C44.8276247,49.0860625 45.0183601,50.0235625 45.1081179,50.6629375 C45.147387,50.9848125 45.1654632,51.2398125 45.1654632,51.4129375 C45.1685798,51.5860625 45.1704498,51.6785625 45.1704498,51.6785625 L45.1704498,51.6904375 Z" id="Fill-95" fill="#42457B"></path>
                    <path d="M112.353077,31.5826875 L112.353077,31.5826875 C111.855045,31.5826875 111.448018,31.1745625 111.448018,30.6751875 L111.448018,30.6751875 C111.448018,30.1758125 111.855045,29.7676875 112.353077,29.7676875 C112.851108,29.7676875 113.258135,30.1758125 113.258135,30.6751875 L113.258135,30.6751875 C113.258135,31.1745625 112.851108,31.5826875 112.353077,31.5826875" id="Fill-97" fill="#42457B"></path>
                    <path d="M105.308706,31.5826875 L105.308706,31.5826875 C104.810675,31.5826875 104.403648,31.1745625 104.403648,30.6751875 L104.403648,30.6751875 C104.403648,30.1758125 104.810675,29.7676875 105.308706,29.7676875 C105.806738,29.7676875 106.213765,30.1758125 106.213765,30.6751875 L106.213765,30.6751875 C106.213765,31.1745625 105.806738,31.5826875 105.308706,31.5826875" id="Fill-99" fill="#42457B"></path>
                    <path d="M105.797014,36.2584375 C105.80948,36.2621875 105.865579,36.2834375 106.028265,36.3253125 C106.187211,36.3646875 106.423449,36.4121875 106.713292,36.4540625 C107.294225,36.5315625 108.092696,36.5653125 108.893036,36.4934375 C109.693377,36.4253125 110.491225,36.2690625 111.079014,36.1065625 C111.375713,36.0365625 111.616314,35.9503125 111.787104,35.9003125 C111.957893,35.8471875 112.05513,35.8165625 112.05513,35.8165625 L112.067597,35.8128125 C112.20348,35.7709375 112.346843,35.8465625 112.389229,35.9828125 C112.428498,36.1109375 112.362426,36.2471875 112.240879,36.2971875 C112.240879,36.2971875 112.143018,36.3371875 111.972229,36.4071875 C111.800193,36.4740625 111.558969,36.5840625 111.25666,36.6834375 C110.661391,36.9046875 109.841104,37.1409375 108.995261,37.2871875 C108.150664,37.4365625 107.282382,37.4771875 106.624157,37.4459375 C106.295045,37.4271875 106.018292,37.3965625 105.821323,37.3653125 C105.628718,37.3340625 105.485355,37.2978125 105.497821,37.3009375 C105.210471,37.2184375 105.044669,36.9178125 105.12757,36.6296875 C105.209848,36.3415625 105.509664,36.1753125 105.797014,36.2584375" id="Fill-101" fill="#D2D4DF"></path>
                    <path d="M105.696223,35.8384375 C105.696223,35.8384375 106.081434,35.8884375 106.684806,35.9315625 C107.283815,35.9765625 108.087896,36.0128125 108.891977,36.0096875 C109.696681,36.0096875 110.500761,35.9684375 111.10164,35.9140625 C111.703766,35.8640625 112.102066,35.8040625 112.102066,35.8040625 C112.242313,35.7828125 112.37321,35.8796875 112.394403,36.0203125 C112.414349,36.1528125 112.328954,36.2771875 112.201174,36.3090625 L112.194317,36.3103125 C112.194317,36.3103125 111.792277,36.4078125 111.181425,36.5128125 C110.571196,36.6228125 109.752156,36.7371875 108.928752,36.8090625 C108.105349,36.8840625 107.278205,36.7640625 106.656134,36.7715625 C106.037178,36.7815625 105.609582,36.6084375 105.609582,36.6084375 L105.605219,36.6084375 C105.306649,36.6084375 105.073528,36.4996875 105.085995,36.1996875 C105.097838,35.9003125 105.349658,35.7446875 105.648851,35.7565625 C105.664434,35.7571875 105.68064,35.8365625 105.696223,35.8384375" id="Fill-103" fill="#42457B"></path>
                </g>
            </g>
        </g>
    </g>
</svg>