<?xml version="1.0" encoding="UTF-8"?>
<svg width="190px" height="126px" viewBox="0 0 190 126" version="1.1" xmlns="http://www.w3.org/2000/svg" xmlns:xlink="http://www.w3.org/1999/xlink">
    <!-- Generator: Sketch 46.2 (44496) - http://www.bohemiancoding.com/sketch -->
    <title>enterprise-hover</title>
    <desc>Created with Sketch.</desc>
    <defs>
        <polygon id="path-1" points="133.900781 1.26213592 0.53687776 1.26213592 0.53687776 0.00536407767 133.900781 0.00536407767"></polygon>
    </defs>
    <g id="Components" stroke="none" stroke-width="1" fill="none" fill-rule="evenodd">
        <g id="enterprise-hover">
            <g id="Group-23" transform="translate(39.000000, 29.000000)">
                <g id="Group-2">
                    <g id="Elements/Pattern/Cross" opacity="0.96" transform="translate(2.258882, 42.258882) rotate(-8.000000) translate(-2.258882, -42.258882) translate(0.258882, 40.258882)" stroke="#03CAFF" stroke-width="2" stroke-linecap="round">
                        <path d="M0.213541667,0.184027778 L3.6055156,3.57600171" id="Path-2"></path>
                        <path d="M0.213541667,0.184027778 L3.6055156,3.57600171" id="Path-2" transform="translate(1.909529, 1.880015) scale(-1, 1) translate(-1.909529, -1.880015) "></path>
                    </g>
                    <g id="Elements/Pattern/Cross" opacity="0.92" transform="translate(41.430513, 3.430513) rotate(-301.000000) translate(-41.430513, -3.430513) translate(38.930513, 0.930513)" stroke="#03CAFF" stroke-width="2" stroke-linecap="round">
                        <path d="M0.266927083,0.230034722 L4.50689449,4.47000213" id="Path-2"></path>
                        <path d="M0.266927083,0.230034722 L4.50689449,4.47000213" id="Path-2" transform="translate(2.386911, 2.350018) scale(-1, 1) translate(-2.386911, -2.350018) "></path>
                    </g>
                    <g id="Elements/Pattern/Cross" opacity="0.91" transform="translate(110.500000, 23.500000) rotate(-142.000000) translate(-110.500000, -23.500000) translate(109.000000, 22.000000)" stroke="#03CAFF" stroke-width="2" stroke-linecap="round">
                        <path d="M0.16015625,0.138020833 L2.7041367,2.68200128" id="Path-2"></path>
                        <path d="M0.16015625,0.138020833 L2.7041367,2.68200128" id="Path-2" transform="translate(1.432146, 1.410011) scale(-1, 1) translate(-1.432146, -1.410011) "></path>
                    </g>
                    <g id="Elements/Pattern/Circle" transform="translate(98.000000, 61.000000) rotate(-276.000000) translate(-98.000000, -61.000000) translate(97.000000, 60.000000)" fill="#03CAFF">
                        <circle id="Oval-2" cx="1" cy="1" r="1"></circle>
                    </g>
                </g>
            </g>
            <g id="Elements/Pattern/Circle" transform="translate(117.099050, 31.099050) rotate(-276.000000) translate(-117.099050, -31.099050) translate(116.099050, 30.099050)" fill="#03CAFF">
                <circle id="Oval-2" cx="1" cy="1" r="1"></circle>
            </g>
            <g id="Page-1" transform="translate(24.000000, 44.000000)">
                <path d="M78.5820427,53.0626553 C78.5820427,58.8053738 75.8303982,63.4626553 72.4413316,63.4626553 L68.6546649,63.4626553 C65.2592871,63.4626553 62.5139538,58.8053738 62.5139538,53.0626553 C62.5139538,47.3136262 65.2592871,42.6563447 68.6546649,42.6563447 L72.4413316,42.6563447 C75.8303982,42.6563447 78.5820427,47.3136262 78.5820427,53.0626553" id="Fill-1" fill="#998675"></path>
                <path d="M78.2034391,53.0626553 C78.2034391,53.0626553 78.1952347,52.8316845 78.180088,52.3994029 C78.1769324,52.1823155 78.163048,51.9160049 78.1270747,51.6042573 C78.0999369,51.2918786 78.0677502,50.932801 77.9964347,50.5358592 C77.8815724,49.7388204 77.6638391,48.7795971 77.2775991,47.7339175 C76.8818924,46.7027524 76.3353502,45.5359078 75.4076169,44.5766845 C74.9614213,44.0838204 74.3984702,43.6780437 73.7743013,43.4136262 C73.1791636,43.1447913 72.4805236,43.1157621 71.6411458,43.1473155 C70.830168,43.1574126 69.9971013,43.1681408 69.1451013,43.1788689 C68.6951191,43.1813932 68.3372791,43.1940146 67.9762836,43.2785777 C67.6140258,43.3631408 67.2580791,43.5089175 66.9261147,43.7146456 C65.5786924,44.5394515 64.6263458,46.0962961 64.0236347,47.7433835 C63.7087102,48.5713447 63.5067547,49.4529466 63.3571813,50.3427524 C63.1987724,51.2426553 63.1640613,52.1065874 63.145128,53.0752767 C63.1533324,54.8555194 63.4057769,56.7140146 64.0211102,58.370568 C64.6231902,60.0182864 65.5755369,61.5745 66.9216969,62.401199 C67.2505058,62.6088204 67.6215991,62.7545971 67.939048,62.8328495 C68.0785236,62.8991117 68.3435902,62.8915388 68.5430213,62.921199 L68.6231724,62.9287718 L68.6635636,62.9325583 L68.683128,62.9344515 C68.6698747,62.9344515 68.7418213,62.9382379 68.6585147,62.9344515 L68.819448,62.9363447 L69.1394213,62.9401311 C69.9914213,62.9508592 70.824488,62.9609563 71.6354658,62.9710534 C72.4893591,62.9981893 73.1299369,62.9849369 73.7698836,62.707267 C74.3946836,62.4447427 74.9570036,62.038335 75.4038302,61.5461019 C76.3328258,60.5887718 76.8799991,59.4219272 77.2763369,58.3907621 C77.663208,57.3457136 77.8809413,56.3858592 77.9958036,55.5888204 C78.0677502,55.1906165 78.0993058,54.8359563 78.1264436,54.5273641 C78.1624169,54.2225583 78.1769324,53.9530922 78.180088,53.7290631 C78.1952347,53.2873155 78.2034391,53.0512961 78.2034391,53.0512961 L78.2034391,53.0626553 Z M78.9607724,53.0740146 C78.9607724,53.0740146 78.9544613,53.310034 78.9437324,53.7524126 C78.9424702,53.9707621 78.9311102,54.2459078 78.8970302,54.5797427 C78.8711547,54.9104223 78.8402302,55.2909563 78.7695458,55.706199 C78.6565769,56.5429951 78.4388436,57.553966 78.038088,58.6703252 C77.6259724,59.7759563 77.0529236,61.0210534 76.0393591,62.1393058 C75.5477236,62.7047427 74.9033591,63.2102282 74.1327724,63.5573155 L73.8418302,63.6866845 L73.5294302,63.7744029 C73.3192702,63.8337233 73.1084791,63.8936748 72.8844347,63.9025097 C72.4186747,63.961199 72.0463191,63.9441602 71.6354658,63.9536262 C70.824488,63.9637233 69.9914213,63.9744515 69.1394213,63.9851796 L68.819448,63.988966 L68.6585147,63.9908592 L68.4527724,63.9776068 C68.2268347,63.9504709 68.0494924,63.9744515 67.7736969,63.8968301 C67.2429324,63.7901796 66.7885324,63.6065388 66.3612702,63.3585291 C64.6351813,62.3481893 63.5660791,60.5912961 62.889528,58.7908592 C62.1978302,56.9613932 61.9100436,55.0265388 61.8835369,53.0380437 C61.9081502,52.121733 61.9599013,51.0930922 62.1391369,50.1408107 C62.3095369,49.1809563 62.5379991,48.2299369 62.8920524,47.3230922 C63.5698658,45.5226553 64.638968,43.7651311 66.3669502,42.7566845 C66.7923191,42.5086748 67.2624969,42.3262961 67.7478213,42.2259563 C68.2337769,42.1237233 68.7468702,42.1262476 69.1451013,42.1338204 C69.9971013,42.1445485 70.830168,42.1546456 71.6411458,42.1647427 C72.4161502,42.1571699 73.3363102,42.1824126 74.1390836,42.5648398 C74.908408,42.9131893 75.5527724,43.4180437 76.0431458,43.9847427 C77.0548169,45.1042573 77.6284969,46.3487233 78.0393502,47.4549854 C78.4394747,48.5713447 78.657208,49.5823155 78.7701769,50.4191117 C78.8402302,50.8362476 78.8705236,51.2123641 78.8963991,51.5392573 C78.9304791,51.8655194 78.9418391,52.1438204 78.9437324,52.3703738 C78.9544613,52.8215874 78.9607724,53.0626553 78.9607724,53.0626553 L78.9607724,53.0740146 Z" id="Fill-3" fill="#42457B"></path>
                <path d="M72.23256,44.0303689 C72.23256,44.0303689 72.2912533,44.0966311 72.4010667,44.2209515 C72.51088,44.3358058 72.6724444,44.542165 72.8762933,44.8072136 C73.0637333,45.0703689 73.28336,45.396 73.5017244,45.7872621 C73.7181956,46.1791553 73.9466578,46.6297379 74.1498756,47.1390097 C74.5632533,48.153767 74.9109956,49.3893981 75.0984356,50.7398835 C75.1924711,51.4144951 75.2581067,52.1168738 75.2694667,52.8318738 C75.2865067,53.5430874 75.2618933,54.2707087 75.1924711,55.0002233 C75.0548889,56.4504175 74.7241867,57.8892524 74.2142489,59.1778932 C73.95928,59.8222136 73.6588711,60.4280388 73.3193333,60.977068 C73.23792,61.1159029 73.1457778,61.247165 73.0574222,61.377165 C73.0094578,61.4446893 72.9760089,61.5014854 72.9179467,61.5765825 L72.7879378,61.7494951 C72.5992356,61.9930874 72.39728,62.2297379 72.1972178,62.4316796 C71.3969689,63.271 70.4673422,63.7506117 69.7737511,63.9329903 C69.4285333,64.032699 69.14264,64.0617282 68.9501511,64.0806602 C68.7564,64.0894951 68.6528978,64.0939126 68.6528978,64.0939126 C68.3051556,64.1103204 68.0097956,63.8408544 67.9933867,63.4925049 C67.9776089,63.1447864 68.2470933,62.8494466 68.5954667,62.8336699 C68.5986222,62.8330388 68.6024089,62.8330388 68.6061956,62.8330388 L68.6528978,62.8317767 C68.6528978,62.8317767 68.7261067,62.8298835 68.8636889,62.8267282 C69.00064,62.8153689 69.2032267,62.8014854 69.45504,62.7345922 C69.9555111,62.612165 70.67056,62.2827476 71.3584711,61.5961456 C71.5358133,61.4251262 71.6973778,61.2433786 71.8646222,61.0395437 L71.9977867,60.8697864 C72.0312356,60.8306602 72.0754133,60.7631359 72.1139111,60.7107573 C72.1940622,60.5984272 72.2773689,60.4860971 72.35184,60.3636699 C72.6629778,59.8853204 72.9469778,59.3451262 73.1937422,58.7607573 C73.68664,57.5926505 74.0287022,56.2547864 74.1883733,54.8916796 C74.2691556,54.2132816 74.3076533,53.5247864 74.3070222,52.8438641 C74.31144,52.165466 74.2634756,51.4990583 74.1896356,50.8585243 C74.0400622,49.5768252 73.73776,48.4036699 73.3717156,47.4457087 C73.19248,46.9642039 72.9886311,46.5413883 72.7974044,46.1734757 C72.6023911,45.8074563 72.4080089,45.5045437 72.2420267,45.2596893 C72.0722578,45.0306117 71.9409867,44.848233 71.8248622,44.7207573 C71.7175733,44.5939126 71.6607733,44.5263883 71.6607733,44.5263883 C71.5250844,44.3673592 71.5446489,44.1281845 71.70432,43.9925049 C71.8614667,43.8593495 72.09624,43.8770194 72.23256,44.0303689" id="Fill-5" fill="#42457B"></path>
                <path d="M70.9114551,51.9026262 C70.9114551,54.3063641 69.6713218,56.2544709 68.1408773,56.2544709 C66.6104329,56.2544709 65.3702996,54.3063641 65.3702996,51.9026262 C65.3702996,49.4988883 66.6104329,47.5507816 68.1408773,47.5507816 C69.6713218,47.5507816 70.9114551,49.4988883 70.9114551,51.9026262" id="Fill-7" fill="#D2D4DF"></path>
                <path d="M70.5327253,51.9026262 C70.5327253,51.9026262 70.5289387,51.8193252 70.5213653,51.6628204 C70.5182098,51.5056845 70.4948587,51.2772379 70.4525742,50.9894709 C70.4065031,50.702335 70.3301387,50.3571408 70.1988676,49.9791311 C70.0612853,49.6061699 69.871952,49.1928204 69.5728053,48.8299563 C69.286912,48.4790825 68.8583876,48.1465097 68.4570009,48.0852961 C67.9735698,47.9849563 67.5425209,48.1610243 67.1493387,48.5276748 C66.7662542,48.9006359 66.4784676,49.4420922 66.2758809,50.0239369 C66.1875253,50.321801 66.1035876,50.6266068 66.0657209,50.944034 C66.0366898,51.1043252 66.0310098,51.2526262 66.0164942,51.4047136 C66.0032409,51.547966 66.0063964,51.7719951 66.0013476,51.9026262 C65.9956676,52.5456845 66.0865476,53.1893738 66.2758809,53.7813155 C66.4784676,54.3631602 66.7662542,54.9046165 67.1493387,55.2769466 C67.3393031,55.4580631 67.5582987,55.5975291 67.7653031,55.6732573 C67.8094809,55.6852476 67.8523964,55.7003932 67.8959431,55.7186942 L68.128192,55.745199 C68.1887787,55.744568 68.338352,55.754034 68.4355431,55.7243738 C68.8792142,55.6543252 69.2774453,55.3280631 69.5728053,54.9752961 C69.871952,54.612432 70.0612853,54.1990825 70.1988676,53.8261214 C70.3301387,53.4481117 70.4065031,53.1029175 70.4525742,52.8157816 C70.4942276,52.5305388 70.5175787,52.3197621 70.5213653,52.1443252 C70.5289387,51.9789854 70.5327253,51.8906359 70.5327253,51.8906359 L70.5327253,51.9026262 Z M71.2900587,51.9146165 C71.2900587,51.9146165 71.2881653,52.0035971 71.2850098,52.1689369 C71.286272,52.3254417 71.2679698,52.6005874 71.2269476,52.9281117 C71.1360676,53.5736942 70.9429476,54.5202961 70.2651342,55.5009757 C69.9186542,55.9698592 69.4162898,56.4885971 68.6558009,56.6817039 C68.4607876,56.7378689 68.2960676,56.7523835 68.0480409,56.7555388 L67.8107431,56.7435485 C67.7009298,56.7252476 67.5892231,56.7031602 67.4781476,56.6779175 C67.0736053,56.5655874 66.7233387,56.3623835 66.4140942,56.1080631 C65.8012853,55.5924806 65.3986364,54.9014612 65.134832,54.175733 C64.879232,53.4468495 64.7517476,52.6744223 64.7391253,51.9026262 C64.7504853,51.6798592 64.7492231,51.5492282 64.7694187,51.3403447 C64.7908764,51.1409272 64.8079164,50.9364612 64.8457831,50.7502961 C64.9038453,50.3685 65.0130276,49.9949078 65.134832,49.6295194 C65.3986364,48.9037913 65.8012853,48.2127718 66.4140942,47.6971893 C66.7208142,47.4435 67.0792853,47.2377718 67.4724676,47.1292282 C67.8700676,47.0137427 68.2834453,47.0320437 68.6343431,47.1191311 C69.0521387,47.2201019 69.3456053,47.397432 69.6150898,47.6132573 C69.8845742,47.8208786 70.0865298,48.0663641 70.2651342,48.3042767 C70.9429476,49.2849563 71.1360676,50.2315583 71.2269476,50.8771408 C71.2667076,51.2021408 71.2850098,51.4596165 71.2850098,51.6344223 C71.2881653,51.8092282 71.2900587,51.9026262 71.2900587,51.9026262 L71.2900587,51.9146165 Z" id="Fill-9" fill="#42457B"></path>
                <path d="M76.267632,11.1825243 L76.9334542,52.6708252 L125.883063,54.2257767 L125.883063,34.0215049 C125.883063,34.0215049 125.65397,19.2822816 117.115668,13.7856796 C108.577365,8.2884466 76.267632,11.1825243 76.267632,11.1825243" id="Fill-11" fill="#FFFFFF"></path>
                <path d="M76.267632,11.1825243 L76.9334542,52.6708252 L125.883063,54.2257767 L125.883063,34.0215049 C125.883063,34.0215049 125.65397,19.2822816 117.115668,13.7856796 C108.577365,8.2884466 76.267632,11.1825243 76.267632,11.1825243 Z" id="Stroke-13" stroke="#42457B" stroke-width="1.26213592" stroke-linecap="round" stroke-linejoin="round"></path>
                <path d="M72.3536071,0.85642233 L72.9083538,44.2688495 C72.9102471,44.3994806 72.8054827,44.5067621 72.6748427,44.5086553 C72.5454649,44.5099175 72.4394382,44.4076845 72.4356516,44.2789466 L71.0913849,0.88418932 C71.080656,0.535839806 71.3545582,0.244286408 71.7029316,0.233558252 C72.0513049,0.222830097 72.3428782,0.496713592 72.3536071,0.845063107 C72.3536071,0.847587379 72.3536071,0.853898058 72.3536071,0.85642233" id="Fill-15" fill="#42457B"></path>
                <path d="M125.877004,34.0216311 C125.877004,34.0216311 125.647911,19.2824078 117.109609,13.7851748 C116.185031,13.1900777 114.980871,12.6934272 113.570338,12.2807087 L113.570338,4.0736699 C113.570338,4.0736699 84.3038222,-0.431524272 72.8788178,0.644446602 C58.9596622,1.95580583 21.1277067,2.71119417 23.3044089,4.59556311 C26.6581333,7.49973786 26.8272711,52.4475534 26.8272711,52.4475534 L72.4269422,52.4677476 L76.9273956,52.6709515 L83.31992,52.9593495 L113.570338,54.3243495 L113.570338,53.8598835 L125.877004,54.2259029 L125.877004,34.0216311 Z" id="Fill-17" fill="#C9B697"></path>
                <path d="M27.193,52.067966 L70.2196311,51.9619466 C71.1341111,51.9701505 72.0056756,51.9348107 72.9542356,51.9783544 L75.6635956,52.0925777 L81.0829467,52.3216553 L91.9216489,52.7791796 L113.599053,53.6942282 L112.939542,54.324034 L112.939542,54.3234029 L113.191987,4.07398544 L113.512591,4.44820874 L113.51196,4.44820874 C106.052227,3.3577233 98.5603067,2.42374272 91.0557644,1.72767476 C87.3031778,1.3900534 83.5436489,1.10481068 79.7866444,0.998160194 C77.9122444,0.947674757 76.0226978,0.939470874 74.1760667,1.04170388 C72.3168133,1.16791748 70.4152756,1.37932524 68.5383511,1.51752913 C61.0066711,2.12335437 53.4730978,2.62126699 45.9388933,3.11602427 L34.6375867,3.84112136 L28.9872489,4.20019903 L26.1636578,4.38257767 L24.7537556,4.47723786 L23.3880311,4.58010194 L23.8708311,3.68587864 L23.8714622,3.68650971 C24.3252311,4.78078155 24.4640756,5.77029612 24.6534089,6.79578155 C24.8193911,7.81243204 24.9512933,8.82655825 25.06868,9.84068447 C25.3021911,11.8683058 25.4795333,13.8959272 25.63668,15.9235485 C25.9471867,19.9787913 26.1743867,24.034665 26.3712933,28.0911699 C26.7505911,36.0817524 27.0093467,44.072335 27.193,52.067966 M26.44892,52.457335 C26.1813289,44.3500049 25.8316933,36.2414126 25.3627778,28.1448107 C25.1242178,24.0971408 24.8559956,20.050733 24.5044667,16.0169466 C24.3271244,14.0000534 24.1295867,11.9856845 23.8784044,9.98456796 C23.7515511,8.98432524 23.6114444,7.98723786 23.4397822,7.00277184 C23.2618089,6.0385 23.0686889,5.00417961 22.7297822,4.22481068 L22.7291511,4.22417961 L22.7045378,4.16233495 C22.5783156,3.85184951 22.72852,3.49782039 23.0390267,3.37223786 C23.0951956,3.34951942 23.1551511,3.33563592 23.2125822,3.32995631 C23.7282,3.28388835 24.2021644,3.25485922 24.6698178,3.2258301 L26.0854,3.13874272 L28.9121467,2.97150971 L34.5650089,2.64398544 L45.8682089,1.98262621 C53.4017822,1.52951942 60.9372489,1.07388835 68.4582,0.510975728 C70.3464844,0.382868932 72.1987956,0.185975728 74.1066444,0.0654417476 C76.02964,-0.0298495146 77.9172933,-0.00902427184 79.8156756,0.0521893204 C83.6048667,0.180927184 87.3751244,0.488257282 91.13844,0.847966019 C98.6631778,1.58883981 106.153836,2.56447087 113.626822,3.69976214 L113.628084,3.69976214 C113.814262,3.72752913 113.948058,3.88718932 113.94932,4.07019903 L113.94932,4.07398544 L114.201764,54.3234029 L114.201764,54.324034 C114.202396,54.6717524 113.921551,54.9544709 113.573809,54.955733 C113.564342,54.955733 113.551089,54.9551019 113.541622,54.9551019 L91.8705289,53.9138398 L81.0349822,53.3932087 L75.6168933,53.1332087 L72.9081644,53.0032087 C72.0511156,52.9558786 71.1132844,52.9849078 70.2196311,52.9716553 L26.8269556,52.8258786 C26.6218444,52.8252476 26.4558622,52.6605388 26.44892,52.457335" id="Fill-19" fill="#42457B"></path>
                <path d="M76.261384,11.1825243 L76.9272062,52.6708252 L125.876815,54.2257767 L125.876815,34.0215049 C125.876815,34.0215049 125.647722,19.2822816 117.10942,13.7856796 C108.571117,8.2884466 76.261384,11.1825243 76.261384,11.1825243" id="Fill-21" fill="#FFFFFF"></path>
                <path d="M76.2050889,10.5539806 C79.7285822,10.2599029 83.2413467,10.0623786 86.7661022,9.93174757 C90.2889644,9.80616505 93.8162444,9.75315534 97.34668,9.82194175 C100.875853,9.8976699 104.410707,10.0705825 107.9342,10.5293689 C109.695,10.762233 111.454538,11.058835 113.19388,11.5226699 C114.923124,11.9871359 116.695284,12.6466019 118.187862,13.7686408 C119.662138,14.876165 120.908582,16.2563107 121.901951,17.7759223 C122.911729,19.2885922 123.682947,20.9337864 124.310902,22.6149515 C125.547249,25.9924272 126.214333,29.5251456 126.465516,33.0900485 L126.500227,33.7646602 C126.511587,33.9994175 126.507169,34.236699 126.508431,34.4474757 L126.508431,35.7657767 L126.508431,38.4023786 L126.508431,43.6755825 L126.508431,54.2213592 L126.508431,54.2257767 L126.508431,54.2339806 C126.505907,54.5804369 126.223169,54.8593689 125.876689,54.8574757 L125.857124,54.8568447 L76.9195067,52.9863592 L76.9176133,52.9863592 C76.7497378,52.9825728 76.6159422,52.8475243 76.6121556,52.6815534 L76.6115244,52.6758738 L75.6301467,11.1926214 C75.6225733,10.8600485 75.8781733,10.5817476 76.2050889,10.5539806 M76.8974178,11.7769903 L77.2426356,52.6657767 L76.9371778,52.3559223 L76.9390711,52.3559223 L125.896884,53.5953398 L125.246209,54.2257767 L125.246209,54.2213592 L125.246209,43.6755825 L125.246209,38.4023786 L125.246209,35.7657767 L125.246209,34.4474757 C125.244947,34.2190291 125.249364,34.0164563 125.239267,33.8126214 L125.205818,33.1701942 C124.964733,29.7283495 124.310902,26.2814563 123.127569,23.0535437 C122.526751,21.4455825 121.7934,19.8849515 120.849258,18.4726214 C119.920262,17.0514563 118.77164,15.7874272 117.434947,14.7815049 L116.921222,14.4230583 L116.792476,14.3334466 C116.808884,14.3384951 116.714849,14.2880097 116.6814,14.2684466 L116.394244,14.1062621 C116.007373,13.8677184 115.637542,13.7124757 115.269604,13.5528155 C114.51732,13.2290777 113.686778,12.9697087 112.866333,12.7418932 C111.207773,12.2988835 109.493044,12.0085922 107.770111,11.7807767 C104.319196,11.3308252 100.819684,11.1585437 97.3214356,11.0834466 C93.8212933,11.0159223 90.3154711,11.068301 86.8121733,11.1932524 C83.5038889,11.3156796 80.1911867,11.5119417 76.8974178,11.7769903" id="Fill-23" fill="#42457B"></path>
                <path d="M72.3473591,0.856359223 L72.9021058,44.2687864 C72.9039991,44.3994175 72.7992347,44.506699 72.6685947,44.5085922 C72.5392169,44.5098544 72.4331902,44.4076214 72.4294036,44.2788835 L71.0851369,0.884126214 C71.074408,0.535776699 71.3483102,0.244223301 71.6966836,0.233495146 C72.0450569,0.22276699 72.3366302,0.496650485 72.3473591,0.845 C72.3473591,0.847524272 72.3473591,0.853834951 72.3473591,0.856359223" id="Fill-25" fill="#42457B"></path>
                <path d="M122.357424,53.0626553 C122.357424,58.8053738 119.60578,63.4626553 116.216713,63.4626553 L112.430046,63.4626553 C109.034668,63.4626553 106.289335,58.8053738 106.289335,53.0626553 C106.289335,47.3136262 109.034668,42.6563447 112.430046,42.6563447 L116.216713,42.6563447 C119.60578,42.6563447 122.357424,47.3136262 122.357424,53.0626553" id="Fill-27" fill="#998675"></path>
                <path d="M122.357424,53.0626553 C122.357424,58.8053738 119.60578,63.4626553 116.216713,63.4626553 L112.430046,63.4626553 C109.034668,63.4626553 106.289335,58.8053738 106.289335,53.0626553 C106.289335,47.3136262 109.034668,42.6563447 112.430046,42.6563447 L116.216713,42.6563447 C119.60578,42.6563447 122.357424,47.3136262 122.357424,53.0626553 Z" id="Stroke-29" stroke="#42457B" stroke-width="1.26213592" stroke-linecap="round" stroke-linejoin="round"></path>
                <path d="M112.428405,42.6564078 C115.819365,42.6564078 118.567854,47.3143204 118.567854,53.0595631 C118.567854,58.8054369 115.819365,63.4627184 112.428405,63.4627184" id="Stroke-31" stroke="#42457B" stroke-width="1.26213592" stroke-linecap="round" stroke-linejoin="round"></path>
                <path d="M122.357424,53.0626553 C122.357424,58.8053738 119.60578,63.4626553 116.216713,63.4626553 L112.430046,63.4626553 C109.034668,63.4626553 106.289335,58.8053738 106.289335,53.0626553 C106.289335,47.3136262 109.034668,42.6563447 112.430046,42.6563447 L116.216713,42.6563447 C119.60578,42.6563447 122.357424,47.3136262 122.357424,53.0626553" id="Fill-33" fill="#998675"></path>
                <path d="M121.978757,53.0626553 C121.978757,53.0626553 121.970553,52.8316845 121.955406,52.3994029 C121.952251,52.1823155 121.938366,51.9160049 121.903024,51.6042573 C121.875255,51.2918786 121.843068,50.932801 121.771753,50.5358592 C121.656891,49.7388204 121.439157,48.7795971 121.052917,47.7339175 C120.657842,46.7027524 120.110668,45.5359078 119.182935,44.5766845 C118.737371,44.0838204 118.173788,43.6780437 117.550251,43.4136262 C116.954482,43.1447913 116.255842,43.1157621 115.417095,43.1473155 C114.605486,43.1574126 113.77242,43.1681408 112.921051,43.1788689 C112.470437,43.1813932 112.113228,43.1940146 111.752233,43.2785777 C111.389344,43.3631408 111.033397,43.5089175 110.701433,43.7146456 C109.354642,44.5394515 108.401664,46.0962961 107.798953,47.7433835 C107.484028,48.5713447 107.282073,49.4529466 107.1325,50.3427524 C106.974091,51.2426553 106.93938,52.1065874 106.920446,53.0752767 C106.929282,54.8555194 107.181095,56.7140146 107.79706,58.370568 C108.398508,60.0182864 109.350855,61.5745 110.697015,62.401199 C111.025824,62.6088204 111.396917,62.7545971 111.714366,62.8328495 C111.853842,62.8991117 112.118908,62.8915388 112.31834,62.921199 L112.398491,62.9287718 L112.438882,62.9325583 L112.459077,62.9344515 C112.445193,62.9344515 112.51714,62.9382379 112.433833,62.9344515 L112.594766,62.9363447 L112.91474,62.9401311 C113.76674,62.9508592 114.599806,62.9609563 115.410784,62.9710534 C116.265308,62.9981893 116.905255,62.9849369 117.545202,62.707267 C118.170002,62.4447427 118.732322,62.038335 119.179148,61.5461019 C120.108144,60.5887718 120.655317,59.4219272 121.051655,58.3907621 C121.438526,57.3457136 121.65626,56.3858592 121.771122,55.5888204 C121.843068,55.1906165 121.874624,54.8359563 121.902393,54.5273641 C121.937735,54.2225583 121.952251,53.9530922 121.955406,53.7290631 C121.970553,53.2873155 121.978757,53.0512961 121.978757,53.0512961 L121.978757,53.0626553 Z M122.736091,53.0740146 C122.736091,53.0740146 122.72978,53.310034 122.719051,53.7524126 C122.717788,53.9707621 122.706428,54.2459078 122.672348,54.5797427 C122.646473,54.9104223 122.615548,55.2909563 122.544864,55.706199 C122.431895,56.5429951 122.214162,57.553966 121.813406,58.6703252 C121.401291,59.7759563 120.828242,61.0210534 119.814677,62.1393058 C119.323042,62.7047427 118.678677,63.2102282 117.908722,63.5573155 L117.617148,63.6866845 L117.304748,63.7744029 C117.09522,63.8337233 116.883797,63.8936748 116.659753,63.9025097 C116.193993,63.961199 115.821637,63.9441602 115.410784,63.9536262 C114.599806,63.9637233 113.76674,63.9744515 112.91474,63.9851796 L112.594766,63.988966 L112.433833,63.9908592 L112.228091,63.9776068 C112.002153,63.9504709 111.824811,63.9744515 111.549646,63.8968301 C111.018882,63.7901796 110.563851,63.6065388 110.136588,63.3585291 C108.4105,62.3481893 107.341397,60.5912961 106.664846,58.7908592 C105.97378,56.9613932 105.685362,55.0265388 105.658855,53.0380437 C105.683468,52.121733 105.73522,51.0930922 105.914455,50.1408107 C106.084855,49.1809563 106.313317,48.2299369 106.667371,47.3230922 C107.345184,45.5226553 108.414286,43.7651311 110.142268,42.7566845 C110.567637,42.5086748 111.037815,42.3262961 111.52314,42.2259563 C112.009095,42.1237233 112.522188,42.1262476 112.921051,42.1338204 C113.77242,42.1445485 114.605486,42.1546456 115.417095,42.1647427 C116.191468,42.1571699 117.111628,42.1824126 117.914402,42.5648398 C118.683726,42.9131893 119.328091,43.4180437 119.819095,43.9847427 C120.830766,45.1042573 121.403815,46.3487233 121.814668,47.4549854 C122.214793,48.5713447 122.432526,49.5823155 122.545495,50.4191117 C122.61618,50.8362476 122.646473,51.2123641 122.671717,51.5392573 C122.705797,51.8655194 122.717788,52.1438204 122.719051,52.3703738 C122.730411,52.8215874 122.736091,53.0626553 122.736091,53.0626553 L122.736091,53.0740146 Z" id="Fill-35" fill="#42457B"></path>
                <path d="M116.007815,44.0303689 C116.007815,44.0303689 116.066508,44.0966311 116.176322,44.2209515 C116.286766,44.3358058 116.4477,44.542165 116.651548,44.8072136 C116.838988,45.0703689 117.058615,45.396 117.277611,45.7872621 C117.493451,46.1791553 117.721913,46.6297379 117.925131,47.1390097 C118.338508,48.153767 118.686251,49.3893981 118.874322,50.7398835 C118.967726,51.4144951 119.033362,52.1168738 119.044722,52.8318738 C119.061762,53.5430874 119.037148,54.2707087 118.967726,55.0002233 C118.830144,56.4504175 118.499442,57.8892524 117.989504,59.1778932 C117.734535,59.8222136 117.434126,60.4280388 117.094588,60.977068 C117.013175,61.1159029 116.921664,61.247165 116.832677,61.377165 C116.785344,61.4446893 116.751264,61.5014854 116.693202,61.5765825 L116.563824,61.7494951 C116.374491,61.9930874 116.172535,62.2297379 115.972473,62.4316796 C115.172224,63.271 114.242597,63.7506117 113.549637,63.9329903 C113.203788,64.032699 112.917895,64.0617282 112.726037,64.0806602 C112.531655,64.0894951 112.428153,64.0939126 112.428153,64.0939126 C112.080411,64.1103204 111.785051,63.8408544 111.769273,63.4925049 C111.752864,63.1447864 112.022348,62.8494466 112.370722,62.8336699 C112.373877,62.8330388 112.377664,62.8330388 112.381451,62.8330388 L112.428153,62.8317767 C112.428153,62.8317767 112.501993,62.8298835 112.638944,62.8267282 C112.775895,62.8153689 112.978482,62.8014854 113.230295,62.7345922 C113.730766,62.612165 114.445815,62.2827476 115.134357,61.5961456 C115.311068,61.4251262 115.472633,61.2433786 115.639877,61.0395437 L115.773673,60.8697864 C115.806491,60.8306602 115.850668,60.7631359 115.889166,60.7107573 C115.969317,60.5984272 116.052624,60.4860971 116.127095,60.3636699 C116.438233,59.8853204 116.722864,59.3451262 116.968997,58.7607573 C117.461895,57.5926505 117.803957,56.2547864 117.963628,54.8916796 C118.044411,54.2132816 118.082908,53.5247864 118.082277,52.8438641 C118.086695,52.165466 118.039362,51.4990583 117.964891,50.8585243 C117.815948,49.5768252 117.513015,48.4036699 117.146971,47.4457087 C116.967735,46.9642039 116.763886,46.5413883 116.57266,46.1734757 C116.378277,45.8074563 116.183264,45.5045437 116.017913,45.2596893 C115.848144,45.0306117 115.716242,44.848233 115.600117,44.7207573 C115.492828,44.5939126 115.436028,44.5263883 115.436028,44.5263883 C115.30034,44.3673592 115.319904,44.1281845 115.479575,43.9925049 C115.636722,43.8593495 115.871495,43.8770194 116.007815,44.0303689" id="Fill-37" fill="#42457B"></path>
                <path d="M114.686836,51.9026262 C114.686836,54.3063641 113.446703,56.2544709 111.916259,56.2544709 C110.385814,56.2544709 109.145681,54.3063641 109.145681,51.9026262 C109.145681,49.4988883 110.385814,47.5507816 111.916259,47.5507816 C113.446703,47.5507816 114.686836,49.4988883 114.686836,51.9026262" id="Fill-39" fill="#D2D4DF"></path>
                <path d="M114.30817,51.9026262 C114.30817,51.9026262 114.304383,51.8193252 114.29681,51.6628204 C114.293654,51.5056845 114.270303,51.2772379 114.228019,50.9894709 C114.181948,50.702335 114.105583,50.3571408 113.974312,49.9791311 C113.83673,49.6061699 113.647396,49.1928204 113.34825,48.8299563 C113.062356,48.4790825 112.633832,48.1465097 112.232445,48.0852961 C111.749014,47.9849563 111.317965,48.1610243 110.924783,48.5276748 C110.541699,48.9006359 110.253912,49.4420922 110.051325,50.0239369 C109.96297,50.321801 109.879032,50.6266068 109.840534,50.944034 C109.811503,51.1043252 109.806454,51.2526262 109.791939,51.4047136 C109.778685,51.547966 109.781841,51.7719951 109.776792,51.9026262 C109.771112,52.5456845 109.861992,53.1893738 110.051325,53.7813155 C110.253912,54.3631602 110.541699,54.9046165 110.924783,55.2769466 C111.114748,55.4580631 111.333743,55.5975291 111.540748,55.6732573 C111.584925,55.6852476 111.62721,55.7003932 111.671388,55.7186942 L111.903005,55.745199 C111.964223,55.744568 112.113796,55.754034 112.210988,55.7243738 C112.654659,55.6543252 113.05289,55.3280631 113.34825,54.9752961 C113.647396,54.612432 113.83673,54.1990825 113.974312,53.8261214 C114.105583,53.4481117 114.181948,53.1029175 114.228019,52.8157816 C114.269672,52.5305388 114.293023,52.3197621 114.29681,52.1443252 C114.304383,51.9789854 114.30817,51.8906359 114.30817,51.8906359 L114.30817,51.9026262 Z M115.065503,51.9146165 C115.065503,51.9146165 115.06361,52.0035971 115.060454,52.1689369 C115.061085,52.3254417 115.043414,52.6005874 115.002392,52.9281117 C114.911512,53.5736942 114.718392,54.5202961 114.040579,55.5009757 C113.694099,55.9698592 113.191734,56.4885971 112.431245,56.6817039 C112.236232,56.7378689 112.071512,56.7523835 111.823485,56.7555388 L111.586188,56.7435485 C111.476374,56.7252476 111.364668,56.7031602 111.253592,56.6779175 C110.84905,56.5655874 110.498783,56.3623835 110.189539,56.1080631 C109.57673,55.5924806 109.174081,54.9014612 108.910276,54.175733 C108.654676,53.4468495 108.527192,52.6744223 108.51457,51.9026262 C108.52593,51.6798592 108.524668,51.5492282 108.544863,51.3403447 C108.566321,51.1409272 108.583361,50.9364612 108.621228,50.7502961 C108.67929,50.3685 108.788472,49.9949078 108.910276,49.6295194 C109.174081,48.9037913 109.57673,48.2127718 110.189539,47.6971893 C110.496259,47.4435 110.85473,47.2377718 111.247912,47.1292282 C111.645512,47.0137427 112.05889,47.0320437 112.409788,47.1191311 C112.827583,47.2201019 113.12105,47.397432 113.390534,47.6132573 C113.660019,47.8208786 113.861974,48.0663641 114.040579,48.3042767 C114.718392,49.2849563 114.911512,50.2315583 115.002392,50.8771408 C115.042152,51.2021408 115.060454,51.4596165 115.060454,51.6344223 C115.06361,51.8092282 115.065503,51.9026262 115.065503,51.9026262 L115.065503,51.9146165 Z" id="Fill-41" fill="#42457B"></path>
                <path d="M114.686836,51.9026262 C114.686836,54.3063641 113.446703,56.2544709 111.916259,56.2544709 C110.385814,56.2544709 109.145681,54.3063641 109.145681,51.9026262 C109.145681,49.4988883 110.385814,47.5507816 111.916259,47.5507816 C113.446703,47.5507816 114.686836,49.4988883 114.686836,51.9026262" id="Fill-43" fill="#D2D4DF"></path>
                <path d="M114.686836,51.9026262 C114.686836,54.3063641 113.446703,56.2544709 111.916259,56.2544709 C110.385814,56.2544709 109.145681,54.3063641 109.145681,51.9026262 C109.145681,49.4988883 110.385814,47.5507816 111.916259,47.5507816 C113.446703,47.5507816 114.686836,49.4988883 114.686836,51.9026262 Z" id="Stroke-45" stroke="#42457B" stroke-width="1.26213592" stroke-linecap="round" stroke-linejoin="round"></path>
                <path d="M76.267632,11.1825243 L76.9334542,52.6708252 L125.883063,54.2257767 L125.883063,34.0215049 C125.883063,34.0215049 125.65397,19.2822816 117.115668,13.7856796 C108.577365,8.2884466 76.267632,11.1825243 76.267632,11.1825243" id="Fill-47" fill="#009BE8"></path>
                <path d="M76.8794942,52.7782961 L97.2486053,53.4478592 L97.2486053,33.9579563 C97.2486053,33.9579563 100.979103,19.3897524 93.1331298,13.8925194 C90.2817698,11.8945583 82.4168631,11.6124709 76.2679476,11.2899951" id="Fill-49" fill="#00B7F6"></path>
                <path d="M125.482118,41.1465146 L97.3055316,40.1992816 C97.3055316,40.1992816 97.8224116,27.082534 97.2581982,21.1807864 C97.1313449,19.8511262 98.2660827,18.7505437 99.5939404,18.8994757 C107.57434,19.7943301 122.357487,20.8999612 122.357487,20.8999612 C122.357487,20.8999612 127.569834,28.7870485 125.482118,41.1465146" id="Fill-51" fill="#FFFFFF"></path>
                <path d="M125.469433,41.524966 L97.2928462,40.577733 C97.0839484,40.5707913 96.9198596,40.3953544 96.9274329,40.1864709 L96.9274329,40.1845777 C97.0422951,36.3918592 97.1054062,32.591568 97.0782684,28.7988495 C97.0618596,26.9031214 97.0252551,25.0067621 96.9179662,23.1230243 C96.893984,22.6516165 96.8611662,22.1821019 96.8176196,21.7151117 L96.7879573,21.3648689 L96.7734418,21.161034 L96.7652373,20.9830728 C96.7677618,20.6725874 96.8163573,20.3703058 96.9160729,20.0989466 C97.1161351,19.5442379 97.5080551,19.0684126 98.0097884,18.7636068 C98.5058418,18.4556456 99.1331662,18.3338495 99.6904373,18.4020049 C103.467006,18.7957913 107.249886,19.1132184 111.037815,19.4186553 C114.825113,19.721568 118.615566,20.0042864 122.404757,20.2705971 C122.7525,20.2945777 123.015042,20.5955971 122.99106,20.9433155 C122.967708,21.291034 122.666668,21.5535583 122.318926,21.5302087 C122.317664,21.5302087 122.311353,21.5295777 122.310091,21.5295777 C118.517744,21.2203544 114.729815,20.8953544 110.940624,20.5501602 C107.153957,20.2024417 103.363504,19.842733 99.5818862,19.406034 C98.8352818,19.2918107 98.0848907,19.7392379 97.8349707,20.4346748 C97.768704,20.6094806 97.7447218,20.7823932 97.7352551,20.9464709 L97.7409351,21.124432 C97.7384107,21.1282184 97.7478773,21.2291893 97.7504018,21.2765194 L97.7769084,21.6362282 C97.8166684,22.1164709 97.8444373,22.5954515 97.8633707,23.0731699 C97.950464,24.9859369 97.9662418,26.8917621 97.961824,28.7969563 C97.9466773,32.6073447 97.8412818,36.4095291 97.6841351,40.2142379 L97.3187218,39.8210825 L125.494677,40.7683155 C125.704206,40.7752573 125.867664,40.9500631 125.860722,41.1595777 C125.85378,41.3684612 125.678331,41.5319078 125.469433,41.524966" id="Fill-53" fill="#42457B"></path>
                <path d="M76.2113369,10.5539806 C79.7348302,10.2599029 83.2475947,10.0623786 86.7723502,9.93174757 C90.2952124,9.80616505 93.8224924,9.75315534 97.352928,9.82194175 C100.882101,9.8976699 104.416955,10.0705825 107.940448,10.5293689 C109.701248,10.762233 111.460786,11.058835 113.200128,11.5226699 C114.929372,11.9871359 116.701532,12.6466019 118.19411,13.7686408 C119.668386,14.876165 120.91483,16.2563107 121.908199,17.7759223 C122.917977,19.2885922 123.689195,20.9337864 124.31715,22.6149515 C125.553497,25.9924272 126.220581,29.5251456 126.471132,33.0900485 L126.506475,33.7646602 C126.517835,33.9994175 126.513417,34.236699 126.514679,34.4474757 L126.514679,35.7657767 L126.514679,38.4023786 L126.514679,43.6755825 L126.514679,54.2213592 L126.514679,54.2257767 L126.514679,54.2327184 C126.512786,54.5791748 126.230048,54.8587379 125.882937,54.8568447 L125.863372,54.8568447 L76.9232302,53.049466 L76.9213369,53.049466 C76.7200124,53.0444175 76.5597102,52.8816019 76.5546613,52.6828155 L76.5546613,52.6771359 L75.6363947,11.1926214 C75.6294524,10.8600485 75.8844213,10.5817476 76.2113369,10.5539806 M76.904928,11.7769903 L77.3119947,52.6651456 L76.9453191,52.2928155 L76.9478436,52.2928155 L125.903132,53.5953398 L125.252457,54.2257767 L125.252457,54.2213592 L125.252457,43.6755825 L125.252457,38.4023786 L125.252457,35.7657767 L125.252457,34.4474757 C125.251195,34.2190291 125.255612,34.0164563 125.245515,33.8126214 L125.212066,33.1701942 C124.970981,29.7283495 124.31715,26.2814563 123.133817,23.0535437 C122.532999,21.4455825 121.799648,19.8849515 120.855506,18.4726214 C119.92651,17.0514563 118.777888,15.7874272 117.441195,14.7815049 L116.92747,14.4230583 L116.798724,14.3334466 C116.815132,14.3384951 116.721097,14.2880097 116.687648,14.2684466 L116.400492,14.1062621 C116.013621,13.8677184 115.64379,13.7124757 115.275852,13.5528155 C114.523568,13.2290777 113.693026,12.9697087 112.872581,12.7418932 C111.214021,12.2988835 109.499292,12.0085922 107.776359,11.7807767 C104.325444,11.3308252 100.825932,11.1585437 97.3276836,11.0834466 C93.8275413,11.0159223 90.3217191,11.068301 86.8184213,11.1932524 C83.5101369,11.3156796 80.1980658,11.5119417 76.904928,11.7769903" id="Fill-55" fill="#42457B"></path>
                <path d="M103.264735,26.969068 C103.264735,26.969068 103.453437,26.6554272 103.768993,26.2187282 C104.085811,25.7795049 104.553464,25.2254272 105.084228,24.7136311 C105.348664,24.4567864 105.637082,24.2188738 105.920451,24.0049417 C106.210131,23.7985825 106.49918,23.617466 106.768033,23.4925146 C107.04446,23.375767 107.281126,23.2905728 107.462886,23.2634369 C107.64086,23.2331456 107.742468,23.2154757 107.742468,23.2154757 C108.026468,23.1668835 108.296584,23.3580971 108.34518,23.6420777 C108.39062,23.9058641 108.229055,24.1576602 107.978504,24.2314951 L107.897722,24.2548447 C107.897722,24.2548447 107.827037,24.2756699 107.70334,24.3122718 C107.579011,24.332466 107.402931,24.406301 107.183935,24.471932 C107.077277,24.5205243 106.95926,24.5691165 106.832406,24.6170777 C106.708077,24.6795534 106.577437,24.7458155 106.441748,24.8133398 C106.17542,24.9673204 105.893313,25.1446505 105.623197,25.3484854 C105.078548,25.7498447 104.578077,26.226932 104.211402,26.5942136 C103.843464,26.9640194 103.623206,27.2259126 103.623206,27.2259126 C103.544948,27.3199417 103.404842,27.331932 103.311437,27.2530485 C103.226868,27.1817379 103.209197,27.0605728 103.264735,26.969068" id="Fill-57" fill="#42457B"></path>
                <path d="M120.044276,28.0234563 C120.044276,28.0234563 119.818969,27.7678738 119.442827,27.4069029 C119.069209,27.0490874 118.556747,26.5858835 118.002631,26.1971456 C117.727467,26.0002524 117.440942,25.8298641 117.170827,25.6821942 C117.033244,25.6178252 116.900711,25.5547184 116.774489,25.4953981 C116.645742,25.4499612 116.527093,25.4026311 116.417911,25.3578252 C116.19576,25.2972427 116.016524,25.2284563 115.889671,25.2126796 C115.76408,25.1817573 115.692133,25.1634563 115.692133,25.1634563 L115.615769,25.1445243 C115.346916,25.0782621 115.183458,24.8062718 115.249724,24.538068 C115.312204,24.2869029 115.556444,24.1278738 115.806996,24.1625825 C115.806996,24.1625825 115.908604,24.1770971 116.085947,24.2023398 C116.267707,24.223165 116.505636,24.2995243 116.785218,24.4049126 C117.057227,24.5191359 117.353218,24.6857379 117.650471,24.8794757 C117.942044,25.0814175 118.239298,25.3067087 118.513831,25.5515631 C119.065422,26.0400097 119.555796,26.5738932 119.892178,26.9986019 C120.226667,27.4214175 120.429253,27.7268544 120.429253,27.7268544 C120.504356,27.8391845 120.474062,27.9900097 120.362356,28.0651068 C120.259484,28.1332621 120.123796,28.113068 120.044276,28.0234563" id="Fill-59" fill="#42457B"></path>
                <path d="M104.063974,30.2476553 C104.055139,30.253966 104.179468,30.1637233 104.33977,30.0734806 C104.509539,29.975665 104.752516,29.8500825 105.056081,29.7301796 C105.358383,29.6102767 105.722534,29.4966845 106.122659,29.4247427 C106.32209,29.3875097 106.531619,29.3610049 106.744934,29.3502767 C106.967716,29.3382864 107.152632,29.3326068 107.413912,29.3591117 C107.570428,29.3711019 107.899868,29.4354709 108.09993,29.5288689 C108.318925,29.6159563 108.517725,29.7352282 108.68497,29.8696456 C109.026401,30.1340631 109.264961,30.4407621 109.439148,30.7114903 C109.612703,30.9828495 109.723148,31.2226553 109.794463,31.3943058 C109.865148,31.5653252 109.897334,31.6713447 109.899228,31.6776553 C109.957921,31.8461505 109.868303,32.0297913 109.699796,32.0878495 C109.531921,32.1459078 109.348268,32.0562961 109.290205,31.887801 C109.294623,31.906733 109.161459,31.5558592 108.834543,31.136199 C108.672348,30.9292087 108.458401,30.7095971 108.201539,30.5499369 C108.075948,30.467267 107.937103,30.4035291 107.793841,30.3637718 C107.636063,30.3195971 107.576739,30.3057136 107.343859,30.3012961 C107.216374,30.2987718 107.008739,30.3202282 106.85033,30.3479951 C106.681192,30.3738689 106.516472,30.4123641 106.359956,30.4590631 C106.046294,30.5493058 105.764188,30.6704709 105.533201,30.7903738 C105.302214,30.9109078 105.121085,31.0295485 105.002436,31.1153738 C104.874321,31.2081408 104.84529,31.2390631 104.836454,31.2460049 C104.560659,31.4593058 104.164321,31.4088204 103.951005,31.1330437 C103.73769,30.857267 103.788179,30.4609563 104.063974,30.2476553" id="Fill-61" fill="#42457B"></path>
                <path d="M112.774507,31.5966262 C112.774507,31.5966262 112.893156,31.2078883 113.227644,30.7061893 C113.396782,30.4569175 113.626507,30.1760922 113.943956,29.9331311 C114.101733,29.811966 114.2816,29.6990049 114.481662,29.6157039 C114.677938,29.5267233 114.896933,29.4636165 115.117191,29.4358495 L115.283804,29.4150243 L115.325458,29.4099757 L115.336187,29.4087136 L115.380996,29.4106068 L115.398667,29.4106068 L115.469351,29.4118689 C115.564018,29.4131311 115.651111,29.4106068 115.763449,29.4225971 C115.981813,29.4390049 116.174933,29.4661408 116.366791,29.5046359 C116.749244,29.5803641 117.095724,29.6933252 117.384773,29.811335 C117.964764,30.0473544 118.312507,30.2941019 118.337751,30.3149272 C118.607236,30.535801 118.646364,30.9340049 118.424844,31.2028398 C118.203956,31.4723058 117.805724,31.511432 117.536871,31.2899272 C117.563378,31.3120146 117.32608,31.074733 116.892507,30.8134709 C116.676036,30.6828398 116.410969,30.5477913 116.113716,30.4392476 C115.966667,30.3837136 115.803209,30.3357524 115.655529,30.3004126 C115.585476,30.2783252 115.486391,30.2650728 115.39488,30.2492961 L115.325458,30.2379369 L115.308418,30.2347816 C115.321671,30.2347816 115.266133,30.2322573 115.336187,30.2347816 L115.329244,30.2347816 L115.300844,30.2347816 L115.186613,30.2341505 C115.033253,30.2309951 114.879893,30.2524515 114.732844,30.2959951 C114.583902,30.3344903 114.441902,30.3982282 114.308738,30.4739563 C114.041147,30.6247816 113.81584,30.8305097 113.641653,31.0255097 C113.466836,31.2211408 113.341244,31.4060437 113.259831,31.5379369 C113.177156,31.6723544 113.141182,31.7461893 113.141182,31.7461893 C113.093849,31.845267 112.9752,31.8862864 112.876116,31.8389563 C112.787129,31.7954126 112.744844,31.6944417 112.772613,31.6023058 L112.774507,31.5966262 Z" id="Fill-63" fill="#42457B"></path>
                <path d="M95.5470036,53.0626553 C95.5470036,58.8053738 92.7953591,63.4626553 89.4062924,63.4626553 L85.6196258,63.4626553 C82.224248,63.4626553 79.4789147,58.8053738 79.4789147,53.0626553 C79.4789147,47.3136262 82.224248,42.6563447 85.6196258,42.6563447 L89.4062924,42.6563447 C92.7953591,42.6563447 95.5470036,47.3136262 95.5470036,53.0626553" id="Fill-65" fill="#998675"></path>
                <path d="M95.1683369,53.0626553 C95.1683369,53.0626553 95.1601324,52.8316845 95.1449858,52.3994029 C95.1418302,52.1823155 95.1279458,51.9160049 95.0926036,51.6042573 C95.0648347,51.2918786 95.032648,50.932801 94.9613324,50.5358592 C94.8464702,49.7388204 94.6287369,48.7795971 94.2424969,47.7339175 C93.8474213,46.7027524 93.300248,45.5359078 92.3725147,44.5766845 C91.9269502,44.0838204 91.363368,43.6780437 90.7398302,43.4136262 C90.1440613,43.1447913 89.4454213,43.1157621 88.6060436,43.1473155 C87.7950658,43.1574126 86.9619991,43.1681408 86.1106302,43.1788689 C85.6600169,43.1813932 85.302808,43.1940146 84.9418124,43.2785777 C84.5789236,43.3631408 84.2229769,43.5089175 83.8910124,43.7146456 C82.5442213,44.5394515 81.5912436,46.0962961 80.9885324,47.7433835 C80.673608,48.5713447 80.4716524,49.4529466 80.3220791,50.3427524 C80.1636702,51.2426553 80.1289591,52.1065874 80.1100258,53.0752767 C80.1182302,54.8555194 80.3706747,56.7140146 80.9866391,58.370568 C81.588088,60.0182864 82.5404347,61.5745 83.8865947,62.401199 C84.2154036,62.6088204 84.587128,62.7545971 84.9039458,62.8328495 C85.0434213,62.8991117 85.308488,62.8915388 85.5079191,62.921199 L85.5880702,62.9287718 L85.6284613,62.9325583 L85.6486569,62.9344515 C85.6347724,62.9344515 85.7067191,62.9382379 85.6234124,62.9344515 L85.7843458,62.9363447 L86.1043191,62.9401311 C86.9563191,62.9508592 87.7893858,62.9609563 88.6003636,62.9710534 C89.454888,62.9981893 90.0948347,62.9849369 90.7347813,62.707267 C91.3595813,62.4447427 91.9219013,62.038335 92.368728,61.5461019 C93.2977236,60.5887718 93.8448969,59.4219272 94.2412347,58.3907621 C94.6281058,57.3457136 94.8458391,56.3858592 94.9607013,55.5888204 C95.032648,55.1906165 95.0642036,54.8359563 95.0919724,54.5273641 C95.1273147,54.2225583 95.1418302,53.9530922 95.1449858,53.7290631 C95.1601324,53.2873155 95.1683369,53.0512961 95.1683369,53.0512961 L95.1683369,53.0626553 Z M95.9256702,53.0740146 C95.9256702,53.0740146 95.9193591,53.310034 95.9086302,53.7524126 C95.907368,53.9707621 95.896008,54.2459078 95.861928,54.5797427 C95.8360524,54.9104223 95.805128,55.2909563 95.7344436,55.706199 C95.6214747,56.5429951 95.4037413,57.553966 95.0029858,58.6703252 C94.5908702,59.7759563 94.0178213,61.0210534 93.0042569,62.1393058 C92.5126213,62.7047427 91.8682569,63.2102282 91.0983013,63.5573155 L90.806728,63.6866845 L90.494328,63.7744029 C90.2847991,63.8337233 90.0733769,63.8936748 89.8493324,63.9025097 C89.3835724,63.961199 89.0112169,63.9441602 88.6003636,63.9536262 C87.7893858,63.9637233 86.9563191,63.9744515 86.1043191,63.9851796 L85.7843458,63.988966 L85.6234124,63.9908592 L85.4176702,63.9776068 C85.1917324,63.9504709 85.0143902,63.9744515 84.7385947,63.8968301 C84.2078302,63.7901796 83.7534302,63.6065388 83.326168,63.3585291 C81.6000791,62.3481893 80.5309769,60.5912961 79.8544258,58.7908592 C79.1633591,56.9613932 78.8749413,55.0265388 78.8484347,53.0380437 C78.873048,52.121733 78.9247991,51.0930922 79.1040347,50.1408107 C79.2744347,49.1809563 79.5028969,48.2299369 79.8569502,47.3230922 C80.5347636,45.5226553 81.6038658,43.7651311 83.331848,42.7566845 C83.7572169,42.5086748 84.2273947,42.3262961 84.7127191,42.2259563 C85.1986747,42.1237233 85.711768,42.1262476 86.1106302,42.1338204 C86.9619991,42.1445485 87.7950658,42.1546456 88.6060436,42.1647427 C89.381048,42.1571699 90.301208,42.1824126 91.1039813,42.5648398 C91.8733058,42.9131893 92.5176702,43.4180437 93.0086747,43.9847427 C94.0203458,45.1042573 94.5933947,46.3487233 95.004248,47.4549854 C95.4043724,48.5713447 95.6221058,49.5823155 95.7350747,50.4191117 C95.8057591,50.8362476 95.8354213,51.2123641 95.8612969,51.5392573 C95.8953769,51.8655194 95.907368,52.1438204 95.9086302,52.3703738 C95.9199902,52.8215874 95.9256702,53.0626553 95.9256702,53.0626553 L95.9256702,53.0740146 Z" id="Fill-67" fill="#42457B"></path>
                <path d="M89.1974578,44.0303689 C89.1974578,44.0303689 89.2561511,44.0966311 89.3659644,44.2209515 C89.4757778,44.3358058 89.6373422,44.542165 89.8411911,44.8072136 C90.0286311,45.0703689 90.2482578,45.396 90.4666222,45.7872621 C90.6830933,46.1791553 90.9115556,46.6297379 91.1147733,47.1390097 C91.5281511,48.153767 91.8758933,49.3893981 92.0633333,50.7398835 C92.1573689,51.4144951 92.2230044,52.1168738 92.2343644,52.8318738 C92.2514044,53.5430874 92.2267911,54.2707087 92.1573689,55.0002233 C92.0197867,56.4504175 91.6890844,57.8892524 91.1791467,59.1778932 C90.9241778,59.8222136 90.6237689,60.4280388 90.2842311,60.977068 C90.2028178,61.1159029 90.1106756,61.247165 90.02232,61.377165 C89.9743556,61.4446893 89.9409067,61.5014854 89.8828444,61.5765825 L89.7528356,61.7494951 C89.5641333,61.9930874 89.3621778,62.2297379 89.1621156,62.4316796 C88.3618667,63.271 87.43224,63.7506117 86.7386489,63.9329903 C86.3934311,64.032699 86.1075378,64.0617282 85.9150489,64.0806602 C85.7212978,64.0894951 85.6177956,64.0939126 85.6177956,64.0939126 C85.2700533,64.1103204 84.9746933,63.8408544 84.9582844,63.4925049 C84.9425067,63.1447864 85.2119911,62.8494466 85.5603644,62.8336699 C85.56352,62.8330388 85.5673067,62.8330388 85.5710933,62.8330388 L85.6177956,62.8317767 C85.6177956,62.8317767 85.6910044,62.8298835 85.8285867,62.8267282 C85.9655378,62.8153689 86.1681244,62.8014854 86.4199378,62.7345922 C86.9204089,62.612165 87.6354578,62.2827476 88.3233689,61.5961456 C88.5007111,61.4251262 88.6622756,61.2433786 88.82952,61.0395437 L88.9626844,60.8697864 C88.9961333,60.8306602 89.0403111,60.7631359 89.0788089,60.7107573 C89.15896,60.5984272 89.2422667,60.4860971 89.3167378,60.3636699 C89.6278756,59.8853204 89.9118756,59.3451262 90.15864,58.7607573 C90.6515378,57.5926505 90.9936,56.2547864 91.1532711,54.8916796 C91.2340533,54.2132816 91.2725511,53.5247864 91.27192,52.8438641 C91.2763378,52.165466 91.2283733,51.4990583 91.1545333,50.8585243 C91.00496,49.5768252 90.7026578,48.4036699 90.3366133,47.4457087 C90.1573778,46.9642039 89.9535289,46.5413883 89.7623022,46.1734757 C89.5672889,45.8074563 89.3729067,45.5045437 89.2069244,45.2596893 C89.0371556,45.0306117 88.9058844,44.848233 88.78976,44.7207573 C88.6824711,44.5939126 88.6256711,44.5263883 88.6256711,44.5263883 C88.4899822,44.3673592 88.5095467,44.1281845 88.6692178,43.9925049 C88.8263644,43.8593495 89.0611378,43.8770194 89.1974578,44.0303689" id="Fill-69" fill="#42457B"></path>
                <path d="M87.8763529,51.9026262 C87.8763529,54.3063641 86.6362196,56.2544709 85.1057751,56.2544709 C83.5753307,56.2544709 82.3351973,54.3063641 82.3351973,51.9026262 C82.3351973,49.4988883 83.5753307,47.5507816 85.1057751,47.5507816 C86.6362196,47.5507816 87.8763529,49.4988883 87.8763529,51.9026262" id="Fill-71" fill="#D2D4DF"></path>
                <path d="M87.4976862,51.9026262 C87.4976862,51.9026262 87.4938996,51.8193252 87.4863262,51.6628204 C87.4831707,51.5056845 87.4598196,51.2772379 87.4175351,50.9894709 C87.371464,50.702335 87.2950996,50.3571408 87.1638284,49.9791311 C87.0262462,49.6061699 86.8369129,49.1928204 86.5377662,48.8299563 C86.2518729,48.4790825 85.8233484,48.1465097 85.4219618,48.0852961 C84.9385307,47.9849563 84.5074818,48.1610243 84.1142996,48.5276748 C83.7312151,48.9006359 83.4434284,49.4420922 83.2408418,50.0239369 C83.1524862,50.321801 83.0685484,50.6266068 83.0306818,50.944034 C83.0016507,51.1043252 82.9959707,51.2526262 82.9814551,51.4047136 C82.9682018,51.547966 82.9713573,51.7719951 82.9663084,51.9026262 C82.9606284,52.5456845 83.0515084,53.1893738 83.2408418,53.7813155 C83.4434284,54.3631602 83.7312151,54.9046165 84.1142996,55.2769466 C84.304264,55.4580631 84.5232596,55.5975291 84.730264,55.6732573 C84.7744418,55.6852476 84.8173573,55.7003932 84.860904,55.7186942 L85.0931529,55.745199 C85.1537396,55.744568 85.3033129,55.754034 85.400504,55.7243738 C85.8441751,55.6543252 86.2424062,55.3280631 86.5377662,54.9752961 C86.8369129,54.612432 87.0262462,54.1990825 87.1638284,53.8261214 C87.2950996,53.4481117 87.371464,53.1029175 87.4175351,52.8157816 C87.4591884,52.5305388 87.4825396,52.3197621 87.4863262,52.1443252 C87.4938996,51.9789854 87.4976862,51.8906359 87.4976862,51.8906359 L87.4976862,51.9026262 Z M88.2550196,51.9146165 C88.2550196,51.9146165 88.2531262,52.0035971 88.2499707,52.1689369 C88.2512329,52.3254417 88.2329307,52.6005874 88.1919084,52.9281117 C88.1010284,53.5736942 87.9079084,54.5202961 87.2300951,55.5009757 C86.8836151,55.9698592 86.3812507,56.4885971 85.6207618,56.6817039 C85.4257484,56.7378689 85.2610284,56.7523835 85.0130018,56.7555388 L84.775704,56.7435485 C84.6658907,56.7252476 84.554184,56.7031602 84.4431084,56.6779175 C84.0385662,56.5655874 83.6882996,56.3623835 83.3790551,56.1080631 C82.7662462,55.5924806 82.3635973,54.9014612 82.0997929,54.175733 C81.8441929,53.4468495 81.7167084,52.6744223 81.7040862,51.9026262 C81.7154462,51.6798592 81.714184,51.5492282 81.7343796,51.3403447 C81.7558373,51.1409272 81.7728773,50.9364612 81.810744,50.7502961 C81.8688062,50.3685 81.9779884,49.9949078 82.0997929,49.6295194 C82.3635973,48.9037913 82.7662462,48.2127718 83.3790551,47.6971893 C83.6857751,47.4435 84.0442462,47.2377718 84.4374284,47.1292282 C84.8350284,47.0137427 85.2484062,47.0320437 85.599304,47.1191311 C86.0170996,47.2201019 86.3105662,47.397432 86.5800507,47.6132573 C86.8495351,47.8208786 87.0514907,48.0663641 87.2300951,48.3042767 C87.9079084,49.2849563 88.1010284,50.2315583 88.1919084,50.8771408 C88.2316684,51.2021408 88.2499707,51.4596165 88.2499707,51.6344223 C88.2531262,51.8092282 88.2550196,51.9026262 88.2550196,51.9026262 L88.2550196,51.9146165 Z" id="Fill-73" fill="#42457B"></path>
                <path d="M109.539684,47.3306019 C109.539684,49.0161845 108.173328,50.3818155 106.488261,50.3818155 C104.802564,50.3818155 103.436208,49.0161845 103.436208,47.3306019 C103.436208,45.6450194 104.802564,44.2793883 106.488261,44.2793883 C108.173328,44.2793883 109.539684,45.6450194 109.539684,47.3306019" id="Fill-75" fill="#FA8E71"></path>
                <path d="M109.161017,47.330665 C109.161017,47.330665 109.15723,47.265034 109.149026,47.1419757 C109.141452,47.0201796 109.119995,46.8390631 109.055621,46.6200825 C108.942652,46.1852767 108.607532,45.5636748 107.94171,45.1547427 C107.620475,44.9572184 107.188164,44.8177524 106.800661,44.7899854 C106.324172,44.758432 105.89691,44.8448883 105.477221,45.0493544 C105.066368,45.2563447 104.708528,45.5838689 104.45419,45.9814417 C104.331124,46.1833835 104.237088,46.401733 104.16451,46.6263932 C104.137372,46.7418786 104.104555,46.8605194 104.095719,46.9577039 C104.074261,47.0227039 104.07363,47.2536748 104.067319,47.330665 C104.064164,47.8102767 104.208057,48.2766359 104.45419,48.6798883 C104.708528,49.0774612 105.066368,49.4049854 105.477221,49.6119757 C105.677284,49.7091602 105.912688,49.7949854 106.104546,49.827801 C106.187221,49.8543058 106.341212,49.8612476 106.468697,49.8738689 C106.542537,49.8782864 106.678857,49.8770243 106.778572,49.8732379 C107.209621,49.8410534 107.610377,49.7047427 107.94171,49.5065874 C108.607532,49.0976553 108.942652,48.4760534 109.055621,48.0412476 C109.120626,47.8071214 109.137666,47.6802767 109.149026,47.5262961 C109.15723,47.386199 109.161648,47.311733 109.161648,47.311733 L109.161017,47.330665 Z M109.917719,47.3495971 C109.917719,47.3495971 109.914564,47.4246942 109.908884,47.5647913 C109.903835,47.6903738 109.875435,47.9762476 109.798439,48.2463447 C109.652652,48.8105194 109.265781,49.6208107 108.425141,50.2285291 C108.007977,50.5270243 107.480999,50.7592573 106.888386,50.8495 C106.732501,50.867801 106.607541,50.8829466 106.417577,50.8861019 C106.281257,50.8823155 106.167026,50.8905194 105.983372,50.8652767 C105.637524,50.8324612 105.342795,50.7466359 105.026608,50.6261019 C104.40875,50.3793544 103.84075,49.9395 103.438101,49.3557621 C103.029141,48.7751796 102.815195,48.0513447 102.805097,47.330665 C102.819612,47.1091602 102.812039,47.0384806 102.849275,46.8094029 C102.873888,46.6080922 102.923115,46.438966 102.970448,46.2654223 C103.080261,45.9227524 103.235515,45.5964903 103.438101,45.305568 C103.84075,44.7218301 104.40875,44.2819757 105.026608,44.0352282 C105.634368,43.7853252 106.321648,43.727267 106.866928,43.8099369 C107.503088,43.903966 107.99851,44.1336748 108.425141,44.432801 C109.265781,45.0405194 109.652652,45.8508107 109.798439,46.4149854 C109.876066,46.6995971 109.900048,46.9324612 109.908252,47.088966 C109.915195,47.246733 109.91835,47.330665 109.91835,47.330665 L109.917719,47.3495971 Z" id="Fill-77" fill="#42457B"></path>
                <path d="M123.875057,48.309767 C123.875057,49.8565146 122.621039,51.1098155 121.074817,51.1098155 C119.527964,51.1098155 118.274577,49.8565146 118.274577,48.309767 C118.274577,46.7630194 119.527964,45.5097184 121.074817,45.5097184 C122.621039,45.5097184 123.875057,46.7630194 123.875057,48.309767" id="Fill-79" fill="#FA8E71"></path>
                <path d="M123.496453,48.309767 C123.496453,48.309767 123.492667,48.2504466 123.485724,48.1387476 C123.478151,48.0283107 123.458587,47.8648641 123.399893,47.6660777 C123.298284,47.2722913 122.992196,46.7093786 122.388853,46.3427282 C122.097911,46.1660291 121.704098,46.0417087 121.35888,46.0189903 C120.924676,45.9918544 120.543484,46.072 120.165449,46.258165 C119.79688,46.4462233 119.477538,46.7421942 119.249707,47.0993786 C119.140524,47.2811262 119.057218,47.4767573 118.992213,47.678699 C118.9676,47.7821942 118.937938,47.8888447 118.930996,47.9734078 C118.911431,48.0264175 118.911431,48.2453981 118.905751,48.309767 C118.901333,48.7401553 119.031342,49.1572913 119.249707,49.5201553 C119.477538,49.8773398 119.79688,50.1733107 120.165449,50.3613689 C120.344053,50.4497184 120.558,50.5286019 120.7284,50.5582621 C120.799716,50.5828738 120.942978,50.5898155 121.059102,50.6018058 C121.121582,50.6062233 121.247804,50.6055922 121.336791,50.6024369 C121.726187,50.575932 122.088444,50.454767 122.388853,50.2768058 C122.992196,49.9101553 123.298284,49.3472427 123.399893,48.9534563 C123.459849,48.7401553 123.474364,48.6297184 123.485093,48.4877282 C123.492667,48.3589903 123.497084,48.290835 123.497084,48.290835 L123.496453,48.309767 Z M124.253156,48.328699 C124.253156,48.328699 124.250631,48.3974854 124.244951,48.5262233 C124.240533,48.6398155 124.214027,48.9092816 124.142711,49.1585534 C124.007653,49.6810777 123.651076,50.4333107 122.872284,50.9987476 C122.486044,51.2764175 121.996933,51.4935049 121.446604,51.578699 C121.301449,51.5963689 121.187218,51.6108835 121.007982,51.6140388 C120.882391,51.6108835 120.77952,51.6197184 120.606596,51.5957379 C120.283467,51.5660777 120.010196,51.4871942 119.715467,51.3754951 C119.139893,51.1476796 118.60976,50.7393786 118.234249,50.1960291 C117.852427,49.655835 117.652364,48.9812233 117.643529,48.309767 C117.656782,48.1002524 117.64984,48.0421942 117.684551,47.8257379 C117.707902,47.6364175 117.753973,47.4786505 117.79752,47.3170971 C117.900391,46.9977767 118.044916,46.694233 118.234249,46.4235049 C118.60976,45.8801553 119.139893,45.4718544 119.715467,45.2440388 C120.280942,45.0124369 120.92152,44.9606893 121.425147,45.0383107 C122.019022,45.1279223 122.475947,45.3418544 122.872284,45.6207864 C123.651076,46.1862233 124.007653,46.9384563 124.142711,47.4609806 C124.214658,47.724767 124.236747,47.9405922 124.244951,48.0857379 C124.250631,48.2321456 124.253787,48.309767 124.253787,48.309767 L124.253156,48.328699 Z" id="Fill-81" fill="#42457B"></path>
                <g id="Group-85" transform="translate(7.573333, 63.460194)">
                    <mask id="mask-2" fill="white">
                        <use xlink:href="#path-1"></use>
                    </mask>
                    <g id="Clip-84"></g>
                    <path d="M0.849917333,0.318373786 C0.849917333,0.318373786 9.14587289,0.248325243 21.5901218,0.143567961 C27.8122462,0.115169903 35.0712862,0.0823543689 42.8490996,0.0463834951 C50.6269129,0.0337621359 58.9228684,0.0198786408 67.218824,0.00536407767 C75.5147796,0.0186165049 83.8113662,0.0312378641 91.5885484,0.0432281553 C99.3663618,0.0779368932 106.625402,0.110752427 112.847526,0.138519417 C125.291775,0.246432039 133.587731,0.318373786 133.587731,0.318373786 C133.762548,0.319635922 133.902655,0.462257282 133.900762,0.636432039 C133.8995,0.808713592 133.759393,0.947548544 133.587731,0.949441748 C133.587731,0.949441748 125.291775,1.0213835 112.847526,1.12929612 C106.625402,1.15706311 99.3663618,1.18987864 91.5885484,1.22458738 C83.8113662,1.23657767 75.5147796,1.24919903 67.218824,1.26245146 C58.9228684,1.24793689 50.6269129,1.2340534 42.8490996,1.22143204 C35.0712862,1.18546117 27.8122462,1.15264563 21.5901218,1.12424757 C9.14587289,1.01949029 0.849917333,0.949441748 0.849917333,0.949441748 C0.675730667,0.948179612 0.535624,0.805558252 0.536886222,0.631383495 C0.538779556,0.459101942 0.678255111,0.319635922 0.849917333,0.318373786" id="Fill-83" fill="#42457B" mask="url(#mask-2)"></path>
                </g>
                <path d="M19.0720516,8.18835922 L0.331838222,9.15515534 C0.157651556,9.16399029 0.00934044444,9.03020388 0.000504888889,8.85602913 C-0.00833066667,8.68564078 0.120416,8.53986408 0.288922667,8.52534951 L18.9855893,6.92937864 C19.3333316,6.89971845 19.6387893,7.15719417 19.6684516,7.50428155 C19.6981138,7.85136893 19.4406204,8.15743689 19.0935093,8.18709709 C19.0871982,8.18772816 19.0783627,8.18772816 19.0720516,8.18835922" id="Fill-86" fill="#42457B"></path>
                <path d="M19.0930676,14.1894369 L6.67090756,15.1417184 C6.49672089,15.1549709 6.34525422,15.0243398 6.33200089,14.8507961 C6.31874756,14.682932 6.44118311,14.5352621 6.60653422,14.5138058 L18.964952,12.9336117 C19.3108009,12.8894369 19.6269876,13.1342913 19.6711653,13.4801165 C19.7153431,13.8259417 19.470472,14.1421068 19.1246231,14.1862816 C19.1151564,14.1875437 19.1031653,14.1888058 19.0930676,14.1894369" id="Fill-88" fill="#42457B"></path>
                <path d="M48.5557324,22.8330485 L45.8640436,24.9433398 L44.6504169,24.2920777 C44.5778391,24.2403301 44.1146036,24.1248447 43.8129324,24.4334369 C43.5125236,24.7401359 43.4885413,25.2494078 43.7599191,25.5693592 L45.236088,27.3079515 C45.5074658,27.628534 45.9719636,27.6386311 46.2723724,27.331301 L49.5402658,23.9923204 C49.8419369,23.6849903 49.865288,23.1763495 49.5932791,22.8551359 C49.3212702,22.5345534 48.8567724,22.5250874 48.5557324,22.8330485 M53.5137413,29.4049903 C53.5131102,29.4049903 53.5131102,29.4056214 53.5131102,29.4056214 C53.4499991,29.5192136 53.3843636,29.6309126 53.3168347,29.7400874 C52.0994213,31.7266893 50.1934658,33.1699417 48.0003547,33.664699 C47.4045858,33.7991165 46.7879902,33.8628544 46.1575102,33.8489709 C44.0111013,33.8003786 42.1000969,32.8512524 40.7141769,31.3392136 C40.5822747,31.194699 40.4554213,31.045767 40.3329858,30.8917864 C39.0493058,29.2756214 38.317848,27.1293592 38.4263991,24.7906214 C38.4585858,24.1033883 38.5608258,23.4369806 38.726808,22.7989709 C39.7410036,18.8775146 43.1161858,16.0130971 46.9836347,16.1001845 C49.9328169,16.1670777 52.4364347,17.9334369 53.7459902,20.5227087 C53.8040524,20.636932 53.8589591,20.7524175 53.9126036,20.869165 C54.2338391,21.760233 53.8842036,22.809699 53.0757502,23.2855243 C52.2584613,23.7670291 51.2669858,23.4893592 50.7898658,22.6727573 C50.7469502,22.5762039 50.7015102,22.4809126 50.6529147,22.3875146 C49.8981058,20.9284854 48.4781058,19.9370777 46.8069236,19.8992136 C44.2351458,19.8411553 42.043928,22.066932 41.913288,24.8695049 C41.890568,25.3573204 41.9315902,25.8299903 42.0287813,26.2786796 C42.0401413,26.3310583 42.0521324,26.3834369 42.0653858,26.4358155 C42.0660169,26.4377087 42.066648,26.440233 42.0672791,26.4433883 C42.3317147,27.6682913 42.1556347,28.9121262 41.6507458,29.9716893 C42.6554747,29.4964951 43.804728,29.3948932 44.906648,29.7697476 C44.9085413,29.7703786 44.9110658,29.7710097 44.9129591,29.7722718 C44.9596613,29.7899417 45.0069947,29.8076117 45.054328,29.8233883 C45.457608,29.9609612 45.8873947,30.0392136 46.3342213,30.0493107 C48.0060347,30.0871748 49.5156524,29.1613981 50.404888,27.7396019 C50.4610569,27.6493592 50.5147013,27.5572233 50.5658213,27.4625631 C51.1180436,26.6686796 52.1341324,26.4364466 52.904088,26.9539223 C53.6671013,27.4657184 53.9195458,28.5309612 53.5137413,29.4049903" id="Fill-90" fill="#E5D5B9"></path>
                <path d="M54.2010213,53.0626553 C54.2010213,58.8053738 51.4493769,63.4626553 48.0603102,63.4626553 L44.2736436,63.4626553 C40.8782658,63.4626553 38.1329324,58.8053738 38.1329324,53.0626553 C38.1329324,47.3136262 40.8782658,42.6563447 44.2736436,42.6563447 L48.0603102,42.6563447 C51.4493769,42.6563447 54.2010213,47.3136262 54.2010213,53.0626553" id="Fill-92" fill="#998675"></path>
                <path d="M53.8224178,53.0626553 C53.8224178,53.0626553 53.8142133,52.8316845 53.7990667,52.3994029 C53.7959111,52.1823155 53.7820267,51.9160049 53.7460533,51.6042573 C53.7189156,51.2918786 53.6867289,50.932801 53.6154133,50.5358592 C53.5005511,49.7388204 53.2828178,48.7795971 52.8965778,47.7339175 C52.5008711,46.7027524 51.9543289,45.5359078 51.0265956,44.5766845 C50.5804,44.0838204 50.0174489,43.6780437 49.39328,43.4136262 C48.7981422,43.1447913 48.0995022,43.1157621 47.2601244,43.1473155 C46.4491467,43.1574126 45.61608,43.1681408 44.76408,43.1788689 C44.3140978,43.1813932 43.9562578,43.1940146 43.5952622,43.2785777 C43.2330044,43.3631408 42.8770578,43.5089175 42.5450933,43.7146456 C41.1976711,44.5394515 40.2453244,46.0962961 39.6426133,47.7433835 C39.3276889,48.5713447 39.1257333,49.4529466 38.97616,50.3427524 C38.8177511,51.2426553 38.78304,52.1065874 38.7641067,53.0752767 C38.7723111,54.8555194 39.0247556,56.7140146 39.6400889,58.370568 C40.2421689,60.0182864 41.1945156,61.5745 42.5406756,62.401199 C42.8694844,62.6088204 43.2405778,62.7545971 43.5580267,62.8328495 C43.6975022,62.8991117 43.9625689,62.8915388 44.162,62.921199 L44.2421511,62.9287718 L44.2825422,62.9325583 L44.3021067,62.9344515 C44.2888533,62.9344515 44.3608,62.9382379 44.2774933,62.9344515 L44.4384267,62.9363447 L44.7584,62.9401311 C45.6104,62.9508592 46.4434667,62.9609563 47.2544444,62.9710534 C48.1083378,62.9981893 48.7489156,62.9849369 49.3888622,62.707267 C50.0136622,62.4447427 50.5759822,62.038335 51.0228089,61.5461019 C51.9518044,60.5887718 52.4989778,59.4219272 52.8953156,58.3907621 C53.2821867,57.3457136 53.49992,56.3858592 53.6147822,55.5888204 C53.6867289,55.1906165 53.7182844,54.8359563 53.7454222,54.5273641 C53.7813956,54.2225583 53.7959111,53.9530922 53.7990667,53.7290631 C53.8142133,53.2873155 53.8224178,53.0512961 53.8224178,53.0512961 L53.8224178,53.0626553 Z M54.5797511,53.0740146 C54.5797511,53.0740146 54.57344,53.310034 54.5627111,53.7524126 C54.5614489,53.9707621 54.5500889,54.2459078 54.5160089,54.5797427 C54.4901333,54.9104223 54.4592089,55.2909563 54.3885244,55.706199 C54.2755556,56.5429951 54.0578222,57.553966 53.6570667,58.6703252 C53.2449511,59.7759563 52.6719022,61.0210534 51.6583378,62.1393058 C51.1667022,62.7047427 50.5223378,63.2102282 49.7517511,63.5573155 L49.4608089,63.6866845 L49.1484089,63.7744029 C48.9382489,63.8337233 48.7274578,63.8936748 48.5034133,63.9025097 C48.0376533,63.961199 47.6652978,63.9441602 47.2544444,63.9536262 C46.4434667,63.9637233 45.6104,63.9744515 44.7584,63.9851796 L44.4384267,63.988966 L44.2774933,63.9908592 L44.0717511,63.9776068 C43.8458133,63.9504709 43.6684711,63.9744515 43.3926756,63.8968301 C42.8619111,63.7901796 42.4075111,63.6065388 41.9802489,63.3585291 C40.25416,62.3481893 39.1850578,60.5912961 38.5085067,58.7908592 C37.8168089,56.9613932 37.5290222,55.0265388 37.5025156,53.0380437 C37.5271289,52.121733 37.57888,51.0930922 37.7581156,50.1408107 C37.9285156,49.1809563 38.1569778,48.2299369 38.5110311,47.3230922 C39.1888444,45.5226553 40.2579467,43.7651311 41.9859289,42.7566845 C42.4112978,42.5086748 42.8814756,42.3262961 43.3668,42.2259563 C43.8527556,42.1237233 44.3658489,42.1262476 44.76408,42.1338204 C45.61608,42.1445485 46.4491467,42.1546456 47.2601244,42.1647427 C48.0351289,42.1571699 48.9552889,42.1824126 49.7580622,42.5648398 C50.5273867,42.9131893 51.1717511,43.4180437 51.6621244,43.9847427 C52.6737956,45.1042573 53.2474756,46.3487233 53.6583289,47.4549854 C54.0584533,48.5713447 54.2761867,49.5823155 54.3891556,50.4191117 C54.4592089,50.8362476 54.4895022,51.2123641 54.5153778,51.5392573 C54.5494578,51.8655194 54.5608178,52.1438204 54.5627111,52.3703738 C54.57344,52.8215874 54.5797511,53.0626553 54.5797511,53.0626553 L54.5797511,53.0740146 Z" id="Fill-94" fill="#42457B"></path>
                <path d="M47.8515387,44.0303689 C47.8515387,44.0303689 47.910232,44.0966311 48.0200453,44.2209515 C48.1298587,44.3358058 48.2914231,44.542165 48.495272,44.8072136 C48.682712,45.0703689 48.9023387,45.396 49.1207031,45.7872621 C49.3371742,46.1791553 49.5656364,46.6297379 49.7688542,47.1390097 C50.182232,48.153767 50.5299742,49.3893981 50.7174142,50.7398835 C50.8114498,51.4144951 50.8770853,52.1168738 50.8884453,52.8318738 C50.9054853,53.5430874 50.880872,54.2707087 50.8114498,55.0002233 C50.6738676,56.4504175 50.3431653,57.8892524 49.8332276,59.1778932 C49.5782587,59.8222136 49.2778498,60.4280388 48.938312,60.977068 C48.8568987,61.1159029 48.7647564,61.247165 48.6764009,61.377165 C48.6284364,61.4446893 48.5949876,61.5014854 48.5369253,61.5765825 L48.4069164,61.7494951 C48.2182142,61.9930874 48.0162587,62.2297379 47.8161964,62.4316796 C47.0159476,63.271 46.0863209,63.7506117 45.3927298,63.9329903 C45.047512,64.032699 44.7616187,64.0617282 44.5691298,64.0806602 C44.3753787,64.0894951 44.2718764,64.0939126 44.2718764,64.0939126 C43.9241342,64.1103204 43.6287742,63.8408544 43.6123653,63.4925049 C43.5965876,63.1447864 43.866072,62.8494466 44.2144453,62.8336699 C44.2176009,62.8330388 44.2213876,62.8330388 44.2251742,62.8330388 L44.2718764,62.8317767 C44.2718764,62.8317767 44.3450853,62.8298835 44.4826676,62.8267282 C44.6196187,62.8153689 44.8222053,62.8014854 45.0740187,62.7345922 C45.5744898,62.612165 46.2895387,62.2827476 46.9774498,61.5961456 C47.154792,61.4251262 47.3163564,61.2433786 47.4836009,61.0395437 L47.6167653,60.8697864 C47.6502142,60.8306602 47.694392,60.7631359 47.7328898,60.7107573 C47.8130409,60.5984272 47.8963476,60.4860971 47.9708187,60.3636699 C48.2819564,59.8853204 48.5659564,59.3451262 48.8127209,58.7607573 C49.3056187,57.5926505 49.6476809,56.2547864 49.807352,54.8916796 C49.8881342,54.2132816 49.926632,53.5247864 49.9260009,52.8438641 C49.9304187,52.165466 49.8824542,51.4990583 49.8086142,50.8585243 C49.6590409,49.5768252 49.3567387,48.4036699 48.9906942,47.4457087 C48.8114587,46.9642039 48.6076098,46.5413883 48.4163831,46.1734757 C48.2213698,45.8074563 48.0269876,45.5045437 47.8610053,45.2596893 C47.6912364,45.0306117 47.5599653,44.848233 47.4438409,44.7207573 C47.336552,44.5939126 47.279752,44.5263883 47.279752,44.5263883 C47.1440631,44.3673592 47.1636276,44.1281845 47.3232987,43.9925049 C47.4804453,43.8593495 47.7152187,43.8770194 47.8515387,44.0303689" id="Fill-96" fill="#42457B"></path>
                <path d="M46.5304338,51.9026262 C46.5304338,54.3063641 45.2903004,56.2544709 43.759856,56.2544709 C42.2294116,56.2544709 40.9892782,54.3063641 40.9892782,51.9026262 C40.9892782,49.4988883 42.2294116,47.5507816 43.759856,47.5507816 C45.2903004,47.5507816 46.5304338,49.4988883 46.5304338,51.9026262" id="Fill-98" fill="#D2D4DF"></path>
                <path d="M46.151704,51.9026262 C46.151704,51.9026262 46.1479173,51.8193252 46.140344,51.6628204 C46.1371884,51.5056845 46.1138373,51.2772379 46.0715529,50.9894709 C46.0254818,50.702335 45.9491173,50.3571408 45.8178462,49.9791311 C45.680264,49.6061699 45.4909307,49.1928204 45.191784,48.8299563 C44.9058907,48.4790825 44.4773662,48.1465097 44.0759796,48.0852961 C43.5925484,47.9849563 43.1614996,48.1610243 42.7683173,48.5276748 C42.3852329,48.9006359 42.0974462,49.4420922 41.8948596,50.0239369 C41.806504,50.321801 41.7225662,50.6266068 41.6846996,50.944034 C41.6556684,51.1043252 41.6499884,51.2526262 41.6354729,51.4047136 C41.6222196,51.547966 41.6253751,51.7719951 41.6203262,51.9026262 C41.6146462,52.5456845 41.7055262,53.1893738 41.8948596,53.7813155 C42.0974462,54.3631602 42.3852329,54.9046165 42.7683173,55.2769466 C42.9582818,55.4580631 43.1772773,55.5975291 43.3842818,55.6732573 C43.4284596,55.6852476 43.4713751,55.7003932 43.5149218,55.7186942 L43.7471707,55.745199 C43.8077573,55.744568 43.9573307,55.754034 44.0545218,55.7243738 C44.4981929,55.6543252 44.896424,55.3280631 45.191784,54.9752961 C45.4909307,54.612432 45.680264,54.1990825 45.8178462,53.8261214 C45.9491173,53.4481117 46.0254818,53.1029175 46.0715529,52.8157816 C46.1132062,52.5305388 46.1365573,52.3197621 46.140344,52.1443252 C46.1479173,51.9789854 46.151704,51.8906359 46.151704,51.8906359 L46.151704,51.9026262 Z M46.9090373,51.9146165 C46.9090373,51.9146165 46.907144,52.0035971 46.9039884,52.1689369 C46.9052507,52.3254417 46.8869484,52.6005874 46.8459262,52.9281117 C46.7550462,53.5736942 46.5619262,54.5202961 45.8841129,55.5009757 C45.5376329,55.9698592 45.0352684,56.4885971 44.2747796,56.6817039 C44.0797662,56.7378689 43.9150462,56.7523835 43.6670196,56.7555388 L43.4297218,56.7435485 C43.3199084,56.7252476 43.2082018,56.7031602 43.0971262,56.6779175 C42.692584,56.5655874 42.3423173,56.3623835 42.0330729,56.1080631 C41.420264,55.5924806 41.0176151,54.9014612 40.7538107,54.175733 C40.4982107,53.4468495 40.3707262,52.6744223 40.358104,51.9026262 C40.369464,51.6798592 40.3682018,51.5492282 40.3883973,51.3403447 C40.4098551,51.1409272 40.4268951,50.9364612 40.4647618,50.7502961 C40.522824,50.3685 40.6320062,49.9949078 40.7538107,49.6295194 C41.0176151,48.9037913 41.420264,48.2127718 42.0330729,47.6971893 C42.3397929,47.4435 42.698264,47.2377718 43.0914462,47.1292282 C43.4890462,47.0137427 43.902424,47.0320437 44.2533218,47.1191311 C44.6711173,47.2201019 44.964584,47.397432 45.2340684,47.6132573 C45.5035529,47.8208786 45.7055084,48.0663641 45.8841129,48.3042767 C46.5619262,49.2849563 46.7550462,50.2315583 46.8459262,50.8771408 C46.8856862,51.2021408 46.9039884,51.4596165 46.9039884,51.6344223 C46.907144,51.8092282 46.9090373,51.9026262 46.9090373,51.9026262 L46.9090373,51.9146165 Z" id="Fill-100" fill="#42457B"></path>
                <path d="M107.515332,36.1267476 C107.515332,36.1267476 107.98614,36.3230097 108.751047,36.5583981 C109.509643,36.7893689 110.541509,37.0455825 111.590416,37.18 C112.114238,37.2424757 112.640585,37.2803398 113.132852,37.2784466 C113.377723,37.2677184 113.618176,37.2771845 113.840958,37.2513107 C114.06374,37.226068 114.277687,37.2140777 114.470807,37.1818932 C114.662665,37.1446602 114.838745,37.1112136 114.994629,37.0809223 C115.151776,37.0525243 115.27926,36.9995146 115.389074,36.9711165 C115.607438,36.9048544 115.732398,36.8676214 115.732398,36.8676214 L115.761429,36.8587864 C115.89838,36.8171359 116.042905,36.8947573 116.084558,37.0323301 C116.123687,37.1629612 116.053634,37.301165 115.928043,37.3491262 C115.928043,37.3491262 115.795509,37.3996117 115.564523,37.486699 C115.447767,37.5264563 115.309554,37.5927184 115.14294,37.635 C114.976327,37.6785437 114.788887,37.727767 114.583776,37.7814078 C114.378034,37.8293689 114.151465,37.8583981 113.912905,37.9013107 C113.674345,37.9442233 113.420638,37.9524272 113.158727,37.9801942 C112.633643,38.0167961 112.073847,38.0136408 111.515945,37.9846117 C110.401403,37.9164563 109.303269,37.7195631 108.489767,37.5296117 C107.681945,37.3396602 107.134772,37.1541262 107.134772,37.1541262 L107.127829,37.1516019 C106.841305,37.0544175 106.687314,36.743301 106.785136,36.456165 C106.882327,36.1696602 107.193465,36.0163107 107.48062,36.1134951 C107.49198,36.1172816 107.504603,36.1223301 107.515332,36.1267476" id="Fill-102" fill="#D2D4DF"></path>
                <path d="M107.405203,35.4603398 C107.405203,35.4603398 107.876012,35.6566019 108.640918,35.8919903 C109.399514,36.1229612 110.43138,36.3791748 111.480287,36.5135922 C112.004109,36.576068 112.530456,36.613932 113.022723,36.6120388 C113.267594,36.6013107 113.508047,36.6107767 113.730829,36.5849029 C113.953612,36.5596602 114.167558,36.5476699 114.360678,36.5154854 C114.552536,36.4788835 114.728616,36.4448058 114.8845,36.4145146 C115.041647,36.3861165 115.169132,36.3337379 115.278945,36.3047087 C115.497309,36.2384466 115.622269,36.2012136 115.622269,36.2012136 L115.6513,36.1923786 C115.788252,36.1507282 115.932776,36.2283495 115.974429,36.3659223 C116.013558,36.4965534 115.943505,36.6347573 115.817914,36.6827184 C115.817914,36.6827184 115.68538,36.7332039 115.454394,36.8202913 C115.337638,36.8600485 115.199425,36.9263107 115.032812,36.9685922 C114.866198,37.0121359 114.678758,37.0613592 114.473647,37.115 C114.267905,37.1629612 114.041336,37.1919903 113.802776,37.2349029 C113.564216,37.2778155 113.310509,37.2860194 113.048598,37.3137864 C112.523514,37.3503883 111.963718,37.347233 111.405816,37.3182039 C110.291274,37.2500485 109.19314,37.0531553 108.379638,36.8632039 C107.571816,36.6732524 107.024643,36.4877184 107.024643,36.4877184 L107.0177,36.4851942 C106.731176,36.3880097 106.577185,36.0768932 106.675007,35.7897573 C106.772198,35.5032524 107.083336,35.3499029 107.370492,35.4470874 C107.381852,35.4508738 107.394474,35.4559223 107.405203,35.4603398" id="Fill-104" fill="#42457B"></path>
            </g>
        </g>
    </g>
</svg>