<?xml version="1.0" encoding="UTF-8"?>
<svg width="190px" height="126px" viewBox="0 0 190 126" version="1.1" xmlns="http://www.w3.org/2000/svg" xmlns:xlink="http://www.w3.org/1999/xlink">
    <!-- Generator: Sketch 46.2 (44496) - http://www.bohemiancoding.com/sketch -->
    <title>startup</title>
    <desc>Created with Sketch.</desc>
    <defs>
        <polygon id="path-1" points="58.373125 41.2628632 58.373125 0.370631579 0.000327095636 0.370631579 0.000327095636 41.2628632"></polygon>
    </defs>
    <g id="Components" stroke="none" stroke-width="1" fill="none" fill-rule="evenodd">
        <g id="startup">
            <path d="M49.2810763,107.109714 C49.2810763,107.109714 54.9094263,107.044 63.3519513,106.945714 C67.572645,106.923429 72.4974513,106.861143 77.7743138,106.859429 C83.0506075,106.849143 88.6789575,106.838286 94.3073075,106.827429 C99.9356575,106.84 105.563439,106.852571 110.840301,106.864571 C116.116595,106.896571 121.041401,106.926857 125.262664,106.952571 C133.70462,107.046857 139.33297,107.109714 139.33297,107.109714 C139.489945,107.111429 139.616208,107.240571 139.614501,107.398857 C139.612795,107.554286 139.487101,107.679429 139.33297,107.681143 C139.33297,107.681143 133.70462,107.744 125.262664,107.838286 C121.041401,107.864 116.116595,107.894286 110.840301,107.926286 C105.563439,107.938286 99.9356575,107.950857 94.3073075,107.963429 C88.6789575,107.952571 83.0506075,107.941714 77.7743138,107.931429 C72.4974513,107.929714 67.572645,107.867429 63.3519513,107.845143 C54.9094263,107.746857 49.2810763,107.681143 49.2810763,107.681143 C49.1241013,107.679429 48.9984075,107.549714 49.0001138,107.392 C49.00182,107.236571 49.126945,107.111429 49.2810763,107.109714" id="Fill-28" fill="#42457B"></path>
            <g id="Page-1" transform="translate(66.000000, 66.000000)">
                <path d="M56.4127763,1.47361053 C57.1945263,1.94666316 57.6724263,2.79329474 57.6724263,3.70697895 L57.6724263,36.4139263 C57.6724263,38.9132947 55.6258638,40.9580316 53.1250013,40.9580316 L5.28337625,40.9580316 C2.78177625,40.9580316 0.73521375,38.9132947 0.73521375,36.4139263 L0.73521375,3.70550526 C0.73521375,2.79329474 1.21237625,1.9474 1.99412625,1.47508421" id="Fill-1" fill="#F5F6FB"></path>
                <path d="M30.2730475,20.8044421 C29.6048725,20.2606526 28.7670725,20.2599158 28.0988975,20.8037053 L3.6964975,40.4700211 C4.192835,40.6571789 4.7230975,40.5879158 5.28286,40.5879158 L53.124485,40.5879158 C53.66876,40.5879158 54.1842725,40.6601263 54.66881,40.4832842 L30.2730475,20.8044421 Z" id="Fill-3" fill="#F5F6FB"></path>
                <path d="M30.59858,20.4031579 L36.6792675,25.3643158 C38.70223,27.0229474 40.7428925,28.6602105 42.748155,30.3409474 L48.783855,35.3573684 C50.778055,37.0513684 52.7892175,38.7247368 54.7686675,40.4364211 L54.7760425,40.4423158 C54.8409425,40.4990526 54.8483175,40.5970526 54.7922675,40.6626316 C54.7730925,40.684 54.748755,40.6994737 54.72368,40.7083158 L54.7199925,40.7097895 C54.1801425,40.9043158 53.6181675,40.8962105 53.0901175,40.8969474 L51.49638,40.8954737 L48.3081675,40.8925263 L41.93248,40.8866316 L29.17963,40.8755789 L16.4275175,40.8637895 L10.0510925,40.8578947 L6.8636175,40.8549474 L5.2691425,40.8534737 C4.740355,40.852 4.182805,40.8490526 3.6569675,40.6508421 C3.5994425,40.6287368 3.5699425,40.5646316 3.59133,40.5064211 C3.598705,40.488 3.6112425,40.4710526 3.6259925,40.4592632 L3.6274675,40.4577895 L10.0673175,35.0014737 L16.55658,29.6063158 C18.71303,27.8003158 20.90488,26.0370526 23.07903,24.2524211 L26.3468925,21.5828421 L27.163305,20.9152632 L27.57188,20.5814737 L27.7761675,20.4149474 C27.8587675,20.3508421 27.948005,20.2815789 28.0431425,20.2248421 C28.4177925,19.9883158 28.8897925,19.8512632 29.3573675,19.8925263 C29.81093,19.9183158 30.287355,20.1504211 30.58383,20.3913684 L30.59858,20.4031579 Z M29.9621175,21.2173684 C29.5196175,20.8504211 29.024755,20.8135789 28.5756175,21.0862105 C28.51883,21.1186316 28.470155,21.1576842 28.41263,21.1996842 L28.2068675,21.3647368 L27.794605,21.6948421 L26.971555,22.3543158 L23.6786175,24.9922105 C21.4793925,26.7458947 19.2978675,28.5209474 17.080205,30.2532632 L10.4493425,35.4730526 L3.76833,40.6316842 L3.766855,40.6331579 L3.73588,40.4415789 C4.212305,40.6213684 4.7410925,40.6272632 5.2691425,40.6272632 L6.8636175,40.6257895 L10.0510925,40.6228421 L16.4275175,40.6169474 L29.17963,40.6051579 L41.93248,40.5933684 L48.3081675,40.5874737 L51.49638,40.5845263 L53.0901175,40.5830526 C53.6196425,40.5823158 54.144005,40.5830526 54.61158,40.4113684 L54.61453,40.4106316 L54.568805,40.6825263 C52.483155,39.102 50.4277425,37.4824211 48.356105,35.8842105 L42.1942925,31.0232632 C40.13298,29.4110526 38.107805,27.7561053 36.06493,26.1217895 L29.9473675,21.2055789 L29.9621175,21.2173684 Z" id="Fill-5" fill="#42457B"></path>
                <path d="M56.418455,1.47854737 C57.1891425,1.94865263 57.6729425,2.79675789 57.6729425,3.71044211 C57.6729425,4.93728421 57.1891425,6.07275789 56.418455,6.71233684 L30.30358,27.9746526 C29.63688,28.5103368 28.8012925,28.5103368 28.1345925,27.9746526 L1.993905,6.71233684 C1.2099425,6.07275789 0.7394175,4.93728421 0.7394175,3.71044211 C0.7394175,2.79675789 1.2099425,1.94865263 1.993905,1.47854737" id="Fill-7" fill="#F5F6FB"></path>
                <path d="M0.73949125,3.71051579 C0.73949125,4.93735789 1.21001625,6.07283158 1.99397875,6.71241053 L28.1346663,27.9747263 C28.8013663,28.5104105 29.6369538,28.5104105 30.3036538,27.9747263 L56.4185288,6.71241053 C57.1892163,6.07283158 57.6722788,4.93735789 57.6722788,3.71051579" id="Fill-9" fill="#F5F6FB"></path>
                <g id="Group-13" transform="translate(0.000000, 0.366505)">
                    <mask id="mask-2" fill="white">
                        <use xlink:href="#path-1"></use>
                    </mask>
                    <g id="Clip-12"></g>
                    <path d="M55.3172937,1.84402105 C55.3172937,1.84402105 52.3953188,1.84254737 47.2814938,1.83886316 C42.1676688,1.81307368 34.8619938,1.77623158 26.0960688,1.73202105 C21.7123687,1.71949474 16.9643438,1.66202105 11.9419688,1.68265263 C9.43078125,1.69591579 6.85100625,1.70991579 4.21370625,1.72317895 L3.22250625,1.72833684 C2.90833125,1.7276 2.70994375,1.75928421 2.46288125,1.84917895 C1.99530625,2.01938947 1.61401875,2.40254737 1.45766875,2.84244211 L1.40973125,3.00970526 C1.40530625,3.06275789 1.39203125,3.08117895 1.38539375,3.16002105 C1.38244375,3.2256 1.37064375,3.37002105 1.37580625,3.37149474 L1.37728125,3.62423158 L1.38391875,4.6396 C1.38834375,5.31823158 1.39276875,5.99981053 1.39719375,6.6836 C1.42890625,12.1576 1.48938125,17.8143368 1.46430625,23.5624421 C1.45914375,26.4361263 1.45324375,29.3326526 1.44734375,32.2409684 L1.43923125,34.4242316 L1.43480625,35.5169684 L1.43333125,36.0614947 C1.44660625,36.2147579 1.43923125,36.3702316 1.46430625,36.5227579 C1.60221875,37.7510737 2.38986875,38.8865474 3.49316875,39.4679158 C3.77046875,39.6049684 4.05661875,39.7339158 4.36046875,39.7987579 C4.51534375,39.8473895 4.64883125,39.8547579 4.78969375,39.8827579 C4.93203125,39.9070737 5.14369375,39.9063368 5.31700625,39.9196 L7.47271875,39.9240211 C8.93223125,39.9269684 10.3910062,39.9306526 11.8460937,39.9343368 C14.7570063,39.9417053 17.6561188,39.9483368 20.5323687,39.9557053 C26.2856063,39.9697053 31.9473938,39.9829684 37.4262813,39.9969684 C42.9000063,39.9940211 48.2129563,40.0507579 53.2132063,40.0905474 C54.3342063,40.0831789 55.4190688,39.5784421 56.1573062,38.7664421 C56.5282688,38.3633895 56.8158938,37.8881263 56.9980562,37.3797053 C57.0902438,37.1269684 57.1558813,36.8565474 57.1912812,36.6119158 C57.2193062,36.4969684 57.2207813,36.3356 57.2311063,36.1904421 L57.2377437,36.0791789 C57.2384812,36.0703368 57.2406938,36.0202316 57.2406938,36.0460211 L57.2406938,35.9907579 L57.2429063,35.7689684 C57.2591313,33.4081263 57.2746188,31.1276 57.2893688,28.9377053 C57.2908438,26.7478105 57.2923187,24.6492842 57.2937938,22.6539158 C57.2731438,20.6578105 57.2532313,18.7648632 57.2347938,16.9861263 C57.1588312,13.4279158 57.0924563,10.3258105 57.0378813,7.77117895 C57.0061688,6.49349474 56.9884688,5.3536 56.9825688,4.36107368 C56.9803562,4.11275789 56.9774063,3.87402105 56.9751938,3.64486316 C56.9737187,3.53286316 56.9729813,3.42381053 56.9715062,3.31696842 C56.9611813,3.24402105 56.9648688,3.17107368 56.9464313,3.10402105 C56.8992312,2.82844211 56.7672188,2.60002105 56.6145562,2.42244211 C56.3011188,2.06286316 55.9227813,1.93244211 55.6882563,1.88233684 C55.5201063,1.84107368 55.2686187,1.84549474 55.2818938,1.84328421 L55.3172937,1.84402105 Z M55.3526938,0.371073684 C55.3637563,0.382863158 55.4847063,0.348968421 56.0098063,0.455073684 C56.4486188,0.561178947 57.1285938,0.807284211 57.7112188,1.50286316 C57.9966313,1.84770526 58.2495938,2.31191579 58.3351438,2.87117895 C58.3639063,3.00896842 58.3639063,3.15338947 58.3734938,3.29928421 C58.3720188,3.41202105 58.3712813,3.52696842 58.3698063,3.64486316 C58.3675938,3.87402105 58.3653813,4.11275789 58.3624313,4.36107368 C58.3565313,5.3536 58.3395688,6.49349474 58.3071188,7.77117895 C58.2525438,10.3258105 58.1861688,13.4279158 58.1102063,16.9861263 C58.0917688,18.7648632 58.0718563,20.6578105 58.0512063,22.6539158 C58.0526813,24.6492842 58.0541563,26.7478105 58.0563688,28.9377053 C58.0711188,31.1276 58.0866063,33.4081263 58.1028313,35.7689684 L58.1043063,35.9907579 L58.1020938,36.1233895 L58.0976688,36.2346526 C58.0888188,36.3849684 58.0932438,36.5212842 58.0622688,36.6996 C58.0209688,37.0444421 57.9464813,37.3590737 57.8402813,37.6714947 C57.6293563,38.2963368 57.2901063,38.8828632 56.8453938,39.3846526 C55.9626063,40.3919158 54.6321563,41.0469684 53.2345938,41.0816 C48.1908313,41.1420211 42.9103313,41.1840211 37.4262813,41.1854947 C31.9473938,41.1994947 26.2856063,41.2127579 20.5323687,41.2267579 C17.6561188,41.2341263 14.7570063,41.2407579 11.8460938,41.2481263 C10.3910063,41.2518105 8.93223125,41.2554947 7.47271875,41.2584421 L5.24841875,41.2628632 C5.05740625,41.2496 4.90179375,41.2554947 4.68275625,41.2267579 C4.46371875,41.1943368 4.23140625,41.1685474 4.03596875,41.1096 C3.62444375,41.0204421 3.23504375,40.8539158 2.85965625,40.6674947 C1.36695625,39.8952842 0.28873125,38.3751789 0.08370625,36.6944421 C0.05051875,36.4866526 0.05273125,36.2759158 0.03871875,36.0659158 L0.03576875,35.5169684 L0.03134375,34.4242316 L0.02323125,32.2409684 C0.01733125,29.3326526 0.01143125,26.4361263 0.00626875,23.5624421 C-0.01880625,17.8143368 0.04166875,12.1576 0.07264375,6.6836 C0.07780625,5.99981053 0.08223125,5.31823158 0.08665625,4.6396 L0.09329375,3.62423158 L0.09476875,3.37149474 C0.09624375,3.20349474 0.10509375,3.17991579 0.11025625,3.07749474 C0.11689375,2.98833684 0.14418125,2.84317895 0.16556875,2.72970526 C0.19433125,2.62138947 0.22383125,2.51675789 0.25996875,2.4136 C0.56529375,1.58686316 1.24158125,0.958336842 2.02628125,0.676863158 C2.40388125,0.530231579 2.87440625,0.477915789 3.22250625,0.488231579 L4.21370625,0.493389474 C6.85100625,0.507389474 9.43078125,0.520652632 11.9419688,0.533915789 C16.9643438,0.554547368 21.7123688,0.496336842 26.0960688,0.483810526 C34.8619938,0.438863158 42.1676688,0.402021053 47.2814938,0.375494737 C52.3953188,0.372547368 55.3172938,0.370336842 55.3172938,0.370336842 L55.3526938,0.371073684 Z" id="Fill-11" fill="#42457B" mask="url(#mask-2)"></path>
                </g>
                <path d="M1.07313625,3.69946316 C1.07313625,3.69946316 1.07461125,3.77388421 1.07829875,3.91830526 C1.08788625,4.04651579 1.09673625,4.24251579 1.14614875,4.49893684 C1.24202375,4.99188421 1.46401125,5.78546316 2.15652375,6.40588421 C3.77459875,7.72556842 6.08739875,9.61041053 8.86187375,11.8717789 C11.6407738,14.1353579 14.8820863,16.7754632 18.3557113,19.6049368 C20.0925238,21.0196737 21.8868613,22.4815684 23.7099613,23.9670421 C24.6222488,24.7097789 25.5411738,25.4584105 26.4637863,26.2092526 L27.8495488,27.3388316 C28.0825988,27.5215684 28.3156488,27.7352526 28.5221488,27.8642 C28.7301238,27.9909368 28.9720238,28.0631474 29.2094988,28.0653579 C29.4491863,28.0660947 29.6866613,27.9975684 29.9012738,27.8715684 C30.0989238,27.7522 30.3415613,27.5318842 30.5709238,27.3513579 L31.9581613,26.2232526 C32.8815113,25.4724105 33.8011738,24.7245158 34.7134613,23.9832526 C36.5380363,22.4992526 38.3338488,21.0388316 40.0721363,19.6255684 C43.5479738,16.7997789 46.7914988,14.1618842 49.5718738,11.9012526 C52.3485613,9.64209474 54.6628363,7.75946316 56.2823863,6.44125263 C56.9903863,5.80609474 57.2116363,5.00514737 57.3104613,4.50556842 C57.4033863,3.98904211 57.3849488,3.70535789 57.3849488,3.70535789 L57.9601988,3.70535789 C57.9601988,3.70535789 57.9815863,4.02441053 57.8768613,4.61093684 C57.7603363,5.17830526 57.5280238,6.09051579 56.6636738,6.87672632 C55.0419113,8.20009474 52.7254238,10.0900947 49.9450488,12.3580947 C47.1676238,14.6231474 43.9270488,17.2654632 40.4556363,20.0956737 C38.7195613,21.5111474 36.9252238,22.9737789 35.1028613,24.4599895 C34.1913113,25.2027263 33.2731238,25.9520947 32.3505113,26.7036737 L30.9647488,27.8339895 C30.7250613,28.0196737 30.5303613,28.2127263 30.2191363,28.4079895 C29.9197113,28.5863053 29.5657113,28.6924105 29.2065488,28.6909368 C28.8459113,28.6872526 28.4955988,28.5811474 28.1939613,28.3969368 C27.8952738,28.2068316 27.6902488,28.0086211 27.4535113,27.8251474 L26.0655363,26.6977789 C25.1421863,25.9476737 24.2217863,25.2005158 23.3094988,24.4585158 C21.4841863,22.9759895 19.6876363,21.5163053 17.9493488,20.1037789 C14.4720363,17.2794632 11.2270363,14.6430421 8.44518625,12.3831474 C5.66186125,10.1203053 3.34168625,8.23472632 1.71771125,6.91430526 C0.83492375,6.11630526 0.60187375,5.19598947 0.48239875,4.62272632 C0.42561125,4.32946316 0.41307375,4.09514737 0.40274875,3.93525263 C0.39906125,3.79009474 0.39758625,3.71567368 0.39758625,3.71567368 L1.07313625,3.69946316 Z" id="Fill-14" fill="#42457B"></path>
                <path d="M36.143695,11.8448105 L36.143695,11.8448105 C35.1045575,11.8448105 34.2534825,10.9952316 34.2534825,9.95628421 L34.2534825,9.95628421 C34.2534825,8.91807368 35.1045575,8.06849474 36.143695,8.06849474 L36.143695,8.06849474 C37.1828325,8.06849474 38.0339075,8.91807368 38.0339075,9.95628421 L38.0339075,9.95628421 C38.0339075,10.9952316 37.1828325,11.8448105 36.143695,11.8448105" id="Fill-16" fill="#42457B"></path>
                <path d="M21.4353638,11.8448105 L21.4353638,11.8448105 C20.3962263,11.8448105 19.5451513,10.9952316 19.5451513,9.95628421 L19.5451513,9.95628421 C19.5451513,8.91807368 20.3962263,8.06849474 21.4353638,8.06849474 L21.4353638,8.06849474 C22.4745013,8.06849474 23.3255763,8.91807368 23.3255763,9.95628421 L23.3255763,9.95628421 C23.3255763,10.9952316 22.4745013,11.8448105 21.4353638,11.8448105" id="Fill-18" fill="#42457B"></path>
                <path d="M23.7135013,16.8659474 C23.7135013,16.8659474 24.3189887,16.9602632 25.2548762,17.0626842 C26.1856012,17.1665789 27.4327138,17.269 28.6783512,17.297 C29.9239887,17.3286842 31.1674138,17.2741579 32.0730638,17.1304737 C32.3039013,17.1061579 32.5015513,17.0501579 32.6844513,17.0162632 C32.8680888,16.9831053 33.0222263,16.9425789 33.1439138,16.8998421 C33.3939262,16.8232105 33.5370013,16.7797368 33.5370013,16.7797368 L33.5768263,16.7672105 C33.7612012,16.7112105 33.9566388,16.8143684 34.0126887,16.9985789 C34.0665263,17.1732105 33.9743388,17.3581579 33.8076638,17.4252105 C33.8076638,17.4252105 33.6513137,17.4863684 33.3784388,17.5939474 C33.2427388,17.6528947 33.0753263,17.7111053 32.8813638,17.7619474 C32.6881388,17.8135263 32.4698388,17.8916316 32.2301513,17.9358421 C31.2714013,18.1635263 29.9822513,18.3175263 28.6953138,18.3838421 C27.4083762,18.4523684 26.1229138,18.5216316 25.1597388,18.4884737 C24.2009888,18.4575263 23.5475638,18.4825789 23.5475638,18.4825789 L23.5424013,18.4825789 C23.1360388,18.4825789 22.8321888,18.0198421 22.8639013,17.6138421 C22.8956137,17.2078421 23.2510888,16.8659474 23.6574513,16.8976316 C23.6758888,16.8991053 23.6958013,16.863 23.7135013,16.8659474" id="Fill-20" fill="#D2D4DF"></path>
                <path d="M24.0104925,15.8544105 C24.0104925,15.8544105 24.5931175,16.0047263 25.496555,16.1462 C26.3955675,16.2928316 27.6065425,16.4247263 28.8189925,16.4468316 C30.0314425,16.4770421 31.240205,16.3915684 32.1333175,16.2626211 C32.5817175,16.2029368 32.9504675,16.1336737 33.20638,16.0754632 C33.4637675,16.0231474 33.61053,15.9929368 33.61053,15.9929368 C33.8000675,15.9546211 33.98518,16.0769368 34.0242675,16.2655684 C34.06188,16.4505158 33.94683,16.6303053 33.765405,16.6752526 L33.759505,16.6767263 C33.759505,16.6767263 33.60758,16.7143053 33.3413425,16.7798842 C33.075105,16.8506211 32.6923425,16.9390421 32.2277175,17.0200947 C31.30068,17.1910421 30.045455,17.3303053 28.78433,17.3487263 C27.523205,17.3752526 26.260605,17.2883053 25.31513,17.1726211 C24.8423925,17.1173579 24.44783,17.0547263 24.169055,17.0068316 C23.8851175,16.9523053 23.72213,16.9213579 23.72213,16.9213579 C23.4219675,16.8638842 23.225055,16.5743053 23.28258,16.2744105 C23.340105,15.9745158 23.6299425,15.7777789 23.930105,15.8352526 C23.9411675,15.8367263 23.95223,15.8396737 23.9632925,15.8418842 L24.0104925,15.8544105 Z" id="Fill-22" fill="#42457B"></path>
            </g>
        </g>
    </g>
</svg>