<?xml version="1.0" encoding="UTF-8"?>
<svg width="190px" height="126px" viewBox="0 0 190 126" version="1.1" xmlns="http://www.w3.org/2000/svg" xmlns:xlink="http://www.w3.org/1999/xlink">
    <!-- Generator: Sketch 46.2 (44496) - http://www.bohemiancoding.com/sketch -->
    <title>startup-hover</title>
    <desc>Created with Sketch.</desc>
    <defs>
        <polygon id="path-1" points="57.7273247 0.112199129 57.7273247 56.1285758 0.251433766 56.1285758 0.251433766 0.112199129"></polygon>
    </defs>
    <g id="Components" stroke="none" stroke-width="1" fill="none" fill-rule="evenodd">
        <g id="startup-hover">
            <g id="Group-23" transform="translate(42.000000, 26.000000)">
                <g id="Group-2">
                    <g id="Elements/Pattern/Cross" opacity="0.96" transform="translate(2.258882, 59.258882) rotate(-8.000000) translate(-2.258882, -59.258882) translate(0.258882, 57.258882)" stroke="#03CAFF" stroke-width="2" stroke-linecap="round">
                        <path d="M0.213541667,0.184027778 L3.6055156,3.57600171" id="Path-2"></path>
                        <path d="M0.213541667,0.184027778 L3.6055156,3.57600171" id="Path-2" transform="translate(1.909529, 1.880015) scale(-1, 1) translate(-1.909529, -1.880015) "></path>
                    </g>
                    <g id="Elements/Pattern/Cross" opacity="0.92" transform="translate(29.430513, 3.430513) rotate(-301.000000) translate(-29.430513, -3.430513) translate(26.930513, 0.930513)" stroke="#03CAFF" stroke-width="2" stroke-linecap="round">
                        <path d="M0.266927083,0.230034722 L4.50689449,4.47000213" id="Path-2"></path>
                        <path d="M0.266927083,0.230034722 L4.50689449,4.47000213" id="Path-2" transform="translate(2.386911, 2.350018) scale(-1, 1) translate(-2.386911, -2.350018) "></path>
                    </g>
                    <g id="Elements/Pattern/Cross" opacity="0.91" transform="translate(88.105508, 13.105508) rotate(-142.000000) translate(-88.105508, -13.105508) translate(86.605508, 11.605508)" stroke="#03CAFF" stroke-width="2" stroke-linecap="round">
                        <path d="M0.16015625,0.138020833 L2.7041367,2.68200128" id="Path-2"></path>
                        <path d="M0.16015625,0.138020833 L2.7041367,2.68200128" id="Path-2" transform="translate(1.432146, 1.410011) scale(-1, 1) translate(-1.432146, -1.410011) "></path>
                    </g>
                    <g id="Elements/Pattern/Circle" transform="translate(96.000000, 52.000000) rotate(-276.000000) translate(-96.000000, -52.000000) translate(95.000000, 51.000000)" fill="#03CAFF">
                        <circle id="Oval-2" cx="1" cy="1" r="1"></circle>
                    </g>
                </g>
            </g>
            <g id="Page-1" transform="translate(66.000000, 48.000000)">
                <path d="M52.6729636,58.966125 L5.25834026,58.966125 C2.77940519,58.966125 0.750911688,56.946375 0.750911688,54.478125 L0.750911688,22.172625 C0.750911688,21.271125 1.22395065,20.435625 1.99828831,19.969875 L27.9009377,4.369875 C28.5637948,3.970875 29.3938727,3.970875 30.0559766,4.369875 L55.9315091,19.968375 C56.7066,20.435625 57.1803922,21.271875 57.1803922,22.174125 L57.1803922,54.478125 C57.1803922,56.946375 55.1518987,58.966125 52.6729636,58.966125" id="Fill-1" fill="#F5F6FB"></path>
                <path d="M57.1803169,22.177575 C57.1803169,23.389575 56.7012519,24.510825 55.9374597,25.142325 L30.0551481,46.143075 C29.3953039,46.671825 28.5667325,46.671825 27.9061351,46.143075 L1.99821299,25.142325 C1.22161558,24.510825 0.755355844,23.389575 0.755355844,22.177575 C0.755355844,21.275325 1.22161558,20.436825 1.99821299,19.973325 L27.9061351,4.374075 C28.5667325,3.974325 29.3953039,3.974325 30.0551481,4.374075 L55.9374597,19.973325 C56.7012519,20.436825 57.1803169,21.275325 57.1803169,22.177575" id="Fill-3" fill="#D2D4DF"></path>
                <path d="M0.755205195,22.177575 C0.755205195,23.389575 1.22146494,24.510825 1.99806234,25.142325 L27.9059844,46.143075 C28.5665818,46.671825 29.3951532,46.671825 30.0549974,46.143075 L55.9373091,25.142325 C56.7011013,24.510825 57.1801662,23.389575 57.1801662,22.177575" id="Fill-5" fill="#D2D4DF"></path>
                <g id="Group-9" transform="translate(0.000000, 3.400050)">
                    <mask id="mask-2" fill="white">
                        <use xlink:href="#path-1"></use>
                    </mask>
                    <g id="Clip-8"></g>
                    <path d="M52.6728883,55.003575 C52.6578234,54.966075 53.3786805,55.109325 54.5093039,54.552075 C55.0569143,54.263325 55.6851221,53.761575 56.1348104,52.971825 C56.3517455,52.584825 56.5234857,52.095075 56.5890182,51.620325 C56.6153818,51.515325 56.6153818,51.346575 56.625174,51.198825 L56.6319532,51.084825 L56.6327065,50.997075 L56.6334597,50.764575 C56.634213,50.451075 56.6349662,50.128575 56.6357195,49.797825 C56.6515377,44.501325 56.6748883,36.934575 56.7020052,27.854325 C56.7102909,25.584075 56.7193299,23.219325 56.7291221,20.772075 C56.7313818,20.160075 56.7336416,19.542825 56.7359013,18.921075 C56.7622649,18.355575 56.6033299,17.862825 56.2734078,17.439825 C56.1928104,17.335575 56.1009143,17.240325 56.0007325,17.154075 C55.9495117,17.108325 55.9013039,17.072325 55.8553558,17.037075 C55.8086545,17.002575 55.7144987,16.942575 55.6738234,16.917825 L54.8505247,16.420575 C54.2983948,16.090575 53.7424987,15.758325 53.1828364,15.423825 C48.7017714,12.747825 43.9774078,9.925575 39.0895896,7.005825 C36.6445506,5.548575 34.1588364,4.065825 31.642239,2.565825 C31.0147844,2.191575 30.3850701,1.816575 29.7538494,1.440075 C29.2845766,1.167825 28.6864987,1.152825 28.1976416,1.443825 C26.9329403,2.202075 25.662213,2.964075 24.386213,3.729825 C19.2596156,6.804075 14.0516675,9.927825 8.84371948,13.051575 L4.93964156,15.393825 L2.98948571,16.563075 L2.50288831,16.855575 L2.25958961,17.001075 C2.19556364,17.042325 2.13078442,17.082825 2.07127792,17.130075 C1.82948571,17.313825 1.62686234,17.550825 1.48751169,17.821575 C1.34665455,18.089325 1.26605714,18.393075 1.25551169,18.690825 L1.25023896,19.803075 L1.24647273,22.056825 C1.24345974,23.556825 1.2412,25.052325 1.23818701,26.541825 C1.22764156,32.500575 1.2170961,38.365575 1.20655065,44.040075 C1.20429091,45.459075 1.20127792,46.866075 1.19901818,48.259575 C1.19751169,48.956325 1.19675844,49.650075 1.19525195,50.340075 C1.19073247,51.057075 1.17642078,51.657825 1.36247273,52.254075 C1.71800519,53.433825 2.63018701,54.435075 3.76834286,54.876075 C4.04704416,54.985575 4.35512208,55.078575 4.63457662,55.114575 C4.76714805,55.143825 4.93210909,55.155825 5.10083636,55.162575 L5.22512208,55.169325 C5.23717403,55.170825 5.28688831,55.173075 5.2673039,55.172325 L5.32982338,55.172325 L5.57764156,55.174575 C6.23974545,55.179075 6.89732987,55.183575 7.55039481,55.187325 C12.7749143,55.212075 17.7147065,55.236075 22.2748623,55.257825 C24.554187,55.264575 26.7393558,55.270575 28.8175636,55.277325 C30.8950182,55.261575 32.8662649,55.246575 34.7192519,55.232325 C38.4237195,55.174575 41.6536416,55.123575 44.3133558,55.082325 C46.9730701,55.030575 49.0633299,55.038075 50.4877195,55.020075 C51.9128623,55.009575 52.6728883,55.003575 52.6728883,55.003575 M52.6728883,56.128575 C52.6728883,56.128575 51.9128623,56.122575 50.4877195,56.112075 C49.0633299,56.094075 46.9730701,56.101575 44.3133558,56.049825 C41.6536416,56.008575 38.4237195,55.957575 34.7192519,55.899825 C32.8662649,55.885575 30.8950182,55.870575 28.8175636,55.854825 C26.7393558,55.860825 24.554187,55.867575 22.2748623,55.874325 C17.7147065,55.896075 12.7749143,55.920075 7.55039481,55.944825 C6.89732987,55.948575 6.23974545,55.953075 5.57764156,55.957575 L5.32982338,55.959075 L5.1852,55.956825 L5.06091429,55.951575 C4.89821299,55.947075 4.73023896,55.938825 4.5359013,55.905075 C4.15400519,55.858575 3.81655065,55.758825 3.47081039,55.629825 C2.09914805,55.116825 0.984342857,53.937075 0.531641558,52.506825 C0.294368831,51.792075 0.300394805,50.998575 0.306420779,50.340075 C0.304914286,49.650075 0.304161039,48.956325 0.302654545,48.259575 C0.300394805,46.866075 0.297381818,45.459075 0.295122078,44.040075 C0.284576623,38.365575 0.274031169,32.500575 0.263485714,26.541825 C0.260472727,25.052325 0.258212987,23.556825 0.2552,22.056825 L0.251433766,19.803075 L0.25294026,18.658575 C0.268005195,18.204075 0.384758442,17.761575 0.593407792,17.361075 C0.798290909,16.959825 1.09657662,16.605825 1.45587532,16.331325 C1.54475844,16.261575 1.63966753,16.199325 1.73532987,16.139325 L1.97787532,15.992325 L2.46447273,15.698325 L4.41010909,14.521575 L8.3059013,12.165825 C13.5025506,9.023325 18.6984468,5.881575 23.8137455,2.787825 C25.0987844,2.011575 26.3777974,1.238325 27.6515377,0.469575 C28.4394338,-0.004425 29.5278753,-0.013425 30.3248104,0.481575 C30.9552779,0.865575 31.584239,1.248075 32.2109403,1.629825 C34.713226,3.154575 37.1838753,4.660575 39.6146026,6.141825 C44.4790701,9.100575 49.1800831,11.961075 53.6385506,14.673075 C54.1959532,15.012075 54.7495896,15.348825 55.2994597,15.682575 L56.1235117,16.178325 C56.2184208,16.237575 56.2590961,16.262325 56.3427065,16.320075 C56.4248104,16.378575 56.5039013,16.438575 56.5716935,16.498575 C56.7125506,16.619325 56.8428623,16.752075 56.9573558,16.897575 C57.4258753,17.461575 57.6563688,18.243075 57.6247325,18.921075 C57.6269922,19.542825 57.6292519,20.160075 57.6315117,20.772075 C57.6413039,23.219325 57.6503429,25.584075 57.6586286,27.854325 C57.6857455,36.934575 57.7083429,44.501325 57.7249143,49.797825 C57.7256675,50.128575 57.7264208,50.451075 57.727174,50.764575 L57.7279273,50.997075 L57.7256675,51.140325 L57.7196416,51.255075 C57.7098494,51.410325 57.7143688,51.543075 57.6819792,51.727575 C57.5908364,52.422825 57.3806805,52.990575 57.1027325,53.505075 C56.5340312,54.518325 55.7355896,55.162575 55.0343169,55.536075 C54.3224987,55.904325 53.7086026,56.036325 53.2988364,56.085075 C52.8875636,56.129325 52.6728883,56.128575 52.6728883,56.128575" id="Fill-7" fill="#42457B" mask="url(#mask-2)"></path>
                </g>
                <path d="M22.4713844,41.7375 L5.25291688,27.77925 L5.25291688,4.26 C5.25291688,2.44875 6.72777403,0.98025 8.54761818,0.98025 L48.7596961,0.98025 C50.578787,0.98025 52.0536442,2.44875 52.0536442,4.26 L52.0536442,28.278 L35.5869169,41.7375" id="Fill-10" fill="#FFFFFF"></path>
                <g id="Group-14" transform="translate(4.519481, 0.400050)" stroke="#42457B" stroke-width="0.5" fill="#42457B">
                    <path d="M0.465506494,27.45765 C0.465506494,27.45765 0.451948052,25.9269 0.427090909,23.24865 C0.418051948,20.5704 0.405246753,16.7439 0.390181818,12.1524 C0.384909091,9.8559 0.378883117,7.3689 0.37361039,4.73865 C0.379636364,4.1064 0.311844156,3.3639 0.601844156,2.6469 C0.857948052,1.94265 1.37467532,1.34565 2.00062338,0.9369 C2.63335065,0.53865 3.39714286,0.3219 4.13984416,0.35265 C4.8478961,0.3534 5.56272727,0.3534 6.28283117,0.35415 C12.0474286,0.35715 18.1961818,0.3609 24.3449351,0.36465 C30.4936883,0.3684 36.6424416,0.37215 42.407039,0.37515 C43.1316623,0.38115 43.8314286,0.36465 44.5598182,0.3879 C45.3273766,0.45315 46.0407013,0.7539 46.5988571,1.2489 C47.1645455,1.73115 47.5532208,2.3979 47.7234545,3.10815 C47.8793766,3.8499 47.798026,4.4994 47.8243896,5.15865 C47.8379481,7.78965 47.8507532,10.27665 47.8628052,12.5724 C47.911013,21.7554 47.9434026,27.87765 47.9434026,27.87765 L47.1253766,27.87765 C47.1253766,27.87765 47.157013,21.7554 47.2052208,12.5724 C47.2172727,10.27665 47.2300779,7.78965 47.2436364,5.15865 C47.2293247,4.50615 47.2963636,3.8094 47.1931688,3.22215 C47.0688831,2.61765 46.7592987,2.0319 46.2817403,1.5999 C45.816987,1.15815 45.1797403,0.8769 44.5387273,0.8034 C43.8525195,0.76515 43.1226234,0.79365 42.407039,0.7854 C36.6424416,0.7884 30.4936883,0.79215 24.3449351,0.7959 C18.1961818,0.79965 12.0474286,0.8034 6.28283117,0.8064 C5.56272727,0.80715 4.8478961,0.80715 4.13984416,0.8079 C3.46568831,0.8019 2.82316883,0.99915 2.31322078,1.3869 C1.80703896,1.77165 1.43342857,2.30115 1.2518961,2.87715 C1.04098701,3.4359 1.10877922,4.0659 1.09371429,4.73865 C1.08844156,7.3689 1.08241558,9.8559 1.07714286,12.1524 C1.06207792,16.7439 1.04927273,20.5704 1.04023377,23.24865 C1.01537662,25.9269 1.00181818,27.45765 1.00181818,27.45765 L0.465506494,27.45765 Z" id="Fill-12"></path>
                </g>
                <path d="M34.5222026,19.8369 L34.5222026,19.8369 C33.5279169,19.8369 32.7144104,19.0269 32.7144104,18.0369 L32.7144104,18.0369 C32.7144104,17.0469 33.5279169,16.23765 34.5222026,16.23765 C35.5164883,16.23765 36.3299948,17.0469 36.3299948,18.0369 L36.3299948,18.0369 C36.3299948,19.0269 35.5164883,19.8369 34.5222026,19.8369" id="Fill-15" fill="#42457B"></path>
                <path d="M21.1965143,19.8369 L21.1965143,19.8369 C20.2022286,19.8369 19.3887221,19.0269 19.3887221,18.0369 L19.3887221,18.0369 C19.3887221,17.0469 20.2022286,16.23765 21.1965143,16.23765 C22.1908,16.23765 23.0043065,17.0469 23.0043065,18.0369 L23.0043065,18.0369 C23.0043065,19.0269 22.1908,19.8369 21.1965143,19.8369" id="Fill-17" fill="#42457B"></path>
                <path d="M21.2845039,26.8928 C21.2845039,26.8928 22.2584519,27.01655 23.7664519,27.0623 C24.5166857,27.0773 25.3934649,27.0908 26.3312571,27.0413 C26.8005299,27.0293 27.2826078,26.9858 27.7737247,26.9468 C28.2655948,26.91305 28.7589714,26.8343 29.2561143,26.77955 C29.7479844,26.70005 30.241361,26.6198 30.723439,26.5268 C31.1987377,26.41055 31.6762961,26.3243 32.1229714,26.1908 C32.5651273,26.04905 33.0080364,25.9463 33.4034909,25.78805 C33.7981922,25.63055 34.1823481,25.50155 34.5190494,25.34705 C34.8519844,25.1843 35.1570494,25.0343 35.4274649,24.9023 C35.7001403,24.7718 35.9080364,24.6113 36.0948416,24.5033 C36.4601662,24.2753 36.6695688,24.14405 36.6695688,24.14405 L36.7027117,24.12305 C36.8616468,24.02405 37.0710494,24.07205 37.1704779,24.22955 C37.2684,24.3848 37.2239584,24.58805 37.0733091,24.69005 C37.0733091,24.69005 36.856374,24.83555 36.4774909,25.0898 C36.2839065,25.21055 36.0647117,25.3868 35.7829974,25.53305 C35.5020364,25.68155 35.1856727,25.84955 34.8399325,26.03255 C34.4896727,26.2058 34.0942182,26.35355 33.6836987,26.5313 C33.272426,26.7098 32.8182182,26.8313 32.3587377,26.99255 C31.8969974,27.1463 31.4066338,27.2513 30.9140104,27.38705 C30.4176208,27.4988 29.9099325,27.59855 29.4022442,27.69605 C28.8915429,27.7688 28.3815948,27.86555 27.8769195,27.91655 C27.3714909,27.97205 26.8751013,28.03205 26.3922701,28.0598 C25.427361,28.14005 24.5249714,28.29155 23.7506338,28.30055 C22.2094909,28.30205 21.1594649,28.33955 21.1594649,28.33955 L21.153439,28.33955 C20.8280364,28.33955 20.5892571,27.88355 20.6201403,27.55955 C20.6517766,27.23555 20.9402701,26.9288 21.2656727,26.95955 C21.2709455,26.9603 21.2792312,26.89205 21.2845039,26.8928" id="Fill-19" fill="#42457B" transform="translate(28.920011, 26.205531) rotate(7.000000) translate(-28.920011, -26.205531) "></path>
                <path d="M17.713426,11.8968 C17.713426,11.8968 19.3246208,10.8618 21.1640494,10.24905 C21.6212701,10.09155 22.0943091,9.9708 22.5447506,9.8748 C22.7744909,9.8388 22.9959455,9.8043 23.2061013,9.7713 C23.4215299,9.75705 23.6256597,9.7428 23.8139714,9.73005 C24.1958675,9.73905 24.5167506,9.7443 24.7434779,9.7953 C24.9694519,9.8328 25.0990104,9.8538 25.0990104,9.8538 C25.366413,9.89805 25.5471922,10.15005 25.5027506,10.41705 C25.4583091,10.6833 25.2052182,10.8633 24.9378156,10.81905 C24.9295299,10.81755 24.9219974,10.81605 24.9137117,10.81455 L24.8481792,10.79955 C24.8481792,10.79955 24.7464909,10.7778 24.5694779,10.7388 C24.3962312,10.68555 24.1295818,10.6683 23.8094519,10.63905 C23.6452442,10.64055 23.4682312,10.6428 23.2806727,10.6443 C23.0908545,10.6623 22.8912442,10.6818 22.6841013,10.7013 C22.2698156,10.76505 21.8261532,10.85055 21.3870104,10.97355 C20.5079714,11.2128 19.6477636,11.55405 19.0195558,11.84205 C18.3875818,12.1323 17.991374,12.3558 17.991374,12.3558 C17.8618156,12.42855 17.6976078,12.38355 17.6245429,12.2553 C17.5537377,12.1308 17.594413,11.9733 17.713426,11.8968" id="Fill-21" fill="#42457B"></path>
                <path d="M39.0568234,12.3888 C39.0568234,12.3888 38.6643818,12.1638 38.0346675,11.8698 C37.4094727,11.57805 36.5530312,11.23155 35.6770052,10.9863 C35.2393688,10.86105 34.797213,10.77255 34.3829273,10.70655 C34.1765377,10.6848 33.9769273,10.66455 33.7871091,10.64505 C33.5995506,10.64205 33.4225377,10.63905 33.2590831,10.6368 C32.9382,10.66305 32.6707974,10.67805 32.4967974,10.73055 C32.3190312,10.76805 32.2173429,10.7898 32.2173429,10.7898 L32.1533169,10.8033 C31.8942,10.85805 31.6388494,10.6938 31.5831091,10.43505 C31.5281221,10.17705 31.6938364,9.9228 31.9529532,9.8673 C31.9589792,9.86655 31.9665117,9.86505 31.9717844,9.8643 C31.9717844,9.8643 32.1005896,9.8418 32.3258104,9.80355 C32.5517844,9.7518 32.8726675,9.7443 33.2545636,9.73305 C33.4421221,9.7443 33.6462519,9.75705 33.8616805,9.77055 C34.0725896,9.80205 34.2940442,9.83505 34.5237844,9.86955 C34.9757325,9.96255 35.4495247,10.08105 35.9074987,10.23555 C37.7529532,10.83705 39.3746935,11.8638 39.3746935,11.8638 C39.5185636,11.9538 39.5614987,12.14355 39.4711091,12.2868 C39.3829792,12.42555 39.199187,12.46905 39.0568234,12.3888" id="Fill-23" fill="#42457B"></path>
                <path d="M1.09604935,22.166325 C1.09604935,22.166325 1.09755584,22.239825 1.10132208,22.383075 C1.11036104,22.508325 1.1194,22.701825 1.16836104,22.954575 C1.26327013,23.439825 1.48246494,24.222075 2.16565974,24.831825 C3.77007532,26.135325 6.06145195,27.996825 8.81155584,30.230325 C11.565426,32.466075 14.7780234,35.074575 18.220361,37.869075 C19.9415299,39.266325 21.7199455,40.710075 23.5269844,42.177075 C24.4308805,42.910575 25.3415558,43.650075 26.2559974,44.391825 L27.6291662,45.507075 C27.860413,45.687825 28.0916597,45.899325 28.2950364,46.025325 C28.4999195,46.149825 28.7371922,46.221075 28.9714519,46.223325 C29.2064649,46.224075 29.4407247,46.156575 29.652387,46.032825 C29.8459714,45.916575 30.0870104,45.697575 30.3144909,45.519825 L31.6891662,44.406075 C32.604361,43.664325 33.5157896,42.925575 34.420439,42.192825 C36.2289844,40.727325 38.0089065,39.285825 39.7308286,37.890075 C43.175426,35.098575 46.3910364,32.493075 49.146413,30.260325 C51.8980234,28.029075 54.1916597,26.169825 55.7968286,24.867825 C56.4958416,24.243075 56.7150364,23.453325 56.8129584,22.961325 C56.9048545,22.452075 56.8867766,22.172325 56.8867766,22.172325 L57.4743091,22.172325 C57.4743091,22.172325 57.4954,22.488075 57.3914519,23.068575 C57.2754519,23.629575 57.0457117,24.532575 56.1862571,25.311075 C54.5788286,26.618325 52.2829325,28.485075 49.5275558,30.726075 C46.7751922,32.962575 43.5633481,35.572575 40.1225169,38.368575 C38.4021013,39.766575 36.624439,41.211075 34.8174,42.678825 C33.9142571,43.412325 33.0043351,44.152575 32.0898935,44.895075 L30.7167247,46.011075 C30.4786987,46.194825 30.2866208,46.384575 29.9770364,46.579575 C29.6787506,46.755825 29.3262312,46.860825 28.9676857,46.859325 C28.6091403,46.856325 28.260387,46.750575 27.9598416,46.568325 C27.6623091,46.379325 27.4596857,46.183575 27.2246727,46.002825 L25.8492442,44.889075 C24.9340494,44.148075 24.0218675,43.410075 23.1172182,42.677325 C21.3086727,41.213325 19.5279974,39.771825 17.8053221,38.376825 C14.3592182,35.586825 11.1428545,32.982825 8.38597143,30.751575 C5.62682857,28.515825 3.32716623,26.653575 1.71823117,25.349325 C0.839945455,24.558825 0.609451948,23.647575 0.490438961,23.080575 C0.433945455,22.790325 0.42114026,22.557825 0.411348052,22.399575 C0.407581818,22.256325 0.406075325,22.182825 0.406075325,22.182825 L1.09604935,22.166325 Z" id="Fill-25" fill="#42457B"></path>
                <path d="M30.0252442,39.060975 C29.3631403,38.523225 28.5330623,38.523225 27.8702052,39.060225 L3.68571169,58.479225 C4.17758182,58.663725 4.70334805,58.589475 5.25849091,58.589475 L52.6731143,58.589475 C53.212439,58.589475 53.7231403,58.666725 54.2037117,58.491975 L30.0252442,39.060975 Z" id="Fill-27" fill="#F5F6FB"></path>
                <path d="M30.3577273,38.652525 L36.3837013,43.553025 C38.3880909,45.191775 40.4105584,46.808775 42.3968701,48.469275 L48.3768961,53.426775 C50.3526623,55.100775 52.345,56.754525 54.3057013,58.447275 L54.3132338,58.454025 C54.3795195,58.511025 54.3870519,58.611525 54.3290519,58.677525 C54.3094675,58.700025 54.2853636,58.715775 54.259,58.724025 L54.255987,58.725525 C53.7196753,58.918275 53.1615195,58.910025 52.6387662,58.910775 L51.0592078,58.910025 L47.8993377,58.906275 L41.5803506,58.901025 L28.9416234,58.889025 L16.3036494,58.877025 L9.98390909,58.871025 L6.82403896,58.868025 L5.24448052,58.866525 C4.72022078,58.865025 4.16733766,58.862025 3.64533766,58.666275 C3.58658442,58.643775 3.55645455,58.578525 3.57905195,58.519275 C3.58583117,58.500525 3.59938961,58.483275 3.6137013,58.471275 L3.61520779,58.469775 L9.9937013,53.076525 L16.4234156,47.744775 C18.5596234,45.959775 20.731987,44.218275 22.8862727,42.455025 L26.1244805,39.818025 L26.9342208,39.158775 L27.3387143,38.829525 L27.5405844,38.664525 C27.6226883,38.601525 27.7123247,38.531775 27.8072338,38.475525 C28.1808442,38.240025 28.6516234,38.104275 29.1186364,38.144775 C29.5713377,38.170275 30.0481429,38.402025 30.3426623,38.640525 L30.3577273,38.652525 Z M29.7076753,39.481275 C29.2715455,39.121275 28.7917273,39.086775 28.3510779,39.352275 C28.2953377,39.383775 28.2478831,39.422025 28.1906364,39.463275 L27.9865065,39.626025 L27.579,39.952275 L26.7632338,40.603275 L23.4986623,43.208025 C21.3187662,44.940525 19.1561948,46.693275 16.9582208,48.403275 L10.3838831,53.556525 L3.75907792,58.646775 L3.75757143,58.648275 L3.72593506,58.453275 C4.19746753,58.630275 4.72172727,58.636275 5.24448052,58.636275 L6.82403896,58.634775 L9.98390909,58.631775 L16.3036494,58.625775 L28.9416234,58.613775 L41.5803506,58.601775 L47.8993377,58.595775 L51.0592078,58.592775 L52.6387662,58.591275 C53.1637792,58.591275 53.6827662,58.591275 54.1445065,58.422525 L54.1475195,58.421025 L54.1015714,58.698525 C52.0324026,57.138525 49.9948701,55.540275 47.9407662,53.963025 L41.8319351,49.164525 C39.7883766,47.573025 37.780974,45.938025 35.7562468,44.324775 L29.6926104,39.469275 L29.7076753,39.481275 Z" id="Fill-29" fill="#42457B"></path>
                <path d="M32.9952961,51.03885 C32.4378935,50.7111 31.7328545,50.87835 31.3712961,51.40635 C31.3381532,51.46935 31.3035039,51.5301 31.2665948,51.59085 C30.6888545,52.5351 29.6599195,53.1636 28.4856078,53.1636 C28.1715039,53.1636 27.8679455,53.1186 27.5802052,53.0346 C27.5463091,53.02485 27.512413,53.0136 27.4792701,53.0031 C27.4777636,53.00235 27.4762571,53.0016 27.4739974,53.0016 C26.9098156,52.8366 26.3365948,52.8336 25.8017896,52.9656 C25.5577377,53.02635 25.3468286,52.81935 25.4055818,52.5756 C25.5381532,52.0296 25.5358935,51.44235 25.3731922,50.86485 C25.372439,50.8626 25.372439,50.8611 25.3716857,50.86035 C25.360387,50.82585 25.3505948,50.79135 25.3408026,50.7576 C25.2579455,50.4651 25.2135039,50.1561 25.2135039,49.83585 C25.2135039,47.99835 26.6785688,46.50885 28.4856078,46.50885 C29.6591662,46.50885 30.6888545,47.13735 31.2665948,48.0816 C31.3035039,48.1416 31.3381532,48.20385 31.3712961,48.2661 C31.7328545,48.7941 32.4378935,48.9606 32.9960494,48.6336 C33.547426,48.3096 33.7590883,47.61735 33.5037377,47.0391 C33.4630623,46.9626 33.4201273,46.88835 33.3756857,46.8141 C32.372361,45.13785 30.5570364,44.0181 28.4856078,44.0181 C25.7686468,44.0181 23.4930883,45.9441 22.9093221,48.5271 C22.814413,48.94785 22.7639455,49.38585 22.7639455,49.83585 C22.7639455,51.3696 23.3477117,52.7646 24.3013221,53.8041 C24.3924649,53.9031 24.4866208,53.9991 24.5837896,54.09135 C25.6059455,55.0611 26.9776078,55.65435 28.4856078,55.65435 C28.9285169,55.65435 29.359374,55.60335 29.7729065,55.5066 C31.2959714,55.15035 32.5862831,54.1761 33.3756857,52.8576 C33.4201273,52.78485 33.4623091,52.7106 33.5029844,52.6356 C33.5029844,52.6356 33.5029844,52.63485 33.5029844,52.63485 C33.7590883,52.0566 33.547426,51.36285 32.9952961,51.03885" id="Fill-53" fill="#D2D4DF"></path>
                <path d="M29.8088364,48.40425 L27.988239,49.82625 L27.1159792,49.4175 C27.0632519,49.3845 26.7340831,49.31625 26.5329662,49.5225 C26.3318494,49.728 26.3318494,50.06175 26.5329662,50.26725 L27.625174,51.384 C27.8262909,51.59025 28.1524468,51.59025 28.3535636,51.384 L30.5379792,49.149 C30.7390961,48.94275 30.7390961,48.60975 30.5379792,48.4035 C30.3361091,48.19725 30.0099532,48.198 29.8088364,48.40425" id="Fill-55" fill="#D2D4DF"></path>
            </g>
            <path d="M49.2810763,107.109714 C49.2810763,107.109714 54.9094263,107.044 63.3519513,106.945714 C67.572645,106.923429 72.4974513,106.861143 77.7743138,106.859429 C83.0506075,106.849143 88.6789575,106.838286 94.3073075,106.827429 C99.9356575,106.84 105.563439,106.852571 110.840301,106.864571 C116.116595,106.896571 121.041401,106.926857 125.262664,106.952571 C133.70462,107.046857 139.33297,107.109714 139.33297,107.109714 C139.489945,107.111429 139.616208,107.240571 139.614501,107.398857 C139.612795,107.554286 139.487101,107.679429 139.33297,107.681143 C139.33297,107.681143 133.70462,107.744 125.262664,107.838286 C121.041401,107.864 116.116595,107.894286 110.840301,107.926286 C105.563439,107.938286 99.9356575,107.950857 94.3073075,107.963429 C88.6789575,107.952571 83.0506075,107.941714 77.7743138,107.931429 C72.4974513,107.929714 67.572645,107.867429 63.3519513,107.845143 C54.9094263,107.746857 49.2810763,107.681143 49.2810763,107.681143 C49.1241013,107.679429 48.9984075,107.549714 49.0001138,107.392 C49.00182,107.236571 49.126945,107.111429 49.2810763,107.109714" id="Fill-28" fill="#42457B"></path>
        </g>
    </g>
</svg>