<?xml version="1.0" encoding="UTF-8"?>
<svg width="190px" height="126px" viewBox="0 0 190 126" version="1.1" xmlns="http://www.w3.org/2000/svg" xmlns:xlink="http://www.w3.org/1999/xlink">
    <!-- Generator: Sketch 46.2 (44496) - http://www.bohemiancoding.com/sketch -->
    <title>mid-hover</title>
    <desc>Created with Sketch.</desc>
    <defs>
        <polygon id="path-1" points="0 81.4142857 93.601675 81.4142857 93.601675 0.0199142857 0 0.0199142857"></polygon>
        <polygon id="path-3" points="0.137475 10.8913571 36.684675 10.8913571 36.684675 0.201485714 0.137475 0.201485714"></polygon>
        <polygon id="path-5" points="93.601675 81.3967143 93.601675 0.0200836869 9.97663891e-05 0.0200836869 9.97663891e-05 81.3967143 93.601675 81.3967143"></polygon>
    </defs>
    <g id="Components" stroke="none" stroke-width="1" fill="none" fill-rule="evenodd">
        <g id="mid-hover">
            <g id="Group-23" transform="translate(34.000000, 8.000000)">
                <g id="Group-2">
                    <g id="Elements/Pattern/Cross" opacity="0.96" transform="translate(3.000000, 76.000000) rotate(-8.000000) translate(-3.000000, -76.000000) translate(1.000000, 74.000000)" stroke="#03CAFF" stroke-width="2" stroke-linecap="round">
                        <path d="M0.213541667,0.184027778 L3.6055156,3.57600171" id="Path-2"></path>
                        <path d="M0.213541667,0.184027778 L3.6055156,3.57600171" id="Path-2" transform="translate(1.909529, 1.880015) scale(-1, 1) translate(-1.909529, -1.880015) "></path>
                    </g>
                    <g id="Elements/Pattern/Cross" opacity="0.92" transform="translate(43.500000, 3.500000) rotate(-301.000000) translate(-43.500000, -3.500000) translate(41.000000, 1.000000)" stroke="#03CAFF" stroke-width="2" stroke-linecap="round">
                        <path d="M0.266927083,0.230034722 L4.50689449,4.47000213" id="Path-2"></path>
                        <path d="M0.266927083,0.230034722 L4.50689449,4.47000213" id="Path-2" transform="translate(2.386911, 2.350018) scale(-1, 1) translate(-2.386911, -2.350018) "></path>
                    </g>
                    <g id="Elements/Pattern/Cross" opacity="0.91" transform="translate(116.500000, 32.500000) rotate(-142.000000) translate(-116.500000, -32.500000) translate(115.000000, 31.000000)" stroke="#03CAFF" stroke-width="2" stroke-linecap="round">
                        <path d="M0.16015625,0.138020833 L2.7041367,2.68200128" id="Path-2"></path>
                        <path d="M0.16015625,0.138020833 L2.7041367,2.68200128" id="Path-2" transform="translate(1.432146, 1.410011) scale(-1, 1) translate(-1.432146, -1.410011) "></path>
                    </g>
                    <g id="Elements/Pattern/Circle" transform="translate(104.000000, 70.000000) rotate(-276.000000) translate(-104.000000, -70.000000) translate(103.000000, 69.000000)" fill="#03CAFF">
                        <circle id="Oval-2" cx="1" cy="1" r="1"></circle>
                    </g>
                </g>
            </g>
            <g id="Page-1" transform="translate(48.000000, 27.000000)">
                <g id="Group-11" transform="translate(0.000000, 0.565800)">
                    <path d="M26.0038663,80.8145143 C26.0038663,80.8145143 21.2938787,71.1637 13.2645162,67.4543714 C19.8556788,70.3337429 25.7371413,75.3345714 25.7371413,75.3345714 C25.7371413,75.3345714 22.6222163,67.5340286 18.0520537,63.9260286 L27.7129037,69.1564571 L27.7129037,80.5913571 L26.0038663,80.8145143 Z" id="Fill-1" fill="#9FD997" fill-rule="nonzero"></path>
                    <path d="M25.47776,81.0752157 C24.8085975,79.7157729 24.00666,78.3797586 23.1506725,77.1011443 C22.9426975,76.7760729 22.70946,76.4685729 22.489735,76.1517014 C22.2717725,75.8324871 22.03266,75.5302586 21.7994225,75.2227586 C21.5679475,74.9140871 21.331185,74.6095157 21.0803225,74.3160729 C20.830635,74.02263 20.5962225,73.7145443 20.33361,73.43223 L19.5551725,72.5765014 C19.29021,72.29653 19.01056,72.0317871 18.7385475,71.7582586 C18.47006,71.4800443 18.18336,71.2235014 17.8913725,70.9716443 C17.5987975,70.7227157 17.3226725,70.4503586 17.01541,70.2190014 L16.0994975,69.5143871 C15.796935,69.27483 15.4614725,69.0850586 15.143635,68.8671729 C14.8234475,68.6539729 14.5026725,68.4396014 14.15781,68.2685729 L13.141435,67.7203443 L13.1408475,67.7197586 L13.122635,67.7098014 C12.98046,67.6330729 12.927585,67.4556014 13.0045475,67.3132729 C13.077985,67.1785586 13.2442475,67.1246729 13.38231,67.1861729 C13.949835,67.4392014 14.52911,67.6699729 15.0854725,67.94643 C15.65006,68.2082443 16.20466,68.4888014 16.7551475,68.7763871 C17.3073975,69.0622157 17.84966,69.36503 18.3907475,69.6696014 C18.929485,69.9794443 19.46646,70.2922157 19.994035,70.61963 C21.0521225,71.2697729 22.0931725,71.9486157 23.1130725,72.6579157 C24.134735,73.37073 25.1305475,74.0993586 26.11696,74.88773 L26.118135,74.8883157 C26.3666475,75.0898014 26.404835,75.4541157 26.202735,75.7024586 C26.120485,75.8032014 26.010035,75.8699729 25.8919475,75.8992586 C25.7521225,75.9338157 25.554135,75.9121443 25.420185,75.8412729 C25.337935,75.7950014 25.3326475,75.78153 25.28741,75.7469729 C25.25451,75.7182729 25.21221,75.6802014 25.1916475,75.6561871 L25.1458225,75.5982014 C25.0788475,75.51503 25.041835,75.4517729 25.0012975,75.3867586 C24.9225725,75.2573157 24.8579475,75.13783 24.79626,75.0183443 L24.440235,74.3143157 L23.7663725,72.9267586 C23.31811,72.0066014 22.839885,71.1057729 22.346385,70.2143157 C21.852885,69.3228586 21.328835,68.4489729 20.7466225,67.6172586 C20.1685225,66.7843729 19.552235,65.9760871 18.86251,65.24453 C18.692135,65.0594443 18.51236,64.8849014 18.332585,64.7103586 L18.055285,64.4585014 L17.9853725,64.39583 C17.9559975,64.3530729 17.968335,64.4169157 17.84261,64.22773 C17.76741,64.0649014 17.82616,63.8804014 17.9501225,63.7866871 C18.0123975,63.7369014 18.102285,63.7052729 18.1874725,63.7093729 C18.2603225,63.7041014 18.37371,63.7650157 18.3625475,63.76033 L19.7220225,64.4877871 L22.4515475,65.9227871 C24.287485,66.8505586 26.1198975,67.7836014 27.993435,68.6416729 C28.2889475,68.7769729 28.418785,69.1254729 28.2830725,69.4200871 C28.14736,69.7147014 27.7977975,69.8435586 27.502285,69.7082586 C27.478785,69.6977157 27.45411,69.6842443 27.43296,69.6707729 C25.6910225,68.5713871 23.90796,67.5475586 22.127835,66.5172871 L19.4341475,65.0161014 L18.08231,64.2751729 C18.043535,64.2546729 18.12696,64.3021157 18.16691,64.2956729 C18.2203725,64.2980157 18.2779475,64.2781014 18.31496,64.2476443 C18.38781,64.1925871 18.424235,64.0836443 18.37841,63.9793871 C18.283235,63.8470157 18.35491,63.94483 18.370185,63.9471729 L18.4447975,64.0121871 L18.741485,64.2734157 C18.93301,64.4538157 19.124535,64.6342157 19.3048975,64.8245729 C20.0357475,65.57663 20.6808225,66.3972157 21.2859475,67.2400586 C21.8840225,68.0887586 22.454485,68.9532729 23.0014475,69.8306729 C23.549585,70.7080729 24.0577725,71.6071443 24.5759475,72.49743 L25.35086,73.82583 C25.4806975,74.0437157 25.6087725,74.2639443 25.74331,74.4671871 C25.8096975,74.5696871 25.878435,74.6692586 25.9424725,74.7536014 C25.9741975,74.7946014 26.0082725,74.8379443 26.0258975,74.8514157 L26.0411725,74.8678157 C26.0411725,74.8678157 26.0270725,74.8479014 26.0176725,74.8414586 C25.99711,74.8256443 26.0141475,74.8373586 25.95951,74.80573 C25.857285,74.7418871 25.690435,74.7272443 25.5817475,74.7694157 L25.35556,75.7797729 L25.3549725,75.7791871 C24.44611,74.9919871 23.4808475,74.22353 22.508535,73.4867014 C21.5326975,72.7492871 20.534535,72.0399871 19.5175725,71.3588014 C19.01056,71.0155729 18.4941475,70.6869871 17.97656,70.3607443 C17.4554475,70.0397729 16.93316,69.7199729 16.4014725,69.4177443 C15.8703725,69.1131729 15.3357475,68.81563 14.791135,68.53683 C14.25416,68.2422157 13.6954475,67.9944586 13.1467225,67.7226871 L13.388185,67.1885157 L13.3887725,67.1885157 L14.45626,67.7221014 C14.819335,67.88903 15.15656,68.0987157 15.4943725,68.3089871 C15.8292475,68.5221871 16.1829225,68.7102014 16.5025225,68.9462443 L17.4695475,69.6432443 C17.794435,69.87343 18.085835,70.1422729 18.396035,70.3906157 C18.70506,70.6407157 19.0087975,70.8960871 19.2931475,71.1725443 C19.58161,71.4449014 19.8782975,71.7090586 20.15971,71.9884443 L20.98691,72.8424157 C21.265385,73.12473 21.51566,73.43223 21.7817975,73.7256729 C22.0485225,74.0191157 22.301735,74.3236871 22.5490725,74.6329443 C22.7981725,74.94103 23.0531475,75.24443 23.2869725,75.5636443 C23.52256,75.8822729 23.77166,76.1909443 23.9954975,76.5171871 C24.91846,77.8081014 25.7732725,79.1318157 26.5299725,80.55393 C26.682135,80.8397586 26.57286,81.1941157 26.28616,81.3458157 C25.99946,81.4975157 25.6440225,81.3885729 25.49186,81.1027443 C25.48951,81.0980586 25.4865725,81.0933729 25.4842225,81.0886871 L25.47776,81.0752157 Z" id="Fill-3" fill="#42457B" fill-rule="nonzero"></path>
                    <path d="M63.991675,74.9940371 L71.152125,66.1866514 C71.5716,65.6700514 72.3958625,66.1263229 72.1779,66.7547943 L67.83275,79.30138 L73.3276375,74.5131657 C73.8422875,74.0645086 74.62895,74.55358 74.451525,75.2119229 L73.0033375,80.58468 L64.10565,80.58468 L63.991675,74.9940371 Z" id="Fill-5" fill="#9FD997" fill-rule="nonzero"></path>
                    <path d="M63.5955237,74.6738857 C65.1112737,72.9700429 66.5776738,71.2263714 68.0475988,69.4862143 L70.2207613,66.8493286 L71.3070488,65.5303 L71.3405362,65.4893 L71.3939988,65.4301429 C71.4180863,65.4049571 71.4351238,65.3821143 71.5009238,65.3329143 C71.6148988,65.2450571 71.7153613,65.2157714 71.8363863,65.19 C72.0719738,65.1595429 72.3052113,65.2315857 72.4732363,65.3844571 C72.6471363,65.5303 72.7505363,65.7804 72.7258613,66.0135143 C72.6847363,66.2747429 72.6324488,66.3374143 72.5889738,66.4920429 C71.8610613,68.6480571 71.1067113,70.7952857 70.4058238,72.9612571 C69.6896613,75.1213714 68.9870112,77.2861714 68.3160862,79.4621 L68.3149113,79.4667857 L67.4971113,78.9185571 C68.4717737,78.1881714 69.4141238,77.4220571 70.3523613,76.6512571 C70.8276488,76.2723 71.2806113,75.8687429 71.7453238,75.4774857 L73.1517988,74.2832143 C73.4684613,74.0120286 74.0148363,74.0038286 74.3508863,74.2644714 C74.5253737,74.3880571 74.6634363,74.5702143 74.7292363,74.7822429 C74.8020863,74.9849 74.7709488,75.2449571 74.7257113,75.3995857 C74.5770738,75.9870571 74.4155113,76.5710143 74.2827363,77.1631714 C74.0001488,78.3422143 73.7251988,79.5230143 73.4954862,80.7167 C73.4426112,80.9931571 73.1747113,81.1741429 72.8974113,81.1208429 C72.6201113,81.0681286 72.4379863,80.8010429 72.4914488,80.5245857 C72.4961488,80.5005714 72.5031988,80.4748 72.5108363,80.4525429 C72.9120988,79.3051286 73.2681238,78.146 73.6165113,76.9845286 C73.7992238,76.4064286 73.9531488,75.8201286 74.1199988,75.2373429 C74.1916738,75.0147714 74.1387988,74.8771286 73.9936863,74.7547143 C73.8438738,74.6469429 73.6576363,74.6323 73.5007738,74.7553 L72.1571613,75.9478143 C71.7065488,76.3543 71.2441863,76.7479 70.8041488,77.1666857 C69.9123237,77.9902 69.0246113,78.8189857 68.1686238,79.6840857 C67.9741613,79.8803 67.6563238,79.8826429 67.4595113,79.6887714 C67.3132238,79.5446857 67.2744488,79.3338286 67.3431863,79.1540143 L67.3508238,79.1352714 L67.3525863,79.1305857 C68.1709738,77.0056143 68.9582238,74.8695143 69.7319612,72.7287286 C70.5209738,70.5938 71.2559363,68.4401286 72.0179238,66.2952429 C72.0572863,66.1786857 72.1330738,65.9807143 72.1283738,65.9596286 C72.1330738,65.9086714 72.1201488,65.8665 72.0760863,65.8266714 C72.0349613,65.7845 71.9691613,65.7698571 71.9221613,65.7733714 C71.9051238,65.7774714 71.8669363,65.7932857 71.8669363,65.7932857 C71.8716363,65.7815714 71.8404988,65.8114429 71.8152362,65.8383857 L71.7970238,65.8571286 C71.8258113,65.8243286 71.7976113,65.8583 71.7976113,65.8583 L71.7641238,65.8998857 L70.6948738,67.2323857 L68.5569613,69.8979714 C67.1534238,71.6920143 65.7463613,73.4831286 64.3880613,75.3140714 C64.2200363,75.5401571 63.9004363,75.5876 63.6736612,75.4206714 C63.4474738,75.2537429 63.3992987,74.9351143 63.5673237,74.7090286 C63.5761362,74.6967286 63.5861237,74.6850143 63.5955237,74.6738857" id="Fill-7" fill="#42457B" fill-rule="nonzero"></path>
                    <mask id="mask-2" fill="white">
                        <use xlink:href="#path-1"></use>
                    </mask>
                    <g id="Clip-10" fill-rule="nonzero"></g>
                    <polygon id="Fill-9" fill="#F5F6FB" fill-rule="nonzero" mask="url(#mask-2)" points="27.7129625 80.5913571 64.297175 80.5913571 64.297175 11.5303714 27.7129625 11.5303714"></polygon>
                </g>
                <g id="Group-14" transform="translate(27.612500, 70.265800)">
                    <mask id="mask-4" fill="white">
                        <use xlink:href="#path-3"></use>
                    </mask>
                    <g id="Clip-13" fill-rule="nonzero"></g>
                    <polygon id="Fill-12" fill="#D2D4DF" fill-rule="nonzero" mask="url(#mask-4)" points="0.137475 10.9874143 36.684675 10.9874143 36.684675 0.201485714 0.137475 0.201485714"></polygon>
                </g>
                <g id="Group-40" transform="translate(0.000000, 0.565800)">
                    <mask id="mask-6" fill="white">
                        <use xlink:href="#path-5"></use>
                    </mask>
                    <g id="Clip-16" fill-rule="nonzero"></g>
                    <polygon id="Stroke-15" stroke="#42457B" stroke-width="1.17142857" mask="url(#mask-6)" fill-rule="nonzero" points="27.7129625 80.5913571 64.297175 80.5913571 64.297175 11.5303714 27.7129625 11.5303714"></polygon>
                    <path d="M67.4164475,17.7296886 L25.225135,17.7296886 C24.47901,17.7296886 23.8685975,17.1211314 23.8685975,16.3772743 L23.8685975,11.3272457 C23.8685975,10.5833886 24.47901,9.97483143 25.225135,9.97483143 L67.4164475,9.97483143 C68.1625725,9.97483143 68.772985,10.5833886 68.772985,11.3272457 L68.772985,16.3772743 C68.772985,17.1211314 68.1625725,17.7296886 67.4164475,17.7296886" id="Fill-17" fill="#D2D4DF" fill-rule="nonzero" mask="url(#mask-6)"></path>
                    <path d="M67.4164475,17.7296886 L25.225135,17.7296886 C24.47901,17.7296886 23.8685975,17.1211314 23.8685975,16.3772743 L23.8685975,11.3272457 C23.8685975,10.5833886 24.47901,9.97483143 25.225135,9.97483143 L67.4164475,9.97483143 C68.1625725,9.97483143 68.772985,10.5833886 68.772985,11.3272457 L68.772985,16.3772743 C68.772985,17.1211314 68.1625725,17.7296886 67.4164475,17.7296886 Z" id="Stroke-18" stroke="#42457B" stroke-width="1.17142857" stroke-linecap="round" stroke-linejoin="round" mask="url(#mask-6)" fill-rule="nonzero"></path>
                    <path d="M75.0424913,10.3150729 L75.0424913,10.9740014 C75.0424913,11.4671729 74.6899913,11.8842014 74.0437413,11.8842014 L17.7377413,11.8842014 C17.0914913,11.8842014 16.4981163,11.4671729 16.4981163,10.9740014 L16.4981163,10.3150729 L16.4981163,10.0327586 C16.4981163,4.82283 29.5993663,0.59983 45.7673663,0.59983 C61.9353663,0.59983 75.0424913,4.82283 75.0424913,10.0327586 L75.0424913,10.3150729 Z" id="Fill-19" fill="#F5F6FB" fill-rule="nonzero" mask="url(#mask-6)"></path>
                    <path d="M74.6081525,10.3150729 C74.6081525,10.3150729 74.6081525,10.2846157 74.607565,10.2237014 C74.6046275,10.1680586 74.6128525,10.0620443 74.5999275,9.96481571 C74.58759,9.86290143 74.584065,9.73580143 74.562915,9.58585857 C74.5153275,9.44001571 74.50534,9.26195857 74.4178025,9.07628714 C74.156365,8.31251571 73.3438525,7.28927286 71.952065,6.37380143 C70.565565,5.45481571 68.6755775,4.60084429 66.4172275,3.88275857 C64.154765,3.17053 61.5292275,2.56783 58.62874,2.11448714 C55.727665,1.66641571 52.552815,1.35423 49.1846775,1.24294429 C45.81889,1.14278714 42.2557025,1.15098714 38.591465,1.43915857 C34.92899,1.72323 31.153715,2.24978714 27.4272025,3.19805857 C25.570115,3.68303 23.71714,4.26523 21.9658025,5.06473 C21.09219,5.46477286 20.2409025,5.91518714 19.460115,6.45287286 C18.6828525,6.98938714 17.970215,7.61961571 17.472015,8.36640143 C17.2470025,8.73950143 17.05489,9.16590143 16.98674,9.53548714 C16.96089,9.63154429 16.962065,9.77328714 16.9485525,9.88984429 C16.9438525,9.93611571 16.936215,10.04623 16.93504,10.0397871 L16.933865,10.2242871 L16.93034,10.9617014 C16.893915,11.1175014 17.2211525,11.4080157 17.5736525,11.4472586 C17.73404,11.4712729 18.00899,11.4583871 18.2504525,11.4630729 L18.987765,11.4665871 C20.95354,11.4759586 22.91109,11.48533 24.8539525,11.4941157 C28.73909,11.5122729 32.56254,11.53043 36.262615,11.5480014 C39.96269,11.5614729 43.5399775,11.5749443 46.931615,11.58783 C50.3232525,11.5784586 53.530415,11.5696729 56.49024,11.5620586 C62.4104775,11.53043 67.3443025,11.5046586 70.7976275,11.4865014 C71.6612525,11.4806443 72.4320525,11.4759586 73.10239,11.4712729 C73.4378525,11.46893 73.7480525,11.4671729 74.0324025,11.4654157 C74.245665,11.4636586 74.384315,11.4039157 74.468915,11.3271871 C74.5529275,11.2545586 74.595815,11.1467871 74.605215,11.0642014 C74.619315,10.9552586 74.6081525,10.7971157 74.6105025,10.6764586 C74.60874,10.4380729 74.6081525,10.3150729 74.6081525,10.3150729 M75.477065,10.3150729 C75.477065,10.3150729 75.47589,10.4380729 75.474715,10.6764586 C75.46884,10.7936014 75.4847025,10.9324157 75.4565025,11.1725586 C75.420665,11.43613 75.2967025,11.7301586 75.030565,11.9638586 C74.769715,12.1969729 74.3872525,12.30943 74.0324025,12.3029871 C73.7480525,12.30123 73.4378525,12.2994729 73.10239,12.29713 C72.4320525,12.2924443 71.6612525,12.2877586 70.7976275,12.2824871 C67.3443025,12.2637443 62.4104775,12.2379729 56.49024,12.2063443 C53.530415,12.19873 50.3232525,12.1899443 46.931615,12.1805729 C43.5399775,12.1934586 39.96269,12.20693 36.262615,12.2204014 C32.56254,12.2379729 28.73909,12.25613 24.8539525,12.2742871 C22.91109,12.2830729 20.95354,12.2924443 18.987765,12.3018157 L18.2504525,12.30533 C18.0001775,12.2994729 17.7804525,12.3246586 17.45204,12.2871729 C17.1377275,12.2391443 16.8392775,12.1272729 16.5737275,11.9211014 C16.3164025,11.7289871 16.0614275,11.3793157 16.06554,10.9617014 L16.062015,10.2242871 L16.0614275,10.0397871 L16.0755275,9.82190143 C16.08904,9.69480143 16.0837525,9.58761571 16.11254,9.44411571 C16.21124,8.83848714 16.4444775,8.36230143 16.7182525,7.88963 C17.3081025,6.98704429 18.10064,6.29004429 18.93254,5.70140143 C19.76914,5.11393 20.6603775,4.63364429 21.5674775,4.20783 C23.38579,3.35854429 25.278715,2.74647286 27.1722275,2.23280143 C30.9686525,1.23005857 34.791515,0.662501429 38.50099,0.340358571 C42.2134025,0.0229014286 45.8159525,-0.0549985714 49.2281525,0.0908442857 C52.639765,0.223215714 55.856915,0.557658571 58.80264,1.03033 C64.68704,1.98270143 69.512765,3.58111571 72.4802275,5.59890143 C73.96014,6.59930143 74.922465,7.78303 75.25264,8.77640143 C75.3554525,9.01303 75.3777775,9.25024429 75.430065,9.44118714 C75.45709,9.63857286 75.46179,9.80843 75.4729525,9.94314429 C75.4847025,10.0837157 75.474715,10.1586871 75.4776525,10.2237014 C75.477065,10.2846157 75.477065,10.3150729 75.477065,10.3150729" id="Fill-20" fill="#42457B" fill-rule="nonzero" mask="url(#mask-6)"></path>
                    <path d="M44.9993863,7.97110286 L17.0790362,7.97110286" id="Fill-21" fill="#FFFFFF" fill-rule="nonzero" mask="url(#mask-6)"></path>
                    <path d="M44.9993863,8.41038857 L17.0790363,8.26396 C16.9168863,8.26337429 16.7858738,8.13100286 16.7864613,7.96934571 C16.7876363,7.80886 16.9180613,7.67941714 17.0790363,7.67824571 L44.9993863,7.53181714 C45.2426113,7.53064571 45.4411863,7.72627429 45.4423613,7.96876 C45.4435363,8.21124571 45.2473113,8.40921714 45.0040863,8.41038857 L44.9993863,8.41038857 Z" id="Fill-22" fill="#42457B" fill-rule="nonzero" mask="url(#mask-6)"></path>
                    <path d="M74.2413175,7.97110286 L62.51658,7.97110286" id="Fill-23" fill="#FFFFFF" fill-rule="nonzero" mask="url(#mask-6)"></path>
                    <path d="M74.2412588,8.41038857 L62.5165212,8.26396 C62.3543712,8.26220286 62.2245338,8.12924571 62.2262962,7.96758857 C62.2286463,7.80827429 62.3578963,7.68058857 62.5165212,7.67824571 L74.2412588,7.53181714 C74.4844838,7.52888857 74.6842338,7.72276 74.6871713,7.96583143 C74.6906963,8.20831714 74.4956463,8.40746 74.2524213,8.41038857 C74.2494838,8.41038857 74.2441963,8.41038857 74.2412588,8.41038857" id="Fill-24" fill="#42457B" fill-rule="nonzero" mask="url(#mask-6)"></path>
                    <path d="M33.61816,24.3514229 L51.78366,24.3514229 L50.19741,29.0734514 L34.5199725,29.0734514 C34.5199725,29.0734514 32.4789975,28.25228 33.61816,24.3514229" id="Fill-25" fill="#D2D4DF" fill-rule="nonzero" mask="url(#mask-6)"></path>
                    <path d="M33.6181012,24.0585657 L51.7836013,23.7657086 L51.8082763,23.7651229 C52.1196513,23.7604371 52.3763888,24.0081943 52.3816763,24.3186229 C52.3828513,24.3947657 52.3675763,24.4709086 52.3405513,24.53768 L50.4758263,29.16658 C50.4153138,29.3171086 50.2437637,29.3897371 50.0933638,29.3294086 C49.9529513,29.27318 49.8801013,29.1220657 49.9188763,28.9803229 L51.2266513,24.1651657 L51.7836013,24.9371371 L33.6181012,24.64428 C33.4559512,24.6419371 33.3267012,24.5083943 33.3290512,24.3467371 C33.3319888,24.1880086 33.4606512,24.0614943 33.6181012,24.0585657" id="Fill-26" fill="#42457B" fill-rule="nonzero" mask="url(#mask-6)"></path>
                    <path d="M27.7499163,69.6086871 C27.7499163,69.6086871 28.3180287,69.5881871 29.3120788,69.5524586 C30.3061287,69.5284443 31.7261163,69.4722157 33.4304537,69.4452729 C35.1347912,69.4206729 37.1228912,69.3679586 39.2531662,69.3556586 C41.3834412,69.3433586 43.6558912,69.3298871 45.9277537,69.3170014 C48.2002037,69.3293014 50.4726537,69.3421871 52.6029287,69.3539014 C54.7326162,69.3621014 56.7213037,69.4195014 58.4250537,69.44293 C60.1293912,69.4687014 61.5499662,69.5278586 62.5440162,69.5512871 C63.5380662,69.5876014 64.1061787,69.6086871 64.1061787,69.6086871 C64.2683287,69.6145443 64.3946412,69.75043 64.3887662,69.9120871 C64.3834787,70.0667157 64.2577537,70.1885443 64.1061787,70.1944014 C64.1061787,70.1944014 63.5380662,70.2154871 62.5440162,70.2518014 C61.5499662,70.27523 60.1293912,70.3343871 58.4250537,70.3601586 C56.7213037,70.3835871 54.7326162,70.4404014 52.6029287,70.4486014 C50.4726537,70.4609014 48.2002037,70.4737871 45.9277537,70.4860871 C43.6558912,70.4732014 41.3834412,70.45973 39.2531662,70.44743 C37.1228912,70.43513 35.1347912,70.3824157 33.4304537,70.3578157 C31.7261163,70.3308729 30.3061287,70.2746443 29.3120788,70.25063 C28.3180287,70.2149014 27.7499163,70.1944014 27.7499163,70.1944014 C27.5877663,70.1885443 27.4608663,70.0526586 27.4667413,69.8910014 C27.4726163,69.7369586 27.5977538,69.6145443 27.7499163,69.6086871" id="Fill-27" fill="#42457B" fill-rule="nonzero" mask="url(#mask-6)"></path>
                    <path d="M0.2903425,80.5216571 C0.2903425,80.5216571 6.1042425,80.4543 14.8250925,80.3535571 C19.18493,80.3307143 24.2720925,80.2668714 29.7229175,80.2651143 C35.173155,80.2545714 40.987055,80.2434429 46.800955,80.2323143 C52.614855,80.2452 58.4281675,80.2580857 63.8789925,80.2703857 C69.32923,80.3031857 74.4163925,80.3342286 78.7768175,80.3605857 C87.49708,80.4572286 93.31098,80.5216571 93.31098,80.5216571 C93.47313,80.5234143 93.603555,80.6557857 93.6017925,80.8180286 C93.60003,80.9773429 93.4701925,81.1056143 93.31098,81.1073714 C93.31098,81.1073714 87.49708,81.1718 78.7768175,81.2684429 C74.4163925,81.2948 69.32923,81.3258429 63.8789925,81.3586429 C58.4281675,81.3709429 52.614855,81.3838286 46.800955,81.3967143 C40.987055,81.3855857 35.173155,81.3744571 29.7229175,81.3639143 C24.2720925,81.3621571 19.18493,81.2983143 14.8250925,81.2754714 C6.1042425,81.1747286 0.2903425,81.1073714 0.2903425,81.1073714 C0.1281925,81.1056143 -0.001645,80.9726571 0.0001175,80.811 C0.00188,80.6516857 0.13113,80.5234143 0.2903425,80.5216571" id="Fill-28" fill="#42457B" fill-rule="nonzero" mask="url(#mask-6)"></path>
                    <path d="M47.28012,45.9156071 L47.28012,45.9156071 C46.6015575,45.9156071 46.0457825,45.3621071 46.0457825,44.6850214 L46.0457825,44.6850214 C46.0457825,44.0085214 46.6015575,43.4550214 47.28012,43.4550214 L47.28012,43.4550214 C47.9586825,43.4550214 48.5144575,44.0085214 48.5144575,44.6850214 L48.5144575,44.6850214 C48.5144575,45.3621071 47.9586825,45.9156071 47.28012,45.9156071" id="Fill-29" fill="#42457B" fill-rule="nonzero" mask="url(#mask-6)"></path>
                    <path d="M37.6752587,45.9156071 L37.6752587,45.9156071 C36.9966962,45.9156071 36.4409213,45.3621071 36.4409213,44.6850214 L36.4409213,44.6850214 C36.4409213,44.0085214 36.9966962,43.4550214 37.6752587,43.4550214 C38.3538213,43.4550214 38.9095962,44.0085214 38.9095962,44.6850214 L38.9095962,44.6850214 C38.9095962,45.3621071 38.3538213,45.9156071 37.6752587,45.9156071" id="Fill-30" fill="#42457B" fill-rule="nonzero" mask="url(#mask-6)"></path>
                    <path d="M33.2839313,39.1125357 C33.2839313,39.1125357 33.6428937,38.8589214 34.2021938,38.52975 C34.7632563,38.1988214 35.5458063,37.8134214 36.3765313,37.50475 C36.7913063,37.3495357 37.2225313,37.22595 37.6367188,37.1263786 C37.8488063,37.0877214 38.0532563,37.0508214 38.2471313,37.0150929 C38.4468813,36.9945929 38.6372312,36.9787786 38.8134813,36.9688214 C38.9920812,36.9711643 39.1583438,36.9752643 39.3040437,36.9875643 C39.4491563,36.9916643 39.5795813,37.0262214 39.6841563,37.0461357 C39.8950688,37.0924071 40.0131563,37.1246214 40.0131563,37.1246214 C40.3239437,37.20955 40.5066563,37.52935 40.4214688,37.8391929 C40.3462687,38.1133071 40.0860062,38.28785 39.8116438,38.2650071 L39.7129438,38.2568071 C39.7129438,38.2568071 39.6218813,38.2497786 39.4673687,38.22635 C39.3886437,38.21815 39.3005187,38.1865214 39.1853687,38.1876929 C39.0725688,38.1847643 38.9468438,38.1654357 38.8070188,38.1548929 C38.6642563,38.1584071 38.5097438,38.1560643 38.3440688,38.1502071 C38.1760438,38.1613357 37.9980313,38.1724643 37.8147313,38.1841786 C37.4446063,38.2298643 37.0462813,38.2937071 36.6491313,38.3926929 C35.8530687,38.5818786 35.0705188,38.87415 34.4906563,39.1096071 C33.9072688,39.3468214 33.5383188,39.5336643 33.5383188,39.5336643 C33.4167063,39.59575 33.2680688,39.5471357 33.2057938,39.4258929 C33.1493938,39.3151929 33.1852313,39.1822357 33.2839313,39.1125357" id="Fill-31" fill="#42457B" fill-rule="nonzero" mask="url(#mask-6)"></path>
                    <path d="M52.6203188,39.5651757 C52.6203188,39.5651757 52.2548938,39.3765757 51.6744438,39.1352614 C51.0975188,38.8968757 50.3179063,38.60109 49.5247813,38.4066329 C49.1288063,38.3053043 48.7310688,38.2391186 48.3621188,38.1916757 C48.1788188,38.17879 48.0013938,38.1659043 47.8333688,38.15419 C47.6682813,38.1594614 47.5131813,38.15829 47.3704188,38.1553614 C47.2311813,38.1659043 47.1054563,38.18289 46.9926563,38.1858186 C46.8775063,38.1846471 46.7887938,38.2168614 46.7100688,38.2250614 C46.5555563,38.2490757 46.4650813,38.2572757 46.4650813,38.2572757 L46.3499313,38.2672329 C46.0297438,38.2959329 45.7465688,38.0604757 45.7177813,37.7412614 C45.6913438,37.4495757 45.8863938,37.1889329 46.1648688,37.1245043 C46.1648688,37.1245043 46.2841313,37.09639 46.4938688,37.0477757 C46.5984438,37.0272757 46.7288688,36.9927186 46.8739812,36.9886186 C47.0196813,36.97749 47.1859438,36.9704614 47.3645438,36.9681186 C47.5407938,36.9786614 47.7311438,36.9915471 47.9308938,37.0114614 C48.1253563,37.0454329 48.3303937,37.0817471 48.5424813,37.1192329 C48.9572563,37.2164614 49.3896563,37.3377043 49.8056063,37.4911614 C50.6392688,37.7945614 51.4241688,38.1764471 51.9887563,38.5038614 C52.5504063,38.8289329 52.9128938,39.0813757 52.9128938,39.0813757 C53.0415563,39.1704043 53.0738688,39.3467043 52.9839813,39.4749757 C52.9017313,39.59329 52.7448688,39.6290186 52.6203188,39.5651757" id="Fill-32" fill="#42457B" fill-rule="nonzero" mask="url(#mask-6)"></path>
                    <path d="M40.0814237,51.9902843 C40.0814237,51.9902843 40.1901112,52.0453414 40.3798737,52.14257 C40.5737487,52.2392129 40.8627987,52.3657271 41.2141237,52.5057129 C41.5677987,52.63867 41.9855112,52.7868557 42.4425862,52.9016557 C42.6705362,52.9637414 42.9078863,53.0170414 43.1511112,53.05687 C43.3931612,53.1107557 43.6410862,53.12657 43.8890112,53.1570271 C44.1375237,53.1816271 44.3842737,53.1745986 44.6292612,53.1827986 C44.8683737,53.1576129 45.1115987,53.1570271 45.3366112,53.11427 C45.5569237,53.0592129 45.7860488,53.0439843 45.9793363,52.9637414 C46.1726237,52.8870129 46.3717862,52.8430843 46.5304113,52.7528843 C46.6913863,52.6656129 46.8394362,52.5859557 46.9704488,52.5150843 C47.0961737,52.4360129 47.1919362,52.3463986 47.2788862,52.2831414 C47.4498488,52.1513557 47.5473737,52.0757986 47.5473737,52.0757986 L47.5849738,52.0465129 C47.7059987,51.9527986 47.8804863,51.9750557 47.9738988,52.0957129 C48.0631987,52.2099271 48.0473363,52.3727557 47.9415863,52.4693986 C47.9415863,52.4693986 47.8381862,52.5631129 47.6560613,52.7282843 C47.5632363,52.8079414 47.4580737,52.91747 47.3205988,53.0193843 C47.1754862,53.1119271 47.0115737,53.21677 46.8323862,53.3309843 C46.6543738,53.4481271 46.4334737,53.5184129 46.2125738,53.62267 C45.9916738,53.7304414 45.7378737,53.77027 45.4840738,53.8505129 C45.2279238,53.91787 44.9564988,53.9407129 44.6827237,53.98757 C44.4089488,53.99987 44.1275362,54.0268129 43.8496488,54.0197843 C43.5729362,54.0074843 43.2921112,54.00807 43.0230363,53.9694129 C42.7504362,53.9442271 42.4854737,53.9049843 42.2316737,53.8551986 C41.7217237,53.76617 41.2570112,53.63907 40.8610362,53.5213414 C40.4668237,53.39717 40.1425237,53.28237 39.9163362,53.1898271 C39.6866237,53.0996271 39.5503237,53.0346129 39.5567862,53.0381271 C39.2665612,52.8940414 39.1484738,52.5420271 39.2935862,52.2526843 C39.4381112,51.9633414 39.7911987,51.8456129 40.0814237,51.9902843" id="Fill-33" fill="#D2D4DF" fill-rule="nonzero" mask="url(#mask-6)"></path>
                    <path d="M40.1197875,51.3741129 C40.1197875,51.3741129 40.2302375,51.4256557 40.4241125,51.5158557 C40.6215125,51.60547 40.9135,51.7231986 41.26835,51.8526414 C41.6237875,51.97857 42.0444375,52.1144557 42.5026875,52.22457 C42.9597625,52.3370271 43.4544375,52.4289843 43.9497,52.47057 C44.1988,52.5062986 44.4437875,52.4893129 44.688775,52.5021986 C44.930825,52.4957557 45.1675875,52.4723271 45.3973,52.4529986 C45.6187875,52.40497 45.84145,52.3768557 46.0412,52.3194557 C46.2356625,52.2485843 46.427775,52.19587 46.5940375,52.1244129 C46.754425,52.0406557 46.9013,51.9633414 47.031725,51.8948129 C47.1639125,51.8274557 47.2532125,51.7319843 47.34075,51.6728271 C47.50995,51.5433843 47.6068875,51.4695843 47.6068875,51.4695843 L47.6468375,51.4385414 C47.76845,51.3459986 47.94235,51.3688414 48.035175,51.4900843 C48.1238875,51.6048843 48.10685,51.7671271 48.0011,51.8631843 C48.0011,51.8631843 47.896525,51.9568986 47.7144,52.1208986 C47.6186375,52.1976271 47.518175,52.3141843 47.372475,52.40497 C47.226775,52.4957557 47.0616875,52.5988414 46.8819125,52.7107129 C46.6945,52.8079414 46.479475,52.8870129 46.2568125,52.9842414 C46.0300375,53.0679986 45.781525,53.1201271 45.527725,53.1927557 C45.2709875,53.2349271 45.0030875,53.2806129 44.731075,53.3075557 C44.460825,53.3145843 44.1805875,53.3514843 43.9074,53.3333271 C43.3557375,53.32747 42.8093625,53.2665557 42.3052875,53.1810414 C41.79945,53.09787 41.3359125,52.9854129 40.9417,52.8776414 C40.5486625,52.76577 40.223775,52.6620986 39.997,52.5783414 L39.6368625,52.44187 C39.333125,52.32707 39.180375,51.9885271 39.2961125,51.6857129 C39.4112625,51.3828986 39.751425,51.2306129 40.0551625,51.3454129 C40.0680875,51.3506843 40.0810125,51.3559557 40.09335,51.3618129 L40.1197875,51.3741129 Z" id="Fill-34" fill="#42457B" fill-rule="nonzero" mask="url(#mask-6)"></path>
                    <path d="M64.80454,36.3353714 L72.43969,49.3522857 L72.4461525,49.364 C72.56424,49.5649 72.54309,49.8085571 72.4132525,49.9848571 L64.7064275,60.4029571 C64.6100775,60.5335714 64.42619,60.5611 64.295765,60.4650429 C64.168865,60.3719143 64.13949,60.1956143 64.2258525,60.0661714 L71.4521025,49.3112857 L71.4250775,49.9438571 L63.790515,36.9269429 C63.6266025,36.6475571 63.7206025,36.2885143 64.00084,36.1251 C64.2810775,35.9622714 64.6406275,36.0559857 64.80454,36.3353714" id="Fill-35" fill="#42457B" fill-rule="nonzero" mask="url(#mask-6)"></path>
                    <path d="M28.1226262,35.5218143 L20.6566763,49.0811 L20.6220138,48.4625857 L27.8476762,59.2174714 C27.9381513,59.3516 27.9023138,59.5337571 27.7671888,59.6239571 C27.6361762,59.7112286 27.4599263,59.6790143 27.3671012,59.5542571 L19.6608638,49.1361571 C19.5257387,48.9534143 19.5175138,48.7162 19.6197388,48.5293571 L19.6262012,48.5170571 L27.0927388,34.9583571 C27.2490137,34.6742857 27.6056262,34.5706143 27.8905637,34.7264143 C28.1749137,34.8822143 28.2789012,35.2383286 28.1226262,35.5218143" id="Fill-36" fill="#42457B" fill-rule="nonzero" mask="url(#mask-6)"></path>
                    <g id="Group-39" mask="url(#mask-6)" fill-rule="nonzero" fill="#D2D4DF">
                        <g transform="translate(39.950000, 56.814286)">
                            <path d="M8.57191875,6.01405571 C8.12306875,5.74989857 7.55554375,5.88461286 7.26414375,6.31042714 C7.23770625,6.36079857 7.21009375,6.40999857 7.18071875,6.45861286 C6.71541875,7.22004143 5.88704375,7.72609857 4.94175625,7.72609857 C4.68913125,7.72609857 4.44414375,7.69037 4.21266875,7.62242714 C4.18564375,7.61481286 4.15803125,7.60602714 4.13159375,7.59724143 C4.13041875,7.59665571 4.12924375,7.59607 4.12748125,7.59607 C3.67334375,7.46311286 3.21156875,7.46077 2.78151875,7.56737 C2.58470625,7.61598429 2.41491875,7.44905571 2.46250625,7.25284143 C2.56884375,6.81238429 2.56766875,6.33912714 2.43606875,5.87348429 C2.43606875,5.87231286 2.43548125,5.87114143 2.43489375,5.86997 C2.42608125,5.84244143 2.41785625,5.81491286 2.41021875,5.78738429 C2.34324375,5.55134143 2.30799375,5.30241286 2.30799375,5.04469857 C2.30799375,3.56342714 3.48710625,2.36271286 4.94175625,2.36271286 C5.88645625,2.36271286 6.71541875,2.86935571 7.18013125,3.63019857 C7.21009375,3.67881286 7.23829375,3.72859857 7.26473125,3.77955571 C7.55554375,4.20478429 8.12306875,4.33949857 8.57250625,4.07534143 C9.01606875,3.81469857 9.18644375,3.25651286 8.98140625,2.79028429 C8.94850625,2.72878429 8.91384375,2.66845571 8.87859375,2.60929857 C8.07019375,1.25747 6.60966875,0.354884286 4.94175625,0.354884286 C2.75449375,0.354884286 0.92325625,1.90761286 0.45325625,3.98982714 C0.37629375,4.32837 0.33634375,4.68155571 0.33634375,5.04469857 C0.33634375,6.28055571 0.80575625,7.40512714 1.57361875,8.24269857 C1.64646875,8.32294143 1.72225625,8.39967 1.80039375,8.47464143 C2.62348125,9.25598429 3.72798125,9.73451286 4.94175625,9.73451286 C5.29836875,9.73451286 5.64499375,9.69292714 5.97810625,9.61502714 C7.20421875,9.32802714 8.24291875,8.54317 8.87859375,7.48009857 C8.91384375,7.42152714 8.94733125,7.36178429 8.98023125,7.30087 C8.98023125,7.30087 8.98023125,7.30087 8.98081875,7.30087 C9.18703125,6.83464143 9.01606875,6.27528429 8.57191875,6.01405571" id="Fill-37"></path>
                            <path d="M6.00689375,3.89054857 L4.54166875,5.03679143 L3.83901875,4.70762 C3.79671875,4.68067714 3.53175625,4.62562 3.36960625,4.79196286 C3.20804375,4.95713429 3.20804375,5.22656286 3.36960625,5.39232 L4.24909375,6.29256286 C4.41124375,6.45832 4.67326875,6.45832 4.83541875,6.29256286 L6.59380625,4.49090571 C6.75595625,4.32456286 6.75595625,4.05630571 6.59380625,3.88996286 C6.43165625,3.72420571 6.16904375,3.72420571 6.00689375,3.89054857" id="Fill-38"></path>
                        </g>
                    </g>
                </g>
            </g>
        </g>
    </g>
</svg>