<?xml version="1.0" encoding="UTF-8"?>
<svg width="190px" height="126px" viewBox="0 0 190 126" version="1.1" xmlns="http://www.w3.org/2000/svg" xmlns:xlink="http://www.w3.org/1999/xlink">
    <!-- Generator: Sketch 46.2 (44496) - http://www.bohemiancoding.com/sketch -->
    <title>mid</title>
    <desc>Created with Sketch.</desc>
    <defs>
        <polygon id="path-1" points="0 81.4142857 93.601675 81.4142857 93.601675 0.0357285714 0 0.0357285714"></polygon>
        <polygon id="path-3" points="0.1368875 10.9071714 36.684675 10.9071714 36.684675 0.2173 0.1368875 0.2173"></polygon>
        <polygon id="path-5" points="46.8009168 81.4142857 93.601675 81.4142857 93.601675 0.0358979726 0.000158516389 0.0358979726 0.000158516389 81.4142857"></polygon>
    </defs>
    <g id="Components" stroke="none" stroke-width="1" fill="none" fill-rule="evenodd">
        <g id="mid">
            <g id="Page-1" transform="translate(48.000000, 27.000000)">
                <g id="Group-11" transform="translate(0.000000, 0.549986)">
                    <path d="M26.003925,80.8303286 C26.003925,80.8303286 21.2939375,71.1795143 13.264575,67.4701857 C19.8557375,70.3495571 25.7372,75.3503857 25.7372,75.3503857 C25.7372,75.3503857 22.622275,67.5498429 18.0521125,63.9418429 L27.7129625,69.1722714 L27.7129625,80.6071714 L26.003925,80.8303286 Z" id="Fill-1" fill="#9FD997" fill-rule="nonzero"></path>
                    <path d="M25.60936,81.02584 C24.9237475,79.6611257 24.1106475,78.3303829 23.2411475,77.0541114 C23.030235,76.7302114 22.7934725,76.4238829 22.57081,76.1075971 C22.34991,75.7895543 22.10786,75.4879114 21.871685,75.1821686 C21.6372725,74.8740829 21.396985,74.5706829 21.1437725,74.2789971 C20.8911475,73.9867257 20.65321,73.6798114 20.3882475,73.3992543 L19.601585,72.5476257 C19.333685,72.2694114 19.0510975,72.00584 18.7761475,71.7340686 C18.50531,71.4576114 18.21626,71.2028257 17.9219225,70.9533114 C17.62641,70.7055543 17.347935,70.43554 17.037735,70.20594 L16.11536,69.5077686 C15.811035,69.2705543 15.4732225,69.0831257 15.1536225,68.8675829 C14.831085,68.6567257 14.5085475,68.4446971 14.1619225,68.2765971 L13.141435,67.7359829 L13.141435,67.7359829 L13.124985,67.7271971 C12.981635,67.6510543 12.927585,67.4741686 13.0033725,67.3312543 C13.0762225,67.1947829 13.2430725,67.1397257 13.38231,67.2018114 C13.949835,67.4554257 14.52911,67.6856114 15.0854725,67.9626543 C15.65006,68.2238829 16.20466,68.50444 16.7551475,68.7920257 C17.3073975,69.0778543 17.84966,69.3806686 18.391335,69.6858257 C18.929485,69.9956686 19.46646,70.30844 19.994035,70.6352686 C21.05271,71.2854114 22.0931725,71.96484 23.1130725,72.67414 C24.134735,73.3869543 25.1305475,74.1149971 26.1175475,74.9039543 L26.118135,74.90454 C26.3666475,75.1060257 26.404835,75.47034 26.202735,75.7180971 C26.120485,75.8194257 26.010035,75.8856114 25.892535,75.9148971 C25.7521225,75.95004 25.554135,75.9283686 25.420185,75.8569114 C25.337935,75.8112257 25.3326475,75.7971686 25.28741,75.7626114 C25.25451,75.7344971 25.2127975,75.69584 25.1916475,75.6718257 L25.1458225,75.61384 C25.0788475,75.5306686 25.041835,75.4674114 25.0012975,75.4023971 C24.9225725,75.27354 24.8579475,75.1534686 24.79626,75.0339829 L24.440235,74.33054 L23.7663725,72.9423971 C23.31811,72.0228257 22.839885,71.1214114 22.346385,70.2299543 C21.852885,69.3384971 21.328835,68.4646114 20.7466225,67.6328971 C20.1685225,66.8000114 19.552235,65.9923114 18.86251,65.2607543 C18.692135,65.0750829 18.51236,64.90054 18.332585,64.7259971 L18.055285,64.47414 L17.9853725,64.4114686 C17.9559975,64.3692971 17.968335,64.4325543 17.8431975,64.2433686 C17.76741,64.08054 17.82616,63.8966257 17.9501225,63.8023257 C18.0123975,63.75254 18.102285,63.7214971 18.1874725,63.7255971 C18.2603225,63.7203257 18.3742975,63.7806543 18.3625475,63.7765543 L19.7220225,64.5034257 L22.452135,65.9384257 C24.287485,66.8661971 26.1198975,67.7998257 27.993435,68.6573114 C28.2889475,68.7926114 28.418785,69.1411114 28.2830725,69.4357257 C28.14736,69.73034 27.7977975,69.8597829 27.502285,69.7244829 C27.478785,69.71394 27.45411,69.6998829 27.43296,69.6869971 C25.6910225,68.5870257 23.90796,67.5631971 22.127835,66.5335114 L19.4341475,65.03174 L18.08231,64.2913971 C18.043535,64.2703114 18.12696,64.3177543 18.16691,64.3113114 C18.22096,64.31424 18.2779475,64.29374 18.31496,64.2632829 C18.38781,64.2088114 18.424235,64.0998686 18.37841,63.9950257 C18.283235,63.8626543 18.35491,63.9604686 18.370185,63.9633971 L18.4447975,64.0278257 L18.741485,64.28964 C18.93301,64.47004 19.124535,64.65044 19.3048975,64.8402114 C20.036335,65.5922686 20.6808225,66.4128543 21.2859475,67.2562829 C21.88461,68.1043971 22.454485,68.9689114 23.0014475,69.8468971 C23.549585,70.7237114 24.0577725,71.6227829 24.5759475,72.5130686 L25.35086,73.8414686 C25.4806975,74.0593543 25.6087725,74.2795829 25.74331,74.4828257 C25.8096975,74.5853257 25.878435,74.6848971 25.94306,74.76924 C25.974785,74.81024 26.0082725,74.8541686 26.0258975,74.8670543 L26.0411725,74.88404 C26.0411725,74.88404 26.0270725,74.86354 26.0176725,74.8570971 C25.99711,74.8418686 26.0141475,74.8535829 25.95951,74.8219543 C25.857285,74.7575257 25.690435,74.7428829 25.5817475,74.7850543 L25.35556,75.7954114 L25.3549725,75.7948257 C24.44611,75.0082114 23.4808475,74.2397543 22.508535,73.5029257 C21.5326975,72.7649257 20.534535,72.0562114 19.5175725,71.37444 C19.01056,71.0312114 18.4941475,70.7026257 17.97656,70.3769686 C17.4554475,70.0559971 16.93316,69.7361971 16.4014725,69.4333829 C15.8703725,69.1288114 15.3357475,68.8312686 14.7917225,68.5524686 C14.25416,68.2578543 13.6954475,68.0100971 13.1467225,67.7383257 L13.388185,67.2041543 L13.3887725,67.20474 L14.4521475,67.74594 C14.81346,67.9157971 15.1489225,68.1278257 15.4849725,68.3398543 C15.8174975,68.5559829 16.16941,68.74634 16.48666,68.9847257 L17.446635,69.6881686 C17.7691725,69.9195257 18.05881,70.1912971 18.3660725,70.4408114 C18.67216,70.6932543 18.9735475,70.9503829 19.2555475,71.2285971 C19.5410725,71.5021257 19.8348225,71.76804 20.113885,72.0485971 L20.9322725,72.9072543 C21.2083975,73.1913257 21.455735,73.4994114 21.718935,73.7946114 C21.9827225,74.0892257 22.23241,74.3955543 22.47681,74.7059829 C22.7229725,75.0146543 22.97501,75.3192257 23.2058975,75.6396114 C23.43796,75.9588257 23.68471,76.2680829 23.9050225,76.5954971 C24.81506,77.88934 25.6581225,79.21774 26.3983725,80.6345829 C26.5111725,80.8501257 26.42716,81.1154543 26.21096,81.2273257 C25.9953475,81.3391971 25.72921,81.2560257 25.6169975,81.0404829 C25.61641,81.0393114 25.615235,81.03814 25.6146475,81.0363829 L25.60936,81.02584 Z" id="Fill-3" fill="#42457B" fill-rule="nonzero"></path>
                    <path d="M63.9917338,75.0098514 L71.1521838,66.2024657 C71.5722463,65.6858657 72.3959213,66.1421371 72.1779587,66.7706086 L67.8328087,79.3171943 L73.3276963,74.52898 C73.8423462,74.0803229 74.6290087,74.5693943 74.4515837,75.2277371 L73.0033962,80.6004943 L64.1057088,80.6004943 L63.9917338,75.0098514 Z" id="Fill-5" fill="#9FD997" fill-rule="nonzero"></path>
                    <path d="M63.5955825,74.6897 C65.1113325,72.9858571 66.5777325,71.2421857 68.0476575,69.5020286 L70.22082,66.8651429 L71.3071075,65.5461143 L71.340595,65.5051143 L71.3940575,65.4459571 C71.418145,65.4207714 71.4351825,65.3979286 71.5009825,65.3487286 C71.6149575,65.2608714 71.71542,65.2315857 71.836445,65.2058143 C72.0720325,65.1753571 72.30527,65.2474 72.473295,65.4002714 C72.647195,65.5461143 72.750595,65.7962143 72.72592,66.0293286 C72.684795,66.2905571 72.6325075,66.3532286 72.5890325,66.5078571 C71.86112,68.6638714 71.10677,70.8111 70.4058825,72.9770714 C69.68972,75.1371857 68.98707,77.3019857 68.316145,79.4779143 L68.31497,79.4826 L67.49717,78.9343714 C68.4718325,78.2039857 69.4141825,77.4378714 70.35242,76.6670714 C70.8277075,76.2881143 71.28067,75.8845571 71.7453825,75.4933 L73.1518575,74.2990286 C73.46852,74.0278429 74.014895,74.0196429 74.350945,74.2802857 C74.5254325,74.4038714 74.663495,74.5860286 74.729295,74.7980571 C74.802145,75.0007143 74.7710075,75.2607714 74.72577,75.4154 C74.5771325,76.0028714 74.41557,76.5868286 74.282795,77.1789857 C74.0002075,78.3580286 73.7252575,79.5388286 73.495545,80.7325143 C73.44267,81.0089714 73.17477,81.1899571 72.89747,81.1366571 C72.62017,81.0839429 72.438045,80.8168571 72.4915075,80.5404 C72.4962075,80.5163857 72.5032575,80.4906143 72.510895,80.4683571 C72.9121575,79.3209429 73.2681825,78.1618143 73.61657,77.0003429 C73.7992825,76.4222429 73.9532075,75.8359429 74.1200575,75.2531571 C74.1917325,75.0305857 74.1388575,74.8929429 73.993745,74.7705286 C73.8439325,74.6627571 73.657695,74.6481143 73.5008325,74.7711143 L72.15722,75.9636286 C71.7066075,76.3701143 71.244245,76.7637143 70.8042075,77.1825 C69.9123825,78.0060143 69.02467,78.8348 68.1686825,79.6999 C67.97422,79.8961143 67.6563825,79.8984571 67.45957,79.7045857 C67.3132825,79.5605 67.2745075,79.3496429 67.343245,79.1698286 L67.3508825,79.1510857 L67.352645,79.1464 C68.1710325,77.0214286 68.9582825,74.8853286 69.73202,72.7445429 C70.5210325,70.6096143 71.255995,68.4559429 72.0179825,66.3110571 C72.057345,66.1945 72.1331325,65.9965286 72.1284325,65.9754429 C72.1331325,65.9244857 72.1202075,65.8823143 72.076145,65.8424857 C72.03502,65.8003143 71.96922,65.7856714 71.92222,65.7891857 C71.9051825,65.7932857 71.866995,65.8091 71.866995,65.8091 C71.871695,65.7973857 71.8405575,65.8272571 71.815295,65.8542 L71.7970825,65.8729429 C71.82587,65.8401429 71.79767,65.8741143 71.79767,65.8741143 L71.7641825,65.9157 L70.6949325,67.2482 L68.55702,69.9137857 C67.1534825,71.7078286 65.74642,73.4989429 64.38812,75.3298857 C64.220095,75.5559714 63.900495,75.6034143 63.67372,75.4364857 C63.4475325,75.2695571 63.3993575,74.9509286 63.5673825,74.7248429 C63.576195,74.7125429 63.5861825,74.7008286 63.5955825,74.6897" id="Fill-7" fill="#42457B" fill-rule="nonzero"></path>
                    <mask id="mask-2" fill="white">
                        <use xlink:href="#path-1"></use>
                    </mask>
                    <g id="Clip-10" fill-rule="nonzero"></g>
                    <polygon id="Fill-9" fill="#F5F6FB" fill-rule="nonzero" mask="url(#mask-2)" points="27.7129625 80.6071714 64.297175 80.6071714 64.297175 11.5461857 27.7129625 11.5461857"></polygon>
                </g>
                <g id="Group-14" transform="translate(27.612500, 70.249986)">
                    <mask id="mask-4" fill="white">
                        <use xlink:href="#path-3"></use>
                    </mask>
                    <g id="Clip-13" fill-rule="nonzero"></g>
                    <polygon id="Fill-12" fill="#D2D4DF" fill-rule="nonzero" mask="url(#mask-4)" points="0.1368875 11.0032286 36.684675 11.0032286 36.684675 0.2173 0.1368875 0.2173"></polygon>
                </g>
                <g id="Group-45" transform="translate(0.000000, 0.549986)">
                    <mask id="mask-6" fill="white">
                        <use xlink:href="#path-5"></use>
                    </mask>
                    <g id="Clip-16" fill-rule="nonzero"></g>
                    <polygon id="Stroke-15" stroke="#42457B" stroke-width="1.17142857" mask="url(#mask-6)" fill-rule="nonzero" points="27.7129625 80.6071714 64.297175 80.6071714 64.297175 11.5461857 27.7129625 11.5461857"></polygon>
                    <path d="M67.4165063,17.7455029 L25.2251938,17.7455029 C24.4790687,17.7455029 23.8686563,17.1369457 23.8686563,16.3930886 L23.8686563,11.34306 C23.8686563,10.5992029 24.4790687,9.99064571 25.2251938,9.99064571 L67.4165063,9.99064571 C68.1626313,9.99064571 68.7730438,10.5992029 68.7730438,11.34306 L68.7730438,16.3930886 C68.7730438,17.1369457 68.1626313,17.7455029 67.4165063,17.7455029" id="Fill-17" fill="#D2D4DF" fill-rule="nonzero" mask="url(#mask-6)"></path>
                    <path d="M67.4165063,17.7455029 L25.2251938,17.7455029 C24.4790687,17.7455029 23.8686563,17.1369457 23.8686563,16.3930886 L23.8686563,11.34306 C23.8686563,10.5992029 24.4790687,9.99064571 25.2251938,9.99064571 L67.4165063,9.99064571 C68.1626313,9.99064571 68.7730438,10.5992029 68.7730438,11.34306 L68.7730438,16.3930886 C68.7730438,17.1369457 68.1626313,17.7455029 67.4165063,17.7455029 Z" id="Stroke-18" stroke="#42457B" stroke-width="1.17142857" stroke-linecap="round" stroke-linejoin="round" mask="url(#mask-6)" fill-rule="nonzero"></path>
                    <path d="M75.04255,10.3308871 L75.04255,10.9898157 C75.04255,11.4829871 74.69005,11.9000157 74.0438,11.9000157 L17.7378,11.9000157 C17.09155,11.9000157 16.498175,11.4829871 16.498175,10.9898157 L16.498175,10.3308871 L16.498175,10.0485729 C16.498175,4.83864429 29.599425,0.615644286 45.767425,0.615644286 C61.935425,0.615644286 75.04255,4.83864429 75.04255,10.0485729 L75.04255,10.3308871 Z" id="Fill-19" fill="#F5F6FB" fill-rule="nonzero" mask="url(#mask-6)"></path>
                    <path d="M74.6082112,10.3308871 C74.6082112,10.3308871 74.6082112,10.30043 74.6076237,10.2395157 C74.6046862,10.1838729 74.6129112,10.0778586 74.5999863,9.98063 C74.5876487,9.87871571 74.5841238,9.75161571 74.5629737,9.60167286 C74.5153862,9.45583 74.5053987,9.27777286 74.4178612,9.09210143 C74.1564237,8.32833 73.3439112,7.30508714 71.9521237,6.38961571 C70.5656237,5.47063 68.6756362,4.61665857 66.4172863,3.89857286 C64.1548237,3.18634429 61.5292862,2.58364429 58.6287987,2.13030143 C55.7277237,1.68223 52.5528737,1.37004429 49.1847362,1.25875857 C45.8189487,1.15860143 42.2557612,1.16680143 38.5915238,1.45497286 C34.9290487,1.73904429 31.1537737,2.26560143 27.4272612,3.21387286 C25.5701737,3.69884429 23.7171987,4.28104429 21.9658612,5.08054429 C21.0922487,5.48058714 20.2409612,5.93100143 19.4601737,6.46868714 C18.6829112,7.00520143 17.9702737,7.63543 17.4720737,8.38221571 C17.2470613,8.75531571 17.0549487,9.18171571 16.9867987,9.55130143 C16.9609487,9.64735857 16.9621238,9.78910143 16.9486112,9.90565857 C16.9439112,9.95193 16.9362737,10.0620443 16.9350987,10.0556014 L16.9339238,10.2401014 L16.9309862,10.9775157 C16.8939737,11.1333157 17.2212112,11.42383 17.5737112,11.4630729 C17.7340987,11.4870871 18.0090487,11.4742014 18.2505113,11.4788871 L18.9878237,11.4824014 C20.9535987,11.4917729 22.9111487,11.5011443 24.8540112,11.50993 C28.7391487,11.5280871 32.5625987,11.5462443 36.2626737,11.5638157 C39.9627487,11.5772871 43.5400362,11.5907586 46.9316738,11.6036443 C50.3233112,11.5942729 53.5304737,11.5854871 56.4902987,11.5778729 C62.4105362,11.5462443 67.3443612,11.5204729 70.7976862,11.5023157 C71.6613112,11.4964586 72.4321112,11.4917729 73.1024487,11.4870871 C73.4379112,11.4847443 73.7481112,11.4829871 74.0324612,11.48123 C74.2457237,11.4794729 74.3843737,11.41973 74.4689738,11.3430014 C74.5529863,11.2703729 74.5958737,11.1626014 74.6052737,11.0800157 C74.6193737,10.9710729 74.6082112,10.81293 74.6105612,10.6922729 C74.6087988,10.4538871 74.6082112,10.3308871 74.6082112,10.3308871 M75.4771238,10.3308871 C75.4771238,10.3308871 75.4759488,10.4538871 75.4747738,10.6922729 C75.4688987,10.8094157 75.4847613,10.94823 75.4565613,11.1883729 C75.4207238,11.4519443 75.2967613,11.7459729 75.0306238,11.9796729 C74.7697738,12.2127871 74.3873113,12.3252443 74.0324613,12.3188014 C73.7481113,12.3170443 73.4379113,12.3152871 73.1024488,12.3129443 C72.4321113,12.3082586 71.6613113,12.3035729 70.7976862,12.2983014 C67.3443613,12.2795586 62.4105363,12.2537871 56.4902988,12.2221586 C53.5304738,12.2145443 50.3233113,12.2057586 46.9316738,12.1963871 C43.5400363,12.2092729 39.9627488,12.2227443 36.2626737,12.2362157 C32.5625987,12.2537871 28.7391487,12.2719443 24.8540112,12.2901014 C22.9111487,12.2988871 20.9535988,12.3082586 18.9878237,12.31763 L18.2505113,12.3211443 C18.0002363,12.3152871 17.7805112,12.3404729 17.4520987,12.3029871 C17.1377862,12.2549586 16.8393362,12.1430871 16.5737863,11.9369157 C16.3164612,11.7448014 16.0614863,11.39513 16.0655987,10.9775157 L16.0620737,10.2401014 L16.0614863,10.0556014 L16.0755863,9.83771571 C16.0890988,9.71061571 16.0838113,9.60343 16.1125987,9.45993 C16.2112987,8.85430143 16.4445363,8.37811571 16.7183112,7.90544429 C17.3081613,7.00285857 18.1006987,6.30585857 18.9325988,5.71721571 C19.7691987,5.12974429 20.6604362,4.64945857 21.5675363,4.22364429 C23.3858488,3.37435857 25.2787737,2.76228714 27.1722862,2.24861571 C30.9687112,1.24587286 34.7915738,0.678315714 38.5010487,0.356172857 C42.2134613,0.0387157143 45.8160113,-0.0391842857 49.2282113,0.106658571 C52.6398237,0.23903 55.8569738,0.573472857 58.8026987,1.04614429 C64.6870988,1.99851571 69.5128238,3.59693 72.4802863,5.61471571 C73.9601988,6.61511571 74.9225238,7.79884429 75.2526988,8.79221571 C75.3555113,9.02884429 75.3778363,9.26605857 75.4301238,9.45700143 C75.4571488,9.65438714 75.4618488,9.82424429 75.4730113,9.95895857 C75.4847613,10.09953 75.4747738,10.1745014 75.4777113,10.2395157 C75.4771238,10.30043 75.4771238,10.3308871 75.4771238,10.3308871" id="Fill-20" fill="#42457B" fill-rule="nonzero" mask="url(#mask-6)"></path>
                    <path d="M44.999445,7.98691714 L17.079095,7.98691714" id="Fill-21" fill="#FFFFFF" fill-rule="nonzero" mask="url(#mask-6)"></path>
                    <path d="M44.999445,8.42620286 L17.079095,8.27977429 C16.916945,8.27918857 16.7859325,8.14681714 16.78652,7.98516 C16.787695,7.82467429 16.91812,7.69523143 17.079095,7.69406 L44.999445,7.54763143 C45.24267,7.54646 45.441245,7.74208857 45.44242,7.98457429 C45.443595,8.22706 45.24737,8.42503143 45.004145,8.42620286 L44.999445,8.42620286 Z" id="Fill-22" fill="#42457B" fill-rule="nonzero" mask="url(#mask-6)"></path>
                    <path d="M74.2413763,7.98691714 L62.5166388,7.98691714" id="Fill-23" fill="#FFFFFF" fill-rule="nonzero" mask="url(#mask-6)"></path>
                    <path d="M74.2413763,8.42620286 L62.5166387,8.27977429 C62.3544887,8.27801714 62.2246512,8.14506 62.2264137,7.98340286 C62.2287637,7.82408857 62.3580137,7.69640286 62.5166387,7.69406 L74.2413763,7.54763143 C74.4846012,7.54470286 74.6843513,7.73857429 74.6872888,7.98164571 C74.6908138,8.22413143 74.4957638,8.42327429 74.2525388,8.42620286 C74.2496012,8.42620286 74.2443138,8.42620286 74.2413763,8.42620286" id="Fill-24" fill="#42457B" fill-rule="nonzero" mask="url(#mask-6)"></path>
                    <path d="M33.6182188,24.3672371 L51.7837188,24.3672371 L50.1974687,29.0892657 L34.5200313,29.0892657 C34.5200313,29.0892657 32.4790562,28.2680943 33.6182188,24.3672371" id="Fill-25" fill="#D2D4DF" fill-rule="nonzero" mask="url(#mask-6)"></path>
                    <path d="M33.61816,24.07438 L51.78366,23.7815229 L51.808335,23.7809371 C52.11971,23.7762514 52.3764475,24.0240086 52.381735,24.3344371 C52.38291,24.41058 52.367635,24.4867229 52.34061,24.5534943 L50.475885,29.1823943 C50.4153725,29.3329229 50.2438225,29.4055514 50.0934225,29.3452229 C49.95301,29.2889943 49.88016,29.13788 49.918935,28.9961371 L51.22671,24.18098 L51.78366,24.9529514 L33.61816,24.6600943 C33.45601,24.6577514 33.32676,24.5242086 33.32911,24.3625514 C33.3320475,24.2038229 33.46071,24.0773086 33.61816,24.07438" id="Fill-26" fill="#42457B" fill-rule="nonzero" mask="url(#mask-6)"></path>
                    <path d="M47.2801787,45.56248 L47.2801787,45.56248 C46.6016162,45.56248 46.0458412,45.00898 46.0458412,44.3318943 L46.0458412,44.3318943 C46.0458412,43.6553943 46.6016162,43.1018943 47.2801787,43.1018943 C47.9587412,43.1018943 48.5145162,43.6553943 48.5145162,44.3318943 L48.5145162,44.3318943 C48.5145162,45.00898 47.9587412,45.56248 47.2801787,45.56248" id="Fill-27" fill="#42457B" fill-rule="nonzero" mask="url(#mask-6)"></path>
                    <path d="M37.6753175,45.56248 L37.6753175,45.56248 C36.996755,45.56248 36.44098,45.00898 36.44098,44.3318943 L36.44098,44.3318943 C36.44098,43.6553943 36.996755,43.1018943 37.6753175,43.1018943 L37.6753175,43.1018943 C38.35388,43.1018943 38.909655,43.6553943 38.909655,44.3318943 L38.909655,44.3318943 C38.909655,45.00898 38.35388,45.56248 37.6753175,45.56248" id="Fill-28" fill="#42457B" fill-rule="nonzero" mask="url(#mask-6)"></path>
                    <path d="M33.2840487,40.8854929 C33.2840487,40.8854929 33.6430112,40.6318786 34.2023113,40.3027071 C34.7633737,39.9717786 35.5459238,39.5863786 36.3766488,39.2777071 C36.7914237,39.1224929 37.2226487,38.9989071 37.6368363,38.8993357 C37.8489237,38.8606786 38.0533737,38.8237786 38.2472487,38.78805 C38.4469987,38.76755 38.6373487,38.7517357 38.8135988,38.7417786 C38.9921987,38.7441214 39.1584612,38.7482214 39.3041612,38.7605214 C39.4492738,38.7646214 39.5796987,38.7991786 39.6842738,38.8190929 C39.8951862,38.8653643 40.0132737,38.8975786 40.0132737,38.8975786 C40.3240612,38.9825071 40.5067737,39.3023071 40.4215863,39.61215 C40.3463863,39.8862643 40.0861237,40.0608071 39.8117613,40.0379643 L39.7130612,40.0297643 C39.7130612,40.0297643 39.6219987,40.0227357 39.4674863,39.9993071 C39.3887613,39.9911071 39.3006362,39.9594786 39.1854862,39.96065 C39.0726862,39.9577214 38.9469613,39.9383929 38.8071362,39.92785 C38.6643737,39.9313643 38.5098613,39.9290214 38.3441862,39.9231643 C38.1761612,39.9342929 37.9981487,39.9454214 37.8148488,39.9571357 C37.4447238,40.0028214 37.0463987,40.0666643 36.6492487,40.16565 C35.8531863,40.3548357 35.0706362,40.6471071 34.4907738,40.8825643 C33.9073863,41.1197786 33.5384362,41.3066214 33.5384362,41.3066214 C33.4168237,41.3687071 33.2681862,41.3200929 33.2059112,41.19885 C33.1495112,41.08815 33.1853487,40.9551929 33.2840487,40.8854929" id="Fill-29" fill="#42457B" fill-rule="nonzero" mask="url(#mask-6)"></path>
                    <path d="M52.6203775,41.3381329 C52.6203775,41.3381329 52.2549525,41.1495329 51.6745025,40.9082186 C51.0975775,40.6698329 50.317965,40.3740471 49.52484,40.17959 C49.128865,40.0782614 48.7311275,40.0120757 48.3621775,39.9646329 C48.1788775,39.9517471 48.0014525,39.9388614 47.8334275,39.9271471 C47.66834,39.9324186 47.51324,39.9312471 47.3704775,39.9283186 C47.23124,39.9388614 47.105515,39.9558471 46.992715,39.9587757 C46.877565,39.9576043 46.7888525,39.9898186 46.7101275,39.9980186 C46.555615,40.0220329 46.46514,40.0302329 46.46514,40.0302329 L46.34999,40.04019 C46.0298025,40.06889 45.7466275,39.8334329 45.71784,39.5142186 C45.6914025,39.2225329 45.8864525,38.96189 46.1649275,38.8974614 C46.1649275,38.8974614 46.28419,38.8693471 46.4939275,38.8207329 C46.5985025,38.8002329 46.7289275,38.7656757 46.87404,38.7615757 C47.01974,38.7504471 47.1860025,38.7434186 47.3646025,38.7410757 C47.5408525,38.7516186 47.7312025,38.7645043 47.9309525,38.7844186 C48.125415,38.81839 48.3304525,38.8547043 48.54254,38.89219 C48.957315,38.9894186 49.389715,39.1106614 49.805665,39.2641186 C50.6393275,39.5675186 51.4242275,39.9494043 51.988815,40.2768186 C52.550465,40.60189 52.9129525,40.8543329 52.9129525,40.8543329 C53.041615,40.9433614 53.0739275,41.1196614 52.98404,41.2479329 C52.90179,41.3662471 52.7449275,41.4019757 52.6203775,41.3381329" id="Fill-30" fill="#42457B" fill-rule="nonzero" mask="url(#mask-6)"></path>
                    <path d="M39.88937,52.7013414 C39.88937,52.7013414 40.3811075,52.7323843 41.1331075,52.7546414 C41.8827575,52.7774843 42.8838575,52.78627 43.8814325,52.7522986 C44.8790075,52.7200843 45.87247,52.6369129 46.60097,52.5162557 C46.7860325,52.4934129 46.9470075,52.4518271 47.09447,52.4248843 C47.24252,52.3979414 47.3676575,52.3674843 47.4687075,52.3376129 C47.6731575,52.2825557 47.79007,52.2509271 47.79007,52.2509271 L47.81357,52.2444843 C47.96162,52.20407 48.1149575,52.2913414 48.1549075,52.4395271 C48.193095,52.5800986 48.1149575,52.7253557 47.9798325,52.7733843 C47.9798325,52.7733843 47.85587,52.8178986 47.6390825,52.8946271 C47.530395,52.9362129 47.3982075,52.97897 47.2454575,53.0187986 C47.0927075,53.0592129 46.92057,53.1166129 46.731395,53.1558557 C45.97587,53.3403557 44.9612575,53.5025986 43.944295,53.6138843 C42.9273325,53.7263414 41.9086075,53.79487 41.143095,53.8300129 C40.38052,53.8657414 39.862345,53.87277 39.862345,53.87277 C39.538045,53.8780414 39.270145,53.6203271 39.26427,53.2970129 C39.258395,52.9731129 39.516895,52.7060271 39.841195,52.70017 C39.8558825,52.70017 39.8746825,52.7007557 39.88937,52.7013414" id="Fill-31" fill="#D2D4DF" fill-rule="nonzero" mask="url(#mask-6)"></path>
                    <path d="M40.205915,52.0740414 C40.205915,52.0740414 40.66064,52.1484271 41.378565,52.2140271 C42.090615,52.28197 43.04824,52.3358557 44.00704,52.3317557 C44.96584,52.3317557 45.9240525,52.2690843 46.6384525,52.1864986 C46.99624,52.1484271 47.2929275,52.1050843 47.4997275,52.0705271 C47.707115,52.0383129 47.82579,52.01957 47.82579,52.01957 L47.8369525,52.0178129 C47.989115,51.9943843 48.13129,52.0980557 48.1553775,52.2497557 C48.1777025,52.3938414 48.0837025,52.5297271 47.944465,52.5631129 C47.944465,52.5631129 47.8240275,52.5918129 47.6137025,52.6415986 C47.403965,52.6943129 47.1025775,52.7628414 46.7383275,52.83137 C46.010415,52.9736986 45.030465,53.1166129 44.043465,53.1950986 C43.05764,53.2770986 42.0665275,53.3877986 41.3215775,53.3754986 C40.58074,53.3672986 40.06844,53.4129843 40.06844,53.4129843 L40.062565,53.4129843 C39.7388525,53.4129843 39.4979775,53.0152843 39.524415,52.6925557 C39.5508525,52.3698271 39.8352025,52.0857557 40.158915,52.1121129 C40.17419,52.1132843 40.19064,52.0716986 40.205915,52.0740414" id="Fill-32" fill="#42457B" fill-rule="nonzero" mask="url(#mask-6)"></path>
                    <path d="M27.749975,69.62456 C27.749975,69.62456 28.3180875,69.60406 29.3121375,69.5683314 C30.3061875,69.5443171 31.726175,69.4880886 33.4305125,69.4611457 C35.13485,69.4365457 37.12295,69.3838314 39.253225,69.3715314 C41.3835,69.3592314 43.65595,69.34576 45.9278125,69.3328743 C48.2002625,69.3451743 50.4727125,69.35806 52.6029875,69.3697743 C54.732675,69.3779743 56.7213625,69.4353743 58.4251125,69.4588029 C60.12945,69.4845743 61.5494375,69.5437314 62.544075,69.56716 C63.538125,69.6034743 64.1062375,69.62456 64.1062375,69.62456 C64.2683875,69.6304171 64.3947,69.7663029 64.388825,69.92796 C64.38295,70.0825886 64.2578125,70.2044171 64.1062375,70.2102743 C64.1062375,70.2102743 63.538125,70.23136 62.544075,70.2676743 C61.5494375,70.2911029 60.12945,70.35026 58.4251125,70.3760314 C56.7213625,70.39946 54.732675,70.4562743 52.6029875,70.4644743 C50.4727125,70.4767743 48.2002625,70.48966 45.9278125,70.50196 C43.65595,70.4890743 41.3835,70.4756029 39.253225,70.4633029 C37.12295,70.4510029 35.13485,70.3982886 33.4305125,70.3736886 C31.726175,70.3467457 30.3061875,70.2905171 29.3121375,70.2665029 C28.3180875,70.2307743 27.749975,70.2102743 27.749975,70.2102743 C27.587825,70.2044171 27.460925,70.0685314 27.4668,69.9068743 C27.472675,69.7528314 27.5978125,69.6304171 27.749975,69.62456" id="Fill-33" fill="#42457B" fill-rule="nonzero" mask="url(#mask-6)"></path>
                    <path d="M0.29040125,80.5374714 C0.29040125,80.5374714 6.10430125,80.4707 14.8251512,80.3711286 C19.1849888,80.3453571 24.2721513,80.3149 29.7229762,80.2826857 C35.1732138,80.2709714 40.9871137,80.2586714 46.8010138,80.2463714 C52.6149137,80.2592571 58.4282262,80.2727286 63.8790512,80.2844429 C69.3292887,80.3178286 74.4164512,80.3482857 78.7768763,80.3746429 C87.4971388,80.4724571 93.3110387,80.5374714 93.3110387,80.5374714 C93.4731887,80.5392286 93.6036138,80.6716 93.6018512,80.8338429 C93.6000888,80.9931571 93.4702513,81.1214286 93.3110387,81.1231857 C93.3110387,81.1231857 87.4971388,81.1882 78.7768763,81.2860143 C74.4164512,81.3123714 69.3292887,81.3428286 63.8790512,81.3756286 C58.4282262,81.3879286 52.6149137,81.4014 46.8010138,81.4142857 C40.9871137,81.4019857 35.1732138,81.3896857 29.7229762,81.3779714 C24.2721513,81.3457571 19.1849888,81.3153 14.8251512,81.2895286 C6.10430125,81.1893714 0.29040125,81.1231857 0.29040125,81.1231857 C0.12825125,81.1214286 -0.00158625,80.9884714 0.00017625,80.8268143 C0.00193875,80.6675 0.13118875,80.5392286 0.29040125,80.5374714" id="Fill-34" fill="#42457B" fill-rule="nonzero" mask="url(#mask-6)"></path>
                    <polygon id="Fill-35" fill="#FFFFFF" fill-rule="nonzero" mask="url(#mask-6)" points="49.0158888 24.3672371 40.5212263 24.3672371 37.4591763 29.4852086 48.4419013 28.0988229"></polygon>
                    <path d="M49.3062312,24.4115757 L48.8779438,28.1654186 C48.8556188,28.3604614 48.7016938,28.5092329 48.5142812,28.5326614 L48.4972438,28.5350043 L37.5145188,29.9208043 L37.5039437,29.9225614 C37.2654187,29.9524329 37.0474562,29.7843329 37.0169062,29.5465329 C37.0039812,29.4422757 37.0286562,29.3421186 37.0809437,29.2601186 L40.2687187,24.2171186 L40.2728312,24.2112614 C40.3280563,24.1234043 40.4244063,24.0753757 40.5213437,24.0742043 L49.0160063,24.0742043 C49.1781563,24.0742043 49.3091687,24.2054043 49.3091687,24.3670614 C49.3091687,24.37819 49.3085813,24.3893186 49.3074062,24.3998614 L49.3062312,24.4115757 Z M48.6599813,24.6599186 L40.5213437,24.6599186 L40.7733812,24.5170043 L37.8376437,29.7105329 L37.4034812,29.0492614 L48.3867938,27.6634614 L48.0066812,28.0324614 L48.6599813,24.6599186 Z" id="Fill-36" fill="#42457B" fill-rule="nonzero" mask="url(#mask-6)"></path>
                    <path d="M38.9094788,29.2680843 L47.5980163,28.0989986 C47.5980163,28.0989986 48.4504788,32.99967 49.1637038,33.8706271 C46.7972538,33.8466129 41.5297288,33.6662129 40.0151538,35.1632986 C39.5269413,34.10257 38.5058663,30.5308843 38.9094788,29.2680843" id="Fill-37" fill="#FFFFFF" fill-rule="nonzero" mask="url(#mask-6)"></path>
                    <path d="M39.3972213,29.7794714 C39.3854713,29.8556143 39.3731338,29.9352714 39.3713713,30.0213714 C39.3560963,30.2416 39.3613837,30.4799857 39.3766588,30.7183714 C39.4054462,31.1963143 39.4694838,31.6848 39.5529088,32.1721143 C39.6380962,32.6594286 39.7403213,33.1461571 39.8589963,33.6287857 C39.9788462,34.1090714 40.1127963,34.5952143 40.2814087,35.0397714 L40.2819962,35.0409429 L39.8078838,34.9554286 C39.9776713,34.8172 40.1404087,34.6467571 40.3295838,34.5518714 L40.6074713,34.3878714 L40.8941712,34.2619429 C41.2772213,34.0926714 41.6702588,33.9784571 42.0632963,33.8806429 C42.4569213,33.7828286 42.8528963,33.7055143 43.2482838,33.6463571 C43.6442587,33.5801714 44.0408213,33.5374143 44.4367963,33.4958286 C46.0195213,33.3335857 47.6081212,33.3142571 49.1679338,33.2849714 L49.1691087,33.2849714 L48.7085088,34.2408571 C48.6115712,34.0909143 48.5069963,33.9234 48.4635212,33.7974714 C48.4018337,33.6604143 48.3513088,33.5274571 48.3125338,33.4009429 C48.2220588,33.1414714 48.1591963,32.8913714 48.0933962,32.6395143 C47.9659088,32.1375571 47.8689713,31.6397 47.7737962,31.1412571 C47.5899087,30.1443714 47.4383337,29.1521714 47.3090837,28.1506 L47.3084963,28.1488429 L47.6374962,28.3889857 L39.3972213,29.7794714 Z M38.8308713,28.6877 L47.5587712,27.8085429 L47.5775713,27.8067857 C47.7297337,27.7915571 47.8660337,27.8993286 47.8871837,28.0492714 L47.8877713,28.0504429 C48.1110212,29.0186286 48.3571838,29.9879857 48.6315462,30.9397714 C48.7707837,31.4142 48.9129588,31.8886286 49.0780462,32.3437286 C49.1608837,32.5692286 49.2437213,32.7994143 49.3400713,33.0044143 C49.3847212,33.1139429 49.4340713,33.21 49.4845963,33.2972714 C49.5345337,33.4044571 49.5815338,33.4384286 49.6185462,33.5005143 L49.6508587,33.5544 C49.8194713,33.8378857 49.7260587,34.2045429 49.4417088,34.3732286 C49.3529962,34.4253571 49.2537088,34.4523 49.1573588,34.4564 L49.1561838,34.4564 C47.5863837,34.3878714 46.0400838,34.3111429 44.4984837,34.3720571 C44.1142587,34.3884571 43.7288588,34.4060286 43.3493337,34.4458571 C42.9680463,34.4786571 42.5902838,34.5284429 42.2195713,34.5958 C41.8488588,34.6637429 41.4804963,34.7469143 41.1397462,34.8734286 L40.8824213,34.9671429 L40.6468337,35.0883857 C40.4770463,35.1580857 40.3660087,35.2775714 40.2220712,35.3712857 L40.1550963,35.4152143 C40.0276087,35.4978 39.8566462,35.4620714 39.7732212,35.3349714 C39.7632338,35.3191571 39.7544213,35.3021714 39.7479587,35.2857714 L39.7473713,35.2840143 C39.5094337,34.8025571 39.3290712,34.3252 39.1557588,33.8384714 C38.9847963,33.3529143 38.8302837,32.8615 38.6928088,32.3630571 C38.5565088,31.8634429 38.4384212,31.3562143 38.3549962,30.8296571 C38.3121088,30.5666714 38.2786213,30.2995857 38.2698088,30.0149286 C38.2598212,29.8767 38.2627588,29.7291 38.2745088,29.5762286 C38.2733338,29.4321429 38.3185713,29.2535 38.3497087,29.0900857 C38.3920088,28.8710286 38.5735462,28.7134714 38.7856338,28.6918 L38.8308713,28.6877 Z" id="Fill-38" fill="#42457B" fill-rule="nonzero" mask="url(#mask-6)"></path>
                    <path d="M39.8631088,29.4853257 L37.4590588,35.9445829 C37.4590588,35.9445829 30.0559713,33.3873543 27.0826337,33.9918114 C29.3298213,30.9882686 32.9946463,27.12724 32.9946463,27.12724 C32.9946463,27.12724 41.2237588,28.18094 39.8631088,29.4853257" id="Fill-39" fill="#FFFFFF" fill-rule="nonzero" mask="url(#mask-6)"></path>
                    <path d="M39.4558538,29.0632014 C39.4529163,29.0614443 39.4711287,29.0462157 39.4417538,29.1141586 C39.4270662,29.1616014 39.4429287,29.2758157 39.4605538,29.2904586 C39.4893413,29.33263 39.4405788,29.2389157 39.3318912,29.17683 C39.1339038,29.03743 38.8495537,28.9085729 38.5675538,28.7967014 C37.9947413,28.57003 37.3755163,28.3913871 36.7557037,28.2268014 C35.5107912,27.90173 34.2329788,27.6399157 32.9581037,27.41793 L32.9575162,27.4173443 L33.2083788,27.3283157 C31.2285038,29.5932729 29.2756538,31.9127014 27.5536912,34.3416586 L27.5536912,34.3422443 L26.9650163,33.4179871 C27.2129413,33.3928014 27.4649788,33.35883 27.7082038,33.3471157 L28.4220163,33.35473 C28.8861413,33.3892871 29.3461538,33.4332157 29.7955913,33.5070157 C30.2462037,33.5749586 30.6909413,33.6604729 31.1315663,33.7547729 C31.5727788,33.8479014 32.0092913,33.9527443 32.4434538,34.06403 C34.1806913,34.5132729 35.8756288,35.0527157 37.5547038,35.6677157 L37.5552912,35.6677157 L37.1834037,35.8422586 L39.3125038,29.2816729 C39.3330663,29.2184157 39.3659662,29.1627729 39.4076788,29.1159157 L39.4558538,29.0632014 Z M40.3782287,29.7730871 L37.7344787,36.0460871 L37.7250788,36.0683443 C37.6657412,36.2089157 37.5047663,36.2762729 37.3625912,36.2212157 L37.3620037,36.22063 C35.6811663,35.7087157 33.9656662,35.26533 32.2478162,34.92093 C31.8177663,34.83483 31.3877162,34.75693 30.9570788,34.6907443 C30.5264413,34.6228014 30.0952163,34.56423 29.6669288,34.5238157 C29.2374663,34.4775443 28.8132912,34.46173 28.3920537,34.4523586 L27.7763538,34.4798871 C27.5783663,34.5009729 27.3921288,34.5402157 27.2000162,34.5659871 L27.1712288,34.5695014 C26.8475163,34.61343 26.5496537,34.3873443 26.5055913,34.0646157 C26.4850287,33.9099871 26.5273287,33.7594586 26.6119288,33.64173 L26.6119288,33.6411443 C28.5453913,31.2584586 30.6410038,29.0778443 32.7812662,26.92593 L32.7930163,26.9142157 C32.8576413,26.8492014 32.9481162,26.82343 33.0321287,26.8369014 L33.0333038,26.8369014 C34.3446037,26.9657586 35.6435662,27.1315157 36.9478163,27.3693157 C37.5999413,27.49173 38.2503037,27.6258586 38.9094787,27.8302729 C39.2408287,27.9368729 39.5692412,28.0458157 39.9246787,28.2514014 C40.0944662,28.3550729 40.3071413,28.47983 40.4898538,28.8066586 C40.5820912,28.9630443 40.6191038,29.2541443 40.5480162,29.4521157 C40.5027787,29.6008871 40.4428537,29.6910871 40.3782287,29.7730871 L40.3782287,29.7730871 Z" id="Fill-40" fill="#42457B" fill-rule="nonzero" mask="url(#mask-6)"></path>
                    <path d="M24.7219412,29.0865129 C24.7219412,29.0865129 30.2861537,21.8781271 40.0151537,25.2840557 C38.2138787,27.3158986 36.8074037,28.9260271 36.8074037,28.9260271 C36.8074037,28.9260271 28.6346912,26.0981986 24.7219412,29.0865129" id="Fill-41" fill="#FFFFFF" fill-rule="nonzero" mask="url(#mask-6)"></path>
                    <path d="M24.5432825,28.8540429 L25.2377075,28.4135857 C25.4680075,28.2636429 25.7312075,28.1857429 25.9767825,28.0691857 C26.222945,27.9485286 26.4843825,27.8823429 26.744645,27.8108857 C27.00432,27.7376714 27.26282,27.6580143 27.5289575,27.6258 C27.7933325,27.5853857 28.05712,27.5291571 28.3220825,27.5028 L29.1187325,27.4418857 C29.3842825,27.4225571 29.649245,27.4354429 29.914795,27.4307571 C30.180345,27.4243143 30.44472,27.4366143 30.7085075,27.4547714 C30.9717075,27.4741 31.237845,27.4764429 31.4992825,27.5115857 L32.285945,27.5976857 C32.8070575,27.675 33.32817,27.7529 33.8434075,27.8583286 C34.8774075,28.0656714 35.8914325,28.3157714 36.9031075,28.6496286 L36.903695,28.6496286 L36.5858575,28.7339714 L39.68492,24.9936 L39.68492,24.9936 L39.8688075,25.6988 L38.8900325,25.4036 C38.5610325,25.3169143 38.24202,25.1792714 37.904795,25.1335857 L36.9007575,24.9473286 C36.567645,24.8688429 36.22807,24.8542 35.8890825,24.8307714 C35.550095,24.8120286 35.2111075,24.7681 34.8715325,24.7698571 L33.8539825,24.8096857 C33.5120575,24.805 33.18012,24.8875857 32.842895,24.9285857 C32.5062575,24.9760286 32.1690325,25.0205429 31.8423825,25.1189429 C31.5157325,25.2103143 31.179095,25.2724 30.8589075,25.3866143 L29.898345,25.7339429 L28.9706825,26.1638571 C28.6663575,26.3173143 28.3749575,26.4965429 28.07592,26.6611286 C27.7827575,26.8356714 27.50487,27.0354 27.21817,27.2216571 C26.9461575,27.4272429 26.669445,27.6287286 26.4068325,27.8472 C25.8827825,28.2818 25.381645,28.7597429 24.951595,29.2693143 L24.5432825,28.8540429 Z M24.49217,28.9038286 C24.9533575,28.3374429 25.4609575,27.8395857 26.00322,27.3721857 C26.2740575,27.1390714 26.558995,26.9235286 26.8404075,26.7033 C27.1365075,26.5029857 27.4243825,26.2897857 27.7275325,26.1006 C28.0377325,25.9225429 28.340295,25.7298429 28.6569575,25.5629143 L29.6251575,25.0937571 L30.631545,24.7101143 C30.9681825,24.5836 31.3218575,24.5103857 31.6661325,24.4084714 C32.0104075,24.2989429 32.3664325,24.2450571 32.72187,24.1876571 C33.077895,24.1372857 33.4298075,24.0465 33.79112,24.0435714 L34.86977,23.9826571 C35.22932,23.9750429 35.5882825,24.0137 35.9478325,24.0271714 C36.3073825,24.0465 36.6681075,24.0570429 37.02002,24.1320143 L38.083395,24.3106571 C38.4423575,24.3551714 38.7772325,24.4904714 39.12562,24.5759857 L40.160795,24.8700143 C40.3858075,24.9338571 40.5162325,25.1669714 40.452195,25.3913 C40.4351575,25.4516286 40.405195,25.5055143 40.3670075,25.5500286 L40.34527,25.5752143 L40.34527,25.5752143 L37.0288325,29.1182 L37.01767,29.1305 C36.9371825,29.2166 36.8149825,29.2412 36.710995,29.2025429 L36.7104075,29.2025429 C35.7457325,28.8845 34.73582,28.6338143 33.7294325,28.4329143 C33.22477,28.3298286 32.7165825,28.2536857 32.208395,28.1781286 L31.44347,28.0943714 C31.188495,28.0604 30.932345,28.0580571 30.67737,28.0399 C30.4218075,28.0217429 30.166245,28.0100286 29.91127,28.0164714 C29.656295,28.0211571 29.400145,28.0082714 29.146345,28.0270143 L28.3867075,28.085 C28.13467,28.1101857 27.88792,28.1634857 27.637645,28.2009714 C27.3856075,28.2308429 27.146495,28.3064 26.9050325,28.3743429 C26.66357,28.4405286 26.41917,28.5014429 26.197095,28.6127286 C25.9744325,28.7193286 25.7288575,28.7890286 25.52382,28.9249143 L24.9004825,29.3191 L24.876395,29.3343286 C24.7395075,29.4204286 24.559145,29.3800143 24.472195,29.2441286 C24.4034575,29.1357714 24.4152075,28.9987143 24.49217,28.9038286 L24.49217,28.9038286 Z" id="Fill-42" fill="#42457B" fill-rule="nonzero" mask="url(#mask-6)"></path>
                    <path d="M54.4580775,62.10065 L57.008415,59.3975786 L57.04719,59.3589214 C57.0031275,59.3624357 56.963765,59.4579071 56.975515,59.4379929 L57.003715,59.3366643 C57.024865,59.2681357 57.0383775,59.1550929 57.05659,59.06665 C57.0853775,58.86985 57.114165,58.6660214 57.1312025,58.45575 C57.1735025,58.0387214 57.1993525,57.61115 57.222265,57.1841643 C57.26809,56.3290214 57.2945275,55.4680214 57.31509,54.6064357 C57.3532775,52.8820929 57.3650275,51.1542357 57.3662025,49.4263786 C57.36679,45.9694929 57.3286025,42.5102643 57.264565,39.0527929 C57.26104,38.8911357 57.389115,38.7575929 57.5518525,38.7540786 C57.711065,38.7505643 57.84384,38.8759071 57.8514775,39.03405 C57.99894,42.49445 58.119965,45.9530929 58.2028025,49.4164214 C58.24334,51.1483786 58.272715,52.8809214 58.27624,54.6163929 C58.27624,55.4850071 58.2709525,56.3536214 58.2451025,57.2269214 C58.2321775,57.66445 58.216315,58.1008071 58.18224,58.54595 C58.1687275,58.7667643 58.143465,58.99285 58.115265,59.2242071 C58.0935275,59.3477929 58.08589,59.45205 58.05064,59.5920357 L57.9936525,59.8034786 C57.9713275,59.8860643 57.8632275,60.0688071 57.7692275,60.1677929 L57.8080025,60.1297214 L55.323465,62.8931214 C55.107265,63.13385 54.7353775,63.15435 54.493915,62.9382214 C54.2524525,62.7220929 54.23189,62.3519214 54.4486775,62.1111929 C54.4510275,62.1082643 54.4557275,62.1035786 54.4580775,62.10065" id="Fill-43" fill="#42457B" fill-rule="nonzero" mask="url(#mask-6)"></path>
                    <path d="M60.17833,62.4967686 C60.17833,62.4967686 59.40988,61.4547829 57.4082675,59.76324 L58.1214925,64.6346257" id="Stroke-44" stroke="#42457B" stroke-width="1.17142857" stroke-linecap="round" stroke-linejoin="round" mask="url(#mask-6)" fill-rule="nonzero"></path>
                </g>
            </g>
        </g>
    </g>
</svg>