<?xml version="1.0" standalone="no"?>
<!DOCTYPE svg PUBLIC "-//W3C//DTD SVG 20010904//EN"
 "http://www.w3.org/TR/2001/REC-SVG-20010904/DTD/svg10.dtd">
<svg version="1.0" xmlns="http://www.w3.org/2000/svg"
 width="500.000000pt" height="500.000000pt" viewBox="0 0 500.000000 500.000000"
 preserveAspectRatio="xMidYMid meet">
<metadata>
Created by potrace 1.11, written by Peter Selinger 2001-2013
</metadata>
<g transform="translate(0.000000,500.000000) scale(0.100000,-0.100000)"
fill="#000000" stroke="none">
<path d="M2430 4674 c-14 -2 -65 -9 -115 -15 -364 -46 -767 -224 -1060 -471
-691 -580 -957 -1525 -671 -2383 105 -315 272 -589 505 -829 327 -335 719
-539 1196 -623 158 -27 500 -24 669 6 371 66 696 213 985 447 246 198 520 551
566 729 67 261 -105 527 -374 577 -121 23 -274 -23 -373 -111 -26 -23 -70 -80
-99 -127 -159 -264 -380 -448 -651 -543 -142 -49 -237 -65 -393 -65 -149 -1
-242 12 -370 51 -263 78 -537 69 -783 -28 -40 -16 -74 -29 -77 -29 -2 0 7 27
21 60 47 116 75 256 81 401 7 161 -4 250 -54 439 -33 123 -36 150 -41 305 -6
250 28 408 134 615 171 333 477 567 844 646 117 25 353 25 470 0 343 -74 625
-275 811 -577 70 -114 127 -170 215 -211 131 -61 257 -61 389 1 197 92 305
323 250 536 -46 176 -335 547 -577 737 -327 259 -701 412 -1113 458 -84 9
-330 12 -385 4z"/>
<path d="M3172 3085 c-25 -11 -638 -481 -734 -563 -15 -12 -37 -4 -194 69
-154 73 -184 83 -230 83 -139 -2 -227 -132 -179 -262 15 -38 61 -91 249 -281
127 -128 245 -240 263 -247 48 -21 114 -17 161 9 60 33 871 867 900 925 43 87
13 194 -68 248 -47 31 -123 40 -168 19z"/>
</g>
</svg>
