<svg width="24" height="24" viewBox="0 0 24 24" fill="none" xmlns="http://www.w3.org/2000/svg">
<path d="M11.9328 1.00195C11.9328 1.00195 18.3936 0.711984 21.8188 7.20598H11.3831C11.3831 7.20598 9.41372 7.14255 7.73132 9.53174C7.24805 10.5345 6.72853 11.5675 7.31148 13.6033C6.47179 12.1807 2.85327 5.88 2.85327 5.88C2.85327 5.88 5.40556 1.25869 11.9328 1.00195Z" fill="#EF3F36"/>
<path d="M21.4835 17.4877C21.4835 17.4877 18.5023 23.2296 11.1686 22.9457C12.0747 21.3781 16.3879 13.9085 16.3879 13.9085C16.3879 13.9085 17.43 12.2352 16.2007 9.58318C15.5754 8.66194 14.9381 7.69841 12.8842 7.18493C14.5364 7.16983 21.8006 7.18493 21.8006 7.18493C21.8006 7.18493 24.5221 11.7066 21.4835 17.4877Z" fill="#FCD900"/>
<path d="M2.42736 17.5329C2.42736 17.5329 -1.05523 12.0809 2.85929 5.87085C3.76241 7.43847 8.07563 14.9081 8.07563 14.9081C8.07563 14.9081 9.00594 16.6479 11.9146 16.9076C13.0232 16.8261 14.177 16.7566 15.651 15.2373C14.8385 16.6751 11.1928 22.9576 11.1928 22.9576C11.1928 22.9576 5.91298 23.0543 2.42736 17.5329Z" fill="#61BC5B"/>
<path d="M11.1656 23.0001L12.6335 16.8746C12.6335 16.8746 14.2465 16.7477 15.5996 15.2646C14.7599 16.7417 11.1656 23.0001 11.1656 23.0001Z" fill="#5AB055"/>
<path d="M7.01544 12.0688C7.01544 9.36855 9.20528 7.17871 11.9056 7.17871C14.6059 7.17871 16.7957 9.36855 16.7957 12.0688C16.7957 14.7691 14.6059 16.959 11.9056 16.959C9.20528 16.956 7.01544 14.7691 7.01544 12.0688Z" fill="white"/>
<path d="M7.83398 12.0689C7.83398 9.82168 9.65533 7.99731 11.9056 7.99731C14.1528 7.99731 15.9772 9.81866 15.9772 12.0689C15.9772 14.3161 14.1558 16.1405 11.9056 16.1405C9.65835 16.1405 7.83398 14.3161 7.83398 12.0689Z" fill="url(#paint0_linear)"/>
<path d="M21.7976 7.18787L15.7537 8.96088C15.7537 8.96088 14.8415 7.62281 12.8812 7.18787C14.5817 7.1788 21.7976 7.18787 21.7976 7.18787Z" fill="#EACA05"/>
<path d="M7.19368 13.3797C6.34493 11.9087 2.85327 5.87988 2.85327 5.87988L7.3296 10.3079C7.3296 10.3079 6.87049 11.2533 7.04266 12.6065L7.19368 13.3797Z" fill="#DF3A32"/>
<defs>
<linearGradient id="paint0_linear" x1="11.9054" y1="8.05479" x2="11.9054" y2="15.8954" gradientUnits="userSpaceOnUse">
<stop stop-color="#86BBE5"/>
<stop offset="1" stop-color="#1072BA"/>
</linearGradient>
</defs>
</svg>
