<svg width="24" height="24" viewBox="0 0 24 24" fill="none" xmlns="http://www.w3.org/2000/svg">
<path d="M21.625 20H2.375C1.61554 20 1 19.4031 1 18.6667V5.33333C1 4.59689 1.61554 4 2.375 4H21.625C22.3845 4 23 4.59689 23 5.33333V18.6667C23 19.4031 22.3845 20 21.625 20Z" fill="#EAEAEA"/>
<path d="M3.75 20H2.375C1.61554 20 1 19.4031 1 18.6667V5.33333C1 4.59689 1.61554 4 2.375 4C3.13446 4 3.75 4.59689 3.75 5.33333V20Z" fill="#D54C3F"/>
<path d="M20.25 20H21.625C22.3845 20 23 19.4031 23 18.6667V5.33333C23 4.59689 22.3845 4 21.625 4C20.8655 4 20.25 4.59689 20.25 5.33333V20Z" fill="#B63524"/>
<path d="M22.4124 6.42667C22.7676 6.18533 23 5.78578 23 5.33333C23 4.59689 22.3845 4 21.625 4C21.3321 4 21.0603 4.08889 20.8376 4.24L12.0009 10.4787L12 10.4791L11.9991 10.4787L3.16242 4.24C2.93967 4.08889 2.66788 4 2.375 4C1.61554 4 1 4.59689 1 5.33333C1 5.78578 1.23237 6.18533 1.58758 6.42667L1.55092 6.40044L12 13.7778" fill="#DE5145"/>
<path d="M21.625 4C21.3321 4 21.0603 4.08889 20.8376 4.24L12.0009 10.4787L12 10.4791L11.9991 10.4787L3.16242 4.24C2.93967 4.08889 2.66788 4 2.375 4H21.625Z" fill="#EFEFEF"/>
<path d="M3.75062 8.52802L1.43329 6.30225L1.43237 6.30402C1.48096 6.34847 1.53275 6.38936 1.58775 6.42669L1.55108 6.40047L3.75108 7.9538L3.75062 8.54402" fill="#C64132"/>
<path d="M10.4728 14.9293L3.75 20L3.75046 8.47241L10.4715 14.9275" fill="#E3E3E3"/>
<path d="M10.4729 14.9294L12 13.7779L3.75049 7.95386V8.47252L10.4715 14.9276L10.4729 14.9294Z" fill="url(#paint0_linear)"/>
<path d="M15.6946 20H20.25V7.95337L12 13.7778L10.4714 14.9276L15.6946 20Z" fill="url(#paint1_linear)"/>
<defs>
<linearGradient id="paint0_linear" x1="3.75026" y1="11.4417" x2="12" y2="11.4417" gradientUnits="userSpaceOnUse">
<stop stop-color="#C8C8C8"/>
<stop offset="1" stop-color="#CDCDCD"/>
</linearGradient>
<linearGradient id="paint1_linear" x1="10.4712" y1="13.9767" x2="20.25" y2="13.9767" gradientUnits="userSpaceOnUse">
<stop stop-color="#D9D9D9"/>
<stop offset="1" stop-color="#E2E2E2"/>
</linearGradient>
</defs>
</svg>
