<svg width="24" height="24" viewBox="0 0 24 24" fill="none" xmlns="http://www.w3.org/2000/svg">
<path d="M19.3333 12.996C19.3333 13.3641 19.0348 13.6626 18.6667 13.6626C18.2985 13.6626 18 13.3641 18 12.996V7C18 6.63183 18.2985 6.33333 18.6667 6.33333C19.0348 6.33333 19.3333 6.63183 19.3333 7V12.996ZM19.1007 17.1688C18.9977 17.257 16.528 19.3294 12 19.3294C7.47205 19.3294 5.00247 17.257 4.89947 17.1687C4.61997 16.9292 4.58762 16.5083 4.82721 16.2286C5.06627 15.9497 5.48599 15.9167 5.76569 16.1551C5.80487 16.1878 8.01013 17.9959 12 17.996C16.0401 17.996 18.2113 16.1748 18.2328 16.1565C18.5117 15.9169 18.9333 15.9491 19.1728 16.2287C19.4125 16.5083 19.3802 16.9292 19.1007 17.1688ZM4.66666 7C4.66666 6.63183 4.96516 6.33333 5.33332 6.33333C5.70155 6.33333 5.99999 6.63183 5.99999 7V12.996C5.99999 13.3641 5.70155 13.6626 5.33332 13.6626C4.96516 13.6626 4.66666 13.3641 4.66666 12.9959V7ZM8.00005 5.66667C8.00005 5.2985 8.29854 5 8.66671 5C9.03488 5 9.33337 5.2985 9.33337 5.66667V14.573C9.33337 14.9412 9.03488 15.2397 8.66671 15.2397C8.29854 15.2397 8.00005 14.9412 8.00005 14.573V5.66667ZM11.3334 5.32933C11.3334 4.961 11.6319 4.66267 12 4.66267C12.3682 4.66267 12.6667 4.961 12.6667 5.32933V14.996C12.6667 15.3641 12.3682 15.6626 12 15.6626C11.6319 15.6626 11.3334 15.3641 11.3334 14.996V5.32933ZM14.6667 5.66667C14.6667 5.2985 14.9652 5 15.3334 5C15.7015 5 16 5.2985 16 5.66667V14.573C16 14.9412 15.7015 15.2397 15.3334 15.2397C14.9652 15.2397 14.6667 14.9412 14.6667 14.573V5.66667ZM19.5 2H4.49999C3.11933 2 2 3.11933 2 4.5L2.00007 19.5C2.00007 20.8807 3.11933 22 4.49999 22H19.5C20.8807 22 22 20.8807 22 19.5V4.5C22 3.11933 20.8807 2 19.5 2Z" fill="#1F8DED"/>
</svg>
