<svg width="24" height="24" viewBox="0 0 24 24" fill="none" xmlns="http://www.w3.org/2000/svg">
<path d="M6.66166 2.37714C5.84786 2.37714 5.18892 3.051 5.18892 3.88634C5.18892 4.71958 5.84786 5.39581 6.66166 5.39581C7.47613 5.39581 8.1344 4.71958 8.1344 3.88634C8.1344 3.051 7.47613 2.37714 6.66166 2.37714Z" fill="#264970"/>
<path d="M16.3375 2.37714C15.5233 2.37714 14.8651 3.051 14.8651 3.88634C14.8651 4.71958 15.5233 5.39581 16.3375 5.39581C17.1494 5.39581 17.8099 4.71958 17.8099 3.88634C17.8099 3.051 17.1494 2.37825 16.3375 2.37714Z" fill="#264970"/>
<path d="M11.4994 1C10.6856 1 10.0266 1.67373 10.0266 2.50934C10.0266 3.34259 10.6856 4.01895 11.4994 4.01895C12.3137 4.01895 12.9718 3.34259 12.9718 2.50934C12.9718 1.67373 12.3137 1 11.4994 1Z" fill="#264970"/>
<path d="M19.819 6.5826C19.737 6.51884 19.6386 6.48572 19.5386 6.48572C19.4832 6.48572 19.4272 6.49611 19.3741 6.51704C18.3769 6.90747 17.3642 7.20394 16.4399 7.42445C16.2514 7.46949 16.0991 7.6128 16.036 7.78494C15.3626 9.67362 13.6431 11.4721 11.839 13.3558C11.7666 13.4262 11.6652 13.519 11.5 13.519C11.3353 13.519 11.2349 13.4291 11.1611 13.3558C9.35726 11.4721 7.63775 9.67986 6.96404 7.79104C6.90083 7.61904 6.74856 7.47573 6.56039 7.43054C5.6356 7.21003 4.62039 6.90443 3.62439 6.51399C3.57106 6.4932 3.51502 6.48281 3.45939 6.48281C3.35949 6.48281 3.26284 6.51496 3.18108 6.57886C3.0533 6.67865 2.98697 6.84053 3.00213 6.99604C3.15482 8.56664 3.76097 10.102 4.85483 11.711C5.88304 13.2237 7.22421 14.6239 8.52085 15.9779C10.91 18.4731 13.1669 20.8296 13.3649 23.5624C13.3828 23.8088 13.5834 24 13.8253 24H16.6321C16.7585 24 16.8794 23.9468 16.9666 23.8529C17.0535 23.7592 17.0996 23.6334 17.0932 23.504C17.005 21.6769 16.3335 19.8473 15.0403 17.9111C14.7693 17.5051 14.4791 17.1101 14.1756 16.7236C14.0523 16.5661 14.1039 16.3706 14.1982 16.2719C14.2915 16.1742 14.3851 16.0767 14.4794 15.9779C15.7761 14.6238 17.117 13.2237 18.1455 11.711C19.2393 10.1019 19.8451 8.57551 19.9979 7.00519C20.0132 6.84732 19.9433 6.6799 19.819 6.5826Z" fill="#264970"/>
<path d="M8.48795 18.1035C8.42163 18.0324 8.32403 17.9598 8.16024 17.9598C7.9507 17.9598 7.82644 18.1081 7.77946 18.1816C6.59884 20.0212 5.98903 21.7574 5.9047 23.5022C5.89861 23.6308 5.9449 23.7586 6.03181 23.8526C6.11911 23.946 6.24148 23.9999 6.36764 23.9999H9.16978C9.41085 23.9999 9.61389 23.8067 9.63163 23.5606C9.69268 22.7197 9.94837 21.8767 10.4139 20.991C10.5752 20.6845 10.4499 20.3967 10.357 20.2736C9.89518 19.6586 9.3295 19.0026 8.48795 18.1035Z" fill="#264970"/>
<path d="M11.5026 7.99061C12.3823 7.99061 12.8925 7.93655 13.0717 7.93655C13.2888 7.93655 13.4963 8.11867 13.4963 8.37369C13.4963 8.44812 13.4791 8.50134 13.4621 8.54833C13.3454 8.86766 12.8137 10.0166 11.8238 11.0022C11.7128 11.1128 11.5869 11.1335 11.5003 11.1335C11.4137 11.1335 11.2869 11.1128 11.1759 11.0022C10.186 10.0166 9.65418 8.86766 9.53777 8.54833C9.52058 8.50134 9.50339 8.44812 9.50339 8.37369C9.50339 8.11867 9.71117 7.93655 9.92829 7.93655C10.1075 7.93655 10.6174 7.99061 11.4967 7.99061H11.5026Z" fill="#264970"/>
</svg>
