<svg width="24" height="24" viewBox="0 0 24 24" fill="none" xmlns="http://www.w3.org/2000/svg">
<path d="M15.2669 2.3547C14.9325 1.32524 13.8269 0.761905 12.7976 1.09652C11.7682 1.43095 11.2048 2.53652 11.5394 3.5658L16.6068 19.1568C16.9548 20.1184 17.9936 20.6588 18.9908 20.3718C20.0309 20.0724 20.6649 18.9677 20.333 17.9462C20.3204 17.9072 15.2669 2.3547 15.2669 2.3547Z" fill="#DFA22F"/>
<path d="M7.41516 4.90588C7.08055 3.87661 5.97497 3.31327 4.9457 3.6477C3.91625 3.98213 3.35291 5.08771 3.68752 6.11716L8.75487 21.7081C9.10283 22.6697 10.1417 23.2102 11.1388 22.923C12.1789 22.6237 12.813 21.5191 12.4811 20.4974C12.4684 20.4586 7.41516 4.90588 7.41516 4.90588Z" fill="#3CB187"/>
<path d="M21.6453 15.2672C22.6748 14.9328 23.2379 13.8272 22.9035 12.7977C22.5691 11.7685 21.4635 11.2051 20.4342 11.5395L4.84326 16.6071C3.88163 16.9549 3.3412 17.9937 3.62819 18.9909C3.92763 20.0309 5.0323 20.665 6.05382 20.3331C6.09278 20.3205 21.6453 15.2672 21.6453 15.2672Z" fill="#CE1E5B"/>
<path d="M8.09269 19.6706C9.10753 19.3409 10.4155 18.9159 11.8191 18.4599C11.4893 17.445 11.0643 16.1369 10.6081 14.7332L6.88159 15.9444L8.09269 19.6706Z" fill="#392538"/>
<path d="M15.9446 17.1193C17.3534 16.6617 18.6628 16.2362 19.671 15.9086C19.3412 14.8938 18.9161 13.5853 18.4599 12.1812L14.7333 13.3924L15.9446 17.1193Z" fill="#BB242A"/>
<path d="M19.0941 7.41513C20.1234 7.0807 20.6867 5.97513 20.3523 4.94568C20.0179 3.9164 18.9123 3.35306 17.8829 3.6875L2.29189 8.75503C1.33026 9.10281 0.789834 10.1416 1.07701 11.1388C1.37626 12.1789 2.48093 12.8129 3.50263 12.481C3.54141 12.4684 19.0941 7.41513 19.0941 7.41513Z" fill="#72C5CD"/>
<path d="M5.54081 11.819C6.55565 11.4893 7.86397 11.0641 9.26772 10.6081C8.81009 9.1991 8.38456 7.88969 8.05699 6.88135L4.32953 8.09281L5.54081 11.819Z" fill="#248C73"/>
<path d="M13.3926 9.26766C14.8017 8.80984 16.1113 8.38432 17.1197 8.05656C16.6618 6.6474 16.2363 5.33763 15.9086 4.3291L12.1813 5.54056L13.3926 9.26766Z" fill="#62803A"/>
</svg>
