<svg width="24" height="24" viewBox="0 0 24 24" fill="none" xmlns="http://www.w3.org/2000/svg">
<path d="M1.44797 15.164C2.80784 19.6972 7.01441 23 11.993 23C18.0719 23 23 18.075 23 12C23 5.92488 18.0719 1 11.993 1C6.15964 1 1.38656 5.53493 1.00958 11.2692C1.72188 12.4645 1.99984 13.2039 1.44808 15.164H1.44797Z" fill="url(#paint0_linear)"/>
<path d="M11.426 9.24497C11.426 9.26347 11.426 9.28198 11.4269 9.29935L8.73346 13.2095C8.29715 13.1897 7.85933 13.2662 7.44418 13.4371C7.26117 13.5116 7.08968 13.6032 6.92878 13.709L1.01437 11.2758C1.01442 11.2758 0.877516 13.5258 1.44785 15.2027L5.62901 16.9268C5.83895 17.8644 6.48255 18.6868 7.43208 19.0825C8.98563 19.7311 10.7769 18.9918 11.4231 17.4386C11.5913 17.0326 11.6697 16.6068 11.6584 16.1819L15.5123 13.4295C15.5435 13.4304 15.5756 13.4314 15.6068 13.4314C17.913 13.4314 19.7875 11.5524 19.7875 9.24497C19.7875 6.93733 17.913 5.06006 15.6068 5.06006C13.3014 5.06006 11.426 6.93733 11.426 9.24497ZM10.7797 17.1686C10.2795 18.3686 8.89956 18.938 7.70003 18.4385C7.14666 18.2081 6.72886 17.7861 6.48784 17.2828L7.84884 17.8465C8.73346 18.2147 9.74838 17.7955 10.1161 16.9117C10.485 16.027 10.0665 15.011 9.18234 14.6428L7.77543 14.0602C8.31831 13.8544 8.93546 13.8468 9.51208 14.0867C10.0934 14.3284 10.5445 14.7835 10.7835 15.3651C11.0225 15.9468 11.0216 16.5888 10.7797 17.1686V17.1686ZM15.6068 12.034C14.0714 12.034 12.8215 10.7829 12.8215 9.24497C12.8215 7.70827 14.0714 6.45682 15.6068 6.45682C17.143 6.45682 18.393 7.70827 18.393 9.24497C18.393 10.7829 17.143 12.034 15.6068 12.034ZM13.5197 9.24072C13.5197 8.08378 14.4569 7.14543 15.6115 7.14543C16.767 7.14543 17.7042 8.08378 17.7042 9.24072C17.7042 10.3977 16.767 11.3353 15.6115 11.3353C14.4569 11.3353 13.5197 10.3977 13.5197 9.24072V9.24072Z" fill="white"/>
<defs>
<linearGradient id="paint0_linear" x1="12.0048" y1="1" x2="12.0048" y2="23" gradientUnits="userSpaceOnUse">
<stop stop-color="#111D2E"/>
<stop offset="0.21248" stop-color="#051839"/>
<stop offset="0.40695" stop-color="#0A1B48"/>
<stop offset="0.5811" stop-color="#132E62"/>
<stop offset="0.7376" stop-color="#144B7E"/>
<stop offset="0.87279" stop-color="#136497"/>
<stop offset="1" stop-color="#1387B8"/>
</linearGradient>
</defs>
</svg>
