<svg width="24" height="24" viewBox="0 0 24 24" fill="none" xmlns="http://www.w3.org/2000/svg">
<g clip-path="url(#clip0)">
<path d="M24.2105 4.36756C23.3197 4.76913 22.3624 5.04054 21.3577 5.1626C22.3832 4.5377 23.1708 3.54822 23.5417 2.36925C22.582 2.9478 21.5189 3.368 20.3875 3.59449C19.4814 2.6132 18.1905 2 16.7619 2C14.0187 2 11.7947 4.26062 11.7947 7.04892C11.7947 7.44464 11.8387 7.83001 11.9234 8.19953C7.79521 7.98898 4.13525 5.97888 1.68541 2.92421C1.25786 3.66992 1.01291 4.53725 1.01291 5.46254C1.01291 7.2142 1.88989 8.75963 3.22267 9.66503C2.40839 9.63883 1.64255 9.41172 0.972796 9.03355C0.972442 9.05461 0.972442 9.07577 0.972442 9.09701C0.972442 11.5433 2.6846 13.584 4.95687 14.0478C4.54004 14.1632 4.10124 14.2249 3.64818 14.2249C3.32814 14.2249 3.01695 14.1933 2.71373 14.1343C3.34576 16.1403 5.18013 17.6 7.35366 17.6408C5.65373 18.9949 3.51198 19.8021 1.18489 19.8021C0.783993 19.8021 0.388587 19.7783 0 19.7316C2.19816 21.1642 4.80907 22 7.61411 22C16.7503 22 21.7463 14.3064 21.7463 7.6344C21.7463 7.41548 21.7416 7.19772 21.732 6.98123C22.7024 6.26937 23.5446 5.38008 24.2105 4.36756Z" fill="#55ACEE"/>
</g>
<defs>
<clipPath id="clip0">
<rect width="24" height="24" fill="white"/>
</clipPath>
</defs>
</svg>
