<svg width="24" height="24" viewBox="0 0 24 24" fill="none" xmlns="http://www.w3.org/2000/svg">
<path d="M14.7499 12.0048C14.7496 12.8223 14.5999 13.6045 14.3275 14.3272C13.6052 14.5996 12.8223 14.7492 12.0045 14.7503H11.9952C11.1781 14.7492 10.3952 14.5999 9.6728 14.3275C9.40044 13.6052 9.25043 12.8223 9.25009 12.0048V11.9952C9.25043 11.1781 9.40009 10.3952 9.67211 9.67315C10.3945 9.40044 11.1777 9.25043 11.9952 9.25009H12.0045C12.8223 9.25043 13.6052 9.40044 14.3275 9.67315C14.5999 10.3952 14.7496 11.1781 14.7499 11.9952V12.0048ZM22.8472 10.1667H16.4263L20.9663 5.62639C20.6096 5.12522 20.2117 4.65515 19.7779 4.22137V4.22102C19.3442 3.78759 18.8741 3.39045 18.3733 3.03375L13.8329 7.57408V1.15312C13.2388 1.05323 12.6284 1.00035 12.0055 1H11.9941C11.3713 1.00035 10.7612 1.05323 10.1667 1.15312V7.57408L5.62639 3.03375C5.12522 3.39045 4.65549 3.78793 4.2224 4.22171L4.21998 4.22344C3.7869 4.65653 3.3901 5.12591 3.0334 5.62639L7.57408 10.1667H1.15312C1.15312 10.1667 1 11.3727 1 11.9962V12.0038C1 12.6273 1.05288 13.2384 1.15312 13.8333H7.57408L3.0334 18.3736C3.74749 19.3756 4.62438 20.2529 5.62639 20.9666L10.1667 16.4259V22.8472C10.7609 22.9468 11.3702 22.9993 11.9921 23H12.0076C12.6298 22.9993 13.2398 22.9468 13.8329 22.8472V16.4259L18.3736 20.9666C18.8744 20.6099 19.3442 20.2124 19.7779 19.779L19.779 19.7779C20.2121 19.3442 20.6099 18.8741 20.9663 18.3736L16.4256 13.8333H22.8472C22.9471 13.2395 22.9993 12.6301 23 12.0079V11.9921C22.9993 11.3699 22.9471 10.7605 22.8472 10.1667Z" fill="#FF4A00"/>
</svg>
