<svg width="688" height="414" viewBox="0 0 688 414" fill="none" xmlns="http://www.w3.org/2000/svg">
<path d="M73.8283 23.5687C105.07 -7.67326 155.723 -7.6733 186.965 23.5686L275.51 112.113C291.131 127.734 291.131 153.06 275.51 168.681L158.681 285.51C143.06 301.131 117.734 301.131 102.113 285.51L30.539 213.936C-10.0755 173.322 -10.0755 107.473 30.539 66.858L73.8283 23.5687Z" fill="#FDF7E6"/>
<path d="M610.964 391.631C578.935 422.065 528.298 420.772 497.864 388.743L411.609 297.967C396.392 281.953 397.039 256.634 413.054 241.417L532.826 127.609C548.841 112.392 574.159 113.039 589.377 129.054L659.1 202.431C698.664 244.069 696.983 309.897 655.345 349.461L610.964 391.631Z" fill="#FAF8FE"/>
<g filter="url(#filter0_d)">
<path d="M57 56.298C57 53.372 59.9718 51 63.6378 51H625.362C629.028 51 632 53.372 632 56.298V345.702C632 348.628 629.028 351 625.362 351H63.6378C59.9718 351 57 348.628 57 345.702V56.298Z" fill="white"/>
</g>
<g filter="url(#filter1_d)">
<path fill-rule="evenodd" clip-rule="evenodd" d="M625.362 52H63.6378C60.302 52 58 54.1229 58 56.298V345.702C58 347.877 60.302 350 63.6378 350H625.362C628.698 350 631 347.877 631 345.702V56.298C631 54.1229 628.698 52 625.362 52ZM63.6378 51C59.9718 51 57 53.372 57 56.298V345.702C57 348.628 59.9718 351 63.6378 351H625.362C629.028 351 632 348.628 632 345.702V56.298C632 53.372 629.028 51 625.362 51H63.6378Z" fill="#DEE4EB"/>
</g>
<path d="M152 189.5H607C608.381 189.5 609.5 190.619 609.5 192V274C609.5 275.381 608.381 276.5 607 276.5H152C150.619 276.5 149.5 275.381 149.5 274V192C149.5 190.619 150.619 189.5 152 189.5Z" fill="white" stroke="#DEE5E9"/>
<mask id="path-6-inside-1" fill="white">
<path fill-rule="evenodd" clip-rule="evenodd" d="M607 190H152C150.895 190 150 190.895 150 192V274C150 275.105 150.895 276 152 276H607C608.105 276 609 275.105 609 274V192C609 190.895 608.105 190 607 190ZM152 189C150.343 189 149 190.343 149 192V274C149 275.657 150.343 277 152 277H607C608.657 277 610 275.657 610 274V192C610 190.343 608.657 189 607 189H152Z"/>
</mask>
<path fill-rule="evenodd" clip-rule="evenodd" d="M607 190H152C150.895 190 150 190.895 150 192V274C150 275.105 150.895 276 152 276H607C608.105 276 609 275.105 609 274V192C609 190.895 608.105 190 607 190ZM152 189C150.343 189 149 190.343 149 192V274C149 275.657 150.343 277 152 277H607C608.657 277 610 275.657 610 274V192C610 190.343 608.657 189 607 189H152Z" fill="white"/>
<path d="M152 191H607V189H152V191ZM151 192C151 191.448 151.448 191 152 191V189C150.343 189 149 190.343 149 192H151ZM151 274V192H149V274H151ZM152 275C151.448 275 151 274.552 151 274H149C149 275.657 150.343 277 152 277V275ZM607 275H152V277H607V275ZM608 274C608 274.552 607.552 275 607 275V277C608.657 277 610 275.657 610 274H608ZM608 192V274H610V192H608ZM607 191C607.552 191 608 191.448 608 192H610C610 190.343 608.657 189 607 189V191ZM150 192C150 190.895 150.895 190 152 190V188C149.791 188 148 189.791 148 192H150ZM150 274V192H148V274H150ZM152 276C150.895 276 150 275.105 150 274H148C148 276.209 149.791 278 152 278V276ZM607 276H152V278H607V276ZM609 274C609 275.105 608.105 276 607 276V278C609.209 278 611 276.209 611 274H609ZM609 192V274H611V192H609ZM607 190C608.105 190 609 190.895 609 192H611C611 189.791 609.209 188 607 188V190ZM152 190H607V188H152V190Z" fill="#DEE5E9" mask="url(#path-6-inside-1)"/>
<path d="M166 206H585V212H166V206Z" fill="#EDEEF0"/>
<path d="M166 227H544V233H166V227Z" fill="#EDEEF0"/>
<path d="M166 248H496V254H166V248Z" fill="#EDEEF0"/>
<path d="M150 296C150 293.791 151.791 292 154 292H223C225.209 292 227 293.791 227 296V324C227 326.209 225.209 328 223 328H154C151.791 328 150 326.209 150 324V296Z" fill="#03CAFF"/>
<path opacity="0.5" d="M174 310.237C174 308.935 175.056 307.88 176.358 307.88L199.642 307.88C200.944 307.88 202 308.935 202 310.237V310.237C202 311.54 200.944 312.595 199.642 312.595L176.358 312.595C175.056 312.595 174 311.54 174 310.237V310.237Z" fill="white"/>
<path d="M150 82H224V88H150V82Z" fill="#E1E4E7"/>
<path d="M150 100H549V106H150V100Z" fill="#EDEEF0"/>
<path d="M150 119H517V125H150V119Z" fill="#EDEEF0"/>
<path d="M150 138H485V144H150V138Z" fill="#EDEEF0"/>
<path d="M150 157H573V163H150V157Z" fill="#EDEEF0"/>
<path fill-rule="evenodd" clip-rule="evenodd" d="M104 119C117.807 119 129 107.807 129 94C129 80.1929 117.807 69 104 69C90.1929 69 79 80.1929 79 94C79 107.807 90.1929 119 104 119Z" fill="#FAF7FD"/>
<mask id="mask0" mask-type="alpha" maskUnits="userSpaceOnUse" x="79" y="69" width="50" height="50">
<path fill-rule="evenodd" clip-rule="evenodd" d="M104 119C117.807 119 129 107.807 129 94C129 80.1929 117.807 69 104 69C90.1929 69 79 80.1929 79 94C79 107.807 90.1929 119 104 119Z" fill="white"/>
</mask>
<g mask="url(#mask0)">
<path fill-rule="evenodd" clip-rule="evenodd" d="M111.052 114.12L105.755 110.903C105.5 110.745 105.216 110.661 104.916 110.659L104.576 110.658C103.744 110.653 103.058 111.272 102.949 112.077C102.84 111.272 102.152 110.653 101.321 110.658L100.976 110.659C100.677 110.661 100.383 110.745 100.128 110.903L94.7924 114.186C93.9211 114.724 93.3696 115.678 93.3696 116.705V119.702H112.417V116.64C112.417 115.612 111.923 114.658 111.052 114.12" fill="#B7DBF9"/>
<path fill-rule="evenodd" clip-rule="evenodd" d="M110.938 114.308L106.785 111.728L105.743 111.089C105.569 110.976 105.419 110.905 105.235 110.86C105.06 110.813 104.875 110.82 104.664 110.818L104.588 110.817L104.519 110.819C104.468 110.821 104.416 110.823 104.376 110.83C104.292 110.84 104.198 110.859 104.112 110.888C103.937 110.945 103.772 111.034 103.629 111.151C103.343 111.384 103.146 111.729 103.099 112.097C103.089 112.181 103.013 112.239 102.93 112.229C102.861 112.22 102.81 112.166 102.8 112.101L102.799 112.097C102.754 111.801 102.627 111.515 102.421 111.295C102.218 111.074 101.95 110.913 101.658 110.851C101.507 110.817 101.373 110.809 101.201 110.814C101.031 110.816 100.878 110.809 100.733 110.837C100.586 110.863 100.443 110.912 100.31 110.98C100.186 111.047 100.034 111.148 99.8967 111.23C98.773 111.925 97.6457 112.614 96.5292 113.321L94.8572 114.374C94.5897 114.551 94.3668 114.751 94.1783 115.002C93.9893 115.246 93.8455 115.523 93.7483 115.813C93.6508 116.103 93.6084 116.408 93.6124 116.712L93.636 117.706L93.6981 119.694V119.701L93.3698 119.372H112.41H112.417L112.089 119.701L112.182 116.672C112.185 116.558 112.183 116.421 112.175 116.317C112.166 116.203 112.15 116.085 112.127 115.97C112.081 115.74 112.006 115.514 111.9 115.304C111.795 115.093 111.662 114.895 111.505 114.719C111.425 114.632 111.342 114.548 111.252 114.471C111.16 114.397 111.064 114.327 110.964 114.263L111.139 113.978C111.252 114.048 111.361 114.125 111.466 114.207C111.569 114.293 111.669 114.381 111.763 114.477C111.949 114.67 112.109 114.888 112.239 115.124C112.368 115.36 112.47 115.611 112.54 115.872C112.574 116.003 112.601 116.134 112.62 116.271C112.639 116.418 112.647 116.533 112.652 116.672L112.745 119.701C112.751 119.878 112.613 120.026 112.437 120.031L112.429 120.031H112.417H112.41H93.3698H93.3635C93.1856 120.031 93.0415 119.886 93.0415 119.708V119.701L93.0418 119.694L93.1035 117.706L93.1272 116.712C93.136 116.354 93.2014 115.995 93.3278 115.662C93.4542 115.329 93.6327 115.017 93.8596 114.746C94.0805 114.476 94.3589 114.233 94.6462 114.052L96.3483 113.025C97.4825 112.347 98.6059 111.651 99.7326 110.961C99.879 110.874 100.001 110.79 100.168 110.701C100.329 110.618 100.502 110.56 100.68 110.529C100.861 110.496 101.04 110.504 101.199 110.502C101.357 110.498 101.555 110.507 101.726 110.549C102.079 110.626 102.403 110.821 102.647 111.088C102.893 111.353 103.047 111.699 103.099 112.056H102.799C102.859 111.613 103.09 111.197 103.434 110.912C103.605 110.769 103.803 110.659 104.015 110.589C104.121 110.553 104.227 110.528 104.345 110.514C104.406 110.504 104.456 110.503 104.506 110.501L104.59 110.498H104.666C104.861 110.499 105.088 110.487 105.309 110.543C105.523 110.589 105.746 110.697 105.913 110.806L106.961 111.436L111.165 113.932L110.938 114.308Z" fill="#586978"/>
<path fill-rule="evenodd" clip-rule="evenodd" d="M108.354 114.753L104.821 111.81C104.651 111.669 104.457 111.594 104.258 111.592L104.029 111.59C103.476 111.586 103.018 112.141 102.945 112.863C102.873 112.141 102.415 111.586 101.862 111.59L101.633 111.592C101.433 111.594 101.238 111.669 101.068 111.81L97.5258 114.753C96.9464 115.235 96.585 116.09 96.585 117.011V119.66H109.283V117.011C109.283 116.09 108.933 115.235 108.354 114.753" fill="#E9F6FF"/>
<path fill-rule="evenodd" clip-rule="evenodd" d="M108.563 114.499C108.755 114.661 108.906 114.862 109.01 115.079C109.117 115.295 109.18 115.525 109.235 115.747C109.288 115.97 109.33 116.19 109.372 116.41C109.392 116.521 109.406 116.63 109.415 116.744C109.426 116.863 109.426 116.959 109.428 117.076C109.449 117.937 109.492 118.799 109.611 119.66L109.656 119.988L109.283 119.99H109.277L96.5846 120.037L96.186 120.038L96.21 119.66L96.2103 119.654C96.2714 119.135 96.3075 118.615 96.3456 118.096L96.3915 117.317C96.4063 117.063 96.4099 116.786 96.4608 116.518C96.5609 115.986 96.7563 115.465 97.1003 115.042C97.2651 114.824 97.4844 114.651 97.681 114.493L98.2834 114.003C99.0789 113.339 99.8749 112.675 100.66 111.999L100.956 111.747C101.054 111.658 101.182 111.568 101.32 111.518C101.453 111.461 101.625 111.452 101.744 111.452C101.862 111.444 102.034 111.445 102.175 111.493C102.467 111.584 102.696 111.798 102.85 112.04C103.005 112.285 103.095 112.562 103.131 112.844H102.759C102.787 112.513 102.886 112.18 103.088 111.892C103.189 111.75 103.318 111.619 103.476 111.521C103.554 111.47 103.642 111.431 103.734 111.403C103.776 111.386 103.835 111.378 103.886 111.368C103.939 111.359 103.966 111.36 104.007 111.356L104.248 111.35C104.341 111.348 104.443 111.359 104.537 111.384C104.631 111.408 104.722 111.445 104.805 111.491C104.848 111.515 104.886 111.538 104.928 111.569L105.027 111.645L105.741 112.208C106.688 112.964 107.628 113.729 108.563 114.499M108.144 115.007C107.217 114.226 106.294 113.44 105.38 112.646L104.697 112.045L104.619 111.979C104.601 111.964 104.575 111.945 104.552 111.931C104.505 111.901 104.455 111.878 104.405 111.861C104.352 111.845 104.304 111.836 104.245 111.834L104.033 111.826C103.999 111.828 103.949 111.827 103.928 111.831C103.905 111.837 103.888 111.834 103.859 111.844C103.805 111.858 103.752 111.877 103.701 111.906C103.599 111.962 103.505 112.045 103.425 112.146C103.265 112.347 103.168 112.611 103.131 112.882H102.759C102.74 112.648 102.678 112.416 102.564 112.216C102.451 112.017 102.283 111.85 102.081 111.776C101.977 111.737 101.886 111.73 101.746 111.731C101.607 111.726 101.516 111.726 101.405 111.763C101.298 111.798 101.205 111.851 101.109 111.933L100.807 112.177C99.998 112.825 99.2 113.486 98.4016 114.146L97.8084 114.648C97.6062 114.819 97.4154 114.971 97.2743 115.177C96.9857 115.579 96.815 116.067 96.7733 116.561C96.7497 116.808 96.7625 117.052 96.7772 117.317L96.8232 118.096C96.8616 118.615 96.8977 119.135 96.9588 119.654L96.9591 119.661L96.5845 119.284L109.277 119.331H109.283L108.955 119.661C109.073 118.799 109.117 117.937 109.137 117.076C109.137 116.977 109.138 116.858 109.131 116.762C109.126 116.662 109.114 116.557 109.098 116.455C109.07 116.25 109.003 116.052 108.906 115.871C108.809 115.69 108.679 115.532 108.548 115.39C108.414 115.249 108.281 115.122 108.144 115.007" fill="#586978"/>
<path fill-rule="evenodd" clip-rule="evenodd" d="M105.977 112.213C105.977 113.908 104.6 115.281 102.901 115.281C101.202 115.281 99.8252 113.908 99.8252 112.213C99.8252 110.518 101.202 109.144 102.901 109.144C104.6 109.144 105.977 110.518 105.977 112.213" fill="#E4E0FF"/>
<path fill-rule="evenodd" clip-rule="evenodd" d="M105.747 112.542C105.747 112.542 105.742 112.473 105.732 112.342C105.731 112.276 105.717 112.197 105.699 112.104C105.687 112.01 105.658 111.905 105.624 111.789C105.551 111.559 105.442 111.281 105.246 111.007C105.054 110.733 104.788 110.455 104.442 110.237C104.103 110.019 103.659 109.864 103.227 109.817C102.736 109.765 102.259 109.838 101.79 110.037C101.557 110.134 101.339 110.274 101.133 110.434C100.932 110.601 100.753 110.798 100.599 111.015C100.448 111.237 100.335 111.483 100.244 111.738C100.208 111.869 100.167 112.001 100.15 112.126C100.121 112.236 100.119 112.425 100.107 112.542C100.108 112.817 100.137 113.092 100.211 113.357C100.29 113.62 100.399 113.874 100.545 114.106C100.841 114.566 101.264 114.935 101.743 115.155C101.981 115.258 102.237 115.344 102.478 115.376C102.592 115.403 102.735 115.404 102.865 115.414C102.976 115.416 103.109 115.41 103.227 115.401C103.711 115.352 104.152 115.182 104.506 114.946C104.863 114.711 105.123 114.408 105.309 114.12C105.497 113.83 105.594 113.542 105.657 113.305C105.688 113.185 105.711 113.079 105.718 112.989C105.731 112.9 105.742 112.823 105.741 112.748C105.745 112.606 105.748 112.531 105.748 112.531L105.747 112.542ZM106.206 112.554C106.206 112.554 106.2 112.63 106.191 112.771C106.189 112.838 106.174 112.934 106.154 113.047C106.139 113.162 106.107 113.285 106.067 113.42C105.984 113.69 105.858 114.014 105.632 114.334C105.412 114.658 105.103 114.981 104.705 115.247C104.306 115.508 103.814 115.706 103.269 115.78C103.13 115.793 103.001 115.804 102.846 115.804C102.712 115.797 102.585 115.801 102.432 115.775C102.133 115.742 101.855 115.655 101.574 115.542C101.296 115.424 101.032 115.263 100.785 115.072C100.542 114.875 100.325 114.641 100.137 114.381C99.9551 114.116 99.8113 113.822 99.7056 113.513C99.6062 113.2 99.5563 112.872 99.5435 112.543C99.552 112.359 99.5435 112.244 99.5737 112.057C99.5904 111.881 99.6331 111.723 99.6718 111.562C99.766 111.245 99.9062 110.943 100.084 110.668C100.267 110.398 100.482 110.151 100.726 109.942C100.974 109.74 101.241 109.563 101.527 109.437C102.093 109.182 102.733 109.111 103.269 109.172C103.866 109.247 104.355 109.461 104.769 109.741C105.177 110.023 105.481 110.372 105.695 110.709C105.912 111.046 106.028 111.38 106.101 111.655C106.136 111.794 106.163 111.919 106.173 112.03C106.189 112.139 106.2 112.233 106.199 112.309C106.204 112.462 106.206 112.543 106.206 112.543L106.206 112.554Z" fill="#586978"/>
<path fill-rule="evenodd" clip-rule="evenodd" d="M113.557 93.2275C114.471 93.2275 115.212 94.2651 115.212 95.5452C115.212 96.8251 114.471 97.8629 113.557 97.8629" fill="#FFF6F7"/>
<path fill-rule="evenodd" clip-rule="evenodd" d="M113.579 92.8984C113.579 92.8984 113.686 92.9387 113.872 93.0086C113.928 93.0277 113.982 93.0531 114.033 93.0857C114.087 93.1154 114.145 93.1447 114.2 93.1876C114.314 93.2657 114.431 93.3613 114.539 93.4803C114.654 93.5931 114.753 93.7329 114.852 93.8802C114.948 94.0299 115.033 94.1964 115.109 94.3728C115.256 94.7289 115.328 95.1363 115.345 95.5448C115.345 95.7449 115.338 95.953 115.304 96.1557C115.278 96.3575 115.226 96.553 115.163 96.7389C115.032 97.1092 114.838 97.4389 114.6 97.6782C114.483 97.7986 114.359 97.8991 114.233 97.9693C114.111 98.0429 113.991 98.0933 113.889 98.1216C113.685 98.1896 113.555 98.1859 113.557 98.1925V97.5332C113.556 97.5272 113.627 97.5496 113.757 97.5381C113.823 97.5361 113.903 97.5157 113.992 97.4821C114.083 97.4511 114.183 97.396 114.286 97.3218C114.39 97.249 114.492 97.1481 114.586 97.0268C114.681 96.9068 114.768 96.765 114.84 96.6087C114.908 96.4508 114.971 96.281 115.01 96.1007C115.054 95.924 115.068 95.7377 115.079 95.5448C115.078 95.3569 115.075 95.1663 115.038 94.9837C115.009 94.8001 114.955 94.6247 114.894 94.4595C114.829 94.296 114.752 94.1427 114.656 94.0151C114.566 93.8829 114.453 93.7807 114.346 93.6992C114.235 93.6237 114.128 93.5641 114.025 93.5413C113.929 93.512 113.831 93.5018 113.774 93.5117C113.741 93.5146 113.723 93.5166 113.691 93.5219C113.657 93.5275 113.628 93.5337 113.605 93.5393C113.558 93.5502 113.533 93.5562 113.533 93.5562L113.579 92.8984Z" fill="#586978"/>
<path fill-rule="evenodd" clip-rule="evenodd" d="M90.439 95.5454C90.439 96.8253 91.1799 97.8631 92.0942 97.8631Z" fill="#FFF6F7"/>
<path fill-rule="evenodd" clip-rule="evenodd" d="M90.7671 95.5332L90.7388 95.6694C90.7208 95.763 90.7086 95.8632 90.7024 96C90.7027 96.1375 90.7096 96.302 90.7503 96.4715C90.7822 96.6446 90.8524 96.8183 90.9378 96.9842C91.0215 97.152 91.1462 97.2927 91.2684 97.4141C91.3915 97.537 91.5445 97.6023 91.6748 97.627C91.7427 97.632 91.8005 97.6445 91.8553 97.6303C91.9085 97.6224 91.9528 97.6135 91.9886 97.5964C92.0602 97.5618 92.0943 97.5331 92.0943 97.5331V98.1924C92.0943 98.1924 92.0306 98.1572 91.9312 98.1104C91.8806 98.0939 91.8248 98.0504 91.7608 98.0217C91.6964 97.9907 91.6324 97.9419 91.5605 97.9017C91.4942 97.8506 91.4181 97.807 91.3481 97.7484C91.2743 97.6953 91.2027 97.634 91.1285 97.5703C91.056 97.5057 90.9828 97.4352 90.9191 97.3564C90.8521 97.2789 90.793 97.1945 90.7323 97.1104C90.62 96.9377 90.5169 96.756 90.4404 96.576C90.3607 96.397 90.3003 96.2226 90.251 96.0699C90.167 95.7623 90.1108 95.5573 90.1108 95.5573L90.7671 95.5332Z" fill="#586978"/>
<path fill-rule="evenodd" clip-rule="evenodd" d="M92.0942 93.2275C91.1799 93.2275 90.439 94.2651 90.439 95.5452Z" fill="#FFF6F7"/>
<path fill-rule="evenodd" clip-rule="evenodd" d="M92.1173 93.5562C92.1173 93.5562 92.0677 93.5476 91.9807 93.5324C91.9282 93.5235 91.9125 93.5278 91.8652 93.5222C91.8251 93.5133 91.7664 93.5324 91.706 93.5374C91.5878 93.5677 91.4404 93.6165 91.3078 93.72C91.2414 93.7701 91.1712 93.8249 91.1105 93.8911C91.0481 93.9564 90.992 94.0299 90.9378 94.1061C90.8324 94.26 90.7516 94.4321 90.6945 94.5996C90.6328 94.7664 90.6148 94.9349 90.6233 95.078C90.6279 95.1495 90.6394 95.2155 90.6532 95.2732C90.6614 95.3302 90.6876 95.3806 90.7014 95.4205C90.7372 95.5013 90.7674 95.5448 90.7674 95.5448H90.1108C90.1108 95.5448 90.1443 95.4904 90.1863 95.3991C90.2221 95.3075 90.2829 95.1812 90.3301 95.0325C90.3882 94.8851 90.4375 94.715 90.4962 94.533C90.5232 94.441 90.5583 94.3487 90.5987 94.2561C90.6374 94.1631 90.6863 94.0724 90.7323 93.9798C90.8298 93.7968 90.9555 93.6274 91.0891 93.4757C91.1587 93.4025 91.2293 93.333 91.3045 93.2726C91.3767 93.2093 91.4578 93.1635 91.5297 93.1144C91.6088 93.0742 91.6722 93.0316 91.7513 93.0062C91.8212 92.9795 91.9052 92.9495 91.9394 92.9413C92.0231 92.9139 92.071 92.8984 92.071 92.8984L92.1173 93.5562Z" fill="#586978"/>
<path fill-rule="evenodd" clip-rule="evenodd" d="M102.967 114.297C101.796 114.297 100.838 113.436 100.838 112.385V105.918H105.095V112.385C105.095 113.436 104.137 114.297 102.967 114.297" fill="#FFF6F7"/>
<path fill-rule="evenodd" clip-rule="evenodd" d="M102.952 114.626C102.772 114.597 102.509 114.555 102.305 114.48C102.094 114.404 101.892 114.306 101.708 114.183C101.34 113.94 101.038 113.6 100.861 113.197C100.774 112.996 100.721 112.781 100.703 112.564C100.692 112.338 100.702 112.153 100.701 111.947C100.707 111.545 100.705 111.143 100.701 110.741C100.699 109.937 100.68 109.134 100.651 108.33C100.637 107.928 100.62 107.526 100.595 107.124C100.567 106.722 100.549 106.32 100.51 105.918V105.918V105.588H100.839H105.095H105.423V105.918V105.918C105.382 106.32 105.361 106.722 105.331 107.124C105.302 107.526 105.286 107.928 105.268 108.33C105.237 109.134 105.216 109.937 105.209 110.741C105.209 111.143 105.198 111.545 105.206 111.947L105.209 112.248L105.209 112.406L105.202 112.556C105.186 112.774 105.133 112.988 105.049 113.186C104.874 113.583 104.579 113.922 104.216 114.167C103.851 114.414 103.421 114.564 102.967 114.626V113.967C103.657 114.088 104.454 113.735 104.804 113.069C104.887 112.901 104.942 112.725 104.969 112.543L104.979 112.393L104.981 112.248L104.984 111.947C104.992 111.545 104.981 111.143 104.981 110.741C104.975 109.937 104.953 109.134 104.922 108.33C104.904 107.928 104.888 107.526 104.859 107.124C104.829 106.722 104.808 106.32 104.767 105.918V105.918L105.095 106.247H100.839L101.167 105.918V105.918C101.128 106.32 101.109 106.722 101.082 107.124C101.057 107.526 101.04 107.928 101.025 108.33C100.997 109.134 100.978 109.937 100.975 110.741C100.971 111.143 100.97 111.545 100.975 111.947C100.981 112.143 100.97 112.361 100.993 112.535C101.018 112.718 101.072 112.894 101.153 113.058C101.24 113.219 101.354 113.364 101.484 113.491C101.613 113.62 101.771 113.716 101.93 113.798C102.09 113.883 102.269 113.924 102.441 113.957C102.624 113.989 102.762 113.984 102.982 113.967L102.952 114.626Z" fill="#586978"/>
<path fill-rule="evenodd" clip-rule="evenodd" d="M92.3113 94.0688C91.6971 94.0688 91.1987 94.7665 91.1987 95.6266C91.1987 96.4868 91.6971 97.1844 92.3113 97.1844" fill="#DBD0D1"/>
<path fill-rule="evenodd" clip-rule="evenodd" d="M113.421 94.0688C114.035 94.0688 114.533 94.7665 114.533 95.6266C114.533 96.4868 114.035 97.1844 113.421 97.1844" fill="#DBD0D1"/>
<path fill-rule="evenodd" clip-rule="evenodd" d="M102.646 109.409H102.893C108.783 109.409 113.602 104.569 113.602 98.6545L113.683 88.5549C113.683 84.8047 110.628 81.7363 106.893 81.7363H100.159C95.8181 81.7363 92.2661 85.3032 92.2661 89.6633V98.6545C92.2661 104.569 96.7564 109.409 102.646 109.409" fill="#FFF6F7"/>
<path fill-rule="evenodd" clip-rule="evenodd" d="M102.646 109.079C102.646 109.079 102.727 109.082 102.883 109.086C103.035 109.083 103.261 109.078 103.556 109.072C103.705 109.065 103.88 109.074 104.056 109.052C104.232 109.028 104.425 109.002 104.633 108.974C104.737 108.96 104.846 108.945 104.958 108.93C105.07 108.91 105.184 108.877 105.303 108.85C105.54 108.789 105.797 108.739 106.06 108.66C107.108 108.331 108.344 107.753 109.537 106.775C110.715 105.791 111.843 104.405 112.58 102.652C112.935 101.772 113.188 100.81 113.311 99.7928C113.396 98.782 113.382 97.6881 113.394 96.579C113.414 94.356 113.434 92.0116 113.455 89.5864C113.458 89.2834 113.46 88.9788 113.463 88.6732C113.458 88.3966 113.446 88.0626 113.414 87.7731C113.345 87.1959 113.189 86.6054 112.966 86.0462C112.499 84.9349 111.73 83.9297 110.729 83.2109C110.232 82.8522 109.688 82.546 109.103 82.3462C108.817 82.2248 108.51 82.1705 108.212 82.0857C107.905 82.0458 107.601 81.972 107.29 81.9713C106.983 81.9492 106.663 81.9482 106.34 81.9502L105.376 81.9496L103.444 81.9486L101.513 81.9476L100.548 81.9469C100.393 81.9489 100.216 81.9423 100.077 81.9512L99.5968 81.9753C98.3552 82.0485 97.1419 82.4741 96.0969 83.1285C95.0418 83.776 94.1768 84.6968 93.556 85.738C93.235 86.2546 93.0094 86.8184 92.8141 87.3844C92.7462 87.6762 92.6503 87.9611 92.6043 88.2551C92.5659 88.5499 92.496 88.8403 92.4957 89.137C92.451 89.7193 92.474 90.3331 92.4674 90.9256C92.4671 91.521 92.4668 92.1108 92.4665 92.6947C92.4658 93.8618 92.4651 95.0035 92.4645 96.1152C92.4642 96.671 92.4638 97.219 92.4638 97.759C92.4635 98.029 92.4635 98.297 92.4632 98.5628C92.4665 98.8097 92.4855 99.0866 92.4957 99.3435C92.5016 99.4743 92.5078 99.6042 92.5137 99.7338L92.5672 100.107C92.6056 100.355 92.6313 100.601 92.6785 100.843C92.7997 101.323 92.8899 101.803 93.0649 102.247C93.6604 104.065 94.7398 105.507 95.8671 106.544C97 107.594 98.2262 108.206 99.2613 108.558C99.3913 108.602 99.514 108.656 99.6398 108.688C99.7658 108.719 99.8883 108.749 100.007 108.778C100.246 108.83 100.465 108.9 100.676 108.927C101.1 108.976 101.455 109.048 101.749 109.053C102.334 109.07 102.646 109.079 102.646 109.079V109.739C102.646 109.739 102.315 109.715 101.695 109.67C101.385 109.649 101.009 109.558 100.566 109.487C100.345 109.448 100.116 109.365 99.8669 109.299C99.7432 109.264 99.6151 109.228 99.4838 109.191C99.3522 109.153 99.2238 109.093 99.0886 109.043C98.0039 108.651 96.7528 107.956 95.5782 106.86C94.4076 105.768 93.3249 104.251 92.6963 102.375C92.5154 101.914 92.4198 101.418 92.2948 100.92C92.2452 100.667 92.217 100.406 92.1769 100.146C92.1585 100.015 92.1401 99.8841 92.1218 99.7526C92.1155 99.623 92.1093 99.4931 92.103 99.3626C92.0922 99.0968 92.0738 98.8473 92.0692 98.5628C92.0689 98.297 92.0689 98.029 92.0686 97.759C92.0686 97.219 92.0682 96.671 92.0679 96.1152C92.0673 95.0035 92.0666 93.8618 92.0659 92.6947C92.0656 92.1108 92.0653 91.521 92.065 90.9256C92.0709 90.3269 92.0463 89.7371 92.0916 89.1093C92.0929 88.7971 92.1644 88.4909 92.2055 88.1803C92.2537 87.8707 92.3532 87.57 92.4254 87.2631C92.6296 86.6664 92.8676 86.0726 93.2044 85.528C93.8571 84.4304 94.7671 83.4612 95.877 82.7767C96.979 82.0861 98.2511 81.636 99.5754 81.5566L100.056 81.5315C100.238 81.5216 100.383 81.5286 100.548 81.5262L101.513 81.5256L103.444 81.5246L105.376 81.5236L106.34 81.5229C106.66 81.5206 106.981 81.5206 107.315 81.5437C107.647 81.5454 107.972 81.6215 108.299 81.665C108.616 81.7534 108.943 81.8131 109.248 81.9413C109.872 82.154 110.452 82.4787 110.982 82.8605C112.048 83.6247 112.869 84.6935 113.369 85.8788C113.607 86.4785 113.773 87.094 113.85 87.7405C113.885 88.0619 113.894 88.3435 113.901 88.6768C113.899 88.9824 113.897 89.2867 113.894 89.59C113.876 92.0152 113.859 94.3596 113.842 96.5827C113.829 97.6957 113.848 98.7672 113.76 99.8416C113.632 100.903 113.37 101.907 113 102.827C112.234 104.657 111.058 106.104 109.83 107.132C108.583 108.147 107.308 108.779 106.212 109.137C105.939 109.227 105.672 109.291 105.425 109.363C105.301 109.396 105.182 109.434 105.064 109.46C104.943 109.48 104.827 109.5 104.715 109.52C104.491 109.558 104.283 109.594 104.093 109.627C103.902 109.661 103.738 109.66 103.586 109.677C103.278 109.701 103.042 109.719 102.883 109.732C102.727 109.736 102.646 109.739 102.646 109.739V109.079Z" fill="#586978"/>
<path fill-rule="evenodd" clip-rule="evenodd" d="M103.221 99.2567C102.355 99.2567 101.617 98.9327 101.336 98.478C101.256 98.6056 101.213 98.7431 101.213 98.8868C101.213 99.5426 102.112 100.074 103.221 100.074C104.329 100.074 105.228 99.5426 105.228 98.8868C105.228 98.7431 105.185 98.6056 105.106 98.478C104.824 98.9327 104.087 99.2567 103.221 99.2567" fill="#DBD0D1"/>
<path fill-rule="evenodd" clip-rule="evenodd" d="M105.038 98.8866C105.038 98.8866 105.037 98.8573 105.035 98.8019C105.026 98.7475 105.015 98.6637 104.955 98.5642C104.9 98.4649 104.805 98.3472 104.663 98.2421C104.522 98.1343 104.336 98.0413 104.119 97.9767C103.904 97.9111 103.653 97.8781 103.4 97.8722C103.132 97.8682 102.862 97.8903 102.59 97.9632C102.321 98.0344 102.053 98.1484 101.839 98.3139C101.734 98.397 101.641 98.4903 101.58 98.5906C101.55 98.6403 101.53 98.6921 101.515 98.7399C101.514 98.7584 101.51 98.7729 101.504 98.7913L101.499 98.911C101.501 98.8629 101.5 98.8991 101.5 98.8889L101.501 98.8909L101.502 98.8955L101.504 98.9044L101.507 98.9219L101.512 98.9572C101.52 98.9799 101.528 99.0027 101.535 99.0254C101.557 99.0702 101.58 99.1157 101.613 99.1599C101.68 99.2479 101.775 99.3284 101.881 99.397C102.095 99.5397 102.357 99.6264 102.616 99.6825C102.746 99.7125 102.879 99.7263 102.998 99.7408C103.06 99.7481 103.138 99.7494 103.206 99.7537C103.268 99.755 103.328 99.756 103.388 99.757C103.637 99.757 103.871 99.724 104.08 99.6729C104.502 99.5753 104.802 99.367 104.922 99.1876C104.957 99.1444 104.973 99.1016 104.993 99.0656C105.005 99.0336 105.015 99.0063 105.023 98.9842C105.033 98.91 105.038 98.8705 105.038 98.8705L105.038 98.8866ZM105.418 98.903C105.418 98.903 105.417 98.9432 105.414 99.0181C105.408 99.0632 105.394 99.1341 105.374 99.2033C105.35 99.2663 105.325 99.3421 105.279 99.414C105.109 99.715 104.737 100.015 104.244 100.198C103.997 100.29 103.719 100.351 103.422 100.38C103.344 100.385 103.279 100.394 103.187 100.393C103.116 100.392 103.051 100.395 102.97 100.39C102.803 100.382 102.644 100.361 102.482 100.327C102.158 100.26 101.828 100.138 101.521 99.9257C101.232 99.7068 100.911 99.3867 100.928 98.8625L100.943 98.7434C100.956 98.6841 100.973 98.6215 100.992 98.5624C101.033 98.4609 101.083 98.3696 101.144 98.2878C101.265 98.1266 101.412 98.0063 101.564 97.9103C101.87 97.7214 102.195 97.6255 102.509 97.574C102.821 97.5239 103.132 97.5121 103.41 97.5371C103.703 97.5605 103.965 97.6215 104.205 97.6996C104.681 97.8566 105.061 98.1005 105.245 98.3811C105.342 98.5156 105.381 98.6518 105.402 98.7424C105.413 98.8367 105.419 98.8868 105.419 98.8868L105.418 98.903Z" fill="#586978"/>
<path fill-rule="evenodd" clip-rule="evenodd" d="M103.506 95.5071C103.506 95.5071 103.491 95.6245 103.477 95.8009C103.466 95.9773 103.447 96.2123 103.445 96.4474C103.443 96.6821 103.43 96.9172 103.449 97.0936C103.469 97.27 103.506 97.3873 103.506 97.3873C103.564 97.5693 103.463 97.7638 103.282 97.8215C103.1 97.8792 102.907 97.7783 102.85 97.596C102.827 97.5255 102.829 97.4529 102.85 97.3873C102.85 97.3873 102.887 97.27 102.907 97.0936C102.926 96.9172 102.913 96.6821 102.91 96.4474C102.909 96.2123 102.89 95.9773 102.879 95.8009C102.864 95.6245 102.85 95.5071 102.85 95.5071C102.827 95.3251 102.955 95.159 103.137 95.1359C103.318 95.1132 103.484 95.2421 103.506 95.424C103.51 95.4517 103.509 95.4808 103.506 95.5071" fill="#586978"/>
<path fill-rule="evenodd" clip-rule="evenodd" d="M105.47 90.6883L105.499 90.69L105.529 90.6929L105.558 90.6972L105.587 90.7028L105.616 90.7097L105.644 90.718L108.999 91.7674L109.027 91.7769L109.054 91.7875L109.081 91.7994L109.108 91.8125L109.133 91.8267L109.158 91.8422L109.183 91.8587L109.207 91.8765L109.229 91.895L109.251 91.9147L109.272 91.9355L109.293 91.9569L109.312 91.9794L109.33 92.0028L109.347 92.0268L109.363 92.0519L109.378 92.0773L109.392 92.1037L109.404 92.1304L109.415 92.1577L109.425 92.1854L109.434 92.2138L109.442 92.2425L109.448 92.2711L109.453 92.3005L109.457 92.3298L109.459 92.3592L109.46 92.3888L109.46 92.4185L109.458 92.4479L109.455 92.4775L109.451 92.5069L109.445 92.5359L109.439 92.5646L109.43 92.5929L109.421 92.6209L109.41 92.6486L109.398 92.6757L109.385 92.7024L109.371 92.7281L109.356 92.7535L109.339 92.7779L109.322 92.8016L109.303 92.8247L109.284 92.8468L109.263 92.8679L109.242 92.888L109.219 92.9074L109.196 92.9256L109.172 92.9427L109.147 92.9589L109.122 92.9737L109.095 92.9875L109.069 93.0001L109.042 93.0113L109.014 93.0215L108.986 93.0304L108.958 93.038L108.929 93.0443L108.899 93.0492L108.87 93.0528L108.841 93.0551L108.811 93.0561L108.782 93.0558L108.753 93.0541L108.723 93.0512L108.694 93.0469L108.665 93.0416L108.637 93.0347L108.608 93.0264L105.253 91.9771L105.225 91.9675L105.198 91.9569L105.171 91.9451L105.145 91.9319L105.119 91.9174L105.094 91.9022L105.069 91.8854L105.045 91.8679L105.023 91.8491L105.001 91.8297L104.979 91.8089L104.959 91.7872L104.94 91.7647L104.922 91.7413L104.905 91.7173L104.889 91.6925L104.874 91.6668L104.861 91.6408L104.848 91.6141L104.837 91.5867L104.827 91.5587L104.818 91.5307L104.81 91.502L104.804 91.473L104.799 91.444L104.795 91.4146L104.793 91.3849L104.792 91.3556L104.792 91.3259L104.794 91.2963L104.797 91.2669L104.801 91.2376L104.807 91.2086L104.814 91.1799L104.822 91.1512L104.831 91.1232L104.842 91.0958L104.854 91.0684L104.867 91.0421L104.881 91.016L104.896 90.991L104.913 90.9662L104.93 90.9425L104.949 90.9198L104.969 90.8977L104.989 90.8766L105.011 90.8561L105.033 90.837L105.056 90.8189L105.08 90.8017L105.105 90.7856L105.13 90.7707L105.156 90.7569L105.183 90.7444L105.21 90.7328L105.238 90.7229L105.266 90.714L105.295 90.7065L105.323 90.7002L105.352 90.6952L105.382 90.6916L105.411 90.689L105.441 90.688L105.47 90.6883Z" fill="#586978"/>
<path fill-rule="evenodd" clip-rule="evenodd" d="M100.501 91.3472L97.146 92.3966Z" fill="#586978"/>
<path fill-rule="evenodd" clip-rule="evenodd" d="M100.538 90.689L100.568 90.6916L100.597 90.6952L100.626 90.7002L100.655 90.7065L100.683 90.714L100.711 90.7229L100.739 90.7328L100.766 90.7444L100.793 90.7569L100.819 90.7707L100.844 90.7856L100.869 90.8017L100.893 90.8189L100.916 90.837L100.939 90.8561L100.96 90.8766L100.981 90.8977L101.001 90.9198L101.019 90.9425L101.037 90.9662L101.053 90.991L101.068 91.016L101.083 91.0421L101.096 91.0684L101.108 91.0958L101.118 91.1232L101.128 91.1512L101.136 91.1799L101.143 91.2086L101.148 91.2376L101.152 91.2669L101.155 91.2963L101.157 91.3259L101.157 91.3556L101.156 91.3849L101.154 91.4146L101.15 91.444L101.145 91.473L101.139 91.502L101.132 91.5307L101.123 91.5587L101.112 91.5867L101.101 91.6141L101.089 91.6408L101.075 91.6668L101.06 91.6925L101.044 91.7173L101.027 91.7413L101.009 91.7647L100.99 91.7872L100.97 91.8089L100.949 91.8297L100.927 91.8491L100.904 91.8679L100.88 91.8854L100.856 91.9022L100.83 91.9174L100.805 91.9319L100.778 91.9451L100.751 91.9569L100.724 91.9675L100.696 91.9771L97.3412 93.0264L97.3126 93.0347L97.284 93.0416L97.2551 93.0469L97.2259 93.0512L97.1967 93.0541L97.1672 93.0558L97.1376 93.0561L97.1084 93.0551L97.0789 93.0528L97.0496 93.0492L97.0207 93.0443L96.9919 93.038L96.9633 93.0304L96.9354 93.0215L96.9075 93.0113L96.8802 93.0001L96.8537 92.9875L96.8277 92.9737L96.8021 92.9589L96.7775 92.9427L96.7535 92.9256L96.7302 92.9074L96.7079 92.888L96.6862 92.8679L96.6655 92.8468L96.6462 92.8247L96.6275 92.8016L96.6097 92.7779L96.5933 92.7535L96.5779 92.7281L96.5638 92.7024L96.5506 92.6757L96.5388 92.6486L96.5283 92.6209L96.5188 92.5929L96.5106 92.5646L96.504 92.5359L96.4984 92.5069L96.4942 92.4775L96.4912 92.4479L96.4896 92.4185L96.4893 92.3888L96.4902 92.3592L96.4925 92.3298L96.4962 92.3005L96.5011 92.2711L96.5073 92.2425L96.5149 92.2138L96.5237 92.1854L96.5339 92.1577L96.5451 92.1304L96.5579 92.1037L96.5713 92.0773L96.5861 92.0519L96.6022 92.0268L96.6193 92.0028L96.6373 91.9794L96.6567 91.9569L96.6767 91.9355L96.6977 91.9147L96.7197 91.895L96.7427 91.8765L96.7663 91.8587L96.7906 91.8422L96.8159 91.8267L96.8418 91.8125L96.8681 91.7994L96.895 91.7875L96.9226 91.7769L96.9505 91.7674L100.306 90.718L100.334 90.7097L100.362 90.7028L100.391 90.6972L100.42 90.6929L100.45 90.69L100.479 90.6883L100.509 90.688L100.538 90.689Z" fill="#586978"/>
<path fill-rule="evenodd" clip-rule="evenodd" d="M98.8651 93.9858C99.2275 93.9858 99.5216 94.4289 99.5216 94.9749C99.5216 95.5209 99.2275 95.964 98.8651 95.964C98.5026 95.964 98.2085 95.5209 98.2085 94.9749C98.2085 94.4289 98.5026 93.9858 98.8651 93.9858" fill="#586978"/>
<path fill-rule="evenodd" clip-rule="evenodd" d="M107.4 93.9858C107.763 93.9858 108.057 94.4289 108.057 94.9749C108.057 95.5209 107.763 95.964 107.4 95.964C107.038 95.964 106.744 95.5209 106.744 94.9749C106.744 94.4289 107.038 93.9858 107.4 93.9858" fill="#586978"/>
<path fill-rule="evenodd" clip-rule="evenodd" d="M113.927 83.2747C113.927 83.2747 115.437 84.5281 113.764 89.542C113.764 89.542 113.516 85.2096 111.643 83.6561C109.771 82.103 112.344 81.2992 113.927 83.2747" fill="#A89A99"/>
<path fill-rule="evenodd" clip-rule="evenodd" d="M113.671 83.4816C113.406 83.148 113.082 82.8634 112.715 82.6666C112.354 82.4721 111.927 82.3537 111.57 82.4147C111.395 82.449 111.274 82.5278 111.255 82.6191C111.223 82.7181 111.285 82.9043 111.402 83.0669C111.46 83.1496 111.528 83.2307 111.599 83.3039C111.668 83.3807 111.769 83.4605 111.844 83.5429L112.106 83.811C112.188 83.9039 112.256 84.0068 112.33 84.1044C112.408 84.2003 112.472 84.3042 112.532 84.4097C112.593 84.5142 112.66 84.6161 112.716 84.7232C112.82 84.9401 112.932 85.1538 113.016 85.3776C113.112 85.5972 113.189 85.8227 113.265 86.0482C113.339 86.2744 113.405 86.5025 113.471 86.7307C113.595 87.1886 113.704 87.6492 113.807 88.113L113.954 88.8116L114.092 89.5231V89.5231L113.453 89.4374C113.56 89.1924 113.652 88.9412 113.751 88.6923C113.803 88.5677 113.837 88.4391 113.879 88.3122L113.995 87.9287C114.076 87.6732 114.123 87.4111 114.185 87.1513C114.218 87.0218 114.231 86.8892 114.253 86.758C114.271 86.6265 114.297 86.4953 114.31 86.3634L114.34 85.9671C114.355 85.8349 114.343 85.7034 114.341 85.5718C114.342 85.4399 114.332 85.3087 114.312 85.1798C114.295 85.0506 114.282 84.921 114.251 84.7961C114.205 84.5432 114.13 84.3002 114.037 84.0757C113.991 83.9649 113.941 83.8555 113.882 83.7592C113.83 83.6636 113.755 83.5607 113.708 83.5205L113.69 83.5047L113.671 83.4816ZM114.32 83.2331C114.368 83.3027 114.408 83.3716 114.447 83.4438C114.522 83.5829 114.572 83.7263 114.619 83.8687C114.7 84.1569 114.744 84.445 114.759 84.7299C114.774 84.8726 114.77 85.0141 114.769 85.1552C114.772 85.2963 114.763 85.4361 114.755 85.5749C114.745 85.714 114.746 85.8538 114.729 85.9909L114.693 86.4044C114.682 86.5422 114.658 86.6777 114.64 86.8145C114.619 86.9506 114.607 87.0888 114.582 87.2236C114.529 87.493 114.491 87.7666 114.432 88.0343C114.37 88.3014 114.323 88.5737 114.258 88.8404C114.198 89.1084 114.129 89.3745 114.076 89.6468L113.746 91.3269L113.437 89.5611V89.5608C113.454 89.3399 113.443 89.1041 113.44 88.8747C113.431 88.6436 113.412 88.4128 113.386 88.183C113.331 87.7241 113.254 87.2662 113.137 86.8198C113.079 86.5966 113.017 86.374 112.941 86.1571C112.864 85.9402 112.789 85.7232 112.694 85.5149C112.611 85.3009 112.494 85.1051 112.391 84.9033C112.336 84.8047 112.27 84.7131 112.21 84.6178C112.152 84.5209 112.086 84.4305 112.012 84.3484C111.939 84.2647 111.872 84.1747 111.796 84.0969L111.554 83.8773C111.466 83.7919 111.378 83.7332 111.284 83.6422C111.187 83.5529 111.098 83.4599 111.016 83.3557C110.862 83.1497 110.686 82.881 110.744 82.5071C110.777 82.3248 110.894 82.159 111.027 82.0594C111.161 81.9566 111.305 81.9002 111.446 81.8629C112.012 81.733 112.538 81.8814 113.002 82.1039C113.468 82.3311 113.859 82.6779 114.183 83.0679L114.32 83.2331Z" fill="#586978"/>
<path opacity="0.2" fill-rule="evenodd" clip-rule="evenodd" d="M111.643 83.6564C109.771 82.1033 112.344 81.2995 113.927 83.275C113.927 83.275 114.063 83.3897 114.209 83.6841C115.648 81.2507 115.923 78.876 115.923 78.876C115.923 78.876 113.706 80.1334 102.864 80.1334C99.2893 80.1334 96.8495 80.4482 95.1848 80.8706C93.0811 81.404 91.6285 83.3317 91.6961 85.5093L91.9853 94.8258L92.4288 95.3164C92.4288 91.7195 94.7633 88.8638 104.771 88.8638C108.667 88.8638 111.216 87.3482 112.881 85.4994C112.579 84.7691 112.177 84.0995 111.643 83.6564" fill="#A89A99"/>
<path fill-rule="evenodd" clip-rule="evenodd" d="M92.4288 93.9976L91.9853 93.507L91.6961 84.1904C91.6285 82.0128 93.0811 80.0852 95.1848 79.5517C96.8495 79.1294 99.2893 78.8146 102.864 78.8146C113.706 78.8146 115.923 77.5571 115.923 77.5571C115.923 77.5571 114.779 87.545 104.771 87.545C94.7633 87.545 92.4288 90.4007 92.4288 93.9976" fill="#A89A99"/>
<path fill-rule="evenodd" clip-rule="evenodd" d="M92.1005 93.9975C92.1262 93.2999 92.2328 92.597 92.4676 91.9284C92.7089 91.2585 93.1172 90.6641 93.5936 90.1541C93.8503 89.917 94.0991 89.6707 94.3939 89.4878C94.5384 89.3932 94.672 89.2797 94.825 89.2016L95.279 88.9599C95.8889 88.6487 96.5337 88.4278 97.182 88.2399C97.5024 88.1285 97.8376 88.081 98.1643 87.9996C98.4919 87.9178 98.8238 87.8647 99.1563 87.8169C99.8185 87.6986 100.488 87.6452 101.154 87.5802C101.487 87.5443 101.824 87.542 102.158 87.5215C102.493 87.511 102.828 87.4737 103.161 87.4691C103.828 87.4556 104.497 87.4256 105.161 87.3847L105.655 87.3537L106.147 87.297C106.475 87.2687 106.797 87.1998 107.121 87.144C107.445 87.0923 107.76 86.9934 108.079 86.9195C108.388 86.8107 108.708 86.7329 109.006 86.5984C109.62 86.3696 110.195 86.0515 110.744 85.7017C111.296 85.3525 111.794 84.9243 112.259 84.4683C113.189 83.5511 113.917 82.4398 114.474 81.2558C114.751 80.6624 114.984 80.0476 115.176 79.4205C115.362 78.7967 115.517 78.1433 115.597 77.5195L116.085 77.8443L116.084 77.8449C115.848 77.9597 115.683 78.0009 115.484 78.0645C115.294 78.1176 115.104 78.1687 114.915 78.2096C114.535 78.2969 114.156 78.3662 113.776 78.4258C113.017 78.5485 112.256 78.6299 111.496 78.7024C110.736 78.776 109.976 78.828 109.215 78.8709C108.454 78.9128 107.693 78.9418 106.933 78.9609C106.172 78.9879 105.41 78.9972 104.65 79.0104L102.373 79.0193C100.86 79.0262 99.3464 79.0931 97.8491 79.2774C97.1019 79.371 96.3551 79.4904 95.6273 79.6572C95.253 79.7446 94.9087 79.8326 94.5742 79.9806C94.2455 80.1313 93.9225 80.3037 93.6395 80.5322C93.0654 80.9746 92.5986 81.5608 92.3057 82.2251C92.1603 82.5571 92.0474 82.9053 91.9919 83.2636C91.9525 83.4433 91.9499 83.6167 91.9298 83.7934L91.9282 84.0793C91.9285 84.1225 91.9269 84.1848 91.9289 84.2121L91.9344 84.3552L92.113 88.9263L92.3133 93.4968L92.2282 93.2854C92.2644 93.4018 92.3343 93.4872 92.4108 93.5663C92.4879 93.6454 92.571 93.7186 92.6718 93.776L92.1005 93.9975ZM92.1861 94.2189C92.1388 94.1127 92.0745 94.0224 92.0036 93.938C91.9323 93.8536 91.8545 93.7755 91.7426 93.7283C91.6914 93.7069 91.6599 93.6574 91.6589 93.605L91.6572 93.517L91.5742 88.9429L91.4688 84.3695L91.4655 84.2264C91.4635 84.1589 91.4665 84.1256 91.4668 84.0735L91.4724 83.7876C91.4951 83.5859 91.5049 83.3762 91.5499 83.1833C91.6175 82.789 91.7465 82.4072 91.9117 82.0452C92.2412 81.3189 92.753 80.678 93.3853 80.197C93.6965 79.9484 94.0504 79.7605 94.4112 79.5977C94.7736 79.4387 95.1689 79.3402 95.5339 79.2574C96.2873 79.0883 97.0424 78.9719 97.802 78.8803C99.3213 78.7068 100.846 78.636 102.369 78.6152L104.647 78.5924C105.405 78.5743 106.161 78.5611 106.918 78.5288C107.674 78.4958 108.43 78.453 109.185 78.3976C109.939 78.3412 110.693 78.2756 111.443 78.1889C112.193 78.1052 112.939 77.9911 113.675 77.85C114.043 77.7798 114.409 77.7 114.767 77.6054C114.947 77.5602 115.122 77.5068 115.297 77.4524C115.458 77.3973 115.658 77.3265 115.762 77.2701V77.2697L115.794 77.2546C115.955 77.1784 116.147 77.2477 116.223 77.4092C116.251 77.4692 116.259 77.5335 116.25 77.5945C116.145 78.299 115.973 78.9502 115.765 79.6062C115.552 80.257 115.297 80.8933 114.994 81.5075C114.389 82.7323 113.603 83.8819 112.607 84.8265C112.109 85.2963 111.577 85.7348 110.992 86.0902C110.408 86.4459 109.8 86.7657 109.156 86.9918C108.842 87.125 108.508 87.2005 108.185 87.3064C107.853 87.3773 107.525 87.4719 107.19 87.5193C106.855 87.5737 106.52 87.6248 106.181 87.6423L105.676 87.6796L105.169 87.6802C104.5 87.6842 103.833 87.6641 103.166 87.6799C102.5 87.7027 101.837 87.7495 101.175 87.8128C100.515 87.8922 99.8538 87.9601 99.2035 88.0917L98.7137 88.1787C98.5512 88.21 98.392 88.2559 98.2308 88.2938C97.912 88.3811 97.5831 88.4346 97.2742 88.5509C96.6442 88.7451 96.0303 88.9904 95.4601 89.3053L95.0379 89.5496C94.8954 89.6283 94.7762 89.7395 94.6443 89.8321C94.3738 90.0124 94.1558 90.2485 93.9276 90.472C93.5081 90.951 93.1778 91.5019 92.992 92.1079C92.8138 92.7162 92.7488 93.3545 92.7573 93.9973L92.7586 94.0929C92.7606 94.2588 92.6286 94.3949 92.4632 94.3973C92.3401 94.3989 92.2334 94.3254 92.1861 94.2189V94.2189Z" fill="#586978"/>
<path fill-rule="evenodd" clip-rule="evenodd" d="M114.798 75.7903C114.798 75.7903 114.752 76.0633 114.636 76.5047C114.52 76.9498 114.339 77.5801 114.047 78.3074C113.757 79.0344 113.374 79.8675 112.851 80.696C112.594 81.1114 112.301 81.5248 111.976 81.9224C111.656 82.324 111.3 82.7074 110.923 83.0674C110.734 83.2471 110.533 83.4143 110.336 83.5831C110.127 83.737 109.93 83.9062 109.714 84.045C109.499 84.1854 109.292 84.3338 109.069 84.4518C108.851 84.5784 108.635 84.7007 108.412 84.8006C108.194 84.9094 107.976 85.0096 107.755 85.0904C107.537 85.1781 107.325 85.2668 107.11 85.3297C106.688 85.4784 106.277 85.5767 105.9 85.6769C105.517 85.7468 105.169 85.8447 104.853 85.877C104.538 85.9133 104.264 85.972 104.037 85.9865C103.582 86.027 103.32 86.0607 103.32 86.0607C103.139 86.0834 102.974 85.9548 102.951 85.7728C102.928 85.5909 103.056 85.4247 103.237 85.4016C103.258 85.399 103.279 85.3983 103.299 85.3996L103.32 85.4013C103.32 85.4013 103.569 85.4181 104.009 85.43C104.229 85.4471 104.494 85.4224 104.8 85.4062C105.107 85.3983 105.446 85.334 105.821 85.2898C106.188 85.2068 106.591 85.1332 107 84.9902C107.208 84.9311 107.415 84.8517 107.624 84.7643C107.837 84.6849 108.046 84.586 108.256 84.4788C108.47 84.3809 108.677 84.2609 108.886 84.1369C109.099 84.0219 109.297 83.8765 109.503 83.7393C109.71 83.6042 109.898 83.439 110.098 83.2893C110.286 83.1245 110.479 82.9623 110.659 82.7875C111.018 82.4358 111.362 82.0668 111.661 81.6715C111.964 81.2789 112.235 80.8724 112.472 80.4639C112.717 80.0597 112.916 79.6473 113.101 79.2563C113.277 78.86 113.435 78.4818 113.553 78.1225C113.803 77.4084 113.95 76.7948 114.039 76.3659C114.124 75.932 114.148 75.6957 114.148 75.6957C114.166 75.5143 114.328 75.3825 114.508 75.4006C114.689 75.4191 114.82 75.5809 114.802 75.7623C114.801 75.7692 114.8 75.7758 114.799 75.7824L114.798 75.7903Z" fill="#586978"/>
<path fill-rule="evenodd" clip-rule="evenodd" d="M113.118 74.0975C113.118 74.0975 113.079 74.3467 112.984 74.7549C112.89 75.1663 112.741 75.7486 112.513 76.431C112.28 77.1111 111.982 77.8971 111.575 78.6989C111.366 79.0968 111.146 79.506 110.883 79.8993C110.631 80.2979 110.347 80.6863 110.043 81.0578C109.73 81.4221 109.407 81.7798 109.047 82.0884C108.697 82.4079 108.317 82.6812 107.94 82.9278C107.75 83.0488 107.552 83.1513 107.365 83.2604C107.17 83.3551 106.979 83.4477 106.792 83.5377C106.6 83.6139 106.413 83.688 106.232 83.7596C106.051 83.8305 105.868 83.877 105.696 83.9333C105.525 83.9927 105.357 84.0319 105.196 84.0702C105.036 84.1064 104.885 84.1529 104.739 84.1747C104.449 84.2149 104.195 84.2732 103.985 84.2963C103.564 84.3385 103.321 84.3728 103.321 84.3728C103.14 84.3982 102.972 84.2713 102.947 84.0893C102.922 83.9073 103.048 83.7395 103.229 83.7141C103.252 83.7108 103.275 83.7101 103.297 83.7115L103.321 83.7134C103.321 83.7134 103.547 83.7296 103.949 83.7405C104.149 83.749 104.391 83.7253 104.67 83.7062C104.81 83.6976 104.954 83.6653 105.11 83.6442C105.265 83.6195 105.43 83.6007 105.595 83.5516C105.76 83.5051 105.937 83.4688 106.113 83.4088C106.288 83.3472 106.469 83.2819 106.652 83.2093C106.831 83.1243 107.017 83.0442 107.202 82.9495C107.38 82.8431 107.568 82.7435 107.749 82.6258C108.107 82.3861 108.468 82.1214 108.8 81.8115C109.142 81.5128 109.449 81.1653 109.746 80.8119C110.035 80.4502 110.309 80.076 110.543 79.684C110.785 79.2966 110.986 78.8934 111.177 78.5024C111.544 77.7125 111.822 76.9453 112.01 76.2741C112.197 75.6022 112.315 75.0331 112.383 74.6345C112.448 74.232 112.467 74.0121 112.467 74.0121C112.483 73.8308 112.642 73.6966 112.823 73.7127C113.004 73.7286 113.138 73.8888 113.122 74.0705C113.121 74.0777 113.12 74.085 113.119 74.0922L113.118 74.0975Z" fill="#586978"/>
<path fill-rule="evenodd" clip-rule="evenodd" d="M105.931 102.949C105.931 102.949 105.85 102.995 105.708 103.077C105.563 103.159 105.346 103.262 105.081 103.36C104.816 103.46 104.498 103.539 104.157 103.591C103.986 103.62 103.81 103.639 103.63 103.653C103.449 103.664 103.272 103.669 103.085 103.667C102.912 103.662 102.731 103.661 102.549 103.651C102.371 103.64 102.195 103.625 102.025 103.601C101.687 103.55 101.366 103.491 101.095 103.397C100.825 103.302 100.597 103.195 100.444 103.087C100.291 102.982 100.207 102.893 100.207 102.893L100.201 102.887C100.075 102.755 100.08 102.546 100.212 102.419C100.343 102.293 100.552 102.298 100.677 102.43C100.687 102.441 100.697 102.453 100.705 102.464C100.705 102.464 100.714 102.476 100.731 102.5C100.747 102.523 100.777 102.559 100.821 102.6C100.91 102.682 101.064 102.8 101.286 102.895C101.507 102.989 101.785 103.083 102.096 103.131C102.413 103.181 102.735 103.216 103.092 103.211C103.255 103.208 103.429 103.2 103.593 103.185C103.757 103.168 103.919 103.147 104.072 103.117C104.379 103.053 104.653 102.956 104.874 102.854C105.096 102.75 105.263 102.635 105.377 102.552C105.483 102.471 105.553 102.409 105.553 102.409C105.69 102.288 105.899 102.3 106.02 102.438C106.141 102.575 106.128 102.784 105.991 102.906C105.975 102.921 105.957 102.934 105.938 102.945L105.931 102.949Z" fill="#586978"/>
<path fill-rule="evenodd" clip-rule="evenodd" d="M101.185 104.87C101.185 104.511 101.476 104.22 101.835 104.22H104.44C104.799 104.22 105.09 104.511 105.09 104.87C105.09 105.229 104.799 105.52 104.44 105.52H101.835C101.476 105.52 101.185 105.229 101.185 104.87Z" fill="#586978"/>
</g>
<path fill-rule="evenodd" clip-rule="evenodd" d="M579.584 368.59C578.712 369.728 577.317 370.341 575.897 370.341H547.197C545.777 370.341 544.381 369.728 543.51 368.59C538.502 362.062 538.788 353.107 542.438 346.866C544.967 342.526 544.743 340.8 541.504 336.96C541.043 336.41 540.682 336.085 540.57 335.972C540.856 336.147 541.143 336.31 541.417 336.472C541.791 336.685 542.152 336.885 542.513 337.073C543.709 337.711 544.892 338.261 546.063 338.761C546.848 339.099 547.62 339.399 548.368 339.674C548.754 339.824 549.127 339.949 549.489 340.074C549.875 340.212 550.261 340.337 550.635 340.45C551.345 340.675 552.042 340.887 552.715 341.063C553.388 341.25 554.048 341.413 554.671 341.55C554.932 341.613 555.181 341.675 555.43 341.725C555.53 341.75 555.63 341.763 555.717 341.788C555.979 341.85 556.228 341.9 556.464 341.938C558.632 342.363 560.264 342.551 561.036 342.626C561.086 342.626 561.148 342.638 561.185 342.638C561.422 342.651 561.547 342.663 561.547 342.663C561.547 342.663 561.671 342.651 561.908 342.638C561.945 342.638 562.008 342.626 562.057 342.626C562.83 342.551 564.462 342.363 566.629 341.938C566.866 341.9 567.115 341.85 567.376 341.788C567.464 341.763 567.563 341.75 567.663 341.725C567.912 341.675 568.161 341.613 568.423 341.55C569.046 341.413 569.706 341.25 570.378 341.063C571.051 340.887 571.749 340.675 572.459 340.45C572.832 340.337 573.219 340.212 573.605 340.074C573.966 339.949 574.34 339.824 574.726 339.674C575.473 339.399 576.245 339.099 577.03 338.761C578.201 338.261 579.385 337.711 580.58 337.073C580.942 336.885 581.303 336.685 581.677 336.472C581.951 336.31 582.237 336.147 582.524 335.972C582.411 336.085 582.05 336.41 581.589 336.96C578.351 340.8 578.126 342.526 580.655 346.866C584.305 353.107 584.591 362.062 579.584 368.59" fill="#E8E7EE"/>
<path fill-rule="evenodd" clip-rule="evenodd" d="M586.246 313.874V313.874C593.041 304.081 589.481 295.285 588.855 293.917C588.803 293.802 588.683 293.738 588.558 293.747C578.161 294.52 574.29 299.478 574.29 299.478L574.298 299.488C571.324 298.201 567.411 297.446 561.818 297.239C561.648 297.233 561.466 297.233 561.294 297.239C557.268 297.388 554.11 297.819 551.548 298.527C549.881 298.989 548.123 298.666 546.71 297.668C544.629 296.201 540.864 294.303 534.883 293.796C534.537 293.766 534.201 293.963 534.069 294.285C533.183 296.426 530.465 304.722 536.829 313.893L536.854 313.863L532.132 323.418C531.024 325.658 531.433 328.371 533.173 330.162C543.208 340.492 558.06 342.348 561.022 342.62C561.377 342.653 561.716 342.653 562.071 342.62C565.033 342.348 579.885 340.492 589.92 330.162C591.66 328.371 592.069 325.658 590.962 323.418L586.246 313.874Z" fill="#E8E7EE"/>
<path fill-rule="evenodd" clip-rule="evenodd" d="M586.801 313.906L589.436 319.204L590.814 321.977C591.044 322.446 591.275 322.88 591.502 323.409C591.705 323.928 591.85 324.469 591.932 325.021C592.084 326.125 591.985 327.271 591.599 328.323C591.245 329.362 590.54 330.369 589.759 331.055C588.98 331.752 588.257 332.519 587.43 333.158C586.594 333.784 585.819 334.499 584.93 335.049C584.061 335.628 583.21 336.238 582.29 336.732C581.394 337.268 580.482 337.773 579.538 338.217C578.613 338.701 577.652 339.102 576.692 339.51C575.741 339.934 574.748 340.252 573.776 340.626C572.782 340.931 571.803 341.287 570.794 341.544C569.795 341.834 568.782 342.073 567.77 342.307C565.729 342.744 563.698 343.102 561.581 343.27H561.513C559.396 343.107 557.365 342.754 555.324 342.322C554.31 342.09 553.298 341.855 552.297 341.566C551.288 341.314 550.308 340.958 549.313 340.656C548.34 340.284 547.347 339.969 546.393 339.548C545.434 339.141 544.47 338.743 543.544 338.261L542.144 337.562L540.785 336.784C539.863 336.29 539.01 335.683 538.138 335.105C537.251 334.559 536.458 333.836 535.616 333.204C534.775 332.557 534.08 331.82 533.305 331.132C532.481 330.408 531.798 329.428 531.421 328.368C531.024 327.307 530.916 326.148 531.063 325.028C531.145 324.467 531.283 323.926 531.504 323.37C531.703 322.9 531.966 322.398 532.181 321.953L533.55 319.176L536.288 313.624L536.334 314.24L536.322 314.22L535.593 313.077C535.363 312.689 535.082 312.33 534.892 311.917L534.27 310.708C534.049 310.311 533.885 309.887 533.717 309.465C533.552 309.042 533.372 308.624 533.218 308.196L532.827 306.888C532.681 306.457 532.601 306.006 532.51 305.56C532.428 305.112 532.305 304.671 532.268 304.214L532.112 302.855L532.062 301.485C532.047 301.029 532.087 300.572 532.097 300.116C532.099 299.658 532.18 299.206 532.22 298.751C532.255 298.295 532.362 297.848 532.43 297.395C532.509 296.945 532.628 296.502 532.732 296.056C532.86 295.616 532.977 295.172 533.137 294.738C533.285 294.295 533.451 293.882 533.667 293.419C533.794 293.149 534.076 293 534.356 293.029L534.376 293.032C535.049 293.112 535.721 293.182 536.392 293.272C537.058 293.396 537.728 293.484 538.39 293.638C539.049 293.796 539.713 293.932 540.359 294.141C541.013 294.32 541.652 294.551 542.289 294.786C543.553 295.279 544.786 295.866 545.941 296.591C546.516 296.956 547.079 297.343 547.606 297.782C548.139 298.222 548.635 298.667 549.104 299.239L548.62 299.116L548.634 299.11C551.899 297.621 555.468 297.135 558.957 296.846C559.852 296.778 560.677 296.729 561.624 296.699C562.501 296.745 563.378 296.795 564.253 296.874C566.005 297.024 567.756 297.248 569.485 297.613C570.348 297.802 571.208 298.013 572.059 298.262C572.483 298.387 572.904 298.526 573.328 298.68L573.943 298.915C574.167 299.01 574.143 298.97 574.23 298.946C574.25 298.946 574.484 298.679 574.627 298.551C574.789 298.392 574.958 298.242 575.128 298.093C575.468 297.798 575.824 297.524 576.188 297.26C576.917 296.739 577.689 296.284 578.477 295.866C579.28 295.474 580.088 295.093 580.924 294.785C581.755 294.461 582.607 294.194 583.468 293.97C584.327 293.737 585.198 293.545 586.073 293.387C586.949 293.214 587.832 293.116 588.717 293.005C589.011 292.968 589.282 293.127 589.404 293.381L589.412 293.398L589.414 293.401C589.629 293.866 589.792 294.279 589.938 294.724C590.094 295.159 590.208 295.603 590.335 296.045C590.553 296.935 590.73 297.834 590.831 298.744C590.867 299.199 590.944 299.652 590.944 300.108C590.953 300.565 590.99 301.021 590.971 301.478L590.913 302.843L590.748 304.2C590.71 304.656 590.582 305.096 590.498 305.542C590.405 305.988 590.321 306.435 590.173 306.866L589.776 308.169L589.267 309.43C589.1 309.85 588.931 310.27 588.706 310.67L588.072 311.883C587.871 312.3 587.603 312.639 587.373 313.02L586.801 313.906ZM585.837 313.616L586.529 312.486C586.747 312.107 587.021 311.738 587.192 311.351L587.758 310.2C587.959 309.825 588.111 309.421 588.261 309.017L588.717 307.807L589.064 306.564C589.196 306.154 589.265 305.729 589.343 305.307C589.412 304.883 589.525 304.467 589.55 304.038L589.677 302.757L589.701 301.473C589.71 301.045 589.662 300.617 589.646 300.191C589.639 299.762 589.554 299.34 589.51 298.915C589.398 298.068 589.211 297.233 588.992 296.411C588.864 296.006 588.75 295.596 588.597 295.202C588.46 294.809 588.285 294.404 588.123 294.07L588.121 294.067L588.816 294.46C587.964 294.51 587.109 294.546 586.262 294.655C585.412 294.746 584.564 294.874 583.733 295.068C582.898 295.245 582.071 295.467 581.263 295.742C580.448 295.997 579.662 296.332 578.89 296.694C578.127 297.075 577.383 297.49 576.679 297.968C576.33 298.21 575.987 298.461 575.662 298.73C575.5 298.866 575.338 299.001 575.186 299.145C574.995 299.298 574.973 299.4 574.627 299.642C574.329 299.852 573.821 299.749 573.66 299.652L573.053 299.422C572.655 299.28 572.245 299.146 571.834 299.028C571.012 298.781 570.173 298.591 569.324 298.444C567.628 298.151 565.908 297.968 564.181 297.868C563.318 297.814 562.452 297.788 561.588 297.766C560.79 297.788 559.874 297.823 559.029 297.881C555.587 298.11 552.134 298.601 548.957 299.864L548.944 299.871C548.775 299.938 548.587 299.889 548.471 299.759L548.461 299.747C548.068 299.305 547.56 298.87 547.053 298.489C546.545 298.097 545.997 297.753 545.44 297.429C544.32 296.786 543.127 296.275 541.906 295.852C541.29 295.652 540.674 295.456 540.043 295.311C539.42 295.134 538.777 295.03 538.143 294.904C537.506 294.781 536.859 294.723 536.218 294.628L534.278 294.475L534.259 294.473L534.948 294.084C534.788 294.419 534.614 294.824 534.48 295.218C534.33 295.612 534.218 296.022 534.093 296.427C533.995 296.84 533.878 297.25 533.801 297.669C533.732 298.09 533.626 298.505 533.59 298.93C533.55 299.354 533.467 299.776 533.462 300.202C533.448 300.628 533.405 301.055 533.414 301.481L533.447 302.762L533.58 304.037C533.608 304.463 533.721 304.878 533.793 305.3C533.874 305.719 533.943 306.143 534.076 306.549L534.43 307.785C534.57 308.189 534.737 308.584 534.889 308.986C535.041 309.386 535.191 309.789 535.399 310.166L535.974 311.319C536.149 311.713 536.415 312.059 536.631 312.43L537.312 313.528L537.323 313.547L537.341 313.574C537.454 313.758 537.458 313.981 537.369 314.162L534.631 319.714L533.264 322.491C533.03 322.973 532.81 323.385 532.606 323.865C532.45 324.27 532.325 324.733 532.259 325.193C532.139 326.118 532.226 327.077 532.555 327.95C532.875 328.834 533.402 329.603 534.125 330.24C534.889 330.919 535.617 331.687 536.413 332.292C537.221 332.893 537.955 333.571 538.824 334.106C539.67 334.665 540.496 335.254 541.392 335.733L542.712 336.49L544.075 337.169C544.975 337.64 545.916 338.027 546.851 338.423C547.781 338.834 548.752 339.141 549.701 339.505C550.674 339.8 551.632 340.147 552.62 340.394C553.598 340.677 554.588 340.907 555.58 341.134C557.563 341.555 559.593 341.903 561.581 342.055H561.513C563.501 341.908 565.535 341.565 567.519 341.147C568.512 340.923 569.505 340.695 570.484 340.416C571.473 340.17 572.432 339.825 573.406 339.531C574.357 339.17 575.331 338.865 576.263 338.456C577.201 338.062 578.142 337.675 579.045 337.206C579.97 336.779 580.86 336.291 581.736 335.774C582.635 335.297 583.464 334.706 584.312 334.15C585.182 333.618 585.933 332.928 586.749 332.325C587.556 331.708 588.257 330.969 589.018 330.298C589.782 329.621 590.284 328.875 590.619 327.966C590.95 327.079 591.039 326.105 590.914 325.166C590.801 324.204 590.391 323.377 589.908 322.428L588.542 319.649L585.813 314.09C585.737 313.936 585.755 313.753 585.837 313.616V313.616Z" fill="#42457B"/>
<path fill-rule="evenodd" clip-rule="evenodd" d="M577.641 301.409C577.641 301.409 577.83 301.553 578.163 301.806C578.49 302.066 578.949 302.451 579.462 302.955C580.494 303.956 581.694 305.47 582.742 307.079C583.795 308.683 584.758 310.34 585.491 311.572C585.696 311.906 585.818 312.185 585.963 312.448C586.097 312.705 586.215 312.931 586.31 313.117C586.503 313.487 586.614 313.699 586.614 313.699C586.719 313.9 586.642 314.148 586.441 314.253C586.242 314.356 585.995 314.279 585.891 314.079C585.888 314.074 585.886 314.067 585.883 314.064C585.883 314.064 585.782 313.847 585.604 313.468C585.516 313.278 585.409 313.048 585.285 312.786C585.161 312.53 585.024 312.204 584.869 311.919C584.206 310.648 583.34 308.948 582.384 307.302C581.435 305.654 580.336 304.096 579.367 303.046C578.885 302.52 578.452 302.112 578.14 301.834C577.822 301.564 577.641 301.409 577.641 301.409" fill="#42457B"/>
<path fill-rule="evenodd" clip-rule="evenodd" d="M536.279 313.618L536.593 313.041C536.693 312.856 536.814 312.633 536.953 312.376C537.101 312.113 537.226 311.847 537.441 311.499C538.186 310.273 539.169 308.623 540.243 307.021C541.31 305.418 542.531 303.906 543.58 302.91C544.101 302.41 544.565 302.027 544.895 301.769C545.233 301.519 545.425 301.375 545.425 301.375C545.443 301.362 545.471 301.365 545.486 301.385C545.5 301.403 545.495 301.43 545.477 301.445C545.477 301.445 545.298 301.602 544.984 301.874C544.675 302.155 544.246 302.566 543.773 303.098C542.818 304.154 541.739 305.719 540.807 307.375C539.872 309.028 539.022 310.738 538.372 312.019C538.227 312.29 538.092 312.63 537.973 312.884C537.854 313.151 537.749 313.382 537.664 313.573C537.492 313.956 537.395 314.174 537.395 314.174C537.253 314.489 536.885 314.63 536.571 314.489C536.257 314.346 536.117 313.976 536.258 313.661C536.264 313.647 536.272 313.632 536.279 313.618" fill="#42457B"/>
<path fill-rule="evenodd" clip-rule="evenodd" d="M551.082 360.26C551.082 360.26 551.21 361.085 551.561 362.269C551.907 363.455 552.519 364.993 553.365 366.398C553.781 367.097 554.261 367.781 554.725 368.359C554.98 368.67 555.198 368.863 555.473 369.068C555.736 369.259 556.007 369.407 556.268 369.518C556.79 369.742 557.263 369.821 557.59 369.852C557.919 369.881 558.109 369.872 558.109 369.872C558.367 369.86 558.587 370.06 558.598 370.319C558.611 370.579 558.411 370.799 558.154 370.811C558.147 370.811 558.142 370.811 558.136 370.811H558.109C558.109 370.811 557.881 370.814 557.486 370.764C557.093 370.709 556.532 370.592 555.915 370.297C555.609 370.15 555.29 369.96 554.983 369.717C554.689 369.489 554.359 369.153 554.135 368.847C553.644 368.186 553.196 367.481 552.787 366.729C551.969 365.237 551.403 363.626 551.098 362.397C550.788 361.163 550.692 360.329 550.692 360.329L550.691 360.314C550.678 360.205 550.756 360.107 550.864 360.094C550.97 360.082 551.066 360.157 551.082 360.26" fill="#42457B"/>
<path fill-rule="evenodd" clip-rule="evenodd" d="M573.227 360.326C573.227 360.326 573.134 361.16 572.823 362.392C572.521 363.622 571.958 365.233 571.142 366.725C570.734 367.476 570.287 368.182 569.798 368.842C569.573 369.15 569.245 369.485 568.952 369.713C568.645 369.956 568.327 370.147 568.02 370.295C567.405 370.589 566.843 370.708 566.451 370.763C566.057 370.813 565.828 370.812 565.828 370.812H565.802C565.544 370.809 565.336 370.598 565.337 370.338C565.338 370.078 565.55 369.869 565.809 369.871C565.814 369.871 565.823 369.871 565.828 369.871C565.828 369.871 566.017 369.88 566.347 369.853C566.674 369.821 567.147 369.744 567.671 369.521C567.932 369.409 568.203 369.262 568.466 369.071C568.743 368.866 568.962 368.673 569.216 368.362C569.682 367.785 570.163 367.101 570.58 366.402C571.428 364.999 572.042 363.459 572.39 362.273C572.742 361.088 572.873 360.264 572.873 360.264C572.888 360.165 572.98 360.098 573.077 360.113C573.173 360.128 573.239 360.216 573.228 360.311L573.227 360.326Z" fill="#42457B"/>
<path fill-rule="evenodd" clip-rule="evenodd" d="M583.357 356.811L588.478 349.827C588.478 349.827 593.206 359.336 582.209 363.767" fill="#D2D4DF"/>
<path fill-rule="evenodd" clip-rule="evenodd" d="M583.05 356.583L588.103 349.55C588.252 349.343 588.539 349.295 588.746 349.444C588.811 349.49 588.861 349.553 588.893 349.619V349.619C589.22 350.341 589.453 351.038 589.621 351.778C589.803 352.511 589.891 353.262 589.941 354.018L589.931 355.156L589.789 356.29C589.707 356.662 589.601 357.031 589.506 357.401C589.401 357.767 589.223 358.11 589.084 358.467C588.957 358.831 588.72 359.137 588.529 359.467C588.339 359.8 588.127 360.116 587.863 360.391C587.611 360.675 587.38 360.982 587.108 361.243L586.25 361.981C585.687 362.488 585.008 362.817 584.391 363.241C583.73 363.578 583.051 363.88 582.381 364.2C582.15 364.31 581.874 364.211 581.763 363.98C581.653 363.747 581.752 363.469 581.984 363.359L582.035 363.333C582.669 363.028 583.314 362.743 583.939 362.425C584.511 362.027 585.156 361.72 585.669 361.252L586.459 360.575C586.708 360.336 586.913 360.058 587.143 359.802C587.385 359.553 587.574 359.268 587.743 358.968C587.913 358.672 588.132 358.399 588.24 358.071C588.364 357.752 588.528 357.449 588.62 357.118L588.875 356.12L589.003 355.096L589.013 354.058C588.965 353.365 588.886 352.672 588.718 351.994C588.568 351.32 588.333 350.635 588.062 350.036V350.036L588.851 350.103L583.664 357.037C583.538 357.206 583.299 357.241 583.13 357.113C582.964 356.988 582.929 356.752 583.05 356.583" fill="#42457B"/>
<path fill-rule="evenodd" clip-rule="evenodd" d="M582.964 336.36C582.964 336.36 582.671 336.664 582.123 337.234C581.68 337.75 580.875 338.681 580.191 339.862C579.85 340.464 579.567 341.157 579.527 341.932C579.479 342.705 579.676 343.569 580.062 344.471C580.439 345.394 580.995 346.264 581.552 347.334C582.102 348.359 582.594 349.565 582.974 350.793C583.749 353.281 584.104 356.129 583.831 359.109C583.67 360.595 583.358 362.106 582.865 363.598C582.354 365.085 581.634 366.532 580.742 367.898L580.036 368.903C579.794 369.231 579.424 369.6 579.079 369.853C578.356 370.395 577.489 370.732 576.595 370.843C575.653 370.933 574.925 370.868 574.076 370.887C573.254 370.887 572.428 370.886 571.6 370.886C568.284 370.883 564.915 370.879 561.546 370.877C558.178 370.874 554.809 370.871 551.493 370.868C550.664 370.868 549.838 370.867 549.016 370.866C548.185 370.846 547.411 370.909 546.501 370.818C545.612 370.706 544.75 370.37 544.031 369.829C543.669 369.552 543.358 369.256 543.071 368.867L542.386 367.89C541.494 366.521 540.772 365.062 540.268 363.584C539.777 362.094 539.468 360.587 539.31 359.104C539.043 356.131 539.402 353.291 540.178 350.812C540.567 349.572 541.038 348.414 541.601 347.37C542.153 346.311 542.727 345.415 543.099 344.501C543.49 343.594 543.693 342.717 543.645 341.927C543.605 341.134 543.317 340.429 542.975 339.821C542.282 338.624 541.484 337.697 541.033 337.171C540.485 336.599 540.193 336.295 540.193 336.295L540.178 336.279C539.991 336.085 539.998 335.776 540.191 335.588C540.385 335.401 540.693 335.406 540.878 335.601C540.878 335.601 541.171 335.905 541.72 336.475C542.298 337.142 543.033 337.984 543.833 339.342C544.213 340.015 544.574 340.868 544.629 341.866C544.693 342.861 544.432 343.908 544.011 344.89C543.603 345.888 542.993 346.846 542.481 347.837C541.95 348.827 541.504 349.93 541.136 351.11C540.4 353.472 540.065 356.181 540.321 359.006C540.475 360.414 540.771 361.843 541.237 363.251C541.722 364.661 542.396 366.012 543.229 367.294L543.915 368.269C544.102 368.522 544.374 368.789 544.651 368.996C545.217 369.422 545.911 369.692 546.632 369.782C547.341 369.856 548.207 369.803 549.016 369.818C549.838 369.818 550.664 369.816 551.493 369.816C554.809 369.813 558.178 369.81 561.546 369.808C564.915 369.805 568.284 369.801 571.6 369.799C572.428 369.798 573.254 369.798 574.076 369.796C574.87 369.78 575.78 369.831 576.457 369.757C577.176 369.666 577.863 369.396 578.424 368.972C578.72 368.742 578.931 368.547 579.165 368.233L579.828 367.286C580.663 366 581.339 364.64 581.817 363.238C582.279 361.832 582.572 360.406 582.723 359.001C582.974 356.182 582.634 353.482 581.897 351.128C581.52 349.938 581.096 348.882 580.553 347.873C580.044 346.893 579.418 345.909 579.013 344.92C578.588 343.933 578.322 342.873 578.385 341.861C578.439 340.846 578.805 339.98 579.187 339.302C579.58 338.62 579.97 338.06 580.338 337.592C580.722 337.097 580.957 336.793 581.31 336.411C581.858 335.84 582.149 335.536 582.149 335.536C582.371 335.305 582.737 335.298 582.968 335.52C583.197 335.742 583.205 336.11 582.983 336.341H582.982L582.964 336.36Z" fill="#42457B"/>
<path fill-rule="evenodd" clip-rule="evenodd" d="M540.606 335.769L540.644 335.794L540.706 335.835C540.793 335.894 540.817 336.011 540.758 336.099C540.701 336.186 540.582 336.21 540.495 336.151L540.458 336.126L540.396 336.085C540.31 336.026 540.286 335.909 540.343 335.821C540.402 335.734 540.519 335.71 540.606 335.769" fill="#42457B"/>
<path fill-rule="evenodd" clip-rule="evenodd" d="M550.154 317.811C550.145 317.817 550.315 317.691 550.559 317.546C550.813 317.394 551.182 317.195 551.641 317.004C552.101 316.813 552.654 316.63 553.265 316.509C553.568 316.446 553.887 316.4 554.214 316.379C554.548 316.355 554.848 316.341 555.224 316.376C555.495 316.392 555.936 316.48 556.243 316.615C556.567 316.739 556.864 316.913 557.119 317.112C557.636 317.502 558.008 317.965 558.281 318.377C558.554 318.791 558.73 319.16 558.844 319.424C558.957 319.687 559.011 319.854 559.011 319.854C559.063 320.022 558.971 320.202 558.803 320.256C558.642 320.307 558.469 320.22 558.409 320.063C558.409 320.063 558.361 319.934 558.245 319.704C558.128 319.474 557.947 319.149 557.684 318.798C557.423 318.449 557.075 318.072 556.641 317.786C556.428 317.638 556.191 317.519 555.94 317.442C555.677 317.357 555.502 317.319 555.154 317.309C554.911 317.299 554.589 317.328 554.317 317.368C554.034 317.404 553.76 317.462 553.499 317.533C552.974 317.672 552.501 317.863 552.112 318.055C551.724 318.246 551.417 318.439 551.213 318.579C551 318.726 550.925 318.794 550.916 318.8C550.659 319.029 550.264 319.004 550.036 318.744C549.808 318.485 549.833 318.088 550.092 317.86C550.104 317.85 550.117 317.838 550.13 317.828L550.154 317.811Z" fill="#42457B"/>
<path fill-rule="evenodd" clip-rule="evenodd" d="M563.872 319.707C563.872 319.707 564.07 319.104 564.61 318.332C564.881 317.949 565.247 317.523 565.741 317.163C565.985 316.983 566.261 316.817 566.567 316.7C566.866 316.572 567.196 316.485 567.527 316.452C567.878 316.407 568.166 316.412 568.481 316.425C568.811 316.441 569.118 316.48 569.414 316.536C570.01 316.65 570.55 316.84 570.994 317.046C571.887 317.463 572.383 317.928 572.413 317.958C572.652 318.207 572.645 318.602 572.399 318.842C572.152 319.084 571.757 319.077 571.518 318.83C571.553 318.865 571.196 318.447 570.485 318.029C570.133 317.822 569.693 317.617 569.194 317.472C568.946 317.398 568.678 317.339 568.42 317.3C568.15 317.263 567.835 317.229 567.591 317.245C566.514 317.255 565.554 317.986 565.018 318.648C564.464 319.316 564.235 319.855 564.235 319.855C564.192 319.954 564.077 320 563.978 319.958C563.884 319.918 563.837 319.813 563.869 319.717L563.872 319.707Z" fill="#42457B"/>
<path fill-rule="evenodd" clip-rule="evenodd" d="M559.71 329.673L557.634 327.125C556.951 326.289 557.544 325.032 558.622 325.032H562.775C563.852 325.032 564.445 326.289 563.762 327.125L561.686 329.673C561.175 330.3 560.221 330.3 559.71 329.673" fill="#42457B"/>
<path fill-rule="evenodd" clip-rule="evenodd" d="M552.499 329.834C552.626 330.079 552.882 330.383 553.148 330.612C553.419 330.851 553.731 331.052 554.064 331.22C554.742 331.54 555.507 331.715 556.294 331.754C556.456 331.756 556.709 331.761 556.887 331.747C557.071 331.73 557.256 331.72 557.45 331.679C557.834 331.616 558.211 331.5 558.575 331.348C559.302 331.049 559.995 330.587 560.544 330.024L560.548 330.02L560.722 329.835L560.868 330.05C561.072 330.353 561.374 330.64 561.689 330.866C562.008 331.096 562.358 331.277 562.722 331.42C563.46 331.686 564.25 331.787 565.039 331.754C565.199 331.737 565.453 331.726 565.627 331.694C565.807 331.659 565.984 331.631 566.171 331.572C566.538 331.476 566.893 331.33 567.229 331.151C567.566 330.974 567.885 330.763 568.179 330.522C568.326 330.4 568.468 330.274 568.601 330.141C568.731 330.014 568.872 329.859 568.956 329.746L568.965 329.736C569.173 329.461 569.564 329.407 569.838 329.616C570.113 329.825 570.166 330.219 569.958 330.494C569.947 330.509 569.933 330.524 569.92 330.539C569.735 330.742 569.578 330.879 569.398 331.032C569.223 331.178 569.041 331.313 568.855 331.441C568.482 331.697 568.083 331.914 567.667 332.089C567.251 332.264 566.817 332.4 566.374 332.478C566.157 332.524 565.921 332.544 565.689 332.564C565.451 332.582 565.288 332.573 565.035 332.573C564.162 332.534 563.285 332.345 562.486 331.974C562.09 331.779 561.715 331.542 561.383 331.255C561.048 330.962 560.756 330.645 560.528 330.235L560.847 330.265L560.843 330.272C560.285 330.949 559.608 331.49 558.83 331.895C558.444 332.096 558.033 332.264 557.605 332.373C557.395 332.436 557.167 332.473 556.941 332.512C556.706 332.545 556.542 332.555 556.29 332.573C555.418 332.605 554.518 332.49 553.658 332.171C553.234 332.002 552.82 331.786 552.44 331.507C552.058 331.218 551.721 330.919 551.415 330.452C551.226 330.163 551.307 329.774 551.594 329.584C551.882 329.394 552.269 329.474 552.459 329.762C552.47 329.781 552.481 329.8 552.491 329.819L552.499 329.834Z" fill="#42457B"/>
<path fill-rule="evenodd" clip-rule="evenodd" d="M566.63 325.275L575.441 322.468C575.74 322.373 576.057 322.539 576.152 322.838C576.247 323.137 576.082 323.457 575.783 323.551C575.775 323.555 575.765 323.557 575.756 323.56L566.811 325.902C566.637 325.947 566.46 325.842 566.415 325.668C566.371 325.501 566.467 325.328 566.63 325.275" fill="#42457B"/>
<path fill-rule="evenodd" clip-rule="evenodd" d="M566.664 328.078L574.169 325.639C574.408 325.562 574.663 325.693 574.74 325.932C574.818 326.172 574.687 326.43 574.449 326.507C574.439 326.51 574.429 326.512 574.42 326.515L566.776 328.469C566.667 328.497 566.558 328.431 566.529 328.322C566.503 328.217 566.563 328.111 566.664 328.078" fill="#42457B"/>
<path fill-rule="evenodd" clip-rule="evenodd" d="M554.705 325.902L545.76 323.56C545.457 323.48 545.277 323.17 545.355 322.866C545.434 322.562 545.743 322.381 546.045 322.46C546.055 322.462 546.065 322.466 546.074 322.469L554.886 325.275C555.056 325.33 555.151 325.514 555.096 325.685C555.044 325.85 554.871 325.944 554.705 325.902" fill="#42457B"/>
<path fill-rule="evenodd" clip-rule="evenodd" d="M554.739 328.469L547.094 326.514C546.851 326.453 546.704 326.204 546.767 325.96C546.828 325.716 547.076 325.569 547.319 325.631C547.327 325.634 547.337 325.636 547.346 325.639L554.851 328.077C554.958 328.112 555.017 328.228 554.982 328.334C554.948 328.436 554.841 328.495 554.739 328.469" fill="#42457B"/>
<defs>
<filter id="filter0_d" x="55" y="51" width="579" height="304" filterUnits="userSpaceOnUse" color-interpolation-filters="sRGB">
<feFlood flood-opacity="0" result="BackgroundImageFix"/>
<feColorMatrix in="SourceAlpha" type="matrix" values="0 0 0 0 0 0 0 0 0 0 0 0 0 0 0 0 0 0 127 0"/>
<feOffset dy="2"/>
<feGaussianBlur stdDeviation="1"/>
<feColorMatrix type="matrix" values="0 0 0 0 0.258824 0 0 0 0 0.270588 0 0 0 0 0.482353 0 0 0 0.03 0"/>
<feBlend mode="normal" in2="BackgroundImageFix" result="effect1_dropShadow"/>
<feBlend mode="normal" in="SourceGraphic" in2="effect1_dropShadow" result="shape"/>
</filter>
<filter id="filter1_d" x="55" y="51" width="579" height="304" filterUnits="userSpaceOnUse" color-interpolation-filters="sRGB">
<feFlood flood-opacity="0" result="BackgroundImageFix"/>
<feColorMatrix in="SourceAlpha" type="matrix" values="0 0 0 0 0 0 0 0 0 0 0 0 0 0 0 0 0 0 127 0"/>
<feOffset dy="2"/>
<feGaussianBlur stdDeviation="1"/>
<feColorMatrix type="matrix" values="0 0 0 0 0.258824 0 0 0 0 0.270588 0 0 0 0 0.482353 0 0 0 0.03 0"/>
<feBlend mode="normal" in2="BackgroundImageFix" result="effect1_dropShadow"/>
<feBlend mode="normal" in="SourceGraphic" in2="effect1_dropShadow" result="shape"/>
</filter>
</defs>
</svg>
