<svg width="122" height="53" viewBox="0 0 122 53" fill="none" xmlns="http://www.w3.org/2000/svg">
<path d="M83.3441 31.1153C60.0643 29.2952 40.8165 34.9608 36.512 37.0609C34.112 38.1809 33.9438 39.581 34.2884 40.3548C34.6002 40.9474 35.744 41.2937 37.0002 40.6674C46.2401 35.6282 64.9357 31.6091 83.3523 32.7618C83.794 32.7599 84.1505 32.3894 84.1487 31.9339C84.1469 31.4793 83.7866 31.1125 83.345 31.1144L83.3441 31.1153ZM89.1124 24.0497C88.1369 25.1697 86.7124 26.0098 86.2644 25.5897C85.8164 25.1697 86.2644 23.8443 86.2644 23.8443C88.552 22.3369 93 18.4915 93 15.5523C93 12.8268 90.6 11.9868 88.0637 14.5069C86.012 16.7591 84.5318 19.4967 83.7519 22.4779C82.4316 23.8033 80.3443 25.4833 78.4718 25.4833C77.4963 25.4833 77.2238 24.7833 77.36 23.8359C78.9601 23.8117 83.3999 22.5516 83.3999 18.7631C83.3935 18.1302 83.1311 17.5291 82.6749 17.1035C82.2195 16.6788 81.6124 16.4679 80.9999 16.523C78.9838 16.523 76.4156 18.6231 75.1602 21.5622C74.8174 21.4969 74.4837 21.3858 74.1682 21.2328C74.4965 20.5113 74.7644 19.7618 74.9682 18.9927C75.248 17.4526 74.6245 16.4726 73.3682 16.6126C72.5682 16.6788 71.632 17.3789 71.4244 18.9927C71.3403 19.8103 71.4848 20.6363 71.8404 21.3728C71.2882 23.1182 69.0646 25.2929 68.2966 25.2183C67.5286 25.1445 68.4009 22.056 69.1689 19.7506C69.5894 19.3082 69.9213 18.7845 70.1444 18.2105C70.3593 17.7616 70.2102 17.2183 69.8006 16.9505C68.6569 16.5239 67.3869 17.0718 66.8804 18.2105C66.575 18.7724 66.3071 19.3558 66.0804 19.9559C65.4568 20.7222 64.4803 21.7013 64.2006 21.6033C63.7846 21.3233 65.1761 19.4379 65.0006 18.3832C64.8762 17.5151 64.1128 16.8991 63.2643 16.9831C62.0081 17.1642 60.3441 19.5854 60.3441 19.5854C60.5397 19.1439 60.6558 18.6697 60.6878 18.1853C60.6156 17.2799 58.9516 16.8599 58.1196 18.5316C57.55 20.1333 57.1312 21.7881 56.8716 23.4729C56.5278 24.2392 55.1353 26.4783 54.0235 26.553C53.1193 26.6193 54.2311 22.5675 54.3673 22.3528C54.8555 21.5865 55.4791 19.9727 55.3429 19.2727C55.3548 18.9329 55.2057 18.6081 54.9442 18.4C54.6827 18.1928 54.339 18.1274 54.0226 18.2264C53.4631 18.3767 52.9867 18.7537 52.7024 19.2718C52.3028 18.7621 51.6628 18.5223 51.0384 18.6455C47.3428 19.0487 44.9985 25.5543 45.2627 28.6428C45.4703 30.2902 46.2383 31.3029 47.6628 31.1134C49.2628 30.9072 50.583 28.528 50.583 28.528C50.583 28.528 50.9268 30.4881 52.6713 30.2734C53.9632 29.8665 55.1024 29.0619 55.9353 27.968C55.8951 28.079 55.8704 28.1957 55.8631 28.3143C55.5833 29.9617 58.2631 29.7797 58.5027 28.5205C59.3027 22.2949 61.3507 19.7095 61.9743 19.7095C62.4625 19.7095 60.654 22.6496 61.6945 23.7697C62.4945 24.7497 63.9181 23.9759 65.1021 22.9464C64.8954 23.723 64.7802 24.522 64.7583 25.3265C64.6861 27.0719 65.3105 28.472 66.9819 28.4067C69.2054 28.3404 71.5661 25.5412 73.0939 22.8811C73.4962 23.1508 73.9433 23.3413 74.4142 23.4411C74.2551 24.0637 74.1957 24.7096 74.2386 25.3517C74.3749 27.3772 75.7664 28.1519 77.3664 28.0772C79.2462 28.0109 81.4625 26.5371 82.9665 25.2117C82.9738 25.2883 82.9473 25.3639 82.8943 25.418C82.7581 26.398 82.9665 28.2181 84.3498 28.2835C85.9499 28.4235 88.7257 26.7434 90.1181 24.9896C91.1184 24.2317 89.9426 23.1116 89.1106 24.0179V24.0506L89.1124 24.0497ZM90.6 15.6251C90.7691 15.6428 90.8935 15.7959 90.8797 15.9714C90.8797 17.7168 86.5679 21.4306 86.5679 21.4306C86.5679 21.4306 89.384 15.6251 90.6 15.6251V15.6251ZM80.1999 19.2568C80.3434 19.2438 80.4842 19.3007 80.5802 19.4108C80.6762 19.521 80.7164 19.6712 80.6881 19.8168C80.6881 20.7969 79.3678 21.5622 77.9123 21.5622C78.6885 20.4095 79.5918 19.2568 80.1999 19.2568ZM51.4004 21.9907C51.2642 23.036 49.4566 27.7552 48.4802 27.7552C47.2321 27.8214 49.1037 21.1096 51.1197 21.1674C51.512 21.1506 51.512 21.4306 51.3995 21.9907H51.4004ZM35.7449 23.2507C36.9289 23.2507 34.7694 29.4763 35.0491 32.2018C35.3289 34.9272 38.3132 34.1618 38.1047 32.548C37.7609 29.8879 39.5603 21.4232 41.3688 21.4232C42.689 21.4232 39.9132 27.2287 40.4645 30.8689C40.8083 33.249 44.0083 32.5163 43.6646 31.0089C42.689 26.2571 45.9604 21.6379 45.5361 18.2861C45.3286 16.8861 44.5606 16.1207 43.6563 16.1207C40.6647 16.1207 38.2327 22.2725 38.2327 22.2725C38.2327 22.2725 38.5207 18.7649 36.0887 18.6324C32.5449 18.4187 28.9288 27.3781 29.0011 35.4891C29.0733 38.0745 32.2651 37.6545 32.0566 35.5554C31.8491 31.9404 33.9364 23.2526 35.7449 23.2526V23.2507Z" fill="#7686A2"/>
</svg>
