<svg width="122" height="53" viewBox="0 0 122 53" fill="none" xmlns="http://www.w3.org/2000/svg">
<path d="M38.1884 21.4332L47.9208 35.9274H49.7151V17.0315H47.5402V31.4022L38.1205 17.388L37.8758 17.0315H36.8699L36.8427 17.0178V17.0315H36.0272V35.9274H38.1884V21.4332Z" fill="#7686A2"/>
<path d="M63.9603 28.3718C67.2497 26.3697 68.541 24.6282 68.541 22.2011C68.541 18.8552 66.3118 16.7024 62.8593 16.7024C59.7329 16.7024 57.694 18.773 56.8241 20.7064L56.4979 21.4469L58.4552 22.3519L58.795 21.6252C59.2708 20.5967 60.4398 18.869 62.8593 18.869C65.0477 18.869 66.3526 20.1168 66.3526 22.2148C66.3526 23.5587 65.7681 24.7516 62.9001 26.5343C57.762 29.7156 56.6338 31.128 56.4979 34.5287C56.4979 34.6384 56.4707 35.0361 56.4707 35.1458V35.9548H68.4867V33.7745H58.7271C58.9174 32.0056 59.6786 31.0046 63.9603 28.3718Z" fill="#7686A2"/>
<path d="M80.7609 23.6409C78.9123 23.6409 77.3356 24.5322 76.3025 25.3139C76.6423 21.2412 78.423 18.8553 81.1823 18.8553C82.4736 18.8553 83.3707 19.2118 84.4718 20.1717L85.0834 20.7064L86.4971 19.0198L85.8718 18.4987C84.3766 17.2372 82.963 16.7024 81.1687 16.7024C76.7918 16.7024 74.0733 20.5693 74.0733 26.7948C74.0733 33.7882 77.5123 36.2839 80.7337 36.2839C84.8523 36.2839 87 33.0066 87 29.7704C87 25.2453 83.629 23.6409 80.7609 23.6409ZM84.8116 29.7704C84.8116 31.937 83.4115 34.1173 80.7337 34.1173C78.9123 34.1173 76.6831 32.5541 76.2889 28.1798C77.0773 27.2199 78.7764 25.7938 80.7609 25.7938C84.4174 25.7938 84.8116 28.5774 84.8116 29.7704Z" fill="#7686A2"/>
<path d="M49.7287 38.3819H36V40H49.7287V38.3819Z" fill="#7686A2"/>
<path d="M49.7423 13H36.0544V14.6181H49.7423V13Z" fill="#7686A2"/>
</svg>
