<svg width="122" height="53" viewBox="0 0 122 53" fill="none" xmlns="http://www.w3.org/2000/svg">
<path fill-rule="evenodd" clip-rule="evenodd" d="M14.3008 24.7615C14.5908 24.9294 14.9172 25.0242 15.2519 25.0379C14.4301 25.0471 13.619 25.2263 12.8695 25.5642C12.1201 25.9021 11.4484 26.3914 10.8966 27.0014C10.7547 26.8446 10.6211 26.6804 10.4964 26.5095C9.94014 25.7463 9.57227 24.8621 9.42295 23.9292C9.27362 22.9962 9.34709 22.0412 9.63733 21.1421C9.92757 20.2431 10.4263 19.4257 11.0928 18.7569C11.7592 18.0881 12.5744 17.5868 13.4715 17.2942C14.3686 17.0015 15.3222 16.9258 16.2542 17.0733C17.1862 17.2208 18.07 17.5872 18.8333 18.1425C19.5966 18.6979 20.2178 19.4264 20.6458 20.2684C21.0738 21.1104 21.2966 22.042 21.2959 22.9868H21.2906C21.2907 23.7444 21.147 24.4952 20.8671 25.199C19.8788 24.2634 18.6707 23.5928 17.3546 23.2492C17.3968 22.9234 17.3601 22.5922 17.2476 22.2836C17.1351 21.9749 16.9501 21.6979 16.7082 21.4759C16.4664 21.2538 16.1748 21.0933 15.858 21.0078C15.5412 20.9223 15.2085 20.9143 14.888 20.9846C14.5674 21.0548 14.2685 21.2012 14.0163 21.4115C13.7642 21.6217 13.5662 21.8896 13.4391 22.1925C13.3121 22.4954 13.2596 22.8245 13.2861 23.1519C13.3127 23.4794 13.4175 23.7957 13.5918 24.0741H13.587C13.7659 24.3577 14.0108 24.5936 14.3008 24.7615ZM20.7532 28.5297C21.0903 29.266 21.2744 30.0631 21.2942 30.8728C21.3198 31.9358 21.062 32.9863 20.5472 33.9162C20.0324 34.8462 19.2794 35.6219 18.3657 36.1634C17.4655 36.699 16.4402 36.9875 15.3932 36.9997C14.3462 37.0119 13.3145 36.7474 12.4021 36.2329C11.8141 35.9008 11.2858 35.4724 10.8394 34.9653C9.87822 33.8761 9.3495 32.4716 9.35337 31.0181C9.35427 30.2795 9.49232 29.5475 9.76047 28.8594C10.7512 29.8007 11.9638 30.4754 13.2851 30.8209C13.2542 31.1449 13.3007 31.4716 13.421 31.774C13.5412 32.0764 13.7317 32.3457 13.9765 32.5597C14.2214 32.7737 14.5137 32.9263 14.8291 33.0046C15.1446 33.083 15.4742 33.085 15.7906 33.0105C16.1069 32.9359 16.401 32.787 16.6485 32.576C16.896 32.3649 17.0896 32.0979 17.2135 31.797C17.3374 31.4961 17.3879 31.17 17.3609 30.8456C17.3339 30.5213 17.2301 30.208 17.0581 29.9319H17.0613C16.8818 29.6456 16.6349 29.4078 16.3424 29.2392C16.0624 29.0779 15.7486 28.9847 15.4265 28.9669L15.4167 28.9671H15.3198C14.4886 28.9631 13.6671 28.7867 12.9073 28.4492C12.1474 28.1116 11.4656 27.6201 10.9048 27.0057L10.9 27.0004C11.4517 26.391 12.1231 25.9023 12.8722 25.5648C13.6212 25.2273 14.4318 25.0483 15.2531 25.039H15.3537C17.0356 25.0252 18.6179 25.7536 19.7445 27.0004C19.7439 27.0004 19.7455 27.0084 19.7455 27.0084C19.3924 27.3975 18.9904 27.7375 18.5504 28.0203C18.9917 27.7371 19.3949 27.3963 19.749 27.0062C20.0253 27.3114 20.2696 27.6443 20.4779 27.9996C20.5785 28.1724 20.6703 28.3491 20.7532 28.5297ZM44.4573 22.5278H47.2906V33.6417H44.4573V22.5278ZM52.8928 17.0085H50.0595V33.6415H52.8928V17.0085ZM57.8833 22.5062L60.3386 30.1728L62.7415 22.5073H65.6246L61.6785 33.6212H58.8924L54.9082 22.5301L57.8833 22.5062ZM75.657 23.9829C74.8184 22.9646 73.559 22.4456 71.9126 22.4456C70.8983 22.4456 69.9793 22.6878 69.1804 23.165C68.3783 23.6459 67.7284 24.3442 67.3059 25.1794C66.8644 26.0324 66.6404 27.02 66.6404 28.1147C66.6404 29.2094 66.8612 30.1938 67.2963 31.0393C67.7158 31.8727 68.3677 32.5662 69.173 33.0357C69.9772 33.506 70.92 33.744 71.9682 33.744C72.8623 33.744 73.6897 33.5765 74.4272 33.2462C75.1553 32.9223 75.8008 32.4377 76.3155 31.8287L76.4309 31.6914L74.8549 29.9261L74.7009 30.0968C74.3828 30.4532 73.993 30.7382 73.5572 30.9333C73.1214 31.1283 72.6494 31.229 72.172 31.2286C71.4838 31.2286 70.9221 31.0324 70.4536 30.6285C70.0433 30.2754 69.7516 29.7962 69.5849 29.2009H76.8714L76.8851 29.0095C76.8978 28.8293 76.9042 28.5616 76.9042 28.2143C76.9042 26.4119 76.4844 24.9896 75.6559 23.9824L75.657 23.9829ZM74.2641 27.0486H69.5113C69.6373 26.4087 69.9004 25.8929 70.2953 25.5113C70.7374 25.0872 71.2726 24.8788 71.9311 24.8788C72.6373 24.8788 73.1863 25.0877 73.6098 25.5176C73.9862 25.9035 74.2075 26.4172 74.2641 27.0486ZM82.1573 24.037C82.4396 23.6359 82.7972 23.2938 83.2102 23.0298C83.8174 22.6455 84.5332 22.5262 85.3357 22.5103L85.5475 22.5135V25.111H85.3283C84.3733 25.1036 83.7031 25.2839 83.0149 25.973C82.2706 26.7157 82.1573 27.5358 82.1573 28.472V33.6417H79.324V22.5278H82.1573V24.037ZM88.7924 21.2012V22.5117H87.2932V25.096H88.7924V33.6977H91.8586V25.096H94.3997V22.5117H91.8586V21.5432C91.8586 20.2831 92.7507 19.8468 93.4373 19.8468L94.3981 19.8272V17.0085H92.8883C90.3944 17.0085 88.7924 18.6583 88.7924 21.2012ZM108.929 22.4281C110.132 22.4281 111.092 22.8246 111.788 23.6071C112.478 24.3826 112.827 25.4418 112.826 26.7544V33.6417H109.974V27.5146C109.974 26.8249 109.793 26.2762 109.433 25.8839C109.073 25.4916 108.592 25.3008 107.964 25.3008C107.22 25.313 106.65 25.5717 106.217 26.1045C105.784 26.6372 105.565 27.3343 105.565 28.1746V33.6417H102.732V22.5277H105.563V23.9978C106.311 22.9789 107.44 22.4514 108.929 22.4281ZM38.883 26.9925L37.3849 26.6707C36.8073 26.5647 36.4224 26.2424 36.4224 25.7282C36.4224 25.1281 37.0212 24.678 37.7703 24.678C38.9688 24.678 39.4182 25.4732 39.504 26.0924L41.8788 25.5564C41.7507 24.4209 40.7449 22.5135 37.7496 22.5135C35.4812 22.5135 33.812 24.0779 33.812 25.9635C33.812 27.4426 34.7321 28.664 36.765 29.114L38.1562 29.4353C38.9693 29.6065 39.2901 29.9924 39.2901 30.4637C39.2901 31.0209 38.8407 31.5139 37.8994 31.5139C36.658 31.5139 36.0376 30.7426 35.9735 29.9066L33.5336 30.4425C33.6622 31.6427 34.7512 33.6996 37.9206 33.6996C40.6814 33.6996 42.008 31.9427 42.008 30.2283C42.0075 28.6836 40.9588 27.4192 38.883 26.9925ZM44.9058 17.2957C45.1856 17.1085 45.5146 17.0085 45.8511 17.0085C46.0746 17.0084 46.2958 17.0524 46.5023 17.1379C46.7087 17.2234 46.8963 17.3489 47.0544 17.5071C47.2124 17.6653 47.3377 17.8531 47.4232 18.0598C47.5087 18.2665 47.5526 18.4881 47.5526 18.7118C47.5527 19.0488 47.453 19.3783 47.2661 19.6585C47.0792 19.9388 46.8135 20.1573 46.5026 20.2863C46.1917 20.4153 45.8496 20.4492 45.5195 20.3835C45.1894 20.3178 44.8862 20.1556 44.6482 19.9173C44.4102 19.679 44.2481 19.3755 44.1824 19.0449C44.1167 18.7144 44.1504 18.3718 44.2791 18.0605C44.4079 17.7491 44.626 17.483 44.9058 17.2957ZM99.9463 22.5278H97.113V33.6417H99.9463V22.5278ZM100.231 18.7119C100.231 19.6529 99.4693 20.4157 98.5296 20.4157C97.5899 20.4157 96.8282 19.6529 96.8282 18.7119C96.8282 17.771 97.5899 17.0081 98.5296 17.0081C99.4693 17.0081 100.231 17.771 100.231 18.7119Z" fill="#7686A2"/>
</svg>
