<svg width="122" height="53" viewBox="0 0 122 53" fill="none" xmlns="http://www.w3.org/2000/svg">
<path d="M48.0223 22.5596C47.9756 21.5257 47.6451 20.506 47.0163 19.6739C46.7504 19.3163 46.4271 18.9977 46.0642 18.7321C45.8486 18.5728 45.5899 18.463 45.3348 18.3781C44.7635 18.1939 44.1456 18.109 43.5491 18.0559C43.3084 18.0488 43.0713 18.0027 42.8305 18.0063C42.2162 18.0027 41.5982 17.978 40.9982 18.0594C40.858 18.0771 40.7431 18.2081 40.7323 18.3462C40.7179 18.5197 40.7502 18.7038 40.7538 18.8773C40.761 19.3978 40.7646 19.9183 40.7718 20.4352C40.8113 20.8565 40.7934 21.285 40.8041 21.7098C40.7969 22.0887 40.8329 22.464 40.8293 22.8429C40.8437 23.3598 40.8221 23.8838 40.8652 24.4008C40.8688 24.815 40.876 25.2257 40.8796 25.64C40.9119 26.2065 40.9011 26.773 40.9119 27.3395C40.9047 27.6015 40.9479 27.86 40.9407 28.122C40.9514 28.6283 40.9371 29.1346 40.9694 29.641C40.973 30.0871 40.9802 30.5332 40.9838 30.9793C40.9838 31.1139 41.0053 31.2413 41.0089 31.3759C41.0125 31.8716 41.0197 32.3673 41.0233 32.863C41.0556 33.2737 41.0413 33.688 41.052 34.1022C41.0592 34.2474 41.1239 34.4102 41.2892 34.4315C41.6161 34.4598 41.9611 34.3961 42.288 34.3642C42.6473 34.3324 43.003 34.2792 43.3659 34.258C43.4593 34.2509 43.5384 34.258 43.6174 34.2013C43.6893 34.1518 43.7108 34.0739 43.7288 33.9925C43.7683 33.7375 43.7108 33.4897 43.7108 33.2489C43.7072 32.8134 43.7 32.3744 43.6964 31.9389C43.6893 31.7618 43.6713 31.5848 43.6749 31.4078C43.6677 30.604 43.6569 29.8038 43.6569 29.0001C43.6497 28.8408 43.621 28.6885 43.6282 28.5292C44.1348 28.4584 44.6306 28.3344 45.0905 28.1149C46.1253 27.6334 46.9588 26.7518 47.4403 25.7356C47.7133 25.0699 47.9002 24.3689 47.9828 23.6537C48.0331 23.2961 48.0259 22.9243 48.0223 22.5596ZM47.1241 23.1615C47.081 23.9121 46.9121 24.6521 46.6319 25.3497C46.3947 25.8772 46.0283 26.3552 45.5935 26.7376C45.0797 27.1908 44.4402 27.4988 43.7611 27.6121C43.4198 27.6617 43.0749 27.6865 42.7335 27.7396C42.694 27.9273 42.7443 28.1043 42.7371 28.292C42.7443 28.8833 42.7335 29.4745 42.7659 30.0623C42.7659 30.5934 42.7767 31.1245 42.7767 31.6556C42.7767 31.8114 42.8018 31.9601 42.8054 32.1159C42.809 32.5479 42.8162 32.9798 42.8198 33.4118C42.5287 33.4401 42.2341 33.4968 41.9431 33.5003C41.9467 33.2631 41.9467 33.0258 41.9215 32.7886C41.9036 32.1619 41.9215 31.5352 41.8856 30.9121C41.8856 30.4518 41.8748 29.9915 41.8712 29.5312C41.8712 29.3896 41.8425 29.2479 41.8461 29.1063C41.864 28.816 41.8892 28.5115 41.8389 28.2247C41.8389 27.7963 41.803 27.3714 41.8102 26.9465C41.7994 26.5145 41.8173 26.0755 41.7778 25.6435C41.767 25.4311 41.7814 25.208 41.7634 24.9956C41.7563 24.9035 41.7455 24.8079 41.7455 24.7159C41.7491 24.1954 41.7383 23.6785 41.7383 23.158C41.7383 22.9809 41.7024 22.8074 41.7096 22.6269C41.7096 21.9435 41.6988 21.2566 41.6916 20.5733C41.6628 20.028 41.6664 19.4792 41.6628 18.9339C42.2629 18.8985 42.8198 18.8136 43.4234 18.8879C43.8114 18.9021 44.1923 18.9623 44.5695 19.0508C44.9576 19.1499 45.3636 19.2845 45.669 19.5465C46.1468 19.9253 46.5205 20.4352 46.7612 20.9911C47.0558 21.6744 47.1528 22.4251 47.1241 23.1615Z" fill="#7686A2"/>
<path d="M31.9871 22.2763C31.944 21.5824 31.7679 20.8742 31.4266 20.2617C31.1248 19.72 30.6757 19.2632 30.1259 18.9658C29.4828 18.6188 28.7139 18.4807 27.9882 18.4984C27.6971 18.4878 27.4133 18.5268 27.133 18.6082C26.5761 18.7604 26.0372 19.0472 25.6276 19.4544C25.2036 19.8545 24.9054 20.3715 24.7258 20.9203C24.6395 21.1787 24.6288 21.4407 24.6 21.7098C24.5856 21.8621 24.6 22.0108 24.618 22.163C24.6898 23.2429 25.1605 24.2839 25.7749 25.1655C26.2456 25.8241 26.7378 26.465 27.2121 27.12C27.6037 27.6546 27.9953 28.1999 28.3331 28.7735C28.5415 29.1453 28.7463 29.5489 28.8361 29.9667C28.9367 30.3916 28.9115 30.8696 28.9115 31.3086C28.9151 31.6414 28.8612 31.9672 28.6996 32.2611C28.5343 32.5514 28.2181 32.7461 27.8804 32.739C27.4312 32.732 27.0145 32.4381 26.8061 32.0522C26.6588 31.7795 26.5977 31.4963 26.5079 31.2095C26.4612 31.0572 26.3641 30.9156 26.1917 30.9014C25.7246 30.8625 25.2144 30.997 24.7581 31.0962C24.5677 31.1351 24.3557 31.1741 24.194 31.2874C24.097 31.3511 24.0359 31.4467 24 31.56V31.7193C24.097 32.4664 24.3162 33.1887 24.6755 33.8544C24.8479 34.1553 25.0312 34.4386 25.2899 34.6758C25.5521 34.9449 25.8827 35.1255 26.2312 35.2635C26.8995 35.5256 27.6253 35.6212 28.3367 35.5503C28.969 35.476 29.5726 35.2706 30.09 34.9024C30.6721 34.5023 31.1104 33.8898 31.3943 33.256C31.599 32.7922 31.732 32.2965 31.7823 31.7937C31.8757 31.0537 31.7751 30.2783 31.5739 29.5631C31.3907 28.9399 31.1248 28.3486 30.7296 27.8246C29.8852 26.6703 28.9582 25.5692 28.1319 24.4043C27.9019 24.0715 27.6828 23.7599 27.5319 23.381C27.4061 23.073 27.2947 22.7189 27.3163 22.3861C27.3271 22.1383 27.4456 21.8833 27.6576 21.7452C27.9019 21.5788 28.2109 21.4868 28.4983 21.5965C28.7463 21.6886 28.9151 21.8692 29.0553 22.0816C29.2133 22.3117 29.3068 22.5844 29.4577 22.8181C29.5367 22.942 29.6625 23.0305 29.817 23.0411C30.1583 23.0659 30.4852 23.0234 30.8266 22.9986C31.1427 22.9561 31.4697 22.988 31.7895 22.896C31.8829 22.8641 31.9727 22.8039 31.9871 22.7012C31.9979 22.5561 31.9943 22.4144 31.9871 22.2763ZM30.5535 22.1205C30.4098 22.1383 30.2661 22.156 30.1188 22.156C29.9391 21.7665 29.7343 21.4124 29.411 21.1221C29.1091 20.8459 28.6924 20.6582 28.2756 20.6618C27.8229 20.6476 27.3666 20.8247 27.0181 21.1079C26.7055 21.3664 26.5043 21.7382 26.4432 22.1347C26.4001 22.4746 26.4252 22.8216 26.5151 23.1544C26.63 23.5864 26.8061 24.0006 27.0468 24.3795C27.4456 25.0097 27.9055 25.6081 28.3618 26.1994C28.9187 26.9252 29.4936 27.644 30.0325 28.3805C30.5212 29.0426 30.7906 29.8711 30.8876 30.6784C30.9882 31.5565 30.8445 32.477 30.3918 33.2489C30.1044 33.7481 29.702 34.1695 29.1702 34.4138C28.8002 34.5944 28.4013 34.6581 27.9917 34.69C27.7259 34.7041 27.4672 34.6652 27.2049 34.6262C26.8205 34.5554 26.4252 34.4209 26.1019 34.2013C25.8288 34.0066 25.6312 33.7269 25.4695 33.4401C25.2216 32.9833 25.0563 32.477 24.9485 31.9743C25.2144 31.907 25.4911 31.8255 25.7641 31.822C25.8827 32.3389 26.1737 32.8488 26.6085 33.171C26.9714 33.4543 27.4241 33.6171 27.884 33.6313C28.2576 33.6242 28.6277 33.5215 28.9331 33.3056C29.3175 33.0506 29.5798 32.6328 29.6984 32.1938C29.8601 31.6344 29.8565 31.0041 29.8134 30.427C29.7882 29.7543 29.5511 29.1276 29.2313 28.5363C28.8576 27.8564 28.387 27.205 27.9307 26.5783C27.5103 26.0047 27.0827 25.4346 26.6624 24.861C26.127 24.1317 25.6815 23.2784 25.545 22.3826C25.5126 22.1949 25.5198 22.0108 25.5162 21.8196C25.5162 21.6142 25.5126 21.416 25.5809 21.2177C25.6995 20.8424 25.8935 20.4848 26.1594 20.1909C26.5007 19.8156 26.9678 19.5571 27.4636 19.4403C27.7546 19.3659 28.0852 19.3907 28.387 19.3978C28.9259 19.4332 29.4972 19.5819 29.9391 19.9005C30.1978 20.0776 30.399 20.3113 30.5679 20.5697C30.8481 21.0265 31.0134 21.5576 31.0637 22.0887C30.8948 22.1064 30.726 22.1099 30.5535 22.1205Z" fill="#7686A2"/>
<path d="M40.161 33.4295C40.1466 33.2029 40.161 32.9798 40.1358 32.7567C40.0999 32.4522 40.1215 32.1442 40.0927 31.8362C40.0784 31.6662 40.0999 31.5033 40.0317 31.3475C39.9957 31.259 39.9275 31.1705 39.8269 31.1493C39.6544 31.1209 39.4819 31.1634 39.3131 31.1953C38.4975 31.3298 37.6855 31.4821 36.8699 31.6202C36.6902 31.6485 36.489 31.7087 36.3094 31.6804C36.2052 31.6166 36.2267 31.4148 36.2088 31.3086C36.1908 30.6961 36.198 30.08 36.1908 29.4674C36.1836 29.3506 36.1693 29.2338 36.1693 29.1134C36.1657 28.3238 36.1585 27.5307 36.1549 26.7411C36.1549 26.5995 36.1369 26.4579 36.1369 26.3162C36.1333 25.5479 36.1261 24.7831 36.1225 24.0148C36.1225 23.8838 36.101 23.7563 36.0974 23.6253C36.0938 22.9278 36.0866 22.2303 36.0794 21.5363C36.0507 21.03 36.0615 20.5202 36.0507 20.0138C36.0471 19.8014 36.0543 19.589 36.0255 19.3765C36.0076 19.1322 35.9896 18.8844 35.8387 18.679C35.7597 18.5692 35.6375 18.5161 35.501 18.5232C35.1776 18.5551 34.8506 18.5374 34.5237 18.5692C34.2327 18.5763 33.9488 18.5763 33.6614 18.6294C33.4997 18.6719 33.3668 18.7888 33.2949 18.9375C33.2159 19.111 33.2051 19.2986 33.2231 19.4827C33.2626 19.8226 33.2374 20.1661 33.2662 20.5095C33.2949 20.899 33.2698 21.292 33.3129 21.678C33.3308 21.9825 33.3165 22.294 33.3416 22.5985C33.3668 22.9632 33.3416 23.3314 33.3847 23.6961C33.4027 23.944 33.3919 24.1954 33.4063 24.4432C33.4386 24.8079 33.4207 25.1761 33.4422 25.5373C33.4817 25.8453 33.4566 26.1498 33.4817 26.4579C33.5105 26.8332 33.4817 27.2156 33.5249 27.5909C33.5464 27.9095 33.5285 28.2282 33.5572 28.5469C33.5823 28.9009 33.5572 29.2585 33.5967 29.6091C33.6183 29.9029 33.6003 30.2004 33.6291 30.4942C33.6542 30.8625 33.6291 31.2236 33.6722 31.5919C33.6865 31.8574 33.6901 32.123 33.6865 32.3885C33.6937 32.3602 33.7045 32.3319 33.7117 32.3035C33.7045 32.5868 33.7189 32.87 33.7225 33.1533C33.7728 33.6596 33.744 34.1659 33.7979 34.6722C33.8339 34.8351 33.9021 34.9874 34.0746 35.0511C34.2794 35.1219 34.5345 35.0405 34.7393 35.0051C35.9106 34.7997 37.0926 34.6298 38.2675 34.4421C38.7095 34.3819 39.1514 34.3253 39.5933 34.2651C39.7334 34.2403 39.8843 34.219 40.0173 34.1659C40.0999 34.1341 40.1646 34.0632 40.1754 33.9712C40.1933 33.7871 40.1682 33.603 40.161 33.4295ZM35.077 34.042C34.9369 34.0668 34.7932 34.0668 34.653 34.0597C34.7033 33.8579 34.6387 33.6702 34.6459 33.4684C34.6171 32.9975 34.6099 32.523 34.6135 32.0486C34.6027 32.1796 34.5956 32.3141 34.5884 32.4452C34.5991 31.6627 34.5273 30.8837 34.5452 30.1012C34.5381 30.2216 34.5345 30.342 34.5237 30.4624C34.5129 30.0694 34.5201 29.6763 34.4878 29.2833C34.4734 28.9895 34.4878 28.6991 34.4518 28.4052C34.4303 28.0583 34.4446 27.7077 34.4231 27.3607C34.3979 27.0846 34.4159 26.8049 34.3943 26.5287C34.3548 26.1782 34.38 25.8205 34.3548 25.4665C34.3261 25.1584 34.3512 24.8539 34.3117 24.5459C34.2902 24.1564 34.3081 23.767 34.2722 23.3775C34.2578 23.0128 34.2686 22.6446 34.2291 22.2799C34.2291 21.77 34.1895 21.2637 34.186 20.7538C34.186 20.552 34.15 20.3573 34.1536 20.1555C34.1572 19.9289 34.1357 19.6987 34.1464 19.4686C34.4734 19.465 34.7968 19.4225 35.1237 19.4225C35.1632 19.6775 35.1453 19.9253 35.1525 20.1873C35.1632 20.6582 35.1453 21.1327 35.1848 21.6036C35.1884 22.3011 35.1956 22.9951 35.1992 23.6926C35.1992 23.859 35.2135 24.0219 35.2171 24.1883C35.2243 25.0487 35.2315 25.9126 35.2351 26.773C35.2351 26.9146 35.2602 27.0562 35.2602 27.1979C35.2602 27.8246 35.271 28.4477 35.271 29.0744C35.2674 29.2621 35.2818 29.4533 35.289 29.6409C35.2926 30.2676 35.2962 30.8908 35.3034 31.5175C35.307 31.6697 35.3321 31.822 35.3357 31.9778C35.3393 32.1513 35.3788 32.3141 35.4794 32.4593C35.5549 32.562 35.695 32.6151 35.8207 32.6257C36.0758 32.647 36.3453 32.6009 36.6004 32.5726C37.3262 32.4416 38.0555 32.3177 38.7813 32.1902C38.925 32.1584 39.0652 32.1407 39.2125 32.1336C39.2125 32.562 39.2592 32.9833 39.2556 33.4118C37.8507 33.5923 36.4747 33.8048 35.077 34.042Z" fill="#7686A2"/>
<path d="M46.5636 22.241C46.4918 21.6851 46.2905 21.1363 45.9456 20.6866C45.5288 20.1342 44.8857 19.7483 44.2138 19.5819C43.8186 19.4863 43.409 19.4544 43.003 19.4686C42.8845 19.4792 42.7515 19.4792 42.6797 19.589C42.5826 19.7448 42.5898 19.9749 42.5826 20.1555C42.5826 21.2531 42.597 22.3507 42.6006 23.4483C42.6329 24.1423 42.6186 24.8398 42.6294 25.5373C42.6401 25.902 42.5898 26.2348 42.694 26.5747C42.7228 26.6739 42.809 26.7412 42.9096 26.7624C43.1719 26.8226 43.4629 26.7659 43.7288 26.7199C44.7851 26.5393 45.7229 25.8383 46.1792 24.8823C46.4307 24.3512 46.5744 23.7528 46.5888 23.1651C46.6391 22.8499 46.5924 22.549 46.5636 22.241ZM45.669 23.4094C45.6007 23.9334 45.4498 24.4326 45.1336 24.8717C44.7923 25.3567 44.2605 25.6967 43.6785 25.8277C43.5923 25.8454 43.506 25.8383 43.4198 25.8383C43.3982 25.8064 43.3767 25.7745 43.3551 25.7427C43.3372 24.8256 43.3551 23.9051 43.3192 22.988C43.3156 22.1985 43.312 21.4054 43.3048 20.6158C43.3048 20.5308 43.3156 20.4635 43.3551 20.3856C43.8078 20.3431 44.2857 20.4883 44.6701 20.722C45.1264 20.9982 45.4462 21.4443 45.5863 21.9506C45.7265 22.4215 45.7229 22.9208 45.669 23.4094Z" fill="#7686A2"/>
<path d="M97.7126 25.5798C97.4682 25.3603 97.1125 25.2824 96.7928 25.254C96.3508 25.2045 95.873 25.2859 95.4275 25.3036C95.2514 25.3107 95.0789 25.3249 94.9029 25.339C94.8706 25.0983 94.8706 24.8539 94.8382 24.6132C94.6909 23.4058 94.2741 22.2197 93.5016 21.2637C93.0525 20.7078 92.4345 20.1944 91.7339 19.9891C91.292 19.851 90.8321 19.9182 90.4117 20.0882C90.0129 20.2581 89.7003 20.5626 89.5243 20.9486C89.2835 21.4797 89.2764 22.0887 89.3518 22.6552C89.4165 23.1049 89.5171 23.5651 89.6931 23.9865C89.9159 24.507 90.2321 24.9672 90.5986 25.3921C91.3136 26.2029 92.1902 26.8757 93.1352 27.4032C93.1531 28.2636 93.1603 29.1134 93.0418 29.9631C92.9771 30.4305 92.8729 30.9156 92.6789 31.3511C92.5423 31.6591 92.3663 31.9424 92.104 32.1654C91.8489 32.3814 91.5183 32.5054 91.1842 32.5124C90.965 32.516 90.7531 32.4416 90.5734 32.3177C90.365 32.1761 90.1997 31.9636 90.0704 31.7512C89.8117 31.3228 89.6464 30.8235 89.5171 30.342C89.3662 29.7684 89.2656 29.1877 89.1794 28.6C89.1578 28.4619 89.1434 28.3274 89.1398 28.1857C89.1362 28.2034 89.1326 28.2211 89.1255 28.2388C89.068 27.6723 89.0069 27.1094 88.9674 26.5428C88.8883 25.5515 88.8524 24.4928 88.6081 23.5262C88.5182 23.1863 88.3997 22.811 88.1841 22.5242C88.062 22.3613 87.9039 22.2303 87.6991 22.1914C87.5122 22.1559 87.2931 22.1772 87.1134 22.248C86.8907 22.3401 86.7505 22.5383 86.6499 22.7472C86.4344 23.2146 86.3661 23.7316 86.2439 24.2237C85.9745 25.3036 85.6547 26.3694 85.281 27.4174C85.0475 28.0583 84.8068 28.685 84.4978 29.2975C84.3181 29.6516 84.1097 30.0198 83.8474 30.3243C83.7253 30.4588 83.5672 30.6005 83.3875 30.6465C83.2366 30.6854 83.0821 30.6323 82.9815 30.519C82.8414 30.3668 82.7732 30.1402 82.7264 29.9419C82.669 29.6516 82.6402 29.3541 82.6402 29.0567C82.6402 28.6354 82.633 28.2034 82.6726 27.7856C82.7408 26.7447 82.8917 25.7002 83.0318 24.6663C83.0965 24.2202 83.1324 23.7705 83.1792 23.3208C83.2223 22.7685 83.2438 22.1772 83.0821 21.639C82.9851 21.3203 82.8127 21.03 82.5468 20.8211C82.227 20.5697 81.8174 20.467 81.4114 20.4493C80.9228 20.4423 80.4593 20.5945 80.0425 20.8388C79.4784 21.1752 79.0185 21.6496 78.6377 22.1737C78.3 21.6319 77.8796 21.1433 77.3909 20.7291C76.0328 19.5748 74.2543 18.9269 72.465 18.8808C71.4698 18.8808 70.471 19.0012 69.5188 19.288C68.5416 19.5783 67.6326 20.0528 66.8205 20.6582C65.9834 21.3026 65.3151 22.1737 64.8516 23.1119C64.2552 24.3299 63.9929 25.6577 63.9678 27.0031C63.9534 27.5838 64.0217 28.1716 64.1761 28.7345C63.5222 29.6445 62.8755 30.6607 62.0276 31.4113C61.8228 31.5883 61.5641 31.7795 61.291 31.8291C61.1258 31.8645 60.9677 31.8008 60.8599 31.6768C60.7377 31.5352 60.6802 31.3298 60.6623 31.1457C60.6263 30.7456 60.7126 30.3208 60.8132 29.9313C61.1006 28.862 61.5821 27.8564 62.0384 26.8544C62.1713 26.5322 62.333 26.2242 62.4803 25.9091C62.8037 25.2328 63.1055 24.5459 63.3641 23.8413C63.6264 23.1084 63.8564 22.3224 63.9318 21.547C63.9821 21.0159 63.9606 20.4139 63.7234 19.9253C63.5474 19.55 63.2276 19.2597 62.8432 19.0968C62.3258 18.8667 61.7366 18.8065 61.1832 18.9339C60.5293 19.0791 59.9257 19.458 59.4227 19.8828C58.4849 20.6759 57.7735 21.6744 57.0693 22.6658C57.0011 21.8621 56.843 21.0406 56.4621 20.3219C56.2142 19.858 55.8693 19.4509 55.3699 19.2349C55.007 19.072 54.619 19.0579 54.2273 19.1003C53.6668 19.1782 53.1063 19.3553 52.65 19.6952C52.2045 20.0138 51.8775 20.4918 51.6728 20.9875C51.4464 21.5222 51.3314 22.1099 51.238 22.68C51.1482 23.1934 51.1194 23.7174 51.1697 24.2379C51.2093 24.6769 51.3099 25.1903 51.5901 25.5479C51.9207 25.9905 52.668 25.994 53.0273 25.5869C53.1926 25.4028 53.2752 25.1514 53.3039 24.9106C53.3794 24.2627 53.4081 23.5651 53.5626 22.9278C53.6417 22.6198 53.7567 22.294 53.9686 22.0533C54.1195 21.8798 54.3351 21.7559 54.5651 21.7204C54.6657 21.7063 54.7806 21.7204 54.8525 21.7983C54.9567 21.9081 54.9711 22.0781 54.9711 22.2232C54.9675 22.4852 54.9172 22.7472 54.8633 23.0022C54.7016 23.7386 54.5004 24.4574 54.3064 25.1903C53.8034 27.0421 53.2932 28.8939 52.7973 30.7492C52.65 31.3015 52.4991 31.8857 52.474 32.4558C52.4704 32.7178 52.4955 33.0081 52.6177 33.2454C52.8081 33.6348 53.3722 33.7871 53.7423 33.5534C53.9902 33.4011 54.1591 33.1427 54.2992 32.8984C54.5794 32.392 54.7699 31.822 55.0106 31.2944C55.7399 29.648 56.5052 28.0158 57.2885 26.3906C57.7125 25.5196 58.14 24.645 58.6071 23.7953C58.9628 23.1403 59.3904 22.5065 59.9257 21.9789C60.1916 21.724 60.5114 21.4655 60.8635 21.3416C61.0575 21.2743 61.2874 21.2531 61.4635 21.3805C61.6359 21.5045 61.697 21.7452 61.7078 21.9435C61.7294 22.3578 61.6036 22.7897 61.4707 23.1792C61.194 23.9369 60.8096 24.6734 60.4431 25.3921C59.8646 26.5251 59.2754 27.6723 58.9017 28.8868C58.6143 29.8251 58.449 30.8448 58.6215 31.822C58.6897 32.3 58.8694 32.7603 59.1568 33.1498C59.4766 33.5746 59.9329 33.8933 60.4682 33.9854C60.7772 34.0278 61.115 34.0208 61.4204 33.9535C62.0563 33.8083 62.624 33.4613 63.1198 33.0542C63.9282 32.3814 64.5929 31.4998 65.1462 30.6146C65.2792 30.7527 65.4013 30.9014 65.5379 31.0395C66.2636 31.7724 67.1906 32.3283 68.1535 32.7107C68.4302 32.8205 68.714 32.9161 68.9907 33.0187C69.0985 33.0612 69.235 33.0896 69.3248 33.1639C69.3536 33.2524 69.3212 33.3587 69.2997 33.4436C69.1128 34.1128 68.8901 34.782 68.7499 35.4618C68.7284 35.5857 68.6853 35.7522 68.7571 35.8655C68.8002 35.9469 68.8757 35.9681 68.9583 36H69.1416C69.5117 35.9398 69.8674 35.7486 70.1799 35.5503C70.9704 35.0476 71.7285 34.4881 72.4291 33.8721C72.6339 33.695 72.7884 33.5038 73.0291 33.3693C73.4208 33.1462 73.9022 33.0365 74.337 32.9161C74.9442 32.7355 75.537 32.5054 76.0975 32.2115C76.5322 31.9849 76.9562 31.7229 77.3263 31.4042C77.4987 31.2661 77.6676 31.128 77.8185 30.9687C78.4724 30.2924 78.9323 29.4143 79.2269 28.5363C79.4353 27.9131 79.5683 27.2722 79.597 26.6172C79.615 26.1675 79.6186 25.7179 79.5898 25.2717C79.579 25.1053 79.5431 24.9389 79.5431 24.7725C79.5647 24.6273 79.6329 24.4893 79.6868 24.3547C79.8593 23.9794 80.0892 23.6289 80.3587 23.3138C80.4952 23.158 80.6497 22.9986 80.8258 22.8924C80.9084 22.8393 81.0306 22.8145 81.1204 22.857C81.2138 22.9278 81.2354 23.0765 81.2426 23.1827C81.2533 23.4306 81.2066 23.682 81.1635 23.9263C80.8366 25.4806 80.5312 27.0067 80.4593 28.6C80.427 29.517 80.4521 30.4801 80.7432 31.3582C80.9408 31.9353 81.2533 32.4629 81.7887 32.7921C82.3133 33.1143 82.9241 33.171 83.5277 33.1321C84.1493 33.0896 84.7493 32.8665 85.2199 32.4629C85.8128 31.9672 86.1828 31.2626 86.4451 30.5544C86.5817 30.1933 86.6787 29.8215 86.8044 29.4568C86.8439 29.3541 86.8835 29.2302 86.9589 29.1488C87.0056 29.1382 87.0487 29.1275 87.0775 29.1771C87.1745 29.3294 87.1996 29.5312 87.2392 29.7082C87.4044 30.5828 87.5482 31.4254 87.8572 32.2646C88.0763 32.8594 88.3602 33.4224 88.7805 33.9039C89.2009 34.389 89.765 34.7395 90.3938 34.8882C90.9435 35.0157 91.5327 35.0157 92.0824 34.8918C92.6932 34.7537 93.2501 34.4209 93.6669 33.9606C94.2238 33.3587 94.5687 32.5585 94.7879 31.7795C94.9927 31.0431 95.1041 30.2818 95.1508 29.5206C95.1975 28.9788 95.1831 28.4336 95.176 27.8918C95.1724 27.7608 95.2227 27.6369 95.352 27.5873C95.4921 27.5378 95.661 27.5696 95.8083 27.5626C96.3508 27.5555 96.9796 27.4918 97.4611 27.2191C97.7557 27.0492 97.9317 26.8119 98 26.4827V26.1746C97.982 25.9551 97.8958 25.7391 97.7126 25.5798ZM91.8884 23.9936C91.6585 23.7457 91.4429 23.4695 91.2848 23.1686C91.2058 23.0128 91.1339 22.8393 91.1088 22.6658C91.0944 22.5277 91.1231 22.3826 91.2381 22.2905C91.4177 22.1524 91.68 22.1489 91.8705 22.2728C92.1076 22.418 92.2729 22.68 92.3986 22.9207C92.6178 23.3527 92.7615 23.8307 92.8729 24.3016C92.9124 24.4751 92.9555 24.6486 92.9771 24.8256C92.5639 24.638 92.1974 24.3193 91.8884 23.9936ZM78.1347 26.596C78.1239 27.0775 78.0125 27.5626 77.8688 28.0193C77.682 28.6035 77.4125 29.1877 77.0352 29.6763C76.852 29.9207 76.6328 30.1296 76.3885 30.3172C76.1262 30.5438 75.8388 30.7244 75.5334 30.8908C74.9513 31.2059 74.3262 31.4467 73.6866 31.6166C73.1441 31.7653 72.6375 31.999 72.1992 32.346C71.8722 32.6009 71.5956 32.9338 71.3009 33.2312C70.9273 33.61 70.5716 34.0101 70.1656 34.3536C70.356 33.9429 70.5213 33.5321 70.5213 33.0719C70.5285 32.8205 70.4853 32.5726 70.3668 32.3496C70.2123 32.0557 69.9428 31.8432 69.6302 31.7299C69.1272 31.5458 68.6206 31.383 68.1427 31.1386C67.3164 30.7315 66.5511 30.1543 66.0481 29.3789C65.6564 28.7699 65.4552 28.0547 65.4409 27.3324C65.4193 26.3339 65.563 25.3072 65.9079 24.3653C66.2708 23.3775 66.896 22.4357 67.7439 21.7877C68.1643 21.4832 68.617 21.2035 69.0949 20.9911C70.0614 20.5556 71.1213 20.3573 72.1812 20.3325C72.8387 20.3077 73.507 20.4175 74.1393 20.5981C75.1561 20.899 76.137 21.4549 76.8592 22.2303C77.5419 22.9597 77.9299 23.8873 78.0736 24.8646C78.1562 25.4417 78.1814 26.0224 78.1347 26.596Z" fill="#7686A2"/>
<path d="M74.9118 22.7897C75.0555 22.8004 75.1885 22.8641 75.2927 22.9632C75.4615 23.1155 75.5801 23.3244 75.5873 23.551C75.6053 23.8272 75.4939 24.075 75.3537 24.3087C75.0555 24.7796 74.6819 25.1372 74.2974 25.5302C73.78 26.0472 73.2555 26.557 72.7309 27.0669C71.9477 27.8175 71.1716 28.5752 70.3668 29.3046C70.1009 29.5524 69.7164 29.7543 69.3428 29.7401C69.138 29.7365 68.9547 29.6268 68.8469 29.4604C68.7428 29.2975 68.696 29.0886 68.6745 28.9009C68.5811 28.168 68.3978 27.3749 68.4266 26.6349C68.4374 26.3871 68.4805 26.118 68.599 25.8985C68.6925 25.725 68.847 25.5833 69.0374 25.5196C69.2817 25.4417 69.5404 25.4098 69.7739 25.5373C70.0362 25.6754 70.162 25.948 70.223 26.2207C70.3057 26.5783 70.241 26.9146 70.2841 27.2722C70.3596 27.1731 70.4386 27.081 70.5213 26.9854C71.1895 26.203 71.8578 25.424 72.5369 24.6521C72.8459 24.3051 73.1477 23.9546 73.4639 23.6183C73.6902 23.3739 73.9489 23.1367 74.2399 22.9703C74.4483 22.8535 74.6747 22.7685 74.9118 22.7897Z" fill="#7686A2"/>
</svg>
