<svg width="122" height="53" viewBox="0 0 122 53" fill="none" xmlns="http://www.w3.org/2000/svg">
<path d="M36.7271 24.6329C36.7271 24.0759 37.2862 23.7975 38.0316 23.7975C39.1498 23.7975 40.6406 24.1688 41.7587 24.8186V21.2911C40.5474 20.827 39.2429 20.5485 38.0316 20.5485C35.0499 20.5485 33 22.1266 33 24.8186C33 28.903 38.5907 28.1603 38.5907 30.0169C38.5907 30.6667 38.0316 30.9451 37.193 30.9451C35.9817 30.9451 34.3977 30.3882 33.1864 29.7384V33.2658C34.584 33.8228 35.8885 34.1013 37.193 34.1013C40.2679 34.1013 42.3178 32.616 42.3178 29.9241C42.411 25.4684 36.7271 26.3038 36.7271 24.6329V24.6329ZM59.9285 33.8228H63.6556V20.827H59.9285V33.8228ZM47.2562 17.7637L43.6223 18.5063V30.2025C43.6223 32.4304 45.2995 34.0084 47.4426 34.0084C48.6539 34.0084 49.5857 33.8228 50.0516 33.5443V30.5738C49.5857 30.7595 47.2562 31.4093 47.2562 29.2743V23.9831H50.0516V20.827H47.2562V17.7637ZM55.0832 21.9409L54.99 20.827H51.6356V33.8228H55.3627V25.0042C56.2945 23.8903 57.8785 24.0759 58.3444 24.2616V20.827C57.8785 20.6414 56.015 20.3629 55.0832 21.9409V21.9409ZM59.9285 19.8059L63.6556 19.0633V16L59.9285 16.7426V19.8059V19.8059ZM89 27.3249C89 23.519 87.1364 20.5485 83.5957 20.5485C80.0549 20.5485 77.9118 23.519 77.9118 27.3249C77.9118 31.7806 80.4276 34.0084 84.0616 34.0084C85.8319 34.0084 87.1364 33.6371 88.1614 32.9873V30.1097C87.1364 30.6667 86.0183 30.9451 84.5275 30.9451C83.0366 30.9451 81.8253 30.3882 81.6389 28.6245H88.9068C89 28.4388 89 27.6962 89 27.3249V27.3249ZM81.6389 25.9325C81.6389 24.2616 82.6639 23.6118 83.5957 23.6118C84.5275 23.6118 85.4592 24.2616 85.4592 25.9325H81.6389ZM71.8552 20.5485C70.3644 20.5485 69.5258 21.1983 68.9667 21.7553L68.8735 20.827H65.5191V38L69.2463 37.3502V33.173C69.8053 33.5443 70.5508 34.1013 71.8552 34.1013C74.5574 34.1013 76.98 31.9662 76.98 27.2321C76.8869 22.962 74.4642 20.5485 71.8552 20.5485V20.5485ZM70.9235 30.7595C70.0849 30.7595 69.5258 30.481 69.1531 30.0169V24.5401C69.5258 24.0759 70.0849 23.7975 70.9235 23.7975C72.3211 23.7975 73.2529 25.2827 73.2529 27.2321C73.2529 29.2743 72.3211 30.7595 70.9235 30.7595Z" fill="#7686A2"/>
</svg>
