<svg width="74" height="81" viewBox="0 0 74 81" fill="none" xmlns="http://www.w3.org/2000/svg">
<path fill-rule="evenodd" clip-rule="evenodd" d="M66.7684 40.9681C66.7684 57.8287 53.1035 71.4968 36.2469 71.4968C19.3902 71.4968 5.72534 57.8287 5.72534 40.9681C5.72534 24.1076 19.3902 10.4395 36.2469 10.4395C53.1035 10.4395 66.7684 24.1076 66.7684 40.9681" fill="#5ABCF4"/>
<path fill-rule="evenodd" clip-rule="evenodd" d="M66.6659 43.4879C66.6659 43.4879 71.0166 34.1059 72.3947 28.6202C72.8722 26.7167 71.0529 25.0967 69.1191 26.0338C67.1839 26.9709 65.6816 27.8717 64.1234 29.0615" fill="#40B2F2"/>
<path fill-rule="evenodd" clip-rule="evenodd" d="M5.72607 41.337C5.72607 41.337 1.76219 48.7904 0.58098 54.3221C0.171886 56.241 2.22713 57.7311 3.94728 56.7884C5.83638 55.755 6.60011 55.2313 8.49758 53.7258" fill="#5ABCF4"/>
<path fill-rule="evenodd" clip-rule="evenodd" d="M36.2471 10.4398C34.5828 10.4398 32.952 10.578 31.3604 10.8336C45.8923 13.1742 56.9951 25.7725 56.9951 40.9684C56.9951 56.1643 45.8923 68.7626 31.3604 71.1018C32.952 71.3587 34.5828 71.497 36.2471 71.497C53.1038 71.497 66.7687 57.8289 66.7687 40.9684C66.7687 24.1078 53.1038 10.4398 36.2471 10.4398" fill="#40B2F2"/>
<path fill-rule="evenodd" clip-rule="evenodd" d="M66.0825 40.9681C66.0825 40.9681 66.0489 40.2363 65.9847 38.8649C65.9847 38.175 65.866 37.3371 65.7083 36.3525C65.6273 35.8623 65.5756 35.3275 65.4555 34.7688C65.3159 34.2158 65.1665 33.6279 65.0088 33.0064C64.3204 30.5485 63.2453 27.5724 61.2543 24.5866C59.301 21.5994 56.5476 18.5325 52.8853 16.0592C49.2342 13.6111 44.6518 11.7802 39.6686 11.1643C38.4218 11.0498 37.0535 10.9576 35.8067 10.9688C34.511 11.0526 33.1888 11.0414 31.8819 11.3054C29.2388 11.6252 26.6321 12.4771 24.0965 13.5496C21.5596 14.6487 19.2014 16.2101 16.9925 17.9879C14.82 19.8257 12.9225 22.0099 11.2862 24.3966C9.69585 26.8225 8.48392 29.4982 7.59592 32.2858C6.76517 35.1194 6.39936 37.96 6.33234 40.9989C6.40774 43.8744 6.78891 46.8476 7.63083 49.6393C8.5286 52.4212 9.7503 55.0859 11.3462 57.4991C12.9882 59.8746 14.8912 62.0421 17.0582 63.8688C19.2656 65.634 21.6182 67.1828 24.1482 68.2721C26.667 69.3321 29.2905 70.177 31.8847 70.4842C33.1511 70.7398 34.5194 70.7314 35.8318 70.8124C37.0745 70.8166 38.3883 70.737 39.6281 70.6267C44.635 70.0248 49.1714 68.2204 52.8281 65.7904C56.4848 63.3367 59.2423 60.2894 61.2026 57.3148C63.2006 54.3429 64.2841 51.3752 64.9808 48.9229C65.14 48.3028 65.2908 47.7149 65.4332 47.1618C65.5547 46.6074 65.6063 46.0823 65.6887 45.5977C65.8493 44.6299 65.9722 43.8003 65.9763 43.0839C66.0462 41.6818 66.0838 40.9332 66.0838 40.9332L66.0825 40.9681ZM67.4535 41.003C67.4535 41.003 67.4159 41.7516 67.3432 43.1537C67.3405 43.8478 67.2162 44.7318 67.0445 45.7751C66.9579 46.2932 66.8979 46.8602 66.7694 47.4439C66.6214 48.0221 66.4622 48.6366 66.2961 49.286C65.5658 51.8515 64.4251 54.9532 62.335 58.0591C60.2839 61.1665 57.3993 64.3464 53.5765 66.9077C49.7536 69.4438 45.0078 71.3278 39.7775 71.9478C38.4609 72.0637 37.1582 72.1475 35.7648 72.1364C34.4426 72.0512 33.1245 72.0624 31.7311 71.7914C28.9484 71.4521 26.2635 70.5736 23.6218 69.4578C20.9857 68.314 18.5326 66.6954 16.2386 64.8464C13.9823 62.9387 12.0038 60.6749 10.3004 58.1946C8.6417 55.678 7.37532 52.8975 6.44823 49.9982C5.57838 47.0599 5.18464 44.0531 5.11902 40.9374C5.19302 37.9851 5.60211 34.847 6.48313 31.9492C7.42 29.0569 8.69615 26.2862 10.3605 23.7808C12.0694 21.3131 14.0535 19.0674 16.3042 17.1695C18.5968 15.3316 21.0444 13.7256 23.6735 12.593C28.8954 10.2789 34.592 9.58342 39.7385 10.1323C44.9925 10.7398 49.6908 12.5972 53.5178 15.1152C57.3365 17.6555 60.2239 20.8187 62.2819 23.912C64.3791 27.004 65.5295 30.0974 66.2682 32.6586C66.4371 33.3066 66.5963 33.9197 66.7471 34.4965C66.8769 35.0775 66.9369 35.6361 67.0263 36.1472C67.1994 37.1751 67.3279 38.0507 67.3349 38.77C67.4131 40.2042 67.4549 40.9681 67.4549 40.9681L67.4535 41.003Z" fill="#42457B"/>
<path fill-rule="evenodd" clip-rule="evenodd" d="M23.6392 24.1752C23.6392 24.1752 23.9394 23.6473 24.4421 22.9113C24.9461 22.1697 25.7043 21.241 26.5685 20.3696C27.4328 19.5051 28.4395 18.7035 29.3624 18.2692C29.8329 18.0639 30.2378 17.92 30.552 17.8753C30.8591 17.8264 31.0351 17.7985 31.0351 17.7985C31.6634 17.6994 32.254 18.1295 32.3531 18.7593C32.4425 19.3263 32.1018 19.8612 31.574 20.0344L31.3771 20.0986C31.3771 20.0986 31.271 20.1336 31.0839 20.195C30.8968 20.2257 30.626 20.3444 30.2839 20.4366C29.9474 20.5749 29.5313 20.7201 29.0971 20.9477C28.6657 21.1824 28.2049 21.4561 27.7609 21.7745C26.8645 22.4016 26.0352 23.1613 25.4208 23.7422C24.8023 24.3302 24.4323 24.7436 24.4323 24.7436C24.2522 24.9461 23.9422 24.9642 23.7398 24.7841C23.5638 24.6277 23.5275 24.3721 23.6392 24.1752" fill="#42457B"/>
<path fill-rule="evenodd" clip-rule="evenodd" d="M51.1258 26.0621C51.1258 26.0621 50.7502 25.6571 50.1219 25.0832C49.4992 24.5162 48.6531 23.7774 47.7442 23.1699C47.2932 22.8599 46.8268 22.5959 46.3898 22.3711C45.9486 22.1532 45.5325 22.0108 45.1891 21.8809C44.8414 21.7943 44.5649 21.6854 44.3737 21.6602C44.1824 21.6071 44.0721 21.5764 44.0721 21.5764L43.8892 21.5261C43.3 21.3641 42.9537 20.7539 43.1157 20.1645C43.2651 19.6254 43.7872 19.2903 44.3262 19.3615C44.3262 19.3615 44.5007 19.3852 44.8065 19.4243C45.1192 19.4593 45.5269 19.5877 46.0017 19.7721C46.4638 19.969 46.9581 20.2609 47.4523 20.5946C47.9354 20.9396 48.4255 21.325 48.8751 21.7398C49.7785 22.5694 50.5757 23.466 51.116 24.181C51.6522 24.8904 51.9789 25.4058 51.9789 25.4058C52.1381 25.6585 52.0627 25.9923 51.8114 26.1515C51.588 26.2926 51.2989 26.2493 51.1258 26.0621" fill="#42457B"/>
<path fill-rule="evenodd" clip-rule="evenodd" d="M34.8132 41.1658C34.8132 41.1658 35.8087 41.4939 37.2412 42.1196C37.9519 42.445 38.7897 42.8095 39.6623 43.2732C40.0979 43.5092 40.5517 43.7466 41.0041 44.0385C41.2289 44.1767 41.462 44.3401 41.6966 44.5091L41.987 44.7479C42.0303 44.794 42.1574 44.8499 41.9354 44.7298C41.7957 44.6711 41.5961 44.6809 41.4676 44.7339C41.2107 44.8596 41.2568 44.935 41.268 44.8708C41.2875 44.8401 41.321 44.7563 41.3462 44.6697C41.3992 44.4895 41.4439 44.2717 41.4732 44.0482C41.5319 43.5999 41.5737 43.1279 41.5849 42.6726C41.6045 41.7579 41.5891 40.8864 41.4955 40.1588C41.402 39.4312 41.3071 38.8307 41.1786 38.4411C41.0613 38.0459 40.9678 37.8406 40.9678 37.8406C40.8659 37.6157 40.965 37.349 41.1912 37.247C41.3755 37.1632 41.5863 37.2135 41.7134 37.3574L41.7189 37.3643C41.7189 37.3643 41.9172 37.5906 42.1532 38.0305C42.3808 38.4704 42.6656 39.1114 42.8513 39.9089C43.037 40.7049 43.2115 41.6392 43.2464 42.6615C43.2604 43.174 43.2702 43.7061 43.2003 44.2675C43.1696 44.5468 43.1222 44.8359 43.0384 45.1515C42.9937 45.3121 42.9448 45.4741 42.8471 45.6724C42.7522 45.8414 42.6363 46.1417 42.1462 46.3777C41.9046 46.4894 41.5584 46.495 41.3043 46.3889C40.9552 46.2324 40.9859 46.2003 40.9259 46.1682L40.6229 45.914C40.44 45.78 40.2557 45.6445 40.0505 45.5146C39.6497 45.2535 39.2365 44.9895 38.8302 44.7465C38.0078 44.2535 37.2412 43.7941 36.5836 43.4002C35.2586 42.6112 34.3874 42.0526 34.3874 42.0526C34.1584 41.9045 34.0914 41.5973 34.2394 41.3683C34.3636 41.1741 34.6038 41.0973 34.8132 41.1658" fill="#42457B"/>
<path fill-rule="evenodd" clip-rule="evenodd" d="M25.0175 31.4853C25.0119 31.4992 25.1055 31.2772 25.2702 30.9867C25.4406 30.6878 25.6989 30.2717 26.08 29.8206C26.4612 29.3709 26.9708 28.8779 27.6382 28.4994C27.9719 28.3109 28.3433 28.1629 28.7343 28.0553C29.1461 27.9632 29.505 27.9185 29.9797 27.931C30.1612 27.9534 30.326 27.9604 30.5214 27.9939C30.7309 28.0456 30.9543 28.0875 31.1427 28.1587C31.5197 28.2997 31.8702 28.4813 32.1718 28.7033C32.7791 29.1391 33.2147 29.6683 33.5331 30.139C33.8514 30.6124 34.0567 31.0356 34.1879 31.3372C34.3192 31.6389 34.3806 31.8316 34.3806 31.8316C34.4392 32.0187 34.3359 32.2198 34.1474 32.2785C33.9673 32.3358 33.7732 32.2394 33.7062 32.0634C33.7062 32.0634 33.6504 31.9168 33.5163 31.6515C33.3809 31.3889 33.1715 31.016 32.8657 30.6152C32.5613 30.2172 32.1564 29.7898 31.651 29.4742C31.4024 29.3108 31.1232 29.1921 30.8356 29.1013C30.6932 29.0567 30.5605 29.0483 30.4251 29.012C30.2701 28.9938 30.0746 28.9938 29.9015 28.9826C29.6586 28.998 29.3095 29.0483 29.0372 29.1321C28.7538 29.2312 28.4857 29.3555 28.2442 29.5119C27.7597 29.8276 27.3757 30.2409 27.0881 30.625C26.7991 31.0118 26.6036 31.3721 26.4793 31.6249C26.3523 31.8875 26.316 32.0006 26.3104 32.0132C26.1638 32.3707 25.7561 32.5411 25.4001 32.3958C25.0426 32.2506 24.8723 31.8428 25.0175 31.4853" fill="#42457B"/>
<path fill-rule="evenodd" clip-rule="evenodd" d="M39.8303 31.6666C39.8303 31.6666 40.0635 30.9487 40.7239 30.0396C41.0562 29.5885 41.5086 29.0899 42.1201 28.6877C42.4259 28.488 42.7722 28.3232 43.1436 28.1947C43.5317 28.083 43.885 28.0132 44.3443 28.0006C44.5272 28.009 44.6934 28.0034 44.8888 28.0244C45.0969 28.0635 45.3217 28.0914 45.5143 28.1514C45.8997 28.2687 46.2669 28.4307 46.5866 28.6346C47.2331 29.0396 47.7162 29.5522 48.0764 30.0144C48.4353 30.4809 48.6768 30.904 48.836 31.2085C48.9923 31.5115 49.0677 31.7057 49.0719 31.7196C49.199 32.0841 49.0049 32.4821 48.6405 32.6078C48.2761 32.7335 47.8782 32.5408 47.7525 32.1763C47.7623 32.2154 47.5877 31.5618 47.0614 30.7392C46.7989 30.3329 46.4414 29.8915 45.9751 29.541C45.7447 29.3636 45.4822 29.2226 45.2016 29.1095C45.0648 29.0522 44.9349 29.0313 44.7981 28.9824C44.6417 28.9503 44.449 28.9377 44.2759 28.9154C44.019 28.9042 43.6616 28.9279 43.367 28.9922C43.064 29.0718 42.7708 29.1779 42.5013 29.3245C41.961 29.6164 41.5197 30.0228 41.1833 30.4069C40.5089 31.1875 40.2366 31.8327 40.2366 31.8327C40.1891 31.9431 40.0607 31.9961 39.949 31.9487C39.8443 31.904 39.7912 31.7867 39.8261 31.6805L39.8303 31.6666Z" fill="#42457B"/>
<path fill-rule="evenodd" clip-rule="evenodd" d="M66.2781 43.3089C66.2781 43.3089 66.9552 41.7615 67.8977 39.4083C68.8345 37.0565 70.1191 33.9226 71.1146 30.7231C71.3547 29.9411 71.6033 29.0808 71.7596 28.3714C71.8867 27.7415 71.6591 27.155 71.2305 26.81C70.8032 26.4623 70.2391 26.4036 69.7365 26.567C69.5173 26.6452 69.1836 26.8058 68.8806 26.958C68.5832 27.1103 68.2956 27.2583 68.0191 27.4007C66.9273 27.9901 66.0379 28.5054 65.4278 28.8965C64.8162 29.2889 64.4671 29.5123 64.4671 29.5123L63.7788 28.6102C63.7788 28.6102 64.1139 28.335 64.6989 27.8532C65.3007 27.391 66.1915 26.7541 67.3378 26.1383C67.6254 25.986 67.9242 25.8282 68.2342 25.6648C68.5427 25.5084 68.8401 25.3408 69.3107 25.1858C70.1847 24.9093 71.3296 25.0448 72.1268 25.7458C72.9408 26.4106 73.3095 27.6046 73.0763 28.606C72.8557 29.5207 72.6058 30.2832 72.3335 31.1156C71.2305 34.3626 69.9082 37.4936 68.8597 39.8203C67.8055 42.1414 67.0544 43.6678 67.0544 43.6678L66.2781 43.3089Z" fill="#42457B"/>
<path fill-rule="evenodd" clip-rule="evenodd" d="M33.7403 10.5969C33.7403 10.5969 33.2013 9.77572 32.2212 8.63195C31.2452 7.49935 29.842 6.06648 28.2559 4.89617C27.8482 4.62245 27.4628 4.31381 27.0468 4.0736C26.6321 3.8334 26.2412 3.56386 25.8265 3.37812C25.4188 3.17981 25.0362 2.96335 24.6453 2.83207C24.2571 2.69521 23.9081 2.51226 23.559 2.43685C22.8748 2.23016 22.3024 2.09609 21.8919 2.05559C21.487 1.99135 21.2552 1.95364 21.2552 1.95364L21.1449 1.93548C20.613 1.85029 20.2527 1.35033 20.3379 0.819638C20.4231 0.288949 20.9215 -0.0727582 21.4535 0.0124315C21.4688 0.0152246 21.4884 0.0180177 21.5051 0.0222073C21.5051 0.0222073 21.7732 0.0808625 22.2438 0.181414C22.7213 0.261018 23.3775 0.453742 24.144 0.735845C24.5391 0.848966 24.9217 1.07102 25.3476 1.25397C25.779 1.43133 26.1895 1.69109 26.6265 1.93828C27.0719 2.1729 27.4824 2.48712 27.918 2.7776C28.3536 3.06669 28.7488 3.41862 29.169 3.73983C30.7915 5.09169 32.1653 6.67398 33.1134 7.91272C34.0544 9.14728 34.5864 10.0662 34.5864 10.0662C34.7274 10.3036 34.6506 10.6109 34.4133 10.7519C34.1857 10.8874 33.8883 10.8134 33.7403 10.5969" fill="#42457B"/>
<path fill-rule="evenodd" clip-rule="evenodd" d="M27.284 12.0636C27.284 12.0636 26.995 11.6404 26.4714 11.0511C25.9506 10.4687 25.205 9.73274 24.3701 9.1406C23.9498 8.85011 23.5212 8.57918 23.0981 8.37808C22.8859 8.28032 22.6876 8.17279 22.4852 8.10855C22.2841 8.04291 22.104 7.95073 21.9253 7.91722C21.2244 7.70773 20.7455 7.71751 20.7483 7.69517C20.3503 7.64349 20.0697 7.27899 20.12 6.88098C20.1716 6.48156 20.536 6.20086 20.934 6.25253C20.934 6.25253 21.0806 6.28605 21.3347 6.3447C21.593 6.39218 21.9462 6.50111 22.3581 6.65892C22.5703 6.72456 22.7742 6.84606 23.0018 6.94801C23.2321 7.04717 23.4514 7.18961 23.6831 7.32508C24.1453 7.6016 24.5963 7.94794 25.0263 8.30965C26.7437 9.77882 27.8453 11.7116 27.8453 11.7116C27.936 11.8709 27.8816 12.0734 27.7224 12.1641C27.5716 12.2507 27.3803 12.2046 27.284 12.0636" fill="#42457B"/>
<path fill-rule="evenodd" clip-rule="evenodd" d="M28.8647 70.5109L27.7757 80.6247C27.7575 80.7937 27.6053 80.9152 27.4364 80.8971C27.2716 80.8803 27.1515 80.7351 27.1627 80.5717L27.8483 70.4215C27.8678 70.1408 28.1107 69.9285 28.3914 69.9467C28.6734 69.9663 28.8857 70.2093 28.8661 70.4914C28.8661 70.4969 28.8647 70.5053 28.8647 70.5109" fill="#42457B"/>
<path fill-rule="evenodd" clip-rule="evenodd" d="M44.7292 70.4267L45.3491 80.5726C45.3589 80.7444 45.229 80.8924 45.0573 80.9022C44.8897 80.9134 44.7459 80.7877 44.7292 80.6229L43.7337 70.5063C43.7057 70.2312 43.9068 69.9868 44.1819 69.9602C44.4555 69.9323 44.7013 70.1334 44.7278 70.4085C44.7278 70.4141 44.7292 70.4211 44.7292 70.4267" fill="#42457B"/>
<mask id="mask0" mask-type="alpha" maskUnits="userSpaceOnUse" x="0" y="41" width="9" height="17">
<path fill-rule="evenodd" clip-rule="evenodd" d="M0 41.179V57.6573H8.91742V41.179H0L0 41.179Z" fill="white"/>
</mask>
<g mask="url(#mask0)">
<path fill-rule="evenodd" clip-rule="evenodd" d="M6.02444 41.4946C6.02444 41.4946 5.32074 42.8605 4.37968 44.9707C3.45119 47.0794 2.263 49.934 1.46855 52.8751C1.29123 53.5999 1.0413 54.3946 1.07202 54.9518C1.13066 55.5202 1.49927 56.0327 1.98934 56.2897C2.48221 56.5425 3.04489 56.5564 3.49447 56.3414C3.98315 56.0984 4.58213 55.7311 5.0401 55.449C5.99512 54.8541 6.73093 54.2745 7.2573 53.8583C7.7781 53.4366 8.07689 53.1949 8.07689 53.1949L8.91742 54.2549C8.91742 54.2549 8.60745 54.4909 8.06432 54.9043C7.51979 55.3121 6.71696 55.9098 5.68515 56.5132C5.14481 56.819 4.6701 57.1081 3.95942 57.4377C3.19708 57.7742 2.21972 57.7254 1.43923 57.2813C0.658738 56.8427 0.0695301 55.9922 0.00251125 55.0314C-0.00726234 54.7591 0.00949238 54.5147 0.044398 54.3499C0.0862848 54.0832 0.139341 53.9477 0.185417 53.741C0.277568 53.3569 0.379492 52.9771 0.496775 52.6014C1.40013 49.5904 2.67628 46.7499 3.67179 44.6453C4.67708 42.5434 5.42825 41.179 5.42825 41.179L6.02444 41.4946Z" fill="#42457B"/>
</g>
</svg>
