<svg width="57" height="73" viewBox="0 0 57 73" fill="none" xmlns="http://www.w3.org/2000/svg">
<path fill-rule="evenodd" clip-rule="evenodd" d="M45.1776 70.2907C44.3667 71.349 43.0694 71.9189 41.7489 71.9189H15.0612C13.7407 71.9189 12.4434 71.349 11.6326 70.2907C6.9761 64.2198 7.24251 55.8927 10.6364 50.0893C12.9878 46.0536 12.7793 44.4487 9.76765 40.8782C9.33908 40.3665 9.00316 40.0641 8.89891 39.9595C9.16533 40.1223 9.43174 40.2735 9.68657 40.4247C10.0341 40.6224 10.37 40.8085 10.7059 40.9829C11.8179 41.5761 12.9183 42.0878 14.0071 42.553C14.7369 42.867 15.455 43.1461 16.15 43.402C16.5091 43.5415 16.8566 43.6578 17.1925 43.7741C17.5516 43.9021 17.9107 44.0184 18.2582 44.123C18.9184 44.3324 19.5671 44.5301 20.1926 44.6929C20.818 44.8674 21.432 45.0185 22.0111 45.1465C22.2544 45.2046 22.486 45.2628 22.7177 45.3093C22.8104 45.3326 22.903 45.3442 22.9841 45.3674C23.2274 45.4256 23.459 45.4721 23.6791 45.507C25.6946 45.9024 27.212 46.0769 27.9301 46.1467C27.9765 46.1467 28.0344 46.1583 28.0691 46.1583C28.2892 46.1699 28.4051 46.1816 28.4051 46.1816C28.4051 46.1816 28.5209 46.1699 28.741 46.1583C28.7757 46.1583 28.8336 46.1467 28.88 46.1467C29.5981 46.0769 31.1155 45.9024 33.131 45.507C33.3511 45.4721 33.5828 45.4256 33.826 45.3674C33.9071 45.3442 33.9998 45.3326 34.0924 45.3093C34.3241 45.2628 34.5557 45.2046 34.799 45.1465C35.3782 45.0185 35.9921 44.8674 36.6176 44.6929C37.2431 44.5301 37.8917 44.3324 38.552 44.123C38.8995 44.0184 39.2585 43.9021 39.6176 43.7741C39.9535 43.6578 40.301 43.5415 40.6601 43.402C41.3551 43.1461 42.0733 42.867 42.803 42.553C43.8918 42.0878 44.9922 41.5761 46.1042 40.9829C46.4401 40.8085 46.776 40.6224 47.1235 40.4247C47.3784 40.2735 47.6448 40.1223 47.9112 39.9595C47.807 40.0641 47.471 40.3665 47.0425 40.8782C44.0308 44.4487 43.8223 46.0536 46.1737 50.0893C49.5676 55.8927 49.834 64.2198 45.1776 70.2907" fill="#E8E7EE"/>
<path fill-rule="evenodd" clip-rule="evenodd" d="M51.3721 19.4111V19.4111C57.6908 10.3047 54.3803 2.12533 53.7988 0.853002C53.7502 0.746005 53.639 0.686692 53.522 0.694833C43.8546 1.41357 40.2546 6.02372 40.2546 6.02372L40.2627 6.03303C37.4966 4.8363 33.8583 4.135 28.6574 3.94194C28.4987 3.93613 28.3296 3.93613 28.1698 3.94194C24.4261 4.08034 21.4897 4.48158 19.1071 5.13984C17.5572 5.56899 15.9228 5.26893 14.6081 4.34086C12.6737 2.97665 9.17214 1.21237 3.61103 0.74019C3.28902 0.712278 2.97627 0.896033 2.85349 1.19493C2.02992 3.18599 -0.497537 10.9002 5.42033 19.4285L5.4435 19.4006L1.0523 28.286C0.0225496 30.3689 0.402479 32.8915 2.02066 34.5569C11.3521 44.1622 25.1628 45.8881 27.9173 46.1416C28.2474 46.1718 28.5625 46.1718 28.8926 46.1416C31.6471 45.8881 45.4577 44.1622 54.7892 34.5569C56.4074 32.8915 56.7873 30.3689 55.7575 28.286L51.3721 19.4111Z" fill="#E8E7EE"/>
<path fill-rule="evenodd" clip-rule="evenodd" d="M51.8886 19.4401L54.3384 24.3666L55.6207 26.9449C55.8338 27.3811 56.0492 27.7846 56.2601 28.2766C56.4489 28.7592 56.5832 29.2628 56.6597 29.7757C56.801 30.8026 56.7095 31.868 56.3504 32.846C56.0215 33.8125 55.3658 34.7487 54.6396 35.3872C53.9145 36.035 53.2426 36.7479 52.4735 37.3422C51.6963 37.9249 50.9758 38.589 50.1488 39.1007C49.3402 39.6392 48.5491 40.2067 47.6943 40.6661C46.8603 41.1639 46.0124 41.6337 45.1344 42.0466C44.2749 42.4967 43.3807 42.87 42.4888 43.2491C41.6038 43.6434 40.6806 43.9388 39.7771 44.2865C38.8528 44.5703 37.9424 44.9018 37.0041 45.1402C36.0751 45.41 35.1334 45.6321 34.1917 45.8496C32.2944 46.2567 30.4052 46.5893 28.4372 46.7451H28.3735C26.4055 46.5939 24.5163 46.266 22.6189 45.8636C21.676 45.6484 20.7343 45.4298 19.8042 45.1611C18.866 44.9262 17.9544 44.5959 17.0289 44.3144C16.1242 43.969 15.201 43.6759 14.3137 43.284C13.4218 42.906 12.5253 42.5362 11.6647 42.0873L10.3627 41.4372L9.09898 40.7138C8.24183 40.2544 7.44838 39.6903 6.63755 39.153C5.81283 38.6448 5.07497 37.9726 4.29195 37.3853C3.51008 36.784 2.86374 36.0978 2.14326 35.4581C1.37761 34.7848 0.741691 33.8741 0.391878 32.8879C0.0223735 31.9017 -0.0784005 30.8236 0.0582815 29.7827C0.134731 29.2605 0.263304 28.7581 0.468327 28.2405C0.653659 27.8032 0.898065 27.3369 1.09845 26.9229L2.37145 24.341L4.91744 19.1784L4.9603 19.7506L4.94872 19.732L4.2711 18.669C4.05681 18.3085 3.79619 17.9747 3.61896 17.5909L3.04096 16.4663C2.83478 16.0976 2.68304 15.7033 2.52667 15.3102C2.37261 14.9171 2.20581 14.5287 2.06218 14.131L1.69847 12.9144C1.56294 12.5132 1.48881 12.0945 1.40425 11.6793C1.3278 11.263 1.21313 10.8524 1.17954 10.4279L1.03359 9.16376L0.987256 7.89026C0.973356 7.46577 1.01042 7.04127 1.01969 6.61677C1.02201 6.19111 1.0973 5.77127 1.13436 5.34793C1.1668 4.92344 1.26641 4.50824 1.33012 4.08724C1.40309 3.66855 1.51429 3.25685 1.61043 2.84166C1.72974 2.43228 1.83862 2.01941 1.98689 1.61585C2.12473 1.20414 2.27878 0.820352 2.48033 0.39004C2.59848 0.138831 2.86026 0.000433513 3.12088 0.0271826L3.13942 0.0295087C3.76491 0.103941 4.39041 0.169069 5.01358 0.252806C5.63329 0.367943 6.25646 0.450517 6.87153 0.593566C7.48428 0.740105 8.10167 0.866873 8.70284 1.06109C9.31096 1.2274 9.90518 1.44256 10.4971 1.66121C11.6728 2.11943 12.8195 2.66488 13.8933 3.33942C14.4284 3.67902 14.952 4.03839 15.442 4.4466C15.9377 4.85598 16.3987 5.27001 16.8343 5.80151L16.3848 5.68753L16.3976 5.68172C19.4335 4.29658 22.7521 3.84533 25.9966 3.57668C26.8294 3.51271 27.5962 3.46735 28.4766 3.43944C29.292 3.48247 30.1075 3.52899 30.9218 3.60226C32.5504 3.74182 34.179 3.95 35.7867 4.2896C36.5894 4.46521 37.3887 4.66176 38.1798 4.8932C38.5748 5.0095 38.9663 5.13859 39.3601 5.28164L39.9324 5.50029C40.1409 5.58868 40.1177 5.55146 40.1988 5.52936C40.2173 5.52936 40.4351 5.28048 40.5683 5.16185C40.7189 5.01415 40.8764 4.87459 41.0339 4.73619C41.3501 4.46172 41.6814 4.20702 42.0197 3.96163C42.6973 3.47666 43.4154 3.05332 44.1486 2.66488C44.8946 2.30086 45.6464 1.94614 46.4236 1.66004C47.1962 1.35882 47.9885 1.10994 48.7889 0.901763C49.5881 0.685444 50.3978 0.506341 51.2121 0.359802C52.0264 0.199307 52.8476 0.10743 53.6701 0.00508554C53.9434 -0.0298046 54.1959 0.117897 54.3095 0.353987L54.3164 0.370269L54.3187 0.372595C54.518 0.805233 54.6697 1.18903 54.8052 1.60306C54.9512 2.00778 55.0566 2.42065 55.1747 2.83119C55.3774 3.65925 55.5419 4.49545 55.6357 5.34096C55.6693 5.76429 55.7411 6.1853 55.7411 6.60979C55.7492 7.03429 55.784 7.45879 55.7666 7.88329L55.7122 9.15329L55.5593 10.4151C55.5234 10.8385 55.4041 11.2479 55.3265 11.6631C55.2396 12.0771 55.162 12.4934 55.0241 12.8935L54.6546 14.1054L54.182 15.2777C54.0268 15.6684 53.8693 16.0592 53.6596 16.4314L53.07 17.5595C52.8836 17.9468 52.6345 18.2619 52.4202 18.6167L51.8886 19.4401ZM50.9919 19.17L51.636 18.1198C51.8387 17.7675 52.0935 17.4244 52.2522 17.0638L52.7781 15.9939C52.9657 15.645 53.107 15.2693 53.246 14.8937L53.67 13.769L53.9932 12.613C54.1159 12.2315 54.1796 11.8361 54.2526 11.4442C54.3163 11.0499 54.4217 10.6627 54.4449 10.2637L54.5631 9.07282L54.5851 7.87842C54.5932 7.48067 54.5491 7.08292 54.5341 6.68634C54.5271 6.28743 54.4484 5.89549 54.4078 5.50007C54.3036 4.71272 54.1298 3.93583 53.926 3.17173C53.8067 2.79492 53.7013 2.41345 53.5588 2.04711C53.4314 1.68192 53.268 1.30511 53.1175 0.994588L53.1163 0.992262L53.7626 1.35745C52.9704 1.40397 52.1746 1.43769 51.3869 1.53887C50.597 1.62377 49.8081 1.7424 49.0355 1.92267C48.2595 2.08781 47.4903 2.29366 46.7386 2.54953C45.981 2.78678 45.2501 3.09846 44.532 3.43457C43.8231 3.78929 43.1304 4.17541 42.476 4.61968C42.1516 4.84414 41.8331 5.0779 41.5308 5.32795C41.3802 5.45471 41.2296 5.58032 41.0883 5.71406C40.9099 5.85595 40.8902 5.95132 40.5682 6.17578C40.2914 6.37116 39.8188 6.2758 39.6693 6.18508L39.1041 5.97109C38.7346 5.83967 38.3535 5.71523 37.9712 5.60474C37.2067 5.37563 36.426 5.19885 35.6372 5.06162C34.0596 4.78947 32.4599 4.61968 30.8545 4.52664C30.0518 4.47663 29.2468 4.4522 28.4429 4.43127C27.7016 4.4522 26.849 4.48477 26.0637 4.53827C22.8632 4.7511 19.6524 5.20816 16.6975 6.38279L16.6859 6.38861C16.5284 6.45141 16.3535 6.40605 16.2458 6.2851L16.2365 6.27347C15.8716 5.86293 15.399 5.4582 14.9276 5.10349C14.455 4.73947 13.9453 4.41964 13.4276 4.11842C12.3862 3.52064 11.2766 3.04497 10.1414 2.65187C9.56803 2.46579 8.99581 2.2832 8.40854 2.14829C7.82938 1.98431 7.23169 1.88778 6.6421 1.77031C6.0502 1.65634 5.44787 1.60168 4.8525 1.51329L3.04783 1.3714L3.03046 1.36908L3.67101 1.00738C3.52274 1.31907 3.36058 1.69588 3.23548 2.06223C3.09648 2.42857 2.99223 2.81004 2.8764 3.18685C2.78489 3.57064 2.67601 3.95211 2.60419 4.34172C2.54049 4.73249 2.44203 5.11861 2.40844 5.51403C2.37137 5.90829 2.29376 6.30022 2.28913 6.6968C2.27639 7.09339 2.23585 7.48997 2.24511 7.88656L2.27523 9.07748L2.39917 10.2626C2.42465 10.6592 2.53006 11.0453 2.59724 11.4372C2.67253 11.8268 2.73624 12.2211 2.86018 12.5991L3.18915 13.7481C3.32004 14.1238 3.47525 14.4913 3.61657 14.8646C3.75788 15.2368 3.89688 15.6112 4.09032 15.9625L4.62546 17.0348C4.78763 17.4011 5.03551 17.7221 5.2359 18.0675L5.8695 19.0886L5.87993 19.1061L5.89614 19.1317C6.00155 19.3026 6.00503 19.5096 5.92279 19.6783L3.37679 24.8409L2.10496 27.4227C1.88719 27.8716 1.68333 28.2543 1.49336 28.7009C1.34857 29.0777 1.23158 29.508 1.17019 29.936C1.05899 30.7954 1.14007 31.6875 1.44587 32.4992C1.74356 33.3215 2.23353 34.0367 2.90536 34.6287C3.61657 35.2602 4.29303 35.9743 5.03319 36.5372C5.78495 37.0954 6.4672 37.7258 7.27571 38.2236C8.06221 38.7434 8.83017 39.2912 9.66301 39.7366L10.8908 40.4402L12.158 41.0718C12.9955 41.5102 13.87 41.8696 14.7399 42.2383C15.604 42.6197 16.5075 42.9058 17.3902 43.2443C18.2948 43.5187 19.1856 43.8409 20.1041 44.0711C21.0134 44.334 21.9343 44.548 22.8563 44.7585C24.7003 45.1504 26.5884 45.4737 28.4371 45.6156H28.3734C30.2221 45.4784 32.1136 45.1597 33.9588 44.7713C34.882 44.5631 35.8052 44.3503 36.7156 44.0909C37.6353 43.863 38.5272 43.542 39.433 43.2687C40.3168 42.9326 41.2227 42.6488 42.0891 42.2685C42.9613 41.9021 43.837 41.5428 44.6768 41.1066C45.5362 40.7089 46.3644 40.2553 47.1787 39.775C48.0151 39.3307 48.7853 38.7818 49.5742 38.2643C50.3827 37.77 51.0811 37.128 51.8398 36.5674C52.5904 35.9941 53.2426 35.3067 53.9503 34.6822C54.6603 34.053 55.1271 33.3599 55.4387 32.5144C55.7469 31.6898 55.8291 30.7838 55.7133 29.9104C55.6079 29.016 55.2268 28.2473 54.7773 27.3646L53.5078 24.7804L50.9699 19.6108C50.8993 19.4678 50.9155 19.298 50.9919 19.17V19.17Z" fill="#42457B"/>
<path fill-rule="evenodd" clip-rule="evenodd" d="M43.3708 7.81958C43.3708 7.81958 43.5469 7.95333 43.8562 8.18825C44.1608 8.43016 44.5871 8.78836 45.0643 9.25705C46.0246 10.1875 47.14 11.5959 48.1142 13.0915C49.0941 14.5836 49.9895 16.1246 50.6706 17.2702C50.8617 17.5807 50.9752 17.84 51.1096 18.0843C51.2347 18.3238 51.3436 18.5332 51.4328 18.7065C51.6123 19.0507 51.7154 19.2473 51.7154 19.2473C51.8127 19.4345 51.7409 19.6648 51.5544 19.7625C51.3691 19.859 51.1397 19.7869 51.0424 19.6008C51.0401 19.5962 51.0378 19.5904 51.0355 19.5869C51.0355 19.5869 50.9416 19.3857 50.776 19.0333C50.6938 18.8565 50.5941 18.6425 50.4795 18.3983C50.3636 18.161 50.2362 17.8575 50.0926 17.5923C49.4764 16.4107 48.6702 14.8302 47.7817 13.2997C46.8991 11.7668 45.8775 10.3177 44.9763 9.34195C44.528 8.85233 44.1249 8.47319 43.8353 8.215C43.54 7.96379 43.3708 7.81958 43.3708 7.81958" fill="#42457B"/>
<path fill-rule="evenodd" clip-rule="evenodd" d="M4.90905 19.173L5.20095 18.6357C5.29362 18.4636 5.40597 18.2566 5.53571 18.0182C5.67355 17.7728 5.78938 17.5262 5.98977 17.2017C6.68245 16.062 7.59636 14.528 8.59484 13.0382C9.58752 11.5472 10.7227 10.1411 11.698 9.21538C12.1822 8.75018 12.6142 8.3943 12.9212 8.15472C13.2351 7.92212 13.4135 7.78837 13.4135 7.78837C13.4308 7.77558 13.4563 7.77907 13.4702 7.79768C13.483 7.81396 13.4783 7.83954 13.4621 7.8535C13.4621 7.8535 13.2953 7.99888 13.0034 8.25241C12.7161 8.51292 12.3177 8.89555 11.8775 9.38983C10.9891 10.3726 9.98598 11.8275 9.11955 13.3673C8.24966 14.9048 7.45968 16.4946 6.85504 17.6855C6.72067 17.9379 6.59441 18.2543 6.48437 18.4903C6.37317 18.7381 6.27587 18.9532 6.19711 19.1312C6.03726 19.487 5.94691 19.6894 5.94691 19.6894C5.81486 19.9825 5.472 20.1139 5.1801 19.9825C4.8882 19.8499 4.75847 19.5057 4.88936 19.2126C4.89515 19.1998 4.9021 19.1858 4.90905 19.173" fill="#42457B"/>
<path fill-rule="evenodd" clip-rule="evenodd" d="M18.6743 62.5446C18.6743 62.5446 18.7936 63.311 19.1202 64.4124C19.4411 65.5149 20.011 66.9454 20.7975 68.2515C21.1843 68.9016 21.6303 69.5378 22.0624 70.0751C22.2987 70.3647 22.5014 70.5438 22.7574 70.7345C23.0018 70.9124 23.2543 71.0497 23.4964 71.1532C23.9817 71.3614 24.4219 71.4346 24.7265 71.4637C25.0323 71.4905 25.2084 71.4823 25.2084 71.4823C25.4481 71.4707 25.6532 71.6568 25.6636 71.8975C25.6752 72.1394 25.4898 72.3441 25.2501 72.3557C25.2443 72.3557 25.2396 72.3557 25.2338 72.3557H25.2084C25.2084 72.3557 24.9964 72.3581 24.6292 72.3115C24.2643 72.2604 23.7419 72.1522 23.1686 71.8777C22.8836 71.7405 22.5871 71.5637 22.3021 71.3381C22.0288 71.1264 21.7218 70.8136 21.5133 70.5287C21.0569 69.9146 20.6399 69.2586 20.26 68.5597C19.499 67.1722 18.9731 65.6743 18.6893 64.531C18.4009 63.3843 18.3117 62.6086 18.3117 62.6086L18.3106 62.5946C18.299 62.4934 18.3708 62.4016 18.4716 62.3899C18.57 62.3783 18.6592 62.4481 18.6743 62.5446" fill="#42457B"/>
<path fill-rule="evenodd" clip-rule="evenodd" d="M39.266 62.6058C39.266 62.6058 39.1791 63.3815 38.8907 64.5271C38.6092 65.6703 38.0857 67.1683 37.327 68.5557C36.9482 69.2547 36.5324 69.9106 36.0772 70.5247C35.8687 70.8108 35.5629 71.1225 35.2907 71.3342C35.0057 71.561 34.7092 71.7377 34.4242 71.8761C33.852 72.1494 33.3296 72.2599 32.9647 72.3111C32.5987 72.3576 32.3856 72.3564 32.3856 72.3564H32.3613C32.1215 72.3541 31.928 72.1576 31.9292 71.9157C31.9304 71.6738 32.1273 71.4795 32.3682 71.4819C32.3728 71.4819 32.381 71.4819 32.3856 71.4819C32.3856 71.4819 32.5616 71.49 32.8686 71.4644C33.1721 71.4353 33.6122 71.3632 34.0999 71.1562C34.342 71.0516 34.5945 70.9155 34.8389 70.7375C35.0961 70.5468 35.2999 70.3677 35.5362 70.0781C35.9694 69.542 36.4165 68.9058 36.8046 68.2557C37.5934 66.9508 38.1645 65.5191 38.4876 64.4166C38.8154 63.3141 38.9371 62.5477 38.9371 62.5477C38.951 62.4558 39.0367 62.3941 39.127 62.4081C39.2162 62.4221 39.2776 62.5035 39.2672 62.5919L39.266 62.6058Z" fill="#42457B"/>
<path fill-rule="evenodd" clip-rule="evenodd" d="M48.6864 59.3365L53.4482 52.8423C53.4482 52.8423 57.8441 61.6846 47.6184 65.8051" fill="#D2D4DF"/>
<path fill-rule="evenodd" clip-rule="evenodd" d="M48.4006 59.1253L53.0999 52.5857C53.2377 52.3927 53.5053 52.3485 53.6976 52.4869C53.7578 52.5299 53.8041 52.588 53.8342 52.6497V52.6497C54.1377 53.3207 54.3543 53.9685 54.5107 54.657C54.6798 55.3386 54.7621 56.0375 54.8084 56.74L54.7991 57.7983L54.6671 58.8532C54.5906 59.1986 54.4922 59.5417 54.4041 59.8859C54.3068 60.2267 54.1412 60.5453 54.0115 60.8768C53.8933 61.2152 53.6732 61.5002 53.496 61.8072C53.3188 62.1166 53.1219 62.4108 52.8763 62.6667C52.6423 62.9307 52.4269 63.2156 52.1744 63.4587L51.3763 64.1448C50.8527 64.6158 50.2214 64.9217 49.6481 65.316C49.033 65.63 48.4017 65.9103 47.7785 66.208C47.5642 66.3103 47.3071 66.2185 47.204 66.0033C47.1021 65.787 47.1936 65.5288 47.409 65.4265L47.4565 65.402C48.0461 65.1183 48.6461 64.8531 49.2276 64.5577C49.7593 64.1879 50.3593 63.9018 50.8365 63.4668L51.5709 62.8376C51.8025 62.6155 51.9925 62.3561 52.2068 62.1189C52.4315 61.8874 52.6076 61.6223 52.7651 61.3432C52.9226 61.0675 53.1265 60.814 53.2273 60.5093C53.342 60.2127 53.4949 59.9301 53.5806 59.6231L53.8169 58.695L53.9362 57.7425L53.9454 56.7772C53.9014 56.1329 53.8273 55.4886 53.6709 54.8582C53.5319 54.2314 53.313 53.594 53.0616 53.037V53.037L53.7949 53.0998L48.9716 59.5475C48.8546 59.7045 48.6322 59.737 48.4747 59.6184C48.3206 59.5021 48.2882 59.2823 48.4006 59.1253" fill="#42457B"/>
<path fill-rule="evenodd" clip-rule="evenodd" d="M48.3209 40.3199C48.3209 40.3199 48.0487 40.6025 47.539 41.1328C47.1266 41.612 46.3784 42.4784 45.7424 43.5763C45.4251 44.1357 45.1621 44.78 45.1251 45.5011C45.0799 46.2198 45.2629 47.0235 45.622 47.862C45.973 48.7203 46.4896 49.5297 47.0073 50.5241C47.5193 51.4778 47.9768 52.5989 48.3301 53.741C49.0506 56.0542 49.3807 58.7024 49.1271 61.4738C48.9776 62.8555 48.6869 64.2604 48.2282 65.6478C47.7533 67.0306 47.0838 68.3762 46.2544 69.6462L45.5977 70.5813C45.3729 70.886 45.0289 71.2291 44.7081 71.464C44.0362 71.9688 43.23 72.2816 42.3984 72.3851C41.5227 72.4689 40.8451 72.4084 40.0562 72.4258C39.2918 72.4258 38.5238 72.4247 37.7535 72.4247C34.67 72.4223 31.5368 72.4189 28.4047 72.4165C25.2726 72.4142 22.1393 72.4107 19.0559 72.4084C18.2856 72.4084 17.5176 72.4072 16.7531 72.4061C15.9805 72.3874 15.26 72.4468 14.4145 72.3619C13.5874 72.2572 12.7859 71.9455 12.1175 71.4419C11.7804 71.1849 11.492 70.9093 11.2244 70.5476L10.5874 69.6393C9.75801 68.3658 9.08734 67.0097 8.61822 65.635C8.16184 64.2499 7.87458 62.8485 7.72747 61.4692C7.47959 58.7047 7.81319 56.0635 8.53482 53.7584C8.89622 52.6059 9.33407 51.5289 9.85763 50.5578C10.3708 49.5728 10.9048 48.7401 11.2511 47.8899C11.6148 47.0467 11.8036 46.2315 11.7584 45.4964C11.7214 44.7591 11.4538 44.1032 11.1353 43.5379C10.4912 42.4249 9.74875 41.5631 9.32943 41.0735C8.81977 40.542 8.54872 40.2594 8.54872 40.2594L8.53482 40.2443C8.36108 40.064 8.36687 39.7768 8.54641 39.6023C8.72711 39.4279 9.01321 39.4325 9.1858 39.614C9.1858 39.614 9.45801 39.8966 9.96883 40.4269C10.5063 41.0468 11.1897 41.8295 11.9333 43.0925C12.2866 43.7182 12.6225 44.5114 12.6735 45.4394C12.7326 46.3652 12.4905 47.3386 12.099 48.2516C11.7191 49.1797 11.1526 50.0705 10.6766 50.9916C10.182 51.9127 9.76728 52.9385 9.42557 54.0352C8.74101 56.2321 8.42942 58.7512 8.66803 61.3784C8.8105 62.6868 9.08619 64.0161 9.5194 65.3257C9.96999 66.6364 10.5966 67.8924 11.3716 69.0845L12.0098 69.9917C12.1835 70.2266 12.4361 70.4755 12.6944 70.6674C13.2202 71.064 13.8654 71.3152 14.5361 71.3989C15.1952 71.4675 16.0002 71.4175 16.7531 71.4315C17.5176 71.4315 18.2856 71.4303 19.0559 71.4303C22.1393 71.4268 25.2726 71.4245 28.4047 71.4222C31.5368 71.4198 34.67 71.4163 37.7535 71.414C38.5238 71.4129 39.2918 71.4129 40.0562 71.4117C40.7941 71.3966 41.6408 71.4443 42.2698 71.3756C42.9381 71.2907 43.5775 71.0395 44.0988 70.6453C44.3745 70.4313 44.5702 70.2498 44.788 69.9579L45.4042 69.0775C46.1815 67.882 46.8093 66.6166 47.2541 65.3129C47.6838 64.0057 47.956 62.6798 48.0962 61.3738C48.3301 58.7524 48.0139 56.2414 47.3282 54.0527C46.9784 52.9455 46.5834 51.9639 46.0784 51.0254C45.6058 50.1147 45.0231 49.1994 44.6467 48.2795C44.2517 47.3619 44.0038 46.3757 44.0629 45.4348C44.1127 44.4916 44.4532 43.6856 44.8088 43.0553C45.1737 42.4214 45.5363 41.9004 45.8791 41.4655C46.2359 41.0049 46.4548 40.7223 46.7826 40.3676C47.2923 39.8361 47.5633 39.5535 47.5633 39.5535C47.7695 39.3383 48.1101 39.3325 48.3243 39.5384C48.5375 39.7454 48.5444 40.0873 48.3382 40.3025H48.3371L48.3209 40.3199Z" fill="#42457B"/>
<path fill-rule="evenodd" clip-rule="evenodd" d="M8.93293 39.7703L8.96768 39.7935L9.0256 39.8319C9.10668 39.8866 9.12869 39.9959 9.07425 40.0773C9.02096 40.1587 8.91092 40.1808 8.82984 40.1261L8.79509 40.1029L8.73718 40.0645C8.65725 40.0098 8.63524 39.9005 8.68853 39.8191C8.74297 39.7377 8.85185 39.7156 8.93293 39.7703" fill="#42457B"/>
<path fill-rule="evenodd" clip-rule="evenodd" d="M17.8111 23.0715C17.803 23.0773 17.9606 22.9598 18.1876 22.8249C18.4239 22.6842 18.7668 22.4993 19.1942 22.3213C19.6216 22.1434 20.1359 21.9736 20.7035 21.8608C20.9861 21.8026 21.2826 21.7596 21.5861 21.7398C21.8965 21.7177 22.1757 21.7049 22.5255 21.7375C22.778 21.7526 23.1881 21.834 23.473 21.9596C23.7742 22.0748 24.051 22.2364 24.2873 22.4213C24.768 22.7842 25.1144 23.2145 25.368 23.5983C25.6217 23.9833 25.7862 24.3263 25.8916 24.5717C25.997 24.816 26.0468 24.9718 26.0468 24.9718C26.0955 25.1277 26.0097 25.2951 25.8534 25.3451C25.7039 25.3928 25.5429 25.3114 25.4873 25.166C25.4873 25.166 25.4422 25.0462 25.3344 24.8322C25.2256 24.6183 25.0576 24.3159 24.8132 23.9891C24.57 23.6646 24.2468 23.3145 23.8437 23.0482C23.6456 22.911 23.4244 22.8005 23.1915 22.7284C22.9471 22.6493 22.7838 22.6144 22.4606 22.6051C22.2348 22.5958 21.9348 22.6225 21.6823 22.6598C21.4193 22.6935 21.1645 22.747 20.9212 22.8133C20.4336 22.9424 19.9934 23.1203 19.632 23.2982C19.2706 23.4762 18.9857 23.6553 18.7957 23.7855C18.5976 23.9228 18.5281 23.9856 18.52 23.9914C18.2803 24.2042 17.9131 24.181 17.7011 23.9391C17.4891 23.6983 17.5123 23.3296 17.7532 23.1168C17.7648 23.1075 17.7764 23.097 17.7891 23.0877L17.8111 23.0715Z" fill="#42457B"/>
<path fill-rule="evenodd" clip-rule="evenodd" d="M30.5679 24.8342C30.5679 24.8342 30.7521 24.2737 31.2536 23.5561C31.5061 23.2002 31.8467 22.8036 32.3054 22.4687C32.5324 22.3012 32.7895 22.1477 33.0733 22.0384C33.3513 21.9197 33.6583 21.8383 33.9664 21.8081C34.293 21.7662 34.5606 21.7709 34.8537 21.7825C35.1606 21.7976 35.4456 21.8337 35.7213 21.886C36.2749 21.9918 36.7776 22.1686 37.19 22.3605C38.0205 22.7478 38.4815 23.1804 38.5093 23.2083C38.7317 23.4398 38.7259 23.8073 38.4966 24.0306C38.2673 24.255 37.9001 24.2492 37.6777 24.019C37.7101 24.0515 37.3777 23.6631 36.7174 23.2746C36.3896 23.0816 35.9807 22.8908 35.5162 22.7559C35.2857 22.6873 35.0367 22.6326 34.7969 22.5966C34.5456 22.5617 34.2525 22.5303 34.0255 22.5454C33.0247 22.5547 32.1316 23.2339 31.6335 23.8503C31.1181 24.4714 30.905 24.9726 30.905 24.9726C30.8656 25.0645 30.7578 25.1075 30.6663 25.068C30.5783 25.0308 30.5355 24.9331 30.5644 24.8435L30.5679 24.8342Z" fill="#42457B"/>
<path fill-rule="evenodd" clip-rule="evenodd" d="M26.6973 34.1016L24.7663 31.7325C24.1316 30.9545 24.6829 29.7856 25.6849 29.7856H29.5467C30.5487 29.7856 31.1 30.9545 30.4653 31.7325L28.5344 34.1016C28.0595 34.6842 27.1722 34.6842 26.6973 34.1016" fill="#42457B"/>
<path fill-rule="evenodd" clip-rule="evenodd" d="M19.9914 34.2514C20.1095 34.4793 20.3481 34.762 20.5949 34.9748C20.8474 35.1969 21.137 35.3842 21.4474 35.54C22.0775 35.8377 22.7887 36.0006 23.5208 36.0366C23.6714 36.0389 23.9065 36.0436 24.0721 36.0308C24.2436 36.0145 24.415 36.0052 24.5957 35.9668C24.9525 35.9087 25.3034 35.8005 25.6417 35.6598C26.3181 35.3818 26.9622 34.9515 27.473 34.4282L27.4764 34.4247L27.6386 34.2526L27.7741 34.4526C27.9641 34.734 28.2444 35.0015 28.5375 35.2109C28.834 35.4249 29.1595 35.5935 29.4977 35.7261C30.1846 35.9738 30.919 36.068 31.6522 36.0366C31.8016 36.0215 32.0379 36.011 32.1989 35.9808C32.3669 35.9482 32.5314 35.9226 32.7051 35.868C33.0468 35.7784 33.3769 35.6424 33.6885 35.476C34.0024 35.3121 34.299 35.1155 34.5723 34.891C34.709 34.7782 34.8411 34.6608 34.965 34.5375C35.0855 34.4189 35.2164 34.2747 35.2951 34.17L35.3032 34.1607C35.4967 33.9048 35.8604 33.8548 36.1152 34.049C36.3712 34.2433 36.4199 34.6096 36.2264 34.8655C36.216 34.8794 36.2032 34.8934 36.1917 34.9073C36.0191 35.0957 35.8731 35.2237 35.7063 35.3656C35.543 35.5016 35.3739 35.6272 35.2013 35.7459C34.8538 35.9843 34.4831 36.1855 34.0963 36.3483C33.7094 36.5111 33.3063 36.6379 32.8939 36.71C32.6924 36.753 32.4723 36.7716 32.2568 36.7902C32.0356 36.8065 31.8839 36.7984 31.6487 36.7984C30.8367 36.7623 30.0213 36.5867 29.2788 36.2413C28.9105 36.0599 28.5618 35.8401 28.2525 35.5726C27.9409 35.3004 27.6699 35.0062 27.4579 34.6247L27.7544 34.6526L27.751 34.6584C27.232 35.2888 26.6019 35.7912 25.8791 36.168C25.52 36.3553 25.1378 36.5111 24.7393 36.6123C24.5447 36.6716 24.3328 36.7053 24.1219 36.7414C23.9042 36.7728 23.7513 36.7821 23.5173 36.7984C22.7065 36.8286 21.869 36.7216 21.0698 36.4251C20.6748 36.268 20.2902 36.0668 19.9369 35.8075C19.5813 35.5388 19.2686 35.2609 18.9836 34.8259C18.8076 34.5573 18.8829 34.1956 19.1504 34.0188C19.418 33.842 19.7782 33.9164 19.9543 34.1851C19.9647 34.2025 19.9752 34.22 19.9844 34.2374L19.9914 34.2514Z" fill="#42457B"/>
<path fill-rule="evenodd" clip-rule="evenodd" d="M33.132 30.0125L41.3249 27.4016C41.6028 27.3132 41.8982 27.4679 41.9863 27.7458C42.0743 28.0238 41.9214 28.3215 41.6434 28.4088C41.6353 28.4122 41.626 28.4146 41.6179 28.4169L33.3 30.5952C33.1378 30.6371 32.9733 30.5394 32.9317 30.3777C32.8911 30.2219 32.9803 30.0614 33.132 30.0125" fill="#42457B"/>
<path fill-rule="evenodd" clip-rule="evenodd" d="M33.1635 32.6187L40.1424 30.3508C40.3648 30.2787 40.6023 30.4008 40.6741 30.6229C40.7459 30.8462 40.6243 31.0858 40.403 31.1579C40.3938 31.1603 40.3845 31.1626 40.3764 31.1649L33.2678 32.9815C33.167 33.0083 33.0651 32.9466 33.0384 32.8455C33.0141 32.7478 33.0697 32.6489 33.1635 32.6187" fill="#42457B"/>
<path fill-rule="evenodd" clip-rule="evenodd" d="M22.043 30.5949L13.725 28.4178C13.4436 28.3433 13.2756 28.0549 13.3486 27.7723C13.4216 27.4897 13.7088 27.321 13.9903 27.3943C13.9996 27.3966 14.0088 27.4001 14.0169 27.4025L22.2109 30.0122C22.3696 30.0634 22.4576 30.2344 22.4067 30.3937C22.358 30.5472 22.197 30.6344 22.043 30.5949" fill="#42457B"/>
<path fill-rule="evenodd" clip-rule="evenodd" d="M22.0745 32.982L14.9659 31.1643C14.74 31.1073 14.6033 30.8758 14.6612 30.6491C14.718 30.4223 14.9485 30.285 15.1744 30.3432C15.1825 30.3455 15.1918 30.3478 15.1999 30.3502L22.1788 32.618C22.2784 32.6506 22.3328 32.7576 22.3004 32.8564C22.2691 32.9518 22.1695 33.0065 22.0745 32.982" fill="#42457B"/>
</svg>
