<svg width="122" height="122" viewBox="0 0 122 122" fill="none" xmlns="http://www.w3.org/2000/svg">
<path fill-rule="evenodd" clip-rule="evenodd" d="M80.6692 10.7456C80.6692 10.7456 82.5616 10.586 85.401 10.4628C86.8207 10.4166 88.4767 10.3312 90.2503 10.2976C92.0252 10.2528 93.9177 10.243 95.8101 10.229C97.7026 10.236 99.595 10.2388 101.37 10.278C103.143 10.3032 104.8 10.3844 106.219 10.425C109.059 10.5384 110.951 10.6938 110.951 10.6938C111.078 10.7036 111.174 10.8184 111.164 10.9472C111.154 11.0648 111.063 11.1544 110.951 11.1642C110.951 11.1642 109.059 11.3182 106.219 11.4316C104.8 11.4722 103.143 11.5534 101.37 11.58C99.595 11.6178 97.7026 11.622 95.8101 11.6276C93.9177 11.615 92.0252 11.6038 90.2503 11.559C88.4767 11.5254 86.8207 11.44 85.401 11.3952C82.5616 11.272 80.6692 11.111 80.6692 11.111C80.5697 11.1026 80.495 11.0144 80.5033 10.9136C80.5116 10.8226 80.5821 10.7526 80.6692 10.7456Z" fill="#42457B"/>
<path opacity="0.15" d="M22.4343 101.21C50.8646 130.977 114.816 110.912 112.714 66.9165C113.803 24.5546 55.3758 3.94776 25.2018 31.1645C1.52055 47.5638 6.63547 81.3331 22.4343 101.21Z" fill="#009AF1"/>
<path fill-rule="evenodd" clip-rule="evenodd" d="M91.407 66.4871C91.407 83.3477 77.7422 97.0157 60.8855 97.0157C44.0289 97.0157 30.364 83.3477 30.364 66.4871C30.364 49.6265 44.0289 35.9585 60.8855 35.9585C77.7422 35.9585 91.407 49.6265 91.407 66.4871" fill="#33B6FF"/>
<path fill-rule="evenodd" clip-rule="evenodd" d="M91.3045 69.007C91.3045 69.007 95.6551 59.625 97.0332 54.1393C97.5107 52.2358 95.6914 50.6158 93.7577 51.5529C91.8225 52.49 90.3202 53.3908 88.762 54.5806" fill="#26AAF4"/>
<path fill-rule="evenodd" clip-rule="evenodd" d="M30.3645 66.856C30.3645 66.856 26.4006 74.3094 25.2194 79.8411C24.8103 81.76 26.8656 83.2501 28.5857 82.3074C30.4748 81.274 31.2385 80.7502 33.136 79.2448" fill="#33B6FF"/>
<path fill-rule="evenodd" clip-rule="evenodd" d="M60.8858 35.9587C59.2215 35.9587 57.5907 36.097 55.999 36.3526C70.5309 38.6932 81.6337 51.2915 81.6337 66.4874C81.6337 81.6832 70.5309 94.2815 55.999 96.6208C57.5907 96.8777 59.2215 97.016 60.8858 97.016C77.7425 97.016 91.4073 83.3479 91.4073 66.4874C91.4073 49.6268 77.7425 35.9587 60.8858 35.9587Z" fill="#26AAF4"/>
<path fill-rule="evenodd" clip-rule="evenodd" d="M90.721 66.4872C90.721 66.4872 90.6875 65.7554 90.6233 64.384C90.6233 63.6941 90.5046 62.8562 90.3468 61.8716C90.2658 61.3814 90.2142 60.8466 90.0941 60.2879C89.9545 59.7349 89.8051 59.147 89.6473 58.5255C88.959 56.0676 87.8839 53.0915 85.8929 50.1057C83.9395 47.1185 81.1862 44.0516 77.5239 41.5783C73.8727 39.1302 69.2903 37.2993 64.3072 36.6834C63.0604 36.5689 61.6921 36.4767 60.4452 36.4879C59.1495 36.5717 57.8273 36.5605 56.5204 36.8245C53.8774 37.1443 51.2706 37.9962 48.7351 39.0687C46.1981 40.1678 43.8399 41.7292 41.6311 43.507C39.4585 45.3448 37.5611 47.529 35.9247 49.9157C34.3344 52.3416 33.1225 55.0174 32.2345 57.8049C31.4037 60.6385 31.0379 63.4791 30.9709 66.518C31.0463 69.3935 31.4275 72.3667 32.2694 75.1584C33.1672 77.9404 34.3889 80.605 35.9847 83.0182C37.6267 85.3937 39.5298 87.5612 41.6967 89.3879C43.9041 91.1531 46.2568 92.7019 48.7867 93.7912C51.3055 94.8512 53.929 95.6961 56.5232 96.0034C57.7896 96.2589 59.1579 96.2505 60.4704 96.3315C61.713 96.3357 63.0269 96.2561 64.2667 96.1458C69.2736 95.5439 73.8099 93.7395 77.4666 91.3095C81.1233 88.8558 83.8809 85.8085 85.8412 82.8339C87.8392 79.862 88.9227 76.8943 89.6194 74.442C89.7785 73.8219 89.9293 73.234 90.0718 72.6809C90.1932 72.1265 90.2449 71.6014 90.3273 71.1168C90.4878 70.149 90.6107 69.3194 90.6149 68.603C90.6847 67.2009 90.7224 66.4523 90.7224 66.4523L90.721 66.4872ZM92.0921 66.5221C92.0921 66.5221 92.0544 67.2707 91.9818 68.6728C91.979 69.3669 91.8547 70.2509 91.683 71.2942C91.5964 71.8123 91.5364 72.3793 91.4079 72.963C91.2599 73.5412 91.1008 74.1557 90.9346 74.8051C90.2044 77.3706 89.0637 80.4723 86.9735 83.5782C84.9225 86.6856 82.0379 89.8655 78.215 92.4268C74.3921 94.9629 69.6464 96.8469 64.4161 97.4669C63.0995 97.5829 61.7968 97.6666 60.4033 97.6555C59.0811 97.5703 57.7631 97.5815 56.3696 97.3105C53.587 96.9712 50.902 96.0927 48.2604 94.9769C45.6243 93.8331 43.1711 92.2145 40.8771 90.3655C38.6208 88.4578 36.6424 86.194 34.939 83.7137C33.2802 81.1971 32.0139 78.4166 31.0868 75.5173C30.2169 72.579 29.8232 69.5722 29.7576 66.4565C29.8316 63.5042 30.2407 60.3661 31.1217 57.4683C32.0585 54.576 33.3347 51.8053 34.999 49.2999C36.708 46.8322 38.692 44.5865 40.9427 42.6886C43.2353 40.8507 45.6829 39.2447 48.312 38.1121C53.5339 35.798 59.2305 35.1025 64.377 35.6514C69.631 36.2589 74.3293 38.1163 78.1564 40.6343C81.975 43.1746 84.8624 46.3378 86.9205 49.4311C89.0176 52.5231 90.1681 55.6165 90.9067 58.1777C91.0756 58.8257 91.2348 59.4388 91.3856 60.0156C91.5155 60.5966 91.5755 61.1552 91.6649 61.6663C91.838 62.6942 91.9664 63.5698 91.9734 64.2891C92.0516 65.7233 92.0935 66.4872 92.0935 66.4872L92.0921 66.5221Z" fill="#42457B"/>
<path fill-rule="evenodd" clip-rule="evenodd" d="M48.2778 49.6941C48.2778 49.6941 48.578 49.1662 49.0806 48.4302C49.5847 47.6886 50.3428 46.7599 51.2071 45.8885C52.0713 45.024 53.078 44.2224 54.0009 43.7881C54.4715 43.5828 54.8764 43.4389 55.1905 43.3942C55.4977 43.3454 55.6736 43.3174 55.6736 43.3174C56.3019 43.2183 56.8925 43.6484 56.9916 44.2783C57.081 44.8453 56.7403 45.3801 56.2125 45.5533L56.0157 45.6176C56.0157 45.6176 55.9096 45.6525 55.7225 45.7139C55.5354 45.7446 55.2645 45.8634 54.9224 45.9555C54.5859 46.0938 54.1699 46.239 53.7356 46.4667C53.3042 46.7013 52.8435 46.975 52.3995 47.2934C51.5031 47.9205 50.6737 48.6802 50.0594 49.2612C49.4409 49.8491 49.0709 50.2625 49.0709 50.2625C48.8907 50.465 48.5808 50.4831 48.3783 50.303C48.2024 50.1466 48.1661 49.891 48.2778 49.6941Z" fill="#42457B"/>
<path fill-rule="evenodd" clip-rule="evenodd" d="M75.7644 51.5813C75.7644 51.5813 75.3888 51.1763 74.7605 50.6023C74.1378 50.0353 73.2916 49.2965 72.3827 48.689C71.9317 48.379 71.4654 48.115 71.0284 47.8902C70.5872 47.6723 70.1711 47.5299 69.8276 47.4C69.4799 47.3134 69.2035 47.2045 69.0122 47.1793C68.8209 47.1263 68.7106 47.0955 68.7106 47.0955L68.5277 47.0453C67.9385 46.8833 67.5923 46.273 67.7542 45.6836C67.9036 45.1445 68.4258 44.8094 68.9647 44.8806C68.9647 44.8806 69.1393 44.9043 69.445 44.9434C69.7578 44.9784 70.1655 45.1068 70.6402 45.2912C71.1024 45.4881 71.5966 45.78 72.0909 46.1138C72.574 46.4587 73.0641 46.8441 73.5136 47.2589C74.417 48.0885 75.2143 48.9851 75.7546 49.7001C76.2907 50.4095 76.6175 50.9249 76.6175 50.9249C76.7766 51.1776 76.7012 51.5114 76.4499 51.6706C76.2265 51.8117 75.9375 51.7684 75.7644 51.5813Z" fill="#42457B"/>
<path fill-rule="evenodd" clip-rule="evenodd" d="M59.4519 66.6847C59.4519 66.6847 60.4474 67.0129 61.8799 67.6385C62.5906 67.9639 63.4283 68.3284 64.301 68.7921C64.7366 69.0281 65.1904 69.2655 65.6427 69.5574C65.8675 69.6956 66.1007 69.859 66.3353 70.028L66.6257 70.2668C66.669 70.3129 66.796 70.3688 66.574 70.2487C66.4344 70.19 66.2347 70.1998 66.1063 70.2529C65.8494 70.3786 65.8955 70.454 65.9066 70.3897C65.9262 70.359 65.9597 70.2752 65.9848 70.1886C66.0379 70.0085 66.0826 69.7906 66.1119 69.5672C66.1705 69.1189 66.2124 68.6468 66.2236 68.1916C66.2431 67.2768 66.2278 66.4054 66.1342 65.6778C66.0407 64.9502 65.9457 64.3496 65.8173 63.96C65.7 63.5648 65.6064 63.3595 65.6064 63.3595C65.5045 63.1346 65.6037 62.8679 65.8298 62.766C66.0141 62.6822 66.225 62.7324 66.352 62.8763L66.3576 62.8833C66.3576 62.8833 66.5559 63.1095 66.7918 63.5494C67.0194 63.9893 67.3043 64.6303 67.49 65.4278C67.6757 66.2238 67.8502 67.1581 67.8851 68.1804C67.8991 68.6929 67.9088 69.225 67.839 69.7864C67.8083 70.0657 67.7608 70.3548 67.6771 70.6704C67.6324 70.831 67.5835 70.993 67.4858 71.1913C67.3908 71.3603 67.2749 71.6606 66.7849 71.8966C66.5433 72.0083 66.1971 72.0139 65.9429 71.9078C65.5939 71.7514 65.6246 71.7192 65.5646 71.6871L65.2616 71.433C65.0787 71.2989 64.8944 71.1634 64.6891 71.0335C64.2884 70.7724 63.8751 70.5084 63.4688 70.2654C62.6464 69.7725 61.8799 69.313 61.2223 68.9192C59.8973 68.1301 59.026 67.5715 59.026 67.5715C58.7971 67.4235 58.73 67.1162 58.878 66.8872C59.0023 66.6931 59.2424 66.6162 59.4519 66.6847Z" fill="#42457B"/>
<path fill-rule="evenodd" clip-rule="evenodd" d="M49.6561 57.0043C49.6505 57.0183 49.744 56.7962 49.9088 56.5057C50.0791 56.2069 50.3374 55.7907 50.7186 55.3396C51.0997 54.8899 51.6094 54.3969 52.2768 54.0185C52.6105 53.8299 52.9819 53.6819 53.3728 53.5744C53.7847 53.4822 54.1435 53.4375 54.6182 53.4501C54.7997 53.4724 54.9645 53.4794 55.16 53.5129C55.3694 53.5646 55.5928 53.6065 55.7813 53.6777C56.1583 53.8188 56.5087 54.0003 56.8103 54.2224C57.4177 54.6581 57.8533 55.1874 58.1716 55.658C58.49 56.1315 58.6952 56.5546 58.8265 56.8563C58.9577 57.1579 59.0191 57.3506 59.0191 57.3506C59.0778 57.5378 58.9745 57.7389 58.786 57.7975C58.6059 57.8548 58.4118 57.7584 58.3448 57.5825C58.3448 57.5825 58.2889 57.4358 58.1549 57.1705C58.0194 56.9079 57.81 56.5351 57.5042 56.1343C57.1999 55.7362 56.795 55.3089 56.2895 54.9933C56.041 54.8299 55.7617 54.7112 55.4741 54.6204C55.3317 54.5757 55.1991 54.5673 55.0636 54.531C54.9087 54.5129 54.7132 54.5129 54.5401 54.5017C54.2971 54.517 53.9481 54.5673 53.6758 54.6511C53.3924 54.7503 53.1243 54.8746 52.8827 55.031C52.3982 55.3466 52.0143 55.76 51.7267 56.144C51.4376 56.5309 51.2422 56.8912 51.1179 57.144C50.9908 57.4065 50.9545 57.5196 50.949 57.5322C50.8024 57.8897 50.3947 58.0601 50.0386 57.9149C49.6812 57.7696 49.5108 57.3618 49.6561 57.0043Z" fill="#42457B"/>
<path fill-rule="evenodd" clip-rule="evenodd" d="M64.4687 57.1855C64.4687 57.1855 64.7019 56.4677 65.3623 55.5585C65.6946 55.1074 66.147 54.6088 66.7585 54.2066C67.0643 54.0069 67.4106 53.8421 67.782 53.7137C68.1701 53.6019 68.5234 53.5321 68.9827 53.5195C69.1656 53.5279 69.3318 53.5223 69.5273 53.5433C69.7353 53.5824 69.9601 53.6103 70.1528 53.6704C70.5381 53.7877 70.9053 53.9497 71.2251 54.1536C71.8715 54.5586 72.3546 55.0711 72.7149 55.5334C73.0737 55.9998 73.3152 56.423 73.4744 56.7274C73.6308 57.0305 73.7062 57.2246 73.7104 57.2385C73.8374 57.603 73.6433 58.0011 73.2789 58.1268C72.9145 58.2524 72.5166 58.0597 72.3909 57.6952C72.4007 57.7343 72.2262 57.0807 71.6998 56.2582C71.4373 55.8518 71.0799 55.4105 70.6135 55.0599C70.3832 54.8826 70.1207 54.7415 69.84 54.6284C69.7032 54.5711 69.5733 54.5502 69.4365 54.5013C69.2801 54.4692 69.0875 54.4566 68.9143 54.4343C68.6574 54.4231 68.3 54.4468 68.0054 54.5111C67.7024 54.5907 67.4092 54.6968 67.1397 54.8435C66.5994 55.1353 66.1582 55.5417 65.8217 55.9258C65.1473 56.7065 64.875 57.3517 64.875 57.3517C64.8276 57.462 64.6991 57.5151 64.5874 57.4676C64.4827 57.4229 64.4296 57.3056 64.4645 57.1994L64.4687 57.1855Z" fill="#42457B"/>
<path fill-rule="evenodd" clip-rule="evenodd" d="M90.9165 68.828C90.9165 68.828 91.5937 67.2806 92.5361 64.9274C93.473 62.5756 94.7575 59.4417 95.753 56.2422C95.9932 55.4602 96.2417 54.5999 96.3981 53.8905C96.5251 53.2606 96.2975 52.6741 95.8689 52.3291C95.4417 51.9814 94.8776 51.9227 94.3749 52.0861C94.1557 52.1643 93.822 52.3249 93.519 52.4771C93.2217 52.6294 92.934 52.7774 92.6576 52.9199C91.5657 53.5092 90.6763 54.0245 90.0662 54.4156C89.4546 54.808 89.1056 55.0314 89.1056 55.0314L88.4172 54.1293C88.4172 54.1293 88.7523 53.8541 89.3373 53.3723C89.9391 52.9101 90.8299 52.2732 91.9762 51.6574C92.2638 51.5051 92.5626 51.3473 92.8726 51.1839C93.1812 51.0275 93.4786 50.8599 93.9491 50.7049C94.8231 50.4284 95.968 50.5639 96.7653 51.2649C97.5793 51.9297 97.9479 53.1237 97.7147 54.1251C97.4941 55.0398 97.2442 55.8023 96.9719 56.6347C95.8689 59.8817 94.5467 63.0127 93.4981 65.3394C92.444 67.6605 91.6928 69.1869 91.6928 69.1869L90.9165 68.828Z" fill="#42457B"/>
<path fill-rule="evenodd" clip-rule="evenodd" d="M58.3787 36.1159C58.3787 36.1159 57.8398 35.2948 56.8596 34.151C55.8837 33.0184 54.4804 31.5855 52.8943 30.4152C52.4866 30.1415 52.1013 29.8329 51.6852 29.5926C51.2705 29.3524 50.8796 29.0829 50.4649 28.8972C50.0572 28.6989 49.6746 28.4824 49.2837 28.3511C48.8955 28.2143 48.5465 28.0313 48.1974 27.9559C47.5133 27.7492 46.9408 27.6151 46.5303 27.5746C46.1254 27.5104 45.8937 27.4727 45.8937 27.4727L45.7834 27.4545C45.2514 27.3693 44.8912 26.8694 44.9763 26.3387C45.0615 25.808 45.56 25.4463 46.0919 25.5315C46.1073 25.5343 46.1268 25.5371 46.1436 25.5413C46.1436 25.5413 46.4117 25.5999 46.8822 25.7005C47.3597 25.7801 48.0159 25.9728 48.7824 26.2549C49.1776 26.368 49.5601 26.5901 49.986 26.773C50.4174 26.9504 50.8279 27.2101 51.2649 27.4573C51.7103 27.6919 52.1208 28.0062 52.5564 28.2966C52.9921 28.5857 53.3872 28.9377 53.8075 29.2589C55.4299 30.6107 56.8038 32.193 57.7518 33.4318C58.6929 34.6663 59.2248 35.5852 59.2248 35.5852C59.3658 35.8227 59.289 36.1299 59.0517 36.271C58.8241 36.4064 58.5267 36.3324 58.3787 36.1159Z" fill="#42457B"/>
<path fill-rule="evenodd" clip-rule="evenodd" d="M51.9225 37.5826C51.9225 37.5826 51.6335 37.1594 51.1099 36.5701C50.5892 35.9877 49.8436 35.2517 49.0086 34.6596C48.5884 34.3691 48.1597 34.0982 47.7367 33.8971C47.5244 33.7993 47.3262 33.6918 47.1237 33.6275C46.9227 33.5619 46.7425 33.4697 46.5638 33.4362C45.8629 33.2267 45.384 33.2365 45.3868 33.2141C44.9889 33.1625 44.7082 32.798 44.7585 32.4C44.8102 32.0005 45.1746 31.7198 45.5725 31.7715C45.5725 31.7715 45.7191 31.805 45.9732 31.8637C46.2315 31.9112 46.5848 32.0201 46.9967 32.1779C47.2089 32.2435 47.4127 32.365 47.6403 32.467C47.8707 32.5661 48.0899 32.7086 48.3217 32.8441C48.7838 33.1206 49.2348 33.4669 49.6648 33.8286C51.3822 35.2978 52.4838 37.2306 52.4838 37.2306C52.5746 37.3898 52.5201 37.5923 52.361 37.6831C52.2102 37.7697 52.0189 37.7236 51.9225 37.5826Z" fill="#42457B"/>
<path fill-rule="evenodd" clip-rule="evenodd" d="M53.5033 96.0299L52.4142 106.144C52.396 106.313 52.2439 106.434 52.0749 106.416C51.9102 106.399 51.7901 106.254 51.8013 106.091L52.4868 95.9405C52.5064 95.6598 52.7493 95.4475 53.0299 95.4657C53.312 95.4852 53.5242 95.7282 53.5047 96.0103C53.5047 96.0159 53.5033 96.0243 53.5033 96.0299Z" fill="#42457B"/>
<path fill-rule="evenodd" clip-rule="evenodd" d="M69.3677 95.9456L69.9877 106.092C69.9974 106.263 69.8676 106.411 69.6958 106.421C69.5283 106.432 69.3845 106.307 69.3677 106.142L68.3722 96.0252C68.3443 95.7501 68.5454 95.5057 68.8204 95.4792C69.0941 95.4512 69.3398 95.6523 69.3663 95.9274C69.3663 95.933 69.3677 95.94 69.3677 95.9456Z" fill="#42457B"/>
<path fill-rule="evenodd" clip-rule="evenodd" d="M110.698 3.44385H79.0651C75.5553 3.44385 72.7104 6.32505 72.7104 9.87965V25.7948C72.7104 29.3494 75.5553 32.2306 79.0651 32.2306C80.5788 32.2306 81.8063 33.4738 81.8063 35.0068V35.7194L84.6484 32.848C85.0397 32.4532 85.5691 32.2306 86.122 32.2306H110.698C114.207 32.2306 117.052 29.3494 117.052 25.7948V9.87965C117.052 6.32505 114.207 3.44385 110.698 3.44385Z" fill="white"/>
<path fill-rule="evenodd" clip-rule="evenodd" d="M110.697 3C112.161 3.0168 113.632 3.4928 114.789 4.4084C115.963 5.3002 116.825 6.5938 117.214 8.0232C117.318 8.376 117.38 8.7512 117.427 9.132C117.453 9.4722 117.474 9.8558 117.468 10.2016L117.463 12.2862L117.453 16.4582L117.439 24.8008C117.431 25.4798 117.472 26.2078 117.334 26.9456C117.208 27.6708 116.973 28.3778 116.629 29.0288C115.924 30.314 114.827 31.392 113.493 31.9884C112.826 32.2908 112.134 32.4882 111.382 32.5708C110.697 32.6212 109.973 32.6058 109.303 32.6142L105.185 32.638L96.9472 32.6884L88.7098 32.7458L86.6501 32.7598L86.1344 32.764C86.0004 32.7654 85.8773 32.7822 85.7501 32.8102C85.5041 32.8648 85.2553 33.0006 85.0811 33.156C84.1273 34.1192 83.0974 35.0698 82.1546 36.0736L81.281 37.0046L81.3128 35.7194V35.69L81.3294 35.06C81.3321 34.8668 81.3156 34.7072 81.2838 34.5322C81.2119 34.192 81.064 33.87 80.8539 33.5956C80.4322 33.0356 79.7355 32.7416 79.0651 32.757C77.5556 32.7766 75.9963 32.3146 74.8047 31.3304C73.6117 30.3644 72.7325 28.9994 72.3925 27.4958C72.2059 26.7314 72.1782 25.9348 72.2031 25.2516L72.228 23.1208L72.2736 18.8606L72.3593 10.3402C72.3054 8.8954 72.6703 7.3386 73.4984 6.0996C74.3291 4.8634 75.5567 3.8946 76.9681 3.4284C77.6675 3.1946 78.4375 3.0868 79.148 3.0826L81.2506 3.0784L85.4571 3.0728L93.8715 3.0532L110.697 3ZM110.697 3.8876L93.8715 3.8344L85.4571 3.8148L81.2506 3.8092C79.8475 3.8372 78.4112 3.6734 77.1892 4.1102C75.9271 4.5218 74.824 5.3856 74.0748 6.493C73.3394 7.6214 72.98 8.9458 73.0615 10.3402L73.1472 18.8606L73.1929 23.1208L73.2177 25.2516C73.2081 25.9852 73.2606 26.6208 73.4237 27.234C73.7375 28.4968 74.5075 29.6224 75.518 30.4036C76.5202 31.2058 77.7781 31.651 79.0651 31.7056V32.757V31.7056C80.0562 31.721 81.0073 32.2264 81.5962 33.0076C81.8948 33.3954 82.1076 33.8518 82.2099 34.3348C82.3122 34.8458 82.2763 35.2868 82.2984 35.69L82.2998 35.7194L81.4579 35.3652C82.4615 34.4062 83.3697 33.3884 84.3678 32.3944C84.7023 32.085 85.0783 31.8848 85.4999 31.7742C85.7059 31.721 85.9271 31.6958 86.1344 31.6986L86.6501 31.7014L88.7098 31.7168L96.9472 31.7742L105.185 31.8246L109.303 31.8484C110.005 31.8456 110.655 31.8778 111.342 31.8204C111.954 31.7476 112.598 31.5698 113.182 31.2996C114.366 30.7676 115.335 29.803 115.959 28.662C116.261 28.0852 116.467 27.458 116.577 26.8154C116.698 26.1826 116.66 25.5092 116.665 24.8008L116.651 16.4582L116.642 12.2862C116.593 10.9184 116.77 9.433 116.407 8.2528C116.06 7.004 115.301 5.8756 114.271 5.1014C113.256 4.3034 111.975 3.9002 110.697 3.8876Z" fill="#42457B"/>
<path fill-rule="evenodd" clip-rule="evenodd" d="M80.6693 15.2634C80.6693 15.2634 82.2203 15.1192 84.5454 15.0128C85.708 14.9778 87.0654 14.8966 88.5183 14.8826C89.9725 14.8672 91.5221 14.8518 93.0731 14.835C94.6241 14.8602 96.1737 14.8868 97.628 14.9106C99.0808 14.9302 100.438 15.024 101.601 15.066C103.926 15.185 105.477 15.3404 105.477 15.3404C105.582 15.3516 105.659 15.4468 105.65 15.5532C105.64 15.6484 105.565 15.7198 105.477 15.7282C105.477 15.7282 103.926 15.8836 101.601 16.004C100.438 16.046 99.0808 16.1384 97.628 16.158C96.1737 16.1832 94.6241 16.2084 93.0731 16.2336C91.5221 16.2182 89.9725 16.2014 88.5183 16.186C87.0654 16.1734 85.708 16.0908 84.5454 16.0558C82.2203 15.9508 80.6693 15.8066 80.6693 15.8066C80.5214 15.7926 80.4122 15.6596 80.426 15.5098C80.4384 15.3768 80.5421 15.2746 80.6693 15.2634Z" fill="#42457B"/>
<path fill-rule="evenodd" clip-rule="evenodd" d="M80.708 10.2634C80.708 10.2634 82.505 10.1192 85.1988 10.0128C86.5457 9.97776 88.1184 9.89656 89.8016 9.88256C91.4865 9.86716 93.2818 9.85176 95.0788 9.83496C96.8757 9.86016 98.671 9.88676 100.356 9.91056C102.039 9.93016 103.612 10.024 104.959 10.066C107.653 10.185 109.449 10.3404 109.449 10.3404C109.571 10.3516 109.661 10.4468 109.65 10.5532C109.638 10.6484 109.552 10.7198 109.449 10.7282C109.449 10.7282 107.653 10.8836 104.959 11.004C103.612 11.046 102.039 11.1384 100.356 11.158C98.671 11.1832 96.8757 11.2084 95.0788 11.2336C93.2818 11.2182 91.4865 11.2014 89.8016 11.186C88.1184 11.1734 86.5457 11.0908 85.1988 11.0558C82.505 10.9508 80.708 10.8066 80.708 10.8066C80.5367 10.7926 80.4102 10.6596 80.4262 10.5098C80.4406 10.3768 80.5607 10.2746 80.708 10.2634Z" fill="#42457B"/>
<path fill-rule="evenodd" clip-rule="evenodd" d="M80.6693 19.8693C80.6693 19.8693 82.1677 19.7321 84.4141 19.6285C85.5379 19.5935 86.8484 19.5151 88.2529 19.4983C89.656 19.4801 91.1544 19.4605 92.6529 19.4409C94.15 19.4605 95.6485 19.4787 97.0529 19.4969C98.4574 19.5123 99.7679 19.5935 100.89 19.6285C103.138 19.7307 104.635 19.8693 104.635 19.8693C104.783 19.8833 104.892 20.0149 104.88 20.1647C104.867 20.2977 104.762 20.3999 104.635 20.4125C104.635 20.4125 103.138 20.5497 100.89 20.6533C99.7679 20.6883 98.4574 20.7695 97.0529 20.7835C95.6485 20.8017 94.15 20.8213 92.6529 20.8395C91.1544 20.8213 89.656 20.8017 88.2529 20.7835C86.8484 20.7667 85.5379 20.6869 84.4141 20.6519C82.1677 20.5483 80.6693 20.4125 80.6693 20.4125C80.5214 20.3985 80.4122 20.2655 80.426 20.1157C80.437 19.9827 80.5421 19.8805 80.6693 19.8693Z" fill="#42457B"/>
<path fill-rule="evenodd" clip-rule="evenodd" d="M80.6691 24.4753C80.6691 24.4753 82.0985 24.3353 84.2411 24.2303C85.3125 24.1953 86.5635 24.1141 87.903 24.1001C89.2425 24.0833 90.6718 24.0651 92.0998 24.0469C93.5292 24.0693 94.9585 24.0917 96.298 24.1127C97.6375 24.1295 98.8872 24.2177 99.9599 24.2555C102.103 24.3675 103.532 24.5145 103.532 24.5145C103.659 24.5271 103.75 24.6419 103.738 24.7707C103.727 24.8827 103.638 24.9681 103.532 24.9793C103.532 24.9793 102.103 25.1263 99.9599 25.2369C98.8872 25.2761 97.6375 25.3629 96.298 25.3797C94.9585 25.4007 93.5292 25.4231 92.0998 25.4455C90.6718 25.4287 89.2425 25.4105 87.903 25.3937C86.5635 25.3783 85.3125 25.2985 84.2411 25.2635C82.0985 25.1585 80.6691 25.0185 80.6691 25.0185C80.5212 25.0031 80.4134 24.8701 80.4272 24.7203C80.4397 24.5887 80.5433 24.4879 80.6691 24.4753Z" fill="#42457B"/>
<mask id="mask0" mask-type="alpha" maskUnits="userSpaceOnUse" x="24" y="66" width="10" height="18">
<path fill-rule="evenodd" clip-rule="evenodd" d="M24.6387 66.698V83.1763H33.5561V66.698H24.6387V66.698Z" fill="white"/>
</mask>
<g mask="url(#mask0)">
<path fill-rule="evenodd" clip-rule="evenodd" d="M30.6631 67.0136C30.6631 67.0136 29.9594 68.3794 29.0184 70.4896C28.0899 72.5984 26.9017 75.453 26.1072 78.3941C25.9299 79.1189 25.68 79.9136 25.7107 80.4708C25.7693 81.0392 26.1379 81.5517 26.628 81.8087C27.1209 82.0615 27.6836 82.0754 28.1331 81.8604C28.6218 81.6174 29.2208 81.2501 29.6788 80.968C30.6338 80.373 31.3696 79.7935 31.896 79.3773C32.4168 78.9555 32.7156 78.7139 32.7156 78.7139L33.5561 79.7739C33.5561 79.7739 33.2461 80.0099 32.703 80.4233C32.1585 80.8311 31.3556 81.4288 30.3238 82.0321C29.7835 82.338 29.3088 82.6271 28.5981 82.9567C27.8357 83.2932 26.8584 83.2443 26.0779 82.8002C25.2974 82.3617 24.7082 81.5112 24.6412 80.5504C24.6314 80.2781 24.6482 80.0337 24.6831 79.8689C24.725 79.6021 24.778 79.4667 24.8241 79.26C24.9162 78.8759 25.0182 78.4961 25.1354 78.1204C26.0388 75.1094 27.315 72.2688 28.3105 70.1642C29.3157 68.0624 30.0669 66.698 30.0669 66.698L30.6631 67.0136Z" fill="#42457B"/>
</g>
</svg>
