<svg width="122" height="122" viewBox="0 0 122 122" fill="none" xmlns="http://www.w3.org/2000/svg">
<path opacity="0.15" d="M10.7818 65.4123C13.517 74.7889 17.4515 83.9554 23.7127 91.5391C29.5223 98.4943 36.0431 105.338 44.6029 108.843C54.1632 113.502 65.2564 113.906 75.4452 111.241C86.344 108.642 98.3771 104.378 104.159 94.0133C113.859 78.9267 114.538 59.7602 109.583 42.9514C106.874 33.6683 103.438 23.1288 94.6672 17.8713C85.5317 11.1681 73.6435 12.6982 63.2093 14.7521C50.8559 17.9098 38.3828 21.315 27.1009 27.4192C19.4009 31.8408 11.3539 38.1339 9.66254 47.3785C8.19815 53.3255 9.42719 59.5501 10.7818 65.4123Z" fill="#ED6E51"/>
<mask id="mask0" mask-type="alpha" maskUnits="userSpaceOnUse" x="9" y="13" width="104" height="100">
<path d="M10.7818 65.4123C13.517 74.7889 17.4515 83.9554 23.7127 91.5391C29.5223 98.4943 36.0431 105.338 44.6029 108.843C54.1632 113.502 65.2564 113.906 75.4452 111.241C86.344 108.642 98.3771 104.378 104.159 94.0133C113.859 78.9267 114.538 59.7602 109.583 42.9514C106.874 33.6683 103.438 23.1288 94.6672 17.8713C85.5317 11.1681 73.6435 12.6982 63.2093 14.7521C50.8559 17.9098 38.3828 21.315 27.1009 27.4192C19.4009 31.8408 11.3539 38.1339 9.66254 47.3785C8.19815 53.3255 9.42719 59.5501 10.7818 65.4123Z" fill="#ED6E51"/>
</mask>
<g mask="url(#mask0)">
<path fill-rule="evenodd" clip-rule="evenodd" d="M76.9779 102.398L65.8211 95.62C65.2831 95.2881 64.6849 95.1103 64.0535 95.1068L63.3364 95.1033C61.5847 95.0936 60.1387 96.3979 59.9091 98.0932C59.6788 96.3979 58.2307 95.0936 56.479 95.1033L55.7536 95.1068C55.1222 95.1103 54.5047 95.2881 53.9673 95.62L42.7269 102.536C40.8915 103.67 39.7297 105.679 39.7297 107.843V114.155H79.854V107.704C79.854 105.54 78.8132 103.531 76.9779 102.398" fill="#B7DBF9"/>
<path fill-rule="evenodd" clip-rule="evenodd" d="M76.7399 102.794L67.9905 97.3571L65.7955 96.0112C65.429 95.7729 65.1136 95.6243 64.7257 95.5292C64.3557 95.4306 63.9677 95.4458 63.5231 95.441L63.3626 95.4396L63.2167 95.4437C63.1088 95.4472 63.0003 95.4507 62.9159 95.4667C62.7389 95.4868 62.5397 95.5278 62.3585 95.5896C61.9899 95.7077 61.6434 95.8966 61.3426 96.1424C60.7389 96.6327 60.3247 97.3592 60.2258 98.1363C60.2036 98.3114 60.0439 98.435 59.8696 98.4127C59.7251 98.394 59.6158 98.2815 59.5951 98.1433L59.5937 98.1363C59.4996 97.5113 59.2306 96.9085 58.7977 96.4459C58.3703 95.9813 57.8054 95.6417 57.1892 95.5097C56.8725 95.4382 56.5896 95.4229 56.2272 95.4319C55.8683 95.4361 55.5461 95.4229 55.2418 95.4819C54.932 95.5361 54.6311 95.6389 54.3511 95.7827C54.0883 95.9236 53.7681 96.1362 53.4797 96.3098C51.1126 97.7738 48.7378 99.2253 46.3858 100.714L42.8638 102.931C42.3002 103.304 41.8306 103.727 41.4336 104.255C41.0353 104.769 40.7324 105.352 40.5277 105.963C40.3223 106.574 40.2331 107.216 40.2414 107.857L40.2912 109.951L40.4219 114.138V114.154L39.7304 113.461H79.8388H79.8547L79.1631 114.154L79.3588 107.773C79.3657 107.534 79.3623 107.244 79.345 107.026C79.3256 106.785 79.2917 106.536 79.244 106.294C79.1465 105.809 78.9895 105.334 78.7655 104.891C78.5442 104.447 78.2648 104.031 77.9342 103.659C77.7655 103.476 77.5898 103.299 77.3997 103.137C77.206 102.98 77.0048 102.833 76.7946 102.698L77.1625 102.097C77.4011 102.246 77.6306 102.407 77.8519 102.581C78.0684 102.761 78.2793 102.947 78.4771 103.149C78.8692 103.555 79.2067 104.015 79.4805 104.511C79.7516 105.008 79.9667 105.538 80.1133 106.088C80.1852 106.364 80.2412 106.64 80.282 106.927C80.3228 107.238 80.3387 107.479 80.3505 107.773L80.5462 114.154C80.558 114.527 80.2668 114.838 79.8962 114.849L79.8789 114.85H79.8547H79.8388H39.7304H39.7172C39.3424 114.85 39.0388 114.544 39.0388 114.168V114.154L39.0395 114.138L39.1695 109.951L39.2193 107.857C39.238 107.102 39.3756 106.347 39.6418 105.645C39.9081 104.943 40.2843 104.286 40.7622 103.716C41.2276 103.148 41.814 102.635 42.4191 102.254L46.0048 100.089C48.3941 98.6614 50.7606 97.1967 53.1339 95.7431C53.4424 95.5597 53.7003 95.3826 54.0509 95.1944C54.3898 95.0208 54.7542 94.8972 55.1298 94.8333C55.5115 94.7624 55.8884 94.7805 56.2238 94.7763C56.555 94.7673 56.9727 94.7854 57.333 94.8736C58.0778 95.0368 58.7604 95.4479 59.2728 96.0091C59.7915 96.5688 60.1165 97.296 60.2258 98.0495H59.5937C59.7202 97.1161 60.2064 96.239 60.9305 95.6396C61.2908 95.3389 61.7084 95.1062 62.1552 94.959C62.3793 94.8826 62.6026 94.8312 62.8509 94.8013C62.9781 94.7805 63.0839 94.7777 63.1897 94.7736L63.3654 94.7673H63.5265C63.9366 94.7687 64.4159 94.7444 64.882 94.8624C65.3322 94.9583 65.8017 95.1868 66.1544 95.4153L68.3611 96.7425L77.2171 102.001L76.7399 102.794Z" fill="#586978"/>
<path fill-rule="evenodd" clip-rule="evenodd" d="M71.2952 103.73L63.8527 97.5309C63.4952 97.233 63.0858 97.0746 62.666 97.0711L62.184 97.0677C61.0188 97.0593 60.0547 98.2282 59.9019 99.7485C59.7491 98.2282 58.7837 97.0593 57.6191 97.0677L57.1364 97.0711C56.7166 97.0746 56.3052 97.233 55.9476 97.5309L48.4851 103.73C47.2646 104.746 46.5032 106.547 46.5032 108.487V114.068H73.2529V108.487C73.2529 106.547 72.5157 104.746 71.2952 103.73" fill="#E9F6FF"/>
<path fill-rule="evenodd" clip-rule="evenodd" d="M71.7356 103.195C72.1394 103.535 72.4582 103.959 72.6782 104.416C72.9036 104.872 73.0357 105.355 73.1505 105.823C73.2639 106.292 73.3517 106.756 73.4396 107.22C73.481 107.453 73.5122 107.683 73.5295 107.924C73.553 108.174 73.5537 108.377 73.5585 108.622C73.6021 110.437 73.6934 112.253 73.9437 114.067L74.0384 114.758L73.2521 114.762H73.239L46.5024 114.86L45.6628 114.863L45.7133 114.067L45.714 114.054C45.8426 112.96 45.9187 111.866 45.9989 110.772L46.0958 109.131C46.1269 108.595 46.1345 108.013 46.2417 107.447C46.4526 106.327 46.8641 105.228 47.5888 104.338C47.936 103.88 48.3979 103.514 48.8122 103.182L50.0811 102.149C51.7568 100.75 53.4338 99.3529 55.0873 97.9277L55.7103 97.3965C55.9185 97.2103 56.1861 97.02 56.4773 96.9145C56.7587 96.795 57.1211 96.7763 57.3707 96.7756C57.6197 96.7596 57.9821 96.7603 58.2781 96.8617C58.8935 97.0548 59.3769 97.5055 59.7013 98.0153C60.0284 98.5299 60.2165 99.114 60.2932 99.7078H59.509C59.5685 99.0112 59.7773 98.309 60.2026 97.7034C60.4156 97.4027 60.686 97.1277 61.02 96.9207C61.1839 96.8145 61.3693 96.7325 61.5622 96.6721C61.6514 96.6367 61.7752 96.6193 61.8831 96.5985C61.9958 96.5797 62.0511 96.5818 62.1376 96.5728L62.6466 96.5617C62.8409 96.5568 63.0573 96.5804 63.2544 96.6318C63.4536 96.6832 63.6445 96.761 63.8201 96.8582C63.91 96.9089 63.9889 96.9568 64.0781 97.0214L64.2876 97.1818L65.791 98.3681C67.7862 99.9606 69.7654 101.572 71.7356 103.195M70.8532 104.265C68.901 102.62 66.9577 100.965 65.0304 99.2901L63.592 98.0254L63.4288 97.8851C63.3907 97.8539 63.3354 97.815 63.2877 97.7851C63.1888 97.7219 63.0837 97.6726 62.9765 97.6379C62.8665 97.6039 62.7642 97.5844 62.6404 97.5802L62.1937 97.5643C62.1217 97.5684 62.0166 97.565 61.9724 97.5747C61.9246 97.5872 61.888 97.5809 61.8271 97.6025C61.7144 97.6309 61.6017 97.6705 61.4952 97.733C61.2794 97.8504 61.081 98.0254 60.9136 98.2372C60.5761 98.6616 60.3707 99.2165 60.294 99.7881H59.5098C59.4703 99.2957 59.3389 98.8074 59.099 98.3859C58.8604 97.9657 58.5063 97.615 58.0824 97.458C57.8618 97.3767 57.6702 97.3622 57.3756 97.3629C57.0831 97.3531 56.8909 97.3531 56.6585 97.4302C56.4331 97.5038 56.236 97.617 56.034 97.7893L55.3978 98.3039C53.6938 99.6686 52.0127 101.06 50.3308 102.451L49.0812 103.509C48.6552 103.87 48.2534 104.19 47.9561 104.622C47.3482 105.47 46.9886 106.498 46.9008 107.539C46.851 108.058 46.8779 108.574 46.9091 109.131L47.0059 110.772C47.0868 111.866 47.1629 112.96 47.2915 114.055L47.2922 114.068L46.5031 113.275L73.2397 113.373H73.2529L72.5613 114.068C72.811 112.253 72.903 110.438 72.9458 108.623C72.9465 108.414 72.9486 108.164 72.932 107.961C72.9216 107.751 72.8974 107.529 72.8635 107.315C72.8041 106.884 72.663 106.465 72.4583 106.085C72.2557 105.704 71.9811 105.37 71.7045 105.071C71.4231 104.775 71.143 104.507 70.8532 104.265" fill="#586978"/>
<path fill-rule="evenodd" clip-rule="evenodd" d="M66.2888 98.3787C66.2888 101.949 63.3877 104.843 59.8096 104.843C56.2309 104.843 53.3298 101.949 53.3298 98.3787C53.3298 94.8083 56.2309 91.9143 59.8096 91.9143C63.3877 91.9143 66.2888 94.8083 66.2888 98.3787" fill="#E4E0FF"/>
<path fill-rule="evenodd" clip-rule="evenodd" d="M65.8047 99.0735C65.8047 99.0735 65.7937 98.927 65.7729 98.6513C65.7695 98.5131 65.7397 98.3457 65.7031 98.1498C65.6768 97.9519 65.6173 97.7311 65.544 97.4859C65.3905 97.0011 65.1616 96.4164 64.7488 95.8392C64.3442 95.2614 63.784 94.6759 63.0545 94.2162C62.3401 93.7571 61.4044 93.4307 60.4944 93.3321C59.4619 93.2216 58.4557 93.3758 57.4674 93.7953C56.9764 94.0009 56.5173 94.2953 56.0837 94.6322C55.6597 94.9829 55.2842 95.3989 54.9585 95.8566C54.6411 96.3233 54.4032 96.8407 54.2123 97.3789C54.1363 97.654 54.0484 97.9325 54.0139 98.1964C53.9516 98.4283 53.9475 98.8256 53.9219 99.0735C53.924 99.652 53.9869 100.231 54.1411 100.79C54.3078 101.344 54.5381 101.878 54.8451 102.367C55.4689 103.336 56.3603 104.114 57.3692 104.576C57.8706 104.794 58.4093 104.975 58.9169 105.042C59.1583 105.098 59.4591 105.101 59.7336 105.122C59.966 105.126 60.2468 105.114 60.495 105.096C61.5144 104.993 62.4438 104.633 63.19 104.136C63.941 103.641 64.4894 103.003 64.8808 102.396C65.2771 101.785 65.4825 101.179 65.6146 100.681C65.6789 100.428 65.7273 100.204 65.7432 100.015C65.7709 99.8264 65.7937 99.6639 65.7916 99.5062C65.8006 99.2083 65.8054 99.0485 65.8054 99.0485L65.8047 99.0735ZM66.7689 99.0971C66.7689 99.0971 66.7578 99.2554 66.7371 99.5534C66.7336 99.695 66.7025 99.8964 66.6596 100.135C66.6278 100.377 66.5614 100.637 66.4771 100.921C66.3028 101.488 66.0358 102.171 65.5601 102.847C65.0967 103.527 64.446 104.209 63.6078 104.769C62.7662 105.32 61.7303 105.737 60.583 105.891C60.2898 105.92 60.0173 105.943 59.6923 105.943C59.4094 105.928 59.1418 105.937 58.8195 105.881C58.1895 105.812 57.6045 105.63 57.0118 105.391C56.4254 105.143 55.8694 104.803 55.3494 104.401C54.8376 103.986 54.3812 103.493 53.9856 102.944C53.6018 102.387 53.2989 101.768 53.0762 101.115C52.8667 100.457 52.7616 99.7666 52.7346 99.0721C52.7526 98.6852 52.7346 98.4422 52.7982 98.0484C52.8335 97.6789 52.9234 97.3462 53.005 97.0073C53.2035 96.3385 53.4988 95.703 53.8729 95.1238C54.2595 94.5536 54.7124 94.0348 55.2256 93.5938C55.7491 93.1674 56.3106 92.7958 56.9136 92.5292C58.1045 91.9923 59.4544 91.8423 60.5837 91.9722C61.8402 92.1305 62.8699 92.5812 63.7434 93.1702C64.603 93.7654 65.242 94.4995 65.6928 95.2092C66.1513 95.9197 66.3948 96.6239 66.5483 97.2032C66.6223 97.4955 66.6783 97.7581 66.7004 97.9914C66.7336 98.2227 66.7571 98.4192 66.7557 98.5804C66.7647 98.9012 66.7696 99.0721 66.7696 99.0721L66.7689 99.0971Z" fill="#586978"/>
<path fill-rule="evenodd" clip-rule="evenodd" d="M82.2549 58.3848C84.1808 58.3848 85.7417 60.5704 85.7417 63.2671C85.7417 65.9632 84.1808 68.1495 82.2549 68.1495" fill="#FFF6F7"/>
<path fill-rule="evenodd" clip-rule="evenodd" d="M82.3036 57.6929C82.3036 57.6929 82.5276 57.7776 82.9197 57.9248C83.0373 57.9651 83.1514 58.0186 83.2593 58.0873C83.3734 58.1499 83.4958 58.2117 83.6113 58.302C83.8506 58.4665 84.0981 58.668 84.3256 58.9187C84.567 59.1562 84.7752 59.4507 84.984 59.7611C85.1873 60.0764 85.365 60.4271 85.5255 60.7987C85.8346 61.5488 85.9874 62.4072 86.022 63.2677C86.0234 63.6892 86.0075 64.1274 85.9356 64.5546C85.8816 64.9796 85.771 65.3914 85.6396 65.7831C85.363 66.5631 84.9543 67.2576 84.4536 67.7618C84.2074 68.0153 83.9446 68.2271 83.6811 68.375C83.4232 68.5299 83.1708 68.6362 82.955 68.6959C82.5255 68.839 82.2517 68.8313 82.2552 68.8452V67.4562C82.2545 67.4437 82.4038 67.4909 82.6784 67.4666C82.8167 67.4625 82.984 67.4194 83.1728 67.3486C83.3644 67.2833 83.5746 67.1673 83.7911 67.011C84.011 66.8575 84.2254 66.645 84.4232 66.3894C84.6237 66.1366 84.8063 65.838 84.9584 65.5088C85.1023 65.1761 85.2343 64.8185 85.3166 64.4386C85.4093 64.0663 85.4383 63.6739 85.4619 63.2677C85.4605 62.8718 85.4549 62.4704 85.3754 62.0856C85.3146 61.6988 85.2011 61.3293 85.0725 60.9813C84.9356 60.6369 84.7738 60.3139 84.5705 60.0452C84.381 59.7667 84.1445 59.5514 83.919 59.3798C83.6839 59.2208 83.4591 59.0951 83.2427 59.0472C83.0401 58.9853 82.8326 58.9638 82.7137 58.9846C82.6445 58.9909 82.6065 58.9951 82.5387 59.0062C82.4675 59.018 82.4066 59.0312 82.3575 59.043C82.2586 59.0659 82.2061 59.0784 82.2061 59.0784L82.3036 57.6929Z" fill="#586978"/>
<path fill-rule="evenodd" clip-rule="evenodd" d="M33.5566 63.2671C33.5566 65.9632 35.1175 68.1494 37.0434 68.1494Z" fill="#FFF6F7"/>
<path fill-rule="evenodd" clip-rule="evenodd" d="M34.2484 63.2419L34.1889 63.5288C34.1509 63.726 34.1253 63.9371 34.1121 64.2254C34.1128 64.515 34.1274 64.8615 34.2131 65.2185C34.2802 65.5831 34.4282 65.9491 34.608 66.2985C34.7843 66.652 35.0471 66.9485 35.3044 67.2041C35.5637 67.4631 35.886 67.6006 36.1605 67.6527C36.3037 67.6632 36.4254 67.6895 36.5409 67.6597C36.6529 67.643 36.7462 67.6243 36.8216 67.5881C36.9724 67.5152 37.0443 67.4548 37.0443 67.4548V68.8438C37.0443 68.8438 36.9101 68.7695 36.7006 68.6709C36.5941 68.6361 36.4765 68.5445 36.3417 68.4841C36.2061 68.4188 36.0713 68.316 35.9198 68.2313C35.7801 68.1236 35.6197 68.0319 35.4724 67.9083C35.3168 67.7965 35.1661 67.6673 35.0098 67.5333C34.8569 67.3972 34.7027 67.2485 34.5686 67.0825C34.4275 66.9193 34.303 66.7415 34.1751 66.5644C33.9386 66.2005 33.7214 65.8179 33.5603 65.4387C33.3922 65.0615 33.265 64.6941 33.1613 64.3726C32.9842 63.7246 32.866 63.2926 32.866 63.2926L34.2484 63.2419Z" fill="#586978"/>
<path fill-rule="evenodd" clip-rule="evenodd" d="M37.0434 58.3848C35.1175 58.3848 33.5566 60.5704 33.5566 63.2671Z" fill="#FFF6F7"/>
<path fill-rule="evenodd" clip-rule="evenodd" d="M37.0927 59.0786C37.0927 59.0786 36.9883 59.0606 36.805 59.0286C36.6944 59.0099 36.6612 59.0189 36.5616 59.0071C36.4772 58.9884 36.3534 59.0286 36.2262 59.0391C35.9772 59.103 35.6667 59.2057 35.3874 59.4238C35.2477 59.5294 35.0997 59.6447 34.9717 59.7843C34.8403 59.9218 34.7221 60.0766 34.608 60.2371C34.386 60.5614 34.2159 60.9239 34.0955 61.2768C33.9655 61.6282 33.9275 61.9831 33.9455 62.2845C33.9552 62.4352 33.9794 62.5741 34.0084 62.6956C34.0257 62.8158 34.081 62.922 34.1101 63.0061C34.1854 63.1762 34.2491 63.2679 34.2491 63.2679H32.866C32.866 63.2679 32.9365 63.1533 33.025 62.9609C33.1004 62.7678 33.2283 62.5019 33.3279 62.1886C33.4503 61.8782 33.5541 61.5198 33.6778 61.1365C33.7346 60.9427 33.8085 60.7482 33.8936 60.5531C33.9752 60.3572 34.0783 60.1662 34.1751 59.9711C34.3805 59.5856 34.6453 59.2287 34.9268 58.9092C35.0734 58.755 35.2221 58.6085 35.3804 58.4814C35.5326 58.348 35.7034 58.2515 35.8548 58.148C36.0215 58.0633 36.155 57.9737 36.3216 57.9202C36.4689 57.864 36.646 57.8008 36.7179 57.7834C36.8942 57.7258 36.9952 57.6931 36.9952 57.6931L37.0927 59.0786Z" fill="#586978"/>
<path fill-rule="evenodd" clip-rule="evenodd" d="M59.9457 102.768C57.4796 102.768 55.4624 100.955 55.4624 98.7401V85.1174H64.429V98.7401C64.429 100.955 62.4111 102.768 59.9457 102.768" fill="#FFF6F7"/>
<path fill-rule="evenodd" clip-rule="evenodd" d="M59.9155 103.462C59.5372 103.401 58.9819 103.314 58.5525 103.156C58.1078 102.996 57.6839 102.79 57.2966 102.531C56.5207 102.018 55.8838 101.301 55.511 100.454C55.3285 100.029 55.2157 99.5765 55.1784 99.1188C55.1549 98.6424 55.177 98.2528 55.1749 97.8194C55.1874 96.9728 55.1832 96.1262 55.1749 95.2796C55.1701 93.5864 55.1293 91.8932 55.0698 90.1993C55.0394 89.3527 55.0027 88.5061 54.9509 87.6595C54.8928 86.8129 54.8534 85.9663 54.7725 85.1197V85.1183V84.4238H55.464H64.4306H65.1222V85.1183V85.1197C65.0343 85.9663 64.9901 86.8129 64.9278 87.6595C64.8656 88.5061 64.8338 89.3527 64.7944 90.1993C64.7287 91.8932 64.6844 93.5864 64.6706 95.2796C64.6699 96.1262 64.6478 96.9728 64.6637 97.8194L64.6706 98.4542L64.6713 98.7862L64.6568 99.1028C64.6229 99.5619 64.5115 100.013 64.3345 100.431C63.9652 101.266 63.3435 101.979 62.578 102.497C61.8103 103.017 60.9051 103.332 59.9473 103.463V102.074C61.4003 102.33 63.08 101.587 63.8165 100.183C63.9922 99.83 64.1084 99.4577 64.1644 99.0751L64.1858 98.7584L64.1907 98.4542L64.1969 97.8194C64.2135 96.9728 64.1913 96.1262 64.19 95.2796C64.1768 93.5864 64.1319 91.8932 64.0662 90.1993C64.0274 89.3527 63.9949 88.5061 63.9327 87.6595C63.8712 86.8129 63.8269 85.9663 63.7391 85.1197V85.1183L64.4306 85.8128H55.464L56.1556 85.1183V85.1197C56.074 85.9663 56.0345 86.8129 55.9764 87.6595C55.9246 88.5061 55.8879 89.3527 55.8575 90.1993C55.7987 91.8932 55.7579 93.5864 55.7524 95.2796C55.7441 96.1262 55.7399 96.9728 55.7524 97.8194C55.7634 98.2326 55.7413 98.691 55.789 99.0591C55.8416 99.4432 55.9564 99.8147 56.1265 100.16C56.3098 100.5 56.5504 100.804 56.8236 101.072C57.0954 101.343 57.428 101.545 57.7634 101.719C58.0995 101.898 58.4764 101.984 58.8401 102.054C59.226 102.12 59.5151 102.111 59.9784 102.075L59.9155 103.462Z" fill="#586978"/>
<path fill-rule="evenodd" clip-rule="evenodd" d="M37.5011 60.1587C36.2072 60.1587 35.1575 61.6283 35.1575 63.4402C35.1575 65.2522 36.2072 66.7217 37.5011 66.7217" fill="#DBD0D1"/>
<path fill-rule="evenodd" clip-rule="evenodd" d="M81.9685 60.1587C83.2631 60.1587 84.3122 61.6283 84.3122 63.4402C84.3122 65.2522 83.2631 66.7217 81.9685 66.7217" fill="#DBD0D1"/>
<path fill-rule="evenodd" clip-rule="evenodd" d="M59.2721 92.4718H59.7921C72.1992 92.4718 82.3504 82.2772 82.3504 69.8171L82.5219 48.5417C82.5219 40.6417 76.0857 34.178 68.2186 34.178H54.0329C44.8886 34.178 37.406 41.6918 37.406 50.8766V69.8171C37.406 82.2772 46.865 92.4718 59.2721 92.4718" fill="#FFF6F7"/>
<path fill-rule="evenodd" clip-rule="evenodd" d="M59.2709 91.7782C59.2709 91.7782 59.4403 91.7831 59.7688 91.7928C60.0897 91.7859 60.5662 91.7761 61.1865 91.7629C61.5004 91.747 61.8697 91.7671 62.2411 91.7206C62.6125 91.6699 63.0184 91.615 63.4568 91.556C63.6761 91.5261 63.9043 91.4955 64.1401 91.4636C64.3759 91.4212 64.6173 91.3518 64.8683 91.2948C65.3676 91.167 65.9077 91.0608 66.4623 90.8948C68.6697 90.2024 71.2734 88.9835 73.7872 86.9243C76.2678 84.8505 78.6453 81.9309 80.1971 78.2389C80.9447 76.3839 81.4772 74.3573 81.7379 72.2154C81.9156 70.0861 81.8859 67.7817 81.9129 65.4454C81.9537 60.7624 81.9965 55.8238 82.0401 50.715C82.0456 50.0768 82.0512 49.435 82.0567 48.7912C82.0457 48.2086 82.0221 47.505 81.9537 46.8953C81.8078 45.6792 81.48 44.4353 81.0111 43.2574C80.027 40.9163 78.406 38.7987 76.2989 37.2847C75.2512 36.5291 74.1053 35.8839 72.8716 35.463C72.2699 35.2075 71.624 35.0929 70.9961 34.9144C70.3495 34.8303 69.7091 34.6748 69.0528 34.6734C68.4076 34.6269 67.732 34.6248 67.0522 34.6289L65.0204 34.6275L60.952 34.6255L56.8837 34.6234L54.8519 34.622C54.5234 34.6262 54.1521 34.6123 53.8595 34.631L52.8471 34.6817C50.2317 34.8359 47.6757 35.7325 45.4745 37.1111C43.2519 38.4751 41.4296 40.4148 40.1219 42.6081C39.4456 43.6964 38.9705 44.884 38.559 46.0764C38.4159 46.6911 38.2139 47.2911 38.1171 47.9106C38.0362 48.5315 37.8889 49.1434 37.8882 49.7684C37.7942 50.9949 37.8426 52.2881 37.8288 53.5361C37.8281 54.7904 37.8274 56.0328 37.8267 57.2628C37.8253 59.7213 37.8239 62.1264 37.8225 64.4683C37.8218 65.6392 37.8211 66.7935 37.8211 67.9311C37.8205 68.4999 37.8205 69.0645 37.8198 69.6243C37.8267 70.1444 37.8668 70.7278 37.8882 71.2688C37.9007 71.5446 37.9138 71.8182 37.9263 72.0911L38.039 72.8773C38.1199 73.3989 38.1738 73.9177 38.2734 74.4274C38.5286 75.4393 38.7188 76.4498 39.0874 77.386C40.3418 81.2148 42.6156 84.2519 44.9904 86.4382C47.377 88.6502 49.9599 89.9378 52.1403 90.6788C52.4142 90.7719 52.6728 90.8865 52.9377 90.9545C53.2033 91.0191 53.4612 91.0823 53.7115 91.1434C54.2143 91.2532 54.6756 91.4011 55.1209 91.458C56.013 91.5594 56.7613 91.7115 57.3802 91.7233C58.6132 91.7595 59.2709 91.7782 59.2709 91.7782V93.1672C59.2709 93.1672 58.5738 93.1165 57.2668 93.0221C56.614 92.979 55.8228 92.7873 54.8892 92.6366C54.4231 92.5547 53.9404 92.3796 53.4162 92.2407C53.1555 92.1671 52.8858 92.0907 52.6092 92.0123C52.3319 91.9338 52.0615 91.8067 51.7766 91.7018C49.4917 90.8754 46.8562 89.4127 44.3819 87.1028C41.9158 84.8026 39.6351 81.6072 38.3108 77.6541C37.9297 76.6839 37.7285 75.638 37.465 74.5893C37.3606 74.0573 37.3011 73.5072 37.2167 72.9586C37.178 72.6842 37.1393 72.4078 37.1006 72.1307C37.0874 71.8578 37.0743 71.5841 37.0611 71.3091C37.0383 70.7494 36.9996 70.2236 36.9899 69.6243C36.9892 69.0645 36.9892 68.4999 36.9885 67.9311C36.9885 66.7935 36.9878 65.6392 36.9871 64.4683C36.9858 62.1264 36.9844 59.7213 36.983 57.2628C36.9823 56.0328 36.9816 54.7904 36.9809 53.5361C36.9934 52.2749 36.9415 51.0324 37.0369 49.7101C37.0397 49.0524 37.1905 48.4072 37.2769 47.753C37.3786 47.1008 37.5881 46.4674 37.7402 45.8209C38.1704 44.5638 38.6718 43.313 39.3813 42.1657C40.7561 39.8537 42.673 37.8118 45.0112 36.3701C47.3327 34.9151 50.0124 33.9671 52.8022 33.7997L53.8146 33.7469C54.197 33.7261 54.5034 33.7407 54.8519 33.7358L56.8837 33.7344L60.952 33.7323L65.0204 33.7303L67.0522 33.7289C67.7258 33.724 68.4028 33.724 69.1068 33.7726C69.8059 33.7761 70.4892 33.9365 71.178 34.0282C71.8474 34.2143 72.5355 34.34 73.1779 34.6102C74.4926 35.0581 75.7145 35.7422 76.8314 36.5465C79.0761 38.1563 80.8064 40.4079 81.8582 42.9046C82.361 44.1679 82.7109 45.4646 82.8727 46.8265C82.9454 47.5036 82.9661 48.0967 82.9806 48.7989C82.9758 49.4427 82.9709 50.0837 82.9661 50.7227C82.9281 55.8314 82.8907 60.77 82.8555 65.4531C82.8292 67.7977 82.8679 70.0548 82.6833 72.3182C82.4142 74.5538 81.861 76.67 81.0816 78.607C79.4676 82.4621 76.9911 85.5103 74.404 87.6765C71.7762 89.8135 69.0909 91.1455 66.7825 91.8991C66.2064 92.09 65.6456 92.2248 65.1255 92.3755C64.8634 92.4449 64.6131 92.5248 64.3635 92.579C64.1103 92.6227 63.8655 92.6644 63.6297 92.7054C63.1567 92.7866 62.719 92.8623 62.3179 92.9311C61.9168 93.0026 61.571 93.0019 61.2515 93.0367C60.6021 93.0873 60.1042 93.1262 59.7688 93.1526C59.4403 93.1624 59.2709 93.1672 59.2709 93.1672V91.7782Z" fill="#586978"/>
<path fill-rule="evenodd" clip-rule="evenodd" d="M60.4832 71.0869C58.6589 71.0869 57.105 70.4043 56.5117 69.4465C56.345 69.7153 56.2544 70.0049 56.2544 70.3077C56.2544 71.6891 58.1479 72.8093 60.4832 72.8093C62.8186 72.8093 64.712 71.6891 64.712 70.3077C64.712 70.0049 64.6207 69.7153 64.4548 69.4465C63.8614 70.4043 62.3068 71.0869 60.4832 71.0869" fill="#DBD0D1"/>
<path fill-rule="evenodd" clip-rule="evenodd" d="M64.3095 70.3067C64.3095 70.3067 64.3081 70.2449 64.3047 70.1282C64.2853 70.0136 64.2611 69.8372 64.1359 69.6274C64.019 69.4184 63.8199 69.1705 63.5197 68.9489C63.2231 68.7218 62.8303 68.526 62.3739 68.3898C61.9202 68.2516 61.3919 68.1822 60.8587 68.1697C60.2951 68.1613 59.7252 68.2079 59.1526 68.3614C58.5856 68.5114 58.0219 68.7517 57.5711 69.1003C57.3491 69.2753 57.154 69.4719 57.0261 69.683C56.9632 69.7879 56.9196 69.8969 56.8878 69.9976C56.8857 70.0365 56.8774 70.0671 56.865 70.106L56.8553 70.3581C56.8595 70.2567 56.8567 70.3331 56.8581 70.3115L56.8595 70.3157L56.8608 70.3254L56.865 70.3442L56.8712 70.381L56.8816 70.4553C56.8989 70.5032 56.9168 70.5511 56.93 70.5991C56.977 70.6935 57.0254 70.7893 57.0953 70.8824C57.2363 71.0678 57.4355 71.2373 57.6596 71.3818C58.1098 71.6825 58.663 71.8651 59.2086 71.9832C59.4825 72.0464 59.7626 72.0756 60.0129 72.1061C60.1443 72.1214 60.3082 72.1242 60.4513 72.1332C60.5807 72.136 60.7086 72.1381 60.8345 72.1402C61.3594 72.1402 61.8524 72.0707 62.2922 71.9631C63.1802 71.7575 63.8123 71.3186 64.0647 70.9407C64.1387 70.8498 64.1733 70.7595 64.2161 70.6838C64.241 70.6164 64.2618 70.5588 64.2791 70.5122C64.2998 70.356 64.3109 70.2726 64.3109 70.2726L64.3095 70.3067ZM65.1112 70.3406C65.1112 70.3406 65.1084 70.4253 65.1022 70.583C65.0891 70.6781 65.0607 70.8275 65.0192 70.9733C64.968 71.1059 64.9141 71.2657 64.818 71.4171C64.4604 72.0512 63.6769 72.6825 62.6382 73.0679C62.1182 73.2631 61.5317 73.3916 60.9052 73.4527C60.742 73.4631 60.6044 73.4805 60.4121 73.4798C60.2607 73.477 60.1244 73.4825 59.9543 73.4721C59.6023 73.4555 59.2669 73.4124 58.926 73.3402C58.2441 73.1999 57.5484 72.9415 56.9025 72.495C56.2919 72.0338 55.6169 71.3594 55.6522 70.2552L55.6847 70.0045C55.7117 69.8795 55.7476 69.7475 55.7871 69.6232C55.8735 69.4093 55.9793 69.2169 56.1072 69.0447C56.3631 68.705 56.6729 68.4516 56.9917 68.2495C57.6363 67.8515 58.3209 67.6494 58.982 67.5411C59.6404 67.4355 60.2946 67.4105 60.881 67.4633C61.4985 67.5126 62.0511 67.6411 62.5566 67.8057C63.5594 68.1363 64.3581 68.6502 64.7474 69.2412C64.9514 69.5246 65.0324 69.8114 65.0766 70.0024C65.1001 70.201 65.1126 70.3066 65.1126 70.3066L65.1112 70.3406Z" fill="#586978"/>
<path fill-rule="evenodd" clip-rule="evenodd" d="M61.0843 63.1881C61.0843 63.1881 61.0532 63.4354 61.0228 63.8069C60.9999 64.1785 60.9598 64.6737 60.9564 65.1689C60.9515 65.6633 60.9232 66.1585 60.964 66.5301C61.0062 66.9016 61.0843 67.1489 61.0843 67.1489C61.2053 67.5322 60.9937 67.942 60.612 68.0635C60.2296 68.1851 59.8222 67.9726 59.7012 67.5885C59.6542 67.4399 59.6577 67.2871 59.7012 67.1489C59.7012 67.1489 59.7794 66.9016 59.8216 66.5301C59.8624 66.1585 59.834 65.6633 59.8292 65.1689C59.8257 64.6737 59.7856 64.1785 59.7628 63.8069C59.7323 63.4354 59.7012 63.1881 59.7012 63.1881C59.6535 62.8048 59.9239 62.4547 60.3056 62.4061C60.6874 62.3582 61.0366 62.6297 61.0843 63.0131C61.0919 63.0715 61.0912 63.1326 61.0843 63.1881" fill="#586978"/>
<path fill-rule="evenodd" clip-rule="evenodd" d="M65.22 53.0366L65.2823 53.0401L65.3438 53.0463L65.4054 53.0553L65.4662 53.0671L65.5271 53.0817L65.5866 53.0991L72.6535 55.3097L72.713 55.3298L72.7704 55.3521L72.8271 55.3771L72.8831 55.4048L72.937 55.4347L72.9903 55.4673L73.0414 55.5021L73.0919 55.5396L73.1396 55.5785L73.186 55.6201L73.2302 55.6639L73.2731 55.709L73.3132 55.7563L73.3513 55.8056L73.3872 55.8563L73.4211 55.909L73.4522 55.9625L73.4813 56.0181L73.5076 56.0743L73.5311 56.132L73.5525 56.1903L73.5712 56.25L73.5871 56.3105L73.6002 56.3709L73.6106 56.4327L73.6182 56.4945L73.623 56.5563L73.6258 56.6188L73.6251 56.6813L73.6217 56.7431L73.6154 56.8057L73.6064 56.8675L73.5947 56.9286L73.5802 56.989L73.5629 57.0487L73.5435 57.1078L73.5207 57.1661L73.4958 57.223L73.4681 57.2793L73.4384 57.3335L73.4059 57.387L73.3713 57.4383L73.334 57.4883L73.2952 57.537L73.2538 57.5835L73.2102 57.6279L73.1652 57.6703L73.1182 57.7113L73.0691 57.7495L73.0186 57.7856L72.9661 57.8196L72.9128 57.8509L72.8575 57.88L72.8015 57.9064L72.7441 57.9301L72.686 57.9516L72.6265 57.9703L72.567 57.9863L72.5062 57.9995L72.4446 58.0099L72.3831 58.0176L72.3215 58.0224L72.2593 58.0245L72.1971 58.0238L72.1355 58.0203L72.0733 58.0141L72.0124 58.0051L71.9509 57.9939L71.8907 57.9794L71.8312 57.962L64.7636 55.7514L64.7048 55.7313L64.6467 55.709L64.59 55.684L64.5347 55.6562L64.4801 55.6257L64.4275 55.5937L64.3757 55.5583L64.3259 55.5215L64.2782 55.4819L64.2318 55.441L64.1869 55.3972L64.1447 55.3514L64.1046 55.3041L64.0658 55.2548L64.0299 55.2041L63.9967 55.152L63.9656 55.0979L63.9365 55.043L63.9102 54.9867L63.886 54.9291L63.8653 54.8701L63.8466 54.811L63.8307 54.7506L63.8176 54.6895L63.8072 54.6284L63.7989 54.5666L63.7941 54.5041L63.792 54.4423L63.7927 54.3798L63.7961 54.3172L63.8024 54.2554L63.8114 54.1936L63.8231 54.1325L63.8376 54.0721L63.8549 54.0117L63.8743 53.9526L63.8971 53.895L63.922 53.8373L63.949 53.7818L63.9794 53.7269L64.0119 53.6741L64.0465 53.622L64.0831 53.572L64.1226 53.5241L64.164 53.4776L64.2069 53.4331L64.2526 53.3901L64.2996 53.3498L64.3487 53.3116L64.3992 53.2755L64.451 53.2415L64.505 53.2102L64.5596 53.181L64.6163 53.1546L64.673 53.1303L64.7318 53.1095L64.7906 53.0908L64.8508 53.0748L64.9116 53.0616L64.9725 53.0512L65.034 53.0435L65.0963 53.038L65.1585 53.0359L65.22 53.0366Z" fill="#586978"/>
<path fill-rule="evenodd" clip-rule="evenodd" d="M54.751 54.425L47.6841 56.6357Z" fill="#586978"/>
<path fill-rule="evenodd" clip-rule="evenodd" d="M54.832 53.038L54.8936 53.0435L54.9551 53.0512L55.0167 53.0616L55.0768 53.0748L55.137 53.0908L55.1965 53.1095L55.2546 53.1303L55.312 53.1546L55.368 53.181L55.4233 53.2102L55.4766 53.2415L55.5291 53.2755L55.5796 53.3116L55.628 53.3498L55.6757 53.3901L55.7207 53.4331L55.7642 53.4776L55.8057 53.5241L55.8445 53.572L55.8818 53.622L55.9164 53.6741L55.9489 53.7269L55.9786 53.7818L56.0063 53.8373L56.0312 53.895L56.0533 53.9526L56.0734 54.0117L56.0907 54.0721L56.1052 54.1325L56.1162 54.1936L56.1252 54.2554L56.1315 54.3172L56.1349 54.3798L56.1356 54.4423L56.1335 54.5041L56.1287 54.5666L56.1211 54.6284L56.1107 54.6895L56.0976 54.7506L56.0817 54.811L56.063 54.8701L56.0416 54.9291L56.018 54.9867L55.9918 55.043L55.9627 55.0979L55.9316 55.152L55.8977 55.2041L55.8618 55.2548L55.8237 55.3041L55.7829 55.3514L55.7407 55.3972L55.6965 55.441L55.6501 55.4819L55.6017 55.5215L55.5519 55.5583L55.5008 55.5937L55.4475 55.6257L55.3936 55.6562L55.3376 55.684L55.2809 55.709L55.2228 55.7313L55.164 55.7514L48.0971 57.962L48.0369 57.9794L47.9767 57.9939L47.9159 58.0051L47.8543 58.0141L47.7928 58.0203L47.7305 58.0238L47.6683 58.0245L47.6067 58.0224L47.5445 58.0176L47.483 58.0099L47.4221 57.9995L47.3612 57.9863L47.3011 57.9703L47.2423 57.9516L47.1835 57.9301L47.1261 57.9064L47.0701 57.88L47.0155 57.8509L46.9615 57.8196L46.9097 57.7856L46.8592 57.7495L46.8101 57.7113L46.7631 57.6703L46.7174 57.6279L46.6739 57.5835L46.6331 57.537L46.5936 57.4883L46.5563 57.4383L46.5217 57.387L46.4892 57.3335L46.4595 57.2793L46.4318 57.223L46.4069 57.1661L46.3848 57.1078L46.3647 57.0487L46.3474 56.989L46.3336 56.9286L46.3219 56.8675L46.3129 56.8057L46.3066 56.7431L46.3032 56.6813L46.3025 56.6188L46.3046 56.5563L46.3094 56.4945L46.317 56.4327L46.3274 56.3709L46.3405 56.3105L46.3564 56.25L46.3751 56.1903L46.3965 56.132L46.4201 56.0743L46.447 56.0181L46.4754 55.9625L46.5065 55.909L46.5404 55.8563L46.5763 55.8056L46.6144 55.7563L46.6552 55.709L46.6974 55.6639L46.7416 55.6201L46.788 55.5785L46.8364 55.5396L46.8862 55.5021L46.9373 55.4673L46.9906 55.4347L47.0452 55.4048L47.1005 55.3771L47.1572 55.3521L47.2153 55.3298L47.2741 55.3097L54.3417 53.0991L54.4012 53.0817L54.4614 53.0671L54.5222 53.0553L54.5838 53.0463L54.6453 53.0401L54.7076 53.0366L54.7698 53.0359L54.832 53.038Z" fill="#586978"/>
<path fill-rule="evenodd" clip-rule="evenodd" d="M51.3062 59.9839C52.0697 59.9839 52.6893 60.9173 52.6893 62.0674C52.6893 63.2175 52.0697 64.1509 51.3062 64.1509C50.5427 64.1509 49.9231 63.2175 49.9231 62.0674C49.9231 60.9173 50.5427 59.9839 51.3062 59.9839" fill="#586978"/>
<path fill-rule="evenodd" clip-rule="evenodd" d="M69.2854 59.9839C70.0489 59.9839 70.6685 60.9173 70.6685 62.0674C70.6685 63.2175 70.0489 64.1509 69.2854 64.1509C68.522 64.1509 67.9023 63.2175 67.9023 62.0674C67.9023 60.9173 68.522 59.9839 69.2854 59.9839" fill="#586978"/>
<path fill-rule="evenodd" clip-rule="evenodd" d="M83.0336 37.4187C83.0336 37.4187 86.2154 40.0592 82.6912 50.6213C82.6912 50.6213 82.167 41.4948 78.2231 38.2223C74.2792 34.9505 79.6996 33.2573 83.0336 37.4187" fill="#A89A99"/>
<path fill-rule="evenodd" clip-rule="evenodd" d="M82.4941 37.8555C81.9346 37.1526 81.252 36.5533 80.4789 36.1387C79.7196 35.7289 78.8185 35.4796 78.0682 35.6081C77.6975 35.6803 77.443 35.8463 77.4036 36.0387C77.3358 36.247 77.4665 36.6394 77.7127 36.9818C77.8351 37.1561 77.9796 37.327 78.1276 37.4811C78.2729 37.643 78.4865 37.811 78.6442 37.9847L79.1961 38.5493C79.3683 38.7451 79.5114 38.9618 79.6691 39.1674C79.8323 39.3695 79.9665 39.5883 80.0937 39.8105C80.2223 40.0307 80.3634 40.2453 80.4803 40.471C80.7002 40.928 80.936 41.378 81.113 41.8496C81.3164 42.3121 81.4768 42.7871 81.6379 43.2622C81.7928 43.7386 81.9325 44.2192 82.0708 44.6998C82.3322 45.6645 82.5632 46.6347 82.779 47.6119L83.0888 49.0835L83.3806 50.5822V50.5822L82.0349 50.4017C82.2596 49.8857 82.4526 49.3564 82.6621 48.8321C82.7707 48.5696 82.8426 48.2987 82.9304 48.0313L83.1766 47.2236C83.3454 46.6854 83.4442 46.1333 83.5763 45.586C83.6455 45.313 83.6732 45.0339 83.7195 44.7574C83.7575 44.4803 83.8122 44.2039 83.8384 43.9261L83.9014 43.0913C83.9332 42.8128 83.9083 42.5357 83.9055 42.2586C83.9062 41.9808 83.8848 41.7044 83.8426 41.4329C83.8073 41.1606 83.7803 40.8877 83.7153 40.6245C83.6178 40.0918 83.4608 39.5799 83.2644 39.107C83.1662 38.8736 83.0611 38.643 82.9373 38.4402C82.8288 38.2388 82.6704 38.0222 82.5708 37.9374L82.5328 37.9041L82.4941 37.8555ZM83.8605 37.3315C83.9629 37.478 84.0459 37.6232 84.1295 37.7753C84.2865 38.0684 84.3916 38.3705 84.4919 38.6705C84.6613 39.2775 84.7547 39.8845 84.7865 40.4845C84.8176 40.7853 84.8086 41.0832 84.8073 41.3804C84.8128 41.6777 84.7948 41.9722 84.7768 42.2646C84.7554 42.5576 84.7575 42.8521 84.7229 43.141L84.6461 44.0119C84.6233 44.3022 84.5721 44.5877 84.5362 44.8759C84.4912 45.1627 84.4663 45.4537 84.4124 45.7378C84.3024 46.3052 84.2208 46.8816 84.097 47.4455C83.9656 48.0081 83.8674 48.5817 83.7312 49.1436C83.604 49.7082 83.4594 50.2687 83.3467 50.8424L82.6524 54.3815L82.001 50.6618V50.6611C82.0376 50.1958 82.0141 49.6992 82.0065 49.2158C81.9878 48.729 81.9484 48.2428 81.8938 47.7588C81.7783 46.792 81.6158 45.8274 81.3696 44.887C81.2465 44.4168 81.1158 43.948 80.956 43.491C80.7949 43.0341 80.6351 42.5771 80.436 42.1382C80.261 41.6874 80.0155 41.2749 79.797 40.8498C79.6808 40.6422 79.5425 40.4491 79.4166 40.2484C79.2942 40.0442 79.1545 39.8539 78.9982 39.681C78.8447 39.5046 78.705 39.315 78.5432 39.1511L78.0349 38.6886C77.8496 38.5087 77.6636 38.3851 77.4658 38.1934C77.2611 38.0052 77.0744 37.8093 76.9008 37.5899C76.5764 37.1558 76.2058 36.5898 76.3289 35.8022C76.398 35.4181 76.6442 35.0688 76.9243 34.8591C77.2058 34.6424 77.51 34.5236 77.8067 34.4451C78.9996 34.1715 80.1082 34.484 81.084 34.9528C82.0666 35.4313 82.891 36.162 83.5721 36.9836L83.8605 37.3315Z" fill="#586978"/>
<path opacity="0.2" fill-rule="evenodd" clip-rule="evenodd" d="M78.2241 38.2224C74.2802 34.9506 79.7005 33.2574 83.0345 37.4189C83.0345 37.4189 83.3221 37.6605 83.6285 38.2807C86.6602 33.1546 87.2405 28.1521 87.2405 28.1521C87.2405 28.1521 82.5684 30.8009 59.7293 30.8009C52.1997 30.8009 47.0602 31.4642 43.5533 32.3538C39.1219 33.4776 36.0618 37.5383 36.2042 42.1255L36.8135 61.7515L37.7478 62.7849C37.7478 55.2079 42.6654 49.1921 63.7472 49.1921C71.9545 49.1921 77.3237 45.9994 80.8305 42.1047C80.195 40.5663 79.3492 39.1558 78.2241 38.2224" fill="#A89A99"/>
<path fill-rule="evenodd" clip-rule="evenodd" d="M37.7478 60.0066L36.8135 58.9732L36.2042 39.3472C36.0618 34.76 39.1219 30.6992 43.5533 29.5755C47.0602 28.6859 52.1997 28.0226 59.7293 28.0226C82.5684 28.0226 87.2405 25.3738 87.2405 25.3738C87.2405 25.3738 84.829 46.4138 63.7472 46.4138C42.6654 46.4138 37.7478 52.4295 37.7478 60.0066" fill="#A89A99"/>
<path fill-rule="evenodd" clip-rule="evenodd" d="M37.0558 60.0055C37.1097 58.5359 37.3345 57.0552 37.8289 55.6468C38.3372 54.2355 39.1975 52.9833 40.2009 51.9089C40.7417 51.4096 41.2659 50.8908 41.8869 50.5053C42.1912 50.306 42.4727 50.0671 42.7949 49.9025L43.7513 49.3934C45.0362 48.7378 46.3944 48.2725 47.7603 47.8766C48.4352 47.6419 49.1413 47.5419 49.8294 47.3704C50.5195 47.1981 51.2187 47.0863 51.9192 46.9856C53.3141 46.7363 54.7235 46.6238 56.128 46.4869C56.8299 46.4112 57.5381 46.4064 58.2427 46.3633C58.9474 46.3411 59.6528 46.2626 60.3561 46.2529C61.7606 46.2244 63.1693 46.1612 64.569 46.0751L65.6098 46.0098L66.645 45.8904C67.3373 45.8306 68.015 45.6855 68.6969 45.5681C69.3808 45.4591 70.0426 45.2507 70.7148 45.0952C71.3656 44.866 72.0398 44.7021 72.6691 44.4187C73.9616 43.9367 75.1732 43.2665 76.3302 42.5297C77.4927 41.7942 78.5411 40.892 79.5203 39.9315C81.4794 37.9994 83.0133 35.6583 84.1862 33.1643C84.7712 31.9142 85.2622 30.6189 85.6647 29.298C86.0575 27.984 86.3846 26.6075 86.5533 25.2935L87.5796 25.9776L87.5775 25.979C87.0817 26.2206 86.7338 26.3075 86.3154 26.4415C85.915 26.5533 85.5146 26.661 85.1149 26.7471C84.3162 26.9311 83.5167 27.077 82.7166 27.2027C81.1178 27.461 79.5148 27.6326 77.9138 27.7854C76.3129 27.9402 74.7106 28.05 73.1083 28.1403C71.5059 28.2285 69.9029 28.2896 68.3006 28.3299C66.699 28.3868 65.0932 28.4062 63.4916 28.434L58.6943 28.4528C55.5077 28.4674 52.3196 28.6083 49.1655 28.9966C47.5915 29.1938 46.0182 29.4452 44.4851 29.7966C43.6967 29.9807 42.9713 30.1661 42.2666 30.478C41.5744 30.7953 40.8939 31.1586 40.2978 31.6399C39.0882 32.5719 38.1049 33.8067 37.488 35.2061C37.1816 35.9055 36.9438 36.6389 36.8269 37.3938C36.7439 37.7723 36.7384 38.1376 36.6962 38.5099L36.6927 39.112C36.6934 39.203 36.69 39.3343 36.6941 39.3919L36.7059 39.6933L37.0821 49.3226L37.5039 58.9505L37.3248 58.5053C37.4009 58.7505 37.5482 58.9304 37.7093 59.097C37.8718 59.2637 38.0468 59.4179 38.2591 59.5387L37.0558 60.0055ZM37.2357 60.4729C37.1361 60.2493 37.0005 60.059 36.8512 59.8812C36.7011 59.7034 36.5372 59.5388 36.3014 59.4395C36.1935 59.3944 36.1271 59.2902 36.125 59.1798L36.1216 58.9943L35.9466 49.3588L35.7246 39.7247L35.7177 39.4232C35.7136 39.2809 35.7198 39.2107 35.7205 39.101L35.7322 38.4989C35.78 38.0738 35.8007 37.6321 35.8955 37.2258C36.0379 36.3952 36.3097 35.591 36.6575 34.8284C37.3519 33.2984 38.43 31.9483 39.7619 30.935C40.4175 30.4114 41.163 30.0155 41.923 29.6724C42.6865 29.3377 43.5191 29.13 44.2881 28.9557C45.8752 28.5994 47.4657 28.3542 49.066 28.1612C52.2665 27.7959 55.4787 27.6465 58.6875 27.6028L63.4854 27.5549C65.0815 27.5167 66.6742 27.4889 68.2689 27.4208C69.8629 27.3514 71.4548 27.2611 73.0447 27.1444C74.6339 27.0257 76.221 26.8875 77.8012 26.7048C79.3814 26.5284 80.9533 26.2881 82.5037 25.9909C83.2796 25.8429 84.05 25.6749 84.8038 25.4755C85.1835 25.3804 85.552 25.2679 85.9193 25.1533C86.2595 25.0373 86.68 24.888 86.8999 24.7692V24.7685L86.9676 24.7366C87.3065 24.5762 87.7104 24.722 87.8701 25.0623C87.9296 25.1887 87.9462 25.3241 87.9268 25.4526C87.7069 26.9368 87.3445 28.3084 86.9054 29.6905C86.4573 31.0614 85.9193 32.4018 85.2823 33.6957C84.0071 36.2758 82.3516 38.6975 80.2534 40.6872C79.205 41.6769 78.0847 42.6006 76.851 43.3493C75.6221 44.0986 74.3407 44.7723 72.9846 45.2487C72.3221 45.5293 71.6194 45.6884 70.939 45.9113C70.2391 46.0606 69.5489 46.2599 68.8415 46.3599C68.1361 46.4745 67.43 46.5822 66.7177 46.619L65.6528 46.6975L64.5857 46.6989C63.1749 46.7072 61.7711 46.6648 60.3645 46.6982C58.9627 46.7461 57.5658 46.8447 56.1723 46.978C54.7816 47.1454 53.3882 47.2885 52.0182 47.5656L50.9864 47.7489C50.6441 47.8149 50.3087 47.9115 49.9691 47.9913C49.2977 48.1754 48.6047 48.2879 47.954 48.533C46.6269 48.9421 45.3337 49.4588 44.1325 50.1221L43.2431 50.6367C42.943 50.8027 42.692 51.0367 42.414 51.2319C41.8441 51.6118 41.385 52.109 40.9043 52.5799C40.0205 53.589 39.3248 54.7495 38.9334 56.026C38.5579 57.3074 38.421 58.6519 38.439 60.0062L38.4417 60.2076C38.4459 60.557 38.1679 60.8438 37.8193 60.8487C37.56 60.8521 37.3353 60.6973 37.2357 60.4729V60.4729Z" fill="#586978"/>
<path fill-rule="evenodd" clip-rule="evenodd" d="M84.8692 21.6523C84.8692 21.6523 84.7731 22.2273 84.5283 23.1573C84.2834 24.0949 83.9024 25.4228 83.2862 26.9548C82.6756 28.4862 81.8686 30.2412 80.7683 31.9865C80.2254 32.8616 79.6093 33.7325 78.9246 34.57C78.2511 35.416 77.5014 36.2237 76.7068 36.9821C76.3092 37.3606 75.8853 37.7127 75.4704 38.0683C75.0292 38.3926 74.6142 38.7489 74.1592 39.0413C73.7062 39.3371 73.2699 39.6496 72.801 39.8983C72.3425 40.165 71.8874 40.4226 71.4172 40.6331C70.9566 40.8622 70.4974 41.0734 70.0327 41.2435C69.5735 41.4283 69.1275 41.6151 68.6745 41.7477C67.7852 42.061 66.9201 42.2679 66.1248 42.479C65.3184 42.6263 64.5847 42.8326 63.9201 42.9006C63.2569 42.977 62.6795 43.1006 62.2002 43.1312C61.2424 43.2166 60.6906 43.2874 60.6906 43.2874C60.3096 43.3354 59.961 43.0645 59.9126 42.6812C59.8642 42.2978 60.1339 41.9478 60.5156 41.8991C60.5599 41.8936 60.6035 41.8922 60.6463 41.895L60.6906 41.8984C60.6906 41.8984 61.2155 41.9339 62.1408 41.9589C62.6055 41.995 63.1629 41.9429 63.8074 41.9089C64.454 41.8922 65.1684 41.7568 65.9588 41.6637C66.7313 41.4887 67.5812 41.3338 68.4415 41.0324C68.8799 40.9081 69.3156 40.7407 69.7568 40.5567C70.2049 40.3893 70.6461 40.1809 71.088 39.9552C71.5396 39.749 71.976 39.4962 72.4144 39.235C72.8639 38.9926 73.2816 38.6864 73.7152 38.3975C74.1509 38.1127 74.5471 37.7648 74.969 37.4495C75.3652 37.1022 75.7705 36.7605 76.1502 36.3924C76.906 35.6514 77.6301 34.8742 78.2614 34.0415C78.8984 33.2144 79.4703 32.3581 79.9703 31.4976C80.4855 30.6461 80.9045 29.7773 81.2953 28.9536C81.6652 28.1188 81.9972 27.3222 82.2468 26.5652C82.7724 25.0609 83.0822 23.7684 83.2696 22.8649C83.4501 21.9509 83.5006 21.453 83.5006 21.453C83.5387 21.071 83.8782 20.7932 84.2586 20.8314C84.6389 20.8703 84.9162 21.2113 84.8775 21.5933C84.8761 21.6078 84.874 21.6217 84.872 21.6356L84.8692 21.6523Z" fill="#586978"/>
<path fill-rule="evenodd" clip-rule="evenodd" d="M81.3308 18.0862C81.3308 18.0862 81.2478 18.6113 81.0487 19.4711C80.8509 20.3378 80.5362 21.5643 80.0556 23.0019C79.5653 24.4347 78.938 26.0904 78.0805 27.7794C77.64 28.6177 77.1753 29.4795 76.6227 30.3081C76.0909 31.1477 75.4934 31.9659 74.8524 32.7486C74.194 33.516 73.5129 34.2695 72.7542 34.9196C72.0177 35.5925 71.2176 36.1683 70.423 36.6878C70.0219 36.9427 69.6063 37.1587 69.2114 37.3885C68.8 37.5879 68.3975 37.783 68.0054 37.9726C67.6001 38.133 67.2066 38.2893 66.8249 38.44C66.4432 38.5893 66.0587 38.6873 65.6963 38.806C65.336 38.931 64.9805 39.0137 64.6431 39.0942C64.3042 39.1706 63.9861 39.2686 63.6797 39.3144C63.0677 39.3991 62.5345 39.522 62.0912 39.5707C61.2047 39.6596 60.6915 39.7318 60.6915 39.7318C60.3105 39.7853 59.9578 39.5179 59.9046 39.1345C59.852 38.7511 60.1183 38.3976 60.4993 38.3442C60.547 38.3372 60.5947 38.3358 60.6411 38.3386L60.6915 38.3428C60.6915 38.3428 61.1687 38.3768 62.0145 38.3997C62.437 38.4178 62.946 38.3678 63.5338 38.3275C63.8284 38.3094 64.1334 38.2414 64.4612 38.1969C64.7869 38.1448 65.1347 38.1053 65.4819 38.0018C65.8304 37.9039 66.2032 37.8275 66.5732 37.7011C66.9418 37.5712 67.3235 37.4337 67.7101 37.2809C68.0856 37.1017 68.4791 36.9329 68.8684 36.7336C69.2439 36.5093 69.6388 36.2996 70.0198 36.0516C70.775 35.5467 71.535 34.989 72.2342 34.3362C72.9548 33.707 73.6021 32.975 74.2279 32.2305C74.8351 31.4686 75.4125 30.6803 75.9063 29.8546C76.4153 29.0385 76.8399 28.1891 77.2417 27.3655C78.0141 25.7014 78.5999 24.0853 78.9961 22.6713C79.391 21.2559 79.6393 20.0572 79.7817 19.2176C79.9187 18.3696 79.9595 17.9063 79.9595 17.9063C79.9927 17.5244 80.3288 17.2417 80.7098 17.2757C81.0901 17.3091 81.3716 17.6466 81.3384 18.0293C81.337 18.0445 81.335 18.0598 81.3329 18.0751L81.3308 18.0862Z" fill="#586978"/>
<path fill-rule="evenodd" clip-rule="evenodd" d="M66.1904 78.8629C66.1904 78.8629 66.0195 78.9608 65.7201 79.133C65.4151 79.3067 64.9587 79.524 64.3999 79.7303C63.8419 79.9393 63.1711 80.106 62.4525 80.2165C62.0936 80.2776 61.7216 80.3172 61.344 80.347C60.9629 80.3706 60.5902 80.3797 60.1946 80.3769C59.8309 80.3658 59.4505 80.3644 59.0667 80.3435C58.6912 80.3199 58.3212 80.288 57.963 80.238C57.2493 80.1296 56.5737 80.006 56.0025 79.8081C55.434 79.6081 54.9534 79.383 54.6318 79.1546C54.3089 78.9323 54.1325 78.7469 54.1325 78.7469L54.1201 78.733C53.8552 78.4552 53.8656 78.0142 54.1429 77.7482C54.4195 77.4829 54.8586 77.4933 55.1235 77.7711C55.1443 77.7933 55.165 77.819 55.1823 77.8426C55.1823 77.8426 55.201 77.8683 55.2369 77.9176C55.2694 77.967 55.3324 78.042 55.4257 78.1288C55.6138 78.301 55.9375 78.5503 56.4049 78.7504C56.8704 78.949 57.4561 79.1455 58.1124 79.2462C58.7804 79.3525 59.4588 79.4254 60.2098 79.4164C60.5535 79.4094 60.9194 79.3921 61.2645 79.3615C61.6116 79.3247 61.9519 79.2803 62.2748 79.2171C62.9214 79.0823 63.4975 78.8781 63.965 78.6642C64.4324 78.4455 64.7824 78.2017 65.023 78.0281C65.2478 77.8572 65.3951 77.7267 65.3951 77.7267C65.6828 77.4704 66.1226 77.4975 66.3778 77.7864C66.6323 78.0753 66.6053 78.517 66.3176 78.7733C66.2823 78.8045 66.2443 78.8316 66.2049 78.8545L66.1904 78.8629Z" fill="#586978"/>
<path d="M57.562 82.9094H63.0488" stroke="#586978" stroke-width="1.3" stroke-linecap="round"/>
</g>
<path fill-rule="evenodd" clip-rule="evenodd" d="M30.8828 6.25684H62.5152C66.025 6.25684 68.8699 9.13804 68.8699 12.6926V28.6078C68.8699 32.1624 66.025 35.0436 62.5152 35.0436V35.0436C61.0015 35.0436 59.774 36.2868 59.774 37.8198V38.5324L56.9319 35.661C56.5407 35.2662 56.0112 35.0436 55.4583 35.0436H30.8828C27.373 35.0436 24.5281 32.1624 24.5281 28.6078V12.6926C24.5281 9.13804 27.373 6.25684 30.8828 6.25684" fill="white"/>
<path fill-rule="evenodd" clip-rule="evenodd" d="M30.7847 5.81299C29.3208 5.82979 27.85 6.30579 26.6929 7.22139C25.5193 8.11319 24.6567 9.40679 24.2683 10.8362C24.1646 11.189 24.1024 11.5642 24.0554 11.945C24.0291 12.2852 24.0084 12.6688 24.0139 13.0146L24.0195 15.0992L24.0291 19.2712L24.043 27.6138C24.0513 28.2928 24.0098 29.0208 24.148 29.7586C24.2738 30.4838 24.5088 31.1908 24.853 31.8418C25.558 33.127 26.6556 34.205 27.9896 34.8014C28.6559 35.1038 29.3484 35.3012 30.1004 35.3838C30.7847 35.4342 31.5091 35.4188 32.1795 35.4272L36.2975 35.451L44.535 35.5014L52.7724 35.5588L54.8321 35.5728L55.3477 35.577C55.4818 35.5784 55.6049 35.5952 55.732 35.6232C55.9781 35.6778 56.2269 35.8136 56.4011 35.969C57.3549 36.9322 58.3848 37.8828 59.3275 38.8866L60.2012 39.8176L60.1694 38.5324V38.503L60.1528 37.873C60.15 37.6798 60.1666 37.5202 60.1984 37.3452C60.2703 37.005 60.4182 36.683 60.6283 36.4086C61.0499 35.8486 61.7466 35.5546 62.4171 35.57V35.57C63.9266 35.5896 65.4859 35.1276 66.6775 34.1434C67.8705 33.1774 68.7496 31.8124 69.0897 30.3088C69.2763 29.5444 69.304 28.7478 69.2791 28.0646L69.2542 25.9338L69.2086 21.6736L69.1229 13.1532C69.1768 11.7084 68.8119 10.1516 67.9838 8.91259C67.153 7.67639 65.9255 6.70759 64.5141 6.24139C63.8146 6.00759 63.0447 5.89979 62.3341 5.89559L60.2316 5.89139L56.0251 5.88579L47.6107 5.86619L30.7847 5.81299ZM30.7847 6.70059L47.6107 6.64739L56.0251 6.62779L60.2316 6.62219C61.6347 6.65019 63.0709 6.48639 64.2929 6.92319C65.555 7.33479 66.6581 8.19859 67.4074 9.30599C68.1428 10.4344 68.5022 11.7588 68.4206 13.1532L68.3349 21.6736L68.2893 25.9338L68.2644 28.0646C68.2741 28.7982 68.2216 29.4338 68.0585 30.047C67.7447 31.3098 66.9747 32.4354 65.9642 33.2166C64.962 34.0188 63.7041 34.464 62.4171 34.5186V35.57V34.5186C61.4259 34.534 60.4749 35.0394 59.886 35.8206C59.5874 36.2084 59.3745 36.6648 59.2722 37.1478C59.1699 37.6588 59.2059 38.0998 59.1838 38.503L59.1824 38.5324L60.0242 38.1782C59.0206 37.2192 58.1124 36.2014 57.1144 35.2074C56.7799 34.898 56.4039 34.6978 55.9822 34.5872C55.7763 34.534 55.5551 34.5088 55.3477 34.5116L54.8321 34.5144L52.7724 34.5298L44.535 34.5872L36.2975 34.6376L32.1795 34.6614C31.4773 34.6586 30.8276 34.6908 30.1405 34.6334C29.5281 34.5606 28.884 34.3828 28.3006 34.1126C27.1159 33.5806 26.1469 32.616 25.5235 31.475C25.2207 30.8982 25.0148 30.271 24.9056 29.6284C24.7839 28.9956 24.8226 28.3222 24.8171 27.6138L24.8309 19.2712L24.8406 15.0992C24.889 13.7314 24.712 12.246 25.0756 11.0658C25.4226 9.81699 26.1815 8.68859 27.2113 7.91439C28.226 7.11639 29.5074 6.71319 30.7847 6.70059V6.70059Z" fill="#42457B"/>
<path fill-rule="evenodd" clip-rule="evenodd" d="M32.4868 13.5586C32.4868 13.5586 34.3793 13.399 37.2186 13.2758C38.6383 13.2296 40.2944 13.1442 42.0679 13.1106C43.8429 13.0658 45.7353 13.056 47.6277 13.042C49.5202 13.049 51.4126 13.0518 53.1876 13.091C54.9611 13.1162 56.6172 13.1974 58.0369 13.238C60.8762 13.3514 62.7686 13.5068 62.7686 13.5068C62.8958 13.5166 62.9912 13.6314 62.9815 13.7602C62.9719 13.8778 62.8806 13.9674 62.7686 13.9772C62.7686 13.9772 60.8762 14.1312 58.0369 14.2446C56.6172 14.2852 54.9611 14.3664 53.1876 14.393C51.4126 14.4308 49.5202 14.435 47.6277 14.4406C45.7353 14.428 43.8429 14.4168 42.0679 14.372C40.2944 14.3384 38.6383 14.253 37.2186 14.2082C34.3793 14.085 32.4868 13.924 32.4868 13.924C32.3873 13.9156 32.3126 13.8274 32.3209 13.7266C32.3292 13.6356 32.3997 13.5656 32.4868 13.5586" fill="#42457B"/>
<path fill-rule="evenodd" clip-rule="evenodd" d="M32.4869 18.0763C32.4869 18.0763 34.0379 17.9321 36.363 17.8257C37.5256 17.7907 38.8831 17.7095 40.3359 17.6955C41.7901 17.6801 43.3398 17.6647 44.8908 17.6479C46.4418 17.6731 47.9914 17.6997 49.4456 17.7235C50.8985 17.7431 52.2559 17.8369 53.4185 17.8789C55.7436 17.9979 57.2946 18.1533 57.2946 18.1533C57.3997 18.1645 57.4771 18.2597 57.4674 18.3661C57.4577 18.4613 57.3831 18.5327 57.2946 18.5411C57.2946 18.5411 55.7436 18.6965 53.4185 18.8169C52.2559 18.8589 50.8985 18.9513 49.4456 18.9709C47.9914 18.9961 46.4418 19.0213 44.8908 19.0465C43.3398 19.0311 41.7901 19.0143 40.3359 18.9989C38.8831 18.9863 37.5256 18.9037 36.363 18.8687C34.0379 18.7637 32.4869 18.6195 32.4869 18.6195C32.339 18.6055 32.2298 18.4725 32.2436 18.3227C32.2561 18.1897 32.3597 18.0875 32.4869 18.0763" fill="#42457B"/>
<path fill-rule="evenodd" clip-rule="evenodd" d="M32.4869 22.6823C32.4869 22.6823 33.9854 22.5451 36.2317 22.4415C37.3556 22.4065 38.666 22.3281 40.0705 22.3113C41.4736 22.2931 42.9721 22.2735 44.4705 22.2539C45.9676 22.2735 47.4661 22.2917 48.8706 22.3099C50.275 22.3253 51.5855 22.4065 52.708 22.4415C54.9557 22.5437 56.4528 22.6823 56.4528 22.6823C56.6007 22.6963 56.7099 22.8279 56.6974 22.9777C56.685 23.1107 56.5799 23.2129 56.4528 23.2255C56.4528 23.2255 54.9557 23.3627 52.708 23.4663C51.5855 23.5013 50.275 23.5825 48.8706 23.5965C47.4661 23.6147 45.9676 23.6343 44.4705 23.6525C42.9721 23.6343 41.4736 23.6147 40.0705 23.5965C38.666 23.5797 37.3556 23.4999 36.2317 23.4649C33.9854 23.3613 32.4869 23.2255 32.4869 23.2255C32.339 23.2115 32.2298 23.0785 32.2436 22.9287C32.2547 22.7957 32.3597 22.6935 32.4869 22.6823" fill="#42457B"/>
<path fill-rule="evenodd" clip-rule="evenodd" d="M32.4868 27.2883C32.4868 27.2883 33.9161 27.1483 36.0588 27.0433C37.1301 27.0083 38.3811 26.9271 39.7206 26.9131C41.0601 26.8963 42.4895 26.8781 43.9174 26.8599C45.3468 26.8823 46.7761 26.9047 48.1156 26.9257C49.4551 26.9425 50.7048 27.0307 51.7775 27.0685C53.9201 27.1805 55.3495 27.3275 55.3495 27.3275C55.4767 27.3401 55.5679 27.4549 55.5555 27.5837C55.5444 27.6957 55.4559 27.7811 55.3495 27.7923C55.3495 27.7923 53.9201 27.9393 51.7775 28.0499C50.7048 28.0891 49.4551 28.1759 48.1156 28.1927C46.7761 28.2137 45.3468 28.2361 43.9174 28.2585C42.4895 28.2417 41.0601 28.2235 39.7206 28.2067C38.3811 28.1913 37.1301 28.1115 36.0588 28.0765C33.9161 27.9715 32.4868 27.8315 32.4868 27.8315C32.3388 27.8161 32.231 27.6831 32.2448 27.5333C32.2573 27.4017 32.361 27.3009 32.4868 27.2883" fill="#42457B"/>
</svg>
