<svg width="69" height="75" viewBox="0 0 69 75" fill="none" xmlns="http://www.w3.org/2000/svg">
<path opacity="0.2" fill-rule="evenodd" clip-rule="evenodd" d="M68.3104 55.2244C68.3104 55.2244 68.3104 55.2218 68.313 55.2218C69.9418 51.543 68.5942 47.1311 65.082 45.0704C61.5353 42.988 57.0495 44.0496 54.7496 47.408C54.54 47.8071 54.3199 48.1954 54.0865 48.5782C50.4124 54.5838 43.8655 58.5803 36.3954 58.5803C34.3978 58.5803 32.4641 58.2952 30.6337 57.7603C30.4188 57.6979 30.2039 57.63 29.9917 57.5594C29.9848 57.557 29.9757 57.5546 29.9665 57.5523L29.9625 57.5512C24.9674 56.0933 19.8582 56.6254 15.4707 58.6969C17.5054 54.2363 18.0306 49.0398 16.5955 43.9627C16.5928 43.9518 16.5901 43.941 16.5875 43.9328C16.5158 43.7156 16.4522 43.4984 16.3912 43.2812C15.8633 41.4214 15.5821 39.4558 15.5821 37.4223C15.5821 25.7369 24.9011 16.2616 36.3954 16.2616C43.8628 16.2616 50.4098 20.258 54.0838 26.2636C54.3199 26.6465 54.5427 27.0401 54.7523 27.4392C57.0521 30.795 61.5353 31.8565 65.0847 29.7741C68.5942 27.7162 69.9392 23.3124 68.3183 19.6336C68.0557 19.1503 67.7852 18.6752 67.5039 18.2055C61.1189 7.54369 49.5742 0.422241 36.3954 0.422241C19.1102 0.422241 4.63958 12.6723 0.925762 29.0981C0.318274 31.7723 0 34.5579 0 37.4223C0 47.1745 3.71113 56.0444 9.77793 62.6554C10.3563 63.2853 10.9558 63.8935 11.5738 64.4826C18.0757 70.6484 26.8032 74.4222 36.3954 74.4222C39.2126 74.4222 41.9529 74.0964 44.5844 73.4828C54.2722 71.2158 62.4823 65.0229 67.5039 56.6363C67.7825 56.1747 68.0504 55.7023 68.3104 55.2244ZM33.2334 37.3598L44.8125 28.3161C46.0938 27.0048 48.1682 27.002 49.4495 28.3107C50.7308 29.6221 50.7308 31.7425 49.4495 33.0511L35.5545 47.2669C34.2758 48.5755 32.2014 48.5755 30.9228 47.2669L23.9727 40.1644C22.694 38.8557 22.694 36.7326 23.9727 35.4268C25.254 34.1154 27.3474 34.5521 27.6818 34.7611L33.2334 37.3598Z" fill="#03CAFF"/>
</svg>
