<svg width="50" height="53" viewBox="0 0 50 53" fill="none" xmlns="http://www.w3.org/2000/svg">
<path d="M31.8856 19.8704L23.6467 26.3126L19.6965 24.4615C19.4586 24.3126 17.969 24.0015 17.0574 24.9357C16.1476 25.8659 16.1476 27.3783 17.0574 28.3105L22.0026 33.37C22.9124 34.3022 24.3884 34.3022 25.2982 33.37L35.185 23.2434C36.0966 22.3111 36.0966 20.8007 35.185 19.8665C34.2733 18.9343 32.7973 18.9362 31.8856 19.8704ZM48.607 39.0367C48.422 39.3772 48.2295 39.7156 48.0313 40.0444C44.4582 46.0186 38.6165 50.4302 31.7233 52.0451C29.8509 52.4822 27.9011 52.7143 25.8966 52.7143C19.0714 52.7143 12.8615 50.026 8.23517 45.6338C7.79539 45.2141 7.36883 44.7808 6.95732 44.3321C2.64059 39.6227 0 33.3042 0 26.3572C0 24.3168 0.226463 22.3324 0.658711 20.4274C3.30122 8.72638 13.5975 0 25.8966 0C35.2737 0 43.4881 5.07301 48.0313 12.668C48.2314 13.0026 48.4239 13.341 48.6107 13.6853C49.7641 16.3059 48.8071 19.443 46.3099 20.909C43.7844 22.3924 40.5945 21.6362 38.9581 19.2456C38.809 18.9613 38.6504 18.681 38.4824 18.4082C35.8683 14.1301 31.2098 11.2832 25.8966 11.2832C17.718 11.2832 11.0872 18.033 11.0872 26.3572C11.0872 27.8058 11.2873 29.206 11.6629 30.5308C11.7063 30.6855 11.7516 30.8402 11.8026 30.995C11.8044 31.0008 11.8063 31.0085 11.8082 31.0162C12.8294 34.6329 12.4557 38.3347 11.0079 41.5123C14.1298 40.0366 17.7652 39.6575 21.3193 40.6961C21.3269 40.6981 21.3401 40.702 21.3401 40.702C21.4911 40.7522 21.644 40.8006 21.7969 40.8451C23.0993 41.2261 24.4752 41.4292 25.8966 41.4292C31.2118 41.4292 35.8701 38.5823 38.4843 34.3042C38.6504 34.0314 38.8071 33.7548 38.9562 33.4705C40.5927 31.0782 43.7844 30.3219 46.308 31.8053C48.8071 33.2733 49.7659 36.4161 48.607 39.0367Z" transform="translate(0 0.2854)" fill="#03B7F2"/>
</svg>
