<svg width="334" height="160" viewBox="0 0 334 160" fill="none" xmlns="http://www.w3.org/2000/svg">
<g clip-path="url(#clip0)" filter="url(#filter0_d)">
<g filter="url(#filter1_d)">
<rect x="12.317" y="1.35226" width="320" height="132" rx="12.4679" transform="rotate(4.2396 12.317 1.35226)" fill="white"/>
<rect x="12.7787" y="1.88786" width="319" height="131" rx="11.9679" transform="rotate(4.2396 12.7787 1.88786)" stroke="#DEE4EB"/>
</g>
<rect width="21.2155" height="21.2617" transform="translate(154.742 102.553) rotate(4.2396)" fill="white"/>
<path d="M170.934 115.298C170.91 115.623 170.627 115.868 170.303 115.844C169.978 115.82 169.735 115.536 169.759 115.211L170.152 109.914C170.176 109.588 170.458 109.344 170.783 109.368C171.107 109.392 171.351 109.676 171.327 110.001L170.934 115.298ZM170.456 118.97C170.359 119.041 168.046 120.71 164.055 120.414C160.063 120.119 158.022 118.126 157.937 118.042C157.706 117.812 157.705 117.438 157.935 117.206C158.164 116.975 158.536 116.974 158.767 117.203C158.799 117.234 160.625 118.976 164.142 119.236C167.704 119.5 169.737 118.033 169.757 118.019C170.019 117.825 170.388 117.881 170.581 118.144C170.774 118.406 170.718 118.776 170.456 118.97ZM158.397 109.042C158.422 108.717 158.704 108.473 159.029 108.497C159.353 108.521 159.597 108.804 159.573 109.13L159.18 114.427C159.156 114.752 158.873 114.996 158.549 114.972C158.224 114.948 157.981 114.665 158.005 114.34L158.397 109.042ZM161.423 108.082C161.447 107.757 161.73 107.513 162.055 107.537C162.379 107.561 162.623 107.844 162.599 108.169L162.015 116.038C161.991 116.363 161.709 116.607 161.384 116.583C161.06 116.559 160.816 116.276 160.84 115.951L161.423 108.082ZM164.384 108.002C164.408 107.677 164.691 107.433 165.015 107.457C165.34 107.481 165.583 107.764 165.559 108.089L164.926 116.63C164.902 116.955 164.619 117.199 164.295 117.175C163.97 117.151 163.727 116.868 163.751 116.542L164.384 108.002ZM167.3 108.518C167.324 108.193 167.607 107.948 167.932 107.973C168.256 107.997 168.5 108.28 168.476 108.605L167.892 116.474C167.868 116.799 167.586 117.043 167.261 117.019C166.937 116.995 166.693 116.712 166.717 116.387L167.3 108.518ZM171.801 105.594L158.578 104.614C157.361 104.524 156.301 105.44 156.21 106.659L155.228 119.912C155.138 121.131 156.051 122.194 157.268 122.284L170.492 123.264C171.709 123.354 172.769 122.438 172.859 121.219L173.842 107.966C173.932 106.747 173.018 105.685 171.801 105.594Z" fill="#1F8DED"/>
<rect x="30.8304" y="26.4061" width="63.0542" height="9.28643" transform="rotate(4.2396 30.8304 26.4061)" fill="#E6E9EC"/>
<rect x="99.7114" y="31.5123" width="100.361" height="9.28643" transform="rotate(4.2396 99.7114 31.5123)" fill="#E6E9EC"/>
<rect x="205.87" y="39.3818" width="83.0214" height="9.28643" transform="rotate(4.2396 205.87 39.3818)" fill="#E6E9EC"/>
<rect x="29.5059" y="44.2732" width="50.9688" height="9.28643" rx="4.64322" transform="rotate(4.2396 29.5059 44.2732)" fill="#D2D4DF"/>
<rect x="29.5059" y="44.2732" width="50.9688" height="9.28643" transform="rotate(4.2396 29.5059 44.2732)" fill="#E6E9EC"/>
<rect x="178.613" y="55.3266" width="50.9688" height="9.28643" transform="rotate(4.2396 178.613 55.3266)" fill="#E6E9EC"/>
<rect x="84.6109" y="48.3581" width="89.3267" height="9.28643" transform="rotate(4.2396 84.6109 48.3581)" fill="#E6E9EC"/>
<rect x="28.1814" y="62.1402" width="66.7323" height="9.28643" transform="rotate(4.2396 28.1814 62.1402)" fill="#E6E9EC"/>
<rect x="101.925" y="67.6068" width="66.7324" height="9.28643" transform="rotate(4.2396 101.925 67.6068)" fill="#E6E9EC"/>
</g>
<defs>
<filter id="filter0_d" x="0.382889" y="0.264414" width="333.234" height="159.647" filterUnits="userSpaceOnUse" color-interpolation-filters="sRGB">
<feFlood flood-opacity="0" result="BackgroundImageFix"/>
<feColorMatrix in="SourceAlpha" type="matrix" values="0 0 0 0 0 0 0 0 0 0 0 0 0 0 0 0 0 0 127 0"/>
<feOffset dy="1.08785"/>
<feGaussianBlur stdDeviation="1.08785"/>
<feColorMatrix type="matrix" values="0 0 0 0 0 0 0 0 0 0 0 0 0 0 0 0 0 0 0.02 0"/>
<feBlend mode="normal" in2="BackgroundImageFix" result="effect1_dropShadow"/>
<feBlend mode="normal" in="SourceGraphic" in2="effect1_dropShadow" result="shape"/>
</filter>
<filter id="filter1_d" x="-0.558391" y="1.35226" width="335.117" height="161.53" filterUnits="userSpaceOnUse" color-interpolation-filters="sRGB">
<feFlood flood-opacity="0" result="BackgroundImageFix"/>
<feColorMatrix in="SourceAlpha" type="matrix" values="0 0 0 0 0 0 0 0 0 0 0 0 0 0 0 0 0 0 127 0"/>
<feOffset dy="3.11698"/>
<feGaussianBlur stdDeviation="1.55849"/>
<feColorMatrix type="matrix" values="0 0 0 0 0.258824 0 0 0 0 0.270588 0 0 0 0 0.482353 0 0 0 0.03 0"/>
<feBlend mode="normal" in2="BackgroundImageFix" result="effect1_dropShadow"/>
<feBlend mode="normal" in="SourceGraphic" in2="effect1_dropShadow" result="shape"/>
</filter>
<clipPath id="clip0">
<rect width="320" height="132" fill="white" transform="translate(12.317 1.35226) rotate(4.2396)"/>
</clipPath>
</defs>
</svg>
