<svg width="326" height="138" viewBox="0 0 326 138" fill="none" xmlns="http://www.w3.org/2000/svg">
<g clip-path="url(#clip0)" filter="url(#filter0_d)">
<g filter="url(#filter1_d)">
<rect x="3.2655" y="1.36008" width="320" height="132" rx="12.4679" transform="rotate(0.229369 3.2655 1.36008)" fill="white"/>
<rect x="3.7635" y="1.86207" width="319" height="131" rx="11.9679" transform="rotate(0.229369 3.7635 1.86207)" stroke="#DEE4EB"/>
</g>
<rect width="21.2155" height="21.2617" transform="translate(152.419 92.3525) rotate(0.229369)" fill="white"/>
<path d="M158.803 94.3781C158.169 94.3756 157.652 94.9186 157.65 95.5943C157.647 96.2683 158.159 96.8173 158.794 96.8198C159.429 96.8224 159.944 96.2775 159.947 95.6035C159.95 94.9278 159.439 94.3807 158.803 94.3781Z" fill="#264970"/>
<path d="M166.35 94.4084C165.715 94.4058 165.2 94.9488 165.197 95.6245C165.194 96.2985 165.705 96.8475 166.34 96.8501C166.974 96.8526 167.491 96.3077 167.494 95.6337C167.497 94.958 166.984 94.4118 166.35 94.4084Z" fill="#264970"/>
<path d="M162.581 93.2793C161.946 93.2768 161.43 93.8197 161.428 94.4956C161.425 95.1696 161.937 95.7187 162.571 95.7213C163.206 95.7238 163.722 95.1788 163.725 94.5048C163.727 93.8289 163.216 93.2819 162.581 93.2793Z" fill="#264970"/>
<path d="M169.052 97.8209C168.988 97.7691 168.912 97.742 168.834 97.7416C168.791 97.7415 168.747 97.7497 168.705 97.7665C167.926 98.0792 167.135 98.3158 166.414 98.4913C166.267 98.5271 166.147 98.6426 166.098 98.7816C165.566 100.307 164.219 101.757 162.806 103.275C162.749 103.331 162.67 103.406 162.541 103.406C162.413 103.405 162.335 103.332 162.277 103.272C160.876 101.743 159.541 100.288 159.022 98.7582C158.973 98.6189 158.855 98.5025 158.708 98.4653C157.987 98.2841 157.197 98.0337 156.421 97.7148C156.379 97.6978 156.336 97.6893 156.292 97.6891C156.214 97.6888 156.139 97.7145 156.075 97.7659C155.975 97.8462 155.923 97.977 155.934 98.1028C156.048 99.3737 156.516 100.617 157.364 101.922C158.161 103.149 159.202 104.286 160.209 105.385C162.065 107.411 163.818 109.324 163.963 111.535C163.976 111.734 164.132 111.89 164.321 111.89L166.51 111.899C166.609 111.9 166.703 111.857 166.771 111.781C166.84 111.706 166.876 111.604 166.871 111.499C166.808 110.021 166.291 108.539 165.288 106.969C165.078 106.64 164.853 106.32 164.618 106.006C164.522 105.878 164.563 105.72 164.637 105.641C164.71 105.562 164.783 105.483 164.857 105.404C165.873 104.312 166.923 103.184 167.73 101.964C168.589 100.666 169.066 99.433 169.19 98.1633C169.203 98.0356 169.149 97.9 169.052 97.8209Z" fill="#264970"/>
<path d="M160.177 107.104C160.125 107.047 160.05 106.988 159.922 106.987C159.758 106.986 159.661 107.106 159.624 107.165C158.697 108.65 158.216 110.052 158.145 111.463C158.139 111.567 158.175 111.671 158.243 111.747C158.31 111.823 158.406 111.867 158.504 111.867L160.69 111.876C160.878 111.877 161.037 111.721 161.051 111.522C161.102 110.842 161.304 110.161 161.67 109.446C161.797 109.199 161.7 108.965 161.628 108.865C161.269 108.367 160.83 107.834 160.177 107.104Z" fill="#264970"/>
<path d="M162.561 98.9338C163.247 98.9365 163.645 98.8944 163.785 98.895C163.954 98.8957 164.116 99.0436 164.115 99.2499C164.115 99.3101 164.101 99.3531 164.088 99.391C163.995 99.649 163.577 100.577 162.802 101.371C162.715 101.46 162.617 101.476 162.549 101.476C162.482 101.476 162.383 101.459 162.296 101.369C161.528 100.568 161.116 99.6374 161.027 99.3788C161.013 99.3407 161 99.2976 161 99.2374C161.001 99.0311 161.164 98.8845 161.333 98.8852C161.473 98.8857 161.871 98.931 162.556 98.9338L162.561 98.9338Z" fill="#264970"/>
<rect x="23.4857" y="25.0579" width="63.0542" height="9.28643" transform="rotate(0.229369 23.4857 25.0579)" fill="#E6E9EC"/>
<rect x="92.5551" y="25.3344" width="100.361" height="9.28643" transform="rotate(0.229369 92.5551 25.3344)" fill="#E6E9EC"/>
<rect x="199.004" y="25.7605" width="83.0214" height="9.28643" transform="rotate(0.229369 199.004 25.7605)" fill="#E6E9EC"/>
<rect x="23.4139" y="42.9738" width="50.9688" height="9.28643" rx="4.64322" transform="rotate(0.229369 23.4139 42.9738)" fill="#D2D4DF"/>
<rect x="23.4139" y="42.9738" width="50.9688" height="9.28643" transform="rotate(0.229369 23.4139 42.9738)" fill="#E6E9EC"/>
<rect x="172.93" y="43.5723" width="50.9688" height="9.28643" transform="rotate(0.229369 172.93 43.5723)" fill="#E6E9EC"/>
<rect x="78.6697" y="43.195" width="89.3267" height="9.28643" transform="rotate(0.229369 78.6697 43.195)" fill="#E6E9EC"/>
<rect x="23.3422" y="60.8897" width="66.7323" height="9.28643" transform="rotate(0.229369 23.3422 60.8897)" fill="#E6E9EC"/>
<rect x="97.2873" y="61.1857" width="66.7324" height="9.28643" transform="rotate(0.229369 97.2873 61.1857)" fill="#E6E9EC"/>
</g>
<defs>
<filter id="filter0_d" x="0.561375" y="0.272226" width="324.877" height="137.631" filterUnits="userSpaceOnUse" color-interpolation-filters="sRGB">
<feFlood flood-opacity="0" result="BackgroundImageFix"/>
<feColorMatrix in="SourceAlpha" type="matrix" values="0 0 0 0 0 0 0 0 0 0 0 0 0 0 0 0 0 0 127 0"/>
<feOffset dy="1.08785"/>
<feGaussianBlur stdDeviation="1.08785"/>
<feColorMatrix type="matrix" values="0 0 0 0 0 0 0 0 0 0 0 0 0 0 0 0 0 0 0.02 0"/>
<feBlend mode="normal" in2="BackgroundImageFix" result="effect1_dropShadow"/>
<feBlend mode="normal" in="SourceGraphic" in2="effect1_dropShadow" result="shape"/>
</filter>
<filter id="filter1_d" x="-0.379905" y="1.36008" width="326.76" height="139.514" filterUnits="userSpaceOnUse" color-interpolation-filters="sRGB">
<feFlood flood-opacity="0" result="BackgroundImageFix"/>
<feColorMatrix in="SourceAlpha" type="matrix" values="0 0 0 0 0 0 0 0 0 0 0 0 0 0 0 0 0 0 127 0"/>
<feOffset dy="3.11698"/>
<feGaussianBlur stdDeviation="1.55849"/>
<feColorMatrix type="matrix" values="0 0 0 0 0.258824 0 0 0 0 0.270588 0 0 0 0 0.482353 0 0 0 0.03 0"/>
<feBlend mode="normal" in2="BackgroundImageFix" result="effect1_dropShadow"/>
<feBlend mode="normal" in="SourceGraphic" in2="effect1_dropShadow" result="shape"/>
</filter>
<clipPath id="clip0">
<rect width="320" height="132" fill="white" transform="translate(3.2655 1.36008) rotate(0.229369)"/>
</clipPath>
</defs>
</svg>
