<svg width="122" height="122" viewBox="0 0 122 122" fill="none" xmlns="http://www.w3.org/2000/svg">
<path opacity="0.15" d="M84.625 106.869C120.736 87.1116 117.907 20.1458 74.8666 10.7896C34.2299 -1.22622 -0.796794 49.8766 17.683 86.0667C27.3943 113.185 61.3368 116.985 84.625 106.869Z" fill="#F1BD45"/>
<path fill-rule="evenodd" clip-rule="evenodd" d="M97.8125 56.6857L91.2845 82.0383C90.3918 85.5076 86.6484 87.9912 82.3131 87.9912H38.8538C34.5185 87.9912 30.7759 85.5076 29.8824 82.0383L23.3553 56.6857C22.7894 54.4896 23.4565 52.2028 25.1719 50.4515L36.1704 39.2277C37.9101 37.4513 40.5424 36.418 43.3242 36.418H77.8426C80.6254 36.418 83.2568 37.4513 84.9974 39.2277L95.9958 50.4515C97.7113 52.2028 98.3774 54.4896 97.8125 56.6857" fill="#F5F6FB"/>
<mask id="mask0" mask-type="alpha" maskUnits="userSpaceOnUse" x="22" y="35" width="77" height="54">
<path fill-rule="evenodd" clip-rule="evenodd" d="M98.7873 35.5125V88.3718H22.6155V35.5125H98.7873V35.5125Z" fill="white"/>
</mask>
<g mask="url(#mask0)">
<path fill-rule="evenodd" clip-rule="evenodd" d="M97.0158 56.4792C97.0158 56.4792 97.0704 56.3048 97.1313 55.9571C97.1895 55.6094 97.271 55.0927 97.2549 54.3909C97.2325 53.6981 97.1089 52.7843 96.5762 51.8417C96.0856 50.9144 95.0246 50.0509 94.0191 48.9996C91.9401 46.9348 89.3221 44.5186 86.3594 41.7088C85.6315 41.0151 84.8794 40.2981 84.1058 39.5604C83.3743 38.9215 82.4995 38.3913 81.5281 38.0121C80.5656 37.6321 79.4768 37.3904 78.4087 37.3355C77.2698 37.3032 75.9984 37.3275 74.7583 37.3212C69.7444 37.3409 64.3123 37.2726 58.5669 37.2367C55.6946 37.2124 52.7435 37.1873 49.7271 37.1612C48.2193 37.1486 46.6945 37.1352 45.1554 37.1226C44.3997 37.1208 43.5832 37.0983 42.866 37.1136C42.1363 37.1379 41.4066 37.2421 40.6939 37.4218C39.2703 37.7731 37.9031 38.4722 36.8376 39.4687C35.7184 40.5964 34.5921 41.7313 33.4595 42.8742C31.188 45.1727 28.8896 47.499 26.5725 49.8434C25.9994 50.4454 25.3745 50.9944 24.9375 51.5964C24.4782 52.2066 24.1299 52.8966 23.9213 53.6263C23.7145 54.3541 23.6545 55.1286 23.7512 55.8744C23.8587 56.6193 24.1174 57.4415 24.3072 58.2511C25.1265 61.4895 25.9493 64.7413 26.7721 67.9932C27.5949 71.2441 28.4178 74.496 29.237 77.7344L29.8503 80.1614C30.0625 80.9512 30.2425 81.8201 30.4833 82.5299C31.0232 83.9937 32.1263 85.2148 33.446 86.0639C34.7649 86.9203 36.3309 87.4073 37.8744 87.5555C38.6686 87.6274 39.47 87.6086 40.2883 87.6166C41.0986 87.6202 41.908 87.6238 42.7138 87.6283C45.9389 87.6436 49.1254 87.6598 52.2591 87.675C58.5266 87.6975 64.5854 87.7209 70.3308 87.7415C73.2031 87.7344 75.9975 87.7281 78.7006 87.7209C80.0481 87.7101 81.3902 87.7299 82.675 87.6939C83.9446 87.6391 85.1802 87.3695 86.2949 86.887C88.5306 85.9597 90.3097 84.1662 90.8415 82.0465C91.3689 79.8226 91.8694 77.7128 92.3394 75.7306C93.2867 71.7536 94.1122 68.2861 94.7918 65.4305C96.2073 59.7346 97.0158 56.4792 97.0158 56.4792M98.6095 56.8925C98.6095 56.8925 97.7455 60.1336 96.2333 65.8043C95.4499 68.633 94.499 72.0681 93.4076 76.0074C92.8533 77.9824 92.2642 80.0841 91.6437 82.2999C90.9454 84.6379 88.9478 86.5752 86.542 87.4944C85.3423 87.9815 84.0297 88.2339 82.6938 88.2618C81.3866 88.2618 80.0552 88.2618 78.7006 88.2618C75.9975 88.2546 73.2031 88.2474 70.3308 88.2402C64.5854 88.2618 58.5266 88.2843 52.2591 88.3076C49.1254 88.3229 45.9389 88.3391 42.7138 88.3544C41.908 88.3579 41.0986 88.3624 40.2883 88.366C39.4852 88.3669 38.6561 88.393 37.8261 88.3265C36.1285 88.1782 34.4703 87.6741 33.0118 86.7513C31.5649 85.8375 30.3159 84.496 29.6847 82.8292C29.3874 81.9648 29.2325 81.1983 29.0051 80.3806L28.3712 77.959C27.5242 74.7278 26.6745 71.4832 25.8248 68.2385C24.9743 64.9938 24.1246 61.7501 23.2776 58.518C23.0815 57.7039 22.82 56.9311 22.6777 56.0263C22.5523 55.1197 22.6186 54.2013 22.8568 53.3279C23.0976 52.4564 23.505 51.6387 24.0341 50.9225C24.2911 50.5649 24.6009 50.2217 24.8928 49.9242L25.755 49.0365C28.0525 46.6724 30.3311 44.3272 32.5829 42.0098C33.7155 40.8489 34.8401 39.6951 35.9584 38.5495C37.2155 37.3553 38.7555 36.5727 40.359 36.1369C41.1622 35.9203 41.9841 35.7882 42.8069 35.746C43.6423 35.7155 44.3729 35.7262 45.1554 35.7146C46.6945 35.7011 48.2193 35.6885 49.7271 35.675C52.7435 35.6499 55.6946 35.6247 58.5669 35.5995C64.3123 35.5645 69.7444 35.4962 74.7583 35.516C76.0253 35.525 77.2098 35.4998 78.4687 35.5357C79.7983 35.6049 81.0249 35.8853 82.1888 36.3417C83.342 36.8081 84.3896 37.4721 85.2626 38.2916C86.0836 39.1317 86.7471 39.8641 87.4463 40.6359C90.1959 43.6559 92.5597 46.3228 94.5814 48.4443C95.5797 49.5235 96.5341 50.378 97.2773 51.3817C98.0007 52.3467 98.4511 53.3378 98.6418 54.1968C98.8343 55.0568 98.8029 55.7558 98.7349 56.2069C98.6713 56.6625 98.6095 56.8925 98.6095 56.8925" fill="#42457B"/>
</g>
<path fill-rule="evenodd" clip-rule="evenodd" d="M80.8477 27.8674H40.3296C38.9427 27.8674 37.8181 28.996 37.8181 30.3879V46.4701C37.8181 47.862 38.9427 48.9897 40.3296 48.9897H80.8477C82.2346 48.9897 83.3591 47.862 83.3591 46.4701V30.3879C83.3591 28.996 82.2346 27.8674 80.8477 27.8674" fill="#F5F6FB"/>
<path fill-rule="evenodd" clip-rule="evenodd" d="M80.8477 27.4958C80.8289 27.5308 81.4753 27.3862 82.4217 27.9586C82.8712 28.2515 83.3735 28.7592 83.6134 29.5229C83.668 29.7053 83.7164 29.9255 83.7352 30.1411C83.7388 30.24 83.7432 30.3397 83.7477 30.4421C83.7486 30.5374 83.7486 30.6344 83.7495 30.7324C83.7513 31.1259 83.7531 31.5447 83.7549 31.9868C83.7782 35.5306 83.8095 40.5931 83.848 46.6691C83.8086 47.5784 83.3063 48.4752 82.5184 49.0062C82.1137 49.2704 81.6875 49.442 81.1575 49.5049C80.6928 49.5417 80.3355 49.5229 79.9147 49.5355C78.2861 49.5543 76.6028 49.5741 74.873 49.5948C71.4125 49.6352 67.7631 49.6783 63.9874 49.7232C60.2126 49.7637 56.3115 49.805 52.3478 49.8472C48.3832 49.8607 44.3568 49.8751 40.3296 49.8886C38.9516 49.903 37.6381 48.981 37.169 47.6934C37.1063 47.5344 37.0615 47.3699 37.0239 47.2037C36.9917 47.0492 36.9559 46.7832 36.9577 46.6844C36.9416 46.3447 36.9595 46.156 36.9586 45.8846L36.9801 44.3733C37.0275 42.3605 37.0741 40.3559 37.1206 38.3665C37.1717 36.378 37.2218 34.4048 37.2719 32.4549C37.2791 31.9679 37.2872 31.4818 37.2943 30.9975C37.3006 30.745 37.2952 30.5365 37.3122 30.249C37.3239 29.9587 37.3883 29.6721 37.4841 29.4007C37.8763 28.3018 38.8881 27.5129 40.0529 27.4221C47.6114 27.4545 54.6668 27.485 60.7131 27.5111C72.794 27.5021 80.8477 27.4958 80.8477 27.4958M80.8477 28.2389C80.8477 28.2389 72.794 28.2326 60.7131 28.2236C54.6802 28.2569 47.641 28.2964 40.0995 28.3386C39.3742 28.4204 38.6508 28.9919 38.4323 29.7296C38.375 29.912 38.3365 30.1025 38.3365 30.2957C38.3294 30.4898 38.341 30.7656 38.3428 30.9975C38.35 31.4818 38.358 31.9679 38.3652 32.4549C38.4153 34.4048 38.4655 36.378 38.5156 38.3665C38.5621 40.3559 38.6096 42.3605 38.6562 44.3733L38.6776 45.8846C38.6848 46.1165 38.6776 46.4328 38.6965 46.5963C38.7045 46.7499 38.7215 46.7338 38.7341 46.8254C38.7546 46.9045 38.7752 46.9836 38.8084 47.059C39.043 47.6746 39.676 48.1086 40.3296 48.0915C44.3568 48.105 48.3832 48.1193 52.3478 48.1328C56.3115 48.175 60.2126 48.2164 63.9874 48.2568C67.7631 48.3008 71.4125 48.344 74.873 48.3853C76.6028 48.406 78.2861 48.4257 79.9147 48.4446C80.306 48.4428 80.7581 48.4698 81.0912 48.4437C81.3562 48.4141 81.6929 48.3035 81.9454 48.1373C82.4692 47.7959 82.8166 47.2109 82.8533 46.6035C82.8819 43.5844 82.9088 40.8168 82.9329 38.3647C82.9446 35.9017 82.9544 33.7551 82.9625 31.9868C82.9652 31.5447 82.967 31.1259 82.9688 30.7324C82.9688 30.6344 82.9697 30.5374 82.9697 30.4421L82.9607 30.1807C82.9455 30.0288 82.9186 29.9003 82.8783 29.753C82.7082 29.1914 82.3393 28.8131 82.0098 28.5929C81.316 28.1634 80.8334 28.2659 80.8477 28.2389" fill="#42457B"/>
<path fill-rule="evenodd" clip-rule="evenodd" d="M85.1449 31.7454H36.0332C34.6454 31.7454 33.5217 32.8739 33.5217 34.2658V50.3481C33.5217 51.7399 34.6454 52.8676 36.0332 52.8676H85.1449C86.5318 52.8676 87.6563 51.7399 87.6563 50.3481V34.2658C87.6563 32.8739 86.5318 31.7454 85.1449 31.7454" fill="#F5F6FB"/>
<path fill-rule="evenodd" clip-rule="evenodd" d="M85.1447 31.2858C85.1447 31.2858 85.3139 31.2732 85.638 31.3236C85.9559 31.3766 86.4501 31.4952 86.9622 31.8834C87.4681 32.2652 87.9973 32.9095 88.1387 33.8826C88.1629 34.0228 88.1575 34.0929 88.1674 34.2025C88.1692 34.3112 88.1718 34.4227 88.1745 34.5359C88.1772 34.7452 88.1808 34.9618 88.1835 35.1846C88.1898 35.6303 88.1969 36.1047 88.2041 36.6061C88.2551 38.6099 88.3169 41.0432 88.3876 43.8341C88.4199 45.2295 88.4539 46.7148 88.4897 48.2801C88.4942 48.6719 88.4978 49.0681 88.5022 49.4689L88.5085 50.0745L88.5094 50.3917C88.5022 50.5274 88.5058 50.6649 88.4816 50.8014C88.3518 51.8995 87.6311 52.9454 86.5754 53.436C86.0749 53.6984 85.381 53.7846 84.9396 53.7658C84.5036 53.7658 84.0622 53.7649 83.6172 53.764C82.7272 53.7622 81.8193 53.7604 80.8971 53.7595C79.0518 53.7559 77.1447 53.7532 75.183 53.7496C71.2614 53.7262 67.1249 53.7011 62.846 53.675C54.2883 53.5977 45.1611 53.516 36.033 53.4333C34.6166 53.4495 33.304 52.3667 33.0425 50.9803C32.9261 50.2515 33.0049 49.7394 32.9861 49.1562L32.996 47.4436C33.0085 45.163 33.021 42.8906 33.0336 40.6361C33.0398 39.5085 33.0461 38.3862 33.0524 37.2693L33.0613 35.598L33.0658 34.765C33.0703 34.4919 33.056 34.2205 33.098 33.8781C33.261 32.5663 34.3488 31.4826 35.6587 31.3379C36.8263 31.2894 37.8461 31.3272 38.9339 31.3182C47.4917 31.3307 55.4782 31.3424 62.3249 31.3523C76.0166 31.3128 85.1447 31.2858 85.1447 31.2858M85.1447 32.205C85.1447 32.205 76.0166 32.1781 62.3249 32.1385C55.4782 32.1484 47.4917 32.1601 38.9339 32.1727C37.8837 32.1853 36.743 32.1529 35.742 32.2023C34.8726 32.3075 34.0811 33.0865 33.9925 33.995C33.9665 34.2007 33.9764 34.4856 33.9764 34.765L33.9818 35.598L33.9907 37.2693C33.997 38.3862 34.0032 39.5085 34.0095 40.6361C34.022 42.8906 34.0346 45.163 34.0471 47.4436L34.0561 49.1562C34.0731 49.7133 34.0292 50.354 34.108 50.7556C34.288 51.6425 35.1368 52.3236 36.033 52.302C45.1611 52.2203 54.2883 52.1376 62.846 52.0612C67.1249 52.0352 71.2614 52.01 75.183 51.9866C77.1447 51.983 79.0518 51.9794 80.8971 51.9768C81.8193 51.975 82.7272 51.9732 83.6172 51.9723C84.0622 51.9714 84.5036 51.9705 84.9396 51.9696C85.3685 51.9714 85.5565 51.9489 85.8287 51.8267C86.3409 51.6065 86.7053 51.1025 86.7796 50.5714C86.7966 50.5058 86.7903 50.4366 86.7993 50.3692L86.8038 50.0745L86.81 49.4689C86.8136 49.0681 86.8181 48.6719 86.8217 48.2801C86.8584 46.7148 86.8924 45.2295 86.9246 43.8341C86.9954 41.0432 87.0571 38.6099 87.1082 36.6061C87.1153 36.1048 87.1225 35.6303 87.1288 35.1846C87.1315 34.9618 87.135 34.7452 87.1377 34.5359C87.1386 34.4406 87.1404 34.3463 87.1413 34.2546C87.135 34.163 87.1395 34.0327 87.1243 33.9815C87.0571 33.3956 86.7124 32.9059 86.3767 32.6498C85.6684 32.1197 85.125 32.2356 85.1447 32.205" fill="#42457B"/>
<path fill-rule="evenodd" clip-rule="evenodd" d="M90.4372 35.6233H30.7407C29.3538 35.6233 28.2292 36.7519 28.2292 38.1437V54.226C28.2292 55.6178 29.3538 56.7455 30.7407 56.7455H90.4372C91.8241 56.7455 92.9486 55.6178 92.9486 54.226V38.1437C92.9486 36.7519 91.8241 35.6233 90.4372 35.6233" fill="white"/>
<path fill-rule="evenodd" clip-rule="evenodd" d="M90.437 35.3331C90.437 35.3331 90.4827 35.3349 90.5722 35.3385C90.6618 35.3385 90.7952 35.3511 90.9698 35.3808C91.3118 35.4428 91.84 35.6063 92.3531 36.0717C92.6056 36.3036 92.8491 36.6118 93.0255 36.9999C93.2099 37.3764 93.2869 37.8859 93.278 38.3343C93.2869 39.2257 93.2968 40.25 93.3084 41.3966C93.3371 43.6915 93.3711 46.477 93.4105 49.6731C93.4212 50.4719 93.4329 51.2959 93.4445 52.145C93.4499 52.5691 93.4562 53.0004 93.4624 53.4362L93.4714 54.0958C93.4785 54.3087 93.4624 54.6169 93.4105 54.8721C93.2037 55.9432 92.3567 56.9002 91.2375 57.2075C90.591 57.3809 90.1559 57.3108 89.676 57.335C89.1961 57.3413 88.7117 57.3476 88.221 57.3539C80.3832 57.4743 71.2381 57.5579 61.4403 57.6352C56.5418 57.6343 51.4795 57.6334 46.3348 57.6325C41.1911 57.5839 35.9658 57.5345 30.7405 57.4851C29.8962 57.477 29.0618 57.1167 28.4798 56.5165C27.8924 55.9342 27.5531 55.0599 27.5647 54.2854C27.5952 52.9645 27.6256 51.6445 27.6561 50.3273C27.7214 47.7152 27.7868 45.1139 27.8513 42.5323C27.871 41.242 27.8898 39.9571 27.9095 38.6775C27.9202 38.3657 27.8996 38.0387 27.9614 37.6703C28.0214 37.3171 28.1494 36.9757 28.3356 36.672C28.7072 36.0628 29.3134 35.6072 29.9965 35.4239C30.3439 35.3233 30.7155 35.317 31.0118 35.3233L31.952 35.3268C32.5787 35.3286 33.2028 35.3304 33.825 35.3322C35.0687 35.3358 36.3033 35.3394 37.5282 35.3439C47.326 35.3412 56.4711 35.3403 64.309 35.3385C79.9856 35.3349 90.437 35.3331 90.437 35.3331M90.437 35.9136C90.437 35.9136 79.9856 35.9118 64.309 35.9082C56.4711 35.9073 47.326 35.9055 37.5282 35.9037C36.3033 35.9073 35.0687 35.9109 33.825 35.9145C33.2027 35.9163 32.5787 35.9181 31.9519 35.9208C31.3449 35.945 30.6438 35.8642 30.1559 36.007C29.6214 36.1544 29.1477 36.5147 28.8603 36.9937C28.7162 37.2318 28.6177 37.4977 28.5729 37.7736C28.5237 38.0351 28.5469 38.3514 28.5487 38.6775C28.5675 39.9571 28.5872 41.242 28.6069 42.5323C28.6714 45.1139 28.7359 47.7152 28.8012 50.3273C28.8325 51.6221 28.8639 52.9196 28.8952 54.218C28.9033 55.2558 29.8022 56.0447 30.7405 56.007C35.9658 55.9576 41.1911 55.9082 46.3348 55.8587C51.4795 55.8587 56.5418 55.8578 61.4403 55.8569C71.2381 55.9333 80.3832 56.0178 88.221 56.1382C88.7117 56.1445 89.1961 56.1508 89.676 56.157C90.1496 56.1579 90.6797 56.1975 90.9429 56.1067C91.6493 55.9351 92.2188 55.3367 92.371 54.6466C92.4489 54.3384 92.4193 53.8774 92.4346 53.4362C92.4408 53.0004 92.4462 52.5691 92.4525 52.145C92.4641 51.2959 92.4748 50.4719 92.4856 49.6731C92.5259 46.477 92.5599 43.6915 92.5885 41.3966C92.5993 40.25 92.61 39.2257 92.6181 38.3343C92.6691 37.4915 92.3271 36.9029 91.9341 36.5246C91.5401 36.1517 91.1273 36.0142 90.8578 35.9603C90.5839 35.9055 90.437 35.9136 90.437 35.9136" fill="#42457B"/>
<path fill-rule="evenodd" clip-rule="evenodd" d="M97.8129 56.6874L91.2858 82.0382C90.3905 85.5093 86.6479 87.992 82.3144 87.992H38.8542C34.5207 87.992 30.7781 85.5093 29.8828 82.0382L23.3557 56.6874C23.2097 56.1123 23.1462 55.5319 23.1641 54.9577C23.1865 54.2227 23.8974 53.627 24.7963 53.627H96.2407C97.2139 53.627 98 54.2721 98.0081 55.0691C98.0143 55.6065 97.949 56.1492 97.8129 56.6874" fill="#D2D4DF"/>
<path fill-rule="evenodd" clip-rule="evenodd" d="M97.2869 56.5523C97.2869 56.5523 97.3362 56.3815 97.3926 56.0419C97.4203 55.8721 97.4472 55.6591 97.4597 55.4057C97.4651 55.297 97.4714 55.1092 97.4624 55.0274C97.4553 54.9394 97.4311 54.8468 97.3809 54.7507C97.2842 54.5602 97.0649 54.3598 96.7569 54.2511C96.4713 54.1271 96.0352 54.1693 95.4855 54.1675C94.4326 54.1747 93.2212 54.1828 91.8656 54.1927C89.1536 54.2008 85.8596 54.2106 82.0821 54.2223C78.3037 54.1873 74.0419 54.1477 69.3923 54.1046C64.7428 54.0606 59.7056 54.013 54.3782 53.9626C49.05 53.9015 43.4317 53.8917 37.62 53.8764C34.7137 53.8872 31.7599 53.8988 28.7686 53.9096C28.021 53.9123 27.2715 53.915 26.5195 53.9186L25.3895 53.9222L24.8237 53.9249C24.6544 53.9267 24.4995 53.9456 24.3455 53.9905C24.042 54.0768 23.768 54.2628 23.6132 54.5108C23.5335 54.641 23.4905 54.7588 23.4753 54.907C23.4618 55.0589 23.4672 55.2601 23.4762 55.4345C23.4994 56.1542 23.7287 56.8587 23.9203 57.6134C25.4907 63.5322 27.0853 69.5444 28.6799 75.5566L29.8761 80.0646C30.0803 80.7988 30.262 81.603 30.4841 82.2787C30.7124 82.9562 31.0616 83.5923 31.4994 84.162C32.3974 85.2879 33.6142 86.1667 34.9662 86.7049C35.6413 86.9772 36.3441 87.1874 37.064 87.2998C37.4275 87.3761 37.7677 87.3896 38.1321 87.4301L38.7043 87.4498L39.2576 87.4588C45.3603 87.51 51.3663 87.5612 57.178 87.6098C62.9906 87.6529 68.6089 87.6951 73.9362 87.7356C76.5999 87.7437 79.191 87.7517 81.698 87.7598C84.1745 87.8506 86.5678 87.1794 88.3773 85.7974C89.287 85.1244 90.0086 84.2555 90.5091 83.3093C91.007 82.4036 91.161 81.2624 91.443 80.2497C91.9533 78.1858 92.4377 76.2287 92.8926 74.3885C93.7996 70.708 94.5901 67.4993 95.2411 64.8567C96.5429 59.5714 97.2869 56.5523 97.2869 56.5523M98.3381 56.8227C98.3381 56.8227 97.5314 59.8275 96.1194 65.084C95.413 67.7123 94.5561 70.9039 93.5721 74.5646C93.0824 76.3959 92.5613 78.3439 92.0115 80.398C91.7017 81.4179 91.5621 82.4889 90.9765 83.5546C90.4295 84.5736 89.6469 85.4955 88.6799 86.2017C87.7183 86.9143 86.6099 87.4615 85.4191 87.7976C84.2336 88.1417 82.9497 88.2423 81.698 88.2244C79.191 88.2316 76.5999 88.2397 73.9362 88.2477C68.6089 88.2882 62.9906 88.3304 57.178 88.3744C51.3663 88.423 45.3603 88.4733 39.2576 88.5245C36.1346 88.6179 32.7224 87.4507 30.681 84.7946C30.185 84.1333 29.7875 83.3884 29.5314 82.5932C29.2825 81.7899 29.1375 81.0737 28.9351 80.3081L27.8061 75.783C26.2992 69.7484 24.7923 63.7128 23.3087 57.7725L23.0267 56.6565C22.9354 56.2611 22.8799 55.8667 22.8611 55.4659C22.8539 55.2592 22.8476 55.0786 22.8664 54.8513C22.8879 54.6213 22.9775 54.3706 23.1028 54.1819C23.358 53.7856 23.7609 53.5304 24.1817 53.4127C24.3912 53.3525 24.615 53.3283 24.8237 53.3283L25.3895 53.331L26.5195 53.3354C27.2715 53.3381 28.021 53.3408 28.7686 53.3435C31.7599 53.3552 34.7137 53.366 37.62 53.3768C43.4317 53.3615 49.05 53.3516 54.3782 53.2905C59.7056 53.2402 64.7428 53.1926 69.3923 53.1485C74.0419 53.1054 78.3037 53.0659 82.0821 53.0317C85.8596 53.0425 89.1536 53.0524 91.8656 53.0614C93.2212 53.0704 94.4326 53.0785 95.4855 53.0857C95.7568 53.0874 96.0173 53.0892 96.268 53.091L96.4516 53.0991L96.6924 53.1279C96.8366 53.1539 96.9762 53.189 97.1105 53.2348C97.646 53.4199 98.0892 53.7811 98.3327 54.2358C98.4554 54.4613 98.5234 54.7066 98.5413 54.9385C98.5583 55.1775 98.5467 55.2907 98.5422 55.4587C98.527 55.7606 98.4965 56.014 98.4634 56.2153C98.3972 56.6188 98.3381 56.8227 98.3381 56.8227" fill="#42457B"/>
<path fill-rule="evenodd" clip-rule="evenodd" d="M67.9552 72.3545C67.1011 71.8486 66.0204 72.1065 65.4662 72.9224C65.416 73.0195 65.3632 73.1138 65.3068 73.2064C64.4213 74.6647 62.8446 75.6351 61.0458 75.6351C60.5641 75.6351 60.0985 75.566 59.658 75.4366C59.6061 75.4213 59.5542 75.4051 59.5031 75.3871C59.5013 75.3871 59.4987 75.3862 59.496 75.3853C58.6311 75.1311 57.7518 75.1266 56.9335 75.3305C56.5592 75.424 56.236 75.1041 56.3264 74.7276C56.5297 73.8839 56.5261 72.9772 56.2763 72.0859C56.2754 72.0832 56.2745 72.0805 56.2745 72.0787C56.2575 72.0257 56.2414 71.9726 56.2271 71.9196C56.0999 71.4686 56.0319 70.9914 56.0319 70.4972C56.0319 67.6596 58.2765 65.3584 61.0458 65.3584C62.8446 65.3584 64.4213 66.3288 65.3059 67.7872C65.3632 67.8806 65.4169 67.9759 65.4671 68.0729C66.0213 68.8879 67.1011 69.1458 67.9561 68.6399C68.8013 68.1403 69.1254 67.0711 68.7351 66.177C68.6715 66.0602 68.6061 65.9443 68.539 65.8302C67.0008 63.2414 64.2198 61.5117 61.0458 61.5117C56.8816 61.5117 53.3969 64.4868 52.5015 68.4755C52.3556 69.1251 52.2786 69.8017 52.2786 70.4972C52.2786 72.8658 53.173 75.0196 54.6342 76.6253C54.773 76.7781 54.9181 76.9255 55.0667 77.0692C56.6326 78.5662 58.7349 79.4827 61.0458 79.4827C61.7245 79.4827 62.3844 79.4037 63.0183 79.2545C65.3516 78.7037 67.3294 77.2004 68.539 75.1634C68.6052 75.0511 68.6706 74.937 68.7324 74.8202C68.7324 74.8202 68.7324 74.8202 68.7333 74.8202C69.1254 73.9261 68.8013 72.855 67.9552 72.3545" fill="#AEB2C6"/>
<path fill-rule="evenodd" clip-rule="evenodd" d="M63.0728 68.2856L60.2838 70.4817L58.9462 69.8509C58.8656 69.7997 58.3615 69.6937 58.0535 70.0127C57.7455 70.3298 57.7455 70.8456 58.0535 71.1628L59.7269 72.888C60.0349 73.2052 60.5345 73.2052 60.8425 72.888L64.1893 69.4358C64.4982 69.1177 64.4982 68.6028 64.1893 68.2847C63.8813 67.9667 63.3817 67.9676 63.0728 68.2856" fill="#AEB2C6"/>
<path fill-rule="evenodd" clip-rule="evenodd" d="M34.9273 40.759L69.8459 41.096C70.0313 41.0978 70.1799 41.2505 70.1781 41.4365C70.1763 41.6198 70.0286 41.7681 69.8459 41.7699L34.9273 42.1069C34.5566 42.1105 34.2531 41.8112 34.2495 41.4392C34.246 41.0672 34.5432 40.7626 34.9148 40.759C34.9175 40.759 34.9237 40.759 34.9273 40.759" fill="#42457B"/>
<path fill-rule="evenodd" clip-rule="evenodd" d="M34.9274 44.3533L64.0262 44.6902C64.2116 44.692 64.3602 44.8448 64.3584 45.0308C64.3557 45.2141 64.208 45.3614 64.0262 45.3641L34.9274 45.7011C34.5567 45.7056 34.2523 45.4073 34.2478 45.0353C34.2443 44.6624 34.5406 44.3578 34.9122 44.3533C34.9158 44.3533 34.9229 44.3533 34.9274 44.3533" fill="#42457B"/>
<path fill-rule="evenodd" clip-rule="evenodd" d="M34.9274 47.9475L54.8543 48.2845C55.0396 48.2872 55.1873 48.4408 55.1847 48.6268C55.1811 48.8092 55.0342 48.9548 54.8543 48.9584L34.9274 49.2953C34.5567 49.3016 34.2505 49.0051 34.2442 48.6331C34.238 48.2602 34.5343 47.9538 34.905 47.9475C34.9113 47.9475 34.9211 47.9475 34.9274 47.9475" fill="#42457B"/>
</svg>
