<svg width="1280" height="1190" viewBox="0 0 1280 1190" fill="none" xmlns="http://www.w3.org/2000/svg">
<g clip-path="url(#clip0)">
<path opacity="0.1" fill-rule="evenodd" clip-rule="evenodd" d="M1182.38 128.173C1163.94 170.62 1128.97 203.958 1085.42 219.541C977.315 258.218 899.642 360.919 898.026 481.988C895.935 638.685 1020.3 766.564 1176.92 768.551C1223.89 769.146 1268.27 758.274 1307.43 738.556C1362.93 710.615 1429.46 716.169 1479.7 752.735C1548.2 802.59 1632.53 832 1723.72 832C1955.05 832 2142.2 642.759 2138.96 410.565C2135.79 183.346 1949.27 0.161631 1722.15 1.00446C1703.19 1.07433 1684.54 2.41489 1666.26 4.94767C1633 9.5531 1599.14 3.53293 1569.19 -11.6465C1530.88 -31.0605 1487.56 -42 1441.68 -42C1325.59 -42 1225.86 28.0329 1182.38 128.173Z" fill="#009AF1"/>
<path opacity="0.1" fill-rule="evenodd" clip-rule="evenodd" d="M-487.185 411.455C-503.701 449.482 -535.039 479.349 -574.066 493.31C-670.93 527.96 -740.529 619.968 -741.977 728.431C-743.85 868.813 -632.41 983.377 -492.076 985.157C-449.988 985.69 -410.223 975.951 -375.129 958.285C-325.4 933.254 -265.788 938.229 -220.768 970.988C-159.385 1015.65 -83.8237 1042 -2.11045 1042C205.169 1042 372.865 872.463 369.963 664.445C367.124 460.883 199.992 296.772 -3.51994 297.527C-20.5061 297.589 -37.2237 298.79 -53.6014 301.06C-83.403 305.185 -113.741 299.792 -140.58 286.193C-174.907 268.801 -213.727 259 -254.838 259C-358.855 259 -448.222 321.741 -487.185 411.455Z" fill="#A374D7"/>
<g opacity="0.88">
<path fill-rule="evenodd" clip-rule="evenodd" d="M993.242 682.284L1001.32 677.806Z" fill="#A374D7"/>
<path d="M993.242 682.284L1001.32 677.806" stroke="#A374D7" stroke-width="2" stroke-linecap="round"/>
<path fill-rule="evenodd" clip-rule="evenodd" d="M995.043 676.005L999.522 684.085Z" fill="#A374D7"/>
<path d="M995.043 676.005L999.522 684.085" stroke="#A374D7" stroke-width="2" stroke-linecap="round"/>
</g>
<g opacity="0.81">
<path d="M111.417 681.177L120.353 675.15" stroke="#A374D7" stroke-width="2" stroke-linecap="round"/>
<path d="M112.871 673.696L118.899 682.631" stroke="#A374D7" stroke-width="2" stroke-linecap="round"/>
</g>
<g opacity="0.96">
<path d="M75.5327 508.594L84.1402 515.081" stroke="#03CAFF" stroke-width="2" stroke-linecap="round"/>
<path d="M83.0796 507.533L76.5937 516.141" stroke="#03CAFF" stroke-width="2" stroke-linecap="round"/>
</g>
<g opacity="0.92">
<path d="M169.82 350.028L166.839 361.98" stroke="#03CAFF" stroke-width="2" stroke-linecap="round"/>
<path d="M174.306 357.494L162.353 354.515" stroke="#03CAFF" stroke-width="2" stroke-linecap="round"/>
</g>
<g opacity="0.99">
<path d="M1214.36 713.927L1220.48 713.283" stroke="#03CAFF" stroke-width="2" stroke-linecap="round"/>
<path d="M1217.1 710.542L1217.74 716.668" stroke="#03CAFF" stroke-width="2" stroke-linecap="round"/>
</g>
<g opacity="0.94">
<path fill-rule="evenodd" clip-rule="evenodd" d="M1135.98 402.048L1129.11 395.866Z" fill="#A374D7"/>
<path d="M1135.98 402.048L1129.11 395.866" stroke="#A374D7" stroke-width="2" stroke-linecap="round"/>
<path fill-rule="evenodd" clip-rule="evenodd" d="M1129.45 402.39L1135.63 395.524Z" fill="#A374D7"/>
<path d="M1129.45 402.39L1135.63 395.524" stroke="#A374D7" stroke-width="2" stroke-linecap="round"/>
</g>
<path d="M1027.44 520.472L1033.6 520.473" stroke="#03CAFF" stroke-width="2" stroke-linecap="round"/>
<path d="M1030.52 517.393L1030.52 523.552" stroke="#03CAFF" stroke-width="2" stroke-linecap="round"/>
<g opacity="0.91">
<path d="M324.97 422.567L324.033 414.926" stroke="#A374D7" stroke-width="2" stroke-linecap="round"/>
<path d="M320.681 419.216L328.322 418.277" stroke="#A374D7" stroke-width="2" stroke-linecap="round"/>
</g>
<g opacity="0.78">
<path fill-rule="evenodd" clip-rule="evenodd" d="M934.852 364.266L942.215 366.518Z" fill="#A374D7"/>
<path d="M934.852 364.266L942.215 366.518" stroke="#A374D7" stroke-width="2" stroke-linecap="round"/>
<path fill-rule="evenodd" clip-rule="evenodd" d="M939.659 361.711L937.408 369.074Z" fill="#A374D7"/>
<path d="M939.659 361.711L937.408 369.074" stroke="#A374D7" stroke-width="2" stroke-linecap="round"/>
</g>
<g opacity="0.99">
<path d="M492.67 718.663L496.863 712.207" stroke="#03CAFF" stroke-width="2" stroke-linecap="round"/>
<path d="M491.538 713.339L497.995 717.531" stroke="#03CAFF" stroke-width="2" stroke-linecap="round"/>
</g>
<g opacity="0.84">
<path d="M398.803 736.356L404.514 734.049" stroke="#03CAFF" stroke-width="2" stroke-linecap="round"/>
<path d="M400.505 732.347L402.813 738.057" stroke="#03CAFF" stroke-width="2" stroke-linecap="round"/>
</g>
<g opacity="0.94">
<path d="M255.215 638.209L246.066 639.495" stroke="#03CAFF" stroke-width="2" stroke-linecap="round"/>
<path d="M251.284 643.427L249.997 634.278" stroke="#03CAFF" stroke-width="2" stroke-linecap="round"/>
</g>
<g opacity="0.91">
<path fill-rule="evenodd" clip-rule="evenodd" d="M1156.51 816.336C1154.39 816.15 1152.52 817.718 1152.34 819.837C1152.15 821.957 1153.72 823.825 1155.84 824.011C1157.96 824.196 1159.82 822.628 1160.01 820.509C1160.19 818.389 1158.63 816.521 1156.51 816.336Z" fill="#03CAFF"/>
</g>
<g opacity="0.93">
<path fill-rule="evenodd" clip-rule="evenodd" d="M1158.14 597.951C1158.6 599.664 1160.36 600.68 1162.07 600.221C1163.79 599.762 1164.8 598.002 1164.34 596.29C1163.89 594.577 1162.13 593.561 1160.41 594.02C1158.7 594.479 1157.68 596.239 1158.14 597.951Z" fill="#A374D7"/>
</g>
<g opacity="0.76">
<path fill-rule="evenodd" clip-rule="evenodd" d="M1084.45 323.717C1083.79 322.879 1082.58 322.73 1081.74 323.385C1080.9 324.04 1080.76 325.25 1081.41 326.088C1082.07 326.927 1083.28 327.075 1084.11 326.42C1084.95 325.765 1085.1 324.555 1084.45 323.717Z" fill="#03CAFF"/>
</g>
<g opacity="0.82">
<path fill-rule="evenodd" clip-rule="evenodd" d="M338.121 940.009C337.083 939.042 335.459 939.099 334.491 940.136C333.524 941.173 333.581 942.798 334.618 943.765C335.655 944.733 337.28 944.676 338.247 943.638C339.214 942.601 339.158 940.976 338.121 940.009Z" fill="#03CAFF"/>
</g>
<path fill-rule="evenodd" clip-rule="evenodd" d="M294.016 499.159C294.164 500.57 295.428 501.593 296.838 501.445C298.249 501.296 299.272 500.033 299.124 498.622C298.976 497.212 297.712 496.189 296.301 496.337C294.891 496.486 293.868 497.749 294.016 499.159Z" fill="#03CAFF"/>
<g opacity="0.88">
<path fill-rule="evenodd" clip-rule="evenodd" d="M119.176 892.854C119.753 891.558 119.17 890.04 117.875 889.463C116.579 888.887 115.061 889.469 114.484 890.765C113.908 892.06 114.49 893.578 115.786 894.155C117.082 894.732 118.6 894.149 119.176 892.854Z" fill="#03CAFF"/>
</g>
</g>
<defs>
<clipPath id="clip0">
<rect width="1280" height="1190" fill="white"/>
</clipPath>
</defs>
</svg>
