<svg width="959" height="337" viewBox="0 0 959 337" fill="none" xmlns="http://www.w3.org/2000/svg">
<mask id="mask0" mask-type="alpha" maskUnits="userSpaceOnUse" x="0" y="0" width="959" height="337">
<rect width="959" height="337" rx="8" fill="#EDEEF0"/>
</mask>
<g mask="url(#mask0)">
<path opacity="0.15" d="M85.8596 192.811C88.4304 201.624 92.1286 210.24 98.0136 217.368C103.474 223.906 109.603 230.338 117.649 233.632C126.635 238.011 137.061 238.391 146.638 235.887C156.882 233.443 168.192 229.436 173.627 219.694C182.744 205.514 183.382 187.499 178.725 171.7C176.179 162.974 172.949 153.068 164.705 148.126C156.119 141.826 144.945 143.264 135.137 145.195C123.526 148.163 111.802 151.363 101.198 157.101C93.9609 161.256 86.3972 167.171 84.8075 175.861C83.4311 181.45 84.5863 187.301 85.8596 192.811Z" fill="#ED6E51"/>
<path opacity="0.15" d="M763.86 156.811C766.43 165.624 770.129 174.24 776.014 181.368C781.474 187.906 787.603 194.338 795.649 197.632C804.635 202.011 815.061 202.391 824.638 199.887C834.882 197.443 846.192 193.436 851.627 183.694C860.744 169.514 861.382 151.499 856.725 135.7C854.179 126.974 850.949 117.068 842.705 112.126C834.119 105.826 822.945 107.264 813.137 109.195C801.526 112.163 789.802 115.363 779.198 121.101C771.961 125.256 764.397 131.171 762.808 139.861C761.431 145.45 762.586 151.301 763.86 156.811Z" fill="#A374D7"/>
<path d="M212.725 147.393C213.848 148.432 213.688 150.039 213.423 151.368C212.684 152.949 210.918 154.174 209.048 153.98C206.422 154.193 204.327 151.288 205.202 148.974C205.872 145.843 210.713 144.969 212.725 147.393Z" fill="#F1BD45"/>
<path d="M87.7245 275.393C88.8485 276.432 88.6879 278.039 88.423 279.368C87.6844 280.949 85.9181 282.174 84.0475 281.98C81.4222 282.193 79.3268 279.288 80.2019 276.974C80.8723 273.843 85.7134 272.969 87.7245 275.393Z" fill="#009AF1"/>
<path d="M68.7245 119.393C69.8485 120.432 69.6879 122.039 69.423 123.368C68.6844 124.949 66.9181 126.174 65.0475 125.98C62.4222 126.193 60.3268 123.288 61.2019 120.974C61.8723 117.843 66.7134 116.969 68.7245 119.393Z" fill="#A374D7"/>
<path d="M841.725 74.3933C842.848 75.4318 842.688 77.0393 842.423 78.368C841.684 79.9487 839.918 81.1743 838.048 80.9796C835.422 81.1934 833.327 78.2878 834.202 75.974C834.872 72.8431 839.713 71.9687 841.725 74.3933Z" fill="#ED6E51"/>
<path d="M777.725 235.393C778.848 236.432 778.688 238.039 778.423 239.368C777.684 240.949 775.918 242.174 774.048 241.98C771.422 242.193 769.327 239.288 770.202 236.974C770.872 233.843 775.713 232.969 777.725 235.393Z" fill="#009AF1"/>
<g opacity="0.96">
<path d="M207.533 260.594L216.14 267.081" stroke="#ED6E51" stroke-width="2" stroke-linecap="round"/>
<path d="M215.079 259.533L208.593 268.142" stroke="#ED6E51" stroke-width="2" stroke-linecap="round"/>
</g>
<g opacity="0.96">
<path d="M886.533 140.594L895.14 147.081" stroke="#A374D7" stroke-width="2" stroke-linecap="round"/>
<path d="M894.079 139.533L887.593 148.142" stroke="#A374D7" stroke-width="2" stroke-linecap="round"/>
</g>
<g opacity="0.96">
<path d="M825.533 293.594L834.14 300.081" stroke="#ED6E51" stroke-width="2" stroke-linecap="round"/>
<path d="M833.079 292.533L826.593 301.142" stroke="#ED6E51" stroke-width="2" stroke-linecap="round"/>
</g>
<g opacity="0.96">
<path d="M130.533 72.5935L139.14 79.0807" stroke="#009AF1" stroke-width="2" stroke-linecap="round"/>
<path d="M138.079 71.533L131.593 80.1414" stroke="#009AF1" stroke-width="2" stroke-linecap="round"/>
</g>
<path fill-rule="evenodd" clip-rule="evenodd" d="M164.985 195.034C159.416 210.949 142.003 219.336 126.093 213.768C110.182 208.201 101.799 190.786 107.368 174.872C112.937 158.958 130.349 150.57 146.26 156.138C162.17 161.706 170.554 179.12 164.985 195.034" fill="#5ABCF4"/>
<path fill-rule="evenodd" clip-rule="evenodd" d="M164.056 197.379C164.056 197.379 171.261 189.96 174.374 185.238C175.453 183.599 174.271 181.469 172.136 181.714C170 181.96 168.285 182.314 166.421 182.922" fill="#40B2F2"/>
<path fill-rule="evenodd" clip-rule="evenodd" d="M107.246 175.22C107.246 175.22 101.043 180.946 98.1012 185.777C97.0813 187.453 98.529 189.539 100.464 189.217C102.588 188.865 103.482 188.623 105.77 187.829" fill="#5ABCF4"/>
<path fill-rule="evenodd" clip-rule="evenodd" d="M146.26 156.138C144.689 155.588 143.104 155.18 141.517 154.896C154.461 161.905 160.779 177.463 155.76 191.806C150.741 206.149 136.1 214.373 121.611 211.781C123.028 212.55 124.522 213.219 126.093 213.769C142.003 219.336 159.416 210.949 164.985 195.034C170.554 179.12 162.171 161.706 146.26 156.138" fill="#40B2F2"/>
<path fill-rule="evenodd" clip-rule="evenodd" d="M164.337 194.808C164.337 194.808 164.547 194.106 164.94 192.79C165.168 192.139 165.332 191.309 165.509 190.327C165.594 189.838 165.722 189.316 165.793 188.749C165.844 188.181 165.897 187.577 165.954 186.938C166.116 184.391 166.084 181.227 165.191 177.751C164.334 174.286 162.748 170.482 160.108 166.938C157.471 163.421 153.75 160.179 149.25 157.952C148.111 157.432 146.85 156.893 145.669 156.492C144.419 156.143 143.174 155.696 141.854 155.513C139.253 154.942 136.512 154.885 133.764 155.06C131.006 155.259 128.265 155.954 125.593 156.903C122.935 157.92 120.423 159.355 118.09 161.067C115.788 162.831 113.76 164.957 112.001 167.294C110.281 169.695 108.997 172.255 107.93 175.101C107.052 177.84 106.429 180.773 106.302 183.686C106.231 186.608 106.504 189.527 107.213 192.331C107.978 195.116 109.058 197.79 110.5 200.23C112.001 202.626 113.71 204.865 115.738 206.728C117.765 208.561 119.963 210.225 122.31 211.372C123.421 212.031 124.715 212.475 125.927 212.985C127.098 213.4 128.365 213.758 129.571 214.064C134.496 215.149 139.374 214.945 143.628 213.859C147.89 212.751 151.499 210.785 154.332 208.625C157.2 206.48 159.202 204.037 160.67 201.952C161.025 201.419 161.362 200.914 161.679 200.439C161.976 199.956 162.199 199.477 162.436 199.047C162.908 198.187 163.298 197.444 163.538 196.77C164.067 195.469 164.35 194.775 164.35 194.775L164.337 194.808ZM165.62 195.293C165.62 195.293 165.337 195.987 164.805 197.287C164.574 197.941 164.164 198.735 163.658 199.662C163.405 200.123 163.161 200.638 162.847 201.147C162.516 201.644 162.163 202.171 161.792 202.729C160.255 204.909 158.154 207.46 155.155 209.702C152.193 211.957 148.42 214.006 143.965 215.161C139.519 216.292 134.418 216.502 129.276 215.36C127.995 215.035 126.738 214.683 125.426 214.213C124.206 213.696 122.959 213.271 121.733 212.555C119.219 211.315 116.974 209.599 114.85 207.674C112.739 205.723 110.958 203.385 109.404 200.882C107.904 198.336 106.785 195.546 105.996 192.643C105.262 189.719 104.985 186.677 105.067 183.634C105.217 180.573 105.838 177.605 106.805 174.642C107.85 171.88 109.273 169.053 111.062 166.609C112.901 164.189 115.021 161.995 117.42 160.18C119.848 158.415 122.462 156.951 125.213 155.903C127.984 154.925 130.825 154.218 133.681 154.017C139.374 153.558 144.98 154.783 149.657 157.001C154.415 159.31 158.236 162.615 161.017 166.255C163.782 169.915 165.463 173.854 166.384 177.453C167.342 181.065 167.406 184.364 167.257 187.026C167.203 187.693 167.15 188.324 167.102 188.919C167.033 189.51 166.905 190.057 166.82 190.569C166.644 191.596 166.476 192.465 166.245 193.146C165.846 194.526 165.633 195.261 165.633 195.261L165.62 195.293Z" fill="#42457B"/>
<path fill-rule="evenodd" clip-rule="evenodd" d="M129.823 164.938C129.823 164.938 130.281 164.539 130.998 164.011C131.719 163.477 132.741 162.851 133.845 162.314C134.946 161.784 136.161 161.359 137.176 161.254C137.687 161.216 138.117 161.214 138.428 161.275C138.735 161.331 138.91 161.363 138.91 161.363C139.536 161.476 139.951 162.078 139.837 162.705C139.734 163.269 139.235 163.662 138.68 163.651L138.473 163.647C138.473 163.647 138.361 163.644 138.164 163.641C137.978 163.608 137.683 163.63 137.329 163.604C136.966 163.624 136.525 163.623 136.04 163.695C135.556 163.774 135.03 163.88 134.506 164.034C133.453 164.33 132.419 164.773 131.647 165.118C130.869 165.469 130.384 165.737 130.384 165.737C130.147 165.869 129.848 165.783 129.717 165.546C129.602 165.341 129.652 165.087 129.823 164.938" fill="#42457B"/>
<path fill-rule="evenodd" clip-rule="evenodd" d="M155.143 175.798C155.143 175.798 154.923 175.292 154.519 174.543C154.119 173.802 153.564 172.825 152.907 171.951C152.584 171.51 152.231 171.106 151.892 170.75C151.548 170.399 151.202 170.127 150.921 169.891C150.621 169.694 150.396 169.5 150.224 169.413C150.061 169.3 149.967 169.234 149.967 169.234L149.811 169.126C149.309 168.779 149.183 168.089 149.531 167.586C149.85 167.126 150.453 166.982 150.939 167.228C150.939 167.228 151.096 167.308 151.371 167.446C151.655 167.582 151.997 167.838 152.384 168.169C152.756 168.507 153.126 168.946 153.482 169.424C153.824 169.909 154.159 170.435 154.447 170.975C155.025 172.056 155.482 173.166 155.756 174.019C156.027 174.866 156.165 175.46 156.165 175.46C156.232 175.752 156.051 176.042 155.761 176.109C155.504 176.168 155.245 176.032 155.143 175.798" fill="#42457B"/>
<path fill-rule="evenodd" clip-rule="evenodd" d="M134.758 184.666C134.758 184.666 135.589 185.305 136.734 186.368C137.298 186.91 137.968 187.531 138.639 188.257C138.972 188.623 139.322 188.997 139.652 189.422C139.819 189.627 139.985 189.858 140.151 190.095L140.346 190.417C140.371 190.474 140.473 190.569 140.303 190.382C140.191 190.281 139.999 190.224 139.86 190.232C139.576 190.266 139.595 190.352 139.626 190.295C139.655 190.273 139.714 190.205 139.767 190.131C139.876 189.979 139.99 189.788 140.092 189.587C140.295 189.183 140.491 188.751 140.652 188.325C140.972 187.468 141.246 186.64 141.398 185.923C141.55 185.205 141.658 184.607 141.666 184.197C141.686 183.785 141.665 183.56 141.665 183.56C141.643 183.314 141.825 183.095 142.072 183.074C142.274 183.056 142.456 183.173 142.529 183.35L142.532 183.359C142.532 183.359 142.644 183.638 142.721 184.131C142.791 184.622 142.848 185.321 142.76 186.135C142.672 186.947 142.528 187.887 142.224 188.863C142.068 189.352 141.901 189.857 141.65 190.364C141.528 190.617 141.388 190.875 141.205 191.145C141.11 191.282 141.01 191.418 140.852 191.573C140.707 191.702 140.498 191.947 139.958 192.008C139.693 192.033 139.364 191.924 139.159 191.74C138.882 191.477 138.921 191.457 138.875 191.407L138.673 191.067C138.545 190.88 138.415 190.691 138.265 190.501C137.973 190.122 137.67 189.736 137.367 189.373C136.753 188.636 136.181 187.949 135.691 187.36C134.701 186.177 134.063 185.362 134.063 185.362C133.896 185.147 133.934 184.835 134.149 184.668C134.331 184.525 134.583 184.532 134.758 184.666" fill="#42457B"/>
<path fill-rule="evenodd" clip-rule="evenodd" d="M128.709 172.293C128.699 172.305 128.861 172.126 129.112 171.906C129.372 171.68 129.753 171.373 130.262 171.073C130.77 170.774 131.414 170.477 132.169 170.341C132.546 170.273 132.946 170.256 133.35 170.283C133.769 170.333 134.123 170.409 134.567 170.578C134.731 170.659 134.884 170.72 135.057 170.816C135.238 170.934 135.435 171.047 135.589 171.177C135.899 171.434 136.17 171.721 136.381 172.031C136.81 172.642 137.047 173.286 137.192 173.835C137.336 174.387 137.39 174.854 137.414 175.183C137.438 175.511 137.432 175.713 137.432 175.713C137.426 175.909 137.262 176.064 137.065 176.058C136.876 176.052 136.724 175.897 136.719 175.709C136.719 175.709 136.715 175.552 136.676 175.257C136.635 174.965 136.561 174.544 136.404 174.064C136.248 173.588 136.007 173.051 135.635 172.586C135.454 172.35 135.23 172.146 134.988 171.965C134.868 171.876 134.746 171.824 134.63 171.745C134.49 171.677 134.305 171.612 134.146 171.544C133.911 171.479 133.565 171.411 133.281 171.4C132.98 171.4 132.686 171.429 132.407 171.496C131.845 171.634 131.346 171.898 130.948 172.165C130.547 172.435 130.244 172.71 130.043 172.908C129.836 173.114 129.765 173.209 129.755 173.219C129.499 173.508 129.058 173.534 128.77 173.279C128.48 173.024 128.454 172.583 128.709 172.293" fill="#42457B"/>
<path fill-rule="evenodd" clip-rule="evenodd" d="M142.631 177.357C142.631 177.357 143.088 176.757 144.012 176.117C144.474 175.801 145.066 175.48 145.776 175.302C146.131 175.214 146.512 175.173 146.905 175.175C147.308 175.197 147.665 175.248 148.102 175.388C148.272 175.456 148.431 175.506 148.608 175.59C148.792 175.696 148.995 175.796 149.157 175.917C149.482 176.155 149.775 176.429 150.009 176.727C150.486 177.323 150.773 177.966 150.96 178.521C151.144 179.08 151.233 179.559 151.282 179.899C151.33 180.237 151.337 180.445 151.336 180.46C151.336 180.846 151.021 181.157 150.636 181.156C150.25 181.154 149.938 180.841 149.94 180.455C149.936 180.495 149.987 179.821 149.762 178.87C149.649 178.4 149.457 177.865 149.133 177.381C148.974 177.137 148.773 176.917 148.545 176.718C148.435 176.619 148.319 176.556 148.206 176.465C148.069 176.383 147.892 176.307 147.736 176.229C147.497 176.133 147.152 176.038 146.852 176.001C146.54 175.976 146.228 175.979 145.925 176.029C145.319 176.126 144.768 176.364 144.324 176.615C143.43 177.129 142.959 177.648 142.959 177.648C142.878 177.737 142.739 177.744 142.65 177.663C142.566 177.586 142.554 177.458 142.622 177.369L142.631 177.357Z" fill="#42457B"/>
<path fill-rule="evenodd" clip-rule="evenodd" d="M163.749 197.082C163.749 197.082 164.899 195.845 166.566 193.935C168.227 192.025 170.474 189.491 172.471 186.8C172.956 186.141 173.475 185.411 173.857 184.793C174.185 184.241 174.163 183.612 173.873 183.145C173.584 182.675 173.071 182.434 172.543 182.422C172.31 182.423 171.942 182.465 171.606 182.508C171.275 182.554 170.955 182.598 170.647 182.641C169.421 182.837 168.412 183.03 167.707 183.197C167 183.366 166.596 183.461 166.596 183.461L166.245 182.382C166.245 182.382 166.652 182.233 167.363 181.972C168.084 181.734 169.135 181.427 170.42 181.225C170.742 181.176 171.076 181.126 171.423 181.074C171.766 181.028 172.102 180.968 172.597 180.977C173.514 181.005 174.549 181.511 175.07 182.436C175.619 183.333 175.573 184.581 175.022 185.449C174.511 186.24 174.024 186.877 173.492 187.573C171.378 190.273 169.096 192.792 167.338 194.642C165.576 196.484 164.363 197.677 164.363 197.677L163.749 197.082Z" fill="#42457B"/>
<path fill-rule="evenodd" clip-rule="evenodd" d="M143.842 155.458C143.842 155.458 143.604 154.505 143.057 153.102C142.51 151.711 141.659 149.895 140.548 148.266C140.254 147.873 139.992 147.455 139.679 147.09C139.367 146.727 139.087 146.343 138.757 146.031C138.437 145.709 138.148 145.378 137.822 145.125C137.501 144.868 137.232 144.58 136.927 144.394C136.35 143.972 135.854 143.657 135.48 143.483C135.119 143.289 134.912 143.176 134.912 143.176L134.814 143.123C134.34 142.867 134.165 142.276 134.421 141.803C134.677 141.33 135.267 141.154 135.741 141.41C135.754 141.417 135.772 141.427 135.786 141.436C135.786 141.436 136.02 141.58 136.431 141.83C136.855 142.063 137.411 142.462 138.041 142.981C138.377 143.218 138.665 143.554 139.006 143.868C139.355 144.178 139.656 144.558 139.987 144.936C140.33 145.305 140.614 145.737 140.929 146.155C141.245 146.572 141.501 147.034 141.792 147.476C142.877 149.288 143.651 151.236 144.137 152.718C144.617 154.194 144.816 155.237 144.816 155.237C144.87 155.508 144.697 155.772 144.426 155.827C144.166 155.88 143.91 155.712 143.842 155.458" fill="#42457B"/>
<path fill-rule="evenodd" clip-rule="evenodd" d="M137.263 154.71C137.263 154.71 137.13 154.216 136.831 153.486C136.532 152.765 136.071 151.824 135.478 150.989C135.178 150.576 134.863 150.179 134.53 149.849C134.362 149.687 134.21 149.52 134.04 149.392C133.872 149.264 133.733 149.117 133.575 149.027C132.983 148.598 132.527 148.449 132.537 148.428C132.179 148.248 132.034 147.812 132.213 147.452C132.394 147.093 132.831 146.948 133.189 147.128C133.189 147.128 133.316 147.208 133.537 147.347C133.765 147.478 134.062 147.697 134.399 147.982C134.578 148.114 134.73 148.296 134.911 148.468C135.096 148.637 135.256 148.844 135.43 149.049C135.775 149.462 136.086 149.938 136.372 150.421C137.508 152.375 137.909 154.564 137.909 154.564C137.943 154.744 137.824 154.917 137.644 154.95C137.473 154.982 137.308 154.875 137.263 154.71" fill="#42457B"/>
<path fill-rule="evenodd" clip-rule="evenodd" d="M119.45 210.4L115.082 219.586C115.009 219.74 114.825 219.804 114.672 219.731C114.522 219.661 114.456 219.484 114.521 219.334L118.521 209.98C118.632 209.721 118.931 209.601 119.19 209.711C119.45 209.822 119.57 210.122 119.458 210.382C119.456 210.387 119.452 210.394 119.45 210.4" fill="#42457B"/>
<path fill-rule="evenodd" clip-rule="evenodd" d="M134.452 215.56L131.686 225.341C131.639 225.507 131.467 225.603 131.302 225.556C131.14 225.511 131.046 225.345 131.085 225.184L133.486 215.306C133.551 215.037 133.821 214.873 134.09 214.939C134.357 215.003 134.523 215.274 134.457 215.542C134.455 215.548 134.454 215.555 134.452 215.56" fill="#42457B"/>
<mask id="mask1" mask-type="alpha" maskUnits="userSpaceOnUse" x="96" y="173" width="15" height="19">
<path fill-rule="evenodd" clip-rule="evenodd" d="M101.894 173.18L96.4513 188.733L104.868 191.679L110.311 176.125L101.894 173.18V173.18Z" fill="white"/>
</mask>
<g mask="url(#mask1)">
<path fill-rule="evenodd" clip-rule="evenodd" d="M107.476 175.468C107.476 175.468 106.361 176.524 104.776 178.205C103.203 179.889 101.138 182.191 99.4169 184.705C99.0102 185.33 98.5118 185.998 98.3567 186.534C98.2244 187.09 98.403 187.695 98.7807 188.099C99.1624 188.501 99.6889 188.7 100.184 188.645C100.726 188.577 101.412 188.429 101.938 188.314C103.036 188.067 103.922 187.763 104.556 187.545C105.187 187.318 105.549 187.189 105.549 187.189L105.992 188.467C105.992 188.467 105.621 188.588 104.972 188.798C104.324 189.003 103.368 189.302 102.195 189.531C101.584 189.641 101.041 189.757 100.261 189.834C99.4303 189.9 98.5239 189.531 97.9339 188.854C97.3421 188.182 97.0669 187.185 97.321 186.256C97.4017 185.995 97.4982 185.77 97.5856 185.626C97.7133 185.388 97.8081 185.278 97.9198 185.098C98.1337 184.766 98.3553 184.441 98.5901 184.125C100.437 181.582 102.58 179.322 104.215 177.664C105.858 176.012 107.018 174.973 107.018 174.973L107.476 175.468Z" fill="#42457B"/>
</g>
<path fill-rule="evenodd" clip-rule="evenodd" d="M844.669 165.304L804.087 189.825C801.966 191.107 799.185 190.427 797.908 188.315L781.201 160.665C780.735 159.893 780.708 158.934 781.129 158.135L795.231 131.387C795.592 130.703 796.303 130.273 797.076 130.272L827.289 130.241C828.194 130.24 829.032 130.711 829.499 131.483L846.205 159.131C847.482 161.244 846.79 164.022 844.669 165.304" fill="#F5F6FB"/>
<path d="M844.669 165.304L804.087 189.825C801.966 191.107 799.185 190.427 797.908 188.315L781.201 160.665C780.735 159.893 780.708 158.934 781.129 158.135L795.231 131.387C795.592 130.703 796.303 130.273 797.076 130.272L827.289 130.241C828.194 130.24 829.032 130.711 829.499 131.483L846.205 159.131C847.482 161.244 846.79 164.022 844.669 165.304" stroke="#42457B" stroke-width="1.125"/>
<path fill-rule="evenodd" clip-rule="evenodd" d="M829.501 131.486C830.127 132.523 830.297 133.731 829.97 134.666L818.679 166.026C818.387 166.82 817.678 167.248 816.839 167.137L783.804 162.562C782.813 162.423 781.834 161.705 781.207 160.667C780.741 159.895 780.706 158.936 781.131 158.138L795.238 131.388C795.596 130.704 796.306 130.276 797.077 130.277L827.297 130.242C828.19 130.244 829.034 130.714 829.501 131.486" fill="#D2D4DF"/>
<path fill-rule="evenodd" clip-rule="evenodd" d="M781.207 160.667C781.834 161.704 782.813 162.423 783.804 162.562L816.839 167.137C817.678 167.248 818.387 166.82 818.679 166.026L829.97 134.666C830.297 133.73 830.127 132.523 829.5 131.486" fill="#D2D4DF"/>
<mask id="mask2" mask-type="alpha" maskUnits="userSpaceOnUse" x="769" y="112" width="81" height="81">
<path fill-rule="evenodd" clip-rule="evenodd" d="M820.316 115.227L849.286 163.171L800.093 192.896L769.694 142.588L818.887 112.863L820.316 115.227L771.123 144.952L800.093 192.896L849.286 163.171L820.316 115.227L820.316 115.227Z" fill="white"/>
</mask>
<g mask="url(#mask2)">
<path fill-rule="evenodd" clip-rule="evenodd" d="M844.378 164.822C844.345 164.798 845.037 164.548 845.716 163.486C846.035 162.955 846.314 162.201 846.29 161.293C846.276 160.849 846.169 160.341 845.98 159.901C845.948 159.798 845.861 159.653 845.793 159.522L845.74 159.421L845.695 159.345L845.575 159.146C845.414 158.877 845.248 158.601 845.077 158.317C842.352 153.776 838.458 147.287 833.785 139.502C832.618 137.554 831.403 135.526 830.146 133.426C829.831 132.901 829.514 132.372 829.194 131.838C828.925 131.341 828.534 131.001 828.033 130.81C827.91 130.762 827.782 130.728 827.651 130.706C827.584 130.694 827.524 130.688 827.466 130.681C827.409 130.676 827.297 130.673 827.249 130.673L826.288 130.673C825.644 130.676 824.997 130.679 824.345 130.683C819.126 130.71 813.622 130.738 807.929 130.766C805.083 130.784 802.188 130.8 799.259 130.818C798.528 130.822 797.795 130.827 797.06 130.831C796.518 130.841 795.998 131.137 795.73 131.639C795.04 132.942 794.347 134.251 793.65 135.567C790.853 140.849 788.011 146.216 785.169 151.583L783.039 155.607L781.974 157.616L781.709 158.118L781.576 158.368C781.543 158.437 781.508 158.505 781.482 158.576C781.37 158.859 781.319 159.166 781.34 159.47C781.358 159.772 781.446 160.074 781.591 160.334L782.161 161.289L783.324 163.22C784.097 164.505 784.868 165.786 785.636 167.063C788.709 172.168 791.733 177.193 794.659 182.055C795.391 183.271 796.116 184.477 796.834 185.671C797.193 186.268 797.552 186.862 797.907 187.453C798.274 188.069 798.572 188.591 799.04 189.005C799.954 189.831 801.253 190.216 802.455 190.005C802.75 189.954 803.062 189.875 803.32 189.761C803.449 189.717 803.596 189.642 803.744 189.561L803.854 189.502C803.865 189.497 803.909 189.474 803.891 189.483L803.945 189.451L804.158 189.325C804.727 188.986 805.292 188.65 805.853 188.315C810.338 185.634 814.578 183.1 818.492 180.761C820.446 179.588 822.32 178.463 824.102 177.394C825.872 176.306 827.551 175.273 829.13 174.303C832.271 172.338 835.009 170.624 837.264 169.213C839.513 167.793 841.306 166.718 842.516 165.966C843.73 165.22 844.378 164.822 844.378 164.822M844.96 165.785C844.96 165.785 844.306 166.173 843.081 166.901C841.852 167.622 840.067 168.71 837.764 170.041C835.466 171.381 832.676 173.008 829.475 174.874C827.882 175.82 826.187 176.827 824.401 177.888C822.625 178.968 820.758 180.104 818.811 181.288C814.919 183.665 810.704 186.24 806.245 188.964C805.688 189.305 805.127 189.648 804.563 189.995L804.352 190.124L804.227 190.197L804.118 190.257C803.976 190.337 803.828 190.417 803.644 190.489C803.293 190.646 802.953 190.735 802.59 190.804C801.151 191.074 799.587 190.641 798.46 189.651C797.887 189.162 797.482 188.48 797.146 187.913C796.788 187.323 796.429 186.73 796.067 186.134C795.345 184.943 794.614 183.74 793.879 182.527C790.935 177.675 787.893 172.661 784.802 167.567C784.029 166.293 783.254 165.015 782.475 163.732L781.306 161.805L780.716 160.825C780.494 160.428 780.365 159.989 780.336 159.538C780.304 159.089 780.376 158.632 780.542 158.211C780.582 158.105 780.631 158.003 780.682 157.902L780.813 157.651L781.078 157.148L782.134 155.134L784.25 151.103C787.073 145.726 789.895 140.35 792.673 135.056C793.372 133.728 794.067 132.404 794.759 131.088C795.188 130.274 796.115 129.704 797.053 129.715C797.792 129.718 798.528 129.72 799.261 129.723C802.192 129.733 805.085 129.745 807.932 129.755C813.625 129.772 819.128 129.789 824.347 129.804C824.999 129.806 825.647 129.808 826.29 129.809L827.252 129.808C827.364 129.809 827.411 129.809 827.513 129.816C827.613 129.823 827.712 129.834 827.801 129.85C827.984 129.88 828.164 129.927 828.338 129.992C829.03 130.232 829.632 130.782 829.955 131.379C830.279 131.91 830.6 132.437 830.918 132.959C832.192 135.049 833.423 137.068 834.604 139.007C839.323 146.765 843.256 153.229 846.009 157.754C846.181 158.036 846.349 158.312 846.511 158.58L846.632 158.779L846.704 158.902L846.759 159.004C846.83 159.142 846.903 159.253 846.971 159.428C847.252 160.07 847.366 160.664 847.394 161.248C847.431 162.41 847.081 163.374 846.674 164.057C846.255 164.74 845.798 165.17 845.473 165.424C845.144 165.674 844.96 165.785 844.96 165.785" fill="#42457B"/>
</g>
<path fill-rule="evenodd" clip-rule="evenodd" d="M809.91 166.177L787.954 163.136L775.79 143.006C774.854 141.456 775.356 139.436 776.914 138.495L811.331 117.698C812.888 116.758 814.91 117.252 815.846 118.802L828.268 139.359L821.135 159.394" fill="white"/>
<path fill-rule="evenodd" clip-rule="evenodd" d="M787.765 163.341C787.765 163.341 786.962 162.038 785.555 159.759C784.163 157.471 782.173 154.203 779.785 150.281C778.593 148.318 777.302 146.192 775.937 143.944C775.615 143.4 775.173 142.799 775.05 142.036C774.905 141.3 775.039 140.522 775.363 139.849C775.699 139.18 776.24 138.6 776.892 138.242C777.498 137.877 778.11 137.507 778.727 137.135C783.662 134.156 788.927 130.98 794.191 127.803C799.456 124.626 804.721 121.45 809.656 118.471C810.279 118.101 810.87 117.725 811.505 117.368C812.196 117.027 812.962 116.916 813.695 117.051C814.429 117.171 815.107 117.541 815.62 118.06C816.137 118.615 816.403 119.213 816.766 119.763C818.139 122.008 819.436 124.13 820.633 126.089C825.424 133.923 828.618 139.147 828.618 139.147L827.918 139.57C827.918 139.57 824.779 134.313 820.071 126.429C818.894 124.458 817.618 122.322 816.269 120.064C815.92 119.513 815.617 118.882 815.225 118.432C814.806 117.979 814.238 117.638 813.606 117.515C812.979 117.377 812.288 117.466 811.702 117.735C811.095 118.057 810.485 118.459 809.868 118.822C804.936 121.806 799.675 124.989 794.414 128.172C789.154 131.355 783.893 134.538 778.961 137.522C778.345 137.895 777.733 138.265 777.127 138.632C776.547 138.975 776.099 139.476 775.864 140.072C775.629 140.663 775.583 141.31 775.726 141.896C775.834 142.484 776.218 142.988 776.553 143.571C777.909 145.825 779.19 147.957 780.373 149.925C782.735 153.863 784.703 157.145 786.08 159.442C787.444 161.747 788.224 163.064 788.224 163.064L787.765 163.341Z" fill="#42457B" stroke="#42457B" stroke-width="0.5"/>
<path fill-rule="evenodd" clip-rule="evenodd" d="M808.897 141.201V141.201C808.046 141.715 806.931 141.442 806.419 140.595V140.595C805.907 139.748 806.185 138.634 807.036 138.12V138.12C807.887 137.606 809.002 137.878 809.514 138.725V138.725C810.026 139.573 809.748 140.687 808.897 141.201" fill="#42457B"/>
<path fill-rule="evenodd" clip-rule="evenodd" d="M797.492 148.092V148.092C796.641 148.607 795.526 148.334 795.014 147.487V147.487C794.502 146.639 794.78 145.526 795.631 145.012V145.012C796.482 144.498 797.596 144.77 798.108 145.617V145.617C798.62 146.464 798.343 147.578 797.492 148.092" fill="#42457B"/>
<path fill-rule="evenodd" clip-rule="evenodd" d="M802.59 154.424C802.59 154.424 803.487 154.026 804.801 153.286C805.451 152.911 806.209 152.469 806.986 151.941C807.381 151.688 807.771 151.402 808.171 151.114C808.575 150.831 808.957 150.509 809.354 150.205C809.734 149.882 810.114 149.558 810.479 149.229C810.826 148.884 811.19 148.563 811.503 148.218C811.808 147.868 812.134 147.551 812.391 147.211C812.647 146.872 812.909 146.563 813.117 146.257C813.318 145.945 813.502 145.659 813.665 145.406C813.831 145.154 813.926 144.909 814.03 144.72C814.224 144.336 814.336 144.115 814.336 144.115L814.353 144.08C814.438 143.913 814.642 143.846 814.809 143.929C814.973 144.011 815.04 144.208 814.964 144.373C814.964 144.373 814.853 144.61 814.66 145.024C814.557 145.227 814.461 145.491 814.295 145.762C814.132 146.035 813.948 146.342 813.746 146.677C813.536 147.007 813.274 147.338 813.015 147.702C812.755 148.068 812.429 148.407 812.119 148.782C811.804 149.153 811.438 149.496 811.087 149.867C810.72 150.22 810.337 150.567 809.953 150.913C809.553 151.24 809.167 151.586 808.761 151.891C808.357 152.2 807.964 152.508 807.565 152.781C806.78 153.349 806.086 153.946 805.428 154.354C804.11 155.152 803.231 155.727 803.231 155.727L803.226 155.73C802.947 155.899 802.507 155.632 802.366 155.338C802.225 155.045 802.314 154.633 802.608 154.491C802.613 154.489 802.585 154.426 802.59 154.424" fill="#42457B"/>
<path fill-rule="evenodd" clip-rule="evenodd" d="M790.405 143.098C790.405 143.098 791.248 141.379 792.506 139.903C792.816 139.532 793.158 139.184 793.494 138.868C793.672 138.719 793.844 138.575 794.006 138.438C794.183 138.314 794.351 138.196 794.505 138.088C794.837 137.898 795.114 137.737 795.335 137.663C795.547 137.578 795.669 137.529 795.669 137.529C795.921 137.429 796.206 137.551 796.306 137.803C796.406 138.054 796.282 138.339 796.03 138.439C796.023 138.442 796.015 138.445 796.007 138.448L795.944 138.469C795.944 138.469 795.845 138.503 795.674 138.561C795.498 138.605 795.261 138.728 794.972 138.868C794.832 138.955 794.682 139.048 794.522 139.146C794.369 139.26 794.208 139.38 794.041 139.504C793.719 139.773 793.384 140.075 793.071 140.408C792.443 141.067 791.883 141.804 791.494 142.375C791.103 142.951 790.88 143.347 790.88 143.347C790.807 143.476 790.643 143.522 790.514 143.45C790.389 143.38 790.342 143.225 790.405 143.098" fill="#42457B"/>
<path fill-rule="evenodd" clip-rule="evenodd" d="M808.927 132.481C808.927 132.481 808.474 132.491 807.783 132.565C807.097 132.639 806.185 132.785 805.308 133.028C804.869 133.147 804.445 133.3 804.056 133.458C803.868 133.546 803.687 133.632 803.514 133.713C803.352 133.808 803.199 133.897 803.058 133.979C802.797 134.168 802.576 134.319 802.454 134.454C802.322 134.578 802.246 134.649 802.246 134.649L802.198 134.694C802.004 134.875 801.701 134.866 801.519 134.674C801.339 134.481 801.349 134.178 801.542 133.996C801.547 133.993 801.553 133.987 801.557 133.984C801.557 133.984 801.656 133.898 801.829 133.749C801.995 133.588 802.266 133.415 802.587 133.208C802.753 133.121 802.935 133.026 803.126 132.926C803.323 132.844 803.529 132.758 803.744 132.669C804.179 132.515 804.646 132.371 805.117 132.266C807.008 131.827 808.927 131.867 808.927 131.867C809.097 131.869 809.232 132.01 809.228 132.179C809.225 132.343 809.09 132.476 808.927 132.481" fill="#42457B"/>
<path fill-rule="evenodd" clip-rule="evenodd" d="M781.493 160.481C781.493 160.481 781.532 160.543 781.61 160.664C781.682 160.766 781.79 160.927 781.963 161.118C782.295 161.485 782.887 162.041 783.787 162.209C785.834 162.495 788.758 162.903 792.267 163.393C795.78 163.882 799.879 164.453 804.271 165.065C806.466 165.37 808.735 165.686 811.04 166.007C812.193 166.168 813.355 166.33 814.521 166.492L816.273 166.736C816.565 166.771 816.872 166.832 817.111 166.835C817.351 166.836 817.591 166.774 817.793 166.655C817.994 166.534 818.16 166.355 818.277 166.14C818.383 165.94 818.476 165.628 818.578 165.358L819.179 163.694C819.579 162.586 819.977 161.482 820.372 160.387C821.162 158.197 821.94 156.043 822.692 153.958C824.196 149.787 825.601 145.894 826.805 142.558C828.006 139.226 829.007 136.448 829.708 134.504C829.983 133.607 829.762 132.818 829.591 132.346C829.407 131.863 829.247 131.633 829.247 131.633L829.749 131.329C829.749 131.329 829.931 131.588 830.142 132.139C830.333 132.679 830.603 133.571 830.27 134.682C829.571 136.632 828.571 139.417 827.372 142.76C826.173 146.098 824.773 149.992 823.275 154.165C822.525 156.251 821.751 158.407 820.963 160.598C820.569 161.693 820.174 162.797 819.775 163.905L819.177 165.57C819.068 165.851 819.002 166.113 818.838 166.44C818.674 166.745 818.426 167.017 818.118 167.201C817.81 167.384 817.457 167.474 817.105 167.473C816.753 167.465 816.478 167.403 816.184 167.369L814.43 167.127C813.264 166.967 812.102 166.807 810.948 166.647C808.643 166.33 806.374 166.017 804.178 165.714C799.786 165.108 795.686 164.543 792.172 164.059C788.655 163.572 785.723 163.168 783.672 162.884C782.511 162.661 781.843 162 781.448 161.577C781.249 161.358 781.118 161.165 781.028 161.035C780.95 160.914 780.911 160.852 780.911 160.852L781.493 160.481Z" fill="#42457B"/>
<path fill-rule="evenodd" clip-rule="evenodd" d="M814.99 159.98C814.146 159.862 813.435 160.291 813.146 161.094L802.489 190.221C803.006 190.125 803.417 189.789 803.893 189.502L844.474 164.981C844.936 164.702 845.413 164.504 845.734 164.106L814.99 159.98Z" fill="#F5F6FB"/>
<path fill-rule="evenodd" clip-rule="evenodd" d="M822.401 169.296C821.896 169.3 821.494 169.697 821.467 170.198C821.471 170.254 821.473 170.308 821.473 170.364C821.471 171.233 821.04 172.07 820.257 172.543C820.048 172.67 819.827 172.762 819.601 172.822C819.575 172.829 819.547 172.835 819.521 172.841C819.52 172.841 819.518 172.841 819.517 172.842C819.074 172.959 818.69 173.188 818.387 173.492C818.249 173.631 818.024 173.577 817.964 173.389C817.83 172.968 817.59 172.574 817.246 172.251C817.246 172.25 817.245 172.249 817.244 172.248C817.222 172.23 817.202 172.211 817.181 172.192C817.007 172.028 816.852 171.838 816.722 171.623C815.975 170.386 816.346 168.793 817.551 168.065C818.334 167.592 819.276 167.6 820.045 168.002C820.095 168.028 820.143 168.055 820.191 168.085C820.646 168.294 821.184 168.123 821.424 167.677C821.66 167.237 821.519 166.686 821.114 166.399C821.056 166.364 820.996 166.331 820.937 166.3C819.586 165.575 817.92 165.553 816.538 166.388C814.726 167.483 813.992 169.697 814.653 171.671C814.76 171.992 814.905 172.307 815.088 172.61C815.712 173.642 816.668 174.346 817.727 174.661C817.828 174.691 817.929 174.717 818.032 174.741C819.108 174.981 820.265 174.828 821.271 174.22C821.566 174.042 821.832 173.833 822.069 173.602C822.94 172.748 823.405 171.573 823.395 170.367C823.395 170.3 823.392 170.233 823.389 170.166C823.389 170.166 823.389 170.166 823.389 170.166C823.325 169.673 822.901 169.292 822.401 169.296" fill="#42457B"/>
<path fill-rule="evenodd" clip-rule="evenodd" d="M819.204 168.807L818.569 170.498L817.82 170.575C817.772 170.573 817.525 170.66 817.474 170.88C817.424 171.099 817.56 171.324 817.777 171.382L818.96 171.693C819.178 171.75 819.395 171.619 819.446 171.399L819.994 169.015C820.044 168.795 819.909 168.571 819.69 168.513C819.472 168.456 819.255 168.587 819.204 168.807" fill="#42457B"/>
<path fill-rule="evenodd" clip-rule="evenodd" d="M815.064 159.458L822.756 160.536C825.319 160.902 827.886 161.24 830.445 161.634L838.127 162.784C840.684 163.195 843.244 163.58 845.798 164.015L845.808 164.017C845.894 164.031 845.952 164.114 845.937 164.2C845.932 164.229 845.919 164.255 845.901 164.276L845.899 164.279C845.54 164.721 845.058 165.003 844.611 165.274L843.258 166.09L840.552 167.721L835.141 170.985L824.318 177.511L813.495 184.036L808.083 187.3L805.377 188.931L804.024 189.747C803.574 190.017 803.1 190.3 802.552 190.403C802.49 190.414 802.43 190.373 802.419 190.311C802.415 190.291 802.418 190.27 802.424 190.252L802.424 190.25L805.094 182.335L807.84 174.447C808.745 171.814 809.704 169.2 810.636 166.577L812.043 162.645L812.396 161.662L812.572 161.171L812.659 160.925C812.697 160.829 812.737 160.723 812.789 160.626C812.987 160.231 813.32 159.871 813.741 159.665C814.141 159.452 814.669 159.404 815.045 159.456L815.064 159.458ZM814.936 160.504C814.377 160.421 813.948 160.64 813.708 161.095C813.677 161.151 813.656 161.208 813.628 161.273L813.538 161.518L813.358 162.008L812.996 162.987L811.549 166.905C810.58 169.515 809.635 172.133 808.638 174.734L805.676 182.544L802.639 190.327L802.638 190.329L802.511 190.179C803.006 190.086 803.457 189.82 803.905 189.55L805.256 188.732L807.959 187.095L813.365 183.821L824.175 177.275L834.986 170.729L840.391 167.455L843.094 165.819L844.446 165C844.895 164.729 845.339 164.461 845.647 164.077L845.649 164.074L845.753 164.336C843.175 164.071 840.605 163.756 838.031 163.469L830.321 162.521C827.749 162.216 825.185 161.855 822.618 161.521L814.917 160.501L814.936 160.504Z" fill="#42457B"/>
</g>
</svg>
