<svg width="332" height="154" viewBox="0 0 332 154" fill="none" xmlns="http://www.w3.org/2000/svg">
<g clip-path="url(#clip0)" filter="url(#filter0_d)">
<g filter="url(#filter1_d)">
<rect x="9.6792" y="1.70459" width="320" height="132" rx="12.4679" transform="rotate(3.00445 9.6792 1.70459)" fill="white"/>
<rect x="10.1523" y="2.23011" width="319" height="131" rx="11.9679" transform="rotate(3.00445 10.1523 2.23011)" stroke="#DEE4EB"/>
</g>
<g clip-path="url(#clip1)">
<rect width="21.2155" height="21.2617" transform="translate(154.253 99.8117) rotate(3.00445)" fill="white"/>
<path d="M175.422 104.798C174.617 105.112 173.759 105.307 172.867 105.369C173.801 104.863 174.542 104.025 174.924 102.999C174.05 103.466 173.092 103.789 172.083 103.937C171.329 103.026 170.218 102.424 168.957 102.358C166.535 102.231 164.467 104.128 164.337 106.595C164.319 106.945 164.34 107.288 164.397 107.618C160.763 107.241 157.626 105.293 155.605 102.477C155.193 103.117 154.936 103.873 154.893 104.692C154.812 106.241 155.514 107.649 156.649 108.512C155.931 108.451 155.266 108.215 154.692 107.849C154.691 107.868 154.69 107.886 154.689 107.905C154.575 110.069 155.992 111.954 157.976 112.47C157.603 112.552 157.213 112.587 156.813 112.566C156.53 112.551 156.257 112.508 155.992 112.442C156.457 114.246 158.008 115.623 159.925 115.759C158.362 116.879 156.433 117.493 154.379 117.386C154.025 117.367 153.677 117.328 153.336 117.268C155.21 118.638 157.476 119.498 159.953 119.628C168.018 120.051 172.785 113.476 173.095 107.574C173.105 107.38 173.111 107.187 173.113 106.995C174.002 106.41 174.787 105.663 175.422 104.798Z" fill="#55ACEE"/>
</g>
<rect x="28.7283" y="26.3535" width="63.0542" height="9.28643" transform="rotate(3.00445 28.7283 26.3535)" fill="#E6E9EC"/>
<rect x="97.7034" y="29.9738" width="100.361" height="9.28643" transform="rotate(3.00445 97.7034 29.9738)" fill="#E6E9EC"/>
<rect x="204.007" y="35.5532" width="83.0214" height="9.28643" transform="rotate(3.00445 204.007 35.5532)" fill="#E6E9EC"/>
<rect x="27.7893" y="44.245" width="50.9688" height="9.28643" rx="4.64322" transform="rotate(3.00445 27.7893 44.245)" fill="#D2D4DF"/>
<rect x="27.7893" y="44.245" width="50.9688" height="9.28643" transform="rotate(3.00445 27.7893 44.245)" fill="#E6E9EC"/>
<rect x="177.1" y="52.0817" width="50.9688" height="9.28643" transform="rotate(3.00445 177.1 52.0817)" fill="#E6E9EC"/>
<rect x="82.9695" y="47.1412" width="89.3267" height="9.28643" transform="rotate(3.00445 82.9695 47.1412)" fill="#E6E9EC"/>
<rect x="26.8502" y="62.1364" width="66.7323" height="9.28643" transform="rotate(3.00445 26.8502 62.1364)" fill="#E6E9EC"/>
</g>
<defs>
<filter id="filter0_d" x="0.584919" y="0.616739" width="330.83" height="152.942" filterUnits="userSpaceOnUse" color-interpolation-filters="sRGB">
<feFlood flood-opacity="0" result="BackgroundImageFix"/>
<feColorMatrix in="SourceAlpha" type="matrix" values="0 0 0 0 0 0 0 0 0 0 0 0 0 0 0 0 0 0 127 0"/>
<feOffset dy="1.08785"/>
<feGaussianBlur stdDeviation="1.08785"/>
<feColorMatrix type="matrix" values="0 0 0 0 0 0 0 0 0 0 0 0 0 0 0 0 0 0 0.02 0"/>
<feBlend mode="normal" in2="BackgroundImageFix" result="effect1_dropShadow"/>
<feBlend mode="normal" in="SourceGraphic" in2="effect1_dropShadow" result="shape"/>
</filter>
<filter id="filter1_d" x="-0.356361" y="1.70459" width="332.713" height="154.825" filterUnits="userSpaceOnUse" color-interpolation-filters="sRGB">
<feFlood flood-opacity="0" result="BackgroundImageFix"/>
<feColorMatrix in="SourceAlpha" type="matrix" values="0 0 0 0 0 0 0 0 0 0 0 0 0 0 0 0 0 0 127 0"/>
<feOffset dy="3.11698"/>
<feGaussianBlur stdDeviation="1.55849"/>
<feColorMatrix type="matrix" values="0 0 0 0 0.258824 0 0 0 0 0.270588 0 0 0 0 0.482353 0 0 0 0.03 0"/>
<feBlend mode="normal" in2="BackgroundImageFix" result="effect1_dropShadow"/>
<feBlend mode="normal" in="SourceGraphic" in2="effect1_dropShadow" result="shape"/>
</filter>
<clipPath id="clip0">
<rect width="320" height="132" fill="white" transform="translate(9.6792 1.70459) rotate(3.00445)"/>
</clipPath>
<clipPath id="clip1">
<rect width="21.2155" height="21.2617" fill="white" transform="translate(154.253 99.8117) rotate(3.00445)"/>
</clipPath>
</defs>
</svg>
